<svg width="36" height="36" viewBox="0 0 36 36" fill="none" xmlns="http://www.w3.org/2000/svg">
<rect width="36" height="36" rx="10" fill="url(#paint0_linear)"/>
<path fill-rule="evenodd" clip-rule="evenodd" d="M24.6236 21.6005C24.5702 21.3056 24.6063 21.0015 24.7273 20.7273C24.8425 20.4584 25.0339 20.2291 25.2778 20.0676C25.5217 19.906 25.8075 19.8193 26.1 19.8182H26.1818C26.664 19.8182 27.1265 19.6266 27.4675 19.2856C27.8084 18.9447 28 18.4822 28 18C28 17.5178 27.8084 17.0553 27.4675 16.7144C27.1265 16.3734 26.664 16.1818 26.1818 16.1818H26.0273C25.7347 16.1807 25.4489 16.094 25.205 15.9324C24.9611 15.7709 24.7698 15.5416 24.6545 15.2727V15.2C24.5335 14.9258 24.4974 14.6216 24.5509 14.3267C24.6044 14.0318 24.745 13.7597 24.9545 13.5455L25.0091 13.4909C25.1781 13.322 25.3122 13.1215 25.4037 12.9008C25.4952 12.6801 25.5423 12.4435 25.5423 12.2045C25.5423 11.9656 25.4952 11.729 25.4037 11.5083C25.3122 11.2876 25.1781 11.087 25.0091 10.9182C24.8402 10.7491 24.6397 10.615 24.419 10.5235C24.1983 10.432 23.9617 10.3849 23.7227 10.3849C23.4838 10.3849 23.2472 10.432 23.0265 10.5235C22.8057 10.615 22.6052 10.7491 22.4364 10.9182L22.3818 10.9727C22.1676 11.1823 21.8954 11.3229 21.6005 11.3764C21.3056 11.4298 21.0015 11.3937 20.7273 11.2727C20.4584 11.1575 20.2291 10.9661 20.0676 10.7222C19.906 10.4783 19.8193 10.1925 19.8182 9.9V9.81818C19.8182 9.33597 19.6266 8.87351 19.2856 8.53253C18.9447 8.19156 18.4822 8 18 8C17.5178 8 17.0553 8.19156 16.7144 8.53253C16.3734 8.87351 16.1818 9.33597 16.1818 9.81818V9.97273C16.1807 10.2653 16.094 10.5511 15.9324 10.795C15.7709 11.0389 15.5416 11.2302 15.2727 11.3455H15.2C14.9258 11.4665 14.6216 11.5026 14.3267 11.4491C14.0318 11.3956 13.7597 11.255 13.5455 11.0455L13.4909 10.9909C13.322 10.8219 13.1215 10.6878 12.9008 10.5963C12.6801 10.5048 12.4435 10.4577 12.2045 10.4577C11.9656 10.4577 11.729 10.5048 11.5083 10.5963C11.2876 10.6878 11.087 10.8219 10.9182 10.9909C10.7491 11.1598 10.615 11.3603 10.5235 11.581C10.432 11.8017 10.3849 12.0383 10.3849 12.2773C10.3849 12.5162 10.432 12.7528 10.5235 12.9735C10.615 13.1943 10.7491 13.3948 10.9182 13.5636L10.9727 13.6182C11.1823 13.8324 11.3229 14.1046 11.3764 14.3995C11.4298 14.6944 11.3937 14.9985 11.2727 15.2727C11.1688 15.5552 10.9824 15.7999 10.7375 15.975C10.4927 16.1501 10.2009 16.2475 9.9 16.2545H9.81818C9.33597 16.2545 8.87351 16.4461 8.53253 16.7871C8.19156 17.1281 8 17.5905 8 18.0727C8 18.5549 8.19156 19.0174 8.53253 19.3584C8.87351 19.6994 9.33597 19.8909 9.81818 19.8909H9.97273C10.2653 19.8921 10.5511 19.9788 10.795 20.1403C11.0389 20.3018 11.2302 20.5311 11.3455 20.8C11.4665 21.0742 11.5026 21.3784 11.4491 21.6733C11.3956 21.9682 11.255 22.2403 11.0455 22.4545L10.9909 22.5091C10.8219 22.678 10.6878 22.8785 10.5963 23.0992C10.5048 23.3199 10.4577 23.5565 10.4577 23.7955C10.4577 24.0344 10.5048 24.271 10.5963 24.4917C10.6878 24.7124 10.8219 24.913 10.9909 25.0818C11.1598 25.2509 11.3603 25.385 11.581 25.4765C11.8017 25.568 12.0383 25.6151 12.2773 25.6151C12.5162 25.6151 12.7528 25.568 12.9735 25.4765C13.1943 25.385 13.3948 25.2509 13.5636 25.0818L13.6182 25.0273C13.8324 24.8177 14.1046 24.6771 14.3995 24.6236C14.6944 24.5702 14.9985 24.6063 15.2727 24.7273C15.5552 24.8312 15.7999 25.0176 15.975 25.2625C16.1501 25.5073 16.2475 25.7991 16.2545 26.1V26.1818C16.2545 26.664 16.4461 27.1265 16.7871 27.4675C17.1281 27.8084 17.5905 28 18.0727 28C18.5549 28 19.0174 27.8084 19.3584 27.4675C19.6994 27.1265 19.8909 26.664 19.8909 26.1818V26.0273C19.8921 25.7347 19.9788 25.4489 20.1403 25.205C20.3018 24.9611 20.5311 24.7698 20.8 24.6545C21.0742 24.5335 21.3784 24.4974 21.6733 24.5509C21.9682 24.6044 22.2403 24.745 22.4545 24.9545L22.5091 25.0091C22.678 25.1781 22.8785 25.3122 23.0992 25.4037C23.3199 25.4952 23.5565 25.5423 23.7955 25.5423C24.0344 25.5423 24.271 25.4952 24.4917 25.4037C24.7124 25.3122 24.913 25.1781 25.0818 25.0091C25.2509 24.8402 25.385 24.6397 25.4765 24.419C25.568 24.1983 25.6151 23.9617 25.6151 23.7227C25.6151 23.4838 25.568 23.2472 25.4765 23.0265C25.385 22.8057 25.2509 22.6052 25.0818 22.4364L25.0273 22.3818C24.8177 22.1676 24.6771 21.8954 24.6236 21.6005ZM21 18C21 19.6569 19.6569 21 18 21C16.3431 21 15 19.6569 15 18C15 16.3431 16.3431 15 18 15C19.6569 15 21 16.3431 21 18Z" fill="white"/>
<defs>
<linearGradient id="paint0_linear" x1="18" y1="0" x2="18" y2="36" gradientUnits="userSpaceOnUse">
<stop stop-color="#7A90CB"/>
<stop offset="1" stop-color="#3B6CF4"/>
</linearGradient>
</defs>
</svg>
