<svg width="153" height="180" viewBox="0 0 153 180" fill="none" xmlns="http://www.w3.org/2000/svg">
<mask id="mask0_1039_18735" style="mask-type:alpha" maskUnits="userSpaceOnUse" x="0" y="0" width="153" height="180">
<rect x="0.636719" y="0.334473" width="152.067" height="178.762" fill="white"/>
</mask>
<g mask="url(#mask0_1039_18735)">
<path d="M152.727 175.929C152.727 175.929 151.567 147.019 119.211 138.895C86.8557 130.771 51.4218 131.161 51.4218 131.161C51.4218 131.161 36.2593 137.326 25.2832 142.03C14.3071 146.734 7.8452 145.883 0.860422 175.929C-6.12436 205.974 152.421 182.936 152.421 182.936L152.727 175.929Z" fill="#6E0B14"/>
<path d="M91.8353 124.073C92.4981 121.886 93.529 119.87 94.838 118.086C94.9116 117.987 94.9853 117.884 95.0571 117.784C105.153 103.342 106.81 95.2816 106.81 95.2816C106.81 95.2816 108.712 95.2411 110.936 93.0374C119.533 79.97 116.669 70.0304 116.052 68.5575C115.857 68.0918 115.588 67.7917 115.288 67.6094C114.504 67.2523 113.708 67.4198 113.324 67.5432C113.235 67.5744 113.141 67.615 113.042 67.661C112.887 67.7678 112.322 68.1194 111.814 68.0163C111.805 68.0145 111.794 68.0126 111.784 68.0089C111.773 68.0071 111.764 68.0034 111.753 68.0016C111.738 67.9979 111.726 67.9942 111.711 67.9887C111.343 67.8635 111.022 67.4603 110.945 66.4901V66.4883C110.945 66.4864 110.945 66.4846 110.945 66.4827C110.939 66.4017 110.934 66.3152 110.932 66.225C110.904 65.5254 110.963 65.0155 111.044 64.5147C111.057 64.4153 111.072 64.314 111.089 64.2091C111.335 62.6111 111.262 60.4166 110.949 58.0325C110.722 56.5707 110.371 54.7408 109.842 52.399C109.842 52.3972 109.84 52.3935 109.84 52.3917C108.752 48.2181 107.138 44.3999 105.387 42.9712C100.361 38.875 94.792 38.2214 94.792 38.2214C94.792 38.2214 93.1295 42.2606 78.0682 45.8708C68.8982 48.2696 63.2445 55.468 60.4903 58.3179C57.7343 61.1677 52.9367 67.2504 45.5726 68.2004C39.0168 66.7755 39.4679 71.9063 39.6814 78.4622C39.895 85.018 41.1542 87.5365 42.9124 91.4799C44.6705 95.4234 44.3852 95.2337 46.5226 95.0423C46.5226 95.0423 48.6121 102.169 57.0697 112.289C57.0697 112.289 60.4517 123.804 57.4968 126.352C55.862 127.761 54.7261 129.246 51.4234 131.161L52.6513 137.755L61.7735 169.255L77.3097 175.931L89.2818 171.632L96.2482 144.208C96.2463 144.206 88.0318 135.568 91.8353 124.073Z" fill="#ECCDB0"/>
<path d="M81.7271 46.5835C81.7271 46.5835 86.6683 45.8231 91.9888 41.9276C97.3094 38.032 105.292 46.5835 105.292 46.5835C105.292 46.5835 109.948 53.8996 109.852 65.4924C109.756 77.0853 110.898 78.6059 110.898 78.6059C110.898 78.6059 112.323 69.5795 113.939 70.9087C115.554 72.2397 116.314 86.3014 109.379 92.0987C109.379 92.0987 107.194 90.4841 105.958 95.615C104.723 100.746 95.4812 122.505 78.2954 127.256C78.2954 127.256 81.1343 127.993 87.5962 124.335C87.5962 124.335 88.2608 123.694 88.3805 125.191C88.5001 126.688 92.9185 142.104 88.7836 153.222C84.6506 164.34 75.742 174.887 75.742 174.887L90.8493 169.828L104.675 127.925L121.778 72.908L112.514 37.4189L92.2742 29.7217L68.6136 41.1249L38.2554 58.0861L40.251 97.1338L57.4976 148.017L59.9203 143.884C59.9203 143.884 62.2014 132.198 60.0621 116.947C60.0621 116.947 68.3282 124.786 73.6506 127.067C73.6506 127.067 48.09 107.493 46.0944 89.2488C46.0944 89.2488 45.9342 88.3172 45.5071 89.2967C45.08 90.2761 44.3675 90.5964 43.922 89.7772C43.4765 88.9579 40.0614 83.8326 40.9175 73.7604C40.9175 73.7604 41.6299 70.5773 43.1027 74.1397C44.5756 77.702 45.4776 78.8913 46.0005 80.5059C46.5233 82.1204 46.1901 76.5146 46.1901 76.5146C46.1901 76.5146 46.0484 71.1462 51.1792 69.4837C56.3101 67.8213 63.2949 65.4446 67.8072 70.9087C67.8072 70.9087 67.949 69.3401 62.9617 66.4903C57.9726 63.6404 62.4867 57.9867 62.4867 57.9867C62.4867 57.9867 67.6636 49.6248 81.7271 46.5835Z" fill="#DDB99E"/>
<path d="M57.4976 126.352C57.4976 126.352 60.5611 162.983 76.703 174.099C76.703 174.099 95.1554 155.713 95.5678 126.352L106.242 134.333L102.26 149.855L103.819 160.275C103.819 160.275 89.6361 191.916 76.703 191.204C63.7699 190.491 49.6586 159.989 49.6586 159.989L51.0836 151.169L42.105 143.599L52.225 128.348L57.4976 126.352Z" fill="white"/>
<path d="M76.7036 101.648C76.7036 101.648 78.9257 99.319 84.2462 103.596C88.3314 106.874 87.2875 105.924 88.95 106.208C88.521 107.075 84.0087 111.862 76.7864 112.574C69.5181 112.241 64.2915 106.208 64.2915 106.208C64.2915 106.208 66.0975 106.635 68.9474 103.69C72.1784 100.992 75.8107 100.459 76.7036 101.648Z" fill="#6E0B14"/>
<path d="M74.6964 94.1401C74.6964 94.1401 73.6028 94.3298 71.9883 93.713C71.9883 93.713 72.8554 93.5436 73.2825 93.1791C73.7096 92.8128 74.8437 93.3117 74.6964 94.1401Z" fill="#DDB99E"/>
<path d="M78.6611 94.1678C78.6611 94.1678 78.7587 93.0705 79.4804 93.1074C80.2021 93.1423 80.7102 93.713 81.511 93.6376C82.3137 93.5621 79.6056 94.2322 78.6611 94.1678Z" fill="#DDB99E"/>
<path d="M70.2538 75.1483C70.2538 75.1483 66.476 69.0196 61.6655 68.4489C56.8549 67.8782 51.1772 69.4817 51.1772 69.4817C51.1772 69.4817 56.9617 66.4164 62.7701 67.8432C68.5784 69.27 70.2538 75.1483 70.2538 75.1483Z" fill="black"/>
<path d="M83.1519 75.1483C83.1519 75.1483 85.6814 68.4765 91.348 67.4658C97.1914 66.8822 99.3656 68.7711 102.501 69.4467C102.501 69.4467 102.037 69.8039 96.9428 68.3771C96.941 68.379 89.5309 65.5641 83.1519 75.1483Z" fill="black"/>
<path d="M60.4891 58.3179C60.4891 58.3179 65.6199 59.0782 68.8509 61.8802C72.0819 64.6841 70.0384 65.8273 69.1363 66.0335C68.2342 66.2397 66.3324 65.634 63.1493 63.3052C59.9662 60.9763 53.0293 61.0242 53.0293 61.0242L57.827 57.8889L60.4891 58.3179Z" fill="black"/>
<path d="M95.1237 58.3658C89.9928 58.6512 86.2869 60.0522 84.0059 62.451C81.7249 64.8499 83.7205 66.3889 85.0516 66.0355C86.3826 65.682 87.5701 64.5884 90.8949 62.8303C94.2198 61.0721 102.488 61.2617 107.144 64.0656C107.144 64.0674 100.255 58.0805 95.1237 58.3658Z" fill="black"/>
<path d="M92.8262 73.6165C94.6858 73.6165 96.1934 72.3719 96.1934 70.8366C96.1934 69.3013 94.6858 68.0566 92.8262 68.0566C90.9665 68.0566 89.459 69.3013 89.459 70.8366C89.459 72.3719 90.9665 73.6165 92.8262 73.6165Z" fill="black"/>
<path d="M60.7149 73.6165C62.6894 73.6165 64.2901 72.3719 64.2901 70.8366C64.2901 69.3013 62.6894 68.0566 60.7149 68.0566C58.7403 68.0566 57.1396 69.3013 57.1396 70.8366C57.1396 72.3719 58.7403 73.6165 60.7149 73.6165Z" fill="black"/>
<path d="M111.394 98.2419C112.665 98.2419 113.695 97.2116 113.695 95.9407C113.695 94.6697 112.665 93.6394 111.394 93.6394C110.123 93.6394 109.093 94.6697 109.093 95.9407C109.093 97.2116 110.123 98.2419 111.394 98.2419Z" fill="#272622"/>
<path d="M94.7926 38.2215C94.7926 38.2215 93.1302 42.2607 78.0689 45.8709C68.8989 48.2697 63.2451 55.468 60.491 58.3179C57.735 61.1678 52.9373 67.2505 45.5733 68.2004C39.0175 66.7755 39.4685 71.9064 39.6821 78.4622C39.8956 85.018 41.1549 87.5365 42.9131 91.48C44.6712 95.4234 44.3859 95.2338 46.5233 95.0423C46.5233 95.0423 48.6128 102.169 57.0704 112.289C57.0704 112.289 60.4523 123.804 57.4975 126.352C54.5427 128.9 53.2209 131.697 37.7564 136.828C37.7564 136.828 45.5236 125.496 41.7477 113.596C37.97 101.694 21.8648 60.3614 40.6781 29.4325C59.4913 -1.49639 79.0189 0.355658 79.0189 0.355658C79.0189 0.355658 85.5747 -0.356812 92.9866 7.4822C92.9866 7.4822 99.4725 4.84587 105.172 11.2599C110.874 17.674 130.757 39.9796 125.694 76.5144C120.351 98.7022 113.035 98.0837 112.798 118.37C112.56 138.656 128.19 140.604 128.19 140.604C128.19 140.604 132.038 141.174 126.195 146.02C120.351 150.865 106.525 156.425 97.6885 146.02C88.8517 135.614 89.7078 125.067 94.8387 118.084C99.9695 111.101 105.957 100.269 106.811 95.2798C106.811 95.2798 113.796 95.1381 116.645 79.8872C119.495 64.6363 113.083 67.6297 113.083 67.6297C113.083 67.6297 110.233 69.7671 111.087 64.2091C111.942 58.6511 108.943 45.8727 105.386 42.9731C100.362 38.875 94.7926 38.2215 94.7926 38.2215Z" fill="#272622"/>
<path d="M87.6892 39.5986C91.1338 36.9383 96.8354 32.9949 95.3147 16.3669C94.9226 12.07 93.4921 8.71198 91.5922 6.09591C84.7731 -0.268455 79.02 0.357488 79.02 0.357488C79.02 0.357488 77.1495 0.245186 73.9903 1.01841C66.4532 4.12971 53.7687 11.1716 45.3829 25.4431C32.7923 46.8705 36.4503 59.7447 36.9253 62.8799C37.4003 66.0152 39.8709 66.0354 39.8709 66.0354C39.8709 66.0354 41.6291 65.7298 45.4768 66.0152C51.7012 66.4423 56.5946 59.8865 56.5946 59.8865C56.5946 59.8865 64.4815 51.0018 71.1331 47.2019C77.7828 43.4002 84.2447 42.2607 87.6892 39.5986Z" fill="#31302C"/>
<path d="M126.195 146.022C132.039 141.176 128.191 140.606 128.191 140.606C128.191 140.606 112.561 138.658 112.798 118.372C113.036 98.0856 120.352 98.7023 125.694 76.5164C130.757 39.9816 110.874 17.6759 105.173 11.2619C103.88 9.80932 102.549 8.8207 101.261 8.16162C100.187 10.0063 99.4969 12.6224 99.8264 16.3228C100.824 27.5106 105.598 35.8485 105.598 35.8485C105.598 35.8485 110.657 43.4022 112.297 45.4696C113.936 47.5371 122.668 59.2422 121.276 76.1298C119.884 93.0173 106.738 105.332 103.959 115.594C101.408 125.016 96.936 146.749 115.963 151.171C120.112 150.085 123.815 147.995 126.195 146.022Z" fill="#31302C"/>
<path d="M44.1933 95.3589C45.4643 95.3589 46.4946 94.3286 46.4946 93.0576C46.4946 91.7867 45.4643 90.7563 44.1933 90.7563C42.9224 90.7563 41.8921 91.7867 41.8921 93.0576C41.8921 94.3286 42.9224 95.3589 44.1933 95.3589Z" fill="white"/>
<path d="M109.09 95.3591C110.361 95.3591 111.392 94.3288 111.392 93.0579C111.392 91.7869 110.361 90.7566 109.09 90.7566C107.819 90.7566 106.789 91.7869 106.789 93.0579C106.789 94.3288 107.819 95.3591 109.09 95.3591Z" fill="white"/>
</g>
</svg>
