<svg width="211" height="248" viewBox="0 0 211 248" fill="none" xmlns="http://www.w3.org/2000/svg">
<mask id="mask0" mask-type="alpha" maskUnits="userSpaceOnUse" x="0" y="0" width="211" height="248">
<rect width="211" height="248" fill="#C4C4C4"/>
</mask>
<g mask="url(#mask0)">
<path d="M211.032 243.606C211.032 243.606 209.423 203.499 164.528 192.228C119.633 180.957 70.4672 181.498 70.4672 181.498C70.4672 181.498 49.4286 190.052 34.1988 196.578C18.969 203.103 10.0028 201.923 0.311075 243.606C-9.38061 285.288 210.608 253.326 210.608 253.326L211.032 243.606Z" fill="#6472D3"/>
<path d="M126.543 171.665C127.463 168.631 128.893 165.834 130.71 163.36C130.812 163.222 130.914 163.079 131.014 162.941C145.022 142.904 147.321 131.722 147.321 131.722C147.321 131.722 149.96 131.666 153.046 128.609C164.975 110.48 161.001 96.6907 160.145 94.6474C159.874 94.0013 159.501 93.585 159.085 93.3321C157.997 92.8366 156.893 93.069 156.359 93.2402C156.236 93.2836 156.106 93.3398 155.968 93.4036C155.754 93.5518 154.969 94.0396 154.264 93.8966C154.252 93.894 154.236 93.8914 154.224 93.8863C154.208 93.8838 154.195 93.8787 154.18 93.8761C154.16 93.871 154.142 93.8659 154.121 93.8582C153.611 93.6846 153.166 93.1252 153.059 91.7792V91.7767C153.059 91.7741 153.059 91.7716 153.059 91.769C153.051 91.6566 153.043 91.5366 153.041 91.4114C153.003 90.4409 153.084 89.7334 153.197 89.0387C153.215 88.9008 153.235 88.7603 153.258 88.6147C153.6 86.3978 153.498 83.3534 153.064 80.0458C152.75 78.0179 152.262 75.4792 151.529 72.2304C151.529 72.2278 151.526 72.2227 151.526 72.2202C150.016 66.4301 147.776 61.133 145.347 59.151C138.373 53.4682 130.646 52.5615 130.646 52.5615C130.646 52.5615 128.339 58.1651 107.441 63.1737C94.717 66.5016 86.8722 76.488 83.0508 80.4417C79.2267 84.3954 72.5697 92.8341 62.3518 94.152C53.2553 92.1751 53.8812 99.2933 54.1775 108.388C54.4738 117.483 56.2211 120.977 58.6606 126.448C61.1001 131.919 60.7042 131.656 63.6699 131.39C63.6699 131.39 66.5693 141.277 78.3045 155.317C78.3045 155.317 82.9971 171.292 78.8972 174.827C76.6288 176.781 75.0527 178.842 70.47 181.499L72.1738 190.647L84.8312 234.347L106.388 243.608L123 237.645L132.666 199.599C132.664 199.597 121.266 187.613 126.543 171.665Z" fill="#FDD2AA"/>
<path d="M112.517 64.1622C112.517 64.1622 119.373 63.1074 126.755 57.703C134.138 52.2986 145.214 64.1622 145.214 64.1622C145.214 64.1622 151.674 74.3121 151.541 90.3951C151.409 106.478 152.992 108.588 152.992 108.588C152.992 108.588 154.969 96.0651 157.212 97.9091C159.453 99.7557 160.508 119.264 150.885 127.306C150.885 127.306 147.853 125.067 146.139 132.185C144.425 139.303 131.601 169.489 107.755 176.082C107.755 176.082 111.694 177.103 120.66 172.028C120.66 172.028 121.582 171.139 121.748 173.216C121.915 175.292 128.045 196.68 122.308 212.104C116.573 227.528 104.212 242.16 104.212 242.16L125.174 235.142L144.358 177.009L168.089 100.683L155.235 51.4481L127.151 40.7695L94.3211 56.5894L52.1978 80.1201L54.9668 134.292L78.8972 204.884L82.2588 199.15C82.2588 199.15 85.4238 182.937 82.4555 161.779C82.4555 161.779 93.9251 172.654 101.31 175.818C101.31 175.818 65.8438 148.664 63.0747 123.353C63.0747 123.353 62.8525 122.06 62.2598 123.419C61.6672 124.778 60.6786 125.222 60.0604 124.086C59.4422 122.949 54.7037 115.839 55.8915 101.865C55.8915 101.865 56.8801 97.4494 58.9237 102.392C60.9673 107.334 62.219 108.984 62.9444 111.223C63.6699 113.463 63.2076 105.686 63.2076 105.686C63.2076 105.686 63.0109 98.2386 70.1302 95.9323C77.2495 93.626 86.9412 90.3287 93.2022 97.9091C93.2022 97.9091 93.3989 95.7331 86.4788 91.7794C79.5562 87.8257 85.8198 79.9821 85.8198 79.9821C85.8198 79.9821 93.003 68.3816 112.517 64.1622Z" fill="#FFBB7B"/>
<path d="M78.8973 174.828C78.8973 174.828 83.1479 225.646 105.546 241.067C105.546 241.067 131.149 215.56 131.721 174.828L146.532 185.9L141.007 207.433L143.17 221.889C143.17 221.889 123.491 265.786 105.546 264.797C87.6004 263.809 68.0203 221.493 68.0203 221.493L69.9975 209.256L57.5393 198.754L71.5813 177.596L78.8973 174.828Z" fill="white"/>
<path d="M105.546 140.554C105.546 140.554 108.629 137.323 116.011 143.256C121.68 147.805 120.231 146.487 122.538 146.88C121.943 148.083 115.682 154.724 105.66 155.712C95.5754 155.25 88.3232 146.88 88.3232 146.88C88.3232 146.88 90.8292 147.473 94.7835 143.386C99.2666 139.645 104.307 138.904 105.546 140.554Z" fill="#502222"/>
<path d="M102.761 130.139C102.761 130.139 101.244 130.402 99.0033 129.546C99.0033 129.546 100.206 129.311 100.799 128.806C101.392 128.297 102.965 128.989 102.761 130.139Z" fill="#FFBB7B"/>
<path d="M108.263 130.177C108.263 130.177 108.399 128.655 109.4 128.706C110.402 128.754 111.107 129.546 112.218 129.442C113.332 129.337 109.574 130.267 108.263 130.177Z" fill="#FFBB7B"/>
<path d="M96.597 103.791C96.597 103.791 91.3553 95.2882 84.6804 94.4964C78.0056 93.7047 70.1276 95.9293 70.1276 95.9293C70.1276 95.9293 78.1537 91.6767 86.2131 93.6561C94.2725 95.6355 96.597 103.791 96.597 103.791Z" fill="black"/>
<path d="M114.494 103.791C114.494 103.791 118.004 94.5348 125.867 93.1326C133.974 92.3229 136.991 94.9434 141.342 95.8808C141.342 95.8808 140.698 96.3762 133.63 94.3968C133.627 94.3994 123.345 90.4942 114.494 103.791Z" fill="black"/>
<path d="M83.0481 80.4418C83.0481 80.4418 90.1675 81.4966 94.6506 85.3839C99.1337 89.2738 96.2982 90.8598 95.0465 91.1459C93.7948 91.4319 91.156 90.5916 86.7393 87.3608C82.3227 84.1299 72.6974 84.1963 72.6974 84.1963L79.3544 79.8467L83.0481 80.4418Z" fill="black"/>
<path d="M131.106 80.5083C123.986 80.9042 118.844 82.8479 115.679 86.1758C112.514 89.5038 115.283 91.639 117.13 91.1486C118.977 90.6582 120.625 89.1411 125.238 86.702C129.851 84.2628 141.324 84.5259 147.784 88.4157C147.784 88.4183 138.225 80.1125 131.106 80.5083Z" fill="black"/>
<path d="M127.918 101.666C130.498 101.666 132.59 99.9392 132.59 97.8093C132.59 95.6793 130.498 93.9526 127.918 93.9526C125.337 93.9526 123.246 95.6793 123.246 97.8093C123.246 99.9392 125.337 101.666 127.918 101.666Z" fill="black"/>
<path d="M83.3622 101.666C86.1019 101.666 88.323 99.9392 88.323 97.8093C88.323 95.6793 86.1019 93.9526 83.3622 93.9526C80.6224 93.9526 78.4014 95.6793 78.4014 97.8093C78.4014 99.9392 80.6224 101.666 83.3622 101.666Z" fill="black"/>
<path d="M153.68 135.83C155.443 135.83 156.873 134.4 156.873 132.637C156.873 130.874 155.443 129.444 153.68 129.444C151.916 129.444 150.487 130.874 150.487 132.637C150.487 134.4 151.916 135.83 153.68 135.83Z" fill="black"/>
<path d="M130.646 52.5615C130.646 52.5615 128.339 58.1651 107.441 63.1736C94.717 66.5016 86.8722 76.488 83.0507 80.4417C79.2266 84.3954 72.5697 92.834 62.3518 94.1519C53.2553 92.175 53.8811 99.2932 54.1774 108.388C54.4738 117.483 56.221 120.977 58.6606 126.448C61.1001 131.919 60.7041 131.656 63.6699 131.39C63.6699 131.39 66.5692 141.277 78.3045 155.317C78.3045 155.317 82.9971 171.292 78.8971 174.827C74.7972 178.362 72.9631 182.242 51.5055 189.36C51.5055 189.36 62.2828 173.64 57.0436 157.13C51.8018 140.618 29.4552 83.2767 55.5594 40.3683C81.6636 -2.54 108.759 0.0293911 108.759 0.0293911C108.759 0.0293911 117.855 -0.959034 128.14 9.91619C128.14 9.91619 137.139 6.25876 145.048 15.1571C152.959 24.0555 180.547 55.0006 173.523 105.686C166.109 136.468 155.958 135.61 155.628 163.753C155.299 191.896 176.986 194.598 176.986 194.598C176.986 194.598 182.325 195.39 174.217 202.112C166.11 208.835 146.925 216.548 134.664 202.112C122.402 187.677 123.59 173.044 130.71 163.357C137.829 153.669 146.136 138.641 147.321 131.72C147.321 131.72 157.013 131.523 160.967 110.365C164.922 89.2072 156.024 93.3601 156.024 93.3601C156.024 93.3601 152.07 96.3254 153.255 88.6147C154.441 80.9039 150.279 63.1762 145.344 59.1535C138.373 53.4681 130.646 52.5615 130.646 52.5615Z" fill="black"/>
<path d="M120.79 54.4722C125.57 50.7816 133.481 45.3108 131.371 22.2424C130.827 16.2812 128.842 11.6226 126.206 7.99328C116.744 -0.836133 108.761 0.0322507 108.761 0.0322507C108.761 0.0322507 106.166 -0.123548 101.783 0.94916C91.3246 5.26553 73.7242 15.0348 62.0886 34.834C44.6185 64.5608 49.6942 82.4214 50.3533 86.771C51.0124 91.1205 54.4405 91.1486 54.4405 91.1486C54.4405 91.1486 56.88 90.7247 62.2189 91.1205C70.8555 91.7131 77.6453 82.618 77.6453 82.618C77.6453 82.618 88.5887 70.2921 97.818 65.0205C107.045 59.7464 116.011 58.1654 120.79 54.4722Z" fill="#181818"/>
<path d="M174.22 202.116C182.328 195.393 176.989 194.602 176.989 194.602C176.989 194.602 155.302 191.899 155.631 163.756C155.961 135.613 166.112 136.468 173.525 105.689C180.55 55.0039 152.962 24.0588 145.051 15.1604C143.257 13.1453 141.411 11.7737 139.622 10.8594C138.133 13.4186 137.175 17.0479 137.632 22.1816C139.017 37.7026 145.641 49.27 145.641 49.27C145.641 49.27 152.66 59.7493 154.936 62.6176C157.21 65.4858 169.326 81.7245 167.395 105.153C165.463 128.581 147.222 145.666 143.367 159.902C139.827 172.974 133.622 203.124 160.022 209.259C165.78 207.752 170.917 204.854 174.22 202.116Z" fill="#181818"/>
<path d="M60.4382 131.83C62.2017 131.83 63.6313 130.4 63.6313 128.637C63.6313 126.874 62.2017 125.444 60.4382 125.444C58.6747 125.444 57.2451 126.874 57.2451 128.637C57.2451 130.4 58.6747 131.83 60.4382 131.83Z" fill="white"/>
<path d="M150.486 131.83C152.25 131.83 153.679 130.4 153.679 128.637C153.679 126.874 152.25 125.444 150.486 125.444C148.723 125.444 147.293 126.874 147.293 128.637C147.293 130.4 148.723 131.83 150.486 131.83Z" fill="white"/>
</g>
</svg>
