<svg width="257" height="273" viewBox="0 0 257 273" fill="none" xmlns="http://www.w3.org/2000/svg">
<path d="M257 273C257 273 252.544 207.217 224.047 201.414C195.55 195.61 182.587 192.774 168.136 180.759L88.2545 180.96C88.2545 180.96 84.8111 186.563 69.1456 192.502C53.4802 198.442 36.1925 200.603 36.1925 200.603C36.1925 200.603 20.1215 200.197 10.5343 225.848C0.947201 251.498 0 273 0 273H257Z" fill="#161514"/>
<path d="M92.6919 180.95L88.2568 180.961C88.2568 180.961 84.8134 186.563 69.1479 192.503C53.4825 198.443 36.1948 200.603 36.1948 200.603C36.1948 200.603 20.1238 200.198 10.5367 225.848C0.946903 251.496 0.00231934 273.001 0.00231934 273.001H2.83869C2.83869 273.001 9.31995 208.434 34.3056 203.169C59.2887 197.904 67.7324 196.418 86.0641 184.539C86.0641 184.539 79.5462 202.709 97.1034 273.001H110.78L92.6919 180.95Z" fill="#070509"/>
<path d="M224.046 201.414C195.552 195.61 182.587 192.774 168.135 180.759L166.864 180.761L154.124 273H160.233C160.233 273 166.175 256.154 170.328 223.855C174.48 191.556 171.848 186.157 171.848 186.157C199.534 200.061 200.073 198.576 223.303 203.033C246.531 207.487 253.826 273 253.826 273H256.999C256.999 273 252.543 207.217 224.046 201.414Z" fill="#070509"/>
<path d="M156.963 162.602C156.963 162.602 159.056 162.67 160.338 165.403C161.62 168.136 165.435 178.465 169.656 181.972C169.656 181.972 169.925 182.04 170.062 183.591C170.117 184.229 171.807 200.137 169.489 217.799C166.152 243.188 158.415 273 158.415 273H98.1816C98.1816 273 81.8411 205.462 87.1083 182.919C87.1083 182.919 87.0402 182.582 88.2569 180.963C89.4736 179.344 91.4047 178.221 96.2427 166.046C96.2427 166.046 97.763 162.604 99.8143 162.782C101.866 162.96 156.963 162.602 156.963 162.602Z" fill="#F8F0E5"/>
<path d="M169.656 181.972C165.435 178.462 161.62 168.136 160.338 165.403C159.056 162.67 156.963 162.602 156.963 162.602C156.963 162.602 101.863 162.955 99.8115 162.779C97.7601 162.602 96.2399 166.044 96.2399 166.044C91.4045 178.219 89.4708 179.341 88.2541 180.96C87.0374 182.579 87.1054 182.916 87.1054 182.916C81.8383 205.459 98.1788 272.997 98.1788 272.997H99.0292C99.0161 272.937 99.003 272.882 98.9899 272.822C83.5966 205.731 86.7025 194.799 87.1081 187.373C87.5136 179.948 89.7089 183.052 89.7089 183.052C99.5342 168.068 101.761 172.117 101.761 172.117C112.091 184.065 125.26 185.179 125.26 185.179C113.308 190.342 113.106 208.87 113.106 208.87C103.927 203.001 90.7216 185.077 90.7216 185.077C96.8993 197.124 114.051 210.792 114.051 210.792C114.051 210.792 129.159 222.081 143.035 210.842C156.91 199.603 166.343 184.535 166.343 184.535C155.063 200.498 143.642 209.071 143.642 209.071C142.579 188.924 131.841 185.278 131.841 185.278C150.073 181.229 155.44 172.117 155.44 172.117C158.53 169.384 167.392 183.152 167.392 183.152C168.889 181.14 169.216 183.353 169.216 183.353C174.18 218.249 157.737 272.997 157.737 272.997H158.412C158.412 272.997 166.152 243.188 169.486 217.797C171.807 200.134 170.116 184.227 170.059 183.588C169.925 182.04 169.656 181.972 169.656 181.972Z" fill="#E4DAD0"/>
<path d="M170.231 108.738C170.231 108.738 167.599 122.407 167.801 128.987C167.801 128.987 168.206 135.67 162.23 141.239C156.254 146.807 157.57 149.135 157.57 149.135L157.115 162.348C157.115 162.348 157.013 163.816 157.57 164.524C158.127 165.233 157.824 166.447 157.824 166.447C157.824 166.447 153.349 181.23 128.568 184.536C128.568 184.536 106.622 182.375 98.9926 166.109C98.9926 166.109 98.4954 165.712 99.5577 164.195C99.5577 164.195 99.8351 163.361 99.8351 161.409C99.8351 159.458 99.6336 150.28 99.3955 148.627C99.16 146.974 99.2254 146.3 95.9861 142.722C92.7442 139.143 89.8084 136.478 88.9972 126.152C88.1861 115.826 86.7182 108.788 86.7182 108.788C86.7182 108.788 75.8725 107.825 70.8879 83.7285C68.1327 66.9212 72.6908 60.6439 72.6908 60.6439C72.6908 60.6439 75.7286 56.7965 77.3509 62.1635C78.9731 67.5306 79.0726 77.2499 79.0726 77.2499C79.0726 77.2499 78.7691 86.9691 85.0488 87.7799L83.1256 75.1234L86.7732 41.7128L98.116 37.46H154.733L168.002 41.5088L173.876 63.5812L180.967 59.3283C180.967 59.3283 182.924 58.3841 184.547 61.2847C185.907 63.7224 191.164 81.4033 180.057 100.23C177.725 104.184 174.585 108.131 170.231 108.738Z" fill="#FAE0CF"/>
<path d="M167.741 130.439L167.597 130.305C167.597 130.305 167.636 134.189 163.928 139.428C166.781 135.949 167.545 132.369 167.741 130.439Z" fill="#F2BA9E"/>
<path d="M170.433 108.267L169.894 108.335L170.3 108.73C174.62 108.092 177.741 104.163 180.057 100.237C191.164 81.411 185.908 63.7274 184.547 61.2924C182.927 58.3892 180.968 59.336 180.968 59.336L173.877 63.5888L168.003 41.5165L154.734 37.4624H98.1138L86.771 41.7152L83.1235 75.1259L85.0466 87.7824C78.7669 86.9716 79.0704 77.2523 79.0704 77.2523C79.0704 77.2523 79.5937 72.3299 78.9683 67.533C78.7198 65.6263 78.3142 63.5417 77.8537 62.0143C76.234 56.6472 72.6886 60.6464 72.6886 60.6464C72.6886 60.6464 68.1305 66.9236 70.8857 83.7309C75.8703 107.828 86.716 108.79 86.716 108.79C86.716 108.79 88.1839 115.826 88.9951 126.155C89.8062 136.481 92.742 139.149 95.9839 142.724C99.2259 146.299 99.1578 146.977 99.3933 148.63C99.6288 150.283 99.8329 159.463 99.8329 161.412C99.8329 163.36 99.5555 164.197 99.5555 164.197C98.4932 165.717 98.9904 166.112 98.9904 166.112C106.623 182.378 128.568 184.538 128.568 184.538C153.35 181.23 157.824 166.449 157.824 166.449C157.824 166.449 158.128 165.233 157.57 164.527C157.013 163.818 157.115 162.351 157.115 162.351L157.541 149.982L157.22 149.898L156.592 164.966C156.592 164.966 158.01 166.789 152.405 172.931C152.405 172.931 146.664 181.3 128.503 183.325C128.503 183.325 110.475 183.393 100.751 167.734C100.751 167.734 100.278 167.26 100.346 161.592C100.414 155.924 99.5346 149.239 101.764 152.48C103.993 155.72 116.215 173.336 127.626 173.404C136.583 173.456 151.529 157.047 157.544 149.982L157.555 149.702C157.565 149.43 157.549 149.156 157.494 148.889C157.39 148.394 157.374 147.147 158.863 144.999C157.212 146.462 155.249 147.955 152.915 149.441C138.126 158.856 128.581 159.971 128.581 159.971C128.581 159.971 116.249 159.769 101.866 141.139C101.866 141.139 99.6367 138.811 99.6367 131.318C99.6367 123.824 99.129 122.054 98.42 118.562C97.7109 115.07 95.8871 113.399 92.9513 108.032C90.0129 102.665 90.1908 95.9585 90.2432 95.0457C90.2955 94.1328 90.217 92.642 91.0281 91.5278C91.8393 90.4136 91.9387 86.9114 91.9387 86.9114C91.9387 86.9114 91.2296 81.6045 96.9521 80.948C102.675 80.2915 113.311 78.8216 119.489 83.9349C125.666 89.0483 118.526 107.93 118.526 107.93C118.526 107.93 116.247 112.991 117.715 113.448C119.182 113.906 126.423 115.625 128.45 117.346V77.0483C128.45 77.0483 115.841 73.023 108.447 72.9864C101.052 72.9498 95.3795 72.8975 94.4689 72.1886C93.5584 71.4798 92.1899 70.5173 93.4563 67.5827C94.7227 64.6455 95.8374 65.2026 95.7851 63.6333C95.7327 62.064 93.5557 44.043 106.521 48.0919C119.486 52.1407 118.217 54.3194 128.448 54.4711C138.679 54.6228 145.466 47.0797 146.832 46.6246C148.198 46.1695 157.264 38.676 163.594 47.3831C166.176 51.3325 166.43 57.0003 165.517 61.3055C165.164 62.4694 165.82 63.7353 166.833 64.5958C167.846 65.4563 173.974 69.6568 169.366 84.0866C167.796 88.4206 169.923 88.996 169.923 88.996C169.923 88.996 174.735 89.2497 177.318 84.0343C178.076 82.0099 178.076 81.4031 178.28 80.1372C178.482 78.8713 178.584 65.4066 180.256 62.8748C181.928 60.343 181.572 60.547 182.535 60.6987C183.328 60.8242 190.607 65.744 182.182 94.499C179.481 100.504 176.645 106.983 170.433 108.267Z" fill="#F2BA9E"/>
<path d="M128.492 128.247C128.492 128.247 138.765 128.72 142.883 129.327C147.779 129.497 148.894 127.807 148.894 127.807C148.894 127.807 146.717 129.714 142.917 130.355C139.118 130.996 135.356 129.748 128.568 129.748C121.781 129.748 117.715 130.538 117.715 130.538C117.715 130.538 114.996 131.098 110.911 129.528C110.911 129.528 108.329 128.229 107.908 127.807C107.486 127.386 110.509 129.489 113.986 129.222C117.461 128.953 125.852 128.247 128.492 128.247Z" fill="#F2BA9E"/>
<path d="M140.403 132.463C140.403 132.463 137.922 133.611 135.306 133.846C132.689 134.082 128.639 133.661 128.495 133.661C128.351 133.661 124.081 134.168 122.697 134.032C121.312 133.896 116.754 132.785 116.451 132.547C116.147 132.311 119.659 134.893 122.409 134.961C125.159 135.029 127.707 134.843 128.416 134.843C129.125 134.843 131.81 135.345 134.173 134.976C136.536 134.608 139.675 133.274 140.403 132.463Z" fill="#F2BA9E"/>
<path d="M135.523 113.025C135.523 113.025 134.207 112.452 132.956 112.889C131.708 113.328 130.931 113.935 130.931 113.935C130.931 113.935 129.987 114.513 130.392 113.328C130.798 112.146 134.377 110.998 134.377 110.998C134.377 110.998 136.944 110.49 136.774 111.673C136.604 112.858 135.523 113.025 135.523 113.025Z" fill="#F2BA9E"/>
<path d="M117.029 83.325C118.269 83.7566 117.688 82.59 117.688 82.59C117.688 82.59 116.649 81.298 108.015 80.5656C99.38 79.8333 93.1499 83.8821 93.1499 83.8821C93.1499 83.8821 92.6947 84.3634 93.6811 83.8821C94.6676 83.4009 98.5244 81.1489 105.435 81.4785C112.345 81.808 112.902 81.9597 117.029 83.325Z" fill="#161513"/>
<path d="M107.56 90.2118C110.161 90.2118 112.269 88.104 112.269 85.5038C112.269 82.9037 110.161 80.7959 107.56 80.7959C104.958 80.7959 102.85 82.9037 102.85 85.5038C102.85 88.104 104.958 90.2118 107.56 90.2118Z" fill="#161513"/>
<path d="M140.115 83.325C138.875 83.7566 139.456 82.59 139.456 82.59C139.456 82.59 140.494 81.298 149.129 80.5656C157.764 79.8333 163.994 83.8821 163.994 83.8821C163.994 83.8821 164.449 84.3634 163.463 83.8821C162.476 83.4009 158.62 81.1489 151.709 81.4785C144.801 81.808 144.244 81.9597 140.115 83.325Z" fill="#161513"/>
<path d="M149.587 90.2118C152.188 90.2118 154.297 88.104 154.297 85.5038C154.297 82.9037 152.188 80.7959 149.587 80.7959C146.986 80.7959 144.877 82.9037 144.877 85.5038C144.877 88.104 146.986 90.2118 149.587 90.2118Z" fill="#161513"/>
<path d="M128.568 53.3226C128.568 53.3226 135.185 54.6722 145.314 46.3025C155.443 37.9329 162.466 44.0087 162.466 44.0087C162.466 44.0087 169.489 47.1133 165.302 61.5588C165.302 61.5588 165.116 62.3435 166.409 62.8248C167.702 63.306 172.385 65.5083 171.346 77.4795C171.346 77.4795 171.244 81.6042 168.51 86.1604C168.51 86.1604 167.429 88.2528 170.198 87.9494C172.966 87.646 177.388 86.4978 177.66 78.6356C177.93 70.7733 178.673 62.3357 180.193 60.6487C181.713 58.9616 183.469 57.9494 185.628 63.8893C185.628 63.8893 186.64 65.6103 185.829 47.048C185.018 28.4856 173.319 17.2153 173.319 17.2153C173.319 17.2153 159.658 0 128.568 0C101.254 0 90.4158 11.1369 88.3905 12.7559C86.3653 14.3749 74.6143 25.007 72.4896 37.9669C70.3649 50.9268 70.9694 63.6826 70.9694 63.6826C70.9694 63.6826 71.0714 64.3418 71.6785 62.8718C72.2855 61.4045 74.5646 57.102 76.7939 60.7951C79.0232 64.4909 79.0232 73.2476 79.0232 73.2476C79.0232 73.2476 78.1623 83.626 82.4169 86.6129C86.6688 89.6024 88.7961 87.9808 88.7961 87.9808C88.7961 87.9808 89.4032 86.6181 87.5297 84.6434C85.6562 82.6687 84.743 73.4045 86.313 68.2415C87.8829 63.0785 91.1249 62.5711 91.1249 62.5711C91.1249 62.5711 92.1872 62.7228 91.4781 60.5466C90.769 58.3705 87.6788 47.5867 96.2376 43.2345C102.771 40.1456 107.379 43.8413 107.379 43.8413C107.379 43.8413 110.974 45.6643 115.027 48.3479C119.08 51.0288 123.369 53.5946 128.568 53.3226Z" fill="#F7BF5E"/>
<path d="M175.093 106.106C175.093 106.106 174.081 107.929 170.232 108.738L168.712 119.268C168.712 119.268 168.913 119.673 170.331 117.243C171.749 114.814 174.991 109.245 175.093 106.106Z" fill="#F7BF5E"/>
<path d="M86.7187 108.79C86.7187 108.79 87.9354 116.231 88.2886 119.168C88.2886 119.168 88.0871 119.725 86.3654 116.636C84.6437 113.547 82.7703 110.158 81.8074 106.36C81.8074 106.36 84.7955 108.839 86.7187 108.79Z" fill="#F7BF5E"/>
<path d="M128.568 53.3226C128.568 53.3226 135.185 54.6723 145.314 46.3026C155.443 37.9329 162.466 44.0088 162.466 44.0088C162.466 44.0088 169.489 47.1134 165.302 61.5589C165.302 61.5589 165.116 62.3436 166.409 62.8248C167.702 63.3061 172.385 65.5083 171.347 77.4796C171.347 77.4796 171.244 81.6042 168.51 86.1605C168.51 86.1605 167.429 88.2529 170.198 87.9495C170.389 87.9286 170.588 87.9024 170.792 87.871C170.07 87.4892 169.625 86.8013 169.625 86.8013C179.416 67.6321 166.113 61.5563 166.113 61.5563C170.164 47.8536 165.169 44.6156 158.685 41.8484C152.204 39.0811 139.542 48.8004 139.542 48.8004C131.946 52.9512 123.937 48.6435 121.964 47.1082C105.275 34.1195 114.726 12.6226 114.726 12.6226C98.5194 25.9199 111.553 44.7516 111.553 44.7516C102.706 38.7437 96.8317 42.0524 96.8317 42.0524C84.9838 46.6034 90.2379 60.4761 91.1118 62.5737C91.1197 62.5711 91.1249 62.5711 91.1249 62.5711C91.1249 62.5711 92.1872 62.7228 91.4782 60.5467C90.7691 58.3706 87.6789 47.5868 96.2377 43.2346C102.771 40.1457 107.379 43.8414 107.379 43.8414C107.379 43.8414 110.974 45.6644 115.027 48.3479C119.08 51.0288 123.369 53.5947 128.568 53.3226Z" fill="#F4A61F"/>
<path d="M185.625 63.8867C185.625 63.8867 185.881 64.3209 186.033 62.3881C185.421 60.599 184.123 58.674 181.37 59.1265C176.441 59.9373 176.645 80.0507 176.645 80.0507C175.682 83.6836 174.685 85.7708 173.756 86.9085C175.729 85.7943 177.49 83.5031 177.658 78.633C177.927 70.7708 178.67 62.3331 180.19 60.6461C181.711 58.9591 183.466 57.9469 185.625 63.8867Z" fill="#F4A61F"/>
<path d="M137.077 0.452798C134.4 0.162476 131.564 0.00292969 128.568 0.00292969C101.254 0.00292969 90.4158 11.1398 88.3905 12.7588C86.3653 14.3778 74.6143 25.0099 72.4896 37.9698C70.3649 50.9297 70.9694 63.6856 70.9694 63.6856C70.9694 63.6856 71.0714 64.3447 71.6785 62.8748C72.2855 61.4075 74.5646 57.1049 76.7939 60.798C79.0232 64.4912 79.0232 73.2505 79.0232 73.2505C79.0232 73.2505 78.1623 83.6289 82.4169 86.6158C86.6688 89.6028 88.7961 87.9811 88.7961 87.9811C88.7961 87.9811 89.2933 86.8512 87.9719 85.1616C80.1222 82.8573 81.0981 75.2279 81.0981 75.2279C81.0981 75.2279 81.4017 66.9262 80.7946 63.1808C80.1876 59.4354 79.9835 49.8155 79.9835 49.8155C79.9835 49.8155 81.2996 34.9332 94.7724 18.3273C108.169 1.81287 136.766 0.465876 137.077 0.452798Z" fill="#F4A61F"/>
<path d="M124.044 11.8462C124.044 11.8462 118.576 17.4147 124.552 25.3109C130.528 33.2072 120.805 22.1723 120.805 22.1723C120.805 22.1723 117.867 19.2351 120.805 14.9848C123.741 10.732 127.286 8.70759 124.044 11.8462Z" fill="#F4A61F"/>
<path d="M128.45 186.157C128.45 186.157 138.696 187.776 141.533 209.375C141.533 209.375 141.313 211.146 143.035 210.842C143.035 210.842 143.44 216.563 138.984 221.93C138.984 221.93 138.529 222.233 138.984 225.17C139.44 228.108 142.226 241.622 143.391 247.091C144.555 252.557 146.125 259.949 146.834 264.706C147.543 269.464 148.1 272.998 148.1 272.998H109.053C109.053 272.998 110.016 263.339 111.992 254.582C113.967 245.825 116.819 232.088 117.361 229.423C117.902 226.758 118.544 225.102 118.206 222.403C118.206 222.403 113.344 216.395 114.053 210.793C114.053 210.793 115.134 211.13 115.54 209.239C115.94 207.353 117.761 189.466 128.45 186.157Z" fill="#502222"/>
<path d="M165.91 74.315C150.514 73.3028 136.941 75.1912 133.836 76.07C130.73 76.9462 128.495 77.0822 128.493 77.0822V80.7439C132.881 80.7439 132.891 86.328 132.956 91.1223C133.024 95.9139 135.657 98.0063 135.657 98.0063C135.657 98.0063 137.143 100.099 150.485 99.6253C163.829 99.1519 166.784 96.8581 166.784 96.8581C166.784 96.8581 170.97 95.1031 172.32 84.9104C173.676 74.7204 165.91 74.315 165.91 74.315ZM167.733 89.4353C167.733 89.4353 165.978 95.3071 160.237 96.0499C154.496 96.7927 146.191 97.1981 142.005 96.5233C137.818 95.8485 136.468 93.9575 136.062 92.2025C135.657 90.4475 135.05 83.9008 135.05 83.9008C135.05 83.9008 134.307 79.0412 140.518 77.825C140.518 77.825 153.214 75.4632 163.476 77.825C163.476 77.825 167.799 78.3638 168.27 82.5486C168.741 86.7334 167.733 89.4353 167.733 89.4353Z" fill="#070509"/>
<path d="M128.492 77.0829C128.49 77.0829 126.255 76.9469 123.149 76.0707C120.043 75.1945 106.471 73.3035 91.0752 74.3157C91.0752 74.3157 83.3092 74.7211 84.6594 84.9138C86.0095 95.1064 90.196 96.8615 90.196 96.8615C90.196 96.8615 93.1528 99.1553 106.495 99.6287C119.839 100.102 121.323 98.0097 121.323 98.0097C121.323 98.0097 123.955 95.9173 124.023 91.1256C124.091 86.334 124.099 80.7473 128.487 80.7473L128.492 77.0829ZM121.935 83.9016C121.935 83.9016 121.328 90.4482 120.922 92.2032C120.517 93.9582 119.167 95.8493 114.98 96.5241C110.794 97.1989 102.489 96.7935 96.7479 96.0506C91.0072 95.3078 89.2514 89.436 89.2514 89.436C89.2514 89.436 88.2388 86.7368 88.7124 82.552C89.186 78.3671 93.506 77.8257 93.506 77.8257C103.771 75.4639 116.464 77.8257 116.464 77.8257C122.678 79.0419 121.935 83.9016 121.935 83.9016Z" fill="#070509"/>
</svg>
