<svg width="186" height="198" viewBox="0 0 186 198" fill="none" xmlns="http://www.w3.org/2000/svg">
<path d="M185.47 197.096C185.47 197.096 182.254 149.603 161.689 145.413C141.123 141.223 131.768 139.176 121.339 130.501L63.6909 130.647C63.6909 130.647 61.2058 134.691 49.9005 138.98C38.5952 143.268 26.1191 144.828 26.1191 144.828C26.1191 144.828 14.5211 144.535 7.60234 163.054C0.683569 181.572 0 197.096 0 197.096H185.47Z" fill="#003366"/>
<path d="M66.8925 130.639L63.6918 130.646C63.6918 130.646 61.2068 134.691 49.9015 138.98C38.5962 143.268 26.1201 144.828 26.1201 144.828C26.1201 144.828 14.5221 144.535 7.60332 163.054C0.682657 181.57 0.000976562 197.096 0.000976562 197.096H2.04791C2.04791 197.096 6.72526 150.481 24.7567 146.68C42.7863 142.879 48.8799 141.806 62.1094 133.23C62.1094 133.23 57.4057 146.348 70.0762 197.096H79.9464L66.8925 130.639Z" fill="#00274E"/>
<path d="M161.688 145.413C141.125 141.223 131.768 139.176 121.339 130.501L120.421 130.503L111.227 197.097H115.636C115.636 197.097 119.925 184.934 122.921 161.615C125.918 138.296 124.018 134.399 124.018 134.399C143.999 144.437 144.388 143.365 161.152 146.582C177.915 149.798 183.179 197.097 183.179 197.097H185.47C185.47 197.097 182.254 149.604 161.688 145.413Z" fill="#00274E"/>
<path d="M113.275 117.393C113.275 117.393 114.786 117.442 115.711 119.415C116.637 121.388 119.39 128.845 122.436 131.377C122.436 131.377 122.63 131.427 122.728 132.546C122.768 133.007 123.988 144.492 122.315 157.243C119.907 175.573 114.323 197.096 114.323 197.096H70.8545C70.8545 197.096 59.062 148.336 62.8632 132.061C62.8632 132.061 62.8141 131.817 63.6922 130.649C64.5702 129.48 65.9638 128.67 69.4553 119.879C69.4553 119.879 70.5524 117.394 72.0328 117.523C73.5133 117.651 113.275 117.393 113.275 117.393Z" fill="#F8F0E5"/>
<path d="M122.436 131.377C119.39 128.843 116.637 121.388 115.711 119.415C114.786 117.442 113.275 117.393 113.275 117.393C113.275 117.393 73.5113 117.647 72.0309 117.521C70.5504 117.393 69.4533 119.878 69.4533 119.878C65.9637 128.668 64.5683 129.478 63.6902 130.647C62.8121 131.816 62.8612 132.059 62.8612 132.059C59.0601 148.334 70.8526 197.094 70.8526 197.094H71.4663C71.4568 197.051 71.4474 197.011 71.4379 196.968C60.329 148.531 62.5704 140.638 62.8631 135.277C63.1558 129.916 64.7401 132.157 64.7401 132.157C71.8307 121.339 73.4377 124.262 73.4377 124.262C80.8927 132.888 90.3966 133.692 90.3966 133.692C81.7708 137.42 81.6254 150.797 81.6254 150.797C75.0012 146.559 65.4709 133.619 65.4709 133.619C69.9292 142.316 82.3071 152.185 82.3071 152.185C82.3071 152.185 93.2102 160.335 103.224 152.221C113.238 144.107 120.045 133.228 120.045 133.228C111.904 144.752 103.662 150.942 103.662 150.942C102.895 136.397 95.1457 133.764 95.1457 133.764C108.303 130.841 112.176 124.262 112.176 124.262C114.406 122.289 120.802 132.229 120.802 132.229C121.882 130.777 122.118 132.374 122.118 132.374C125.7 157.568 113.834 197.094 113.834 197.094H114.321C114.321 197.094 119.907 175.573 122.313 157.242C123.988 144.49 122.768 133.005 122.726 132.544C122.63 131.427 122.436 131.377 122.436 131.377Z" fill="#E4DAD0"/>
<path d="M122.852 78.5047C122.852 78.5047 120.952 88.373 121.097 93.124C121.097 93.124 121.39 97.9487 117.077 101.969C112.764 105.989 113.714 107.67 113.714 107.67L113.386 117.209C113.386 117.209 113.312 118.269 113.714 118.781C114.116 119.292 113.897 120.168 113.897 120.168C113.897 120.168 110.668 130.841 92.7841 133.228C92.7841 133.228 76.9469 131.668 71.4406 119.925C71.4406 119.925 71.0818 119.638 71.8484 118.543C71.8484 118.543 72.0486 117.94 72.0486 116.532C72.0486 115.123 71.9032 108.497 71.7314 107.303C71.5614 106.11 71.6086 105.623 69.2709 103.04C66.9313 100.456 64.8126 98.5321 64.2272 91.0771C63.6418 83.622 62.5825 78.5406 62.5825 78.5406C62.5825 78.5406 54.7554 77.8457 51.1582 60.4487C49.1698 48.3144 52.4593 43.7824 52.4593 43.7824C52.4593 43.7824 54.6516 41.0047 55.8223 44.8795C56.9931 48.7544 57.0648 55.7713 57.0648 55.7713C57.0648 55.7713 56.8458 62.7883 61.3778 63.3737L59.9898 54.2361L62.6221 30.1148L70.808 27.0444H111.667L121.243 29.9675L125.482 45.903L130.599 42.8326C130.599 42.8326 132.012 42.1509 133.183 44.2451C134.165 46.005 137.958 58.77 129.942 72.362C128.26 75.2172 125.994 78.0666 122.852 78.5047Z" fill="#E0A680"/>
<path d="M121.054 94.172L120.95 94.0757C120.95 94.0757 120.978 96.8798 118.303 100.662C120.361 98.1507 120.912 95.5656 121.054 94.172Z" fill="#C88E69"/>
<path d="M122.997 78.1649L122.608 78.214L122.901 78.4991C126.018 78.0383 128.271 75.2021 129.942 72.3678C137.958 58.7757 134.165 46.0088 133.183 44.2508C132.014 42.1548 130.599 42.8383 130.599 42.8383L125.482 45.9087L121.243 29.9733L111.667 27.0464H70.806L62.6202 30.1168L59.9879 54.2381L61.3758 63.3756C56.8439 62.7902 57.0629 55.7733 57.0629 55.7733C57.0629 55.7733 57.4406 52.2195 56.9893 48.7563C56.8099 47.3797 56.5172 45.8747 56.1848 44.772C55.016 40.8972 52.4573 43.7844 52.4573 43.7844C52.4573 43.7844 49.1679 48.3163 51.1563 60.4506C54.7535 77.8476 62.5805 78.5425 62.5805 78.5425C62.5805 78.5425 63.6399 83.6221 64.2253 91.079C64.8106 98.5341 66.9293 100.46 69.2689 103.041C71.6086 105.623 71.5595 106.112 71.7294 107.305C71.8994 108.499 72.0466 115.127 72.0466 116.533C72.0466 117.94 71.8465 118.545 71.8465 118.545C71.0798 119.642 71.4386 119.927 71.4386 119.927C76.9468 131.67 92.7841 133.23 92.7841 133.23C110.668 130.841 113.897 120.17 113.897 120.17C113.897 120.17 114.116 119.292 113.714 118.782C113.312 118.271 113.386 117.211 113.386 117.211L113.693 108.282L113.461 108.221L113.008 119.1C113.008 119.1 114.031 120.416 109.987 124.85C109.987 124.85 105.844 130.892 92.7369 132.354C92.7369 132.354 79.7264 132.403 72.7094 121.098C72.7094 121.098 72.3677 120.756 72.4168 116.664C72.4659 112.572 71.8314 107.745 73.4402 110.085C75.0491 112.425 83.8694 125.142 92.1043 125.191C98.568 125.229 109.354 113.382 113.695 108.282L113.703 108.08C113.71 107.883 113.699 107.685 113.659 107.492C113.584 107.135 113.573 106.235 114.647 104.684C113.455 105.74 112.039 106.818 110.355 107.891C99.6821 114.689 92.7935 115.493 92.7935 115.493C92.7935 115.493 83.8939 115.348 73.5139 101.897C73.5139 101.897 71.905 100.217 71.905 94.8066C71.905 89.3966 71.5387 88.1182 71.027 85.5973C70.5152 83.0764 69.1991 81.8697 67.0804 77.9949C64.9598 74.1201 65.0882 69.2785 65.126 68.6195C65.1638 67.9604 65.1071 66.8841 65.6925 66.0797C66.2779 65.2753 66.3496 62.7468 66.3496 62.7468C66.3496 62.7468 65.8379 58.9154 69.9676 58.4415C74.0974 57.9675 81.7733 56.9063 86.2316 60.5979C90.6899 64.2896 85.5368 77.9213 85.5368 77.9213C85.5368 77.9213 83.892 81.5752 84.9514 81.9056C86.0107 82.2361 91.2357 83.4767 92.6991 84.7192V55.626C92.6991 55.626 83.5993 52.7199 78.263 52.6934C72.9266 52.667 68.8327 52.6292 68.1756 52.1175C67.5185 51.6058 66.5309 50.9109 67.4448 48.7922C68.3588 46.6716 69.1632 47.0738 69.1254 45.9408C69.0877 44.8078 67.5166 31.7974 76.8732 34.7205C86.2298 37.6436 85.3139 39.2166 92.6972 39.3261C100.081 39.4356 104.979 33.9897 105.965 33.6611C106.95 33.3326 113.493 27.9226 118.061 34.2088C119.925 37.0601 120.108 41.1521 119.449 44.2602C119.194 45.1005 119.668 46.0145 120.399 46.6357C121.13 47.257 125.552 50.2896 122.227 60.7074C121.094 63.8364 122.629 64.2518 122.629 64.2518C122.629 64.2518 126.101 64.435 127.965 60.6697C128.513 59.2081 128.513 58.77 128.66 57.8561C128.806 56.9421 128.879 47.2211 130.086 45.3932C131.292 43.5653 131.036 43.7126 131.731 43.8221C132.303 43.9128 137.556 47.4647 131.476 68.2248C129.527 72.5604 127.48 77.2377 122.997 78.1649Z" fill="#C88E69"/>
<path d="M92.7295 92.5896C92.7295 92.5896 100.143 92.9314 103.115 93.3694C106.648 93.4922 107.453 92.2723 107.453 92.2723C107.453 92.2723 105.882 93.6489 103.14 94.1115C100.398 94.5742 97.6825 93.6735 92.7842 93.6735C87.8859 93.6735 84.9515 94.2437 84.9515 94.2437C84.9515 94.2437 82.9895 94.6478 80.0419 93.5148C80.0419 93.5148 78.1781 92.5763 77.8741 92.2723C77.5701 91.9683 79.7511 93.4865 82.2607 93.2939C84.7683 93.0994 90.8242 92.5896 92.7295 92.5896Z" fill="#C88E69"/>
<path d="M101.325 95.6335C101.325 95.6335 99.5351 96.4625 97.6468 96.6325C95.7585 96.8024 92.8354 96.4984 92.7315 96.4984C92.6277 96.4984 89.546 96.8647 88.5471 96.7665C87.5481 96.6683 84.2587 95.8658 84.0397 95.694C83.8206 95.524 86.3547 97.3878 88.3393 97.4369C90.324 97.486 92.1632 97.3519 92.6749 97.3519C93.1866 97.3519 95.124 97.7145 96.8292 97.4482C98.5343 97.182 100.8 96.2189 101.325 95.6335Z" fill="#C88E69"/>
<path d="M97.8034 81.5997C97.8034 81.5997 96.8535 81.1862 95.9509 81.5015C95.0502 81.8187 94.4894 82.2568 94.4894 82.2568C94.4894 82.2568 93.8077 82.6742 94.1004 81.8187C94.3931 80.9652 96.9763 80.1363 96.9763 80.1363C96.9763 80.1363 98.8287 79.7699 98.706 80.6234C98.5832 81.4789 97.8034 81.5997 97.8034 81.5997Z" fill="#C88E69"/>
<path d="M84.4569 60.1577C85.3519 60.4693 84.9327 59.6271 84.9327 59.6271C84.9327 59.6271 84.1831 58.6942 77.9516 58.1655C71.7202 57.6368 67.2241 60.5599 67.2241 60.5599C67.2241 60.5599 66.8956 60.9073 67.6075 60.5599C68.3194 60.2125 71.1027 58.5866 76.0898 58.8245C81.0768 59.0625 81.479 59.172 84.4569 60.1577Z" fill="#00274E"/>
<path d="M77.6221 65.1297C79.4993 65.1297 81.0211 63.6079 81.0211 61.7307C81.0211 59.8536 79.4993 58.3318 77.6221 58.3318C75.7449 58.3318 74.2231 59.8536 74.2231 61.7307C74.2231 63.6079 75.7449 65.1297 77.6221 65.1297Z" fill="#00274E"/>
<path d="M101.117 60.1577C100.222 60.4693 100.642 59.6271 100.642 59.6271C100.642 59.6271 101.391 58.6942 107.623 58.1655C113.854 57.6368 118.35 60.5599 118.35 60.5599C118.35 60.5599 118.679 60.9073 117.967 60.5599C117.255 60.2125 114.472 58.5866 109.484 58.8245C104.499 59.0625 104.097 59.172 101.117 60.1577Z" fill="#00274E"/>
<path d="M107.953 65.1297C109.83 65.1297 111.352 63.6079 111.352 61.7307C111.352 59.8536 109.83 58.3318 107.953 58.3318C106.076 58.3318 104.554 59.8536 104.554 61.7307C104.554 63.6079 106.076 65.1297 107.953 65.1297Z" fill="#00274E"/>
<path d="M92.7849 38.497C92.7849 38.497 97.5605 39.4714 104.87 33.4288C112.18 27.3862 117.248 31.7727 117.248 31.7727C117.248 31.7727 122.316 34.0142 119.295 44.4433C119.295 44.4433 119.161 45.0098 120.094 45.3572C121.027 45.7047 124.407 47.2947 123.657 55.9375C123.657 55.9375 123.583 58.9153 121.61 62.2048C121.61 62.2048 120.83 63.7154 122.828 63.4964C124.826 63.2773 128.017 62.4484 128.213 56.7721C128.408 51.0958 128.944 45.0041 130.041 43.7862C131.138 42.5682 132.405 41.8374 133.963 46.1258C133.963 46.1258 134.694 47.3683 134.109 33.967C133.523 20.5656 125.081 12.4289 125.081 12.4289C125.081 12.4289 115.222 0 92.7849 0C73.0728 0 65.2515 8.04043 63.7899 9.2093C62.3283 10.3782 53.8479 18.0541 52.3146 27.4107C50.7813 36.7673 51.2175 45.9766 51.2175 45.9766C51.2175 45.9766 51.2912 46.4525 51.7293 45.3912C52.1673 44.3319 53.8121 41.2256 55.4209 43.8919C57.0297 46.5601 57.0297 52.8822 57.0297 52.8822C57.0297 52.8822 56.4085 60.375 59.4789 62.5314C62.5474 64.6898 64.0826 63.519 64.0826 63.519C64.0826 63.519 64.5207 62.5352 63.1686 61.1095C61.8166 59.6839 61.1576 52.9955 62.2906 49.2679C63.4236 45.5404 65.7632 45.1741 65.7632 45.1741C65.7632 45.1741 66.5298 45.2836 66.0181 43.7125C65.5064 42.1415 63.2763 34.3559 69.4529 31.2138C74.1681 28.9837 77.4934 31.6519 77.4934 31.6519C77.4934 31.6519 80.0879 32.968 83.0129 34.9054C85.9379 36.841 89.0328 38.6934 92.7849 38.497Z" fill="#9B6348"/>
<path d="M126.359 76.6051C126.359 76.6051 125.628 77.9213 122.851 78.5047L121.753 86.1071C121.753 86.1071 121.899 86.3998 122.922 84.6455C123.946 82.8913 126.285 78.8711 126.359 76.6051Z" fill="#9B6348"/>
<path d="M62.5815 78.5425C62.5815 78.5425 63.4595 83.9147 63.7145 86.0353C63.7145 86.0353 63.5691 86.4375 62.3265 84.2074C61.084 81.9773 59.732 79.53 59.0371 76.7882C59.0371 76.7882 61.1936 78.5783 62.5815 78.5425Z" fill="#9B6348"/>
<path d="M92.7834 38.4971C92.7834 38.4971 97.5589 39.4714 104.869 33.4288C112.178 27.3862 117.246 31.7728 117.246 31.7728C117.246 31.7728 122.315 34.0142 119.293 44.4433C119.293 44.4433 119.159 45.0098 120.092 45.3573C121.025 45.7047 124.405 47.2947 123.655 55.9375C123.655 55.9375 123.582 58.9154 121.608 62.2048C121.608 62.2048 120.829 63.7155 122.826 63.4964C122.964 63.4813 123.108 63.4624 123.255 63.4398C122.734 63.1641 122.413 62.6674 122.413 62.6674C129.479 48.828 119.879 44.4415 119.879 44.4415C122.802 34.5486 119.197 32.2109 114.518 30.213C109.84 28.2152 100.703 35.2322 100.703 35.2322C95.2212 38.2289 89.441 35.1189 88.0173 34.0104C75.9736 24.6331 82.7942 9.11304 82.7942 9.11304C71.098 18.7132 80.5037 32.3091 80.5037 32.3091C74.1193 27.9716 69.88 30.3603 69.88 30.3603C61.3297 33.646 65.1215 43.6616 65.7522 45.176C65.7578 45.1741 65.7616 45.1741 65.7616 45.1741C65.7616 45.1741 66.5283 45.2836 66.0165 43.7126C65.5048 42.1415 63.2747 34.356 69.4514 31.2138C74.1665 28.9837 77.4918 31.6519 77.4918 31.6519C77.4918 31.6519 80.0863 32.9681 83.0113 34.9055C85.9363 36.841 89.0313 38.6934 92.7834 38.4971Z" fill="#8E5335"/>
<path d="M133.959 46.1237C133.959 46.1237 134.144 46.4372 134.254 45.0417C133.812 43.7501 132.876 42.3603 130.889 42.687C127.331 43.2724 127.479 57.7935 127.479 57.7935C126.784 60.4164 126.064 61.9232 125.394 62.7446C126.818 61.9402 128.089 60.2861 128.21 56.77C128.404 51.0938 128.94 45.0021 130.037 43.7841C131.135 42.5661 132.402 41.8354 133.959 46.1237Z" fill="#8E5335"/>
<path d="M98.9252 0.326498C96.9935 0.116896 94.9465 0.00170898 92.7844 0.00170898C73.0723 0.00170898 65.251 8.04214 63.7894 9.21101C62.3279 10.3799 53.8474 18.0559 52.3141 27.4124C50.7808 36.769 51.217 45.9783 51.217 45.9783C51.217 45.9783 51.2907 46.4542 51.7288 45.3929C52.1668 44.3336 53.8116 41.2273 55.4204 43.8936C57.0293 46.5599 57.0293 52.8839 57.0293 52.8839C57.0293 52.8839 56.408 60.3767 59.4784 62.5332C62.5469 64.6896 64.0821 63.5189 64.0821 63.5189C64.0821 63.5189 64.4409 62.7031 63.4873 61.4833C57.8223 59.8197 58.5267 54.3114 58.5267 54.3114C58.5267 54.3114 58.7457 48.3179 58.3076 45.6139C57.8696 42.9098 57.7223 35.9646 57.7223 35.9646C57.7223 35.9646 58.6721 25.2201 68.395 13.2312C78.0632 1.30842 98.7005 0.33594 98.9252 0.326498Z" fill="#8E5335"/>
<path d="M89.5185 8.5522C89.5185 8.5522 85.5719 12.5724 89.8848 18.2732C94.1977 23.974 87.1808 16.0073 87.1808 16.0073C87.1808 16.0073 85.0602 13.8867 87.1808 10.8182C89.2994 7.74778 91.8581 6.28622 89.5185 8.5522Z" fill="#8E5335"/>
<path d="M92.6987 134.399C92.6987 134.399 100.093 135.568 102.14 151.161C102.14 151.161 101.982 152.44 103.224 152.221C103.224 152.221 103.517 156.351 100.301 160.225C100.301 160.225 99.9725 160.444 100.301 162.565C100.63 164.686 102.641 174.442 103.481 178.391C104.321 182.337 105.454 187.674 105.966 191.109C106.478 194.544 106.88 197.095 106.88 197.095H78.7007C78.7007 197.095 79.3956 190.121 80.8213 183.799C82.2469 177.477 84.3052 167.56 84.6961 165.635C85.087 163.711 85.5496 162.516 85.306 160.567C85.306 160.567 81.7975 156.23 82.3092 152.185C82.3092 152.185 83.0891 152.429 83.3818 151.063C83.6707 149.702 84.985 136.788 92.6987 134.399Z" fill="#65030B"/>
<path d="M119.732 53.6526C108.622 52.9219 98.8268 54.2852 96.5854 54.9197C94.344 55.5523 92.7314 55.6505 92.7295 55.6505V58.2941C95.8962 58.2941 95.9037 62.3257 95.951 65.7869C96 69.2463 97.8997 70.757 97.8997 70.757C97.8997 70.757 98.9722 72.2676 108.601 71.9258C118.231 71.584 120.363 69.928 120.363 69.928C120.363 69.928 123.384 68.6609 124.359 61.3022C125.337 53.9453 119.732 53.6526 119.732 53.6526ZM121.048 64.569C121.048 64.569 119.781 68.8082 115.638 69.3445C111.496 69.8808 105.502 70.1735 102.481 69.6863C99.4594 69.1991 98.4851 67.8339 98.1924 66.5668C97.8997 65.2997 97.4616 60.5733 97.4616 60.5733C97.4616 60.5733 96.9253 57.0648 101.408 56.1868C101.408 56.1868 110.57 54.4816 117.976 56.1868C117.976 56.1868 121.096 56.5757 121.436 59.597C121.775 62.6183 121.048 64.569 121.048 64.569Z" fill="#00274E"/>
<path d="M92.7297 55.6513C92.7278 55.6513 91.1152 55.5531 88.8737 54.9205C86.6323 54.2879 76.8376 52.9227 65.7268 53.6534C65.7268 53.6534 60.1223 53.9461 61.0967 61.3049C62.0711 68.6636 65.0924 69.9307 65.0924 69.9307C65.0924 69.9307 67.2261 71.5867 76.8546 71.9285C86.485 72.2703 87.5557 70.7596 87.5557 70.7596C87.5557 70.7596 89.4553 69.249 89.5044 65.7896C89.5535 62.3302 89.5592 58.2968 92.7259 58.2968L92.7297 55.6513ZM87.9976 60.5741C87.9976 60.5741 87.5595 65.3005 87.2668 66.5676C86.9741 67.8347 85.9997 69.1999 82.9784 69.6871C79.9571 70.1743 73.9636 69.8816 69.8207 69.3453C65.6777 68.809 64.4107 64.5698 64.4107 64.5698C64.4107 64.5698 63.6799 62.621 64.0217 59.5997C64.3635 56.5784 67.4811 56.1875 67.4811 56.1875C74.8889 54.4824 84.0491 56.1875 84.0491 56.1875C88.5339 57.0656 87.9976 60.5741 87.9976 60.5741Z" fill="#00274E"/>
</svg>
