<svg width="527" height="247" viewBox="0 0 527 247" fill="none" xmlns="http://www.w3.org/2000/svg">
<mask id="mask0_1039_19197" style="mask-type:alpha" maskUnits="userSpaceOnUse" x="0" y="0" width="527" height="247">
<rect width="527" height="247" fill="white"/>
</mask>
<g mask="url(#mask0_1039_19197)">
<path d="M394.894 81.8334C394.894 81.8334 395.069 80.8789 396.023 82.0081C396.978 83.1374 405.044 92.3732 418.053 94.0223C421.481 94.5869 424.255 95.2367 424.08 102.089C423.905 108.94 423.735 111.427 425.236 120.565C426.737 129.702 427.029 135.196 427.029 135.196C427.029 135.196 427.665 142.599 428.763 146.471C429.861 150.347 430.322 156.069 430.322 156.069C430.322 156.069 432.317 168.012 432.836 171.391C433.356 174.774 434.226 180.326 434.485 182.231C434.745 184.14 435.498 193.421 436.045 196.078C436.596 198.74 437.286 203.073 437.519 204.897C437.752 206.716 439.832 211.547 434.512 210.189C429.193 208.831 421.763 208.63 421.387 206.084C421.01 203.539 420.809 201.836 420.607 200.707C420.405 199.578 420.172 195.849 419.913 193.654C419.653 191.458 416.879 172.171 414.19 162.11C411.501 152.05 409.852 145.543 406.993 140.6C406.993 140.6 404.999 145.458 405.434 152.915C405.868 160.376 406.303 162.28 410.986 177.028C415.669 191.776 416.045 192.381 416.507 195.415C416.968 198.448 421.131 220.913 422.781 227.245C424.43 233.577 434.49 267.661 435.704 279.46C436.399 283.103 438.218 289.476 439.088 293.294C439.957 297.112 444.438 315.077 445.94 335.664C447.441 356.251 449.005 376.255 449.063 377.702C449.121 379.15 450.452 382.04 444.842 380.826C439.231 379.611 428.767 377.877 427.728 377.702C426.688 377.528 425.877 378.513 425.994 374.176C426.11 369.838 425.819 358.276 425.357 353.822C424.896 349.367 424.318 345.151 422.467 338.787C420.616 332.424 417.027 316.462 417.027 316.462C417.027 316.462 413.787 300.966 412.46 295.01C411.129 289.055 408.875 277.488 407.083 273.267C407.952 278.3 408.992 283.619 409.22 291.945C409.453 300.271 410.609 304.259 411.013 306.921C411.416 309.583 413.5 320.567 412.631 340.687C411.761 360.808 411.676 366.275 411.501 375.556C411.326 384.836 412.196 385.907 411.241 385.647C410.287 385.388 408.208 380.27 402.973 379.549C397.739 378.827 388.979 379.549 385.075 372.293C384.73 371.37 385.017 371.137 385.075 369.663C385.134 368.189 386.088 331.761 384.264 314.674C382.44 297.587 381.49 288.741 379.232 279.115C376.978 269.489 376.628 267.58 375.938 264.112C375.244 260.643 372.73 247.545 370.735 240.518C368.741 233.492 368.741 230.588 367.917 224.081C367.092 217.574 366.702 216.754 366.702 216.754C366.702 216.754 365.3 217.014 365.358 216.351C365.416 215.688 365.215 211.753 364.578 204.7C363.942 197.646 362.553 186.022 360.648 178.852C358.744 171.682 357.296 166.278 357.296 166.278L355.907 162.088L338.56 166.972C338.56 166.972 329.974 170.302 325.376 171.368C320.779 172.435 319.161 173.103 319.161 173.103C319.161 173.103 318.843 173.622 317.947 172.811C317.05 172 305.399 164.543 305.081 162.926C304.763 161.308 305.399 161.218 306.004 160.99C306.609 160.757 326.761 153.995 330.463 152.547C334.164 151.1 338.327 148.617 339.828 148.442C339.828 148.442 339.707 147.891 340.769 147.089C340.769 147.089 342.853 142.644 343.198 141.514C343.543 140.385 346.537 134.228 347.016 133.103C347.491 131.974 351.744 119.875 352.828 117.316C353.913 114.757 355.602 111.244 356.776 108.08C357.95 104.916 359.075 102.617 359.38 102.268C359.685 101.923 359.205 101.618 362.373 99.8838C364.498 98.3646 370.785 91.6876 370.785 91.6876L394.894 81.8334Z" fill="#003366"/>
<path d="M354.581 143.052C354.29 133.166 356.257 121.08 356.257 121.08C351.516 137.616 353.367 151.091 353.653 154.214C352.381 152.364 344.288 149.648 344.288 149.648C348.59 151.387 353.134 154.734 352.959 155.317C352.784 155.895 349.432 157.284 345.386 158.902C341.339 160.519 317.669 167.864 317.669 167.864C317.669 167.864 318.037 167.344 313.148 162.778C311.265 161.021 309.298 160.466 307.582 160.448C306.677 160.757 306.108 160.95 306.009 160.985C305.404 161.218 304.768 161.304 305.086 162.921C305.404 164.539 317.055 172 317.951 172.807C318.848 173.618 319.166 173.098 319.166 173.098C319.166 173.098 320.784 172.435 325.381 171.364C329.979 170.293 338.565 166.968 338.565 166.968L355.912 162.083L357.301 166.273C357.301 166.273 357.476 166.923 357.781 168.066C357.776 168.061 354.868 152.937 354.581 143.052Z" fill="#00274E"/>
<path d="M405.281 380.207C408.852 381.803 410.443 385.428 411.245 385.648C412.2 385.907 411.331 384.836 411.505 375.556C411.68 366.275 411.765 360.813 412.635 340.687C413.504 320.567 411.42 309.579 411.017 306.921C410.614 304.259 409.457 300.271 409.224 291.945C408.991 283.619 407.952 278.3 407.087 273.267C403.444 252.075 389.045 224.467 389.045 224.467C389.162 242.217 400.033 278.183 400.033 278.183C400.033 278.183 405.469 302.7 405.353 314.033C405.236 325.366 405.12 343.752 405.469 351.272C405.814 358.787 405.353 379.952 405.353 379.952L405.281 380.207Z" fill="#00274E"/>
<path d="M418.662 99.4402C418.967 100.569 422.812 134.089 424.313 142.532C425.814 150.974 431.456 179.972 431.976 186.564C432.496 193.156 434.114 206.008 434.06 206.246C434.002 206.483 433.916 206.385 433.424 206.246C432.931 206.107 422.373 204.081 421.723 206.784C423.265 208.675 429.744 208.962 434.521 210.185C439.841 211.543 437.761 206.716 437.528 204.893C437.295 203.069 436.605 198.735 436.054 196.074C435.503 193.412 434.754 184.131 434.495 182.227C434.235 180.318 433.365 174.765 432.845 171.386C432.326 168.003 430.331 156.065 430.331 156.065C430.331 156.065 429.87 150.343 428.772 146.466C427.674 142.59 427.038 135.191 427.038 135.191C427.038 135.191 426.746 129.697 425.245 120.56C423.744 111.423 423.914 108.936 424.089 102.084C424.264 95.2323 421.486 94.5826 418.062 94.0179C405.053 92.3688 396.987 83.133 396.032 82.0037C395.078 80.8745 394.903 81.829 394.903 81.829L393.133 82.5504L389.83 90.6749C389.83 90.6749 395.423 87.1168 399.456 89.1558C403.489 91.1948 410.126 94.4885 413.769 95.2727C417.403 96.0569 418.358 98.311 418.662 99.4402Z" fill="#00274E"/>
<path d="M445.939 335.659C444.438 315.073 439.957 297.107 439.087 293.289C438.218 289.471 436.398 283.099 435.704 279.456C434.489 267.661 424.429 233.572 422.78 227.24C421.131 220.908 416.968 198.444 416.506 195.41C416.045 192.376 415.668 191.767 410.985 177.024C406.302 162.28 405.868 160.371 405.433 152.91C404.998 145.449 406.993 140.596 406.993 140.596C407.091 140.762 407.181 140.936 407.275 141.107V141.102C401.745 128.254 409.072 116.567 409.072 116.567C390.511 142.76 400.804 176.992 401.557 181.214C402.31 185.435 403.264 187.254 402.816 191.861C401.79 201.334 396.009 206.918 394.069 209.607C392.133 212.295 381.754 214.926 381.754 214.926C381.754 214.926 379.469 215.446 377.676 215.388C370.363 210.27 368.741 200.048 367.396 195.93C366.052 191.812 366.227 185.74 366.312 181.487C366.397 177.239 364.838 168.433 363.668 163.782C362.498 159.13 362.324 146.229 362.324 146.229C362.324 146.229 360.8 142.805 361.463 127.107C362.126 111.409 368.396 98.2929 368.396 98.2929L371.555 91.356L371.255 91.4769C370.188 93.0947 367.773 97.4684 364.053 108.12C358.878 122.953 360.527 141.367 360.872 143.365C361.217 145.359 361.638 146.883 361.651 150.853C361.665 154.824 361.997 159.524 362.463 162.908C362.924 166.291 365.555 173.519 365.443 184.1C365.326 194.68 366.944 198.121 368.333 202.37C369.722 206.618 370.072 215.199 370.027 215.827C369.982 216.454 365.537 216.248 365.537 216.248C365.537 216.248 365.447 216.172 365.362 216.127C365.362 216.212 365.357 216.279 365.353 216.329C365.344 216.436 365.375 216.517 365.429 216.584C365.582 216.687 365.841 216.754 366.169 216.786C366.451 216.781 366.697 216.736 366.697 216.736C366.697 216.736 366.706 216.754 366.724 216.808C367.706 216.808 368.929 216.624 369.538 216.432C370.601 216.096 370.426 216.087 370.426 216.087C370.426 216.087 370.426 207.805 369.341 203.683C372.94 213.918 377.811 216.369 377.811 216.369C377.811 216.369 379.142 216.131 380.992 215.724C389.78 214.451 401.866 209.19 402.561 208.845C403.255 208.5 406.491 207.514 408.807 212.372C414.88 227.173 427.714 294.799 430.058 309.283C432.401 323.766 438.644 371.554 438.644 371.554L444.55 380.75C444.644 380.767 444.738 380.79 444.828 380.808C450.438 382.022 449.107 379.132 449.049 377.684C449 376.25 447.44 356.242 445.939 335.659Z" fill="#00274E"/>
<path d="M392.945 78.8848C392.945 78.8848 393.276 78.1051 393.796 78.8131C394.316 79.5211 394.836 80.3322 394.925 80.4039C395.01 80.4756 395.432 80.6639 395.27 82.0396C395.114 83.4108 394.679 86.3057 390.426 92.4629C386.178 98.6202 373.424 114.493 362.324 146.238C362.324 146.238 359.81 132.274 362.324 118.481C364.838 104.688 368.078 99.3999 368.916 96.9442C368.916 96.9442 369.45 95.8687 369.544 95.3309C369.638 94.7977 370.521 91.0289 372.017 87.9727L372.927 86.1085L392.945 78.8848Z" fill="#FFECDD"/>
<path d="M422.982 207.926C422.982 207.926 423.56 212.349 423.676 213.362C423.721 213.783 423.685 214.066 423.676 214.142C423.667 214.218 423.6 214.447 423.699 214.545C424.026 214.187 424.873 213.34 426.163 213.277C427.454 213.21 431.792 212.497 436.82 216.073C436.82 216.073 436.829 216.051 437.048 216.378C437.407 216.248 437.147 215.782 437.147 215.782C437.147 215.782 436.909 210.938 436.941 210.526C436.972 210.113 437.039 209.472 436.484 209.042C435.933 208.608 432.146 204.942 423.3 206.748C422.722 207.048 422.933 207.537 422.982 207.926Z" fill="#FFECDD"/>
<path d="M306.645 162.393C306.645 162.393 305.457 162.971 303.723 163.347C301.989 163.724 303.087 166.269 303.172 166.327C303.257 166.385 308.634 173.237 308.634 173.237L313.55 173.73C313.55 173.73 316.992 171.964 317.337 171.911C317.682 171.852 317.74 171.619 317.57 170.669C317.4 169.719 315.724 163.405 306.645 162.393Z" fill="#FFECDD"/>
<path d="M395.27 82.0351C395.427 80.6638 395.01 80.4756 394.925 80.3994C394.84 80.3277 394.32 79.5166 393.796 78.8086C393.276 78.1006 392.944 78.8803 392.944 78.8803L379.044 83.8948L375.293 88.0579C375.293 88.0579 381.625 88.031 391.251 81.9589C392.322 81.1657 392.55 81.1792 392.998 81.3091C393.446 81.4391 394.011 82.1919 394.038 83.4915C394.065 84.791 393.742 87.6411 391.77 89.5053C389.799 91.3695 384.744 96.3616 376.888 99.7987C369.382 103.083 368.889 127.417 368.862 129.59C371.148 124.387 373.42 119.785 375.598 115.721C375.616 114.744 375.866 101.179 377.117 100.341C378.295 99.5522 384.479 97.0786 391.851 90.285C394.782 85.5976 395.131 83.236 395.27 82.0351Z" fill="#E7CDB8"/>
<path d="M372.931 86.104L372.022 87.9682C370.525 91.0244 369.642 94.7931 369.548 95.3264C369.454 95.8597 368.921 96.9396 368.921 96.9396C368.083 99.3954 364.843 104.688 362.329 118.476C361.294 124.145 361.11 129.841 361.253 134.586C361.742 133.829 362.019 132.104 361.809 128.707C361.114 117.517 369.499 98.0331 369.642 97.5132C369.785 96.9934 370.045 97.3967 370.045 97.3967L372.013 100.287L371 97.7149C371 97.7149 370.045 96.6439 369.871 95.3712C369.696 94.0985 371.461 90.0206 372.098 88.6628C372.734 87.305 373.254 87.5111 373.254 87.5111V85.983L372.931 86.104Z" fill="#E7CDB8"/>
<path d="M373.191 89.68C373.191 89.68 374.168 88.0309 374.84 89.68C375.513 91.329 377.901 95.5997 377.032 99.5028C376.794 100.13 376.404 100.39 376.404 100.39C376.404 100.39 375.947 100.672 375.732 101.864C375.517 103.056 371.636 116.182 372.371 122.039C364.153 140.201 363.458 143.845 362.329 146.229C360.357 135.734 361.401 127.331 361.401 127.331C361.401 127.331 363.835 119.166 364.413 117.549C364.991 115.931 368.459 106.216 371.439 100.722C371.439 100.722 371.82 100.359 371.547 99.7269C371.273 99.095 370.615 98.2346 370.96 96.4421C371.305 94.6496 371.999 91.7637 373.191 89.68Z" fill="#65030B"/>
<path d="M436.941 210.521C436.972 210.109 437.04 209.468 436.484 209.038C435.933 208.603 432.146 204.937 423.3 206.743C422.749 207.035 422.91 207.492 422.973 207.873C423.802 207.357 425.178 206.949 427.548 207.12C431.747 207.42 433.741 213.026 434.203 214.545C435.045 214.939 435.919 215.437 436.816 216.073C436.816 216.073 436.82 216.06 436.919 216.194L437.156 216.311C437.34 216.131 437.143 215.782 437.143 215.782C437.143 215.782 436.905 210.933 436.941 210.521Z" fill="#E7CDB8"/>
<path d="M393.088 63.7786C393.088 63.7786 390.861 67.0678 392.143 74.417C392.143 74.417 392.483 76.344 393.415 78.5129C392.9 79.0327 390.883 81.0941 390.883 81.0941C390.883 81.0941 387.285 84.1099 383.512 85.4722C379.739 86.839 376.051 88.636 374.124 87.8786C373.169 87.5112 372.932 87.4036 372.887 87.0765C372.842 86.7494 372.954 82.8283 368.921 77.1685C368.424 77.3433 365.865 78.8803 363.476 78.5129C361.092 78.1454 361.155 77.4508 361.115 76.6935C361.07 75.9362 361.312 72.7455 360.832 72.0554C360.357 71.3608 359.748 70.8186 359.358 70.3839C358.968 69.9492 358.731 69.5146 358.991 67.9551C358.991 67.9551 358.179 66.8258 358.251 65.9296C358.327 65.0288 358.838 63.2856 357.785 62.9047C356.732 62.5238 354.424 62.4566 353.393 61.3497C352.887 60.9151 352.829 60.7851 352.815 60.4804C352.802 60.1757 352.842 59.5931 353.492 57.3525C354.142 55.1074 355.63 49.5238 355.518 48.6992C355.41 47.8747 354.998 47.2159 354.684 46.7364C354.37 46.257 353.685 45.7371 354.348 42.4972C355.011 39.2573 357.816 32.1187 357.816 32.1187L381.522 27.0011L399.447 36.4834L401.643 48.0495L393.088 63.7786Z" fill="#E0A680"/>
<path d="M387.132 46.4003C387.132 46.4003 390.906 40.0683 396.628 44.8812C396.628 44.8812 400.012 47.8298 396.023 52.2976C392.035 56.7654 391.47 56.4607 390.341 62.1832C389.821 64.9571 390.816 66.9109 391.34 66.9961C391.86 67.0812 394.029 66.8213 396.893 63.8323C399.756 60.8433 405.824 54.2962 406.128 42.8019C406.433 31.3075 398.017 24.1555 398.017 24.1555C398.017 24.1555 389.082 16.3492 381.8 17.0437C374.518 17.7383 373.084 18.173 368.746 20.0372C366.707 20.9693 365.43 22.1837 363.956 21.879C362.481 21.5743 361.549 20.9917 360.832 20.0999C360.115 19.2127 359.595 18.648 358.838 19.5353C358.081 20.4226 358.273 22.6811 358.273 22.6811C358.273 22.6811 358.341 22.8783 357.646 22.5288C356.951 22.1792 355.195 21.0545 354.07 19.7952C353.595 19.253 353.268 19.4905 353.16 19.6429C353.053 19.7952 349.714 28.9862 357.346 33.0193C358.323 33.5616 361.052 33.5392 363.351 33.1717C365.649 32.8042 370.812 31.545 372.654 32.4323C374.495 33.3196 375.082 34.8611 375.082 34.8611C375.082 34.8611 376.772 37.4423 375.105 39.7636C374.76 40.0683 374.433 40.1311 374.867 40.6733C375.302 41.2155 379.55 43.7743 380.178 46.9829C380.805 50.1914 380.805 50.7337 380.523 52.5754C380.455 53.8123 380.523 53.9198 380.998 54.1573C381.473 54.3948 384.686 54.8071 385.748 54.005C386.115 53.7002 386.052 53.4403 385.963 51.8136C385.873 50.1959 386.156 48.2018 387.132 46.4003Z" fill="#8E5335"/>
<path d="M384.529 65.7996C384.529 65.7996 379.093 72.983 368.917 77.1684C370.561 79.4763 371.511 81.4884 372.067 83.0926C376.889 80.0633 382.701 74.6903 384.529 65.7996Z" fill="#C88E69"/>
<path d="M364.909 47.2753C364.909 47.2753 363.031 46 358.581 46C357.848 46 358.017 46.6349 358.017 46.6349C358.017 46.6349 358.017 47.0474 358.646 47.0637C358.646 47.0637 358.972 49.9942 359.542 50.0973C359.542 50.0973 359.894 50.1624 359.699 47.0528C360.068 47.0148 361.463 46.89 364.73 47.525C364.903 47.5955 365.153 47.4815 364.909 47.2753Z" fill="black"/>
<path d="M457.851 200.008L399.335 243.145C399.335 243.145 398.672 243.593 399.756 245.112C400.841 246.631 421.481 279.227 422.525 281.02C423.57 282.812 424.345 281.513 424.345 281.513C424.345 281.513 474.508 245.52 476.125 244.475C476.905 244.086 477.196 243.781 476.865 242.611C476.533 241.442 472.657 229.674 469.708 223.167C466.76 216.66 459.648 201.052 459.648 201.052C459.648 201.052 458.205 199.744 457.851 200.008Z" fill="#FFECDD"/>
<path d="M444.644 266.949C458.76 256.835 475.206 245.062 476.121 244.471C476.9 244.081 477.192 243.776 476.86 242.607C476.528 241.437 472.652 229.669 469.704 223.163C466.755 216.656 459.643 201.048 459.643 201.048C459.643 201.048 458.209 199.744 457.851 200.008L442.502 211.323C443.663 224.157 445.881 252.205 444.644 266.949Z" fill="#FFECDD"/>
<path d="M304.459 163.168C304.459 163.168 307.51 163.231 309.303 164.938C311.095 166.645 313.349 168.061 313.063 168.814C312.771 169.567 314.192 171.212 311.127 171.503C308.061 171.794 301.949 173.748 300.654 174.496C299.359 175.245 298.033 172.251 298.033 172.251L293.09 166.789C293.09 166.789 293.206 164.042 293.291 164.042C293.376 164.042 295.429 162.886 295.057 162.393C294.681 161.9 289.854 159.847 289.854 159.847C289.854 159.847 285.14 154.179 287.829 152.969C287.829 152.969 288.062 152.794 288.68 153.663C289.299 154.533 292.628 156.903 293.117 157.163C293.61 157.423 295.778 157.741 296.442 158.001C297.105 158.261 301.326 159.592 303.267 162.397C303.262 162.393 303.379 163.123 304.459 163.168Z" fill="#C88E69"/>
<path d="M267.699 137.602L305.386 168.913C305.386 168.913 309.594 164.75 314.971 168.913C320.349 173.076 317.369 178.449 315.926 180.273C314.452 182.137 309.159 185.135 304.042 180.488C298.924 175.845 303.132 171.207 303.132 171.207L276.02 149.294L268.353 156.594L256.993 147.573V144.624L264.28 139.072C264.275 139.077 264.652 135.738 267.699 137.602Z" fill="#F4C430"/>
<path d="M296.204 164.055C296.204 164.055 298.772 162.661 299.13 162.392C299.489 162.124 300.031 162.549 300.017 163.123C300.009 163.697 299.847 166.269 298.588 167.205C298.588 167.205 298.386 167.537 298.445 167.855C298.503 168.173 298.79 169.083 298.601 169.576C298.413 170.069 298.687 170.499 298.687 170.499C298.687 170.499 303.688 172.928 300.882 174.375C299.623 174.98 298.964 175.518 298.964 175.518C298.964 175.518 298.395 176.168 296.701 175.518C296.325 175.361 295.46 175.401 295.46 175.401C295.46 175.401 294.389 175.388 293.609 174.797C293.018 174.537 292.381 174.537 292.381 174.537C292.381 174.537 291.369 174.362 290.822 173.914C290.271 173.466 289.693 173.363 289.594 173.407C289.491 173.452 288.451 173.38 287.86 172.946C287.268 172.511 286.341 172.556 286.341 172.556C286.341 172.556 284.952 172.556 284.127 170.996C283.302 169.437 282.984 168.913 282.653 167.703C282.321 166.488 281.743 164.884 281.048 163.903C280.354 162.921 279.977 162.083 279.489 160.233C278.996 158.382 278.534 157.66 278.073 156.966C277.611 156.271 277.204 155.317 276.858 153.726C276.513 152.135 275.586 149.984 275.599 149.796C275.613 149.608 277.047 147.815 278.983 149.796C280.918 151.776 281.093 153.192 281.25 153.627C281.407 154.062 282.061 154.958 282.061 154.958C282.061 154.958 283.392 156.764 283.939 158.834C284.49 160.9 284.79 160.972 284.79 160.972C284.79 160.972 284.745 160.699 284.992 160.147C285.238 159.596 285.525 159.238 285.861 158.906C286.197 158.574 288.478 156.217 288.868 155.366C289.258 154.514 289.679 154.022 290.069 153.547C290.459 153.071 291.906 150.786 292.005 150.513C292.108 150.239 292.758 149.818 293.421 150.584C294.084 151.351 295.128 153.461 293.09 156.598C292.83 156.93 292.816 156.755 292.686 157.306C292.556 157.857 292.381 159.605 290.374 162.092C290.217 162.294 289.997 162.599 290.199 162.527C290.401 162.455 293.408 160.878 293.811 160.501C294.214 160.125 294.649 159.937 294.999 159.735C295.344 159.533 298.05 157.929 298.35 157.696C298.655 157.463 299.623 157.221 299.767 158.377C299.91 159.533 300.143 161.671 297.423 162.962C297.002 163.293 296.845 163.266 296.612 163.513C296.397 163.737 296.204 164.055 296.204 164.055Z" fill="#E0A680"/>
<path d="M423.851 213.958C423.851 213.958 423.78 214.146 422.906 216.633C422.032 219.121 421.732 219.546 421.346 220.864C420.961 222.181 420.988 222.706 420.818 224.323C420.647 225.941 420.302 227.164 420.249 227.89C421.145 227.344 423.359 225.789 423.359 225.789C423.359 225.789 423.771 225.56 423.789 226.134C423.807 226.707 424.152 232.349 423.977 233.573C423.802 234.796 423.672 235.311 424.259 236.615C424.846 237.915 426.231 239.564 427.1 243.27C427.1 243.27 427.351 245.233 428.185 245.286C429.018 245.34 429.668 245.34 429.834 245.515C429.995 245.69 430.331 246.416 431.34 246.08C432.348 245.744 432.617 245.269 432.814 244.811C433.011 244.354 433.531 242.055 434.342 241.451C435.153 240.846 435.677 240.474 435.861 239.533C436.045 238.592 436.578 237.265 437.228 236.239C437.51 235.97 437.497 235.894 437.488 235.446C437.479 235.002 438.039 231.251 438.214 230.566C438.389 229.884 438.344 229.589 438.214 228.298C438.084 227.008 438.236 225.542 438.138 224.341C438.039 223.136 437.147 216.669 436.981 216.333C436.654 215.674 435.247 214.124 430.838 213.438C428.969 213.143 426.509 212.627 423.851 213.958Z" fill="#C88E69"/>
<path d="M290.185 163.056C290.217 162.881 290.046 162.652 290.154 162.518C290.055 162.509 290.244 162.254 290.382 162.074C292.39 159.587 292.565 157.84 292.695 157.288C292.825 156.737 292.838 156.912 293.098 156.58C295.137 153.444 294.097 151.333 293.43 150.567C292.766 149.8 292.112 150.222 292.014 150.495C291.911 150.768 290.468 153.054 290.078 153.529C289.688 154.004 289.267 154.497 288.877 155.348C288.487 156.2 286.201 158.557 285.87 158.888C285.538 159.22 285.247 159.583 285.001 160.13C284.754 160.681 284.799 160.954 284.799 160.954C284.799 160.954 284.494 160.882 283.947 158.817C283.396 156.751 282.07 154.94 282.07 154.94C282.07 154.94 281.42 154.044 281.259 153.609C281.102 153.175 280.927 151.759 278.991 149.778C277.055 147.797 275.621 149.59 275.608 149.778C275.603 149.814 275.635 149.912 275.684 150.056C276.271 149.348 277.226 148.801 278.458 150.208C280.582 152.637 280.757 153.417 280.757 153.417C280.757 153.417 280.932 154.371 281.537 154.976C282.142 155.581 283.356 158.1 283.271 158.619C283.186 159.139 283.226 159.834 283.575 160.179C283.921 160.524 284.225 161.048 284.315 162.043C284.4 163.042 286.439 165.122 286.569 167.116C286.569 167.116 287.205 166.291 284.691 161.823C284.965 161.071 285.211 160.336 285.242 160.206C285.269 160.076 286.139 159.05 286.399 158.79C286.659 158.53 287.532 157.432 287.532 157.432C287.532 157.432 288.742 156.074 289.177 155.249C289.612 154.425 289.916 154.08 289.916 154.08C289.916 154.08 291.893 151.23 292.184 150.683C292.475 150.136 292.749 150.697 292.749 150.697C292.749 150.697 295.164 153.358 291.852 156.639C291.592 157.029 291.678 157.302 291.678 157.302C291.678 157.302 291.834 159.964 289.392 161.667C289.235 161.711 288.827 161.967 289.132 162.316C289.437 162.67 290.302 164.579 290.409 167.461C290.624 167.591 290.495 166.636 290.495 166.636C290.495 166.636 290.642 164.696 290.185 163.056Z" fill="#C88E69"/>
<path d="M298.696 170.504C298.696 170.504 298.423 170.069 298.611 169.58C298.799 169.087 298.508 168.178 298.454 167.86C298.4 167.541 298.597 167.21 298.597 167.21C299.857 166.269 300.013 163.701 300.027 163.127C300.036 162.554 299.494 162.128 299.14 162.397C298.781 162.666 296.213 164.06 296.213 164.06C296.213 164.06 296.406 163.741 296.635 163.495C296.863 163.248 297.025 163.28 297.446 162.944C300.161 161.658 299.933 159.516 299.789 158.359C299.646 157.203 298.678 157.45 298.373 157.678C298.069 157.911 295.366 159.516 295.021 159.717C294.676 159.919 294.242 160.107 293.834 160.483C293.484 160.811 291.168 162.043 290.433 162.406C290.975 162.339 293.296 161.129 293.296 161.129L295.94 159.439C295.94 159.439 298.521 157.75 298.674 157.813C298.826 157.88 299.391 158.44 298.826 159.699C298.261 160.958 298.154 161.478 297.459 161.823C296.765 162.168 296.33 162.321 296.07 162.693C295.81 163.06 294.963 164.167 293.596 164.579C293.054 164.709 292.902 164.969 292.902 164.969L292.705 165.444C292.705 165.444 292.377 165.812 292.53 166.072C292.682 166.331 293.269 167.828 293.005 169.258C293.135 169.845 293.112 169.625 293.242 169.473C293.372 169.32 293.915 167.824 293.87 165.915C294.345 165.848 295.389 164.897 295.712 164.745C296.039 164.593 297.383 163.791 297.728 163.531C298.073 163.271 298.508 163.163 298.575 163.163C298.575 163.163 299.14 163.024 299.314 162.903C299.489 162.782 299.565 162.971 299.453 163.455C299.341 163.939 298.965 166.166 297.621 166.435C297.087 166.632 296.993 167.031 296.993 167.031C296.993 167.031 297.047 168.321 296.778 168.971C296.509 169.621 296.747 170.141 296.747 170.141C296.747 170.141 298.696 171.669 296.393 175.433C296.514 175.451 296.63 175.478 296.715 175.514C298.405 176.163 298.978 175.514 298.978 175.514C298.978 175.514 299.637 174.98 300.896 174.371C303.697 172.932 298.696 170.504 298.696 170.504Z" fill="#C88E69"/>
<path d="M150.523 193.936C150.523 193.936 144.106 209.549 139.594 247.536C139.594 247.536 138.899 265.923 134.476 272.689C130.053 279.456 127.682 283.153 124.792 286.16C121.902 289.167 105.594 303.507 81.0776 345.137C81.0776 345.137 80.4727 345.975 81.6288 347.073C82.785 348.171 86.5134 352.509 90.8512 353.75C90.8512 353.75 91.3441 354.301 91.9222 353.405C92.5003 352.509 102.821 337.967 107.562 333.11C112.303 328.256 121.44 319.003 124.447 314.669C127.454 310.332 136.994 294.894 136.994 294.894C136.994 294.894 138.989 291.685 140.638 289.601C142.287 287.518 147.404 279.716 147.404 279.716C147.404 279.716 161.977 258.726 164.057 254.303C164.057 254.303 167.35 271.39 167.7 274.423C168.045 277.457 168.045 283.269 165.446 289.167C162.842 295.064 153.736 311.806 153.476 327.244C153.261 339.93 153.051 347.288 152.979 349.506C152.97 349.838 152.916 350.161 152.88 350.492C152.849 350.766 152.948 351.178 153.768 351.326C155.04 351.559 160.938 352.54 164.697 352.02C166.145 351.832 165.84 351.254 165.84 351.254L166.315 344.922C166.315 344.922 169.609 325.509 179.499 300.616C183.142 292.55 184.007 286.478 184.007 286.478C184.007 286.478 186.871 272.34 190.254 259.156C193.637 245.972 197.885 214.052 198.06 201.998C198.226 189.943 150.523 193.936 150.523 193.936Z" fill="#272622"/>
<path d="M158.792 63.2004L170.242 106.104H178.801C178.801 106.104 185.626 103.675 185.738 103.33C185.85 102.985 194.525 86.4446 194.525 86.4446C194.525 86.4446 200.078 72.3376 200.078 71.8716C200.078 71.4055 196.838 57.7647 196.838 57.7647L186.544 54.1797L158.792 63.2004Z" fill="#9B6348"/>
<path d="M110.627 209.069C110.627 209.069 109.238 212.582 110.107 216.486C110.712 217.875 110.977 218.35 110.977 218.35C110.977 218.35 111.214 218.762 111.205 219.587C111.196 220.411 110.784 223.987 111.868 226.286C112.953 228.585 113.648 229.974 113.648 229.974C113.648 229.974 113.993 230.646 113.173 230.691C112.348 230.736 109.574 230.736 107.903 228.415C107.208 227.415 106.581 225.833 106.581 225.833C106.581 225.833 106.061 223.037 104.367 223.077C102.677 223.122 101.593 223.512 101.593 223.512C101.593 223.512 100.051 224.054 98.8595 225.291C97.6674 226.528 95.5657 227.742 95.5657 227.742C95.5657 227.742 96.583 229.347 96.1931 232.013C96.1931 232.013 96.1931 233.012 95.5657 233.478C95.5657 233.478 95.4672 233.608 95.2521 233.478C95.037 233.348 94.4947 232.959 94.4947 232.959C94.4947 232.959 94.665 235.629 92.2496 238.085C92.2496 238.085 91.1652 239.192 90.3182 238.703C90.1569 238.551 90.1659 238.237 90.1659 238.237C90.1659 238.237 90.2645 236.548 90.2107 235.723C90.1659 235.898 89.7536 237.135 87.8267 239.129C86.5674 240.276 85.3889 241.079 84.6047 240.908C83.8249 240.733 84.3985 239.586 84.4523 239.555C84.5061 239.524 85.8011 236.965 86.8139 232.613C86.8139 232.613 84.8915 233.698 82.5478 233.407C80.2041 233.115 81.7815 232.121 81.7815 232.121C81.7815 232.121 84.515 230.256 85.0752 229.822C85.6398 229.387 86.1283 229.082 86.1283 229.082C86.1283 229.082 88.8036 227.433 88.9022 227.115C89.0052 226.797 89.6819 224.108 90.0001 222.271C90.13 221.679 90.0852 221.549 90.5199 221.115C90.9546 220.68 91.9225 219.51 92.2093 218.959C92.5006 218.408 93.1324 217.92 93.1324 217.92C93.1324 217.92 99.1149 214.55 102.673 206.976C106.231 199.399 112.478 203.938 110.627 209.069Z" fill="#9B6348"/>
<path d="M229.322 182.661C229.322 182.661 228.367 185.547 230.621 186.13C232.875 186.712 235.349 187.147 238.665 190.055C241.981 192.959 242.936 192.981 242.936 192.981C242.936 192.981 244.173 193.394 245.32 192.807C246.467 192.22 246.664 192.242 247.834 192.179C249.003 192.112 249.783 192.112 250.89 191.44C251.217 191.395 252.19 191.44 252.19 191.44C252.19 191.44 253.059 191.288 253.709 190.813C254.358 190.338 255.228 190.88 255.228 190.88C255.228 190.88 256.052 191.01 256.877 190.293C257.701 189.576 260.475 186.694 262.797 185.457C263.774 185 264.898 184.028 264.898 184.028C264.898 184.028 267.479 182.379 269.106 181.814C270.733 181.25 273.484 181.075 273.614 180.815C273.744 180.555 273.767 179.708 272.355 179.211C270.943 178.713 269.774 178.323 267.565 178.606C267.565 178.606 268.627 177.696 271.401 177.194C274.174 176.692 271.293 175.092 271.293 175.092C271.293 175.092 269.451 173.748 266.588 175.092C265.441 175.679 264.853 176.24 264.853 176.24C264.853 176.24 264.226 176.652 263.747 176.782C263.272 176.912 261.838 177.539 261.295 177.951C262.295 177.127 264.419 175.307 265.481 174.788C266.543 174.268 264.786 173.618 264.786 173.618C264.786 173.618 262.25 172.578 259.386 174.985C258.929 175.397 258.324 176.123 258.324 176.123C258.324 176.123 256.774 177.207 256.429 177.629C257.034 176.446 256.72 174.452 255.595 174.214C255.075 174.115 254.771 174.604 254.771 174.604C254.771 174.604 252.786 177.391 251.495 178.332C251.656 177.539 252.167 176.325 252.526 175.957C252.884 175.59 252.871 175.393 252.494 175.231C252.113 175.07 250.097 174.613 248.752 176.782C247.408 178.951 247.713 179.632 247.713 179.632C247.713 179.632 246.575 180.219 246.194 180.631C245.49 180.524 244.751 179.914 238.638 180.707C237.885 180.752 236.599 180.707 235.183 179.914C233.767 179.121 230.536 179.35 229.322 182.661Z" fill="#9B6348"/>
<path d="M93.8851 219.725C94.378 219.264 96.1123 217.615 96.1123 217.615L102.453 211.453C102.453 211.453 104.963 209.835 107.88 209.719C109.336 209.661 109.861 210.521 110.026 211.399C110.264 209.988 110.627 209.069 110.627 209.069C110.766 208.688 110.851 208.312 110.905 207.94L107.159 204.122L104.062 204.74C103.574 205.323 103.103 206.053 102.677 206.967C99.1192 214.541 93.1367 217.91 93.1367 217.91C93.1367 217.91 92.5004 218.403 92.2136 218.95C91.9223 219.501 90.9544 220.671 90.5242 221.106C90.0895 221.54 90.1343 221.67 90.0043 222.262C89.6862 224.099 89.005 226.788 88.9064 227.106C88.8034 227.424 86.1326 229.073 86.1326 229.073C86.1326 229.073 85.6396 229.378 85.0795 229.813C84.5148 230.247 81.7858 232.111 81.7858 232.111C81.7858 232.111 81.62 232.215 81.4766 232.367C82.3101 232.873 84.3759 231.394 85.1243 230.592C85.9757 229.683 87.3918 229.145 87.3918 229.145C87.3918 229.145 89.0812 228.074 90.0088 227.249C90.932 226.425 91.165 226.25 92.1329 225.515C94.5304 224.068 95.6731 223.073 95.6731 223.073C95.6731 223.073 95.7583 222.728 95.4715 223.028C95.1802 223.333 92.9844 224.502 92.4063 224.735C91.8282 224.968 91.9851 224.027 91.9851 224.027C91.8058 222.006 93.3966 220.187 93.8851 219.725Z" fill="#8E5335"/>
<path d="M113.652 229.996C112.168 230.418 109.892 229.364 109.892 229.364C109.892 229.364 108.462 228.715 107.028 225.246C106.491 223.938 105.778 223.413 105.102 223.266C106.208 223.884 106.576 225.829 106.576 225.829C106.576 225.829 107.203 227.411 107.898 228.41C109.569 230.731 112.343 230.731 113.168 230.686C113.898 230.651 113.701 230.113 113.652 229.996Z" fill="#8E5335"/>
<path d="M94.0508 228.616C92.9664 229.037 92.4914 229.427 92.209 229.669C91.9267 229.907 90.6809 230.722 90.1253 230.946C89.5741 231.175 86.7957 232.461 86.6299 232.69C86.7419 232.636 86.8047 232.6 86.8047 232.6C85.7919 236.951 84.4968 239.51 84.4431 239.541C84.3893 239.573 83.8157 240.724 84.5954 240.895C85.3752 241.065 86.5582 240.267 87.8174 239.116C89.7488 237.122 90.1611 235.885 90.2014 235.71C90.2552 236.535 90.1566 238.224 90.1566 238.224C90.1566 238.224 90.1477 238.538 90.309 238.69C91.156 239.178 92.2404 238.072 92.2404 238.072C94.6558 235.616 94.4855 232.945 94.4855 232.945C94.4855 232.945 95.0277 233.335 95.2428 233.465C95.4579 233.595 95.5565 233.465 95.5565 233.465C96.1839 232.999 96.1839 232 96.1839 232C96.5738 229.333 95.5565 227.729 95.5565 227.729C95.5565 227.729 95.1353 228.195 94.0508 228.616Z" fill="#8E5335"/>
<path d="M272.364 179.211C271.068 178.753 269.966 178.395 268.088 178.552C267.461 178.713 266.91 178.852 266.69 178.91C266.027 179.085 265.288 179.892 264.58 180.008C263.872 180.125 263.527 180.645 262.411 181.438C261.299 182.231 260.287 183.1 259.476 184.023C258.664 184.947 257.526 185.686 256.988 186.089C256.455 186.493 257.177 186.322 257.177 186.322C257.177 186.322 259.561 184.66 260.228 183.925C260.892 183.185 261.774 182.406 261.774 182.406C261.774 182.406 262.774 181.913 263.222 181.393C263.67 180.873 264.521 180.582 264.956 180.38C265.391 180.179 265.709 180.089 266.735 179.511C267.761 178.933 269.957 179.309 269.957 179.309C272.623 179.43 273.13 180.398 273.193 180.967C273.435 180.913 273.591 180.86 273.623 180.806C273.748 180.555 273.771 179.712 272.364 179.211Z" fill="#8E5335"/>
<path d="M263.137 185.283C262.998 185.318 262.837 185.363 262.639 185.422C260.833 185.941 256.747 189.567 256.065 189.741C255.384 189.916 255.555 189.71 255.555 189.71C255.555 189.71 255.77 189.213 255.272 189.526C254.775 189.84 252.736 190.19 252.14 190.19C251.544 190.19 251.943 189.715 252.149 189.356C252.355 188.998 252.256 188.845 252.256 188.845C252.256 188.845 252.212 188.661 251.866 189.074C250.63 190.884 249.406 190.839 248.308 190.969C247.21 191.099 247.757 189.939 247.896 189.701C248.035 189.464 247.972 189.266 247.972 189.266C247.972 189.266 247.811 189.128 247.385 189.732C246.637 191.144 245.391 191.704 245.391 191.704C245.391 191.704 244.101 192.246 243.679 191.292C243.258 190.337 244.862 188.688 244.862 188.688C244.862 188.688 245.414 188.406 245.772 187.245C246.131 186.085 247.125 185.09 247.125 185.09C247.125 185.09 247.712 184.593 247.677 183.616C247.578 181.644 248.402 180.788 248.806 180.17C249.209 179.551 249.379 178.87 249.379 178.87C249.379 178.87 249.814 177.373 250.603 176.45C251.235 175.715 252.234 175.8 252.61 175.868C252.875 175.563 252.834 175.384 252.489 175.236C252.48 175.231 252.467 175.227 252.454 175.222C252.27 175.177 252.041 175.133 251.754 175.088C250.948 175.039 249.684 175.272 248.748 176.786C248.591 177.042 248.456 177.27 248.344 177.485C248.232 177.745 248.152 177.978 248.111 178.153C247.883 179.076 247.811 179.789 247.506 180.308C246.413 181.859 246.323 184.135 246.323 184.135C246.323 184.135 246.39 184.61 246.054 184.893C245.718 185.175 244.526 186.681 244.526 186.681C243.863 186.452 242.142 186.658 241.47 186.887C240.798 187.115 240.256 186.963 240.256 186.963C237.751 186 237.307 183.441 237.307 183.441C237.307 183.441 237.186 182.563 238.92 181.554C240.654 180.546 245.36 181.057 245.36 181.057C245.36 181.057 245.987 181.424 246.498 180.882C247.009 180.34 247.573 180.08 247.573 180.08C247.847 179.551 247.838 179.072 247.793 178.785C247.618 179.403 247.717 179.636 247.717 179.636C247.717 179.636 246.579 180.223 246.198 180.636C245.494 180.528 244.755 179.919 238.642 180.712C237.89 180.757 236.603 180.712 235.187 179.919C233.771 179.125 230.531 179.354 229.317 182.666C229.317 182.666 228.362 185.551 230.616 186.134C232.871 186.721 235.344 187.151 238.66 190.06C241.976 192.963 242.931 192.986 242.931 192.986C242.931 192.986 244.168 193.398 245.315 192.811C246.462 192.224 246.659 192.246 247.829 192.184C248.998 192.116 249.778 192.117 250.885 191.444C251.212 191.4 252.185 191.444 252.185 191.444C252.185 191.444 253.054 191.292 253.704 190.817C254.354 190.342 255.223 190.884 255.223 190.884C255.223 190.884 256.047 191.014 256.872 190.297C257.697 189.58 260.47 186.699 262.792 185.462C262.913 185.404 263.025 185.345 263.137 185.283Z" fill="#8E5335"/>
<path d="M257.975 177.172C258.624 176.768 259.068 176.065 259.068 176.065C259.068 176.065 260.977 174.003 263.07 173.788C263.715 173.721 264.235 173.645 264.647 173.564C264.078 173.389 261.86 172.905 259.395 174.98C258.938 175.392 258.333 176.118 258.333 176.118C258.333 176.118 256.783 177.203 256.438 177.624C257.043 176.441 256.729 174.447 255.604 174.209C255.084 174.111 254.78 174.599 254.78 174.599C254.78 174.599 252.794 177.387 251.504 178.328C251.517 178.26 251.54 178.184 251.558 178.108C251.41 178.417 251.257 178.848 251.159 179.426C250.899 180.9 250.572 181.724 250.572 181.724C250.572 181.724 250.227 182.549 250.052 183.481C249.877 184.413 249.77 185.283 249.205 186.04C248.64 186.797 247.775 188.124 247.645 188.424C247.515 188.729 247.601 188.899 247.601 188.899C247.601 188.899 247.645 188.841 247.825 188.567C248.004 188.294 249.021 185.964 252.131 182.849C254.233 181.07 254.735 180.788 254.775 180.757C254.815 180.725 255.143 180.344 255.783 179.488C256.424 178.637 257.325 177.575 257.975 177.172Z" fill="#8E5335"/>
<path d="M265.857 176.481C265.919 176.45 269.926 173.524 272.48 176.768C273.107 176.101 271.301 175.097 271.301 175.097C271.301 175.097 269.46 173.752 266.596 175.097C265.449 175.684 264.862 176.244 264.862 176.244C264.862 176.244 264.234 176.656 263.755 176.786C263.334 176.903 262.178 177.4 261.537 177.799C261.053 178.171 260.484 178.65 260.004 179.17C260.004 179.17 259.708 179.475 259.229 179.869C258.749 180.264 257.203 182.038 257.033 182.298C256.858 182.558 256.195 183.136 256.195 183.136C256.195 183.136 253.771 185.292 253.054 186.726C253.054 186.726 252.718 187.452 253.251 186.887C253.784 186.322 255.353 184.436 256.025 183.817C256.697 183.199 257.499 182.244 257.499 182.244C257.499 182.244 259.112 180.51 260.013 179.901C260.914 179.296 261.227 178.915 261.227 178.915C261.227 178.915 262.594 177.678 264.167 177.257C265.74 176.835 265.794 176.513 265.857 176.481Z" fill="#8E5335"/>
<path d="M194.583 59.8887C194.583 59.8887 193.736 58.6698 191.155 58.8849C189.447 59.0238 187.857 59.7946 186.602 60.9597C183.846 63.514 181.354 67.4844 179.665 68.9991C177.581 70.8633 173.499 74.1749 172.293 77.6702C171.088 81.1656 170.689 88.3804 170.689 88.3804C170.689 88.3804 175.479 93.2829 179.817 94.4525C184.155 95.6221 181.229 99.0502 181.229 99.0502C181.229 99.0502 180.1 99.57 179.97 99.57C179.84 99.57 175.807 99.6552 169.604 91.5486C163.402 83.4421 171.989 101.869 171.989 101.869L173.548 103.818C173.548 103.818 178.854 104.688 179.432 102.949C180.01 101.21 184.868 103.034 184.868 103.034L179.75 108.801L165.482 108.282L156.506 86.077L163.053 65.9115L182.614 56.6309H196.057L194.583 59.8887Z" fill="#8E5335"/>
<path d="M192.2 68.1702C192.2 68.1702 189.829 66.5972 186.011 68.3001C185.079 68.7796 184.828 69.631 185.899 68.9947C186.97 68.3584 189.744 68.1702 191.581 68.5018C192.056 68.578 192.648 68.6048 192.2 68.1702Z" fill="#272622"/>
<path d="M189.394 71.5802C189.864 71.5802 190.245 70.7296 190.245 69.6802C190.245 68.6308 189.864 67.7802 189.394 67.7802C188.924 67.7802 188.542 68.6308 188.542 69.6802C188.542 70.7296 188.924 71.5802 189.394 71.5802Z" fill="#272622"/>
<path d="M151.277 137.096C151.277 137.096 148.731 141.604 146.768 146C144.806 150.396 139.832 160.34 137.053 164.042C134.279 167.743 132.89 171.906 132.89 171.906C132.89 171.906 131.272 176.186 127.221 181.738C123.17 187.29 121.553 191.467 121.553 191.467C121.553 191.467 120.033 194.805 119.384 195.89C118.734 196.974 118.214 198.319 118.214 198.319C118.214 198.319 115.57 204.216 110.712 202.612C105.855 201.007 104.466 200.833 104.596 199.273C104.726 197.714 104.985 196.369 105.55 194.895C106.115 193.421 107.544 189.042 107.544 189.042C107.544 189.042 110.018 182.71 111.707 179.242C113.397 175.773 117.13 168.747 117.13 168.747C117.13 168.747 120.423 162.72 122.332 159.901C124.241 157.082 127.495 152.789 131.308 144.638C135.122 136.487 139.115 126.422 139.115 126.422C139.115 126.422 144.407 108.9 151.649 106.821C154.033 106.126 157.501 105.911 157.501 105.911L169.685 104.262L177.577 105.087L181.35 106.606C181.35 106.606 181.74 107.3 184.084 107.255C186.427 107.211 187.902 108.295 187.902 108.295C187.902 108.295 190.505 110.289 191.675 113.587C192.845 116.881 194.883 123.213 200.521 128.375C206.158 133.538 203.124 142.294 203.124 142.294L201.475 146.412C201.475 146.412 200.391 149.101 200.131 151.445C200.131 151.445 205.638 156.043 208.412 157.862C211.186 159.681 213.355 161.46 213.355 161.46C213.355 161.46 215.045 163.325 218.083 164.754C221.121 166.184 225.369 169.352 225.369 169.352C225.369 169.352 231.007 173.08 230.142 176.549C229.272 180.017 224.289 183.226 224.289 183.226C224.289 183.226 222.035 184.875 218.867 182.881C215.703 180.887 214.314 179.497 214.314 179.497C214.314 179.497 211.8 177.763 210.756 177.024C209.716 176.284 207.198 173.9 207.198 173.9C207.198 173.9 204.204 171.342 202.82 170.432C201.435 169.522 198.701 167.743 198.701 167.743C198.701 167.743 198.63 172.023 198.975 175.953C199.32 179.883 199.755 186.681 198.858 193.878C197.962 201.075 198.047 203.593 198.047 203.593C198.047 203.593 194.059 205.211 189.071 205.04L189.116 205.256C189.116 205.256 187.122 206.752 183.022 205.69L182.937 205.493C182.937 205.493 178.043 205.704 172.549 203.391C167.055 201.079 158.832 196.773 149.61 196.105C149.61 196.105 153.921 185.09 160.754 175.316C168.041 161.021 161.131 151.409 159.831 149.352C158.532 147.3 151.622 140.448 151.277 137.096Z" fill="#E7CDB8"/>
<path d="M179.437 110.612L180.136 106.104L177.586 105.078L169.694 104.253L157.51 105.902C157.51 105.902 154.041 106.117 151.657 106.812C144.416 108.896 139.123 126.413 139.123 126.413C139.123 126.413 135.135 136.473 131.317 144.629C127.499 152.78 124.25 157.073 122.341 159.892C120.432 162.711 117.139 168.738 117.139 168.738C117.139 168.738 113.41 175.765 111.716 179.233C110.027 182.702 107.553 189.033 107.553 189.033C107.553 189.033 106.124 193.412 105.559 194.886C104.994 196.36 104.734 197.705 104.605 199.264C104.515 200.362 105.183 200.774 107.275 201.482L106.944 199.869C106.944 199.869 106.115 200.08 110.107 187.725C114.105 175.37 127.889 154.465 131.272 148.913C134.656 143.361 139.943 129.487 142.897 121.506C145.85 113.525 150.138 110.056 153.737 109.017C157.335 107.977 157.335 110.536 163.103 112.225C167.906 113.632 170.089 110.321 170.689 109.173C172.276 110.097 174.884 113.202 175.247 113.682C175.637 114.201 175.695 113.986 175.896 113.816C176.098 113.646 176.779 112.557 177.084 111.947C177.389 111.338 177.59 111.746 177.59 111.746C177.59 111.746 177.98 113.35 178.72 114.999C179.459 116.648 184.702 126.404 186.006 128.703C187.306 131.002 187.87 134.165 188.045 135.77C188.22 137.374 188.39 140.237 186.831 145.96C185.271 151.682 183.402 163.392 182.323 170.938C181.238 178.485 183.192 191.494 183.582 197.391C183.891 202.034 182.963 204.597 182.556 205.484C182.811 205.484 182.954 205.48 182.954 205.48L183.04 205.677C183.873 205.892 184.612 205.999 185.271 206.04L186.557 195.141L186.087 159.762L190.828 133.973L179.437 110.612Z" fill="#D9B89D"/>
<path d="M165.226 143.213C164.715 142.774 164.231 142.303 163.828 141.761C162.789 140.372 161.269 137.764 160.933 134.085C160.413 128.362 156.685 123.657 156.685 123.657C156.685 123.657 156.802 127.434 151.281 137.091L151.339 137.446C152.092 140.905 158.581 147.367 159.84 149.352C161.139 151.405 168.049 161.017 160.763 175.316C153.929 185.09 149.618 196.105 149.618 196.105C152.383 196.306 155.058 196.835 157.599 197.539C159.221 194.837 164.406 186.896 166.4 180.147C168.395 173.398 171.953 158.897 169.524 151.44C167.695 145.839 165.97 143.858 165.226 143.213Z" fill="#D9B89D"/>
<path d="M182.072 127.085C182.072 127.085 182.851 130.881 181.682 130.621C180.512 130.361 175.305 128.712 167.543 128.429C167.543 128.429 166.791 128.626 167.266 126.87C167.741 125.113 168.166 124.298 168.166 124.298L182.072 127.085Z" fill="#D9B89D"/>
<path d="M192.114 126.26C192.114 126.26 191.616 126.673 192.244 128.299C192.871 129.926 192.831 130.289 193.091 130.325C193.351 130.361 194.977 130.172 196.474 130.007C197.971 129.841 199.768 129.644 200.44 129.666C201.112 129.689 200.852 128.712 200.852 128.712L197.469 125.176L192.114 126.26Z" fill="#D9B89D"/>
<path d="M112.446 203.633C112.446 203.633 111.29 207.478 111.017 208.706C110.743 209.934 110.416 209.696 110.416 209.696C110.416 209.696 110.51 208.388 107.114 207.115C103.717 205.843 102.529 207.281 102.529 207.281C102.529 207.281 102.274 207.218 102.704 206.407C103.139 205.596 104.873 201.115 104.99 200.698C105.106 200.277 104.931 200.192 105.742 200.107C106.554 200.021 110.425 200.08 112.451 202.491C112.446 202.491 112.998 202.679 112.446 203.633Z" fill="#FFECDD"/>
<path d="M179.015 103.644C179.015 103.644 179.58 104.186 178.083 104.401C176.586 104.616 173.705 104.616 172.208 104.249C170.712 103.881 169.735 105.378 169.735 105.378L169.04 107.112L170.08 108.586C170.08 108.586 173.096 110.321 175.13 113.139C175.13 113.139 175.551 113.834 175.964 113.216C176.376 112.597 177.057 111.45 177.505 111.1C177.949 110.755 177.841 111.253 177.841 111.253C177.841 111.253 178.513 113.744 180.987 118.387C183.461 123.025 186.432 128.362 186.432 128.362C186.432 128.362 189.945 134.479 188.731 139.942C187.516 145.404 184.814 155.191 184.352 159.529C183.891 163.867 182.269 174.044 182.443 177.745C182.618 181.447 183.313 189.656 183.313 189.656C183.313 189.656 185.235 199.99 182.945 205.493L183.03 205.69C187.086 206.766 189.125 205.256 189.125 205.256C189.125 205.256 190.138 202.724 188.632 194.169C187.131 185.61 185.858 178.211 186.956 163.522C188.923 154.326 191.581 142.532 191.581 142.532C191.581 142.532 194.068 134.492 190.191 127.614C186.315 120.735 181.014 110.782 181.014 110.782C181.014 110.782 180.799 110.132 181.511 110.437C182.228 110.742 183.483 110.979 183.483 110.979C183.483 110.979 184.025 110.849 183.483 109.81C182.941 108.77 181.619 105.387 181.619 105.387C181.619 105.387 181.229 103.343 179.015 103.644Z" fill="#FFECDD"/>
<path d="M169.331 123.755C169.331 123.755 177.182 122.944 181.775 126.112C181.775 126.112 182.268 126.386 182.237 127.21C182.21 128.035 182.12 129.321 182.134 129.684C182.147 130.047 182.062 130.477 181.282 130.276C180.503 130.074 177.204 128.743 168.314 128.223C168.314 128.223 166.911 128.411 167.346 126.995C167.78 125.579 168.085 124.495 168.085 124.495C168.085 124.495 168.188 123.823 169.331 123.755Z" fill="#FFECDD"/>
<path d="M192.741 125.633C192.741 125.633 191.58 125.938 191.992 127.098C192.405 128.259 192.817 129.115 192.956 129.46C193.095 129.805 193.193 130.141 194.269 129.948C195.344 129.751 200.157 129.299 200.807 129.254C201.457 129.209 201.685 128.779 201.036 128.062C200.386 127.345 198.401 125.136 198.401 125.136C198.401 125.136 198.226 124.822 197.132 124.844C196.034 124.862 194.26 125.122 192.741 125.633Z" fill="#FFECDD"/>
<path d="M225.548 180.752C225.548 180.752 216.527 178.498 208.721 172.296C200.915 166.094 198.311 160.112 198.356 158.852C198.356 158.852 198.208 164.566 198.759 167.779C199.14 168.03 201.547 169.594 202.824 170.432C204.213 171.341 207.202 173.9 207.202 173.9C207.202 173.9 209.716 176.284 210.76 177.024C211.8 177.763 214.318 179.497 214.318 179.497C214.318 179.497 215.707 180.887 218.871 182.881C221.493 184.534 223.487 183.687 224.096 183.347C224.791 182.114 225.548 180.752 225.548 180.752Z" fill="#D9B89D"/>
<path d="M235.434 180.273C235.434 180.273 230.76 182.961 230.236 185.175C230.133 185.847 230.11 185.995 230.55 186.107C230.989 186.219 231.455 186.34 231.455 186.34C231.455 186.34 230.747 187.147 230.285 187.474C229.824 187.801 229.577 187.837 229.178 187.474C228.779 187.111 224.782 183.929 223.38 183.257C223.088 183.064 223.236 182.312 223.496 181.765C223.756 181.214 226.835 176.172 229.331 175.966C230.003 175.895 230.796 176.531 230.796 176.531C230.796 176.531 232.978 178.31 234.018 178.875C235.058 179.439 236.375 179.834 236.052 180.322C236.052 180.317 235.703 180.116 235.434 180.273Z" fill="#FFECDD"/>
<path d="M193.61 60.9957C193.61 60.9957 192.634 58.4145 191.159 58.5041C189.685 58.5937 186.911 58.7192 184.482 61.9323C182.053 65.1408 180.884 66.2701 179.45 67.4845C178.02 68.6989 172.338 73.207 171.339 79.2791C170.339 85.3512 171.339 90.8138 171.339 90.8138C171.339 90.8138 172.598 96.4512 173.158 98.7053C173.718 100.959 174.915 106.771 170.895 109.285C166.871 111.799 163.967 110.935 163.967 110.935C163.967 110.935 162.166 110.482 157.505 107.506C152.042 104.473 148.13 109.061 148.13 109.061L147.015 110.285C147.015 110.285 145.316 111.19 143.802 108.806C142.282 106.422 138.989 101.085 139.163 91.0692C139.338 81.0537 140.871 73.6641 140.871 73.6641C140.871 73.6641 142.722 60.3056 150.815 50.0167C158.908 39.7277 162.901 39.32 168.103 38.3923C173.306 37.4692 177.819 38.3923 177.819 38.3923C177.819 38.3923 184.755 39.6067 189.613 44.0611C194.471 48.5154 193.413 49.2369 193.906 50.1332C194.399 51.0294 194.511 51.3924 196.277 52.4768C198.042 53.5613 200.525 55.1208 201.914 58.0291C203.303 60.9374 206.615 66.1357 201.914 78.4994C198.056 88.6494 198.056 87.0854 196.452 93.2023C195.295 97.6118 195.192 98.405 197.016 104.957C198.836 111.504 193.104 114.053 191.764 113.82C191.226 112.548 189.86 109.568 187.606 108.125C185.567 106.996 183.644 107.43 182.367 107.112C181.26 104.02 180.579 103.706 179.799 103.626L179.02 103.657C179.02 103.657 177.415 98.3871 179.822 94.4615C179.822 94.4615 182.855 96.133 185.459 95.7611C188.063 95.3891 188.063 93.8521 188.063 93.8521C188.063 93.8521 188.3 90.5584 189.192 89.7338C190.079 88.9093 190.527 88.6807 191.522 88.2281C192.521 87.771 192.521 86.6552 192.521 86.6552L192.53 85.8531C192.53 85.8531 193.745 85.2571 193.929 84.3115C194.112 83.3705 193.767 83.1823 193.767 83.1823C193.767 83.1823 193.171 82.2815 193.552 80.8834C194.018 80.8072 196.653 80.1664 196.891 79.2881C197.128 78.4097 196.38 77.639 196.38 77.639C196.38 77.639 193.942 72.0061 193.579 69.5638C193.982 69.044 194.592 68.6675 194.547 67.1484C194.498 65.6293 194.596 63.2363 193.61 60.9957Z" fill="#272622"/>
</g>
</svg>
