<svg width="396" height="230" viewBox="0 0 396 230" fill="none" xmlns="http://www.w3.org/2000/svg">
<mask id="mask0" mask-type="alpha" maskUnits="userSpaceOnUse" x="0" y="0" width="396" height="230">
<rect width="396" height="230" fill="#C4C4C4"/>
</mask>
<g mask="url(#mask0)">
<path d="M313.894 64.8339C313.894 64.8339 314.069 63.8794 315.023 65.0086C315.978 66.1379 324.044 75.3737 337.053 77.0228C340.481 77.5874 343.255 78.2372 343.08 85.089C342.905 91.9408 342.735 94.4279 344.236 103.565C345.738 112.702 346.029 118.196 346.029 118.196C346.029 118.196 346.665 125.599 347.763 129.471C348.861 133.347 349.323 139.07 349.323 139.07C349.323 139.07 351.317 151.012 351.837 154.391C352.356 157.775 353.226 163.327 353.486 165.231C353.746 167.14 354.498 176.421 355.045 179.078C355.596 181.74 356.286 186.074 356.519 187.897C356.752 189.717 358.832 194.548 353.513 193.19C348.193 191.832 340.763 191.63 340.387 189.085C340.011 186.54 339.809 184.837 339.607 183.707C339.406 182.578 339.173 178.85 338.913 176.654C338.653 174.458 335.879 155.171 333.19 145.111C330.501 135.05 328.852 128.544 325.993 123.601C325.993 123.601 323.999 128.458 324.434 135.915C324.868 143.376 325.303 145.281 329.986 160.029C334.669 174.776 335.045 175.381 335.507 178.415C335.968 181.449 340.132 203.913 341.781 210.245C343.43 216.577 353.49 250.662 354.704 262.461C355.399 266.104 357.218 272.476 358.088 276.294C358.957 280.112 363.438 298.078 364.94 318.664C366.441 339.251 368.005 359.255 368.063 360.703C368.121 362.15 369.452 365.041 363.842 363.826C358.231 362.612 347.768 360.878 346.728 360.703C345.688 360.528 344.877 361.514 344.994 357.176C345.11 352.838 344.819 341.277 344.357 336.822C343.896 332.368 343.318 328.151 341.467 321.788C339.616 315.424 336.027 299.462 336.027 299.462C336.027 299.462 332.787 283.966 331.46 278.011C330.129 272.055 327.875 260.489 326.083 256.268C326.952 261.3 327.992 266.619 328.22 274.945C328.453 283.272 329.61 287.26 330.013 289.922C330.416 292.584 332.5 303.567 331.631 323.688C330.761 343.809 330.676 349.276 330.501 358.556C330.327 367.837 331.196 368.908 330.241 368.648C329.287 368.388 327.208 363.271 321.974 362.549C316.74 361.828 307.979 362.549 304.076 355.294C303.73 354.371 304.017 354.138 304.076 352.663C304.134 351.189 305.088 314.761 303.264 297.674C301.441 280.587 300.491 271.741 298.232 262.116C295.978 252.49 295.628 250.581 294.938 247.112C294.244 243.644 291.73 230.545 289.736 223.519C287.741 216.492 287.741 213.588 286.917 207.082C286.092 200.575 285.702 199.755 285.702 199.755C285.702 199.755 284.3 200.015 284.358 199.352C284.416 198.688 284.215 194.754 283.578 187.7C282.942 180.647 281.553 169.023 279.648 161.853C277.744 154.683 276.296 149.278 276.296 149.278L274.907 145.088L257.56 149.973C257.56 149.973 248.974 153.302 244.377 154.369C239.779 155.435 238.161 156.103 238.161 156.103C238.161 156.103 237.843 156.623 236.947 155.812C236.05 155.001 224.399 147.544 224.081 145.926C223.763 144.309 224.399 144.219 225.004 143.99C225.609 143.757 245.761 136.995 249.463 135.548C253.164 134.1 257.327 131.618 258.829 131.443C258.829 131.443 258.708 130.892 259.77 130.09C259.77 130.09 261.853 125.644 262.198 124.515C262.543 123.386 265.537 117.228 266.016 116.104C266.491 114.974 270.744 102.875 271.829 100.316C272.913 97.7575 274.602 94.2442 275.777 91.0804C276.951 87.9167 278.075 85.6178 278.38 85.2683C278.685 84.9232 278.205 84.6185 281.374 82.8843C283.498 81.3651 289.785 74.6881 289.785 74.6881L313.894 64.8339Z" fill="#21262C"/>
<path d="M273.581 126.052C273.289 116.166 275.257 104.08 275.257 104.08C270.516 120.616 272.366 134.091 272.653 137.214C271.38 135.364 263.287 132.648 263.287 132.648C267.589 134.387 272.133 137.734 271.959 138.317C271.784 138.895 268.432 140.284 264.385 141.902C260.339 143.519 236.669 150.864 236.669 150.864C236.669 150.864 237.036 150.344 232.147 145.778C230.265 144.021 228.298 143.466 226.582 143.448C225.676 143.757 225.107 143.95 225.009 143.985C224.404 144.218 223.767 144.304 224.086 145.921C224.404 147.539 236.055 155 236.951 155.807C237.847 156.618 238.166 156.098 238.166 156.098C238.166 156.098 239.783 155.435 244.381 154.364C248.979 153.293 257.565 149.968 257.565 149.968L274.912 145.083L276.301 149.273C276.301 149.273 276.476 149.923 276.78 151.066C276.776 151.061 273.868 135.937 273.581 126.052Z" fill="#060606"/>
<path d="M324.281 363.208C327.853 364.803 329.443 368.428 330.246 368.648C331.2 368.908 330.331 367.837 330.505 358.556C330.68 349.275 330.765 343.813 331.635 323.688C332.504 303.567 330.42 292.579 330.017 289.921C329.614 287.26 328.458 283.271 328.225 274.945C327.992 266.619 326.952 261.3 326.087 256.267C322.444 235.076 308.046 207.467 308.046 207.467C308.162 225.217 319.034 261.183 319.034 261.183C319.034 261.183 324.469 285.7 324.353 297.033C324.236 308.366 324.12 326.753 324.469 334.272C324.814 341.787 324.353 362.952 324.353 362.952L324.281 363.208Z" fill="#060606"/>
<path d="M337.662 82.4402C337.967 83.5695 341.812 117.089 343.313 125.532C344.814 133.974 350.456 162.972 350.976 169.564C351.496 176.156 353.114 189.008 353.06 189.246C353.001 189.483 352.916 189.385 352.423 189.246C351.93 189.107 341.373 187.081 340.723 189.784C342.264 191.675 348.744 191.962 353.521 193.185C358.841 194.543 356.761 189.716 356.528 187.893C356.295 186.069 355.605 181.735 355.054 179.074C354.503 176.412 353.754 167.131 353.494 165.227C353.234 163.318 352.365 157.765 351.845 154.386C351.325 151.003 349.331 139.065 349.331 139.065C349.331 139.065 348.87 133.343 347.772 129.466C346.674 125.59 346.038 118.191 346.038 118.191C346.038 118.191 345.746 112.697 344.245 103.56C342.744 94.423 342.914 91.936 343.089 85.0841C343.264 78.2323 340.485 77.5826 337.062 77.0179C324.053 75.3688 315.986 66.133 315.032 65.0037C314.077 63.8745 313.903 64.829 313.903 64.829L312.133 65.5504L308.83 73.6749C308.83 73.6749 314.423 70.1168 318.456 72.1558C322.489 74.1948 329.125 77.4885 332.769 78.2727C336.403 79.0569 337.357 81.311 337.662 82.4402Z" fill="#060606"/>
<path d="M364.939 318.66C363.438 298.073 358.957 280.108 358.087 276.29C357.218 272.472 355.399 266.099 354.704 262.456C353.49 250.662 343.429 216.573 341.78 210.241C340.131 203.909 335.968 181.444 335.506 178.411C335.045 175.377 334.668 174.767 329.986 160.024C325.303 145.281 324.868 143.372 324.433 135.911C323.999 128.449 325.993 123.596 325.993 123.596C326.091 123.762 326.181 123.937 326.275 124.107V124.103C320.745 111.255 328.072 99.5679 328.072 99.5679C309.511 125.761 319.804 159.993 320.557 164.214C321.31 168.435 322.264 170.255 321.816 174.862C320.79 184.335 315.009 189.918 313.069 192.607C311.133 195.296 300.754 197.926 300.754 197.926C300.754 197.926 298.469 198.446 296.676 198.388C289.363 193.27 287.741 183.049 286.397 178.93C285.052 174.812 285.227 168.74 285.312 164.487C285.397 160.239 283.838 151.434 282.668 146.782C281.499 142.131 281.324 129.229 281.324 129.229C281.324 129.229 279.8 125.805 280.463 110.108C281.127 94.41 287.396 81.2934 287.396 81.2934L290.555 74.3564L290.255 74.4774C289.188 76.0952 286.773 80.4688 283.054 91.1207C277.878 105.954 279.527 124.367 279.872 126.366C280.217 128.36 280.638 129.883 280.652 133.854C280.665 137.824 280.997 142.525 281.463 145.908C281.924 149.292 284.555 156.52 284.443 167.1C284.326 177.68 285.944 181.122 287.333 185.37C288.722 189.618 289.072 198.2 289.027 198.827C288.982 199.455 284.537 199.248 284.537 199.248C284.537 199.248 284.447 199.172 284.362 199.127C284.362 199.213 284.358 199.28 284.353 199.329C284.344 199.437 284.376 199.517 284.429 199.584C284.582 199.688 284.842 199.755 285.169 199.786C285.451 199.782 285.697 199.737 285.697 199.737C285.697 199.737 285.706 199.755 285.724 199.809C286.706 199.809 287.929 199.625 288.539 199.432C289.601 199.096 289.426 199.087 289.426 199.087C289.426 199.087 289.426 190.806 288.341 186.683C291.94 196.918 296.811 199.369 296.811 199.369C296.811 199.369 298.142 199.132 299.993 198.724C308.78 197.451 320.866 192.19 321.561 191.845C322.255 191.5 325.491 190.514 327.808 195.372C333.88 210.174 346.714 277.8 349.058 292.283C351.401 306.767 357.644 354.555 357.644 354.555L363.55 363.75C363.644 363.768 363.738 363.79 363.828 363.808C369.438 365.023 368.107 362.132 368.049 360.685C368 359.251 366.44 339.242 364.939 318.66Z" fill="#060606"/>
<path d="M311.945 61.8849C311.945 61.8849 312.276 61.1052 312.796 61.8132C313.316 62.5213 313.836 63.3324 313.925 63.4041C314.01 63.4758 314.432 63.664 314.27 65.0397C314.114 66.411 313.679 69.3058 309.426 75.4631C305.178 81.6203 292.424 97.4928 281.324 129.238C281.324 129.238 278.81 115.274 281.324 101.481C283.838 87.6879 287.078 82.4 287.916 79.9443C287.916 79.9443 288.45 78.8688 288.544 78.331C288.638 77.7978 289.521 74.0291 291.017 70.9729L291.927 69.1087L311.945 61.8849Z" fill="#F8F0E5"/>
<path d="M341.982 190.926C341.982 190.926 342.56 195.349 342.676 196.362C342.721 196.783 342.685 197.066 342.676 197.142C342.667 197.218 342.6 197.447 342.699 197.545C343.026 197.187 343.873 196.34 345.163 196.277C346.454 196.21 350.792 195.497 355.82 199.073C355.82 199.073 355.829 199.051 356.048 199.378C356.407 199.248 356.147 198.782 356.147 198.782C356.147 198.782 355.909 193.938 355.941 193.526C355.972 193.113 356.039 192.472 355.484 192.042C354.933 191.608 351.146 187.942 342.3 189.748C341.722 190.048 341.933 190.537 341.982 190.926Z" fill="#F8F0E5"/>
<path d="M225.645 145.393C225.645 145.393 224.457 145.971 222.723 146.347C220.989 146.724 222.087 149.269 222.172 149.327C222.257 149.385 227.634 156.237 227.634 156.237L232.55 156.73C232.55 156.73 235.992 154.964 236.337 154.911C236.682 154.852 236.74 154.619 236.57 153.669C236.4 152.719 234.724 146.405 225.645 145.393Z" fill="#E4DAD0"/>
<path d="M314.27 65.0353C314.427 63.6641 314.011 63.4758 313.925 63.3997C313.84 63.328 313.32 62.5169 312.796 61.8088C312.276 61.1008 311.945 61.8805 311.945 61.8805L298.044 66.895L294.293 71.0581C294.293 71.0581 300.625 71.0312 310.251 64.9591C311.322 64.166 311.55 64.1794 311.998 64.3094C312.447 64.4393 313.011 65.1922 313.038 66.4917C313.065 67.7913 312.742 70.6413 310.771 72.5055C308.799 74.3697 303.744 79.3618 295.888 82.7989C288.382 86.0837 287.889 110.417 287.863 112.59C290.148 107.387 292.42 102.785 294.598 98.7207C294.616 97.7438 294.867 84.1791 296.117 83.3412C297.296 82.5525 303.48 80.0788 310.851 73.2853C313.782 68.5979 314.132 66.2363 314.27 65.0353Z" fill="#E4DAD0"/>
<path d="M291.931 69.1044L291.022 70.9686C289.525 74.0248 288.642 77.7935 288.548 78.3268C288.454 78.86 287.921 79.94 287.921 79.94C287.083 82.3957 283.843 87.6881 281.329 101.477C280.294 107.146 280.11 112.841 280.253 117.587C280.742 116.83 281.019 115.104 280.809 111.707C280.114 100.518 288.499 81.0334 288.642 80.5136C288.785 79.9938 289.045 80.3971 289.045 80.3971L291.013 83.2875L290 80.7153C290 80.7153 289.045 79.6442 288.871 78.3716C288.696 77.0989 290.461 73.021 291.098 71.6632C291.734 70.3054 292.254 70.5115 292.254 70.5115V68.9834L291.931 69.1044Z" fill="#E4DAD0"/>
<path d="M292.192 72.6802C292.192 72.6802 293.168 71.0311 293.841 72.6802C294.513 74.3293 296.901 78.5999 296.032 82.5031C295.795 83.1304 295.405 83.3903 295.405 83.3903C295.405 83.3903 294.948 83.6727 294.732 84.8647C294.517 86.0567 290.637 99.1822 291.372 105.039C283.153 123.202 282.458 126.845 281.329 129.229C279.357 118.734 280.401 110.332 280.401 110.332C280.401 110.332 282.835 102.167 283.413 100.549C283.991 98.9313 287.459 89.2159 290.439 83.722C290.439 83.722 290.82 83.359 290.547 82.7271C290.274 82.0953 289.615 81.2349 289.96 79.4424C290.305 77.6499 291 74.764 292.192 72.6802Z" fill="#502222"/>
<path d="M355.941 193.521C355.972 193.109 356.04 192.468 355.484 192.038C354.933 191.603 351.146 187.937 342.3 189.743C341.749 190.035 341.91 190.492 341.973 190.873C342.802 190.357 344.178 189.95 346.548 190.12C350.747 190.42 352.741 196.026 353.203 197.545C354.045 197.94 354.919 198.437 355.816 199.073C355.816 199.073 355.82 199.06 355.919 199.194L356.156 199.311C356.34 199.132 356.143 198.782 356.143 198.782C356.143 198.782 355.905 193.933 355.941 193.521Z" fill="#E4DAD0"/>
<path d="M312.088 46.7785C312.088 46.7785 309.861 50.0677 311.143 57.4169C311.143 57.4169 311.483 59.3438 312.415 61.5127C311.9 62.0326 309.883 64.0939 309.883 64.0939C309.883 64.0939 306.285 67.1098 302.512 68.4721C298.739 69.8389 295.051 71.6359 293.124 70.8785C292.169 70.5111 291.932 70.4035 291.887 70.0764C291.842 69.7493 291.954 65.8282 287.921 60.1684C287.424 60.3431 284.865 61.8802 282.476 61.5127C280.092 61.1453 280.155 60.4507 280.115 59.6934C280.07 58.936 280.312 55.7454 279.832 55.0553C279.357 54.3607 278.748 53.8185 278.358 53.3838C277.968 52.9491 277.731 52.5144 277.991 50.955C277.991 50.955 277.179 49.8257 277.251 48.9294C277.327 48.0287 277.838 46.2855 276.785 45.9046C275.732 45.5237 273.424 45.4565 272.393 44.3496C271.887 43.9149 271.829 43.785 271.815 43.4803C271.802 43.1755 271.842 42.593 272.492 40.3524C273.142 38.1073 274.63 32.5237 274.518 31.6991C274.41 30.8746 273.998 30.2158 273.684 29.7363C273.37 29.2568 272.685 28.737 273.348 25.4971C274.011 22.2572 276.816 15.1185 276.816 15.1185L300.522 10.001L318.447 19.4833L320.643 31.0493L312.088 46.7785Z" fill="#FAE0CF"/>
<path d="M306.132 29.4003C306.132 29.4003 309.906 23.0683 315.628 27.8812C315.628 27.8812 319.012 30.8298 315.023 35.2976C311.035 39.7654 310.47 39.4607 309.341 45.1832C308.821 47.9571 309.816 49.9109 310.34 49.9961C310.86 50.0812 313.029 49.8213 315.893 46.8323C318.756 43.8433 324.824 37.2962 325.128 25.8019C325.433 14.3075 317.017 7.15547 317.017 7.15547C317.017 7.15547 308.082 -0.650843 300.8 0.0437482C293.518 0.738339 292.084 1.17302 287.746 3.03721C285.707 3.96931 284.43 5.18372 282.956 4.879C281.481 4.57428 280.549 3.99171 279.832 3.09995C279.115 2.21266 278.595 1.64803 277.838 2.53532C277.081 3.4226 277.273 5.68114 277.273 5.68114C277.273 5.68114 277.341 5.87832 276.646 5.52878C275.951 5.17924 274.195 4.05446 273.07 2.79523C272.595 2.253 272.268 2.4905 272.16 2.64286C272.053 2.79523 268.714 11.9862 276.346 16.0193C277.323 16.5616 280.052 16.5392 282.351 16.1717C284.649 15.8042 289.812 14.545 291.654 15.4323C293.495 16.3196 294.082 17.8611 294.082 17.8611C294.082 17.8611 295.772 20.4423 294.105 22.7636C293.76 23.0683 293.433 23.1311 293.867 23.6733C294.302 24.2155 298.55 26.7743 299.178 29.9829C299.805 33.1914 299.805 33.7337 299.523 35.5754C299.455 36.8123 299.523 36.9198 299.998 37.1573C300.473 37.3948 303.686 37.8071 304.748 37.005C305.115 36.7002 305.052 36.4403 304.963 34.8136C304.873 33.1959 305.156 31.2018 306.132 29.4003Z" fill="#F7BF5E"/>
<path d="M303.529 48.7998C303.529 48.7998 298.093 55.9832 287.916 60.1687C289.561 62.4765 290.511 64.4886 291.067 66.0929C295.888 63.0636 301.701 57.6906 303.529 48.7998Z" fill="#F2BA9E"/>
<path d="M282.149 30.767C282.149 30.767 280.598 29.7139 276.924 29.7139C276.319 29.7139 276.458 30.2382 276.458 30.2382C276.458 30.2382 276.458 30.5787 276.977 30.5922C276.977 30.5922 277.246 33.0121 277.717 33.0972C277.717 33.0972 278.008 33.151 277.847 30.5832C278.152 30.5519 279.303 30.4488 282.001 30.9731C282.144 31.0313 282.35 30.9372 282.149 30.767Z" fill="#020001"/>
<path d="M376.851 183.008L318.335 226.144C318.335 226.144 317.672 226.592 318.756 228.112C319.841 229.631 340.481 262.227 341.525 264.02C342.57 265.812 343.345 264.513 343.345 264.513C343.345 264.513 393.508 228.519 395.125 227.475C395.905 227.085 396.196 226.781 395.865 225.611C395.533 224.441 391.657 212.674 388.708 206.167C385.76 199.66 378.648 184.052 378.648 184.052C378.648 184.052 377.205 182.744 376.851 183.008Z" fill="#F8F0E5"/>
<path d="M363.644 249.949C377.76 239.835 394.206 228.062 395.121 227.471C395.9 227.081 396.192 226.776 395.86 225.607C395.528 224.437 391.652 212.669 388.704 206.163C385.755 199.656 378.643 184.048 378.643 184.048C378.643 184.048 377.209 182.744 376.851 183.008L361.502 194.323C362.663 207.157 364.881 235.205 363.644 249.949Z" fill="#E4DAD0"/>
<path d="M223.458 146.168C223.458 146.168 226.51 146.23 228.303 147.938C230.095 149.645 232.349 151.061 232.062 151.814C231.771 152.567 233.192 154.212 230.126 154.503C227.061 154.794 220.949 156.748 219.654 157.496C218.359 158.245 217.032 155.251 217.032 155.251L212.089 149.789C212.089 149.789 212.206 147.042 212.291 147.042C212.376 147.042 214.429 145.885 214.057 145.393C213.68 144.9 208.854 142.847 208.854 142.847C208.854 142.847 204.14 137.178 206.828 135.968C206.828 135.968 207.062 135.794 207.68 136.663C208.298 137.532 211.628 139.903 212.116 140.163C212.609 140.423 214.778 140.741 215.441 141.001C216.105 141.261 220.326 142.592 222.266 145.397C222.262 145.393 222.378 146.123 223.458 146.168Z" fill="#F2BA9E"/>
<path d="M186.699 120.603L224.386 151.913C224.386 151.913 228.594 147.75 233.971 151.913C239.349 156.076 236.369 161.449 234.926 163.273C233.452 165.137 228.159 168.135 223.042 163.488C217.924 158.845 222.132 154.207 222.132 154.207L195.02 132.294L187.353 139.594L175.993 130.573V127.625L183.28 122.072C183.275 122.077 183.652 118.738 186.699 120.603Z" fill="#FDBD00"/>
<path d="M215.204 147.055C215.204 147.055 217.772 145.661 218.13 145.392C218.489 145.124 219.031 145.549 219.017 146.123C219.008 146.697 218.847 149.269 217.588 150.205C217.588 150.205 217.386 150.537 217.444 150.855C217.503 151.173 217.79 152.083 217.601 152.576C217.413 153.069 217.686 153.499 217.686 153.499C217.686 153.499 222.688 155.928 219.882 157.375C218.623 157.98 217.964 158.518 217.964 158.518C217.964 158.518 217.395 159.168 215.701 158.518C215.325 158.361 214.46 158.401 214.46 158.401C214.46 158.401 213.389 158.388 212.609 157.797C212.018 157.537 211.381 157.537 211.381 157.537C211.381 157.537 210.369 157.362 209.822 156.914C209.271 156.466 208.693 156.363 208.594 156.407C208.491 156.452 207.451 156.38 206.86 155.946C206.268 155.511 205.341 155.556 205.341 155.556C205.341 155.556 203.951 155.556 203.127 153.996C202.302 152.437 201.984 151.913 201.653 150.703C201.321 149.488 200.743 147.884 200.048 146.903C199.354 145.921 198.977 145.083 198.489 143.233C197.996 141.382 197.534 140.66 197.073 139.966C196.611 139.271 196.203 138.317 195.858 136.726C195.513 135.135 194.586 132.984 194.599 132.796C194.613 132.608 196.047 130.815 197.982 132.796C199.918 134.776 200.093 136.192 200.25 136.627C200.407 137.062 201.061 137.958 201.061 137.958C201.061 137.958 202.392 139.764 202.939 141.834C203.49 143.9 203.79 143.972 203.79 143.972C203.79 143.972 203.745 143.699 203.992 143.147C204.238 142.596 204.525 142.238 204.861 141.906C205.197 141.574 207.478 139.217 207.868 138.366C208.258 137.514 208.679 137.022 209.069 136.547C209.459 136.071 210.906 133.786 211.005 133.513C211.108 133.239 211.758 132.818 212.421 133.584C213.084 134.351 214.128 136.461 212.089 139.598C211.829 139.93 211.816 139.755 211.686 140.306C211.556 140.857 211.381 142.605 209.374 145.092C209.217 145.294 208.997 145.599 209.199 145.527C209.401 145.455 212.408 143.878 212.811 143.501C213.214 143.125 213.649 142.937 213.998 142.735C214.343 142.533 217.05 140.929 217.35 140.696C217.655 140.463 218.623 140.221 218.766 141.377C218.91 142.533 219.143 144.671 216.423 145.962C216.001 146.293 215.845 146.266 215.612 146.513C215.397 146.737 215.204 147.055 215.204 147.055Z" fill="#FAE0CF"/>
<path d="M342.851 196.958C342.851 196.958 342.78 197.146 341.906 199.634C341.032 202.121 340.732 202.546 340.346 203.864C339.961 205.181 339.988 205.706 339.818 207.323C339.647 208.941 339.302 210.164 339.249 210.89C340.145 210.344 342.359 208.789 342.359 208.789C342.359 208.789 342.771 208.56 342.789 209.134C342.807 209.707 343.152 215.349 342.977 216.573C342.802 217.796 342.672 218.311 343.259 219.615C343.846 220.915 345.231 222.564 346.1 226.27C346.1 226.27 346.351 228.233 347.185 228.287C348.018 228.34 348.668 228.34 348.834 228.515C348.995 228.69 349.331 229.416 350.34 229.08C351.348 228.744 351.617 228.269 351.814 227.812C352.011 227.354 352.531 225.056 353.342 224.451C354.153 223.846 354.677 223.474 354.861 222.533C355.045 221.592 355.578 220.265 356.228 219.239C356.51 218.97 356.497 218.894 356.488 218.446C356.479 218.002 357.039 214.251 357.214 213.566C357.389 212.885 357.344 212.589 357.214 211.298C357.084 210.008 357.236 208.542 357.138 207.341C357.039 206.136 356.147 199.669 355.981 199.333C355.654 198.675 354.247 197.124 349.838 196.438C347.969 196.143 345.509 195.627 342.851 196.958Z" fill="#F2BA9E"/>
<path d="M209.185 146.056C209.217 145.881 209.046 145.653 209.154 145.518C209.055 145.509 209.244 145.254 209.382 145.075C211.39 142.588 211.565 140.84 211.695 140.289C211.825 139.738 211.838 139.912 212.098 139.581C214.137 136.444 213.097 134.333 212.43 133.567C211.766 132.801 211.112 133.222 211.014 133.495C210.911 133.768 209.468 136.054 209.078 136.529C208.688 137.004 208.267 137.497 207.877 138.348C207.487 139.2 205.201 141.557 204.87 141.888C204.538 142.22 204.247 142.583 204.001 143.13C203.754 143.681 203.799 143.954 203.799 143.954C203.799 143.954 203.494 143.883 202.947 141.817C202.396 139.751 201.07 137.941 201.07 137.941C201.07 137.941 200.42 137.044 200.259 136.61C200.102 136.175 199.927 134.759 197.991 132.778C196.055 130.797 194.621 132.59 194.608 132.778C194.603 132.814 194.635 132.913 194.684 133.056C195.271 132.348 196.226 131.801 197.458 133.208C199.582 135.637 199.757 136.417 199.757 136.417C199.757 136.417 199.932 137.371 200.537 137.976C201.142 138.581 202.356 141.1 202.271 141.62C202.186 142.139 202.226 142.834 202.575 143.179C202.921 143.524 203.225 144.048 203.315 145.043C203.4 146.043 205.439 148.122 205.569 150.116C205.569 150.116 206.205 149.291 203.691 144.824C203.965 144.071 204.211 143.336 204.242 143.206C204.269 143.076 205.139 142.05 205.399 141.79C205.659 141.53 206.532 140.432 206.532 140.432C206.532 140.432 207.742 139.074 208.177 138.25C208.612 137.425 208.916 137.08 208.916 137.08C208.916 137.08 210.893 134.23 211.184 133.683C211.475 133.137 211.749 133.697 211.749 133.697C211.749 133.697 214.164 136.359 210.852 139.639C210.592 140.029 210.678 140.302 210.678 140.302C210.678 140.302 210.834 142.964 208.392 144.667C208.235 144.712 207.827 144.967 208.132 145.317C208.437 145.671 209.302 147.58 209.409 150.461C209.624 150.591 209.495 149.637 209.495 149.637C209.495 149.637 209.642 147.696 209.185 146.056Z" fill="#F2BA9E"/>
<path d="M217.696 153.504C217.696 153.504 217.422 153.069 217.611 152.581C217.799 152.088 217.508 151.178 217.454 150.86C217.4 150.542 217.597 150.21 217.597 150.21C218.856 149.269 219.013 146.701 219.027 146.128C219.036 145.554 218.493 145.128 218.139 145.397C217.781 145.666 215.213 147.06 215.213 147.06C215.213 147.06 215.406 146.742 215.634 146.495C215.863 146.249 216.024 146.28 216.446 145.944C219.161 144.658 218.933 142.516 218.789 141.36C218.646 140.204 217.678 140.45 217.373 140.679C217.068 140.912 214.366 142.516 214.021 142.718C213.676 142.919 213.241 143.107 212.834 143.484C212.484 143.811 210.167 145.043 209.432 145.406C209.975 145.339 212.296 144.129 212.296 144.129L214.94 142.44C214.94 142.44 217.521 140.75 217.673 140.813C217.826 140.88 218.39 141.44 217.826 142.7C217.261 143.959 217.154 144.479 216.459 144.824C215.764 145.169 215.33 145.321 215.07 145.693C214.81 146.061 213.963 147.167 212.596 147.58C212.054 147.71 211.902 147.97 211.902 147.97L211.704 148.445C211.704 148.445 211.377 148.812 211.53 149.072C211.682 149.332 212.269 150.829 212.005 152.258C212.135 152.845 212.112 152.626 212.242 152.473C212.372 152.321 212.914 150.824 212.869 148.915C213.344 148.848 214.389 147.898 214.711 147.745C215.038 147.593 216.383 146.791 216.728 146.531C217.073 146.271 217.508 146.164 217.575 146.164C217.575 146.164 218.139 146.025 218.314 145.904C218.489 145.783 218.565 145.971 218.453 146.455C218.341 146.939 217.965 149.166 216.62 149.435C216.087 149.632 215.993 150.031 215.993 150.031C215.993 150.031 216.047 151.322 215.778 151.971C215.509 152.621 215.746 153.141 215.746 153.141C215.746 153.141 217.696 154.669 215.392 158.433C215.513 158.451 215.63 158.478 215.715 158.514C217.404 159.164 217.978 158.514 217.978 158.514C217.978 158.514 218.637 157.981 219.896 157.371C222.697 155.933 217.696 153.504 217.696 153.504Z" fill="#F2BA9E"/>
<path d="M69.5233 176.936C69.5233 176.936 63.1062 192.548 58.5936 230.536C58.5936 230.536 57.899 248.922 53.476 255.689C49.053 262.456 46.6825 266.153 43.7921 269.16C40.9017 272.166 24.5945 286.506 0.0776289 328.137C0.0776289 328.137 -0.527339 328.975 0.628819 330.073C1.78498 331.171 5.51336 335.509 9.8512 336.75C9.8512 336.75 10.3441 337.301 10.9222 336.405C11.5003 335.509 21.8206 320.967 26.5617 316.109C31.3029 311.256 40.4401 302.002 43.447 297.669C46.4539 293.331 55.9945 277.893 55.9945 277.893C55.9945 277.893 57.9886 274.685 59.6377 272.601C61.2868 270.517 66.4044 262.715 66.4044 262.715C66.4044 262.715 80.9773 241.725 83.0566 237.302C83.0566 237.302 86.3503 254.389 86.6999 257.423C87.0449 260.457 87.0449 266.269 84.4458 272.166C81.8422 278.064 72.7363 294.806 72.4764 310.243C72.2613 322.93 72.0507 330.288 71.979 332.506C71.97 332.838 71.9163 333.16 71.8804 333.492C71.8491 333.765 71.9476 334.178 72.7677 334.326C74.0404 334.559 79.9377 335.54 83.6974 335.02C85.1449 334.832 84.8402 334.254 84.8402 334.254L85.3152 327.922C85.3152 327.922 88.6089 308.509 98.499 283.616C102.142 275.55 103.007 269.478 103.007 269.478C103.007 269.478 105.871 255.339 109.254 242.156C112.637 228.972 116.885 197.052 117.06 184.997C117.226 172.943 69.5233 176.936 69.5233 176.936Z" fill="#23261B"/>
<path d="M77.7917 46.2004L89.2413 89.1037H97.8005C97.8005 89.1037 104.625 86.6749 104.737 86.3299C104.849 85.9848 113.525 69.4446 113.525 69.4446C113.525 69.4446 119.077 55.3376 119.077 54.8716C119.077 54.4055 115.837 40.7647 115.837 40.7647L105.544 37.1797L77.7917 46.2004Z" fill="#A34A22"/>
<path d="M29.6272 192.069C29.6272 192.069 28.238 195.582 29.1074 199.485C29.7123 200.874 29.9767 201.349 29.9767 201.349C29.9767 201.349 30.2142 201.762 30.2053 202.586C30.1963 203.411 29.784 206.987 30.8685 209.286C31.9529 211.585 32.6475 212.974 32.6475 212.974C32.6475 212.974 32.9926 213.646 32.1725 213.691C31.348 213.736 28.5741 213.736 26.9026 211.414C26.208 210.415 25.5806 208.833 25.5806 208.833C25.5806 208.833 25.0608 206.037 23.3669 206.077C21.6775 206.122 20.593 206.512 20.593 206.512C20.593 206.512 19.0515 207.054 17.8595 208.291C16.6674 209.528 14.5657 210.742 14.5657 210.742C14.5657 210.742 15.583 212.346 15.1931 215.013C15.1931 215.013 15.1931 216.012 14.5657 216.478C14.5657 216.478 14.4672 216.608 14.2521 216.478C14.037 216.348 13.4947 215.958 13.4947 215.958C13.4947 215.958 13.665 218.629 11.2496 221.085C11.2496 221.085 10.1652 222.192 9.31823 221.703C9.1569 221.551 9.16587 221.237 9.16587 221.237C9.16587 221.237 9.26445 219.548 9.21068 218.723C9.16586 218.898 8.75359 220.135 6.82666 222.129C5.56744 223.276 4.38887 224.078 3.60466 223.908C2.82492 223.733 3.39852 222.586 3.4523 222.555C3.50607 222.523 4.80114 219.965 5.8139 215.613C5.8139 215.613 3.89146 216.698 1.54777 216.406C-0.795912 216.115 0.781479 215.12 0.781479 215.12C0.781479 215.12 3.51503 213.256 4.07519 212.821C4.63982 212.387 5.12827 212.082 5.12827 212.082C5.12827 212.082 7.80357 210.433 7.90216 210.115C8.00523 209.797 8.68189 207.108 9.00006 205.271C9.13001 204.679 9.0852 204.549 9.51988 204.114C9.95456 203.68 10.9225 202.51 11.2093 201.959C11.5006 201.408 12.1324 200.919 12.1324 200.919C12.1324 200.919 18.1149 197.549 21.673 189.976C25.2311 182.398 31.4779 186.938 29.6272 192.069Z" fill="#A34A22"/>
<path d="M148.322 165.661C148.322 165.661 147.367 168.547 149.621 169.13C151.875 169.712 154.349 170.147 157.665 173.055C160.981 175.959 161.936 175.981 161.936 175.981C161.936 175.981 163.172 176.394 164.32 175.807C165.467 175.22 165.664 175.242 166.834 175.179C168.003 175.112 168.783 175.112 169.89 174.44C170.217 174.395 171.189 174.44 171.189 174.44C171.189 174.44 172.059 174.287 172.708 173.812C173.358 173.337 174.228 173.88 174.228 173.88C174.228 173.88 175.052 174.01 175.877 173.293C176.701 172.576 179.475 169.694 181.796 168.457C182.773 168 183.898 167.028 183.898 167.028C183.898 167.028 186.479 165.379 188.106 164.814C189.733 164.249 192.484 164.075 192.614 163.815C192.744 163.555 192.766 162.708 191.355 162.21C189.943 161.713 188.774 161.323 186.564 161.606C186.564 161.606 187.626 160.696 190.4 160.194C193.174 159.692 190.293 158.092 190.293 158.092C190.293 158.092 188.451 156.748 185.587 158.092C184.44 158.679 183.853 159.239 183.853 159.239C183.853 159.239 183.226 159.652 182.746 159.782C182.271 159.912 180.837 160.539 180.295 160.951C181.294 160.127 183.419 158.307 184.481 157.788C185.543 157.268 183.786 156.618 183.786 156.618C183.786 156.618 181.25 155.578 178.386 157.985C177.929 158.397 177.324 159.123 177.324 159.123C177.324 159.123 175.774 160.207 175.429 160.629C176.034 159.446 175.72 157.451 174.595 157.214C174.075 157.115 173.77 157.604 173.77 157.604C173.77 157.604 171.785 160.391 170.495 161.332C170.656 160.539 171.167 159.325 171.525 158.957C171.884 158.59 171.87 158.392 171.494 158.231C171.113 158.07 169.097 157.613 167.752 159.782C166.408 161.951 166.713 162.632 166.713 162.632C166.713 162.632 165.574 163.219 165.193 163.631C164.49 163.523 163.75 162.914 157.638 163.707C156.885 163.752 155.599 163.707 154.183 162.914C152.767 162.121 149.536 162.349 148.322 165.661Z" fill="#A34A22"/>
<path d="M12.8853 202.725C13.3783 202.264 15.1125 200.615 15.1125 200.615L21.4535 194.453C21.4535 194.453 23.9629 192.835 26.8802 192.719C28.3366 192.66 28.8609 193.521 29.0267 194.399C29.2642 192.988 29.6272 192.069 29.6272 192.069C29.7661 191.688 29.8513 191.312 29.9051 190.94L26.1588 187.122L23.0622 187.74C22.5738 188.323 22.1032 189.053 21.6775 189.967C18.1194 197.54 12.137 200.91 12.137 200.91C12.137 200.91 11.5006 201.403 11.2138 201.95C10.9226 202.501 9.95461 203.671 9.52441 204.105C9.08973 204.54 9.13455 204.67 9.00459 205.262C8.68643 207.099 8.00527 209.788 7.90668 210.106C7.80362 210.424 5.13281 212.073 5.13281 212.073C5.13281 212.073 4.63987 212.378 4.07972 212.812C3.51508 213.247 0.786006 215.111 0.786006 215.111C0.786006 215.111 0.620206 215.214 0.476807 215.367C1.31032 215.873 3.37616 214.394 4.12453 213.592C4.97596 212.683 6.39203 212.145 6.39203 212.145C6.39203 212.145 8.08146 211.074 9.00907 210.249C9.93221 209.425 10.1652 209.25 11.1332 208.515C13.5306 207.068 14.6733 206.073 14.6733 206.073C14.6733 206.073 14.7585 205.728 14.4717 206.028C14.1804 206.333 11.9846 207.502 11.4065 207.735C10.8285 207.968 10.9853 207.027 10.9853 207.027C10.806 205.006 12.3969 203.187 12.8853 202.725Z" fill="#8A2D04"/>
<path d="M32.652 212.996C31.1687 213.418 28.8922 212.365 28.8922 212.365C28.8922 212.365 27.4627 211.715 26.0287 208.246C25.491 206.938 24.7785 206.414 24.1018 206.266C25.2087 206.884 25.5761 208.829 25.5761 208.829C25.5761 208.829 26.2035 210.411 26.8981 211.41C28.5696 213.731 31.3435 213.731 32.168 213.687C32.8985 213.651 32.7013 213.113 32.652 212.996Z" fill="#8A2D04"/>
<path d="M13.0507 211.616C11.9663 212.038 11.4912 212.427 11.2089 212.669C10.9266 212.907 9.68082 213.722 9.12515 213.947C8.57396 214.175 5.7956 215.461 5.62979 215.69C5.74182 215.636 5.80456 215.6 5.80456 215.6C4.7918 219.951 3.49672 222.51 3.44295 222.542C3.38917 222.573 2.81557 223.725 3.59531 223.895C4.37504 224.065 5.55809 223.268 6.81732 222.116C8.74873 220.122 9.161 218.885 9.20133 218.71C9.2551 219.535 9.15652 221.224 9.15652 221.224C9.15652 221.224 9.14755 221.538 9.30888 221.69C10.1558 222.179 11.2403 221.072 11.2403 221.072C13.6557 218.616 13.4854 215.945 13.4854 215.945C13.4854 215.945 14.0276 216.335 14.2427 216.465C14.4578 216.595 14.5564 216.465 14.5564 216.465C15.1838 215.999 15.1838 215 15.1838 215C15.5736 212.333 14.5564 210.729 14.5564 210.729C14.5564 210.729 14.1352 211.195 13.0507 211.616Z" fill="#8A2D04"/>
<path d="M191.363 162.211C190.068 161.754 188.966 161.395 187.088 161.552C186.461 161.713 185.91 161.852 185.69 161.911C185.027 162.085 184.288 162.892 183.58 163.008C182.871 163.125 182.526 163.645 181.411 164.438C180.299 165.231 179.286 166.101 178.475 167.024C177.664 167.947 176.526 168.686 175.988 169.09C175.455 169.493 176.177 169.323 176.177 169.323C176.177 169.323 178.561 167.66 179.228 166.925C179.891 166.186 180.774 165.406 180.774 165.406C180.774 165.406 181.774 164.913 182.222 164.393C182.67 163.873 183.521 163.582 183.956 163.38C184.391 163.179 184.709 163.089 185.735 162.511C186.761 161.933 188.957 162.309 188.957 162.309C191.623 162.43 192.13 163.398 192.192 163.967C192.434 163.914 192.591 163.86 192.623 163.806C192.748 163.555 192.771 162.713 191.363 162.211Z" fill="#8A2D04"/>
<path d="M182.137 168.283C181.998 168.319 181.837 168.363 181.639 168.422C179.834 168.941 175.747 172.567 175.066 172.742C174.384 172.916 174.555 172.71 174.555 172.71C174.555 172.71 174.77 172.213 174.272 172.526C173.775 172.84 171.736 173.19 171.14 173.19C170.544 173.19 170.943 172.715 171.149 172.356C171.355 171.998 171.256 171.845 171.256 171.845C171.256 171.845 171.212 171.662 170.867 172.074C169.63 173.884 168.406 173.839 167.309 173.969C166.211 174.099 166.757 172.939 166.896 172.701C167.035 172.464 166.972 172.267 166.972 172.267C166.972 172.267 166.811 172.128 166.385 172.733C165.637 174.144 164.391 174.704 164.391 174.704C164.391 174.704 163.101 175.247 162.679 174.292C162.258 173.338 163.862 171.688 163.862 171.688C163.862 171.688 164.414 171.406 164.772 170.246C165.131 169.085 166.125 168.09 166.125 168.09C166.125 168.09 166.713 167.593 166.677 166.616C166.578 164.644 167.403 163.788 167.806 163.17C168.209 162.551 168.38 161.87 168.38 161.87C168.38 161.87 168.814 160.373 169.603 159.45C170.235 158.715 171.234 158.8 171.61 158.868C171.875 158.563 171.835 158.384 171.49 158.236C171.481 158.231 171.467 158.227 171.454 158.222C171.27 158.178 171.041 158.133 170.755 158.088C169.948 158.039 168.684 158.272 167.748 159.786C167.591 160.042 167.456 160.27 167.344 160.485C167.232 160.745 167.152 160.978 167.111 161.153C166.883 162.076 166.811 162.789 166.506 163.309C165.413 164.859 165.323 167.136 165.323 167.136C165.323 167.136 165.391 167.611 165.054 167.893C164.718 168.175 163.526 169.681 163.526 169.681C162.863 169.452 161.142 169.658 160.47 169.887C159.798 170.116 159.256 169.963 159.256 169.963C156.751 169 156.307 166.441 156.307 166.441C156.307 166.441 156.186 165.563 157.92 164.554C159.655 163.546 164.36 164.057 164.36 164.057C164.36 164.057 164.987 164.424 165.498 163.882C166.009 163.34 166.574 163.08 166.574 163.08C166.847 162.551 166.838 162.072 166.793 161.785C166.618 162.403 166.717 162.636 166.717 162.636C166.717 162.636 165.579 163.223 165.198 163.636C164.494 163.528 163.755 162.919 157.642 163.712C156.89 163.757 155.604 163.712 154.187 162.919C152.771 162.126 149.531 162.354 148.317 165.666C148.317 165.666 147.363 168.552 149.617 169.134C151.871 169.721 154.344 170.151 157.66 173.06C160.977 175.964 161.931 175.986 161.931 175.986C161.931 175.986 163.168 176.398 164.315 175.811C165.462 175.224 165.659 175.247 166.829 175.184C167.999 175.117 168.778 175.117 169.885 174.444C170.212 174.4 171.185 174.444 171.185 174.444C171.185 174.444 172.054 174.292 172.704 173.817C173.354 173.342 174.223 173.884 174.223 173.884C174.223 173.884 175.048 174.014 175.872 173.297C176.697 172.58 179.471 169.699 181.792 168.462C181.913 168.404 182.025 168.345 182.137 168.283Z" fill="#8A2D04"/>
<path d="M176.974 160.171C177.624 159.768 178.068 159.065 178.068 159.065C178.068 159.065 179.977 157.003 182.07 156.788C182.715 156.721 183.235 156.645 183.647 156.564C183.078 156.389 180.86 155.905 178.395 157.98C177.938 158.392 177.333 159.118 177.333 159.118C177.333 159.118 175.782 160.203 175.437 160.624C176.042 159.441 175.729 157.447 174.604 157.209C174.084 157.111 173.779 157.599 173.779 157.599C173.779 157.599 171.794 160.387 170.504 161.328C170.517 161.26 170.539 161.184 170.557 161.108C170.409 161.417 170.257 161.847 170.158 162.425C169.899 163.9 169.571 164.724 169.571 164.724C169.571 164.724 169.226 165.549 169.052 166.481C168.877 167.413 168.769 168.282 168.205 169.04C167.64 169.797 166.775 171.124 166.645 171.424C166.515 171.729 166.6 171.899 166.6 171.899C166.6 171.899 166.645 171.841 166.824 171.567C167.004 171.294 168.021 168.964 171.131 165.849C173.233 164.07 173.735 163.788 173.775 163.756C173.815 163.725 174.142 163.344 174.783 162.488C175.424 161.637 176.325 160.575 176.974 160.171Z" fill="#8A2D04"/>
<path d="M184.857 159.481C184.92 159.45 188.926 156.524 191.48 159.768C192.107 159.1 190.302 158.097 190.302 158.097C190.302 158.097 188.46 156.752 185.596 158.097C184.449 158.684 183.862 159.244 183.862 159.244C183.862 159.244 183.235 159.656 182.755 159.786C182.334 159.902 181.178 160.4 180.537 160.799C180.053 161.171 179.484 161.65 179.004 162.17C179.004 162.17 178.709 162.475 178.229 162.869C177.75 163.263 176.204 165.038 176.033 165.298C175.859 165.558 175.195 166.136 175.195 166.136C175.195 166.136 172.771 168.291 172.054 169.725C172.054 169.725 171.718 170.451 172.251 169.887C172.784 169.322 174.353 167.435 175.025 166.817C175.697 166.199 176.499 165.244 176.499 165.244C176.499 165.244 178.113 163.51 179.013 162.9C179.914 162.295 180.228 161.915 180.228 161.915C180.228 161.915 181.595 160.678 183.167 160.256C184.74 159.835 184.794 159.513 184.857 159.481Z" fill="#8A2D04"/>
<path d="M113.583 42.8887C113.583 42.8887 112.736 41.6698 110.155 41.8849C108.447 42.0238 106.857 42.7946 105.602 43.9597C102.846 46.514 100.354 50.4844 98.6649 51.9991C96.5811 53.8633 92.4987 57.1749 91.2932 60.6702C90.0878 64.1656 89.689 71.3804 89.689 71.3804C89.689 71.3804 94.4794 76.2829 98.8172 77.4525C103.155 78.6221 100.229 82.0502 100.229 82.0502C100.229 82.0502 99.0995 82.57 98.9696 82.57C98.8396 82.57 94.8065 82.6552 88.6045 74.5486C82.4025 66.4421 90.9885 84.8689 90.9885 84.8689L92.548 86.8182C92.548 86.8182 97.8538 87.6876 98.4318 85.9489C99.0099 84.2102 103.868 86.034 103.868 86.034L98.75 91.8014L84.4818 91.2815L75.5059 69.077L82.0529 48.9115L101.614 39.6309H115.057L113.583 42.8887Z" fill="#8A2D04"/>
<path d="M111.2 51.1699C111.2 51.1699 108.829 49.597 105.011 51.2999C104.079 51.7794 103.828 52.6308 104.899 51.9945C105.97 51.3581 108.744 51.1699 110.581 51.5015C111.056 51.5777 111.648 51.6046 111.2 51.1699Z" fill="#23261B"/>
<path d="M108.394 54.5804C108.864 54.5804 109.245 53.7297 109.245 52.6803C109.245 51.6309 108.864 50.7803 108.394 50.7803C107.924 50.7803 107.543 51.6309 107.543 52.6803C107.543 53.7297 107.924 54.5804 108.394 54.5804Z" fill="#23261B"/>
<path d="M70.2766 120.096C70.2766 120.096 67.7313 124.604 65.7685 129C63.8057 133.396 58.8315 143.34 56.0532 147.041C53.2793 150.743 51.8901 154.906 51.8901 154.906C51.8901 154.906 50.2724 159.186 46.2213 164.738C42.1703 170.29 40.5526 174.467 40.5526 174.467C40.5526 174.467 39.0334 177.805 38.3837 178.889C37.7339 179.974 37.2141 181.318 37.2141 181.318C37.2141 181.318 34.5701 187.216 29.7125 185.611C24.8548 184.007 23.4656 183.832 23.5956 182.273C23.7255 180.713 23.9855 179.369 24.5501 177.895C25.1147 176.42 26.5442 172.042 26.5442 172.042C26.5442 172.042 29.0179 165.71 30.7073 162.242C32.3967 158.773 36.1296 151.747 36.1296 151.747C36.1296 151.747 39.4233 145.719 41.3323 142.901C43.2413 140.082 46.4947 135.789 50.3082 127.638C54.1218 119.486 58.1145 109.421 58.1145 109.421C58.1145 109.421 63.4069 91.8998 70.6485 89.8205C73.0325 89.1259 76.501 88.9108 76.501 88.9108L88.6855 87.2617L96.577 88.0863L100.35 89.6054C100.35 89.6054 100.74 90.3 103.084 90.2552C105.427 90.2104 106.902 91.2948 106.902 91.2948C106.902 91.2948 109.505 93.289 110.675 96.5872C111.845 99.8809 113.883 106.213 119.521 111.375C125.158 116.538 122.124 125.294 122.124 125.294L120.475 129.412C120.475 129.412 119.391 132.101 119.131 134.445C119.131 134.445 124.638 139.042 127.412 140.862C130.186 142.681 132.355 144.46 132.355 144.46C132.355 144.46 134.045 146.324 137.083 147.754C140.121 149.183 144.369 152.352 144.369 152.352C144.369 152.352 150.007 156.08 149.142 159.548C148.272 163.017 143.289 166.226 143.289 166.226C143.289 166.226 141.035 167.875 137.867 165.88C134.703 163.886 133.314 162.497 133.314 162.497C133.314 162.497 130.8 160.763 129.756 160.024C128.716 159.284 126.198 156.9 126.198 156.9C126.198 156.9 123.204 154.341 121.82 153.432C120.435 152.522 117.701 150.743 117.701 150.743C117.701 150.743 117.63 155.022 117.975 158.952C118.32 162.883 118.755 169.681 117.858 176.877C116.962 184.074 117.047 186.593 117.047 186.593C117.047 186.593 113.059 188.21 108.071 188.04L108.116 188.255C108.116 188.255 106.122 189.752 102.022 188.69L101.937 188.493C101.937 188.493 97.043 188.703 91.549 186.391C86.055 184.079 77.832 179.772 68.6096 179.105C68.6096 179.105 72.9205 168.09 79.7544 158.316C87.0409 144.021 80.1308 134.409 78.8313 132.352C77.5317 130.299 70.6217 123.448 70.2766 120.096Z" fill="#F2DABE"/>
<path d="M98.4367 93.6118L99.1358 89.1037L96.586 88.0775L88.6945 87.2529L76.5101 88.902C76.5101 88.902 73.0416 89.1171 70.6576 89.8117C63.4159 91.8955 58.1236 109.413 58.1236 109.413C58.1236 109.413 54.1353 119.473 50.3172 127.629C46.4992 135.78 43.2503 140.073 41.3413 142.892C39.4323 145.711 36.1386 151.738 36.1386 151.738C36.1386 151.738 32.4102 158.764 30.7163 162.233C29.0269 165.701 26.5533 172.033 26.5533 172.033C26.5533 172.033 25.1238 176.412 24.5591 177.886C23.9945 179.36 23.7346 180.705 23.6046 182.264C23.515 183.362 24.1827 183.774 26.2754 184.482L25.9438 182.869C25.9438 182.869 25.1148 183.08 29.1076 170.725C33.1048 158.37 46.8891 137.465 50.2724 131.913C53.6558 126.361 58.9436 112.487 61.8968 104.506C64.8499 96.5246 69.1384 93.0561 72.7369 92.0165C76.3353 90.9768 76.3353 93.5356 82.1026 95.225C86.9065 96.6322 89.0889 93.3205 89.6894 92.1733C91.2757 93.0964 93.8838 96.202 94.2468 96.6814C94.6366 97.2013 94.6949 96.9862 94.8966 96.8159C95.0982 96.6456 95.7794 95.5566 96.0841 94.9472C96.3888 94.3378 96.5905 94.7456 96.5905 94.7456C96.5905 94.7456 96.9803 96.3498 97.7197 97.9989C98.4591 99.648 103.702 109.404 105.006 111.703C106.306 114.001 106.87 117.165 107.045 118.769C107.22 120.374 107.39 123.237 105.831 128.96C104.271 134.682 102.403 146.392 101.323 153.938C100.238 161.485 102.192 174.494 102.582 180.391C102.891 185.033 101.963 187.597 101.556 188.484C101.811 188.484 101.954 188.479 101.954 188.479L102.04 188.677C102.873 188.892 103.613 188.999 104.271 189.04L105.557 178.141L105.087 142.762L109.828 116.972L98.4367 93.6118Z" fill="#D4AC7B"/>
<path d="M84.2261 126.213C83.7152 125.774 83.2312 125.303 82.8279 124.761C81.7883 123.372 80.2691 120.764 79.933 117.085C79.4132 111.362 75.6848 106.657 75.6848 106.657C75.6848 106.657 75.8013 110.434 70.2805 120.091L70.3387 120.446C71.0916 123.905 77.5804 130.367 78.8396 132.352C80.1392 134.405 87.0492 144.017 79.7628 158.316C72.9289 168.09 68.6179 179.105 68.6179 179.105C71.3828 179.306 74.0581 179.835 76.599 180.539C78.2212 177.837 83.406 169.896 85.4001 163.147C87.3943 156.398 90.9524 141.897 88.5236 134.44C86.6952 128.839 84.9699 126.858 84.2261 126.213Z" fill="#D4AC7B"/>
<path d="M101.071 110.085C101.071 110.085 101.851 113.88 100.682 113.62C99.512 113.36 94.3048 111.711 86.5433 111.429C86.5433 111.429 85.7905 111.626 86.2655 109.87C86.7405 108.113 87.1662 107.297 87.1662 107.297L101.071 110.085Z" fill="#D4AC7B"/>
<path d="M111.114 109.26C111.114 109.26 110.616 109.673 111.244 111.299C111.871 112.926 111.831 113.289 112.09 113.325C112.35 113.361 113.977 113.172 115.474 113.007C116.971 112.841 118.768 112.644 119.44 112.666C120.112 112.688 119.852 111.711 119.852 111.711L116.469 108.176L111.114 109.26Z" fill="#D4AC7B"/>
<path d="M31.4463 186.633C31.4463 186.633 30.2902 190.478 30.0168 191.706C29.7435 192.934 29.4163 192.696 29.4163 192.696C29.4163 192.696 29.5104 191.388 26.1137 190.115C22.7169 188.842 21.5294 190.281 21.5294 190.281C21.5294 190.281 21.2739 190.218 21.7041 189.407C22.1388 188.596 23.8731 184.115 23.9896 183.698C24.1061 183.277 23.9313 183.191 24.7424 183.106C25.5535 183.021 29.4253 183.079 31.4508 185.49C31.4463 185.49 31.9975 185.678 31.4463 186.633Z" fill="#F9EDDD"/>
<path d="M98.015 86.6434C98.015 86.6434 98.5797 87.1856 97.0829 87.4007C95.5862 87.6158 92.7048 87.6158 91.208 87.2484C89.7113 86.8809 88.7344 88.3776 88.7344 88.3776L88.0398 90.1119L89.0794 91.5862C89.0794 91.5862 92.0953 93.3204 94.1298 96.1391C94.1298 96.1391 94.551 96.8337 94.9633 96.2153C95.3756 95.5969 96.0567 94.4497 96.5049 94.1002C96.9485 93.7551 96.8409 94.2525 96.8409 94.2525C96.8409 94.2525 97.5131 96.7441 99.9868 101.387C102.46 106.025 105.431 111.362 105.431 111.362C105.431 111.362 108.945 117.479 107.73 122.941C106.516 128.404 103.814 138.191 103.352 142.529C102.891 146.867 101.268 157.044 101.443 160.745C101.618 164.447 102.313 172.656 102.313 172.656C102.313 172.656 104.235 182.99 101.945 188.493L102.03 188.69C106.086 189.766 108.125 188.255 108.125 188.255C108.125 188.255 109.137 185.723 107.632 177.169C106.131 168.61 104.858 161.211 105.956 146.522C107.923 137.326 110.58 125.532 110.58 125.532C110.58 125.532 113.067 117.492 109.191 110.614C105.315 103.735 100.014 93.782 100.014 93.782C100.014 93.782 99.7986 93.1322 100.511 93.437C101.228 93.7417 102.483 93.9792 102.483 93.9792C102.483 93.9792 103.025 93.8492 102.483 92.8096C101.941 91.7699 100.619 88.3866 100.619 88.3866C100.619 88.3866 100.229 86.3432 98.015 86.6434Z" fill="#F9EDDD"/>
<path d="M88.3311 106.755C88.3311 106.755 96.1822 105.944 100.775 109.112C100.775 109.112 101.268 109.386 101.237 110.21C101.21 111.035 101.121 112.321 101.134 112.684C101.147 113.047 101.062 113.477 100.283 113.275C99.5028 113.074 96.2046 111.743 87.3138 111.223C87.3138 111.223 85.9112 111.411 86.3459 109.995C86.7806 108.579 87.0853 107.495 87.0853 107.495C87.0853 107.495 87.1884 106.822 88.3311 106.755Z" fill="#F9EDDD"/>
<path d="M111.741 108.633C111.741 108.633 110.58 108.937 110.992 110.098C111.405 111.259 111.817 112.115 111.956 112.46C112.095 112.805 112.193 113.141 113.269 112.948C114.344 112.751 119.157 112.298 119.807 112.253C120.457 112.209 120.685 111.778 120.036 111.061C119.386 110.344 117.401 108.135 117.401 108.135C117.401 108.135 117.226 107.822 116.132 107.844C115.034 107.862 113.26 108.122 111.741 108.633Z" fill="#F9EDDD"/>
<path d="M144.548 163.752C144.548 163.752 135.527 161.498 127.721 155.296C119.915 149.094 117.311 143.111 117.356 141.852C117.356 141.852 117.208 147.566 117.759 150.779C118.14 151.03 120.546 152.594 121.824 153.432C123.213 154.341 126.202 156.9 126.202 156.9C126.202 156.9 128.716 159.284 129.76 160.023C130.799 160.763 133.318 162.497 133.318 162.497C133.318 162.497 134.707 163.886 137.871 165.88C140.492 167.534 142.487 166.687 143.096 166.346C143.791 165.114 144.548 163.752 144.548 163.752Z" fill="#D4AC7B"/>
<path d="M154.434 163.273C154.434 163.273 149.76 165.961 149.236 168.175C149.133 168.847 149.111 168.995 149.55 169.107C149.989 169.219 150.455 169.34 150.455 169.34C150.455 169.34 149.747 170.147 149.285 170.474C148.824 170.801 148.577 170.837 148.179 170.474C147.78 170.111 143.782 166.929 142.38 166.257C142.089 166.064 142.236 165.312 142.496 164.765C142.756 164.214 145.835 159.172 148.331 158.966C149.003 158.894 149.796 159.531 149.796 159.531C149.796 159.531 151.979 161.31 153.018 161.874C154.058 162.439 155.375 162.833 155.053 163.322C155.053 163.317 154.703 163.116 154.434 163.273Z" fill="#F9EDDD"/>
<path d="M112.61 43.9956C112.61 43.9956 111.634 41.4144 110.159 41.504C108.685 41.5936 105.911 41.7191 103.482 44.9321C101.053 48.1407 99.8837 49.27 98.4497 50.4844C97.0202 51.6988 91.338 56.2069 90.3387 62.279C89.3394 68.3511 90.3387 73.8137 90.3387 73.8137C90.3387 73.8137 91.5979 79.4511 92.1581 81.7051C92.7182 83.9592 93.9147 89.7713 89.895 92.2853C85.8709 94.7993 82.9671 93.9344 82.9671 93.9344C82.9671 93.9344 81.1656 93.4818 76.5051 90.5063C71.0425 87.4725 67.1304 92.0613 67.1304 92.0613L66.0145 93.2846C66.0145 93.2846 64.3162 94.1898 62.8015 91.8058C61.2824 89.4218 57.9887 84.0847 58.1634 74.0691C58.3382 64.0536 59.8708 56.664 59.8708 56.664C59.8708 56.664 61.7215 43.3054 69.8146 33.0165C77.9077 22.7276 81.9005 22.3198 87.1032 21.3922C92.3059 20.4691 96.8186 21.3922 96.8186 21.3922C96.8186 21.3922 103.755 22.6066 108.613 27.061C113.471 31.5153 112.413 32.2368 112.906 33.133C113.399 34.0293 113.511 34.3923 115.277 35.4767C117.042 36.5612 119.525 38.1207 120.914 41.029C122.303 43.9373 125.615 49.1355 120.914 61.4993C117.056 71.6492 117.056 70.0853 115.452 76.2022C114.295 80.6117 114.192 81.4049 116.016 87.9565C117.836 94.5035 112.104 97.0534 110.764 96.8203C110.226 95.5477 108.86 92.5676 106.606 91.1247C104.567 89.9954 102.644 90.4301 101.367 90.1119C100.26 87.0199 99.579 86.7062 98.7992 86.6255L98.0195 86.6569C98.0195 86.6569 96.4152 81.387 98.8217 77.4614C98.8217 77.4614 101.855 79.1329 104.459 78.761C107.063 78.389 107.063 76.852 107.063 76.852C107.063 76.852 107.3 73.5582 108.192 72.7337C109.079 71.9092 109.527 71.6806 110.522 71.228C111.521 70.7709 111.521 69.6551 111.521 69.6551L111.53 68.853C111.53 68.853 112.745 68.257 112.929 67.3114C113.112 66.3704 112.767 66.1821 112.767 66.1821C112.767 66.1821 112.171 65.2814 112.552 63.8833C113.018 63.8071 115.653 63.1663 115.891 62.2879C116.128 61.4096 115.38 60.6389 115.38 60.6389C115.38 60.6389 112.942 55.0059 112.579 52.5637C112.982 52.0438 113.592 51.6674 113.547 50.1483C113.498 48.6292 113.596 46.2362 112.61 43.9956Z" fill="#23261B"/>
</g>
</svg>
