<svg width="188" height="307" viewBox="0 0 188 307" fill="none" xmlns="http://www.w3.org/2000/svg">
<path d="M167.658 277.133C167.658 277.133 177.426 275.787 179.975 275.045C182.524 274.302 185.885 272.887 186.982 277.345C188.079 281.803 186.196 285.259 185.212 286.758C184.228 288.258 180.86 293.553 166.916 294.12C166.916 294.12 162.037 294.12 156.347 293.045C155.144 292.818 153.926 292.723 152.705 292.789C151.33 292.866 149.403 293.026 147.311 293.377C143.277 294.05 136.27 295.926 131.103 289.165C125.935 282.406 130.785 277.203 130.785 277.203L167.658 277.133Z" fill="#E7CDB8"/>
<path d="M60.848 293.762C60.848 293.762 65.3132 298.402 68.674 301.127C68.674 301.127 70.6926 302.754 67.0466 304.842C63.4006 306.93 56.2182 308.488 51.4385 304.667C46.6624 300.845 43.6161 298.19 40.7161 293.023C37.8161 287.855 32.9998 283.752 32.9998 283.752C32.9998 283.752 25.9564 279.258 26.8048 274.054C27.6569 268.85 34.7332 266.268 34.7332 266.268L60.848 293.762Z" fill="#E7CDB8"/>
<path d="M79.4326 101.077C79.4326 101.077 77.3079 90.8372 77.3811 85.5272C77.4542 80.2173 78.9755 70.4091 68.3043 71.1735L59.33 67.1434L32.1511 68.0467C32.1511 68.0467 19.9988 63.907 16.4479 73.3604C12.8969 82.8174 4.31023 102.774 0.15586 143.261C0.15586 143.261 -0.977815 158.927 3.08147 159.871C7.14076 160.814 8.17935 162.134 18.4629 156.097C18.4629 156.097 16.5759 159.234 16.6234 162.621C16.6709 166.007 83.1079 160.485 83.1079 160.485L79.4326 101.077ZM22.6172 133.73L15.3508 138.729C19.7867 133.068 21.8639 122.591 21.8639 122.591C23.3742 128.537 22.6172 133.73 22.6172 133.73Z" fill="#E7CDB8"/>
<path d="M42.7686 136.949C42.7686 136.949 42.9112 143.992 43.478 146.504C44.0449 149.017 44.2935 146.329 44.2935 146.329L43.372 136.949H42.7686Z" fill="#E7CDB8"/>
<path d="M38.5662 151.471C30.6378 146.091 30.5427 128.852 30.5427 128.852C30.5427 128.852 34.3168 118.25 28.8422 109.945C23.3677 101.64 27.4269 92.695 27.4269 92.695C24.878 97.7161 23.2287 108.954 20.8224 121.271C18.4161 133.588 12.989 140.781 13.4133 140.452C13.8375 140.123 22.6143 133.727 22.6143 133.727L15.3515 138.73C19.7874 133.068 21.8646 122.591 21.8646 122.591C23.375 128.537 22.618 133.727 22.618 133.727L30.3672 128.925L28.7508 140.617L20.4457 148.238C20.4457 148.238 -1.07218 172.327 2.2301 136.747C5.53239 101.168 13.0841 86.7048 15.4429 81.9873C17.8017 77.2697 20.4676 76.915 20.4676 76.915C20.4676 76.915 22.1682 76.6078 23.5103 77.9536C24.8561 79.2994 28.2278 81.2083 28.2278 81.2083C28.2278 81.2083 30.1624 82.342 35.6845 82.5285C41.2066 82.7187 44.6515 77.917 44.944 77.4453C45.2403 76.9735 45.2988 77.1637 45.2988 77.1637C45.2988 77.1637 45.2768 77.2697 45.5804 77.5989C46.2533 78.5204 47.3613 76.9845 47.3613 76.9845L49.6031 74.7427C49.6031 74.7427 50.3564 82.3383 50.8282 89.0892C51.2999 95.8364 51.2999 98.7145 50.8867 104.379C50.4735 110.04 47.0541 117.263 45.4963 121.461C43.9384 125.659 44.0334 127.854 44.0334 127.854L46.3703 129.126L52.3897 107.678L53.5892 89.6999L53.8013 74.377L55.714 76.3957C55.714 76.3957 56.4563 77.1746 57.2828 76.9625C58.7456 76.3957 62.4356 70.7676 62.4356 70.7676L63.2401 68.8988L50.0748 71.5575C50.0748 71.5575 41.4041 69.7948 32.6674 68.0248L32.1408 68.0431C32.1408 68.0431 19.9886 63.9033 16.4376 73.3567C12.8866 82.8138 4.29998 102.77 0.145606 143.257C0.145606 143.257 -0.988069 158.924 3.07122 159.867C7.13051 160.811 8.1691 162.131 18.4526 156.093C18.4526 156.093 16.5656 159.231 16.6132 162.617C16.6168 163.005 17.4908 163.275 19.0268 163.451C29.1274 160.419 43.9457 155.12 38.5662 151.471Z" fill="#E7CDB8"/>
<path d="M57.916 66.3462C57.916 66.3462 54.1529 70.7639 44.3265 69.3669C44.3265 69.3669 41.8727 69.0853 42.4395 70.5006C43.0063 71.9159 45.4602 76.7285 45.4602 76.7285C45.4602 76.7285 45.8844 78.2864 46.9705 77.0101C48.0567 75.7374 49.7316 74.1064 49.9181 74.1064C50.1082 74.1064 50.1338 74.6001 50.1338 74.6001C50.1338 74.6001 50.6019 84.3205 51.1212 88.3322C51.6405 92.3439 52.9132 100.177 50.5069 108.53C48.1005 116.883 40.2892 128.208 43.9718 147.389H48.2176C48.2176 147.389 45.7491 134.531 50.1338 122.591C54.5186 110.651 57.3455 108.822 55.5791 88.0725L54.0212 73.4225C54.0212 73.4225 54.003 73.2104 54.3943 73.7224C54.7856 74.2344 56.0765 75.6679 56.2886 76.041C56.5007 76.414 57.0493 76.8894 57.8099 76.0775C58.5706 75.262 60.9842 73.375 62.2569 69.8387C63.5295 66.2987 57.916 66.3462 57.916 66.3462Z" fill="#FFECDD"/>
<path d="M46.3591 91.3127C46.3591 91.3127 47.4416 91.4553 47.2807 92.4793C47.1198 93.5069 46.9954 94.8234 46.9954 94.8234C46.9954 94.8234 47.0503 95.3464 45.9532 95.0648C44.8744 94.7869 39.9008 93.3606 32.5246 93.7849C32.3381 93.7958 32.1516 93.8287 31.9688 93.8653C31.7749 93.9019 31.5336 93.8909 31.6908 93.5252C31.9395 92.9584 32.7514 90.6215 32.7514 90.6215C32.7514 90.6215 32.5393 90.3217 33.8119 90.2485C35.0882 90.1827 42.7314 90.4826 46.3591 91.3127Z" fill="#FFECDD"/>
<path d="M65.4893 88.4456C65.4893 88.4456 69.5778 88.0908 70.3897 88.164C71.2052 88.2335 71.3112 88.6431 71.3807 88.8881C71.4502 89.1331 71.8744 90.6215 71.8744 90.6215C71.8744 90.6215 72.2621 91.3456 71.165 91.3639C70.0679 91.3822 66.0671 91.4005 61.6275 93.1339C61.6275 93.1339 61.0606 93.5764 60.8668 92.6036C60.673 91.6308 60.7608 91.2432 60.5669 90.6946C60.5669 90.6946 59.9416 89.8206 61.0497 89.539C62.1577 89.2574 63.4487 88.7016 65.4893 88.4456Z" fill="#FFECDD"/>
<path d="M41.0567 126.877C41.0567 126.877 48.005 126.899 53.8087 126.365C59.6124 125.835 61.0642 128.135 61.0642 128.135C61.0642 128.135 63.412 130.088 64.8383 135.146C66.2645 140.203 60.4608 148.238 60.4608 148.238L50.9745 146.68L49.8079 145.725C49.8079 145.725 49.2119 144.716 47.7234 143.433C46.235 142.149 43.2802 139.541 42.3513 137.501C42.3513 137.501 42.216 137.333 41.0567 137.336C39.8974 137.336 37.8458 137.578 37.5643 137.263C37.2827 136.949 36.5732 131.675 36.7488 131.288C36.9279 130.9 35.9552 126.958 41.0567 126.877Z" fill="#9B6348"/>
<path d="M49.9873 141.326C49.1388 140.24 47.9576 139.863 47.9576 139.863C47.9576 139.863 43.0499 137.267 41.5615 131.982C40.8008 129.276 41.3055 127.737 41.9821 126.874C41.3933 126.877 41.0568 126.877 41.0568 126.877C35.9553 126.958 36.9281 130.896 36.7489 131.288C36.5733 131.675 37.2791 136.949 37.5644 137.263C37.846 137.578 39.9012 137.34 41.0568 137.336C42.2161 137.336 42.3514 137.501 42.3514 137.501C43.2803 139.541 46.2352 142.149 47.7236 143.433C49.212 144.716 49.8081 145.725 49.8081 145.725L50.9747 146.68L60.461 148.238C60.461 148.238 60.556 148.106 60.7169 147.872C56.7125 146.45 50.7516 142.302 49.9873 141.326Z" fill="#8E5335"/>
<path d="M42.0473 126.873C41.8755 126.862 41.0563 126.877 40.7491 127.093C40.4273 127.385 36.1339 131.324 38.2038 136.927C38.2843 137.15 38.4708 137.322 38.7012 137.376C38.8621 137.417 39.0778 137.435 39.3667 137.402C39.3667 137.402 39.5789 137.643 37.7394 138.989C35.8999 140.335 32.455 141.962 32.455 141.962C32.455 141.962 28.2787 143.802 27.8545 140.218C27.4302 136.634 30.0267 129.624 30.0267 129.624C30.0267 129.624 30.4509 128.325 32.316 127.949C34.1811 127.572 39.8897 126.416 40.4565 126.226C41.0234 126.036 42.4606 125.974 42.5337 126.87C42.5301 126.87 42.2192 126.884 42.0473 126.873Z" fill="#FFECDD"/>
<path d="M56.2161 263.543C56.2161 263.543 53.6671 267.789 53.1003 271.26C52.5335 274.727 50.9756 281.477 61.1677 294.171C61.1677 294.171 63.4679 297.47 58.9552 297.7C54.4424 297.93 49.8053 295.045 49.8053 295.045C49.8053 295.045 45.9838 291.717 44.5319 289.702C43.0801 287.683 39.8948 283.898 37.8432 281.774C35.7917 279.649 32.0761 275.473 32.6064 270.909C33.1367 266.345 35.6856 264.787 36.5011 263.759C37.3166 262.732 42.8021 255.443 42.8021 255.443C42.8021 255.443 52.9613 254.021 56.2161 263.543Z" fill="#9B6348"/>
<path d="M61.0933 294.069C61.2835 295.264 61.1372 297.638 56.8292 297.141C51.1206 296.479 47.438 291.618 47.438 291.618C47.438 291.618 45.9752 289.636 41.3052 284.495C36.6352 279.353 35.4284 276.994 35.337 271.399C35.2419 265.57 43.0533 257.74 43.0533 257.74C51.1024 258.928 54.9276 264.297 55.4103 265.017C55.8748 264.118 56.2185 263.544 56.2185 263.544C52.9638 254.024 42.8046 255.44 42.8046 255.44C42.8046 255.44 37.3191 262.732 36.5035 263.756C35.688 264.783 33.1428 266.337 32.6088 270.905C32.0786 275.469 35.7941 279.645 37.8457 281.77C39.8973 283.895 43.0825 287.68 44.5343 289.698C45.4705 290.997 47.3868 292.84 48.6339 293.988C49.5262 294.807 50.5355 295.495 51.6363 296.003C53.399 296.819 56.2002 297.839 58.954 297.696C63.4667 297.466 61.1665 294.167 61.1665 294.167C61.1445 294.134 61.1189 294.102 61.0933 294.069Z" fill="#8E5335"/>
<path d="M140.517 254.694L142.781 264.461C142.781 264.461 144.481 271.893 152.194 273.381C159.91 274.866 166.208 276.248 168.72 276.99C171.232 277.733 176.045 276.99 176.045 276.99C176.045 276.99 178.075 276.8 177.131 278.994C176.188 281.189 175.409 281.975 174.487 283.076C173.566 284.18 168.965 287.428 164.814 288.126C161.252 288.835 154.765 287.983 154.765 287.983C154.765 287.983 150.307 287.395 144.927 288.031C139.548 288.667 134.925 286.404 133.887 285.53C132.848 284.656 130.394 282.154 129.78 278.877C129.166 275.597 129.473 272.909 129.403 270.927C129.166 267.837 128.2 262.128 127.326 259.791C126.452 257.455 140.517 254.694 140.517 254.694Z" fill="#9B6348"/>
<path d="M174.491 283.075C175.412 281.971 176.191 281.188 177.135 278.994C178.078 276.8 176.048 276.99 176.048 276.99C176.048 276.99 176.012 276.997 175.946 277.005C176.396 277.433 176.974 278.34 176.213 279.821C175.218 281.755 173.975 282.567 172.201 283.971C171.152 284.805 168.742 286.323 167.484 286.791C162.543 288.63 156.911 287.464 156.911 287.464C156.911 287.464 149.692 286.754 143.508 287.087C137.328 287.416 133.74 283.028 133.74 283.028C133.74 283.028 130.438 279.44 130.625 273.637C130.815 267.833 129.304 262.406 129.304 262.406C136.11 263.057 139.76 259.074 141.087 257.18L140.564 254.924L140.385 254.715C139.003 254.993 126.496 257.579 127.322 259.787C128.196 262.124 129.162 267.833 129.4 270.923C129.469 272.905 129.162 275.593 129.776 278.873C130.391 282.154 132.844 284.655 133.883 285.526C134.922 286.4 139.544 288.663 144.924 288.027C150.303 287.391 154.761 287.979 154.761 287.979C154.761 287.979 161.249 288.828 164.81 288.122C168.968 287.431 173.573 284.18 174.491 283.075Z" fill="#8E5335"/>
<path d="M114.5 152.604C114.5 152.604 120.294 150.246 125.392 155.245C129.356 159.136 131.093 162.855 131.671 164.314C131.806 164.658 131.945 164.998 132.102 165.331C132.819 166.848 135.236 173.643 134.834 195.636C134.362 221.4 137.569 237.348 137.569 237.348C137.569 237.348 139.361 247.826 141.343 253.487C141.343 253.487 142.356 254.833 140.923 256.123C139.489 257.414 136.246 261.51 127.019 260.991C127.019 260.991 126.218 261.06 125.816 260.142C125.413 259.221 113.689 231.406 106.046 195.07C106.046 195.07 103.782 201.959 86.6747 221.641C86.6747 221.641 64.0012 247.826 57.6673 263.576C57.6673 263.576 56.5921 267.292 54.9172 265.734L55.7437 264.319C55.7437 264.319 51.7795 257.594 42.0116 256.511L41.0205 257.831C41.0205 257.831 39.7479 257.03 40.8304 255.707C41.9165 254.386 57.2028 237.352 64.5644 218.24C71.926 199.129 77.7992 192.334 77.7992 192.334L43.99 192.758C43.99 192.758 6.94814 191.672 17.7071 158.737C17.7071 158.737 22.8964 151.28 30.6346 150.904C38.3729 150.527 110.193 152.604 110.193 152.604C110.193 152.604 113 152.604 114.5 152.604Z" fill="#23261B"/>
<path d="M74 101L59 146H31V153H120L137 101H74Z" fill="#4F5361"/>
<path d="M74.6785 102L59.9995 146H121.209L135.5 102H74.6785Z" fill="#5A5E6B"/>
<path d="M73.7678 21.8257C73.7678 21.8257 80.1566 27.7099 76.9165 39.9755C76.2436 42.5208 76.4119 45.6695 75.7499 47.5675C73.2339 54.8084 70.1803 58.1143 70.1803 58.1143C70.1803 58.1143 65.8394 63.0513 62.4421 63.9802C59.0447 64.909 58.2182 63.5413 58.2182 63.5413C58.2182 63.5413 57.015 62.5027 56.6859 64.2252C56.3568 65.9476 56.3092 67.6079 56.3092 67.6079L57.0845 68.4637L46.7535 71.5611L44.7494 68.7306C44.7494 68.7306 44.6068 46.858 44.7494 46.6934C44.892 46.5289 50.3629 30.8622 50.3629 30.8622C50.3629 30.8622 61.3011 23.3105 61.2572 23.0289C61.2133 22.7473 71.2189 20.2935 71.2189 20.2935L73.7678 21.8257Z" fill="#9B6348"/>
<path d="M58.7158 21.9429C58.8585 21.7527 68.1546 19.255 71.8336 28.6901C73.3805 32.263 72.9197 35.4482 72.9197 35.4482C72.9197 35.4482 72.7442 37.4303 71.68 38.3519C70.6194 39.2735 70.2647 39.7306 70.2647 40.5095C70.2647 41.2885 70.3013 46.8106 70.4402 48.4014C70.5829 49.9922 70.2976 50.3835 69.9465 50.4895C69.5955 50.5956 68.2826 50.9138 66.0189 50.7711C66.0189 50.7711 64.9218 50.8077 64.8158 52.1169C64.7097 53.4261 64.8267 54.121 64.8743 54.4281C64.9218 54.7353 64.9218 55.229 64.5671 55.4887C64.2123 55.7483 63.9527 55.9385 63.9527 55.9385C63.9527 55.9385 63.576 56.2676 63.8101 56.4797C64.0478 56.6918 64.4244 56.9734 64.1173 57.5403C63.8101 58.1071 63.2432 59.1457 63.0092 60.1112C62.7715 61.0803 62.7715 62.7552 62.7715 62.7552C62.7715 62.7552 62.819 63.344 61.8499 63.2489C60.8808 63.1538 53.5448 62.1408 50.5497 55.9824C47.5546 49.824 50.2681 34.4426 50.2681 34.4426L35.0732 43.1134L42.4348 70.4934L48.3299 71.0822L58.0539 68.749C58.0539 68.749 69.0945 60.7511 69.4492 60.539C69.8039 60.3269 76.1159 45.9219 76.1159 45.9219L79.4987 30.4564L77.1618 19.4159L67.1818 17.2217L58.7158 21.9429Z" fill="#8E5335"/>
<path d="M66.0811 49.5789C66.0811 49.5789 67.1088 49.93 66.275 49.9629C65.4412 49.9958 64.7829 50.1896 64.7829 50.1896C64.7829 50.1896 64.132 50.4164 64.4611 49.429C64.5379 49.2205 64.984 49.1803 66.0811 49.5789Z" fill="#8E5335"/>
<path d="M63.7844 33.1918C64.1209 33.1955 64.45 33.2248 64.7791 33.2833C65.6312 33.4332 67.2549 33.7806 67.9168 34.3767C68.4435 34.885 68.129 35.1776 68.129 35.1776L67.4451 35.931C67.4451 35.931 67.105 36.3332 66.0042 35.931C64.6585 35.4592 62.3948 34.1354 57.2859 34.6656C52.1771 35.1959 56.0242 34.161 56.0242 34.161C56.0242 34.161 59.652 33.2833 62.4898 33.1918C62.8811 33.1845 63.4114 33.1882 63.7844 33.1918Z" fill="#23261B"/>
<path d="M76.9676 35.1556C76.346 35.0093 75.7425 34.9398 73.7568 34.9874C73.4679 34.9947 72.3415 34.9727 72.55 35.5579C72.7877 36.2271 72.8499 36.8854 72.8499 36.8854C72.8499 36.8854 72.8645 37.145 73.8921 36.9731C75.0441 36.7793 76.8104 36.1759 77.5564 36.3551C77.8819 36.4319 77.9221 36.2454 77.8636 36.0113C77.7576 35.5762 77.3992 35.258 76.9676 35.1556Z" fill="#23261B"/>
<path d="M66.2823 40.8826C66.1543 40.9374 64.3551 41.7566 62.9215 41.837C61.0638 41.9431 59.8423 41.3763 59.1512 40.8826C58.6721 40.5388 57.1179 38.9004 55.9293 38.7432C55.2893 38.6554 55.4503 38.8346 55.7319 39.0175C56.1597 39.2917 56.5364 39.6319 56.8765 40.0122C57.5311 40.7509 58.6465 41.8699 59.6449 42.2503C61.1845 42.8354 62.991 43.0987 65.1852 42.5502C66.6444 42.1552 67.1235 41.9541 67.2149 41.8919C67.3063 41.8261 67.5403 41.7895 67.0064 40.9959C66.7651 40.6046 66.4103 40.8277 66.2823 40.8826Z" fill="#23261B"/>
<path d="M74.192 42.5868C73.6362 42.6819 72.8755 42.744 71.9027 41.7713C71.5334 41.3763 71.3761 41.2739 71.2554 41.2629C71.1311 41.252 70.9885 41.3653 70.8678 41.6871C70.6191 42.2284 71.058 42.5977 71.058 42.5977C71.058 42.5977 72.5647 43.9728 74.0896 43.7643C75.6146 43.5559 75.9547 42.4441 76.474 42.36C76.9933 42.2759 77.0518 42.1114 77.0518 42.1114C77.0518 42.1114 77.2273 41.8298 76.368 41.9578C75.5012 42.0931 74.7515 42.4917 74.192 42.5868Z" fill="#23261B"/>
<path d="M73.7688 21.8258C73.7688 21.8258 66.6193 20.9774 64.1435 23.8774C61.6677 26.781 61.1009 28.6205 56.3577 31.2389C51.6146 33.8574 49.6325 39.6611 49.6325 39.6611C49.6325 39.6611 46.5898 47.6589 48.4293 64.291C50.2688 80.9231 38.0251 81.9179 34.7704 81.7058C31.5156 81.4937 25.2841 80.221 22.9509 72.15C21.2723 66.35 18.3869 70.0216 16.8949 72.5449C16.35 73.4665 15.9038 74.4466 15.5418 75.4559L11.6946 86.1637C11.6946 86.1637 10.9851 86.8731 10.5609 83.8268C10.1367 80.7842 5.25094 55.3716 21.7441 28.6169C38.2372 1.86214 47.793 0.658989 47.793 0.658989C47.793 0.658989 55.224 -1.25363 60.534 1.43793C64.3154 3.3542 67.7749 3.93933 69.4498 4.11852C70.5798 4.2392 71.6843 4.53177 72.7265 4.99621C76.0069 6.45536 81.9641 10.244 83.6793 18.9185C86.0856 31.0927 85.3798 42.3453 80.0698 54.5926C75.7948 64.4556 72.1597 68.2114 70.909 69.3012C70.6457 69.5279 70.3897 69.7583 70.1374 69.996C69.3218 70.7786 66.8972 72.5742 63.1525 70.8737C63.1525 70.8737 62.2089 70.1423 59.2138 70.0472C56.2188 69.9521 56.0761 66.7669 56.0761 66.7669C56.0761 66.7669 56.0761 64.0789 56.76 63.439C57.4439 62.8026 58.1277 63.0367 58.1277 63.0367C58.1277 63.0367 60.5121 64.6421 62.3516 64.0058C64.191 63.3695 68.4259 61.4934 73.9845 49.674C79.5395 37.8545 76.4969 27.059 76.4969 27.059C76.4969 27.059 76.2482 25.4353 73.7688 21.8258Z" fill="#23261B"/>
</svg>
