<svg width="301" height="307" viewBox="0 0 301 307" fill="none" xmlns="http://www.w3.org/2000/svg">
<path d="M167.659 277.133C167.659 277.133 177.427 275.787 179.976 275.045C182.525 274.302 185.885 272.887 186.982 277.345C188.08 281.803 186.196 285.259 185.212 286.758C184.229 288.257 180.861 293.553 166.916 294.12C166.916 294.12 162.038 294.12 156.348 293.044C155.144 292.818 153.927 292.723 152.705 292.788C151.33 292.865 149.403 293.026 147.311 293.377C143.277 294.05 136.271 295.926 131.103 289.164C125.936 282.406 130.785 277.202 130.785 277.202L167.659 277.133Z" fill="#D2AC7B"/>
<path d="M60.8482 293.762C60.8482 293.762 65.3134 298.402 68.6742 301.127C68.6742 301.127 70.6929 302.754 67.0468 304.842C63.4008 306.93 56.2184 308.488 51.4387 304.667C46.6626 300.845 43.6163 298.19 40.7163 293.023C37.8163 287.855 33 283.752 33 283.752C33 283.752 25.9566 279.258 26.8051 274.054C27.6571 268.85 34.7335 266.268 34.7335 266.268L60.8482 293.762Z" fill="#D2AC7B"/>
<path d="M79.4329 101.077C79.4329 101.077 77.3082 90.8374 77.3813 85.5274C77.4544 80.2174 78.9757 70.4093 68.3046 71.1736L59.3303 67.1436L32.1513 68.0468C32.1513 68.0468 19.9991 63.9071 16.4481 73.3605C12.8971 82.8175 4.31047 102.774 0.156104 143.261C0.156104 143.261 -0.97757 158.927 3.08172 159.871C7.141 160.814 8.1796 162.135 18.4631 156.097C18.4631 156.097 16.5761 159.235 16.6236 162.621C16.6712 166.007 83.1082 160.485 83.1082 160.485L79.4329 101.077ZM22.6175 133.73L15.351 138.73C19.787 133.069 21.8641 122.591 21.8641 122.591C23.3745 128.538 22.6175 133.73 22.6175 133.73Z" fill="#F2DABE"/>
<path d="M42.7683 136.949C42.7683 136.949 42.9109 143.992 43.4778 146.505C44.0446 149.017 44.2933 146.329 44.2933 146.329L43.3717 136.949H42.7683Z" fill="#D2AC7B"/>
<path d="M38.5662 151.471C30.6378 146.091 30.5427 128.852 30.5427 128.852C30.5427 128.852 34.3168 118.25 28.8422 109.945C23.3677 101.64 27.4269 92.695 27.4269 92.695C24.878 97.7161 23.2287 108.954 20.8224 121.271C18.4161 133.588 12.989 140.781 13.4133 140.452C13.8375 140.123 22.6143 133.727 22.6143 133.727L15.3515 138.73C19.7874 133.068 21.8646 122.591 21.8646 122.591C23.375 128.537 22.618 133.727 22.618 133.727L30.3672 128.925L28.7508 140.617L20.4457 148.238C20.4457 148.238 -1.07218 172.327 2.2301 136.747C5.53239 101.168 13.0841 86.7048 15.4429 81.9873C17.8017 77.2697 20.4676 76.915 20.4676 76.915C20.4676 76.915 22.1682 76.6078 23.5103 77.9536C24.8561 79.2994 28.2278 81.2083 28.2278 81.2083C28.2278 81.2083 30.1624 82.342 35.6845 82.5285C41.2066 82.7187 44.6515 77.917 44.944 77.4453C45.2403 76.9735 45.2988 77.1637 45.2988 77.1637C45.2988 77.1637 45.2768 77.2697 45.5804 77.5989C46.2533 78.5204 47.3613 76.9845 47.3613 76.9845L49.6031 74.7427C49.6031 74.7427 50.3564 82.3383 50.8282 89.0892C51.2999 95.8364 51.2999 98.7145 50.8867 104.379C50.4735 110.04 47.0541 117.263 45.4963 121.461C43.9384 125.659 44.0334 127.854 44.0334 127.854L46.3703 129.126L52.3897 107.678L53.5892 89.6999L53.8013 74.377L55.714 76.3957C55.714 76.3957 56.4563 77.1746 57.2828 76.9625C58.7456 76.3957 62.4356 70.7676 62.4356 70.7676L63.2401 68.8988L50.0748 71.5575C50.0748 71.5575 41.4041 69.7948 32.6674 68.0248L32.1408 68.0431C32.1408 68.0431 19.9886 63.9033 16.4376 73.3567C12.8866 82.8138 4.29998 102.77 0.145606 143.257C0.145606 143.257 -0.988069 158.924 3.07122 159.867C7.13051 160.811 8.1691 162.131 18.4526 156.093C18.4526 156.093 16.5656 159.231 16.6132 162.617C16.6168 163.005 17.4908 163.275 19.0268 163.451C29.1274 160.419 43.9457 155.12 38.5662 151.471Z" fill="#D2AC7B"/>
<path d="M57.9157 66.3462C57.9157 66.3462 54.1527 70.7639 44.3263 69.3669C44.3263 69.3669 41.8724 69.0853 42.4392 70.5006C43.0061 71.9159 45.4599 76.7285 45.4599 76.7285C45.4599 76.7285 45.8841 78.2864 46.9703 77.0101C48.0564 75.7374 49.7313 74.1064 49.9178 74.1064C50.108 74.1064 50.1336 74.6001 50.1336 74.6001C50.1336 74.6001 50.6017 84.3205 51.121 88.3322C51.6403 92.3439 52.9129 100.177 50.5066 108.53C48.1003 116.883 40.2889 128.208 43.9715 147.389H48.2173C48.2173 147.389 45.7488 134.531 50.1336 122.591C54.5184 110.651 57.3452 108.822 55.5789 88.0725L54.021 73.4225C54.021 73.4225 54.0027 73.2104 54.394 73.7224C54.7853 74.2344 56.0763 75.6679 56.2884 76.041C56.5005 76.414 57.049 76.8894 57.8097 76.0775C58.5703 75.262 60.984 73.375 62.2566 69.8387C63.5293 66.2987 57.9157 66.3462 57.9157 66.3462Z" fill="#F9EDDD"/>
<path d="M46.3594 91.3127C46.3594 91.3127 47.4418 91.4553 47.2809 92.4793C47.12 93.5069 46.9957 94.8234 46.9957 94.8234C46.9957 94.8234 47.0505 95.3464 45.9534 95.0648C44.8746 94.7869 39.9011 93.3606 32.5249 93.7849C32.3384 93.7958 32.1519 93.8287 31.969 93.8653C31.7752 93.9019 31.5338 93.8909 31.6911 93.5252C31.9397 92.9584 32.7516 90.6215 32.7516 90.6215C32.7516 90.6215 32.5395 90.3217 33.8121 90.2485C35.0884 90.1827 42.7316 90.4826 46.3594 91.3127Z" fill="#F9EDDD"/>
<path d="M65.4893 88.4458C65.4893 88.4458 69.5778 88.0911 70.3897 88.1642C71.2052 88.2337 71.3112 88.6433 71.3807 88.8883C71.4502 89.1333 71.8744 90.6217 71.8744 90.6217C71.8744 90.6217 72.2621 91.3458 71.165 91.3641C70.0679 91.3824 66.0671 91.4007 61.6275 93.1341C61.6275 93.1341 61.0606 93.5766 60.8668 92.6039C60.673 91.6311 60.7608 91.2434 60.5669 90.6949C60.5669 90.6949 59.9416 89.8209 61.0497 89.5393C62.1577 89.2577 63.4487 88.7018 65.4893 88.4458Z" fill="#F9EDDD"/>
<path d="M41.0567 126.877C41.0567 126.877 48.005 126.899 53.8087 126.365C59.6124 125.835 61.0642 128.135 61.0642 128.135C61.0642 128.135 63.412 130.088 64.8383 135.146C66.2645 140.203 60.4608 148.238 60.4608 148.238L50.9745 146.68L49.8079 145.725C49.8079 145.725 49.2119 144.716 47.7234 143.432C46.235 142.149 43.2802 139.541 42.3513 137.501C42.3513 137.501 42.216 137.332 41.0567 137.336C39.8974 137.336 37.8458 137.577 37.5643 137.263C37.2827 136.948 36.5732 131.675 36.7488 131.287C36.9279 130.9 35.9552 126.957 41.0567 126.877Z" fill="#A34A22"/>
<path d="M49.987 141.326C49.1386 140.24 47.9574 139.863 47.9574 139.863C47.9574 139.863 43.0497 137.267 41.5613 131.982C40.8006 129.276 41.3053 127.737 41.9818 126.874C41.393 126.877 41.0566 126.877 41.0566 126.877C35.955 126.958 36.9278 130.896 36.7486 131.288C36.5731 131.675 37.2789 136.949 37.5641 137.263C37.8457 137.578 39.901 137.34 41.0566 137.336C42.2159 137.336 42.3512 137.501 42.3512 137.501C43.28 139.541 46.2349 142.149 47.7233 143.433C49.2117 144.716 49.8078 145.725 49.8078 145.725L50.9744 146.68L60.4607 148.238C60.4607 148.238 60.5558 148.106 60.7167 147.872C56.7123 146.45 50.7513 142.302 49.987 141.326Z" fill="#8A2D04"/>
<path d="M42.0473 126.874C41.8755 126.863 41.0563 126.877 40.7491 127.093C40.4273 127.386 36.1339 131.324 38.2038 136.927C38.2843 137.15 38.4708 137.322 38.7012 137.377C38.8621 137.417 39.0778 137.435 39.3667 137.402C39.3667 137.402 39.5789 137.644 37.7394 138.989C35.8999 140.335 32.455 141.963 32.455 141.963C32.455 141.963 28.2787 143.802 27.8545 140.218C27.4302 136.634 30.0267 129.624 30.0267 129.624C30.0267 129.624 30.4509 128.326 32.316 127.949C34.1811 127.572 39.8897 126.417 40.4565 126.226C41.0234 126.036 42.4606 125.974 42.5337 126.87C42.5301 126.87 42.2192 126.885 42.0473 126.874Z" fill="#F9EDDD"/>
<path d="M56.2156 263.544C56.2156 263.544 53.6667 267.79 53.0998 271.26C52.533 274.727 50.9751 281.478 61.1672 294.171C61.1672 294.171 63.4675 297.47 58.9547 297.7C54.4419 297.931 49.8048 295.045 49.8048 295.045C49.8048 295.045 45.9833 291.717 44.5314 289.702C43.0796 287.684 39.8943 283.899 37.8427 281.774C35.7912 279.649 32.0756 275.473 32.6059 270.909C33.1362 266.345 35.6851 264.787 36.5006 263.759C37.3161 262.732 42.8017 255.443 42.8017 255.443C42.8017 255.443 52.9608 254.021 56.2156 263.544Z" fill="#A34A22"/>
<path d="M61.0933 294.069C61.2835 295.265 61.1372 297.638 56.8292 297.141C51.1206 296.479 47.438 291.619 47.438 291.619C47.438 291.619 45.9752 289.637 41.3052 284.495C36.6352 279.353 35.4284 276.995 35.337 271.399C35.2419 265.57 43.0533 257.74 43.0533 257.74C51.1024 258.929 54.9276 264.297 55.4103 265.018C55.8748 264.118 56.2185 263.544 56.2185 263.544C52.9638 254.025 42.8046 255.44 42.8046 255.44C42.8046 255.44 37.3191 262.732 36.5035 263.756C35.688 264.784 33.1428 266.338 32.6088 270.906C32.0786 275.47 35.7941 279.646 37.8457 281.771C39.8973 283.895 43.0825 287.68 44.5343 289.699C45.4705 290.997 47.3868 292.84 48.6339 293.989C49.5262 294.808 50.5355 295.495 51.6363 296.004C53.399 296.819 56.2002 297.839 58.954 297.697C63.4667 297.466 61.1665 294.168 61.1665 294.168C61.1445 294.135 61.1189 294.102 61.0933 294.069Z" fill="#8A2D04"/>
<path d="M140.517 254.694L142.78 264.462C142.78 264.462 144.481 271.893 152.193 273.381C159.91 274.866 166.207 276.248 168.719 276.991C171.232 277.733 176.044 276.991 176.044 276.991C176.044 276.991 178.074 276.801 177.131 278.995C176.187 281.189 175.408 281.975 174.487 283.076C173.565 284.18 168.965 287.428 164.814 288.126C161.252 288.836 154.764 287.984 154.764 287.984C154.764 287.984 150.306 287.395 144.927 288.031C139.547 288.668 134.925 286.404 133.886 285.53C132.848 284.656 130.394 282.154 129.78 278.878C129.165 275.597 129.472 272.909 129.403 270.927C129.165 267.837 128.2 262.129 127.326 259.792C126.452 257.455 140.517 254.694 140.517 254.694Z" fill="#A34A22"/>
<path d="M174.49 283.075C175.412 281.971 176.191 281.188 177.134 278.994C178.078 276.8 176.048 276.99 176.048 276.99C176.048 276.99 176.012 276.998 175.946 277.005C176.396 277.433 176.973 278.34 176.213 279.821C175.218 281.755 173.975 282.567 172.201 283.971C171.151 284.805 168.741 286.323 167.483 286.791C162.543 288.63 156.911 287.464 156.911 287.464C156.911 287.464 149.692 286.754 143.508 287.087C137.328 287.416 133.74 283.028 133.74 283.028C133.74 283.028 130.438 279.44 130.624 273.637C130.815 267.833 129.304 262.406 129.304 262.406C136.11 263.057 139.76 259.074 141.087 257.18L140.564 254.924L140.385 254.715C139.003 254.993 126.496 257.579 127.322 259.788C128.196 262.124 129.162 267.833 129.399 270.923C129.469 272.905 129.162 275.593 129.776 278.874C130.39 282.154 132.844 284.655 133.883 285.526C134.921 286.4 139.544 288.663 144.923 288.027C150.303 287.391 154.761 287.98 154.761 287.98C154.761 287.98 161.248 288.828 164.81 288.122C168.968 287.431 173.572 284.18 174.49 283.075Z" fill="#8A2D04"/>
<path d="M114.5 152.605C114.5 152.605 120.293 150.246 125.391 155.245C129.356 159.136 131.093 162.855 131.67 164.314C131.806 164.658 131.945 164.998 132.102 165.331C132.819 166.849 135.236 173.643 134.834 195.637C134.362 221.4 137.569 237.349 137.569 237.349C137.569 237.349 139.361 247.826 141.343 253.487C141.343 253.487 142.356 254.833 140.923 256.124C139.489 257.415 136.245 261.51 127.019 260.991C127.019 260.991 126.218 261.061 125.816 260.143C125.413 259.221 113.689 231.406 106.046 195.07C106.046 195.07 103.782 201.96 86.6745 221.642C86.6745 221.642 64.001 247.826 57.667 263.577C57.667 263.577 56.5919 267.292 54.917 265.734L55.7435 264.319C55.7435 264.319 51.7792 257.594 42.0114 256.511L41.0203 257.832C41.0203 257.832 39.7477 257.031 40.8301 255.707C41.9163 254.387 57.2026 237.352 64.5642 218.241C71.9257 199.129 77.7989 192.334 77.7989 192.334L43.9898 192.759C43.9898 192.759 6.9479 191.672 17.7068 158.737C17.7068 158.737 22.8961 151.281 30.6344 150.904C38.3726 150.527 110.193 152.605 110.193 152.605C110.193 152.605 113 152.605 114.5 152.605Z" fill="#23261B"/>
<path d="M74 101L59 146H31V153H120L137 101H74Z" fill="#535353"/>
<path d="M74.6785 102L59.9995 146H121.209L135.5 102H74.6785Z" fill="#A09D9D"/>
<path d="M67.5 123.5L86.5 146H121.212L123 140.5L85.8526 102H74.6797L67.5 123.5Z" fill="#BEBBBB"/>
<path d="M73.7678 21.8257C73.7678 21.8257 80.1566 27.7099 76.9165 39.9755C76.2436 42.5208 76.4119 45.6695 75.7499 47.5675C73.2339 54.8084 70.1803 58.1143 70.1803 58.1143C70.1803 58.1143 65.8394 63.0513 62.4421 63.9802C59.0447 64.909 58.2182 63.5413 58.2182 63.5413C58.2182 63.5413 57.015 62.5027 56.6859 64.2252C56.3568 65.9476 56.3092 67.6079 56.3092 67.6079L57.0845 68.4637L46.7535 71.5611L44.7494 68.7306C44.7494 68.7306 44.6068 46.858 44.7494 46.6934C44.892 46.5289 50.3629 30.8622 50.3629 30.8622C50.3629 30.8622 61.3011 23.3105 61.2572 23.0289C61.2133 22.7473 71.2189 20.2935 71.2189 20.2935L73.7678 21.8257Z" fill="#A34A22"/>
<path d="M58.7158 21.9429C58.8585 21.7527 68.1546 19.255 71.8336 28.6901C73.3805 32.263 72.9197 35.4482 72.9197 35.4482C72.9197 35.4482 72.7442 37.4303 71.68 38.3519C70.6194 39.2735 70.2647 39.7306 70.2647 40.5095C70.2647 41.2885 70.3013 46.8106 70.4402 48.4014C70.5829 49.9922 70.2976 50.3835 69.9465 50.4895C69.5955 50.5956 68.2826 50.9138 66.0189 50.7711C66.0189 50.7711 64.9218 50.8077 64.8158 52.1169C64.7097 53.4261 64.8267 54.121 64.8743 54.4281C64.9218 54.7353 64.9218 55.229 64.5671 55.4887C64.2123 55.7483 63.9527 55.9385 63.9527 55.9385C63.9527 55.9385 63.576 56.2676 63.8101 56.4797C64.0478 56.6918 64.4244 56.9734 64.1173 57.5403C63.8101 58.1071 63.2432 59.1457 63.0092 60.1112C62.7715 61.0803 62.7715 62.7552 62.7715 62.7552C62.7715 62.7552 62.819 63.344 61.8499 63.2489C60.8808 63.1538 53.5448 62.1408 50.5497 55.9824C47.5546 49.824 50.2681 34.4426 50.2681 34.4426L35.0732 43.1134L42.4348 70.4934L48.3299 71.0822L58.0539 68.749C58.0539 68.749 69.0945 60.7511 69.4492 60.539C69.8039 60.3269 76.1159 45.9219 76.1159 45.9219L79.4987 30.4564L77.1618 19.4159L67.1818 17.2217L58.7158 21.9429Z" fill="#8A2D04"/>
<path d="M66.0811 49.5789C66.0811 49.5789 67.1088 49.93 66.275 49.9629C65.4412 49.9958 64.7829 50.1896 64.7829 50.1896C64.7829 50.1896 64.132 50.4164 64.4611 49.429C64.5379 49.2205 64.984 49.1803 66.0811 49.5789Z" fill="#8A2D04"/>
<path d="M63.7844 33.1917C64.1209 33.1954 64.45 33.2246 64.7791 33.2831C65.6312 33.4331 67.2549 33.7805 67.9168 34.3766C68.4435 34.8849 68.129 35.1775 68.129 35.1775L67.4451 35.9308C67.4451 35.9308 67.105 36.3331 66.0042 35.9308C64.6584 35.4591 62.3948 34.1352 57.2859 34.6655C52.1771 35.1958 56.0242 34.1608 56.0242 34.1608C56.0242 34.1608 59.652 33.2831 62.4898 33.1917C62.8811 33.1844 63.4114 33.1881 63.7844 33.1917Z" fill="#23261B"/>
<path d="M76.9679 35.1557C76.3462 35.0094 75.7428 34.94 73.757 34.9875C73.4681 34.9948 72.3418 34.9729 72.5502 35.558C72.7879 36.2272 72.8501 36.8855 72.8501 36.8855C72.8501 36.8855 72.8647 37.1451 73.8923 36.9733C75.0443 36.7794 76.8106 36.176 77.5567 36.3552C77.8821 36.432 77.9224 36.2455 77.8639 36.0115C77.7578 35.5763 77.3994 35.2581 76.9679 35.1557Z" fill="#23261B"/>
<path d="M66.2823 40.8826C66.1543 40.9374 64.3551 41.7566 62.9215 41.837C61.0638 41.9431 59.8423 41.3762 59.1512 40.8826C58.6721 40.5388 57.1179 38.9004 55.9293 38.7432C55.2893 38.6554 55.4503 38.8346 55.7319 39.0175C56.1597 39.2917 56.5364 39.6319 56.8765 40.0122C57.5311 40.7509 58.6465 41.8699 59.6449 42.2503C61.1845 42.8354 62.991 43.0987 65.1852 42.5502C66.6444 42.1552 67.1235 41.9541 67.2149 41.8919C67.3063 41.8261 67.5403 41.7895 67.0064 40.9959C66.7651 40.6046 66.4103 40.8277 66.2823 40.8826Z" fill="#23261B"/>
<path d="M74.192 42.5868C73.6362 42.6819 72.8755 42.744 71.9027 41.7713C71.5334 41.3763 71.3761 41.2739 71.2554 41.2629C71.1311 41.252 70.9885 41.3653 70.8678 41.6871C70.6191 42.2284 71.058 42.5977 71.058 42.5977C71.058 42.5977 72.5647 43.9728 74.0896 43.7643C75.6146 43.5559 75.9547 42.4441 76.474 42.36C76.9933 42.2759 77.0518 42.1114 77.0518 42.1114C77.0518 42.1114 77.2273 41.8298 76.368 41.9578C75.5012 42.0931 74.7515 42.4917 74.192 42.5868Z" fill="#23261B"/>
<path d="M73.7685 21.8258C73.7685 21.8258 66.6191 20.9774 64.1433 23.8774C61.6675 26.781 61.1006 28.6205 56.3575 31.2389C51.6143 33.8574 49.6322 39.6611 49.6322 39.6611C49.6322 39.6611 46.5896 47.6589 48.4291 64.291C50.2686 80.9231 38.0249 81.9179 34.7701 81.7058C31.5154 81.4937 25.2838 80.221 22.9506 72.15C21.2721 66.35 18.3867 70.0216 16.8946 72.5449C16.3497 73.4665 15.9036 74.4466 15.5415 75.4559L11.6944 86.1636C11.6944 86.1636 10.9849 86.8731 10.5607 83.8268C10.1365 80.7842 5.2507 55.3716 21.7438 28.6169C38.237 1.86214 47.7927 0.658989 47.7927 0.658989C47.7927 0.658989 55.2238 -1.25363 60.5338 1.43793C64.3151 3.3542 67.7747 3.93933 69.4496 4.11852C70.5796 4.2392 71.684 4.53177 72.7263 4.99621C76.0066 6.45536 81.9639 10.244 83.679 18.9185C86.0853 31.0927 85.3795 42.3453 80.0696 54.5926C75.7945 64.4556 72.1594 68.2114 70.9087 69.3012C70.6454 69.5279 70.3894 69.7583 70.1371 69.996C69.3216 70.7786 66.897 72.5742 63.1522 70.8737C63.1522 70.8737 62.2087 70.1423 59.2136 70.0472C56.2185 69.9521 56.0759 66.7669 56.0759 66.7669C56.0759 66.7669 56.0759 64.0789 56.7598 63.439C57.4436 62.8026 58.1275 63.0367 58.1275 63.0367C58.1275 63.0367 60.5118 64.6421 62.3513 64.0058C64.1908 63.3695 68.4256 61.4934 73.9843 49.674C79.5393 37.8545 76.4967 27.059 76.4967 27.059C76.4967 27.059 76.248 25.4353 73.7685 21.8258Z" fill="#23261B"/>
<path d="M282.995 74.0018L282.006 73.8597L281.908 74.5418L282.51 74.8761L282.995 74.0018ZM250.79 131.398L251.285 130.529L250.618 130.15L250.079 130.695L250.79 131.398ZM202.678 130.039L203.425 129.374L202.837 128.713L202.11 129.216L202.678 130.039ZM177.89 134.992L177.697 135.973L177.724 135.978L177.751 135.982L177.89 134.992ZM151.736 108.479L152.72 108.305L152.615 107.709L152.038 107.525L151.736 108.479ZM146.401 68.0191L146.943 68.8593L149.083 67.478L146.575 67.0344L146.401 68.0191ZM156.342 57.8022L155.362 58.0035L155.856 60.4081L157.183 58.3427L156.342 57.8022ZM202.19 47.78L201.652 48.6229L202.286 49.0276L202.85 48.531L202.19 47.78ZM229.223 44.5752L228.737 45.4491L229.339 45.784L229.866 45.3406L229.223 44.5752ZM283.985 74.1439C284.187 72.736 284.288 71.3288 284.288 69.8257H282.288C282.288 71.2361 282.194 72.5483 282.006 73.8597L283.985 74.1439ZM300.976 102.749C300.976 90.0358 293.934 78.9289 283.481 73.1274L282.51 74.8761C292.356 80.3403 298.976 90.7935 298.976 102.749H300.976ZM266.99 136.574C285.788 136.574 300.976 121.466 300.976 102.749H298.976C298.976 120.353 284.692 134.574 266.99 134.574V136.574ZM250.296 132.268C255.234 135.075 260.87 136.574 266.99 136.574V134.574C261.205 134.574 255.911 133.16 251.285 130.529L250.296 132.268ZM227.369 142.11C236.815 142.11 245.365 138.308 251.501 132.101L250.079 130.695C244.31 136.531 236.269 140.11 227.369 140.11V142.11ZM201.931 130.703C208.164 137.706 217.215 142.11 227.369 142.11V140.11C217.809 140.11 209.294 135.968 203.425 129.374L201.931 130.703ZM177.751 135.982C191.233 137.87 199.581 133.395 203.247 130.861L202.11 129.216C198.749 131.539 190.897 135.804 178.029 134.001L177.751 135.982ZM150.751 108.652C153.165 122.369 163.926 133.272 177.697 135.973L178.082 134.01C165.114 131.467 154.99 121.198 152.72 108.305L150.751 108.652ZM135.023 87.0155C135.023 97.4648 141.854 106.389 151.433 109.432L152.038 107.525C143.27 104.741 137.023 96.5725 137.023 87.0155H135.023ZM145.858 67.1789C139.345 71.3832 135.023 78.6687 135.023 87.0155H137.023C137.023 79.3802 140.972 72.713 146.943 68.8593L145.858 67.1789ZM146.575 67.0344C143.01 66.4038 140.303 63.2888 140.303 59.5435H138.303C138.303 64.2758 141.723 68.2072 146.227 69.0038L146.575 67.0344ZM140.303 59.5435C140.303 55.342 143.709 51.936 147.91 51.936V49.936C142.604 49.936 138.303 54.2374 138.303 59.5435H140.303ZM147.91 51.936C151.583 51.936 154.65 54.5401 155.362 58.0035L157.321 57.601C156.422 53.2263 152.552 49.936 147.91 49.936V51.936ZM184.233 41.5357C172.155 41.5357 161.563 47.8251 155.5 57.2617L157.183 58.3427C162.895 49.4519 172.867 43.5357 184.233 43.5357V41.5357ZM202.728 46.9372C197.402 43.5368 191.068 41.5357 184.233 41.5357V43.5357C190.671 43.5357 196.634 45.4193 201.652 48.6229L202.728 46.9372ZM218 40.7588C211.689 40.7588 205.896 43.1895 201.53 47.0291L202.85 48.531C206.877 44.9897 212.209 42.7588 218 42.7588V40.7588ZM229.709 43.7012C226.234 41.7688 222.259 40.7588 218 40.7588V42.7588C221.938 42.7588 225.575 43.6911 228.737 45.4491L229.709 43.7012ZM250.205 36C241.964 36 234.417 38.9016 228.579 43.8097L229.866 45.3406C235.349 40.7312 242.441 38 250.205 38V36ZM284.288 69.8257C284.288 51.104 268.998 36 250.205 36V38C267.91 38 282.288 52.2254 282.288 69.8257H284.288Z" fill="white"/>
<circle cx="104.5" cy="40.5" r="3.5" stroke="white" stroke-width="2"/>
<circle cx="124.5" cy="45.5" r="6.5" stroke="white" stroke-width="2"/>
<path d="M174.929 74C176.169 74 177.242 74.2067 178.149 74.62C179.069 75.0333 179.776 75.62 180.269 76.38C180.762 77.14 181.009 78.04 181.009 79.08C181.009 80.1067 180.762 81.0067 180.269 81.78C179.776 82.54 179.069 83.1267 178.149 83.54C177.242 83.94 176.169 84.14 174.929 84.14H172.109V88H168.869V74H174.929ZM174.749 81.5C175.722 81.5 176.462 81.2933 176.969 80.88C177.476 80.4533 177.729 79.8533 177.729 79.08C177.729 78.2933 177.476 77.6933 176.969 77.28C176.462 76.8533 175.722 76.64 174.749 76.64H172.109V81.5H174.749ZM187.344 77.08C189.011 77.08 190.291 77.48 191.184 78.28C192.078 79.0667 192.524 80.26 192.524 81.86V88H189.604V86.66C189.018 87.66 187.924 88.16 186.324 88.16C185.498 88.16 184.778 88.02 184.164 87.74C183.564 87.46 183.104 87.0733 182.784 86.58C182.464 86.0867 182.304 85.5267 182.304 84.9C182.304 83.9 182.678 83.1133 183.424 82.54C184.184 81.9667 185.351 81.68 186.924 81.68H189.404C189.404 81 189.198 80.48 188.784 80.12C188.371 79.7467 187.751 79.56 186.924 79.56C186.351 79.56 185.784 79.6533 185.224 79.84C184.678 80.0133 184.211 80.2533 183.824 80.56L182.704 78.38C183.291 77.9667 183.991 77.6467 184.804 77.42C185.631 77.1933 186.478 77.08 187.344 77.08ZM187.104 86.06C187.638 86.06 188.111 85.94 188.524 85.7C188.938 85.4467 189.231 85.08 189.404 84.6V83.5H187.264C185.984 83.5 185.344 83.92 185.344 84.76C185.344 85.16 185.498 85.48 185.804 85.72C186.124 85.9467 186.558 86.06 187.104 86.06ZM198.968 88.16C198.075 88.16 197.202 88.0533 196.348 87.84C195.495 87.6133 194.815 87.3333 194.308 87L195.348 84.76C195.828 85.0667 196.408 85.32 197.088 85.52C197.768 85.7067 198.435 85.8 199.088 85.8C200.408 85.8 201.068 85.4733 201.068 84.82C201.068 84.5133 200.888 84.2933 200.528 84.16C200.168 84.0267 199.615 83.9133 198.868 83.82C197.988 83.6867 197.262 83.5333 196.688 83.36C196.115 83.1867 195.615 82.88 195.188 82.44C194.775 82 194.568 81.3733 194.568 80.56C194.568 79.88 194.762 79.28 195.148 78.76C195.548 78.2267 196.122 77.8133 196.868 77.52C197.628 77.2267 198.522 77.08 199.548 77.08C200.308 77.08 201.062 77.1667 201.808 77.34C202.568 77.5 203.195 77.7267 203.688 78.02L202.648 80.24C201.702 79.7067 200.668 79.44 199.548 79.44C198.882 79.44 198.382 79.5333 198.048 79.72C197.715 79.9067 197.548 80.1467 197.548 80.44C197.548 80.7733 197.728 81.0067 198.088 81.14C198.448 81.2733 199.022 81.4 199.808 81.52C200.688 81.6667 201.408 81.8267 201.968 82C202.528 82.16 203.015 82.46 203.428 82.9C203.842 83.34 204.048 83.9533 204.048 84.74C204.048 85.4067 203.848 86 203.448 86.52C203.048 87.04 202.462 87.4467 201.688 87.74C200.928 88.02 200.022 88.16 198.968 88.16ZM209.593 88.16C208.7 88.16 207.827 88.0533 206.973 87.84C206.12 87.6133 205.44 87.3333 204.933 87L205.973 84.76C206.453 85.0667 207.033 85.32 207.713 85.52C208.393 85.7067 209.06 85.8 209.713 85.8C211.033 85.8 211.693 85.4733 211.693 84.82C211.693 84.5133 211.513 84.2933 211.153 84.16C210.793 84.0267 210.24 83.9133 209.493 83.82C208.613 83.6867 207.887 83.5333 207.313 83.36C206.74 83.1867 206.24 82.88 205.813 82.44C205.4 82 205.193 81.3733 205.193 80.56C205.193 79.88 205.387 79.28 205.773 78.76C206.173 78.2267 206.747 77.8133 207.493 77.52C208.253 77.2267 209.147 77.08 210.173 77.08C210.933 77.08 211.687 77.1667 212.433 77.34C213.193 77.5 213.82 77.7267 214.313 78.02L213.273 80.24C212.327 79.7067 211.293 79.44 210.173 79.44C209.507 79.44 209.007 79.5333 208.673 79.72C208.34 79.9067 208.173 80.1467 208.173 80.44C208.173 80.7733 208.353 81.0067 208.713 81.14C209.073 81.2733 209.647 81.4 210.433 81.52C211.313 81.6667 212.033 81.8267 212.593 82C213.153 82.16 213.64 82.46 214.053 82.9C214.467 83.34 214.673 83.9533 214.673 84.74C214.673 85.4067 214.473 86 214.073 86.52C213.673 87.04 213.087 87.4467 212.313 87.74C211.553 88.02 210.647 88.16 209.593 88.16ZM233.683 77.24L229.783 88H226.783L224.363 81.32L221.863 88H218.863L214.983 77.24H217.923L220.463 84.52L223.103 77.24H225.743L228.303 84.52L230.923 77.24H233.683ZM239.96 88.16C238.827 88.16 237.807 87.9267 236.9 87.46C236.007 86.98 235.307 86.32 234.8 85.48C234.294 84.64 234.04 83.6867 234.04 82.62C234.04 81.5533 234.294 80.6 234.8 79.76C235.307 78.92 236.007 78.2667 236.9 77.8C237.807 77.32 238.827 77.08 239.96 77.08C241.094 77.08 242.107 77.32 243 77.8C243.894 78.2667 244.594 78.92 245.1 79.76C245.607 80.6 245.86 81.5533 245.86 82.62C245.86 83.6867 245.607 84.64 245.1 85.48C244.594 86.32 243.894 86.98 243 87.46C242.107 87.9267 241.094 88.16 239.96 88.16ZM239.96 85.6C240.76 85.6 241.414 85.3333 241.92 84.8C242.44 84.2533 242.7 83.5267 242.7 82.62C242.7 81.7133 242.44 80.9933 241.92 80.46C241.414 79.9133 240.76 79.64 239.96 79.64C239.16 79.64 238.5 79.9133 237.98 80.46C237.46 80.9933 237.2 81.7133 237.2 82.62C237.2 83.5267 237.46 84.2533 237.98 84.8C238.5 85.3333 239.16 85.6 239.96 85.6ZM250.926 78.66C251.299 78.14 251.799 77.7467 252.426 77.48C253.066 77.2133 253.799 77.08 254.626 77.08V79.96C254.279 79.9333 254.046 79.92 253.926 79.92C253.033 79.92 252.333 80.1733 251.826 80.68C251.319 81.1733 251.066 81.92 251.066 82.92V88H247.946V77.24H250.926V78.66ZM267.343 73.16V88H264.363V86.76C263.59 87.6933 262.47 88.16 261.003 88.16C259.99 88.16 259.07 87.9333 258.243 87.48C257.43 87.0267 256.79 86.38 256.323 85.54C255.857 84.7 255.623 83.7267 255.623 82.62C255.623 81.5133 255.857 80.54 256.323 79.7C256.79 78.86 257.43 78.2133 258.243 77.76C259.07 77.3067 259.99 77.08 261.003 77.08C262.377 77.08 263.45 77.5133 264.223 78.38V73.16H267.343ZM261.543 85.6C262.33 85.6 262.983 85.3333 263.503 84.8C264.023 84.2533 264.283 83.5267 264.283 82.62C264.283 81.7133 264.023 80.9933 263.503 80.46C262.983 79.9133 262.33 79.64 261.543 79.64C260.743 79.64 260.083 79.9133 259.563 80.46C259.043 80.9933 258.783 81.7133 258.783 82.62C258.783 83.5267 259.043 84.2533 259.563 84.8C260.083 85.3333 260.743 85.6 261.543 85.6ZM207.711 107.14C207.711 106.447 207.864 105.873 208.171 105.42C208.491 104.967 208.951 104.467 209.551 103.92C209.991 103.52 210.311 103.187 210.511 102.92C210.724 102.64 210.831 102.327 210.831 101.98C210.831 101.487 210.631 101.1 210.231 100.82C209.844 100.527 209.324 100.38 208.671 100.38C208.044 100.38 207.484 100.513 206.991 100.78C206.511 101.033 206.104 101.393 205.771 101.86L203.351 100.44C203.911 99.5867 204.664 98.9267 205.611 98.46C206.571 97.9933 207.704 97.76 209.011 97.76C210.544 97.76 211.771 98.0867 212.691 98.74C213.624 99.3933 214.091 100.3 214.091 101.46C214.091 102.007 213.998 102.487 213.811 102.9C213.638 103.313 213.418 103.667 213.151 103.96C212.898 104.24 212.564 104.567 212.151 104.94C211.658 105.38 211.298 105.753 211.071 106.06C210.844 106.353 210.731 106.713 210.731 107.14H207.711ZM209.231 112.16C208.684 112.16 208.224 111.987 207.851 111.64C207.491 111.28 207.311 110.847 207.311 110.34C207.311 109.833 207.491 109.413 207.851 109.08C208.211 108.733 208.671 108.56 209.231 108.56C209.791 108.56 210.251 108.733 210.611 109.08C210.971 109.413 211.151 109.833 211.151 110.34C211.151 110.847 210.964 111.28 210.591 111.64C210.231 111.987 209.778 112.16 209.231 112.16ZM216.11 98H219.83L219.21 107.14H216.73L216.11 98ZM217.97 112.16C217.424 112.16 216.964 111.987 216.59 111.64C216.23 111.28 216.05 110.847 216.05 110.34C216.05 109.833 216.23 109.413 216.59 109.08C216.95 108.733 217.41 108.56 217.97 108.56C218.53 108.56 218.99 108.733 219.35 109.08C219.71 109.413 219.89 109.833 219.89 110.34C219.89 110.847 219.704 111.28 219.33 111.64C218.97 111.987 218.517 112.16 217.97 112.16ZM225.192 107.14C225.192 106.447 225.345 105.873 225.652 105.42C225.972 104.967 226.432 104.467 227.032 103.92C227.472 103.52 227.792 103.187 227.992 102.92C228.205 102.64 228.312 102.327 228.312 101.98C228.312 101.487 228.112 101.1 227.712 100.82C227.325 100.527 226.805 100.38 226.152 100.38C225.525 100.38 224.965 100.513 224.472 100.78C223.992 101.033 223.585 101.393 223.252 101.86L220.832 100.44C221.392 99.5867 222.145 98.9267 223.092 98.46C224.052 97.9933 225.185 97.76 226.492 97.76C228.025 97.76 229.252 98.0867 230.172 98.74C231.105 99.3933 231.572 100.3 231.572 101.46C231.572 102.007 231.478 102.487 231.292 102.9C231.118 103.313 230.898 103.667 230.632 103.96C230.378 104.24 230.045 104.567 229.632 104.94C229.138 105.38 228.778 105.753 228.552 106.06C228.325 106.353 228.212 106.713 228.212 107.14H225.192ZM226.712 112.16C226.165 112.16 225.705 111.987 225.332 111.64C224.972 111.28 224.792 110.847 224.792 110.34C224.792 109.833 224.972 109.413 225.332 109.08C225.692 108.733 226.152 108.56 226.712 108.56C227.272 108.56 227.732 108.733 228.092 109.08C228.452 109.413 228.632 109.833 228.632 110.34C228.632 110.847 228.445 111.28 228.072 111.64C227.712 111.987 227.258 112.16 226.712 112.16Z" fill="white"/>
</svg>
