<svg width="301" height="307" viewBox="0 0 301 307" fill="none" xmlns="http://www.w3.org/2000/svg">
<path d="M167.672 277.133C167.672 277.133 177.441 275.787 179.99 275.045C182.539 274.303 185.9 272.887 186.997 277.345C188.094 281.803 186.211 285.259 185.227 286.759C184.243 288.258 180.875 293.553 166.929 294.12C166.929 294.12 162.051 294.12 156.36 293.045C155.157 292.818 153.939 292.723 152.717 292.789C151.342 292.866 149.415 293.027 147.323 293.378C143.289 294.051 136.281 295.927 131.113 289.165C125.946 282.407 130.795 277.203 130.795 277.203L167.672 277.133Z" fill="#D2AC7B"/>
<path d="M60.8529 293.762C60.8529 293.762 65.3184 298.402 68.6795 301.127C68.6795 301.127 70.6983 302.754 67.052 304.842C63.4057 306.93 56.2227 308.488 51.4426 304.667C46.6662 300.845 43.6196 298.19 40.7194 293.023C37.8192 287.855 33.0025 283.752 33.0025 283.752C33.0025 283.752 25.9585 279.258 26.807 274.054C27.6592 268.85 34.736 266.268 34.736 266.268L60.8529 293.762Z" fill="#D2AC7B"/>
<path d="M79.4392 101.077C79.4392 101.077 77.3143 90.8374 77.3874 85.5274C77.4606 80.2174 78.982 70.4093 68.31 71.1736L59.335 67.1436L32.1539 68.0468C32.1539 68.0468 20.0007 63.9071 16.4494 73.3605C12.8982 82.8175 4.31081 102.774 0.156116 143.261C0.156116 143.261 -0.977649 158.927 3.08196 159.871C7.14157 160.814 8.18025 162.135 18.4646 156.097C18.4646 156.097 16.5774 159.235 16.625 162.621C16.6725 166.007 83.1148 160.485 83.1148 160.485L79.4392 101.077ZM22.6193 133.73L15.3522 138.73C19.7885 133.069 21.8659 122.591 21.8659 122.591C23.3763 128.538 22.6193 133.73 22.6193 133.73Z" fill="#F2DABE"/>
<path d="M42.7717 136.948C42.7717 136.948 42.9144 143.992 43.4812 146.504C44.048 149.016 44.2967 146.328 44.2967 146.328L43.3751 136.948H42.7717Z" fill="#D2AC7B"/>
<path d="M38.5693 151.471C30.6402 146.091 30.5451 128.852 30.5451 128.852C30.5451 128.852 34.3195 118.25 28.8445 109.945C23.3695 101.64 27.4291 92.695 27.4291 92.695C24.88 97.7161 23.2305 108.954 20.824 121.271C18.4175 133.588 12.9901 140.781 13.4143 140.452C13.8386 140.123 22.6161 133.727 22.6161 133.727L15.3527 138.73C19.789 133.068 21.8664 122.591 21.8664 122.591C23.3768 128.537 22.6198 133.727 22.6198 133.727L30.3696 128.925L28.7531 140.617L20.4473 148.238C20.4473 148.238 -1.07227 172.327 2.23028 136.747C5.53283 101.168 13.0852 86.7048 15.4441 81.9873C17.8031 77.2697 20.4693 76.915 20.4693 76.915C20.4693 76.915 22.1699 76.6078 23.5121 77.9536C24.858 79.2994 28.2301 81.2083 28.2301 81.2083C28.2301 81.2083 30.1648 82.342 35.6873 82.5285C41.2098 82.7187 44.655 77.917 44.9476 77.4453C45.2439 76.9735 45.3024 77.1637 45.3024 77.1637C45.3024 77.1637 45.2804 77.2697 45.584 77.5989C46.2569 78.5204 47.3651 76.9845 47.3651 76.9845L49.607 74.7427C49.607 74.7427 50.3604 82.3383 50.8322 89.0892C51.304 95.8364 51.304 98.7145 50.8907 104.379C50.4775 110.04 47.0579 117.263 45.4999 121.461C43.9418 125.659 44.0369 127.854 44.0369 127.854L46.374 129.126L52.3939 107.678L53.5935 89.6999L53.8056 74.377L55.7184 76.3957C55.7184 76.3957 56.4608 77.1746 57.2874 76.9625C58.7503 76.3957 62.4405 70.7676 62.4405 70.7676L63.2451 68.8988L50.0788 71.5575C50.0788 71.5575 41.4073 69.7948 32.67 68.0248L32.1434 68.0431C32.1434 68.0431 19.9902 63.9033 16.4389 73.3567C12.8877 82.8138 4.30032 102.77 0.145618 143.257C0.145618 143.257 -0.988147 158.924 3.07146 159.867C7.13107 160.811 8.16975 162.131 18.4541 156.093C18.4541 156.093 16.5669 159.231 16.6145 162.617C16.6181 163.005 17.4922 163.275 19.0283 163.451C29.1298 160.419 43.9492 155.12 38.5693 151.471Z" fill="#D2AC7B"/>
<path d="M57.9204 66.3462C57.9204 66.3462 54.157 70.7639 44.3298 69.3669C44.3298 69.3669 41.8758 69.0853 42.4427 70.5006C43.0096 71.9159 45.4636 76.7285 45.4636 76.7285C45.4636 76.7285 45.8878 78.2864 46.9741 77.0101C48.0603 75.7374 49.7353 74.1064 49.9219 74.1064C50.112 74.1064 50.1376 74.6001 50.1376 74.6001C50.1376 74.6001 50.6058 84.3205 51.1251 88.3322C51.6444 92.3439 52.9172 100.177 50.5107 108.53C48.1042 116.883 40.2922 128.208 43.9751 147.389H48.2212C48.2212 147.389 45.7525 134.531 50.1376 122.591C54.5227 110.651 57.3498 108.822 55.5834 88.0725L54.0253 73.4225C54.0253 73.4225 54.0071 73.2104 54.3984 73.7224C54.7897 74.2344 56.0808 75.6679 56.2929 76.041C56.505 76.414 57.0536 76.8894 57.8143 76.0775C58.575 75.262 60.9889 73.375 62.2616 69.8387C63.5344 66.2987 57.9204 66.3462 57.9204 66.3462Z" fill="#F9EDDD"/>
<path d="M46.363 91.3127C46.363 91.3127 47.4455 91.4553 47.2846 92.4793C47.1237 93.5069 46.9993 94.8234 46.9993 94.8234C46.9993 94.8234 47.0542 95.3464 45.957 95.0648C44.8781 94.7869 39.9042 93.3606 32.5274 93.7849C32.3409 93.7958 32.1543 93.8287 31.9715 93.8653C31.7776 93.9019 31.5362 93.8909 31.6935 93.5252C31.9422 92.9584 32.7541 90.6215 32.7541 90.6215C32.7541 90.6215 32.542 90.3217 33.8148 90.2485C35.0912 90.1827 42.7349 90.4826 46.363 91.3127Z" fill="#F9EDDD"/>
<path d="M65.4942 88.4458C65.4942 88.4458 69.5827 88.0911 70.3946 88.1642C71.2101 88.2337 71.3161 88.6433 71.3856 88.8883C71.4551 89.1333 71.8793 90.6217 71.8793 90.6217C71.8793 90.6217 72.2669 91.3458 71.1698 91.3641C70.0727 91.3824 66.072 91.4007 61.6323 93.1341C61.6323 93.1341 61.0655 93.5766 60.8717 92.6039C60.6779 91.6311 60.7656 91.2434 60.5718 90.6949C60.5718 90.6949 59.9465 89.8209 61.0545 89.5393C62.1626 89.2577 63.4535 88.7018 65.4942 88.4458Z" fill="#F9EDDD"/>
<path d="M41.06 126.877C41.06 126.877 48.0089 126.899 53.813 126.365C59.6172 125.835 61.0691 128.135 61.0691 128.135C61.0691 128.135 63.4171 130.088 64.8434 135.146C66.2698 140.203 60.4656 148.238 60.4656 148.238L50.9786 146.68L49.8119 145.725C49.8119 145.725 49.2158 144.716 47.7272 143.432C46.2387 142.149 43.2836 139.541 42.3547 137.501C42.3547 137.501 42.2194 137.332 41.06 137.336C39.9006 137.336 37.8489 137.577 37.5673 137.263C37.2856 136.948 36.5761 131.675 36.7517 131.287C36.9309 130.9 35.958 126.957 41.06 126.877Z" fill="#A34A22"/>
<path d="M49.991 141.326C49.1425 140.24 47.9612 139.863 47.9612 139.863C47.9612 139.863 43.0531 137.267 41.5646 131.982C40.8038 129.276 41.3086 127.737 41.9852 126.874C41.3963 126.877 41.0599 126.877 41.0599 126.877C35.9579 126.958 36.9308 130.896 36.7516 131.288C36.576 131.675 37.2819 136.949 37.5671 137.263C37.8487 137.578 39.9041 137.34 41.0599 137.336C42.2192 137.336 42.3545 137.501 42.3545 137.501C43.2835 139.541 46.2386 142.149 47.7271 143.433C49.2156 144.716 49.8118 145.725 49.8118 145.725L50.9785 146.68L60.4655 148.238C60.4655 148.238 60.5606 148.106 60.7215 147.872C56.7168 146.45 50.7554 142.302 49.991 141.326Z" fill="#8A2D04"/>
<path d="M42.0507 126.874C41.8788 126.863 41.0595 126.877 40.7523 127.093C40.4305 127.386 36.1368 131.324 38.2068 136.927C38.2873 137.15 38.4738 137.322 38.7042 137.377C38.8652 137.417 39.0809 137.435 39.3699 137.402C39.3699 137.402 39.582 137.644 37.7424 138.989C35.9027 140.335 32.4575 141.963 32.4575 141.963C32.4575 141.963 28.2809 143.802 27.8567 140.218C27.4324 136.634 30.0291 129.624 30.0291 129.624C30.0291 129.624 30.4534 128.326 32.3186 127.949C34.1838 127.572 39.8929 126.417 40.4597 126.226C41.0266 126.036 42.4639 125.974 42.5371 126.87C42.5334 126.87 42.2226 126.885 42.0507 126.874Z" fill="#F9EDDD"/>
<path d="M56.2202 263.544C56.2202 263.544 53.671 267.79 53.1041 271.26C52.5372 274.727 50.9792 281.478 61.1721 294.171C61.1721 294.171 63.4726 297.47 58.9595 297.7C54.4464 297.931 49.8089 295.045 49.8089 295.045C49.8089 295.045 45.987 291.717 44.5351 289.702C43.0831 287.684 39.8976 283.899 37.8459 281.774C35.7941 279.649 32.0783 275.473 32.6086 270.909C33.1389 266.345 35.688 264.787 36.5036 263.759C37.3192 262.732 42.8052 255.443 42.8052 255.443C42.8052 255.443 52.9651 254.021 56.2202 263.544Z" fill="#A34A22"/>
<path d="M61.0983 294.069C61.2884 295.264 61.1422 297.638 56.8339 297.141C51.1248 296.479 47.4419 291.618 47.4419 291.618C47.4419 291.618 45.979 289.636 41.3086 284.495C36.6382 279.353 35.4313 276.994 35.3399 271.399C35.2448 265.57 43.0568 257.74 43.0568 257.74C51.1065 258.928 54.9321 264.297 55.4148 265.017C55.8793 264.118 56.2231 263.544 56.2231 263.544C52.9681 254.024 42.8081 255.44 42.8081 255.44C42.8081 255.44 37.3221 262.732 36.5065 263.756C35.691 264.783 33.1455 266.337 32.6115 270.905C32.0812 275.469 35.797 279.645 37.8488 281.77C39.9005 283.895 43.086 287.68 44.538 289.698C45.4743 290.997 47.3907 292.84 48.6378 293.988C49.5302 294.807 50.5396 295.495 51.6405 296.003C53.4033 296.819 56.2048 297.839 58.9587 297.696C63.4719 297.466 61.1714 294.167 61.1714 294.167C61.1495 294.134 61.1239 294.102 61.0983 294.069Z" fill="#8A2D04"/>
<path d="M140.528 254.694L142.792 264.462C142.792 264.462 144.492 271.893 152.206 273.381C159.923 274.866 166.22 276.248 168.733 276.991C171.246 277.733 176.059 276.991 176.059 276.991C176.059 276.991 178.088 276.801 177.145 278.995C176.201 281.189 175.422 281.975 174.501 283.076C173.579 284.18 168.978 287.428 164.827 288.126C161.265 288.836 154.777 287.984 154.777 287.984C154.777 287.984 150.318 287.395 144.939 288.031C139.559 288.668 134.936 286.404 133.897 285.53C132.859 284.656 130.404 282.154 129.79 278.878C129.176 275.597 129.483 272.909 129.413 270.927C129.176 267.837 128.21 262.129 127.336 259.792C126.462 257.455 140.528 254.694 140.528 254.694Z" fill="#A34A22"/>
<path d="M174.504 283.075C175.426 281.971 176.205 281.188 177.148 278.994C178.092 276.8 176.062 276.99 176.062 276.99C176.062 276.99 176.026 276.998 175.96 277.005C176.41 277.433 176.987 278.34 176.227 279.821C175.232 281.755 173.988 282.567 172.215 283.971C171.165 284.805 168.755 286.323 167.497 286.791C162.556 288.63 156.923 287.464 156.923 287.464C156.923 287.464 149.704 286.754 143.519 287.087C137.339 287.416 133.751 283.028 133.751 283.028C133.751 283.028 130.448 279.44 130.635 273.637C130.825 267.833 129.314 262.406 129.314 262.406C136.121 263.057 139.771 259.074 141.098 257.18L140.575 254.924L140.396 254.715C139.014 254.993 126.506 257.579 127.332 259.788C128.206 262.124 129.172 267.833 129.41 270.923C129.479 272.905 129.172 275.593 129.786 278.874C130.401 282.154 132.855 284.655 133.893 285.526C134.932 286.4 139.555 288.663 144.935 288.027C150.315 287.391 154.773 287.98 154.773 287.98C154.773 287.98 161.261 288.828 164.823 288.122C168.982 287.431 173.586 284.18 174.504 283.075Z" fill="#8A2D04"/>
<path d="M114.509 152.605C114.509 152.605 120.303 150.246 125.401 155.245C129.366 159.136 131.103 162.855 131.681 164.314C131.816 164.658 131.955 164.998 132.112 165.331C132.829 166.849 135.247 173.643 134.844 195.637C134.373 221.4 137.58 237.349 137.58 237.349C137.58 237.349 139.372 247.826 141.354 253.487C141.354 253.487 142.367 254.833 140.934 256.124C139.5 257.415 136.256 261.51 127.029 260.991C127.029 260.991 126.228 261.061 125.825 260.143C125.423 259.221 113.698 231.406 106.054 195.07C106.054 195.07 103.79 201.96 86.6813 221.642C86.6813 221.642 64.006 247.826 57.6716 263.577C57.6716 263.577 56.5963 267.292 54.9213 265.734L55.7478 264.319C55.7478 264.319 51.7833 257.594 42.0147 256.511L41.0235 257.832C41.0235 257.832 39.7508 257.031 40.8334 255.707C41.9196 254.387 57.2071 237.352 64.5693 218.241C71.9314 199.129 77.8051 192.334 77.8051 192.334L43.9933 192.759C43.9933 192.759 6.94842 191.672 17.7082 158.737C17.7082 158.737 22.8979 151.281 30.6368 150.904C38.3756 150.527 110.201 152.605 110.201 152.605C110.201 152.605 113.009 152.605 114.509 152.605Z" fill="#23261B"/>
<path d="M74.0059 101L59.0047 146H31.0024V153H120.009L137.011 101H74.0059Z" fill="#535353"/>
<path d="M74.6845 102L60.0044 146H121.219L135.511 102H74.6845Z" fill="#A09D9D"/>
<path d="M67.5054 123.5L86.5069 146H121.222L123.01 140.5L85.8594 102H74.6856L67.5054 123.5Z" fill="#BEBBBB"/>
<path d="M73.7728 21.8257C73.7728 21.8257 80.1621 27.7099 76.9218 39.9755C76.2488 42.5208 76.4171 45.6695 75.7551 47.5675C73.2389 54.8084 70.185 58.1143 70.185 58.1143C70.185 58.1143 65.8438 63.0513 62.4461 63.9802C59.0485 64.909 58.222 63.5413 58.222 63.5413C58.222 63.5413 57.0187 62.5027 56.6896 64.2252C56.3604 65.9476 56.3129 67.6079 56.3129 67.6079L57.0882 68.4637L46.7563 71.5611L44.7521 68.7306C44.7521 68.7306 44.6095 46.858 44.7521 46.6934C44.8947 46.5289 50.3661 30.8622 50.3661 30.8622C50.3661 30.8622 61.3051 23.3105 61.2612 23.0289C61.2173 22.7473 71.2237 20.2935 71.2237 20.2935L73.7728 21.8257Z" fill="#A34A22"/>
<path d="M58.7204 21.9429C58.863 21.7527 68.1599 19.255 71.8392 28.6901C73.3862 32.263 72.9254 35.4482 72.9254 35.4482C72.9254 35.4482 72.7498 37.4303 71.6856 38.3519C70.6249 39.2735 70.2702 39.7306 70.2702 40.5095C70.2702 41.2885 70.3068 46.8106 70.4457 48.4014C70.5884 49.9922 70.3031 50.3835 69.952 50.4895C69.6009 50.5956 68.2879 50.9138 66.024 50.7711C66.024 50.7711 64.9269 50.8077 64.8208 52.1169C64.7147 53.4261 64.8318 54.121 64.8793 54.4281C64.9269 54.7353 64.9269 55.229 64.5721 55.4887C64.2173 55.7483 63.9577 55.9385 63.9577 55.9385C63.9577 55.9385 63.581 56.2676 63.815 56.4797C64.0528 56.6918 64.4295 56.9734 64.1223 57.5403C63.815 58.1071 63.2482 59.1457 63.0141 60.1112C62.7764 61.0803 62.7764 62.7552 62.7764 62.7552C62.7764 62.7552 62.8239 63.344 61.8547 63.2489C60.8855 63.1538 53.549 62.1408 50.5536 55.9824C47.5583 49.824 50.272 34.4426 50.272 34.4426L35.0759 43.1134L42.4381 70.4934L48.3337 71.0822L58.0584 68.749C58.0584 68.749 69.0998 60.7511 69.4546 60.539C69.8094 60.3269 76.1219 45.9219 76.1219 45.9219L79.5049 30.4564L77.1679 19.4159L67.1871 17.2217L58.7204 21.9429Z" fill="#8A2D04"/>
<path d="M66.0863 49.5789C66.0863 49.5789 67.1139 49.93 66.2801 49.9629C65.4463 49.9958 64.788 50.1896 64.788 50.1896C64.788 50.1896 64.1371 50.4164 64.4662 49.429C64.543 49.2205 64.9892 49.1803 66.0863 49.5789Z" fill="#8A2D04"/>
<path d="M63.7895 33.1917C64.126 33.1954 64.4552 33.2246 64.7843 33.2831C65.6365 33.4331 67.2603 33.7805 67.9223 34.3766C68.4489 34.8849 68.1344 35.1775 68.1344 35.1775L67.4505 35.9308C67.4505 35.9308 67.1104 36.3331 66.0095 35.9308C64.6636 35.4591 62.3998 34.1352 57.2905 34.6655C52.1813 35.1958 56.0287 34.1608 56.0287 34.1608C56.0287 34.1608 59.6568 33.2831 62.4949 33.1917C62.8862 33.1844 63.4165 33.1881 63.7895 33.1917Z" fill="#23261B"/>
<path d="M76.9737 35.1557C76.3521 35.0094 75.7486 34.94 73.7629 34.9875C73.474 34.9948 72.3476 34.9729 72.5561 35.558C72.7938 36.2272 72.856 36.8855 72.856 36.8855C72.856 36.8855 72.8706 37.1451 73.8982 36.9733C75.0502 36.7794 76.8165 36.176 77.5625 36.3552C77.888 36.432 77.9282 36.2455 77.8697 36.0115C77.7637 35.5763 77.4053 35.2581 76.9737 35.1557Z" fill="#23261B"/>
<path d="M66.2867 40.8826C66.1587 40.9374 64.3595 41.7566 62.9259 41.837C61.0682 41.9431 59.8467 41.3763 59.1555 40.8826C58.6765 40.5388 57.1222 38.9004 55.9337 38.7432C55.2937 38.6554 55.4547 38.8346 55.7362 39.0175C56.1641 39.2917 56.5408 39.6319 56.8809 40.0122C57.5355 40.7509 58.6509 41.8699 59.6492 42.2503C61.1888 42.8354 62.9954 43.0987 65.1896 42.5502C66.6488 42.1552 67.1278 41.9541 67.2193 41.8919C67.3107 41.8261 67.5447 41.7895 67.0108 40.9959C66.7695 40.6046 66.4147 40.8277 66.2867 40.8826Z" fill="#23261B"/>
<path d="M74.1976 42.5868C73.6418 42.6819 72.8811 42.744 71.9084 41.7713C71.539 41.3763 71.3817 41.2739 71.2611 41.2629C71.1367 41.252 70.9941 41.3653 70.8734 41.6871C70.6247 42.2284 71.0636 42.5977 71.0636 42.5977C71.0636 42.5977 72.5703 43.9728 74.0952 43.7643C75.6202 43.5559 75.9603 42.4441 76.4796 42.36C76.9989 42.2759 77.0574 42.1114 77.0574 42.1114C77.0574 42.1114 77.233 41.8298 76.3736 41.9578C75.5069 42.0931 74.7572 42.4917 74.1976 42.5868Z" fill="#23261B"/>
<path d="M73.7736 21.8258C73.7736 21.8258 66.6236 20.9774 64.1476 23.8774C61.6716 26.781 61.1047 28.6205 56.3612 31.2389C51.6177 33.8574 49.6354 39.6611 49.6354 39.6611C49.6354 39.6611 46.5925 47.6589 48.4322 64.291C50.2718 80.9231 38.0271 81.9179 34.7721 81.7058C31.5171 81.4937 25.2851 80.221 22.9517 72.15C21.273 66.35 18.3874 70.0216 16.8952 72.5449C16.3503 73.4665 15.9041 74.4466 15.542 75.4559L11.6945 86.1636C11.6945 86.1636 10.985 86.8731 10.5608 83.8268C10.1365 80.7842 5.25036 55.3716 21.7448 28.6169C38.2392 1.86214 47.7958 0.658989 47.7958 0.658989C47.7958 0.658989 55.2274 -1.25363 60.5378 1.43793C64.3195 3.3542 67.7793 3.93933 69.4543 4.11852C70.5844 4.2392 71.689 4.53177 72.7313 4.99621C76.0119 6.45536 81.9696 10.244 83.6849 18.9185C86.0914 31.0927 85.3856 42.3453 80.0752 54.5926C75.7998 64.4556 72.1644 68.2114 70.9136 69.3012C70.6503 69.5279 70.3943 69.7583 70.1419 69.996C69.3263 70.7786 66.9015 72.5742 63.1565 70.8737C63.1565 70.8737 62.2129 70.1423 59.2175 70.0472C56.2222 69.9521 56.0796 66.7669 56.0796 66.7669C56.0796 66.7669 56.0796 64.0789 56.7635 63.439C57.4474 62.8026 58.1313 63.0367 58.1313 63.0367C58.1313 63.0367 60.5159 64.6421 62.3555 64.0058C64.1951 63.3695 68.4303 61.4934 73.9894 49.674C79.5448 37.8545 76.502 27.059 76.502 27.059C76.502 27.059 76.2533 25.4353 73.7736 21.8258Z" fill="#23261B"/>
<g filter="url(#filter0_f)">
<path d="M173.901 71.84H179.161C179.894 71.84 180.587 71.9067 181.241 72.04C181.894 72.1733 182.461 72.4067 182.941 72.74C183.434 73.06 183.821 73.5 184.101 74.06C184.394 74.6067 184.541 75.3 184.541 76.14C184.541 76.9667 184.407 77.66 184.141 78.22C183.874 78.78 183.507 79.2267 183.041 79.56C182.574 79.8933 182.021 80.1333 181.381 80.28C180.741 80.4133 180.047 80.48 179.301 80.48H177.021V86H173.901V71.84ZM177.021 77.84H179.101C179.381 77.84 179.647 77.8133 179.901 77.76C180.167 77.7067 180.401 77.62 180.601 77.5C180.814 77.3667 180.981 77.1933 181.101 76.98C181.234 76.7533 181.301 76.4733 181.301 76.14C181.301 75.78 181.214 75.4933 181.041 75.28C180.881 75.0533 180.667 74.88 180.401 74.76C180.147 74.64 179.861 74.5667 179.541 74.54C179.221 74.5 178.914 74.48 178.621 74.48H177.021V77.84ZM192.218 84.78H192.178C191.845 85.3 191.398 85.6733 190.838 85.9C190.292 86.1267 189.712 86.24 189.098 86.24C188.645 86.24 188.205 86.1733 187.778 86.04C187.365 85.92 186.998 85.7333 186.678 85.48C186.358 85.2267 186.105 84.9133 185.918 84.54C185.732 84.1667 185.638 83.7333 185.638 83.24C185.638 82.68 185.738 82.2067 185.938 81.82C186.152 81.4333 186.432 81.1133 186.778 80.86C187.138 80.6067 187.545 80.4133 187.998 80.28C188.452 80.1333 188.918 80.0267 189.398 79.96C189.892 79.8933 190.378 79.8533 190.858 79.84C191.352 79.8267 191.805 79.82 192.218 79.82C192.218 79.2867 192.025 78.8667 191.638 78.56C191.265 78.24 190.818 78.08 190.298 78.08C189.805 78.08 189.352 78.1867 188.938 78.4C188.538 78.6 188.178 78.88 187.858 79.24L186.258 77.6C186.818 77.08 187.472 76.6933 188.218 76.44C188.965 76.1733 189.738 76.04 190.538 76.04C191.418 76.04 192.138 76.1533 192.698 76.38C193.272 76.5933 193.725 76.9133 194.058 77.34C194.405 77.7667 194.645 78.2933 194.778 78.92C194.912 79.5333 194.978 80.2467 194.978 81.06V86H192.218V84.78ZM191.478 81.74C191.252 81.74 190.965 81.7533 190.618 81.78C190.285 81.7933 189.958 81.8467 189.638 81.94C189.332 82.0333 189.065 82.1733 188.838 82.36C188.625 82.5467 188.518 82.8067 188.518 83.14C188.518 83.5 188.672 83.7667 188.978 83.94C189.285 84.1133 189.605 84.2 189.938 84.2C190.232 84.2 190.512 84.16 190.778 84.08C191.058 84 191.305 83.8867 191.518 83.74C191.732 83.5933 191.898 83.4067 192.018 83.18C192.152 82.9533 192.218 82.6867 192.218 82.38V81.74H191.478ZM202.361 79.14C201.921 78.5933 201.341 78.32 200.621 78.32C200.367 78.32 200.121 78.38 199.881 78.5C199.641 78.62 199.521 78.8267 199.521 79.12C199.521 79.36 199.641 79.54 199.881 79.66C200.134 79.7667 200.447 79.8667 200.821 79.96C201.207 80.04 201.614 80.1333 202.041 80.24C202.481 80.3333 202.887 80.4867 203.261 80.7C203.647 80.9133 203.961 81.2067 204.201 81.58C204.454 81.94 204.581 82.4267 204.581 83.04C204.581 83.6667 204.441 84.1867 204.161 84.6C203.894 85 203.547 85.3267 203.121 85.58C202.694 85.82 202.214 85.9867 201.681 86.08C201.147 86.1867 200.621 86.24 200.101 86.24C199.421 86.24 198.734 86.1467 198.041 85.96C197.347 85.76 196.761 85.4133 196.281 84.92L198.101 82.9C198.381 83.2467 198.687 83.5133 199.021 83.7C199.367 83.8733 199.767 83.96 200.221 83.96C200.567 83.96 200.881 83.9133 201.161 83.82C201.441 83.7133 201.581 83.5267 201.581 83.26C201.581 83.0067 201.454 82.82 201.201 82.7C200.961 82.5667 200.647 82.46 200.261 82.38C199.887 82.2867 199.481 82.1933 199.041 82.1C198.614 81.9933 198.207 81.84 197.821 81.64C197.447 81.44 197.134 81.16 196.881 80.8C196.641 80.4267 196.521 79.9333 196.521 79.32C196.521 78.7467 196.634 78.2533 196.861 77.84C197.101 77.4267 197.407 77.0867 197.781 76.82C198.167 76.5533 198.607 76.36 199.101 76.24C199.594 76.1067 200.094 76.04 200.601 76.04C201.241 76.04 201.887 76.1333 202.541 76.32C203.194 76.5067 203.747 76.84 204.201 77.32L202.361 79.14ZM211.618 79.14C211.178 78.5933 210.598 78.32 209.878 78.32C209.625 78.32 209.378 78.38 209.138 78.5C208.898 78.62 208.778 78.8267 208.778 79.12C208.778 79.36 208.898 79.54 209.138 79.66C209.392 79.7667 209.705 79.8667 210.078 79.96C210.465 80.04 210.872 80.1333 211.298 80.24C211.738 80.3333 212.145 80.4867 212.518 80.7C212.905 80.9133 213.218 81.2067 213.458 81.58C213.712 81.94 213.838 82.4267 213.838 83.04C213.838 83.6667 213.698 84.1867 213.418 84.6C213.152 85 212.805 85.3267 212.378 85.58C211.952 85.82 211.472 85.9867 210.938 86.08C210.405 86.1867 209.878 86.24 209.358 86.24C208.678 86.24 207.992 86.1467 207.298 85.96C206.605 85.76 206.018 85.4133 205.538 84.92L207.358 82.9C207.638 83.2467 207.945 83.5133 208.278 83.7C208.625 83.8733 209.025 83.96 209.478 83.96C209.825 83.96 210.138 83.9133 210.418 83.82C210.698 83.7133 210.838 83.5267 210.838 83.26C210.838 83.0067 210.712 82.82 210.458 82.7C210.218 82.5667 209.905 82.46 209.518 82.38C209.145 82.2867 208.738 82.1933 208.298 82.1C207.872 81.9933 207.465 81.84 207.078 81.64C206.705 81.44 206.392 81.16 206.138 80.8C205.898 80.4267 205.778 79.9333 205.778 79.32C205.778 78.7467 205.892 78.2533 206.118 77.84C206.358 77.4267 206.665 77.0867 207.038 76.82C207.425 76.5533 207.865 76.36 208.358 76.24C208.852 76.1067 209.352 76.04 209.858 76.04C210.498 76.04 211.145 76.1333 211.798 76.32C212.452 76.5067 213.005 76.84 213.458 77.32L211.618 79.14ZM214.216 76.28H217.416L219.396 82.38H219.436L221.096 76.28H224.376L226.176 82.38H226.216L228.036 76.28H231.076L227.616 86H224.656L222.636 79.54H222.596L220.796 86H217.776L214.216 76.28ZM231.676 81.14C231.676 80.3667 231.816 79.6667 232.096 79.04C232.376 78.4133 232.756 77.88 233.236 77.44C233.73 76.9867 234.303 76.64 234.956 76.4C235.623 76.16 236.33 76.04 237.076 76.04C237.823 76.04 238.523 76.16 239.176 76.4C239.843 76.64 240.416 76.9867 240.896 77.44C241.39 77.88 241.776 78.4133 242.056 79.04C242.336 79.6667 242.476 80.3667 242.476 81.14C242.476 81.9133 242.336 82.6133 242.056 83.24C241.776 83.8667 241.39 84.4067 240.896 84.86C240.416 85.3 239.843 85.64 239.176 85.88C238.523 86.12 237.823 86.24 237.076 86.24C236.33 86.24 235.623 86.12 234.956 85.88C234.303 85.64 233.73 85.3 233.236 84.86C232.756 84.4067 232.376 83.8667 232.096 83.24C231.816 82.6133 231.676 81.9133 231.676 81.14ZM234.676 81.14C234.676 81.8733 234.883 82.4667 235.296 82.92C235.723 83.3733 236.316 83.6 237.076 83.6C237.836 83.6 238.423 83.3733 238.836 82.92C239.263 82.4667 239.476 81.8733 239.476 81.14C239.476 80.4067 239.263 79.8133 238.836 79.36C238.423 78.9067 237.836 78.68 237.076 78.68C236.316 78.68 235.723 78.9067 235.296 79.36C234.883 79.8133 234.676 80.4067 234.676 81.14ZM244.243 76.28H247.243V77.84H247.283C247.603 77.24 247.983 76.7933 248.423 76.5C248.863 76.1933 249.417 76.04 250.083 76.04C250.257 76.04 250.43 76.0467 250.603 76.06C250.777 76.0733 250.937 76.1 251.083 76.14V78.88C250.87 78.8133 250.657 78.7667 250.443 78.74C250.243 78.7 250.03 78.68 249.803 78.68C249.23 78.68 248.777 78.76 248.443 78.92C248.11 79.08 247.85 79.3067 247.663 79.6C247.49 79.88 247.377 80.22 247.323 80.62C247.27 81.02 247.243 81.46 247.243 81.94V86H244.243V76.28ZM262.236 86H259.476V84.72H259.436C259.316 84.8933 259.156 85.0733 258.956 85.26C258.77 85.4333 258.543 85.5933 258.276 85.74C258.023 85.8867 257.736 86.0067 257.416 86.1C257.11 86.1933 256.79 86.24 256.456 86.24C255.736 86.24 255.083 86.12 254.496 85.88C253.91 85.6267 253.403 85.28 252.976 84.84C252.563 84.3867 252.243 83.8533 252.016 83.24C251.79 82.6267 251.676 81.9533 251.676 81.22C251.676 80.54 251.776 79.8933 251.976 79.28C252.19 78.6533 252.483 78.1 252.856 77.62C253.243 77.14 253.71 76.76 254.256 76.48C254.803 76.1867 255.423 76.04 256.116 76.04C256.743 76.04 257.323 76.14 257.856 76.34C258.403 76.5267 258.85 76.8533 259.196 77.32H259.236V70.88H262.236V86ZM259.476 81.14C259.476 80.4067 259.263 79.8133 258.836 79.36C258.423 78.9067 257.836 78.68 257.076 78.68C256.316 78.68 255.723 78.9067 255.296 79.36C254.883 79.8133 254.676 80.4067 254.676 81.14C254.676 81.8733 254.883 82.4667 255.296 82.92C255.723 83.3733 256.316 83.6 257.076 83.6C257.836 83.6 258.423 83.3733 258.836 82.92C259.263 82.4667 259.476 81.8733 259.476 81.14ZM203.781 107.44C203.781 107.04 203.834 106.7 203.941 106.42C204.047 106.14 204.227 105.88 204.481 105.64C204.854 105.28 205.194 104.967 205.501 104.7C205.821 104.433 206.094 104.187 206.321 103.96C206.547 103.72 206.721 103.5 206.841 103.3C206.974 103.087 207.041 102.867 207.041 102.64C207.041 102.2 206.901 101.86 206.621 101.62C206.354 101.367 206.014 101.24 205.601 101.24C204.974 101.24 204.494 101.413 204.161 101.76C203.841 102.107 203.661 102.527 203.621 103.02L200.541 102.82C200.687 101.407 201.207 100.333 202.101 99.6C202.994 98.8533 204.141 98.48 205.541 98.48C206.154 98.48 206.727 98.5667 207.261 98.74C207.807 98.9 208.287 99.1467 208.701 99.48C209.114 99.8133 209.441 100.227 209.681 100.72C209.921 101.213 210.041 101.78 210.041 102.42C210.041 102.807 210.001 103.16 209.921 103.48C209.841 103.787 209.701 104.093 209.501 104.4C209.314 104.707 209.061 105.02 208.741 105.34C208.434 105.647 208.041 105.987 207.561 106.36C207.254 106.6 207.047 106.833 206.941 107.06C206.834 107.287 206.781 107.513 206.781 107.74V108.32H203.781V107.44ZM203.441 111.28C203.441 111.027 203.487 110.787 203.581 110.56C203.674 110.333 203.801 110.14 203.961 109.98C204.134 109.807 204.334 109.673 204.561 109.58C204.787 109.487 205.027 109.44 205.281 109.44C205.534 109.44 205.774 109.487 206.001 109.58C206.227 109.673 206.421 109.807 206.581 109.98C206.754 110.14 206.887 110.333 206.981 110.56C207.074 110.787 207.121 111.027 207.121 111.28C207.121 111.533 207.074 111.773 206.981 112C206.887 112.227 206.754 112.427 206.581 112.6C206.421 112.76 206.227 112.887 206.001 112.98C205.774 113.073 205.534 113.12 205.281 113.12C205.027 113.12 204.787 113.073 204.561 112.98C204.334 112.887 204.134 112.76 203.961 112.6C203.801 112.427 203.674 112.227 203.581 112C203.487 111.773 203.441 111.533 203.441 111.28ZM219.514 108.32H216.514V98.84H219.514V108.32ZM216.174 111.28C216.174 111.027 216.221 110.787 216.314 110.56C216.407 110.333 216.534 110.14 216.694 109.98C216.867 109.807 217.067 109.673 217.294 109.58C217.521 109.487 217.761 109.44 218.014 109.44C218.267 109.44 218.507 109.487 218.734 109.58C218.961 109.673 219.154 109.807 219.314 109.98C219.487 110.14 219.621 110.333 219.714 110.56C219.807 110.787 219.854 111.027 219.854 111.28C219.854 111.533 219.807 111.773 219.714 112C219.621 112.227 219.487 112.427 219.314 112.6C219.154 112.76 218.961 112.887 218.734 112.98C218.507 113.073 218.267 113.12 218.014 113.12C217.761 113.12 217.521 113.073 217.294 112.98C217.067 112.887 216.867 112.76 216.694 112.6C216.534 112.427 216.407 112.227 216.314 112C216.221 111.773 216.174 111.533 216.174 111.28ZM229.781 107.44C229.781 107.04 229.834 106.7 229.941 106.42C230.047 106.14 230.227 105.88 230.481 105.64C230.854 105.28 231.194 104.967 231.501 104.7C231.821 104.433 232.094 104.187 232.321 103.96C232.547 103.72 232.721 103.5 232.841 103.3C232.974 103.087 233.041 102.867 233.041 102.64C233.041 102.2 232.901 101.86 232.621 101.62C232.354 101.367 232.014 101.24 231.601 101.24C230.974 101.24 230.494 101.413 230.161 101.76C229.841 102.107 229.661 102.527 229.621 103.02L226.541 102.82C226.687 101.407 227.207 100.333 228.101 99.6C228.994 98.8533 230.141 98.48 231.541 98.48C232.154 98.48 232.727 98.5667 233.261 98.74C233.807 98.9 234.287 99.1467 234.701 99.48C235.114 99.8133 235.441 100.227 235.681 100.72C235.921 101.213 236.041 101.78 236.041 102.42C236.041 102.807 236.001 103.16 235.921 103.48C235.841 103.787 235.701 104.093 235.501 104.4C235.314 104.707 235.061 105.02 234.741 105.34C234.434 105.647 234.041 105.987 233.561 106.36C233.254 106.6 233.047 106.833 232.941 107.06C232.834 107.287 232.781 107.513 232.781 107.74V108.32H229.781V107.44ZM229.441 111.28C229.441 111.027 229.487 110.787 229.581 110.56C229.674 110.333 229.801 110.14 229.961 109.98C230.134 109.807 230.334 109.673 230.561 109.58C230.787 109.487 231.027 109.44 231.281 109.44C231.534 109.44 231.774 109.487 232.001 109.58C232.227 109.673 232.421 109.807 232.581 109.98C232.754 110.14 232.887 110.333 232.981 110.56C233.074 110.787 233.121 111.027 233.121 111.28C233.121 111.533 233.074 111.773 232.981 112C232.887 112.227 232.754 112.427 232.581 112.6C232.421 112.76 232.227 112.887 232.001 112.98C231.774 113.073 231.534 113.12 231.281 113.12C231.027 113.12 230.787 113.073 230.561 112.98C230.334 112.887 230.134 112.76 229.961 112.6C229.801 112.427 229.674 112.227 229.581 112C229.487 111.773 229.441 111.533 229.441 111.28Z" fill="white"/>
</g>
<path d="M283.018 74.0018L282.028 73.8597L281.93 74.5418L282.533 74.8762L283.018 74.0018ZM250.81 131.398L251.305 130.529L250.638 130.15L250.099 130.695L250.81 131.398ZM202.694 130.039L203.441 129.374L202.853 128.713L202.126 129.216L202.694 130.039ZM177.904 134.992L177.712 135.973L177.738 135.978L177.765 135.982L177.904 134.992ZM151.748 108.479L152.732 108.305L152.627 107.709L152.05 107.525L151.748 108.479ZM146.412 68.0191L146.954 68.8593L149.095 67.478L146.586 67.0344L146.412 68.0191ZM156.354 57.8025L155.374 58.0038L155.868 60.4084L157.195 58.3431L156.354 57.8025ZM202.206 47.78L201.668 48.623L202.302 49.0275L202.866 48.531L202.206 47.78ZM229.241 44.5752L228.755 45.4491L229.357 45.784L229.884 45.3406L229.241 44.5752ZM284.008 74.1439C284.21 72.736 284.311 71.3288 284.311 69.8257H282.311C282.311 71.2361 282.216 72.5483 282.028 73.8597L284.008 74.1439ZM301 102.749C301 90.0357 293.957 78.9288 283.503 73.1274L282.533 74.8762C292.379 80.3404 299 90.7936 299 102.749H301ZM267.012 136.574C285.81 136.574 301 121.466 301 102.749H299C299 120.353 284.715 134.574 267.012 134.574V136.574ZM250.316 132.268C255.254 135.075 260.891 136.574 267.012 136.574V134.574C261.226 134.574 255.931 133.16 251.305 130.529L250.316 132.268ZM227.387 142.11C236.834 142.11 245.384 138.308 251.521 132.101L250.099 130.695C244.329 136.531 236.288 140.11 227.387 140.11V142.11ZM201.947 130.703C208.18 137.706 217.232 142.11 227.387 142.11V140.11C217.826 140.11 209.31 135.968 203.441 129.374L201.947 130.703ZM177.765 135.982C191.248 137.87 199.597 133.395 203.263 130.861L202.126 129.216C198.764 131.539 190.912 135.804 178.043 134.001L177.765 135.982ZM150.763 108.652C153.178 122.369 163.939 133.272 177.712 135.973L178.096 134.01C165.127 131.467 155.002 121.198 152.732 108.305L150.763 108.652ZM135.034 87.0155C135.034 97.4649 141.865 106.389 151.445 109.432L152.05 107.525C143.281 104.741 137.034 96.5724 137.034 87.0155H135.034ZM145.87 67.1789C139.356 71.3832 135.034 78.6687 135.034 87.0155H137.034C137.034 79.3803 140.983 72.7131 146.954 68.8593L145.87 67.1789ZM146.586 67.0344C143.021 66.4039 140.313 63.2888 140.313 59.5435H138.313C138.313 64.276 141.734 68.2073 146.238 69.0039L146.586 67.0344ZM140.313 59.5435C140.313 55.3421 143.72 51.936 147.922 51.936V49.936C142.615 49.936 138.313 54.2373 138.313 59.5435H140.313ZM147.922 51.936C151.595 51.936 154.663 54.5403 155.374 58.0038L157.333 57.6013C156.434 53.2264 152.563 49.936 147.922 49.936V51.936ZM184.248 41.5357C172.169 41.5357 161.575 47.8252 155.512 57.262L157.195 58.3431C162.907 49.4521 172.881 43.5357 184.248 43.5357V41.5357ZM202.744 46.9371C197.417 43.5368 191.083 41.5357 184.248 41.5357V43.5357C190.686 43.5357 196.649 45.4193 201.668 48.623L202.744 46.9371ZM218.017 40.7588C211.706 40.7588 205.912 43.1895 201.546 47.0291L202.866 48.531C206.894 44.9897 212.226 42.7588 218.017 42.7588V40.7588ZM229.727 43.7012C226.252 41.7688 222.277 40.7588 218.017 40.7588V42.7588C221.956 42.7588 225.593 43.6911 228.755 45.4491L229.727 43.7012ZM250.225 36C241.983 36 234.436 38.9016 228.597 43.8097L229.884 45.3406C235.367 40.7312 242.46 38 250.225 38V36ZM284.311 69.8257C284.311 51.104 269.019 36 250.225 36V38C267.932 38 282.311 52.2255 282.311 69.8257H284.311Z" fill="white"/>
<circle cx="104.508" cy="40.5" r="3.5" stroke="white" stroke-width="2"/>
<ellipse cx="124.51" cy="45.5" rx="6.50052" ry="6.5" stroke="white" stroke-width="2"/>
<defs>
<filter id="filter0_f" x="169.901" y="66.8799" width="96.3356" height="50.24" filterUnits="userSpaceOnUse" color-interpolation-filters="sRGB">
<feFlood flood-opacity="0" result="BackgroundImageFix"/>
<feBlend mode="normal" in="SourceGraphic" in2="BackgroundImageFix" result="shape"/>
<feGaussianBlur stdDeviation="2" result="effect1_foregroundBlur"/>
</filter>
</defs>
</svg>
