<svg width="303" height="230" viewBox="0 0 303 230" fill="none" xmlns="http://www.w3.org/2000/svg">
<path d="M128.975 192.007L125.354 222.164C125.354 222.164 125.855 225.789 121.856 226.793C117.856 227.793 111.44 228.379 111.44 228.379V229.996H208.339V228.66C208.339 228.66 201.216 228.162 198.839 227.288C196.463 226.41 196.091 227.537 194.966 222.03C193.841 216.527 192.704 209.893 191.219 195.878C189.725 181.86 128.975 192.007 128.975 192.007Z" fill="#E1E1E1"/>
<path d="M128.976 192.007L128.352 197.204L176.832 230H208.325V228.664C208.325 228.664 201.202 228.166 198.825 227.292C196.449 226.418 196.077 227.541 194.952 222.038C193.826 216.534 192.69 209.901 191.204 195.886C189.719 181.871 128.976 192.007 128.976 192.007Z" fill="#D1D1D1"/>
<path d="M26.9904 0H293.326C295.728 0 298.033 0.956949 299.735 2.65779C301.434 4.35863 302.39 6.66615 302.39 9.07477L302.166 190.541C302.166 195.553 298.329 199.67 293.326 199.67H26.132C24.9418 199.67 23.7624 199.435 22.666 198.98C21.566 198.525 20.567 197.857 19.7266 197.012C18.8863 196.171 18.219 195.171 17.7646 194.069C17.3102 192.968 17.0757 191.787 17.0757 190.595L17 10.01C16.9964 4.48502 21.4686 0 26.9904 0Z" fill="#BEE1FF"/>
<path d="M17 172.98H302.321V190.48C302.321 192.964 301.333 195.351 299.58 197.11C297.824 198.868 295.443 199.854 292.958 199.854H25.9372C24.7615 199.854 23.6001 199.623 22.5145 199.172C21.4289 198.724 20.4443 198.063 19.6148 197.232C18.7853 196.402 18.1253 195.412 17.678 194.329C17.2308 193.242 17 192.079 17 190.902V172.98Z" fill="#E1E1E1"/>
<path d="M7.62283 214.107C7.62283 214.107 10.6236 213.862 9.61369 217.253C8.60023 220.643 7.76349 220.466 8.28645 223.229C8.80941 225.991 9.26385 228.96 7.62283 228.96C5.98181 228.96 1.19941 228.96 1.19941 228.96C1.19941 228.96 -0.409154 228.093 0.0993821 224.088C0.146268 223.716 0.218402 223.348 0.333814 222.991C0.586279 222.203 0.651198 221.236 0.744971 220.192C0.849563 219.004 2.07221 214.313 4.2362 214.107C6.40379 213.898 7.62283 214.107 7.62283 214.107Z" fill="#3C2001"/>
<path d="M46.787 213.27C46.787 213.27 43.8043 214.389 43.505 216.483C43.1876 218.737 44.5978 219.86 45.1424 220.817C45.7231 221.835 46.1558 222.944 46.4191 225.161C46.5093 225.937 46.5237 226.721 46.4732 227.501C46.4011 228.628 46.3686 228.891 46.3686 228.891C46.3686 228.891 46.7365 229.119 47.5733 228.891C47.5733 228.891 47.2054 224.533 47.6598 223.384C48.1143 222.236 48.428 222.236 48.6877 222.272C48.933 222.305 51.6668 222.261 55.562 227.346C56.1282 228.086 57.0046 228.527 57.9351 228.527H64.8995C65.3215 228.527 65.7183 228.321 65.9563 227.97C66.5694 227.075 67.4025 225.349 65.2818 224.753C62.3677 223.933 60.7086 223.233 60.7086 223.233C60.7086 223.233 58.7466 223.594 55.8974 222.539C54.7974 222.135 53.6396 221.55 52.3773 220.647C50.61 219.38 49.6326 218.574 48.7346 217.607C46.8916 215.613 46.3398 213.927 46.787 213.27Z" fill="#3C2001"/>
<path d="M15.7563 201.934C15.7563 201.934 13.5238 205.195 11.5221 208.412C9.52043 211.626 9.19583 216.379 9.19583 216.379C9.19583 216.379 9.15976 217.216 7.99121 219.838C7.57284 220.799 7.41415 221.08 7.30955 223.106C7.20496 225.132 6.45478 225.569 6.15904 225.641C5.86329 225.713 3.73177 226.602 2.336 224.959C2.336 224.959 1.67959 224.442 1.53172 222.55C1.43434 221.304 1.63271 220.051 2.05108 218.874C2.32518 218.101 2.65699 217.317 2.96356 216.505C3.50455 215.053 4.34129 210.269 4.34129 210.269C4.34129 210.269 5.85969 204.224 8.98303 198.666C12.11 193.105 15.7563 201.934 15.7563 201.934Z" fill="#FDD3BD"/>
<path d="M60.7132 223.323C60.7132 223.323 56.9442 224.103 51.4982 220.015C46.0522 215.927 46.5427 213.479 46.5427 213.479C46.5427 213.479 48.429 208.131 46.7879 199.674C45.1469 191.216 54.5711 192.791 53.9796 200.233C53.3845 207.676 53.0382 210.373 53.2799 211.385C53.5251 212.396 53.5071 213.27 54.7622 214.808C56.0173 216.346 59.5085 221.615 60.7132 223.323Z" fill="#FDD3BD"/>
<path d="M41.3779 94.4524C41.3779 94.4524 39.5637 97.038 38.6909 99.3094C37.8181 101.581 37.5043 103.014 37.4358 103.155C37.3673 103.296 36.9128 105.705 35.0987 107.907C33.2846 110.11 27.4202 116.401 26.1651 121.153C24.91 125.905 24.9424 126.989 25.3969 128.614C25.3969 128.614 25.588 129.033 25.6601 130.571C25.7287 132.109 26.2552 133.926 26.2552 133.926C26.2552 133.926 26.5185 134.904 27.2146 135.323C27.2146 135.323 27.5103 135.988 26.7097 135.865C25.9054 135.742 25.1408 135.569 24.2139 133.68C23.2906 131.791 22.223 131.55 22.223 131.55C22.223 131.55 20.6181 131.235 19.9003 132.319C19.1826 133.402 17.5272 134.24 17.5272 134.24C17.5272 134.24 17.9996 136.161 17.5272 136.807C17.3937 137.006 17.3468 136.666 17.3468 136.666C17.3468 136.666 17.3829 136.959 16.9645 137.085C16.8239 137.085 16.7193 136.782 16.7193 136.782C16.7193 136.782 16.1134 139.617 15.1179 139.671C15.1179 139.671 14.7861 139.88 14.6996 139.093C14.613 138.306 13.549 141.137 12.0487 141.278C10.5483 141.419 11.6664 140.335 11.7349 140.335C11.8034 140.335 12.3444 139.216 12.5897 138.36C12.8349 137.504 13.3579 136.858 13.3579 136.858C13.3579 136.858 10.9306 137.768 9.53486 137.049C9.53486 137.049 8.93976 136.544 9.90274 136.23C10.8621 135.915 12.1893 135.215 12.1893 135.215L14.5805 133.799C14.5805 133.799 14.6346 132.98 14.7032 132.752C14.7717 132.525 14.5805 131.441 14.6671 131.25C14.7537 131.058 15.4858 130.026 15.4858 130.026C15.4858 130.026 16.6363 129.22 16.7265 129.188C16.8131 129.152 19.2908 126.743 19.9039 125.938C19.9039 125.938 23.2148 119.416 25.9126 112.194C28.6104 104.972 33.2197 97.3305 33.2197 97.3305C33.2197 97.3305 36.2925 91.7874 36.8948 90.4332C37.4899 89.0826 41.3779 94.4524 41.3779 94.4524Z" fill="#FDD3BD"/>
<path d="M65.8094 40.217C65.8094 40.217 70.8515 39.8667 71.7243 44.2001C72.0633 46.0778 71.7928 47.2479 71.5331 47.3815C71.2698 47.5115 71.1508 47.9159 71.1219 48.1326C71.0967 48.3493 71.0895 50.1765 71.9731 52.1807C72.323 53.0184 72.882 53.7696 71.277 54.1054C70.7901 54.1054 70.5521 54.1487 70.5413 54.6037C70.5305 55.0587 70.4511 55.5715 70.6026 55.8387C70.6026 56.2468 70.3357 56.514 69.8921 56.5501C70.1193 56.7993 70.1554 57.4999 69.7514 57.7599C69.3475 58.0199 68.215 58.4243 67.9553 60.2407C67.8507 61.6202 67.7461 61.6563 67.6596 61.7249C67.573 61.7935 66.7507 62.9671 64.4316 61.7249C63.7319 61.2879 63.4542 61.2193 63.4542 61.2193C63.4542 61.2193 62.7329 61.5985 62.5742 63.014C62.4155 64.4296 54.5711 64.119 54.5711 64.119L52.1294 53.3218L55.0255 44.1676L65.8094 40.217Z" fill="#FDD3BD"/>
<path d="M15.7561 201.934C15.7561 201.934 12.1098 193.105 8.98645 198.663C5.86311 204.22 4.34471 210.265 4.34471 210.265C4.34471 210.265 3.50797 215.053 2.96697 216.501C2.66402 217.318 2.33221 218.098 2.0545 218.87C1.63613 220.048 1.43776 221.301 1.53514 222.547C1.68301 224.439 2.33942 224.955 2.33942 224.955C2.51254 225.161 2.70008 225.327 2.89124 225.457C3.30961 213.472 8.93596 202.144 9.06941 201.848C9.22088 201.508 9.46613 201.811 9.82319 201.974C11.3236 203.119 13.0187 203.928 14.1115 204.383C15.0672 202.945 15.7561 201.934 15.7561 201.934Z" fill="#C09F90"/>
<path d="M53.8279 202.043C53.8748 201.472 53.9253 200.873 53.9758 200.234C53.9902 200.049 53.9938 199.869 53.9974 199.692L46.6146 197.363C46.5713 198.031 46.6146 198.796 46.7841 199.674C48.4252 208.131 46.5389 213.479 46.5389 213.479C46.5389 213.479 46.2251 215.065 48.9409 217.816C50.7009 211.692 50.4809 202.332 50.4809 202.332C50.4809 202.332 50.3764 201.934 50.9354 202.028C51.3501 202.097 52.9876 202.064 53.8279 202.043Z" fill="#C09F90"/>
<path d="M41.3785 94.4524C41.3785 94.4524 37.4942 89.0826 36.8882 90.4332C36.2823 91.7838 33.2131 97.3305 33.2131 97.3305C33.2131 97.3305 28.6074 104.972 25.906 112.194C23.2083 119.416 19.8974 125.938 19.8974 125.938C19.2879 126.743 16.8101 129.152 16.7199 129.188C16.6334 129.224 15.4792 130.026 15.4792 130.026C15.4792 130.026 14.7471 131.055 14.6605 131.25C14.574 131.441 14.7651 132.525 14.6966 132.752C14.6281 132.98 14.574 133.799 14.574 133.799L14.0186 134.128C14.6858 133.752 15.1691 133.485 15.1691 133.485C15.1691 133.485 17.856 131.264 17.7514 131.091C17.5242 131.196 16.0238 132.438 15.1871 132.925C15.0825 132.243 15.4973 131.929 15.6415 131.596C16.8642 130.567 16.6189 130.354 16.6189 130.354C16.6189 130.354 16.132 130.878 15.5009 131.369C15.4143 130.6 16.3557 130.058 16.6009 129.849C17.8344 128.986 19.1364 127.216 19.1364 127.216C19.1364 127.216 19.6954 126.183 21.3472 124.071C22.9991 121.958 24.2794 118.806 24.5355 118.058C24.7916 117.314 25.2352 115.169 26.8618 110.999C28.4884 106.828 32.1311 101.494 32.1311 101.494C32.1311 101.494 31.8173 102.552 31.8173 103.39C34.5403 97.2041 36.423 95.3877 37.8729 94.4777C39.3191 93.5677 39.6726 95.1782 39.6726 95.1782C39.6726 95.1782 39.3408 96.7996 38.9621 98.6666C39.8818 96.583 41.3785 94.4524 41.3785 94.4524Z" fill="#C09F90"/>
<path d="M10.2424 136.999C9.94662 136.999 9.36956 136.829 10.0332 136.403C10.2315 136.277 10.7725 135.962 11.4326 135.587C10.9745 135.804 10.3866 136.067 9.89613 136.23C8.93676 136.544 9.52825 137.049 9.52825 137.049C10.924 137.764 13.3513 136.858 13.3513 136.858C13.3513 136.858 12.8283 137.504 12.5831 138.36C12.3378 139.216 11.7968 140.336 11.7283 140.336C11.6706 140.336 10.8771 141.098 11.5119 141.26C11.4181 141.152 11.3965 140.989 11.6526 140.754C12.3631 140.336 12.7129 139.368 12.8175 139.158C12.9221 138.949 12.9906 138.494 13.2142 138.017C13.8887 136.992 13.9139 136.316 13.9139 136.316C13.9139 136.316 10.5417 136.999 10.2424 136.999Z" fill="#C09F90"/>
<path d="M26.6993 135.865C27.2078 135.945 27.2764 135.703 27.2547 135.518C26.6632 135.652 25.8589 135.645 25.2494 134.908C24.1566 133.59 23.8537 130.947 21.8051 131.344C21.567 131.391 21.347 131.463 21.1487 131.553C21.7149 131.452 22.2126 131.55 22.2126 131.55C22.2126 131.55 23.2766 131.795 24.2035 133.68C25.1304 135.565 25.8986 135.742 26.6993 135.865Z" fill="#C09F90"/>
<path d="M16.9577 137.086C17.3761 136.96 17.34 136.667 17.34 136.667C17.34 136.667 17.3869 137.006 17.5204 136.808C17.9928 136.161 17.5204 134.24 17.5204 134.24C17.5204 134.24 17.5889 134.208 17.6971 134.146C16.7522 134.533 15.1183 135.41 14.9416 136.938C14.8298 137.906 14.5557 138.707 14.2888 139.3C14.5196 138.982 14.6639 138.834 14.6928 139.101C14.7793 139.888 15.1111 139.679 15.1111 139.679C16.1066 139.625 16.7125 136.79 16.7125 136.79C16.7125 136.79 16.8171 137.086 16.9577 137.086Z" fill="#C09F90"/>
<path d="M65.8095 40.2169L55.0257 44.1675L53.0601 50.375L53.1502 57.8501L53.8175 60.8003C54.4053 61.7537 55.3178 63.144 56.2014 64.1479C56.948 64.1479 57.8677 64.137 58.773 64.0829C59.2743 61.0748 57.3267 58.565 57.3267 58.565C57.3267 58.565 55.765 56.2467 56.2808 53.5311C56.7965 50.8156 59.1445 50.0031 61.5861 48.8511C64.0278 47.6992 64.8682 46.2655 67.1007 43.503C68.6371 41.6036 70.4729 42.5497 71.4683 43.3261C70.1375 39.9172 65.8095 40.2169 65.8095 40.2169Z" fill="#C09F90"/>
<path d="M63.451 61.2193C63.451 61.2193 63.7287 61.2879 64.4284 61.7248C65.5104 62.3026 66.2606 62.3568 66.7691 62.2412C65.2471 61.8151 60.2699 60.1684 57.4856 56.1384C57.6984 57.7815 59.8227 60.3057 62.5782 62.9562C62.7513 61.5876 63.451 61.2193 63.451 61.2193Z" fill="#C09F90"/>
<path d="M73.1373 93.4164C73.1373 93.4164 74.2553 94.07 75.698 94.767C77.1406 95.4639 83.3765 100.917 85.7497 103.062C88.1228 105.207 91.4734 108.605 93.7059 108.746C95.9384 108.887 95.823 108.71 96.8689 108.814C97.9149 108.919 99.7903 109.269 100.079 109.092C100.079 108.825 99.7759 106.46 100.753 105.936C100.869 105.936 101.092 107.648 101.348 107.987C101.348 107.987 101.565 107.695 101.824 107.54C102.084 107.384 103.657 106.037 104.057 105.6C104.353 105.355 105.175 105.828 104.843 107.171C105.785 106.333 106.744 104.604 108.789 104.846C109.261 104.9 109.085 105.178 108.948 105.283C108.807 105.387 108.143 106.052 108.143 106.243C108.143 106.243 111.353 103.918 113.03 104.705C113.362 104.81 113.658 104.983 112.525 105.615C111.389 106.243 111.007 106.471 111.007 106.471C111.007 106.471 113.135 105.983 114.044 106.593C114.184 106.716 113.625 106.962 113.625 106.962C113.625 106.962 111.635 108.027 110.866 108.605C110.098 109.183 109.716 109.143 109.716 109.143C109.175 109.338 106.12 111.909 106.12 111.909L105.579 112.61C105.579 112.61 105.197 112.942 105.02 113.028C104.847 113.115 104.547 113.133 104.338 113.307C104.129 113.48 103.92 113.639 103.57 113.884C103.22 114.13 102.402 114.18 102.106 114.303C101.81 114.426 101.583 114.722 101.233 114.791C100.883 114.859 100.151 114.65 99.6965 114.704C99.2421 114.758 98.528 115 97.969 115C97.4099 115 95.9024 114.3 94.8456 114.058C93.3957 113.725 91.7403 113.429 91.6682 113.429C91.596 113.429 91.0406 113.429 89.5222 111.909C88.0038 110.389 85.3169 108.572 84.0942 107.944C82.8716 107.316 80.0115 106.406 73.2743 100.884C66.5371 95.3628 66.5371 95.3628 66.5371 95.3628L71.4926 92.3223L73.1373 93.4164Z" fill="#C09F90"/>
<path d="M112.164 107.782C112.164 107.782 112.161 107.782 112.161 107.786C111.876 107.952 110.083 108.729 109.578 109.01C109.074 109.288 107.606 110.408 107.606 110.462C107.606 110.516 106.506 111.249 106.787 110.83C107.065 110.411 108.81 108.627 109.11 108.349C109.409 108.071 110.296 107.512 110.837 107.107C111.378 106.703 112.496 106.602 113.524 106.62C113.755 106.623 113.885 106.692 113.95 106.789C114.043 106.724 114.105 106.652 114.047 106.602C113.138 105.991 111.01 106.479 111.01 106.479C111.01 106.479 111.393 106.251 112.529 105.623C113.665 104.995 113.365 104.818 113.034 104.713C112.925 104.662 112.814 104.626 112.695 104.601C112.63 104.684 112.641 104.803 112.77 104.854C113.048 104.959 112.929 105.117 112.388 105.414C111.847 105.71 109.752 107.284 108.547 108.331C107.342 109.379 106.592 110.498 105.788 111.581C104.984 112.665 103.974 112.856 103.379 112.874C102.784 112.892 104.652 110.762 104.706 110.689C104.76 110.621 105.211 110.112 105.665 109.342C106.12 108.573 107.62 107.035 107.62 107.035L108.543 105.981C108.298 106.139 108.143 106.248 108.143 106.248C108.143 106.219 108.161 106.176 108.19 106.129H108.186C108.186 106.129 106.834 107.504 106.311 108.01C105.788 108.516 104.966 109.776 104.966 109.776C104.966 109.776 104.443 110.491 103.938 111.069C103.433 111.646 102.924 112.484 102.542 113.076C102.16 113.672 101.46 113.654 100.728 113.549C99.9956 113.445 101.95 110.754 101.95 110.754L103.747 109.061L105.438 107.19C105.438 107.19 106.102 106.316 107.443 105.479C108.406 104.879 108.695 105.2 108.785 105.432C108.854 105.363 108.915 105.309 108.947 105.287C109.088 105.182 109.261 104.904 108.789 104.85C106.747 104.605 105.788 106.334 104.843 107.176C104.85 107.143 104.857 107.111 104.861 107.078C104.378 107.671 103.862 108.277 103.584 108.555C103.007 109.133 101.788 110.563 101.611 110.512C101.438 110.458 101.803 108.205 101.803 108.205C101.803 108.205 101.525 108.537 101.42 109.025C101.316 109.512 101.384 110.823 100.879 111.874C100.374 112.921 99.6566 113.567 98.9245 114.022C98.1923 114.477 95.8877 113.499 94.4558 113.149C93.024 112.798 92.9555 111.682 92.9555 111.682C92.9555 111.682 93.1286 110.563 91.942 111.195C90.7554 111.823 89.0098 110.148 88.6275 109.938C88.2452 109.729 80.8444 104.731 78.226 102.46C75.7085 100.275 71.936 97.7038 71.6475 97.5088L69.7432 97.6713L70.3924 98.5307C71.1786 99.1771 72.1271 99.9499 73.2668 100.889C80.004 106.41 82.8641 107.32 84.0868 107.949C85.3094 108.577 87.9964 110.393 89.5147 111.914C91.0331 113.434 91.5922 113.434 91.6607 113.434C91.7292 113.434 93.3883 113.73 94.8381 114.062C95.8949 114.304 97.4025 115.005 97.9615 115.005C98.5205 115.005 99.2346 114.759 99.6891 114.709C100.144 114.654 100.876 114.867 101.226 114.795C101.575 114.727 101.803 114.427 102.098 114.308C102.394 114.185 103.216 114.134 103.563 113.889C103.912 113.643 104.122 113.488 104.331 113.311C104.54 113.138 104.836 113.12 105.012 113.033C105.186 112.946 105.572 112.614 105.572 112.614L106.113 111.914C106.113 111.914 109.167 109.346 109.708 109.147C109.708 109.147 110.091 109.187 110.859 108.609C111.173 108.378 111.674 108.071 112.164 107.782Z" fill="#C09F90"/>
<path d="M71.6365 97.4932C71.6365 97.4932 71.6437 97.4968 71.6546 97.5077L71.8107 97.4932H71.6365Z" fill="#C09F90"/>
<path d="M101.183 107.578C101.183 107.578 101.183 107.582 101.187 107.586C101.183 107.582 101.183 107.578 101.183 107.578Z" fill="#C09F90"/>
<path d="M105.406 106.788C105.406 106.788 105.435 106.676 105.471 106.532C105.255 106.766 105.049 106.99 104.847 107.171C105.179 105.824 104.36 105.354 104.061 105.6C103.661 106.037 102.088 107.384 101.829 107.539C101.601 107.676 101.41 107.911 101.363 107.973C101.392 108.03 101.421 108.088 101.446 108.131C101.551 108.323 101.551 110.717 101.551 110.717L102.308 109.923C102.308 109.923 103.96 108.464 103.96 108.413C103.96 108.363 104.869 107.312 104.869 107.312L105.406 106.788Z" fill="#C09F90"/>
<path d="M100.082 109.096C99.7903 109.269 97.9185 108.923 96.8726 108.818C95.8266 108.713 95.942 108.886 93.7095 108.749C91.477 108.612 88.1264 105.207 85.7533 103.065C83.3801 100.92 77.1442 95.4711 75.7016 94.7706C74.2589 94.07 73.1409 93.42 73.1409 93.42L72.5782 93.0444L72.3474 93.2322L72.8595 94.3517C72.8595 94.3517 73.2418 93.3369 77.0829 96.2403C80.924 99.14 89.3671 106.691 89.3671 106.691C89.3671 106.691 91.8449 108.753 92.8908 108.894C93.9367 109.035 97.1503 109.035 98.4739 109.417C99.8047 109.793 100.082 109.096 100.082 109.096Z" fill="#C09F90"/>
<path d="M72.435 99.0344L72.8594 101.686C75.1965 115.942 75.3588 120.5 75.3588 120.5C75.3588 120.5 75.2867 127.141 74.1723 130.318C73.0578 133.496 72.3581 136.992 72.3581 136.992C72.3581 136.992 71.763 140.903 70.7171 146.846C69.6712 152.79 67.5757 159.673 67.5757 159.673C67.5757 159.673 66.5262 163.725 64.8166 168.409C63.1071 173.089 61.7798 176.866 59.5473 184.937C57.3148 193.011 58.3103 198.236 58.5194 199.721C58.7286 201.205 58.083 201.068 57.6827 201.031C51.1222 200.071 46.008 200.613 45.449 200.753C44.89 200.894 44.8323 200.562 44.7854 199.677C45.0198 188.772 46.7871 183.601 50.7435 173.955C54.6964 164.31 54.3141 158.976 54.3141 158.976L54.4872 151.393C54.4872 151.393 52.637 154.155 52.5685 154.26C52.4964 154.365 49.4271 158.243 47.8907 160.341C46.3543 162.439 42.4483 168.676 42.3761 168.835C42.2715 169.069 37.4891 178.097 37.4891 178.097C37.4891 178.097 30.1568 190.993 27.9243 194.943C25.7026 198.875 21.3378 204.326 20.6061 205.24L20.5957 205.253C19.8996 206.127 19.7264 205.776 19.0268 205.498C16.1306 204.346 8.20685 198.756 7.92913 198.511C7.65142 198.269 8.00127 197.987 8.48816 197.149C11.7702 188.064 16.7979 183.174 18.2622 181.495C19.7301 179.82 21.6849 176.602 24.2672 173.179C31.3867 164.722 34.5281 155.636 34.5281 155.636C34.5281 155.636 42.9748 136.764 42.9748 126.072C42.9748 115.379 49.7445 108.46 49.7445 108.46L55.4935 101.093V98.4404L63.4431 99.0344H72.435Z" fill="#010037"/>
<path d="M72.8595 98.8655L72.4352 101.535L56.9491 101.035H55.4505V99.0345L55.7135 98.4683C55.7135 98.4683 55.2302 98.4755 55.1545 98.2589C54.9814 97.1755 53.6902 93.7847 51.6308 91.4447C49.5714 89.101 47.512 85.9233 47.3028 85.0132C47.0937 84.1032 47.0251 84.208 47.0251 84.208C47.0251 84.208 46.3615 85.7788 45.8746 86.7935C45.3877 87.8083 42.7693 92.3149 42.7693 92.4558C42.7693 92.593 41.287 94.7958 41.287 94.7958C41.287 94.7958 41.2148 94.655 41.0417 94.5502C39.1554 92.7844 37.4459 92.2608 36.8183 91.9466C36.1908 91.6288 35.9816 91.8924 35.9816 91.8924C35.7544 91.6974 35.9816 91.0872 35.9816 91.0872C35.9816 91.0872 36.6452 90.0219 37.3269 87.8913C38.0085 85.7608 39.1086 83.7855 39.1086 83.7855C41.3591 79.5388 42.9352 76.9604 43.1227 76.4477C44.1001 70.251 45.5644 70.0885 47.1009 68.7379C48.6337 67.3873 50.0547 68.4346 50.0547 68.4346C50.0547 68.4346 52.5216 70.1354 52.5685 70.204C52.6154 70.2726 54.7578 71.3921 56.6188 69.6912C59.7602 66.6615 58.6421 63.0034 58.6421 63.0034H62.5733V65.3109C62.5733 65.3109 62.6419 68.1998 65.6209 68.6187C68.6 69.0376 68.9968 70.8757 69.6928 73.4179C70.3889 75.9601 72.1345 78.4265 74.6015 80.8279C77.0684 83.2293 76.6969 83.298 76.5094 85.2552C76.3255 87.2124 74.9044 89.148 74.2769 90.2891C73.6493 91.4338 73.6277 92.3872 73.6962 94.088C73.7647 95.7883 73.2637 96.987 72.986 97.6516L72.9857 97.6522C72.708 98.3166 72.8595 98.3058 72.8595 98.3058V98.8655Z" fill="#F4EEE7"/>
<path d="M58.2454 98.6343L58.4077 101.103L61.9674 101.197V98.6343H58.2454Z" fill="#3C2001"/>
<path d="M62.8293 98.6343V101.36C62.8293 101.36 68.297 101.522 69.5557 101.501C69.5557 100.428 69.5557 98.7751 69.5557 98.7751L62.8293 98.6343Z" fill="#3C2001"/>
<path d="M70.2739 98.7749V101.5L71.8103 101.638V98.7749H70.2739Z" fill="#3C2001"/>
<path d="M72.86 98.8652H72.3474V101.685H72.86V98.8652Z" fill="#3C2001"/>
<path d="M57.477 98.4429H55.45L55.313 101.197H57.477V98.4429Z" fill="#3C2001"/>
<path d="M58.7658 65.5924C58.7658 65.5924 58.1094 70.7455 54.1529 70.6985C52.7572 70.6985 51.0801 69.1855 51.0801 69.1855C51.0801 69.1855 49.2191 67.5316 47.542 68.4849C46.46 69.1024 45.6629 69.9546 45.1399 70.6443C44.6819 71.2474 44.3465 71.9299 44.1265 72.6558C43.8091 73.703 43.2825 75.4977 43.1238 76.451L41.7966 78.9897L40.0726 81.9941C40.0726 81.9941 37.4686 80.2247 38.446 73.0277C38.7959 69.9871 41.4468 65.921 42.9832 64.1443C44.5196 62.3676 45.497 61.8079 46.02 60.6199C46.5429 59.4318 46.9613 58.3123 46.8928 55.2718C46.8242 52.2312 45.8469 47.3742 45.9154 45.9406C45.9839 44.507 46.4744 36.3639 52.5119 33.15C58.5494 29.9361 65.2181 31.6839 65.2181 31.6839C65.2181 31.6839 69.8959 32.6625 70.9058 37.2739C71.4287 39.0903 71.7425 39.2672 71.7425 39.2672C71.7425 39.2672 76.4492 42.4884 76.7341 46.6051C76.9072 49.1365 75.8397 51.7076 75.5114 52.3612C75.1832 53.0148 71.9264 57.3482 70.7182 61.2626C69.51 65.1771 69.5533 64.9893 69.7877 66.9935C70.0221 68.9977 71.6019 70.8141 71.8832 72.1177C72.1645 73.4213 72.7668 75.4255 71.5333 77.2672C70.8589 76.3355 70.2782 75.4977 69.4631 73.0024C68.648 70.5107 68.2296 69.0663 66.2748 68.8099C64.32 68.5535 63.7863 68.4849 63.3427 67.7843C62.899 67.0838 61.7593 65.8524 62.5744 63.0068C62.6538 62.541 62.7439 62.1835 62.863 61.9307C63.184 61.2482 63.4545 61.2121 63.4545 61.2121C63.4545 61.2121 63.6095 61.2626 63.8295 61.3746C64.522 61.7249 66.0332 62.4399 66.8808 62.1221C67.9988 61.7032 67.9519 60.0998 67.9519 60.0998C67.9519 60.0998 68.1647 59.096 68.6985 58.5218C69.0808 58.1065 69.3333 58.0271 69.5605 57.8718C69.8202 57.6985 70.0149 57.424 70.051 57.1134C70.0726 56.9293 70.0402 56.7271 69.8959 56.5393C69.8959 56.5393 70.5235 56.3515 70.5054 55.6907C70.4874 55.0262 70.2421 54.1307 70.7507 54.0476C71.2592 53.9645 72.6225 53.9429 72.2799 53.0184C71.9373 52.094 70.895 50.2523 71.0645 47.8798C71.0933 47.5837 71.3386 47.479 71.5478 47.2442C71.7569 47.0095 72.2006 44.7995 71.0825 43.2251C69.9644 41.6506 68.7454 41.2209 67.6959 41.8492C66.6463 42.4775 65.1496 44.8537 63.8909 46.0778C62.6357 47.302 60.4718 48.6634 58.8632 48.9776C57.2583 49.2917 54.7444 50.3065 54.849 52.892C54.9536 55.4776 57.1861 58.9046 57.1861 58.9046C57.1861 58.9046 59.3754 63.1621 58.7658 65.5924Z" fill="#DF5C23"/>
<path d="M52.5109 33.1582C46.4734 36.3721 45.9829 44.5152 45.9144 45.9488C45.8459 47.3824 46.8233 52.2394 46.8918 55.28C46.9603 58.3205 46.542 59.44 46.019 60.6281C45.496 61.8161 44.5186 62.3758 42.9822 64.1525C41.4458 65.9292 38.7949 69.9953 38.4451 73.0359C37.4677 80.2365 40.0716 82.0023 40.0716 82.0023L41.0743 80.2582C39.2061 72.9131 43.9668 67.4278 47.101 62.6214C50.383 57.5875 48.4751 48.8774 48.1938 47.433C47.9161 45.9885 47.3571 41.0955 49.0774 37.8816C51.7752 33.3568 57.012 31.7426 61.3977 31.2299C58.9452 31.1576 55.6451 31.4863 52.5109 33.1582Z" fill="#D34405"/>
<path d="M69.8662 41.9939C70.2737 42.2683 70.6812 42.6764 71.078 43.2325C72.196 44.8033 71.7524 47.017 71.5432 47.2517C71.3341 47.4864 71.0888 47.5911 71.0599 47.8873C70.8904 50.2562 71.9328 52.0978 72.2754 53.0259C72.618 53.9539 71.2511 53.9756 70.7462 54.0551C70.2412 54.1381 70.4829 55.0337 70.5009 55.6981C70.5189 56.3626 69.8914 56.5467 69.8914 56.5467C70.0357 56.7345 70.0681 56.9367 70.0465 57.1209C70.0104 57.4351 69.8193 57.7059 69.556 57.8792C69.3288 58.0309 69.0763 58.114 68.694 58.5292C68.1638 59.1034 67.9474 60.1073 67.9474 60.1073C67.9474 60.1073 67.9943 61.7106 66.8762 62.1295C66.0287 62.4473 64.5175 61.7323 63.825 61.382C63.605 61.2701 63.4499 61.2195 63.4499 61.2195C63.4499 61.2195 63.1794 61.252 62.8585 61.9381C62.7394 62.1909 62.6493 62.5484 62.5699 63.0143C61.7548 65.8562 62.8945 67.0912 63.3381 67.7918C63.7818 68.4923 64.3155 68.561 66.2703 68.8174C68.2251 69.0737 68.6435 70.5182 69.4586 73.0099C70.0753 74.8985 70.5586 75.8374 71.0527 76.5885C71.4675 73.956 69.9166 71.1176 68.5281 68.8065C66.851 66.0115 68.2143 64.0543 68.5641 62.7615C68.914 61.4687 72.7875 53.712 73.242 52.1845C73.6964 50.657 74.2879 48.0136 72.5783 44.1353C71.8282 42.4308 70.7931 41.9722 69.8662 41.9939Z" fill="#D34405"/>
<path d="M62.1841 47.4501H71.5325L71.7237 46.5762L72.1962 46.6628L70.9879 51.7076L70.7283 51.6606C70.6525 51.6426 70.6056 51.5667 70.6237 51.4909L71.3775 48.1687H60.9976L62.1841 47.4501Z" fill="#3B2001"/>
<path d="M70.7104 48.8468C70.7104 48.8468 70.3966 48.3595 69.4589 48.4461C68.5212 48.5327 67.6772 49.1789 67.6772 49.1789C67.6772 49.1789 67.5654 49.3666 68.0487 49.1789C68.532 48.9912 69.5887 48.7493 70.4507 48.9515C70.5914 48.9804 70.8402 49.0562 70.7104 48.8468Z" fill="#3B2001"/>
<path d="M69.6577 50.6337C69.8711 50.6337 70.044 50.1796 70.044 49.6194C70.044 49.0591 69.8711 48.605 69.6577 48.605C69.4444 48.605 69.2715 49.0591 69.2715 49.6194C69.2715 50.1796 69.4444 50.6337 69.6577 50.6337Z" fill="#3B2001"/>
<path d="M291.833 211.533C291.833 211.533 293.416 214.794 293.322 220.478C293.229 226.162 298.534 224.486 298.722 221.734C298.909 218.986 298.956 213.999 297.513 210.551C296.067 207.109 292.576 208.973 291.833 211.533Z" fill="#94505B"/>
<path d="M271.124 211.301C271.124 211.301 270.612 217.87 270.889 220.621C271.167 223.369 263.211 224.861 263.398 222.578C263.586 220.296 264.462 216.1 263.395 212.745C262.327 209.391 271.124 211.301 271.124 211.301Z" fill="#94505B"/>
<path d="M263.395 212.745C263.673 213.619 263.817 214.551 263.878 215.49C266.655 213.594 269.245 214.284 270.893 215.168C270.987 213.077 271.124 211.304 271.124 211.304C271.124 211.304 262.327 209.39 263.395 212.745Z" fill="#893F4B"/>
<path d="M298.509 214.418C298.31 213.053 297.997 211.717 297.51 210.554C297.286 210.023 297.016 209.615 296.713 209.319L291.883 211.377C291.865 211.428 291.847 211.482 291.833 211.532C291.833 211.532 292.482 212.876 292.922 215.331C294.531 213.764 296.778 213.93 298.509 214.418Z" fill="#893F4B"/>
<path d="M271.124 219.408C271.124 219.408 274.243 221.925 272.754 226.956L272.822 227.089V228.96H247.017V227.685C247.017 227.685 247.028 227.544 247.186 227.544C247.255 227.107 247.15 225.692 248.741 224.995C250.328 224.294 256.874 222.601 259.911 218.863C260.924 217.675 262.093 216.498 263.918 216.476C264.311 216.476 264.415 216.592 264.275 217.014C264.134 217.433 263.575 219.076 263.892 219.322C264.21 219.567 264.379 219.636 265.324 220.405C266.269 221.174 269.198 220.965 269.688 220.336C270.168 219.701 270.785 219.08 271.124 219.408Z" fill="#E0E0E0"/>
<path d="M291.671 226.164C291.671 226.06 291.775 224.478 291.671 223.694C291.566 222.911 291.53 220.99 292.648 219.592C293.766 218.195 294.639 217.223 297.149 217.223C299.663 217.223 301.791 219.986 301.791 221.69C301.791 223.395 301.582 223.922 301.582 223.922C301.582 223.922 301.495 226.107 301.791 226.858C301.87 226.955 301.935 227.002 301.935 227.002C301.935 227.002 302 227.017 302 227.165C302 227.313 302 228.815 302 228.815C302 228.815 302 229.06 301.755 229.06C301.51 229.06 291.057 229.06 291.057 229.06V227.067C291.057 227.067 291.112 226.735 291.335 226.735C291.559 226.735 291.433 226.164 291.671 226.164C291.905 226.164 291.671 226.164 291.671 226.164Z" fill="#E0E0E0"/>
<path d="M243.296 132.882C243.296 132.882 243.202 147.421 253.719 175.562C256.882 183.297 259.212 187.118 260.698 194.947C262.184 202.776 263.118 211.908 262.746 213.584C265.26 213.584 271.68 213.584 271.68 213.584C271.68 213.584 272.798 199.417 269.631 187.212C266.468 175.003 262.653 158.601 262.653 152.639C264.236 157.857 268.701 168.015 278.475 182.181C288.249 196.348 291.506 213.587 291.506 213.587H299.509C299.509 213.587 300.068 203.057 291.131 180.13C282.197 157.207 277.912 143.878 275.496 130.459C268.052 124.028 246.275 128.036 243.296 132.882Z" fill="black"/>
<path d="M288.53 182.831C282.853 168.292 280.339 159.626 278.572 155.527C276.805 151.428 270.94 137.634 264.982 132.138C262.144 129.52 255.544 129.036 249.412 129.249C246.397 130.26 244.121 131.538 243.295 132.885C243.295 132.885 243.202 147.424 253.719 175.565C256.882 183.3 259.212 187.121 260.697 194.95C262.183 202.779 263.118 211.911 262.746 213.587C264.203 213.587 266.973 213.587 269.043 213.587C268.993 211.344 268.654 200.316 266.677 189.894C264.466 178.223 260.961 164.804 260.084 159.073C259.208 153.342 258.162 146.004 258.44 141.808C259.056 142.426 261.433 148.962 262.656 152.894C262.656 152.811 262.652 152.721 262.652 152.642C264.236 157.86 268.701 168.018 278.475 182.184C288.249 196.351 291.505 213.59 291.505 213.59H297.265C296.223 208.564 293.099 194.538 288.53 182.831Z" fill="#272727"/>
<path d="M261.632 55.6259C261.632 55.6259 265.17 54.6942 266.006 56.0448C266.843 57.3954 268.102 60.519 272.985 61.2159C277.869 61.9129 281.223 62.8482 282.572 67.1815C283.131 69.0918 282.759 70.6302 281.919 72.9593C281.082 75.2885 280.198 79.2969 279.639 81.2541C279.08 83.2113 273.079 98.0747 272.891 99.1003C272.704 100.126 272.148 103.574 272.473 106.835C272.798 110.096 273.263 115.35 277.732 127.123C278.521 129.387 277.825 130.134 277.544 130.412C277.266 130.69 264.373 139.639 242.873 137.822C242.314 137.682 242.019 137.718 242.019 136.634C242.019 135.551 239.617 109.54 239.617 109.54L229.752 114.946C229.752 114.946 229.009 115.831 227.52 114.527C226.03 113.223 222.914 107.677 224.076 106.792C225.241 105.907 236.872 97.2406 237.619 96.3089C238.365 95.3772 238.643 89.8305 238.643 89.8305C238.643 89.8305 238.365 89.5055 239.386 88.8988C239.433 87.5013 239.526 76.9243 241.618 71.1935C243.714 65.4626 246.888 65.1701 247.378 64.9282C247.869 64.6862 249.611 64.0543 251.079 61.2593C251.497 60.2409 253.336 57.0234 261.632 55.6259Z" fill="#1F326D"/>
<path d="M267.027 59.7752C267.027 59.7752 272.704 63.1768 275.87 64.4335C279.033 65.6902 279.874 68.9077 279.733 70.5833C279.592 72.2624 279.268 75.3355 278.056 78.8311C276.848 82.3267 270.395 99.1473 269.667 100.964C268.938 102.78 268.145 104.726 268.145 104.726C268.145 104.726 267.586 107.767 264.481 106.825C261.375 105.882 246.714 100.151 242.004 97.4573C241.304 96.6881 241.272 96.9698 241.445 96.0959C241.618 95.222 242.228 89.6284 239.386 88.8953C239.386 88.8953 239.306 78.5278 240.965 74.3569C242.621 70.186 244.345 66.9721 246.043 65.9682C247.742 64.968 250.35 63.4585 250.948 62.1477C250.948 62.1477 246.336 74.4616 250.523 84.5583C251.432 86.9345 252.023 88.9964 256.001 92.9109C256.488 93.3984 256.683 94.1784 256.683 94.1784C256.683 94.1784 256.762 94.3698 256.813 94.1712C256.867 93.9689 257.022 93.1853 256.236 92.4162C255.45 91.647 252.633 88.3175 252.633 88.1695C252.633 88.0214 252.553 87.2883 252.972 86.1256C253.39 84.9628 254.999 78.9719 255.442 77.69C255.886 76.408 259.316 64.8163 264.517 60.0315C265.422 59.3671 266.645 59.3418 267.027 59.7752Z" fill="#283B88"/>
<path d="M271.124 66.5784C271.124 66.5784 266.936 77.3431 265.447 82.7021C263.957 88.061 262.98 92.4413 263.121 95.6082C263.261 98.7752 263.225 98.1577 263.503 100.151C263.781 102.144 263.662 102.823 263.662 102.823C263.662 102.823 263.207 96.6374 260.711 94.5754C261.13 92.759 263.514 86.0532 264.12 84.1429C264.726 82.2326 266.424 77.5959 266.936 74.5662C267.449 71.5364 267.752 70.7203 267.752 70.7203C267.752 70.7203 267.308 74.2845 267.308 74.6817C267.308 75.079 271.124 66.5784 271.124 66.5784Z" fill="#1F326D"/>
<path d="M242.034 136.985C257.041 137.627 258.869 136.06 259.547 135.97C260.233 135.876 259.991 135.388 259.991 135.388C259.991 135.388 259.908 134.887 259.908 134.143C259.302 110.613 257.441 106.406 257.441 106.406C257.221 105.701 256.86 105.673 256.442 105.441C244.948 102.202 238.131 98.6164 238.131 98.6164L236.162 97.5728C233.15 99.9994 226.478 104.986 224.531 106.453C230.034 107.713 229.594 112.703 229.594 112.703C235.195 109.872 238.43 104.654 238.964 103.968C238.719 105.434 239.617 109.547 239.617 109.547C239.617 109.547 242.019 135.558 242.019 136.642C242.023 136.768 242.026 136.883 242.034 136.985Z" fill="#283B88"/>
<path d="M246.819 110.284C247.589 110.284 248.214 109.306 248.214 108.099C248.214 106.893 247.589 105.915 246.819 105.915C246.048 105.915 245.423 106.893 245.423 108.099C245.423 109.306 246.048 110.284 246.819 110.284Z" fill="#1F326D"/>
<path d="M247.858 118.669C248.683 118.669 249.351 117.66 249.351 116.415C249.351 115.171 248.683 114.162 247.858 114.162C247.033 114.162 246.365 115.171 246.365 116.415C246.365 117.66 247.033 118.669 247.858 118.669Z" fill="#1F326D"/>
<path d="M252.841 110.457C253.642 110.457 254.291 109.393 254.291 108.081C254.291 106.769 253.642 105.705 252.841 105.705C252.041 105.705 251.392 106.769 251.392 108.081C251.392 109.393 252.041 110.457 252.841 110.457Z" fill="#1F326D"/>
<path d="M253.852 118.669C254.595 118.669 255.197 117.605 255.197 116.293C255.197 114.981 254.595 113.917 253.852 113.917C253.109 113.917 252.506 114.981 252.506 116.293C252.506 117.605 253.109 118.669 253.852 118.669Z" fill="#1F326D"/>
<path d="M246.458 110.284C247.229 110.284 247.854 109.306 247.854 108.099C247.854 106.893 247.229 105.915 246.458 105.915C245.687 105.915 245.062 106.893 245.062 108.099C245.062 109.306 245.687 110.284 246.458 110.284Z" fill="#142454"/>
<path d="M247.498 118.669C248.323 118.669 248.991 117.66 248.991 116.415C248.991 115.171 248.323 114.162 247.498 114.162C246.673 114.162 246.005 115.171 246.005 116.415C246.005 117.66 246.673 118.669 247.498 118.669Z" fill="#142454"/>
<path d="M252.482 110.457C253.282 110.457 253.931 109.393 253.931 108.081C253.931 106.769 253.282 105.705 252.482 105.705C251.681 105.705 251.032 106.769 251.032 108.081C251.032 109.393 251.681 110.457 252.482 110.457Z" fill="#142454"/>
<path d="M253.491 118.669C254.234 118.669 254.837 117.605 254.837 116.293C254.837 114.981 254.234 113.917 253.491 113.917C252.748 113.917 252.146 114.981 252.146 116.293C252.146 117.605 252.748 118.669 253.491 118.669Z" fill="#142454"/>
<path d="M263.629 53.5783C263.629 53.5783 263.258 51.4802 263.442 50.1766C263.629 48.873 266.14 45.7494 266.28 44.5396C266.421 43.3299 264.884 32.6121 264.884 32.6121C264.884 32.6121 249.899 28.9324 248.738 29.0226C247.573 29.1165 243.432 31.3518 243.432 31.3518C243.432 31.3518 242.408 35.9885 242.642 37.1766C242.877 38.3646 243.735 39.4588 243.735 39.8777C243.735 40.2966 243.757 40.7155 243.201 41.7663C242.642 42.8135 240.666 46.031 240.666 46.031C240.666 46.031 240.269 46.9158 241.131 47.4972C241.993 48.0786 243.108 48.1508 243.295 48.2411C243.483 48.3313 243.677 49.4761 243.677 49.4761L246.051 54.7194L251.356 55.9761L251.951 58.3522L259.258 56.5358L263.629 53.5783Z" fill="#893F4B"/>
<path d="M254.161 32.959C253.043 31.9082 251.305 31.7421 250.043 32.7857C249.321 33.3815 249.206 33.544 248.845 34.1724C248.485 34.8007 247.879 34.6454 247.879 34.6454L246.274 33.3815L244.589 33.5801C244.589 33.5801 242.746 35.1365 242.71 37.426C243.003 38.5165 243.738 39.4915 243.738 39.8815C243.738 40.3004 243.76 40.7193 243.204 41.7702C242.649 42.821 240.669 46.0349 240.669 46.0349C240.669 46.0349 240.272 46.9196 241.134 47.501C241.996 48.0824 243.111 48.1546 243.298 48.2449C243.486 48.3352 243.681 49.4799 243.681 49.4799L245.895 54.373H246.959C246.959 54.373 254.778 50.3177 254.883 50.1444C254.987 49.971 255.453 45.3452 254.861 43.3518C254.757 42.1277 254.717 40.6977 254.908 38.9715C255.099 37.2454 256.044 34.7285 254.161 32.959Z" fill="#94505B"/>
<path d="M263.251 53.8348C263.24 53.8131 263.226 53.7987 263.215 53.777C261.339 50.2128 260.928 47.6598 262.926 45.2836C264.102 43.8825 263.839 42.1997 263.211 41.4631C262.584 40.7264 261.213 40.015 259.565 40.8817C257.686 41.8711 258.284 45.4534 258.753 46.6125C259.222 47.7717 260.246 48.3387 259.871 50.5956C259.68 51.7476 255.507 57.4098 255.507 57.4098L255.515 57.4676L259.255 56.5359L263.251 53.8348Z" fill="#94505B"/>
<path d="M263.467 52.8776V53.2026C263.467 53.2026 260.279 55.6727 256.997 56.0229C253.715 56.3732 252.366 56.4888 251.76 56.3263C251.525 56.3985 251.504 61.1038 251.504 61.1038C251.504 61.1038 246.454 74.92 251.807 86.2878C251.807 86.2878 252.084 87.1364 252.355 86.2878C252.622 85.4392 255.125 75.4436 259.171 67.1597C259.171 67.1597 262.104 61.4974 264.635 58.9118C265.404 57.8285 264.967 56.2396 264.967 56.2396C264.967 56.2396 264.444 52.7332 263.467 52.8776Z" fill="#E0E0E0"/>
<path d="M263.435 54.614C263.435 54.614 261.581 56.3618 256.384 57.6546C251.183 58.9474 249.787 70.2719 249.787 70.2719C249.787 70.2719 248.752 80.1555 251.915 86.0669C252.023 86.2656 252.131 86.4245 252.247 86.5472C252.283 86.4895 252.319 86.4064 252.359 86.2872C252.625 85.4386 255.128 75.443 259.175 67.1591C259.175 67.1591 260.726 64.1691 262.544 61.5402C262.839 60.7168 263.175 59.8754 263.435 59.4818C264.03 58.5935 264.271 58.106 264.03 56.8457C263.781 55.5926 263.435 54.614 263.435 54.614Z" fill="white"/>
<path d="M253.614 32.3016C252.546 31.7671 251.276 31.7274 250.169 32.1788C249.491 32.4569 248.835 32.9119 248.705 33.6557C248.705 33.6557 248.741 34.8546 247.785 34.6235C246.829 34.3888 246.808 34.4032 246.772 34.5296C246.739 34.6488 246.62 35.2302 247.024 35.7755C247.071 35.8405 247.028 35.938 246.945 35.938C246.097 35.956 243.771 35.3349 243.201 33.2188C242.913 32.1463 243.226 31.0088 243.937 30.1529C245.279 28.5388 248.341 25.6535 252.715 25.4115C258.602 25.0865 263.846 26.8379 266.514 29.9796C269.05 32.9624 271.391 37.9819 267.899 45.0416C264.408 52.1014 262.944 50.9819 262.944 50.9819C262.944 50.9819 260.571 48.92 262.212 47.0675C263.853 45.215 265.876 41.7916 262.071 40.1847C261.119 39.7838 259.907 40.1811 259.301 40.488C257.88 41.2102 257.624 43.8427 258.057 45.883C258.547 48.2086 260.221 49.3786 258.057 52.1375C255.893 54.9 252.542 58.9517 247.937 58.8831C247.937 58.8831 244.936 59.302 244.655 57.0667C244.377 54.8314 244.341 55.0408 244.2 54.5172C244.06 53.9936 244.236 52.4914 244.164 52.2097C244.096 51.9317 242.595 50.3211 243.569 48.6094C244.651 48.5047 245.21 49.5194 246.642 50.043C248.009 50.545 252.488 51.3936 254.169 48.01C254.302 47.7391 254.472 47.4864 254.659 47.248C254.89 46.9519 255.182 46.3344 255.161 45.1175C255.125 43.1241 254.916 40.2966 255.301 38.3719C255.626 36.7288 256.297 33.6485 253.614 32.3016Z" fill="black"/>
<path d="M245.145 38.8016C245.145 38.8016 244.997 38.7943 244.997 39.1264C244.997 39.4586 245.145 39.4044 245.145 39.4044C245.145 39.4044 246.959 39.1698 249.062 40.2852C249.235 40.3827 249.325 40.3646 249.386 40.2852C249.448 40.2058 249.43 40.0758 249.213 39.9531C248.993 39.8304 248.005 38.7113 245.145 38.8016Z" fill="black"/>
<path d="M245.817 41.2959C246.068 41.2959 246.272 40.8498 246.272 40.2996C246.272 39.7493 246.068 39.3032 245.817 39.3032C245.566 39.3032 245.362 39.7493 245.362 40.2996C245.362 40.8498 245.566 41.2959 245.817 41.2959Z" fill="black"/>
<path d="M150.316 29.6221L225.244 29.0371C225.818 29.0299 226.384 29.1346 226.918 29.3441C227.448 29.5535 227.931 29.8641 228.339 30.2613C228.746 30.6549 229.067 31.1244 229.291 31.6444C229.511 32.1608 229.626 32.7169 229.626 33.2802V105.42C229.623 106.546 229.168 107.622 228.357 108.421C227.545 109.215 226.445 109.663 225.295 109.663H222.662L215.615 109.652H108.508L97.5477 109.663H91.9322C91.5463 109.663 91.164 109.591 90.8105 109.446C90.4535 109.302 90.1325 109.089 89.8584 108.821C89.5843 108.554 89.3679 108.236 89.2236 107.89C89.0757 107.539 89 107.168 89 106.788V97.6197V86.371V85.5693V15.8673C89 15.3112 89.1118 14.7587 89.3282 14.2423C89.5446 13.7259 89.8656 13.2601 90.2659 12.8665C90.6699 12.4729 91.146 12.1587 91.6725 11.9457C92.1991 11.7326 92.7617 11.6243 93.3316 11.6243H128.338C128.907 11.6243 129.47 11.7326 129.997 11.9493C130.523 12.1623 130.999 12.4765 131.4 12.8737L147.222 28.3799C147.63 28.7807 148.113 29.0949 148.643 29.308C149.173 29.5174 149.743 29.6257 150.316 29.6221Z" fill="#6050DC"/>
<path d="M150.277 59.0418H142.126C140.398 59.0418 139.003 60.443 139.003 62.1691V70.3302C139.003 70.4675 139.053 70.6083 139.14 70.7094C139.345 70.9694 139.728 71.0019 139.976 70.7888C140.954 69.9836 142.169 69.543 143.432 69.5538C144.694 69.5538 145.909 69.9944 146.887 70.7997C149.202 72.71 149.53 76.1333 147.623 78.4517C145.715 80.77 142.296 81.0986 139.98 79.1883C139.875 79.1017 139.738 79.0511 139.601 79.0511C139.273 79.0511 139.006 79.3183 139.006 79.6469V86.7211C139.006 88.4509 140.406 89.8484 142.13 89.8484H166.648C168.375 89.8484 169.771 88.4473 169.771 86.7211V79.6469C169.771 79.3183 170.038 79.0511 170.366 79.0511C170.503 79.0511 170.644 79.1017 170.745 79.1883C173.06 81.0986 176.479 80.77 178.387 78.4517C180.295 76.1333 179.967 72.71 177.651 70.7997C176.674 69.9944 175.459 69.5538 174.196 69.5538C172.934 69.5466 171.708 69.9872 170.741 70.7888C170.492 70.9947 170.121 70.9622 169.904 70.7094C169.818 70.6047 169.767 70.4675 169.767 70.3302V62.1691C169.767 60.4394 168.368 59.0418 166.644 59.0418H159.579C159.25 59.0418 158.983 58.7746 158.983 58.446C158.983 58.3088 159.034 58.1679 159.121 58.0668C161.028 55.7485 160.7 52.3252 158.385 50.4149C156.069 48.5046 152.65 48.8332 150.742 51.1515C149.938 52.1301 149.498 53.3471 149.498 54.611C149.491 55.8749 149.931 57.1027 150.731 58.0705C150.937 58.3196 150.905 58.6916 150.652 58.9082C150.551 58.9877 150.414 59.0418 150.277 59.0418Z" fill="white"/>
<path d="M93.8688 109.655C96.1734 109.663 96.0291 109.67 97.0787 109.663C98.1823 109.655 99.8125 109.655 100.126 109.655C100.126 109.424 100.126 107.084 100.743 106.095C100.858 105.911 101.147 105.997 101.154 106.218C101.161 106.571 101.176 107.041 101.288 107.373C101.367 107.608 101.475 108.269 101.497 108.514C101.54 109.005 101.06 110.504 101.612 110.511C102.117 110.518 103.452 109.078 104.84 107.175C105.781 106.337 106.741 104.607 108.786 104.849C109.258 104.903 109.082 105.181 108.945 105.286C108.804 105.391 108.14 106.055 108.14 106.246C108.14 106.246 111.35 103.921 113.027 104.708C113.359 104.813 113.655 104.986 112.522 105.618C111.386 106.246 111.004 106.474 111.004 106.474C111.004 106.474 113.132 105.986 114.041 106.597C114.181 106.719 113.622 106.965 113.622 106.965C113.622 106.965 111.631 108.03 110.863 108.608C110.095 109.186 109.713 109.146 109.713 109.146C109.172 109.341 106.117 111.912 106.117 111.912L105.576 112.613C105.576 112.613 105.194 112.945 105.017 113.032C104.844 113.118 104.544 113.136 104.335 113.31C104.126 113.483 103.917 113.642 103.567 113.888C103.217 114.133 102.398 114.184 102.103 114.306C101.807 114.429 101.58 114.725 101.23 114.794C100.88 114.863 100.148 114.653 99.6935 114.707C99.239 114.761 98.5249 115.003 97.9659 115.003C97.4069 115.003 95.8993 114.303 94.8426 114.061C93.3927 113.729 91.7372 113.433 91.6651 113.433C91.593 113.433 91.0375 113.433 89.5191 111.912C88.7834 111.176 87.7771 110.374 86.7961 109.666C89.5877 109.63 91.6326 109.645 93.8688 109.655Z" fill="#FDD3BD"/>
<path d="M112.165 107.782C112.165 107.782 112.162 107.782 112.162 107.785C111.877 107.951 110.084 108.728 109.579 109.009C109.074 109.287 107.606 110.407 107.606 110.461C107.606 110.515 106.506 111.248 106.788 110.829C107.065 110.41 108.811 108.627 109.11 108.348C109.41 108.07 110.297 107.511 110.838 107.106C111.379 106.702 112.497 106.601 113.525 106.619C113.756 106.622 113.886 106.691 113.951 106.788C114.044 106.723 114.106 106.651 114.048 106.601C113.139 105.99 111.011 106.478 111.011 106.478C111.011 106.478 111.393 106.25 112.529 105.622C113.666 104.994 113.366 104.817 113.034 104.712C112.926 104.661 112.814 104.625 112.695 104.6C112.63 104.683 112.641 104.802 112.771 104.853C113.049 104.958 112.93 105.116 112.389 105.413C111.848 105.709 109.752 107.283 108.548 108.33C107.343 109.378 106.593 110.497 105.789 111.58C104.984 112.664 103.975 112.855 103.379 112.873C102.784 112.891 104.653 110.761 104.707 110.688C104.761 110.62 105.212 110.111 105.666 109.342C106.121 108.572 107.621 107.034 107.621 107.034L108.544 105.98C108.299 106.138 108.144 106.247 108.144 106.247C108.144 106.218 108.162 106.175 108.191 106.128H108.187C108.187 106.128 106.835 107.503 106.312 108.009C105.789 108.515 104.966 109.775 104.966 109.775C104.966 109.775 104.443 110.49 103.938 111.068C103.434 111.645 102.925 112.483 102.543 113.075C102.16 113.671 101.461 113.653 100.729 113.548C99.9964 113.444 101.951 110.753 101.951 110.753L103.747 109.06L105.439 107.189C105.439 107.189 106.102 106.315 107.444 105.478C108.407 104.878 108.696 105.2 108.786 105.431C108.854 105.362 108.916 105.308 108.948 105.286C109.089 105.181 109.262 104.903 108.789 104.849C106.748 104.604 105.789 106.333 104.844 107.175C104.851 107.142 103.863 108.28 103.589 108.554C103.012 109.132 101.793 110.562 101.616 110.512C101.536 110.486 101.389 110.826 100.884 111.873C100.379 112.92 99.661 113.567 98.9289 114.022C98.1967 114.477 95.8921 113.498 94.4602 113.148C93.0284 112.797 92.9599 111.682 92.9599 111.682C92.9599 111.682 93.133 110.562 91.9464 111.194C90.7598 111.822 88.7726 110.107 88.6427 109.992C88.5057 109.869 88.3542 109.739 88.2713 109.652C88.1054 109.652 87.0666 109.667 86.7961 109.667C87.7808 110.374 88.787 111.176 89.5191 111.913C91.0375 113.433 91.5966 113.433 91.6651 113.433C91.7336 113.433 93.3927 113.729 94.8426 114.061C95.8993 114.303 97.4069 115.004 97.9659 115.004C98.5249 115.004 99.239 114.758 99.6935 114.708C100.148 114.653 100.88 114.867 101.23 114.794C101.58 114.726 101.807 114.426 102.103 114.307C102.398 114.184 103.221 114.133 103.567 113.888C103.917 113.642 104.126 113.487 104.335 113.31C104.544 113.137 104.84 113.119 105.017 113.032C105.19 112.945 105.576 112.613 105.576 112.613L106.117 111.913C106.117 111.913 109.172 109.345 109.713 109.147C109.713 109.147 110.095 109.186 110.863 108.608C111.173 108.377 111.675 108.07 112.165 107.782Z" fill="#B09F83"/>
<path d="M71.6375 97.4932C71.6375 97.4932 71.6447 97.4968 71.6556 97.5077L71.8117 97.4932H71.6375Z" fill="#B09F83"/>
<path d="M101.161 106.312C101.161 106.016 101.039 105.998 100.844 105.994C100.123 106.695 100.13 109.389 100.13 109.656C99.8162 109.656 98.186 109.656 97.0824 109.663C96.0292 109.67 96.1735 109.663 93.8725 109.656C92.5885 109.652 89.613 109.649 88.2786 109.652C88.7763 110.078 91.9682 109.88 92.4983 110.075C93.079 110.291 94.7308 109.829 96.7578 110.494C97.8109 110.84 98.8929 112.039 99.2464 111.566C99.6431 111.039 100.116 110.707 100.177 110.342C100.271 109.804 100.422 108.547 100.473 107.33C100.494 106.763 100.866 105.911 101.161 106.312Z" fill="#B09F83"/>
<path d="M228.984 84.6341C228.984 84.6341 230.834 84.9483 231.916 85.053C232.998 85.1578 232.998 85.3311 233.557 85.7536C234.116 86.1761 236.734 88.3753 237.153 88.6208C237.571 88.8664 239.143 89.8775 239.63 90.1592C240.117 90.4372 241.445 91.7661 240.781 94.1098C240.117 96.4498 239.349 97.4645 238.022 97.9556C236.695 98.4431 235.858 97.255 235.858 97.255L235.335 96.4859C235.335 96.4859 232.684 96.1031 230.762 94.9475C229.611 94.8067 230.029 94.6695 229.297 94.6695C228.565 94.6695 224.829 94.8428 224.374 94.7056C223.92 94.5648 222.733 93.8317 223.119 93.6909C223.501 93.55 223.783 93.5175 224.515 93.5175C225.247 93.5175 226.329 93.3442 226.329 93.3442L228.425 93.0986C228.425 93.0986 228.984 92.4342 228.006 92.4342C227.029 92.4342 223.4 92.3656 222.701 92.2609C222.001 92.1561 220.537 91.7517 220.468 91.3581C220.4 90.9681 220.818 90.6864 220.818 90.6864C220.818 90.6864 222.528 90.8272 223.26 90.7911C223.992 90.755 225.179 90.7911 226.124 90.7911C227.068 90.7911 227.833 90.7225 228.042 90.6503C228.251 90.5781 229.265 90.1953 228.32 89.9497C227.379 89.7042 226.401 89.3539 226.401 89.3539C226.401 89.3539 223.642 89.2853 222.456 88.7581C221.269 88.2344 219.246 88.6533 219.105 86.5228C219.419 86.1725 221.547 86.8008 222.629 86.8731C223.711 86.9453 226.152 87.0464 226.152 87.0464C226.152 87.0464 227.061 86.9056 227.444 86.9778C227.826 87.05 226.639 86.5228 226.535 86.5228C226.43 86.5228 224.479 86.3494 223.815 86.1039C223.152 85.8583 220.476 85.6019 220.8 83.9589C220.926 83.5039 221.172 83.5039 221.94 83.6447C222.708 83.7855 224.616 84.0166 224.616 84.0166C224.616 84.0166 227.833 84.3886 228.984 84.6341Z" fill="#94505B"/>
<path d="M223.537 109.656C223.537 109.656 224.71 109.663 225.748 109.663C227.764 109.663 229.005 113.79 227.18 114.267C224.154 115.058 224.06 114.021 224.06 114.021L219.105 114.09C219.105 114.09 218.737 114.003 218.301 113.776C217.864 113.548 217.237 113.635 217.164 113.602C217.092 113.57 216.555 113.548 216.346 113.357C216.137 113.166 215.437 112.902 215.332 112.711C215.228 112.519 214.755 112.396 214.618 112.1C214.477 111.804 213.904 111.385 213.745 110.753C213.587 110.125 213.395 110.125 213.363 109.739C213.327 109.356 213.381 108.496 213.363 107.745C213.345 106.994 213.136 105.857 213.136 105.806C213.136 105.752 212.977 105.073 212.995 104.549C213.013 104.026 212.768 101.91 212.732 101.736C212.696 101.563 212.454 100.48 212.645 100.339C212.836 100.198 213.727 100.18 213.955 100.826C213.955 100.826 213.9 98.8871 214.077 98.4683C214.254 98.0494 215.228 98.136 215.632 99.2555C216.036 100.375 216.382 102.227 216.346 102.646C216.31 103.065 216.851 104.567 216.833 105.196C216.833 105.196 216.991 103.466 217.006 103.065C217.024 102.664 217.042 101.108 217.092 100.74C217.146 100.371 218.488 100.129 218.697 101.996C218.906 103.867 218.679 104.217 218.679 104.391C218.679 104.564 218.802 105.698 218.766 106.398C218.73 107.099 219.098 107.695 219.098 107.695C219.098 107.695 219.202 106.261 219.375 105.774C219.548 105.286 220.021 102.664 220.021 102.506C220.021 102.347 221.207 102.209 221.244 103.343C221.28 104.477 220.98 105.528 220.98 105.579C220.98 105.633 221.139 106.94 220.998 107.344C220.858 107.745 221.139 108.218 221.139 108.218C221.139 108.218 221.269 108.764 220.876 109.634C220.886 109.637 222.527 109.656 223.537 109.656Z" fill="#94505B"/>
<path d="M240.781 94.102C241.445 91.762 240.117 90.4331 239.63 90.1514C239.306 89.9672 238.505 89.4581 237.881 89.0645C238.988 90.5306 240.063 92.9753 237.38 95.1492C236.648 95.745 233.889 95.0084 233.889 95.0084C233.889 95.0084 230.138 93.8384 229.315 93.907C228.547 93.972 223.988 94.1453 223.339 93.6109C223.267 93.6289 223.199 93.6542 223.123 93.6795C222.741 93.8203 223.927 94.5534 224.378 94.6942C224.829 94.835 228.565 94.6581 229.301 94.6581C230.033 94.6581 229.615 94.7989 230.765 94.9361C232.684 96.0881 235.339 96.4745 235.339 96.4745L235.861 97.2437C235.861 97.2437 236.698 98.4317 238.025 97.9442C239.349 97.4567 240.117 96.442 240.781 94.102Z" fill="#893F4B"/>
<path d="M220.869 83.7925C220.844 83.8394 220.822 83.8936 220.804 83.955C220.48 85.598 223.156 85.8544 223.819 86.1C224.483 86.3455 226.434 86.5189 226.539 86.5189C226.643 86.5189 227.83 87.0425 227.448 86.9739C227.314 86.9486 227.112 86.9522 226.91 86.9631C227.574 87.0208 228.605 87.1436 229.219 87.4108C230.221 87.8478 226.885 86.2733 226.625 86.2408C226.066 86.1722 225.284 86.0422 224.216 85.7353C223.553 85.5439 222.802 85.5258 222.489 85.3525C222.251 85.2153 221.118 84.4569 220.869 83.7925Z" fill="#893F4B"/>
<path d="M222.456 88.7534C223.642 89.277 226.402 89.3492 226.402 89.3492C226.402 89.3492 227.379 89.6995 228.32 89.9451C228.638 90.0281 228.731 90.1256 228.71 90.2195L229.316 90.2231C229.316 90.2231 227.415 89.1939 226.47 89.1578C225.529 89.1217 223.909 89.0062 222.474 88.4248C221.655 88.0926 221.096 88.0564 221.096 88.0564C221.096 88.0564 219.733 87.7495 219.433 86.417C219.278 86.4242 219.163 86.4567 219.109 86.5181C219.246 88.6487 221.269 88.2298 222.456 88.7534Z" fill="#893F4B"/>
<path d="M228.007 92.4264C228.284 92.4264 228.436 92.4805 228.512 92.5563C228.613 92.5491 228.67 92.5491 228.67 92.5491C228.67 92.5491 227.747 92.1123 225.861 92.1303C224.108 92.1448 221.435 92.1917 220.624 90.8633C220.527 90.9824 220.433 91.1521 220.469 91.3506C220.537 91.7405 222.005 92.1484 222.701 92.2531C223.397 92.3578 227.029 92.4264 228.007 92.4264Z" fill="#893F4B"/>
<path d="M226.051 111.367C226.051 111.367 221.893 115.527 213.868 111.063C214.095 111.526 214.507 111.854 214.622 112.1C214.763 112.396 215.231 112.519 215.336 112.71C215.441 112.902 216.14 113.165 216.35 113.357C216.559 113.548 217.1 113.566 217.168 113.602C217.237 113.638 217.868 113.548 218.304 113.775C218.741 114.003 219.109 114.09 219.109 114.09L224.064 114.021C224.064 114.021 224.136 114.819 226.196 114.48L226.051 111.367Z" fill="#893F4B"/>
<path d="M240.781 94.1022C241.444 91.7622 240.117 90.4333 239.63 90.1516C239.414 90.0289 238.985 89.7616 238.538 89.48C239.353 90.538 239.926 92.0186 239.035 93.7519C237.748 96.2581 236.146 96.5289 235.328 96.4783H235.335L235.858 97.2475C235.858 97.2475 236.695 98.4356 238.022 97.9481C239.349 97.457 240.117 96.4422 240.781 94.1022Z" fill="white"/>
<path d="M224.829 109.659C225.125 110.396 225.316 111.248 225.099 112.147C224.959 112.736 224.638 113.367 224.061 114.021C224.061 114.021 224.017 114.563 225.319 114.563C225.763 114.563 226.376 114.483 227.177 114.292C229.777 113.667 229.417 111.316 228.262 109.565C227.721 109.713 225.958 109.608 224.829 109.659Z" fill="white"/>
<path d="M214.759 106.301C214.759 105.918 214.481 105.39 214.445 104.675C214.416 104.105 214.063 101.729 213.922 100.768C213.659 100.194 212.833 100.209 212.646 100.342C212.563 100.404 212.563 100.645 212.591 100.916C213.129 100.895 213.782 101.014 213.865 101.722C214.009 102.946 214.009 104.271 214.146 104.762C214.287 105.25 214.409 105.791 214.514 106.402C214.618 107.016 214.932 108.204 214.932 108.204C214.932 108.204 214.759 106.683 214.759 106.301Z" fill="#893F4B"/>
<path d="M216.209 102.578C216.4 103.643 216.295 104.658 216.454 105.459C216.613 106.265 216.732 108.045 216.732 108.045C216.732 108.045 216.923 106.944 217.024 105.756C217.125 104.567 217.024 102.646 217.024 102.646C217.02 102.827 217.017 102.975 217.013 103.065C216.995 103.466 216.84 105.196 216.84 105.196C216.858 104.567 216.317 103.065 216.353 102.646C216.389 102.227 216.039 100.375 215.639 99.2555C215.239 98.136 214.261 98.0494 214.085 98.4683C214.03 98.5946 214.002 98.8619 213.98 99.1724C215.542 98.2913 216.021 101.534 216.209 102.578Z" fill="#893F4B"/>
<path d="M219.098 107.68C219.051 107.601 218.744 107.052 218.777 106.402C218.813 105.701 218.69 104.567 218.69 104.394C218.69 104.221 218.917 103.871 218.708 102C218.499 100.129 217.154 100.375 217.103 100.743C217.092 100.83 217.082 100.982 217.071 101.169C217.327 101.076 217.853 100.964 218.113 101.549C218.463 102.336 218.708 103.051 218.618 103.802C218.532 104.553 218.636 106.055 218.636 106.055C218.636 106.055 218.687 107.243 218.759 107.716C218.816 108.106 219.036 108.706 219.094 109.013C219.087 108.735 219.091 108.161 219.098 107.68Z" fill="#893F4B"/>
<path d="M219.105 109.165C219.112 109.133 219.105 109.075 219.091 109.009C219.094 109.136 219.098 109.205 219.105 109.165Z" fill="#893F4B"/>
<path d="M220.768 103.033C220.991 103.416 221.15 103.733 221.009 104.412C220.869 105.095 220.753 105.81 220.768 106.561C220.782 107.312 221.045 108.395 220.991 108.886C220.937 109.374 220.887 109.637 220.887 109.637L221.017 109.302C221.139 108.984 221.19 108.641 221.154 108.298L221.146 108.222C221.146 108.222 220.869 107.749 221.006 107.348C221.146 106.947 220.988 105.636 220.988 105.582C220.988 105.528 221.283 104.481 221.251 103.347C221.215 102.209 220.028 102.35 220.028 102.509C220.028 102.545 220.007 102.7 219.967 102.921C220.216 102.831 220.613 102.773 220.768 103.033Z" fill="#893F4B"/>
</svg>
