<svg width="324" height="231" viewBox="0 0 324 231" fill="none" xmlns="http://www.w3.org/2000/svg">
<path d="M237.315 20.3906V229.605H85.8439C85.8439 229.605 79.3203 229.019 79.3203 203.611C79.3203 178.204 79.3203 34.4327 79.3203 34.4327C79.3203 34.4327 76.0601 20.3906 90.3582 20.3906C104.656 20.3906 237.315 20.3906 237.315 20.3906Z" fill="#3D358A"/>
<path d="M94.6263 208C94.6263 208 81.3359 207.5 81.3296 218.619C81.3296 228.526 86.33 229.524 87.8143 229.605H88.2291H237.315V208H94.6263Z" fill="#281F7E"/>
<path d="M159.956 21.7712C161.658 21.2851 163.489 21.4017 165.132 22.0629C167.008 22.8179 169.328 24.38 169.328 27.4781C169.328 32.6827 169.328 45.4803 169.328 45.4803H174.034V28.2299C174.034 28.2299 174.173 16.6022 162.406 16.6022C150.639 16.6022 150.075 23.7966 150.075 27.4975C150.075 31.1984 150.075 45.4771 150.075 45.4771H155.03V27.7276C155.027 27.7276 155.251 23.1161 159.956 21.7712Z" fill="#EE8F7C"/>
<path d="M168.135 5.64375C168.135 2.52681 165.608 3.05176e-05 162.491 3.05176e-05C159.374 3.05176e-05 156.848 2.52681 156.848 5.64375V33.5626C156.848 36.6795 159.374 39.2063 162.491 39.2063C165.608 39.2063 168.135 36.6795 168.135 33.5626V5.64375Z" fill="#281F7E"/>
<path d="M162.503 41.9317C162.503 41.9317 173.291 41.7859 177.89 45.2988C178.81 45.9664 177.89 46.3553 177.89 46.3553C177.89 46.3553 175.058 47.4053 176.484 50.0724C176.921 50.8081 177.926 51.4692 180.074 51.4821C180.953 51.4821 181.046 52.0946 180.781 52.7849C180.515 53.4752 180.797 55.5914 183.979 55.546C184.747 55.546 185.389 55.4358 185.389 55.7178C185.389 55.9997 185.736 67.9353 180.23 76.7047C171.908 89.9592 162.698 91.4078 162.698 91.4078C162.698 91.4078 149.284 88.0375 143.849 74.9903C138.415 61.9432 139.144 55.7955 139.144 55.7955C139.144 55.7955 138.956 55.5752 140.431 55.6076C141.905 55.64 143.347 55.3256 143.849 54.5414C144.352 53.7571 143.882 51.9391 143.882 51.9391C143.882 51.9391 143.662 51.5632 144.793 51.5016C145.92 51.44 148.085 51.252 148.493 49.4632C148.902 47.6743 146.643 46.3586 146.643 46.3586C146.643 46.3586 145.671 45.7299 147.207 45.072C148.743 44.4141 151.42 41.9739 162.503 41.9317Z" fill="#FFAD9C"/>
<path d="M183.066 58.0673C181.232 79.3847 166.302 83.3644 162.993 84.4954C154.684 81.731 143.318 73.2922 141.38 58.0835C145.859 58.0835 146.63 55.3062 146.024 53.2905C146.024 53.2905 149.764 52.3344 150.383 50.2474C151.002 48.1604 149.631 45.9502 149.631 45.9502C149.631 45.9502 156.336 43.7887 162.688 43.7887C169.04 43.7887 175.787 45.7331 175.787 45.7331C175.787 45.7331 173.697 48.047 174.241 50.1664C174.786 52.2826 177.845 53.4039 178.088 53.3456C178.088 53.3423 176.633 57.1177 183.066 58.0673Z" fill="#FFAD9C"/>
<path d="M163.598 41.9415C162.911 41.9252 162.5 41.9285 162.5 41.9285C151.42 41.9706 148.743 44.4076 147.207 45.0655C145.671 45.7234 146.643 46.3521 146.643 46.3521C146.643 46.3521 148.902 47.6678 148.493 49.4567C148.085 51.2456 145.92 51.4335 144.792 51.4951C143.665 51.5567 143.882 51.9326 143.882 51.9326C143.882 51.9326 144.352 53.7506 143.849 54.5349C143.347 55.3192 141.905 55.6335 140.43 55.6011C138.956 55.5687 139.144 55.7891 139.144 55.7891C139.144 55.7891 138.411 61.9367 143.849 74.9838C149.287 88.0342 162.701 91.4046 162.701 91.4046C162.701 91.4046 163.326 91.3041 164.396 90.925C155.545 64.6362 161.505 46.8771 163.598 41.9415Z" fill="#EE8F7C"/>
<path d="M145.2 56.065C145.849 55.1503 145.907 54.0441 145.704 53.047C145.744 53.0367 145.787 53.0258 145.831 53.0141C146.216 52.912 146.738 52.7518 147.286 52.5191C148.339 52.0712 149.657 51.2819 150.049 49.9656L150.049 49.965C150.428 48.6854 149.956 47.4473 149.458 46.5891C149.269 46.2614 149.067 45.9756 148.89 45.7464C149.066 45.6978 149.27 45.6423 149.5 45.5812C150.357 45.3535 151.569 45.0496 152.985 44.7458C155.823 44.1368 159.457 43.5336 162.698 43.5336C165.937 43.5336 169.466 44.1365 172.198 44.745C173.561 45.0486 174.72 45.3522 175.537 45.5797C175.72 45.6305 175.885 45.6775 176.032 45.7199C175.847 45.9283 175.64 46.1843 175.442 46.4778C174.887 47.2977 174.339 48.5022 174.674 49.8078L174.674 49.808C175.016 51.1405 176.267 51.9623 177.314 52.4293C177.854 52.6707 178.383 52.8365 178.795 52.9384C178.853 52.9528 178.91 52.9659 178.964 52.978C178.957 53.0036 178.951 53.0298 178.944 53.0567C178.845 53.4808 178.787 54.0763 178.982 54.7177C179.371 55.9904 180.66 57.1865 183.737 57.7312C182.714 68.3772 178.361 74.9246 173.853 78.9629C169.414 82.9389 164.799 84.506 162.961 85.1303C162.957 85.1316 162.953 85.1329 162.95 85.1342C154.599 82.2869 143.273 72.9185 141.108 57.7991C143.174 57.7014 144.491 57.064 145.2 56.065Z" stroke="black"/>
<path d="M162.555 60.1154C164.103 60.1154 165.358 58.8604 165.358 57.3122C165.358 55.764 164.103 54.509 162.555 54.509C161.007 54.509 159.752 55.764 159.752 57.3122C159.752 58.8604 161.007 60.1154 162.555 60.1154Z" fill="black"/>
<path d="M161.534 59.7492L160.844 70.57L162.571 72.2941L164.247 70.5538L163.621 59.639L161.534 59.7492Z" fill="black"/>
<path d="M114.884 64.1403C118.655 64.1403 121.712 61.0832 121.712 57.3121C121.712 53.541 118.655 50.4839 114.884 50.4839C111.113 50.4839 108.056 53.541 108.056 57.3121C108.056 61.0832 111.113 64.1403 114.884 64.1403Z" fill="#FDBD00"/>
<path d="M151.836 54.8881H119.904V58.2746H151.836V54.8881Z" fill="#FDBD00"/>
<path d="M151.836 56.7774H141.336V61.7876H151.836V56.7774Z" fill="#FDBD00"/>
<path d="M151.836 61H148.836V65H151.836V61Z" fill="#FDBD00"/>
<path d="M147.836 61H144.836V63H146.336H147.836V61Z" fill="#FDBD00"/>
<path d="M143.836 61H141.336V64H143.836V61Z" fill="#FDBD00"/>
<path d="M7.08783 210.89C7.08783 210.89 10.4744 211.127 9.9105 215.547C9.21374 218.794 9.48596 220.424 10.241 224.673C10.6494 227.214 9.55078 229.942 9.17485 230.318H4.0934C4.0934 230.318 2.26888 228.594 2.82304 224.705C3.3772 220.817 3.19572 219.861 2.97535 218.149C2.75498 216.442 2.1036 210.731 7.08783 210.89Z" fill="#E4B523"/>
<path d="M24.7919 170.219C24.7919 170.219 24.2053 175.32 18.1841 189.119C12.1628 202.918 9.27855 208.855 9.4017 211.448C9.52809 214.04 9.68688 215.087 9.39846 216.548C9.11004 218.013 9.15216 220.606 9.57022 223.49C9.98827 226.374 8.98365 226.501 8.52347 226.792C8.06328 227.084 5.72024 228.338 3.84062 226.543C3.84062 226.543 3.17303 226.021 3.40312 224.265C3.63322 222.508 3.9346 221.63 3.35451 217.825C2.77443 214.021 5.07534 210.278 5.07534 210.278C5.07534 210.278 6.91607 203.881 7.98227 194.473C9.04846 185.065 11.6216 175.845 15.3841 168.378C19.1466 160.915 25.3558 164.532 24.7919 170.219Z" fill="#B4785C"/>
<path d="M30.1457 167.542C30.1457 167.542 28.305 175.654 29.0601 185.104C29.8119 194.554 30.5929 194.865 28.8786 207.643C28.3892 211.282 27.6795 212.284 27.5531 212.786C27.4268 213.288 25.2522 216.759 29.3939 219.478C33.5323 222.197 42.6906 227.214 42.6906 227.214L45.4516 225.96C45.4516 225.96 43.5267 224.874 42.7748 223.827C42.023 222.78 37.4211 215.758 36.7114 213.875C36.0017 211.992 34.9128 208.187 36.6272 199.531C38.3415 190.876 42.7327 170.384 42.7327 170.384C42.7327 170.384 39.5762 159.178 30.1457 167.542Z" fill="#B4785C"/>
<path d="M21.3442 178.162C21.3442 178.162 22.7864 172.705 18.9623 172.643C15.1382 172.582 13.8808 173.395 12.7531 177.41C11.6253 181.426 8.3619 194.784 8.04755 197.606C7.7332 200.429 5.53923 210.654 4.88136 212.345C4.2235 214.04 3.97072 215.511 4.25266 216.736C4.53461 217.958 5.31886 220.282 4.59618 222.602C3.8735 224.923 4.22026 225.017 4.75173 225.58C5.28645 226.144 7.26005 227.023 8.70217 225.58C10.1443 224.138 9.17208 223.48 9.0781 222.79C8.98412 222.1 7.88551 218.085 8.85773 213.288C9.82995 208.492 11.1781 203.942 13.3105 199.269C15.4461 194.596 20.2456 183.587 21.3442 178.162Z" fill="#BE8266"/>
<path d="M42.7747 223.827C42.0229 222.78 37.421 215.758 36.7113 213.875C36.0016 211.992 34.9127 208.187 36.6271 199.531C37.9882 192.655 41.0377 178.314 42.2367 172.705C40.2502 172.941 34.8447 174.017 32.8743 178.791C30.4405 184.686 31.066 190.645 31.3803 192.966C31.6947 195.286 31.9442 202.5 30.4405 207.267C28.9336 212.034 29.7502 212.974 30.1262 214.228C30.5021 215.482 32.9488 220.564 38.2798 222.946C40.2502 223.827 42.0455 224.329 43.5298 224.615C43.2349 224.362 42.9659 224.093 42.7747 223.827Z" fill="#BE8266"/>
<path d="M28.1816 211.065C28.1816 211.065 25.9682 213.246 26.0038 216.843C26.1075 218.636 26.4543 218.999 27.3001 221.277C27.7603 222.362 29.0145 225.02 28.846 230.224H30.4339C30.4339 230.224 29.6821 224.621 31.6038 223.659C33.5256 222.696 35.3047 224.683 35.6191 224.974C35.9334 225.266 40.4283 230.328 41.851 230.315C43.2736 230.305 49.5866 230.315 49.5866 230.315C49.5866 230.315 54.2694 227.836 51.2815 227.211C48.9708 226.728 46.1384 225.545 44.9685 225.03C44.625 224.88 44.2588 224.809 43.8861 224.812C42.4116 224.832 38.1144 224.488 33.6163 220.392C28.0552 215.337 28.1816 211.065 28.1816 211.065Z" fill="#E4B523"/>
<path d="M47.8755 93.0252C47.8755 93.0252 50.1343 92.6071 50.6366 100.719C51.1389 108.83 51.8907 123.465 49.256 138.603C46.6213 153.74 44.9491 156.835 44.7806 161.184C44.6121 165.533 44.3625 169.318 44.3949 169.821C44.4273 170.323 45.2732 171.107 41.2579 171.357C37.2427 171.606 26.7071 173.019 15.29 169.662C14.8655 169.432 14.3599 169.516 14.7553 168.544C15.1507 167.571 18.3946 160.348 19.1465 156.365C19.8983 152.382 20.9645 146.205 20.4006 139.711C19.8367 133.217 17.7983 113.899 18.8937 106.435C19.9923 98.9719 21.9465 94.1529 28.2173 92.6881C34.4945 91.2266 47.8755 93.0252 47.8755 93.0252Z" fill="#00274E"/>
<path d="M46.7251 85.3739C46.7251 85.3739 48.8153 83.6595 48.7311 86.21C48.6468 88.7604 48.4589 89.0132 48.4589 89.0132C48.4589 89.0132 48.0603 89.8493 48.2482 90.371C48.4362 90.8928 48.9223 93.0058 48.7311 93.4659C48.5399 93.9261 46.7218 93.9683 40.8659 94.0104C35.0099 94.0525 27.9451 93.4238 27.7993 93.1127C27.6534 92.8016 27.5692 92.2766 27.6534 90.6886C27.7377 89.1007 27.527 87.8238 27.527 87.8238C27.527 87.8238 27.2224 85.7984 27.4687 85.578C27.715 85.3577 28.8039 85.5651 28.8039 85.5651L46.7251 85.3739Z" fill="#1A1A1A"/>
<path d="M47.3729 94.3636C47.3729 94.3636 43.1405 94.6455 41.3516 94.6779C39.5628 94.7103 38.8174 94.8659 38.0785 95.3066C37.3396 95.7441 36.4614 96.1849 34.6401 96.4668C32.8221 96.7487 30.6573 96.8751 29.4355 99.5714C28.2138 102.268 26.386 108.354 27.3777 122.966C28.3693 137.582 29.9378 153.889 26.6128 163.485C24.8304 168.975 24.9828 170.196 24.9828 170.196C24.9828 170.196 24.8888 170.446 25.6406 170.572C26.3925 170.699 35.2364 171.7 42.7322 170.384C43.2961 170.258 43.484 170.07 43.484 169.13C43.484 168.19 42.9817 158.154 46.3067 141.72C49.6317 125.287 51.2002 115.626 50.322 105.781C49.4437 95.9321 48.6886 94.2793 47.3729 94.3636Z" fill="#003366"/>
<path d="M40.872 94.0104C46.7248 93.9682 48.546 93.9261 48.7373 93.4659C48.8766 93.1289 48.653 91.9039 48.4488 91.0678C48.559 94.2923 42.3174 93.5729 41.478 93.5988C40.6419 93.6247 40.5577 93.2391 40.9757 92.8178C41.3938 92.3997 43.1924 91.3108 42.4405 91.272C41.6887 91.2331 38.3831 90.5622 38.3831 90.5622C38.3831 90.5622 39.7637 89.6419 40.4572 88.8479C41.1507 88.0539 40.266 87.7623 40.266 87.7623C40.266 87.7623 38.9308 87.9891 38.0785 87.5937C37.2262 87.1984 38.5517 86.5502 39.3035 86.3007C40.0554 86.0512 44.8225 86.5924 46.6211 86.3007C47.5414 86.1516 48.2414 85.8794 48.7081 85.6525C48.4715 83.9512 46.7248 85.3803 46.7248 85.3803L28.8068 85.5683C28.8068 85.5683 27.7212 85.3576 27.4716 85.5813C27.2253 85.8016 27.53 87.8271 27.53 87.8271C27.53 87.8271 27.7406 89.1039 27.6564 90.6919C27.5721 92.2798 27.6564 92.8048 27.8022 93.1159C27.948 93.4238 35.016 94.0493 40.872 94.0104Z" fill="#262626"/>
<path d="M32.0672 13.5141C32.0672 13.5141 36.4584 9.93954 41.9774 12.9502C47.4963 15.9608 46.9324 22.9867 46.9324 22.9867C46.9324 22.9867 46.1158 30.8908 45.176 36.5361C44.2361 42.1815 46.6829 47.574 46.6829 47.574C46.6829 47.574 47.3116 48.1703 46.6829 48.4199C46.0542 48.6694 39.7834 49.9884 32.7575 49.8296C25.7316 49.6708 32.0672 13.5141 32.0672 13.5141Z" fill="black"/>
<path d="M29.4553 48.5139C29.4553 48.5139 32.8645 48.368 33.6585 48.1379C34.1608 48.3259 33.9307 48.6176 34.096 48.9319C34.2645 49.2463 34.7636 49.4115 34.702 49.8717C34.6404 50.3319 34.608 50.8958 34.7085 51.0643C34.8089 51.2328 35.227 54.5351 38.445 54.3472C41.6631 54.1592 43.776 54.5157 48.125 56.3532C52.4741 58.1939 57.4486 59.9504 62.4685 60.2842C67.4884 60.618 70.7906 60.5337 73.5906 60.7443C76.3939 60.955 79.6119 61.3309 80.0721 61.3309C80.5323 61.3309 80.5517 61.6064 80.5517 61.6064C80.5517 61.6064 81.6179 68.6809 80.0818 68.4281C78.5457 68.1786 74.4365 68.2077 74.4365 68.2077C74.4365 68.2077 66.4708 67.2031 59.1954 66.3897C51.9199 65.573 50.3514 66.798 50.1311 67.5823C49.9107 68.3665 50.5394 71.0012 51.5732 72.6929C52.607 74.3878 51.8227 76.1443 51.1973 77.1456C50.5718 78.147 49.7227 80.2502 49.6612 82.2271C49.5996 84.2039 49.6287 84.8294 48.501 85.3641C47.3732 85.8988 46.7024 86.0447 41.0992 85.7724C39.0089 85.5845 37.7547 85.7271 36.1635 85.9053C34.5724 86.0835 28.9724 87.0039 27.3812 85.5002C25.7932 83.9933 26.8368 83.034 25.4173 80.9438C23.9946 78.8535 19.8984 73.542 19.2275 70.0711C17.9312 71.617 15.2123 75.0457 9.60907 79.8549C9.60907 79.8549 8.58501 80.9405 9.77759 82.0294C10.9702 83.1183 12.704 84.9363 13.0604 85.2085C13.4169 85.4808 13.7572 85.6363 13.5044 85.8923C13.2516 86.1484 10.3804 92.484 9.20398 91.9817C8.02436 91.4793 1.16699 87.0266 0.833201 86.8808C0.499406 86.7349 -0.443643 86.7544 0.246631 84.6868C0.936904 82.616 4.34614 76.397 7.38594 72.0059C10.4257 67.6147 11.1517 64.6008 14.4118 58.8939C16.0743 55.7569 18.1451 54.9726 20.2451 54.9726C22.3451 54.9726 24.3835 54.0944 24.4159 52.15C24.4483 50.2055 23.8196 48.9514 24.3544 48.5754C24.8858 48.1995 26.2761 48.9222 29.4553 48.5139Z" fill="#E4B523"/>
<path d="M76.5202 66.5158C78.066 66.182 78.9021 65.3881 79.197 63.9654C79.4887 62.5427 79.7836 61.6645 79.7836 61.6645L79.8549 61.3177C78.9766 61.2561 76.1183 60.9321 73.5938 60.7441C70.7906 60.5334 67.4883 60.6177 62.4716 60.2839C57.455 59.9501 52.4773 58.1937 48.1282 56.3529C43.7792 54.5122 41.6662 54.159 38.4482 54.3469C35.2269 54.5349 34.8088 51.2326 34.7116 51.0641C34.6727 50.9992 34.6533 50.8696 34.65 50.7076C29.7857 47.4053 27.2644 51.9617 26.0524 53.6761C24.8404 55.3904 22.4973 55.4326 19.4025 55.8506C16.3076 56.2687 14.2594 59.908 13.5497 61.12C12.84 62.3321 10.9993 66.6811 10.2928 67.9774C9.5863 69.2737 6.52706 74.2903 4.978 76.4227C3.42893 78.5551 2.38542 81.3162 1.88311 84.0741C1.3808 86.8351 4.85161 88.8412 6.7766 89.4083C8.70159 89.9754 9.95575 88.5074 9.95575 88.5074C9.95575 88.5074 10.7076 87.2111 12.1724 86.0833C12.7039 85.6717 12.9599 85.393 13.0701 85.2018C12.7104 84.9231 10.9798 83.1116 9.79047 82.0259C8.59788 80.9403 9.62195 79.8514 9.62195 79.8514C12.9567 76.9898 15.264 74.6209 16.865 72.8417C17.2733 72.0996 17.714 71.3866 18.1937 70.7352C21.833 65.7996 22.3321 62.1214 22.3321 62.1214C22.3321 62.1214 22.7922 62.5395 23.2103 64.2538C23.6284 65.9681 23.2103 68.2269 24.4645 72.3653C25.7186 76.5037 26.8075 78.0949 30.6964 82.068C34.5852 86.0412 40.1042 85.0365 41.4426 85.0365C42.781 85.0365 44.1616 85.3703 47.1301 85.2472C48.8768 85.1727 49.4439 84.2588 49.6319 83.2639C49.6481 82.9657 49.6578 82.6254 49.6675 82.2268C49.6773 81.9287 49.7064 81.6273 49.7486 81.3259V81.3227C49.8393 80.075 49.93 79.4366 50.9768 77.5408C52.0009 75.6903 51.9199 73.532 51.8162 73.1658C51.8032 73.1334 51.7902 73.1042 51.7773 73.0718C51.5763 72.7186 50.6754 71.7366 50.0111 69.8181C49.3014 67.77 49.7615 67.8121 50.6787 66.5515C51.599 65.2941 60.8805 64.8825 62.9318 64.8825C64.9767 64.8825 74.9711 66.8496 76.5202 66.5158Z" fill="#F4C430"/>
<path d="M27.219 10.1048C27.219 10.1048 33.1981 8.80856 38.5097 15.3321C43.8212 21.8557 42.4828 21.1039 42.4828 21.1039C42.4828 21.1039 37.2134 20.2127 30.6736 32.4529C24.1695 44.625 27.0116 51.4629 27.0116 51.4629C27.0116 51.4629 28.4343 52.2569 12.626 50.8342C7.02281 50.0403 5.22421 46.4009 5.30847 41.8866C5.39273 37.3723 5.76865 29.2575 10.4936 22.5687C15.2186 15.8798 18.145 13.284 21.1556 11.5697C24.1662 9.85531 27.219 10.1048 27.219 10.1048Z" fill="black"/>
<path d="M13.3134 85.7724C13.3134 85.7724 10.0532 87.8108 9.33057 91.6673C9.51853 91.8228 15.0375 94.6163 20.9972 99.2246C20.9972 99.2246 23.7583 101.733 25.1064 101.389C26.4545 101.046 27.6795 100.667 29.0568 98.6283C30.0291 97.6885 30.499 97.0922 30.8457 96.6839C31.1892 96.2756 31.9119 95.4298 32.9457 95.4913C33.9795 95.5529 36.5202 96.0552 37.4211 95.1997C38.3188 94.3409 37.7971 94.383 37.7549 94.3636C37.7128 94.3441 39.8031 94.3538 40.1174 93.5955C40.4318 92.8372 39.9068 92.9214 39.4271 92.8145C40.5128 92.6687 41.9581 91.9784 42.0619 91.3497C42.1656 90.721 41.5401 90.8895 41.0994 90.8701C40.6619 90.8506 38.2767 90.3678 37.567 90.0534C38.1114 89.7812 41.2063 88.6728 40.3896 88.0247C39.2392 87.8367 37.7355 88.1705 36.4586 87.9826C35.1818 87.7946 34.5758 87.8141 34.054 87.8562C33.5323 87.8983 31.2119 87.584 30.9818 87.5418C30.7517 87.4997 29.8735 87.2275 29.3096 87.8141C28.7457 88.4006 26.905 90.6562 26.5906 90.9932C26.2763 91.3302 24.5425 92.7497 24.2897 93.064C24.037 93.3784 23.8522 93.5923 23.8522 93.5923C23.8522 93.5923 23.6643 94.046 22.5981 93.1256C21.5319 92.2052 14.0458 86.1483 13.3134 85.7724Z" fill="#B4785C"/>
<path d="M80.1629 61.8267C80.1629 61.8267 78.7369 64.4452 80.3054 67.9744C80.5712 68.1299 81.0119 67.9582 81.7962 67.9744C82.5804 67.9906 86.9975 67.2679 95.9452 68.5448C104.893 69.8216 104.309 69.7373 106.4 69.3387C108.49 68.9401 110.12 67.8966 110.457 67.6438C110.791 67.3943 111.209 66.8077 112.923 66.4739C114.638 66.1401 114.638 65.6994 115.078 65.5536C115.516 65.4077 116.417 64.5489 118.465 64.7369C120.513 64.9249 118.361 63.4601 118.361 63.4601C118.361 63.4601 116.773 62.2254 114.599 62.4781C113.782 62.5818 113.782 62.7082 113.594 62.7698C113.406 62.8314 111.42 64.2767 110.584 63.9818C109.747 63.6902 107.971 62.9351 107.907 60.7411C107.845 58.5471 108.691 55.4101 110.791 54.3115C112.891 53.2129 115.577 52.4805 116.018 52.2536C116.456 52.0236 118.108 50.9995 118.799 50.8537C119.489 50.7078 122.27 50.1439 123.125 48.1574C123.375 47.5514 121.745 48.1152 121.537 48.1574C121.326 48.1995 118.63 48.825 118.442 48.8055C118.776 48.6176 121.933 46.4625 121.077 45.4384C120.908 45.2699 120.387 45.5 119.781 45.8565C119.175 46.2129 116.916 47.2986 116.038 47.5287C115.159 47.7588 114.343 48.0731 114.239 48.1963C114.135 48.3194 111.627 49.4926 110.788 49.4926C109.952 49.4926 109.219 50.0143 108.927 50.1828C108.636 50.3513 107.651 50.8731 106.772 51.1032C105.894 51.3333 105.415 51.855 104.996 52.1499C104.578 52.4416 103.156 53.174 102.718 53.6763C102.281 54.1786 101.882 54.6388 101.902 55.2027C101.921 55.7666 101.85 60.8999 96.9887 61.9661C92.1276 63.0323 80.649 61.6226 80.649 61.6226C80.649 61.6226 80.3022 61.5124 80.1629 61.8267Z" fill="#BE8266"/>
<path d="M42.1883 21.1038C42.1883 21.1038 44.0712 22.9867 42.48 28.3371C41.7281 30.5959 41.5596 31.7237 41.9776 33.3116C42.3957 34.8996 43.7795 37.4727 43.7795 37.4727C43.7795 37.4727 44.0614 37.8486 43.53 38.2408C42.9952 38.6329 41.6341 39.3394 41.43 39.4625C41.2258 39.5889 41.054 39.7607 41.0864 39.9324C41.1189 40.1042 41.1026 40.937 41.2582 41.125C41.4138 41.313 41.3749 41.8477 41.0832 42.0486C40.7915 42.2495 40.3184 42.4731 40.3184 42.4731C40.3184 42.4731 40.8531 43.1796 40.6619 43.6495C40.4707 44.1194 40.2698 44.2912 40.0203 44.5116C39.7707 44.7319 39.5017 44.8097 39.3624 45.5778C39.223 46.3458 38.7823 47.7263 37.136 47.318C35.4897 46.9097 33.4351 45.8273 33.4351 45.8273C33.4351 45.8273 33.2471 47.2856 33.5453 48.2416C33.5453 48.2416 33.1078 49.0842 26.4254 48.7083C25.0449 39.9194 34.6601 21.8978 42.1883 21.1038Z" fill="#B4785C"/>
<path d="M15.7925 88.877C15.7925 88.877 13.7541 86.7446 12.3411 87.9664C10.9314 89.1881 9.51199 90.815 10.7726 92.0076C12.0333 93.2002 15.5721 95.164 15.5721 95.164C15.5721 95.164 20.511 98.5668 20.605 98.6446C20.699 98.7223 22.9869 101.043 24.8082 100.557C26.6262 100.07 27.5207 99.3348 29.1832 97.5136C30.8457 95.6955 32.0998 94.6131 33.1498 94.8951C34.1998 95.177 36.9285 95.3488 37.447 94.5191C37.0387 94.3603 32.2716 93.4853 32.2424 93.2488C32.5568 93.1548 33.3702 93.265 33.3702 93.265C33.3702 93.265 34.9711 93.6733 36.0827 93.6733C36.5526 93.7511 36.7243 93.9228 37.3044 94.0103C37.8845 94.0978 39.2002 94.033 39.4984 93.8937C39.7965 93.7543 40.409 93.2812 39.8743 93.1256C39.3396 92.9701 36.2836 92.4191 36.128 92.215C35.9725 92.0108 32.6151 91.6965 32.2554 91.4923C32.1614 91.3367 34.2614 91.5863 34.3424 91.5863C34.4234 91.5863 35.6743 91.6349 35.8623 91.6803C36.0503 91.7289 37.1003 92.4969 38.5586 92.4159C40.0169 92.3349 41.0215 92.1955 41.8836 91.3011C41.8836 91.1747 41.9937 91.0516 41.1479 90.9867C40.3021 90.9219 37.6188 90.452 37.3077 90.2803C36.9966 90.1085 36.491 89.9367 36.0859 89.8881C35.6776 89.8395 33.8757 89.7164 33.1693 89.59C32.4628 89.4636 31.1633 89.402 31.1633 89.402C31.1633 89.402 31.8989 89.2918 32.6216 89.308C33.3443 89.3243 35.5998 89.6062 35.9919 89.5284C36.3841 89.4506 38.2183 89.859 39.1743 89.1979C40.1303 88.5368 40.2567 88.352 39.9748 88.2256C39.6928 88.0993 39.5373 88.1155 38.7206 88.1155C37.904 88.1155 35.7262 87.9891 35.6322 87.9891C35.5382 87.9891 32.6054 87.9891 31.9799 87.9113C31.3512 87.8335 30.1295 87.6132 29.9415 87.8011C29.7535 87.9891 29.423 88.7409 29.6109 89.0877C29.7989 89.4344 29.7211 89.5738 29.6434 89.8104C29.5656 90.0469 29.4068 90.4391 29.4554 90.734C29.504 91.0321 29.8637 91.3303 29.8475 91.4696C29.8313 91.609 29.6272 92.0335 29.7049 92.4094C29.7827 92.7853 29.9545 92.9733 29.9091 93.1451C29.8605 93.3168 30.0809 93.7738 30.0971 94.1951C30.1133 94.6196 29.8313 95.0733 29.8313 95.0733C29.8313 95.0733 29.9091 94.2728 29.6109 93.8191C29.3128 93.3654 29.2804 92.7205 29.3128 92.4386C29.3452 92.1566 29.1086 91.6381 29.0471 91.3724C28.9855 91.1066 29.0309 90.5881 29.0795 90.1798C29.1281 89.7715 29.3776 89.2076 28.8591 89.2854C28.3406 89.3631 25.8323 92.4386 25.3786 92.6881C24.9249 92.9377 23.904 93.3298 23.6545 94.7427C23.405 96.1525 23.3564 97.345 23.1068 97.627C22.8573 97.9089 22.8249 97.2511 22.8249 97.2511C22.8249 97.2511 23.4374 94.7298 22.7147 94.0914C21.9855 93.4691 15.7925 88.877 15.7925 88.877Z" fill="#BE8266"/>
<path d="M111.507 66.4221C110.69 66.5485 109.342 67.7378 107.586 68.7424C105.829 69.7471 101.124 69.0568 101.03 69.0568C100.936 69.0568 94.9989 68.1461 90.8994 67.7702C86.4466 67.3619 82.023 67.7702 80.6425 67.7702C79.9198 65.9198 81.4591 63.2235 81.4591 63.2235C81.4591 63.2235 88.2647 64.1341 92.7174 64.4452C97.1702 64.7596 100.401 61.4962 101.354 60.3068C102.307 59.1142 103.318 54.0976 103.947 53.4689C104.575 52.8402 106.426 52.0268 106.426 52.0268L108.496 50.8342C108.496 50.8342 109.501 49.9884 110.347 49.8004C112.259 49.4569 113.607 48.9838 113.607 48.9838C113.607 48.9838 114.706 48.3875 115.49 48.1379C117.684 47.6356 119.505 46.5078 120.163 46.0995C120.821 45.6912 120.727 46.0055 120.727 46.0055C119.755 48.1703 116.618 48.9546 116.618 48.9546L118.436 48.8088L118.663 48.6629C119.463 48.125 121.826 46.3458 121.07 45.4416C120.902 45.2731 120.38 45.5032 119.774 45.8597C119.168 46.2162 116.909 47.3018 116.031 47.5319C115.153 47.762 114.336 48.0764 114.233 48.1995C114.129 48.3259 111.621 49.4958 110.781 49.4958C109.942 49.4958 109.213 50.0175 108.921 50.1861C108.629 50.3546 107.644 50.8763 106.766 51.1064C105.888 51.3365 105.408 51.8583 104.99 52.1532C104.572 52.4448 103.149 53.1772 102.712 53.6796C102.274 54.1819 101.876 54.6421 101.895 55.2059C101.915 55.7698 101.843 60.9031 96.9822 61.9693C92.1211 63.0355 80.649 61.6226 80.649 61.6226C80.649 61.6226 80.3054 61.5124 80.1629 61.8267C80.1629 61.8267 78.7369 64.4452 80.3054 67.9744C80.5712 68.1299 81.0119 67.9582 81.7962 67.9744C82.5804 67.9906 86.9975 67.2679 95.9452 68.5447C104.893 69.8216 104.309 69.7373 106.4 69.3387C108.49 68.9401 110.12 67.8966 110.457 67.6438C110.791 67.3943 111.209 66.8077 112.923 66.4739C113.238 66.4124 113.494 66.3475 113.704 66.2827C112.943 66.3054 111.971 66.3508 111.507 66.4221Z" fill="#B4785C"/>
<path d="M109.346 52.4448C109.867 52.2342 111.708 51.0448 112.126 50.8569C112.544 50.6689 113.607 50.4453 114.91 50.0208C116.213 49.5962 116.161 49.3921 116.514 49.2884C116.867 49.1847 119.197 48.6759 119.197 48.6759C118.802 48.7569 118.497 48.8152 118.439 48.8087C118.604 48.718 119.447 48.1509 120.16 47.48C119.34 48.018 118.089 48.6305 116.368 48.9351C115.908 49.1231 115.574 49.3726 114.758 49.687C113.941 50.0013 112.081 50.3772 112.081 50.3772C112.081 50.3772 111.287 50.8147 110.911 51.0675C110.535 51.3171 108.882 52.2601 108.548 52.4481C108.215 52.6328 108.821 52.6522 109.346 52.4448Z" fill="#B4785C"/>
<path d="M41.4303 39.4657C41.6345 39.3393 42.9988 38.6361 43.5303 38.244C44.065 37.8518 43.7799 37.4759 43.7799 37.4759C43.7799 37.4759 42.3961 34.9028 41.978 33.3148C41.56 31.7269 41.7285 30.5959 42.4803 28.3403C43.0961 26.2598 43.19 24.7075 43.0734 23.5829C42.4836 22.7987 41.4563 22.332 39.6577 23.2394C35.6489 25.2584 32.9461 29.5102 31.1281 33.1495C29.31 36.7889 27.4272 39.5467 27.3008 48.1411C29.6341 48.1411 32.0128 48.1411 33.5132 48.1411C33.2605 47.1884 33.4322 45.837 33.4322 45.837C33.4322 45.837 35.4868 46.9194 37.1331 47.3277C38.7794 47.736 39.2202 46.3555 39.3595 45.5874C39.4989 44.8194 39.7678 44.7416 40.0174 44.5212C40.2669 44.3009 40.4711 44.1291 40.659 43.6592C40.847 43.1893 40.3155 42.4828 40.3155 42.4828C40.3155 42.4828 40.7854 42.2625 41.0803 42.0583C41.3752 41.8541 41.4141 41.3226 41.2553 41.1347C41.0998 40.9467 41.1127 40.1139 41.0836 39.9421C41.0544 39.7639 41.2262 39.5921 41.4303 39.4657Z" fill="#BE8266"/>
<path d="M36.8601 47.2499C34.9967 46.6018 31.7981 45.2375 29.0889 42.8393C31.1046 45.1856 31.3801 46.0509 33.3828 47.2111C33.3472 46.4916 33.4314 45.8338 33.4314 45.8338C33.4314 45.8338 35.2689 46.7995 36.8601 47.2499Z" fill="#B4785C"/>
<path d="M38.5714 28.4408C39.1612 28.4149 39.5338 28.5251 40.0977 28.6904C40.6616 28.8589 40.9565 28.6904 40.9565 28.6904C40.9565 28.6904 41.313 28.7325 40.9565 29.1506C40.6 29.5686 39.2001 29.2964 39.2001 29.2964C39.2001 29.2964 37.8195 29.0858 36.4195 30.1552C36.4195 30.1552 35.982 30.4695 35.7908 30.301C35.5996 30.1325 36.0468 29.6918 36.5329 29.2932C37.019 28.8946 37.5376 28.4862 38.5714 28.4408Z" fill="#17161E"/>
<path d="M38.9304 32.0017C39.3312 32.0017 39.6561 31.285 39.6561 30.4011C39.6561 29.5171 39.3312 28.8005 38.9304 28.8005C38.5295 28.8005 38.2046 29.5171 38.2046 30.4011C38.2046 31.285 38.5295 32.0017 38.9304 32.0017Z" fill="#17161E"/>
<path d="M280.415 104.691C280.415 104.691 271.947 107.702 267.495 108.454C263.042 109.206 262.728 110.022 245.792 110.46C245.493 110.46 245.636 110.411 245.62 110.068C245.604 109.724 245.51 107.449 245.477 107.278C245.445 107.106 245.51 106.996 245.821 106.979C246.135 106.963 257.001 105.884 259.918 105.476C262.835 105.067 275.457 101.898 275.742 101.71C276.024 101.522 279.631 100.517 279.631 100.517C279.631 100.517 280.04 100.32 280.124 101.029C280.208 101.739 280.373 103.518 280.522 103.956C280.668 104.397 280.795 104.711 280.415 104.691Z" fill="#9B6348"/>
<path d="M280.123 101.033C280.039 100.323 279.631 100.521 279.631 100.521C279.631 100.521 276.024 101.525 275.742 101.713C275.46 101.901 262.834 105.071 259.918 105.479C257.001 105.887 246.135 106.967 245.82 106.983C245.506 106.999 245.445 107.109 245.477 107.281C245.49 107.346 245.509 107.709 245.532 108.156C246.929 108.506 250.053 108.519 251.602 108.289C253.566 107.997 255.407 107.119 256.576 107.66C257.746 108.201 266.548 107.66 266.548 107.66C266.548 107.66 273.551 105.988 274.556 104.105C275.181 102.932 278.101 102.229 280.211 101.866C280.179 101.538 280.149 101.24 280.123 101.033Z" fill="#8E5335"/>
<path d="M307.764 189.91C307.764 189.91 311.526 194.09 313.953 195.344C316.381 196.598 315.626 199.444 315.376 200.196C315.127 200.947 314.291 203.29 313.286 203.29C312.281 203.29 312.366 204.376 310.525 202.539C308.684 200.698 304.001 196.76 304.001 196.76C304.001 196.76 296.891 184.977 307.764 189.91Z" fill="#E0A680"/>
<path d="M276.277 215.544C276.277 215.544 276.028 220.518 276.277 221.983C276.527 223.448 273.6 223.49 273.6 223.49C273.6 223.49 270.632 224.076 270.758 221.691C270.885 219.306 270.509 215.839 270.509 215.839C270.509 215.839 270.424 214.124 272.975 214.293C275.525 214.458 276.335 214.137 276.277 215.544Z" fill="#E0A680"/>
<path d="M313.095 194.826C313.095 194.826 315.824 196.394 314.443 199.531C313.063 202.668 311.536 203.226 310.81 202.821C310.084 202.416 308.046 204.172 308.046 204.172C308.046 204.172 310.836 207.685 311.779 207.685C312.719 207.685 316.734 207.685 317.11 207.121C317.486 206.557 318.303 199.752 318.303 199.752L315.448 194.829H313.095V194.826Z" fill="#3B62C7"/>
<path d="M270.505 222.641C270.505 222.641 269.889 220.236 271.144 220.123C272.398 220.009 275.408 219.987 275.836 220.123C276.264 220.259 276.799 220.071 276.724 221.17C276.65 222.268 276.611 224.2 276.611 224.2L270.505 222.641Z" fill="#3B62C7"/>
<path d="M313.888 194.826C313.888 194.826 314.452 193.779 316.899 195.014C319.346 196.248 320.872 195.996 321.164 196.06C321.455 196.122 322.94 195.872 323.568 199.991C324.197 204.11 324.155 204.885 323.277 209.15C322.398 213.414 321.647 218.6 321.812 220.816C321.98 223.033 322.859 229.181 319.346 229.514C316.377 229.514 310.44 229.514 310.44 229.514C310.44 229.514 309.854 226.964 310.44 224.203C311.027 221.442 310.298 219.562 310.181 218.684C310.064 217.806 310.022 215.045 309.815 213.457C309.604 211.869 309.147 210.738 308.35 208.647C307.553 206.557 306.166 202.876 310.103 202.584C314.037 202.292 313.911 202.25 314.248 202.876C314.582 203.504 314.987 204.298 315.726 202.918C316.465 201.537 318.847 197.606 313.888 194.826Z" fill="#9B6348"/>
<path d="M279.148 229.557H268.249V229.103C268.249 229.103 268.359 228.882 268.375 228.711C268.392 228.539 268.469 226.014 268.612 225.732C268.755 225.451 268.738 224.809 268.644 224.54C268.55 224.274 268.839 222.874 269.617 221.921C270.394 220.965 270.949 220.337 273.93 220.337C276.908 220.337 278.133 222.375 278.179 223.363C278.227 224.352 278.555 225.104 278.555 225.152C278.555 225.201 278.869 226.108 278.869 227.097C278.869 228.085 279.057 228.118 279.151 228.212C279.242 228.302 279.148 229.557 279.148 229.557Z" fill="#9B6348"/>
<path d="M314.251 194.534C313.986 194.657 313.892 194.822 313.892 194.822C318.847 197.603 316.465 201.534 315.723 202.915C314.98 204.295 314.579 203.501 314.245 202.872C314.423 204.023 315.058 204.136 315.058 204.136C315.058 204.136 316.481 204.827 317.421 199.839C318.027 196.647 315.875 195.179 314.251 194.534Z" fill="#8E5335"/>
<path d="M312.498 223.804C312.841 221.672 312.968 220.949 312.874 220.34C312.78 219.727 312.057 217.754 312.151 214.523C312.245 211.292 312.401 211.639 311.052 207.685C309.704 203.734 311.71 202.856 311.963 202.448L311.966 202.445C311.474 202.48 310.864 202.526 310.1 202.584C306.165 202.876 307.552 206.557 308.346 208.647C309.14 210.738 309.601 211.869 309.811 213.457C310.022 215.045 310.061 217.806 310.177 218.684C310.294 219.562 311.023 221.445 310.437 224.203C309.85 226.961 310.437 229.514 310.437 229.514C310.437 229.514 312.261 229.514 314.397 229.514C312.401 228.711 312.161 225.898 312.498 223.804Z" fill="#8E5335"/>
<path d="M270.589 228.507C271.026 228.173 270.965 227.294 270.965 227.107C270.965 226.919 270.485 226.688 270.589 225.81C270.693 224.932 270.275 224.786 270.045 224.303C269.814 223.82 269.416 223.445 270.505 221.542C271.085 220.525 273.175 220.363 274.993 220.431C274.666 220.369 274.309 220.333 273.924 220.333C270.945 220.333 270.391 220.962 269.61 221.918C268.832 222.874 268.544 224.271 268.638 224.537C268.732 224.802 268.748 225.447 268.606 225.729C268.463 226.011 268.385 228.536 268.369 228.707C268.353 228.879 268.243 229.1 268.243 229.1V229.553H269.753C269.805 229.207 270.232 228.779 270.589 228.507Z" fill="#8E5335"/>
<path d="M276.967 101.136C276.967 101.136 277.352 105.541 277.582 105.479C277.812 105.417 280.418 104.692 280.418 104.692C280.418 104.692 280.544 105.11 280.878 105.8C281.212 106.49 281.507 108.059 281.546 109.731C281.588 111.403 281.964 114.854 282.926 117.739C283.302 118.951 283.513 120.331 283.344 122.379C283.176 124.428 281.672 153.364 281.17 158.131C281.092 158.993 280.904 159.385 281.231 159.528C281.562 159.67 282.547 159.67 290.639 168.041C298.731 176.415 304.377 184.306 305.213 185.142C306.049 185.979 309.98 189.449 310.022 189.867C310.064 190.285 310.689 192.502 307.598 196.015C304.503 199.528 303.709 199.11 303.417 198.984C303.126 198.857 292.295 189.491 290.999 188.445C289.703 187.398 281.004 180.456 280.586 180.417C280.418 181.338 278.162 207.808 278.243 212.909C278.243 215.92 278.328 216.756 276.967 216.882C275.609 217.008 271.72 217.427 268.751 216.59C268.291 216.299 268.042 216.257 267.999 213.33C267.957 210.404 266.369 184.98 265.699 178.039C265.031 171.097 265.112 170.679 265.112 170.679L263.398 169.551C263.398 169.551 262.416 168.735 261.349 166.291C260.283 163.844 248.241 135.43 246.484 131.92C244.728 128.407 245.418 124.33 245.418 124.33C245.418 124.33 245.81 118.529 245.285 115.956C244.76 113.383 244.478 111.847 245.794 110.467C246.138 110.246 248.993 110.405 249.181 110.311C249.369 110.217 248.993 107.3 248.993 107.3L250.153 107.268C250.153 107.268 250.153 109.339 250.247 109.65C250.341 109.964 250.781 110.12 251.281 110.12C251.783 110.12 254.353 109.964 254.7 109.964C255.046 109.964 255.296 109.838 255.202 109.368C255.108 108.898 254.573 106.202 254.573 106.075C254.573 105.949 255.795 105.981 255.795 105.981C255.795 105.981 255.921 108.24 256.109 108.866C256.297 109.491 256.453 109.744 256.767 109.744C257.081 109.744 260.312 109.368 260.312 109.368C260.312 109.368 270.002 107.579 270.317 107.456C270.631 107.329 270.851 107.206 270.754 106.798C270.66 106.39 270.378 104.539 270.378 104.539L271.195 104.351L271.415 106.61C271.415 106.61 271.509 106.924 271.759 106.954C272.008 106.986 275.962 105.92 276.117 105.887C276.273 105.855 276.399 105.605 276.399 105.229C276.399 104.854 275.836 101.435 275.836 101.435L276.967 101.136Z" fill="#DDB99E"/>
<path d="M273.544 182.3C268.794 183.136 268.207 189.242 268.249 190.58C268.285 191.773 269.072 209.172 269.02 216.658C271.95 217.401 275.651 217.005 276.97 216.882C278.328 216.756 278.247 215.92 278.247 212.909C278.182 208.939 279.533 192.029 280.217 184.29C278.704 183.117 276.315 181.814 273.544 182.3Z" fill="#ECCDB0"/>
<path d="M310.022 189.871C309.98 189.453 306.049 185.982 305.213 185.146C304.377 184.31 298.731 176.415 290.639 168.044C282.547 159.67 281.559 159.67 281.232 159.531C280.901 159.388 281.089 158.996 281.17 158.134C281.672 153.367 283.176 124.431 283.344 122.383C283.513 120.335 283.302 118.954 282.926 117.742C281.964 114.858 281.588 111.406 281.546 109.734C281.504 108.081 281.219 106.529 280.888 105.829C277.281 106.957 270.984 108.788 266.201 109.462C259.091 110.467 250.228 111.218 250.228 111.218C250.228 111.218 249.142 111.218 248.555 112.641C247.969 114.064 244.206 120.25 248.555 128.112C252.904 135.974 262.439 153.788 263.942 160.73C264.704 164.159 264.882 165.193 265.125 165.76C265.368 166.327 266.149 166.826 266.839 167.267C267.507 167.691 287.794 180.777 306.101 197.603C306.529 197.195 307.024 196.679 307.598 196.025C310.69 192.502 310.064 190.289 310.022 189.871Z" fill="#ECCDB0"/>
<path d="M267.119 105.479C267.119 105.479 267.449 107.057 267.598 107.514C267.747 107.971 267.579 108.538 266.969 108.684C266.363 108.83 263.657 109.708 260.822 109.666C260.822 109.666 260.203 110.042 259.918 108.807C259.632 107.573 259.477 106.464 259.477 106.464C259.477 106.464 259.107 105.126 260.469 105.126C261.83 105.126 265.926 104.121 265.926 104.121C265.926 104.121 266.746 103.833 267.119 105.479Z" fill="#8E5335"/>
<path d="M263.858 38.9146C263.858 38.9146 270.508 40.1266 271.176 41.2155C271.843 42.3011 274.271 44.6863 273.979 46.527C274.899 47.4474 274.271 48.115 278.286 48.7016C282.301 49.2881 283.805 48.5752 285.561 49.7872C287.318 50.9992 290.413 53.3002 289.24 60.1575C288.07 67.0149 287.399 65.8029 288.361 79.5176C288.653 83.0305 287.882 83.7402 287.882 84.2102C287.882 84.6801 287.914 85.6523 288.131 86.1546C288.352 86.6569 288.099 87.4703 288.225 87.8787C288.352 88.287 288.258 89.7291 287.69 90.387C287.123 91.0448 287.188 92.111 286.563 93.242C285.934 94.3698 283.834 95.0601 282.988 95.2805C282.142 95.5008 282.453 96.2851 282.486 96.8814C282.518 97.4777 282.894 100.3 279.602 100.897C276.309 101.493 275.178 102.559 273.956 103.376C272.735 104.192 269.63 106.419 266.742 106.325C263.858 106.231 263.356 106.01 262.76 105.667C262.163 105.323 261.444 105.761 261.253 105.981C261.061 106.202 259.402 106.74 258.274 106.328C257.147 105.917 252.723 106.386 251.155 107.142C249.586 107.893 245.665 108.71 244.569 105.259C243.785 101.14 244.602 94.4379 244.569 93.6245C244.537 92.8078 236.928 76.7209 236.928 76.7209C236.928 76.7209 236.594 76.8472 236.51 74.838C236.425 72.8287 236.636 67.2288 236.51 65.9325C236.383 64.6362 236.341 46.3196 236.97 44.3136C237.599 42.3076 240.107 35.6155 245.25 35.7841C247.716 35.7808 250.143 37.4141 250.895 37.9165C251.647 38.4188 254.324 40.1752 254.535 40.1752C254.745 40.1752 255.244 39.4234 255.581 39.0475C255.912 38.6618 255.705 36.9475 263.858 38.9146Z" fill="#2651C0"/>
<path d="M285.454 51.521C281.922 49.2849 279.705 49.8682 279.015 49.8067C278.325 49.7451 274.647 49.4307 273.201 47.1946C273.178 46.9872 273.639 46.8738 274.047 46.6016C274.024 46.5757 274.002 46.553 273.976 46.527C274.267 44.6863 271.843 42.3044 271.172 41.2155C271.078 41.0599 270.858 40.9044 270.557 40.7456C270.56 40.765 270.903 42.4113 269.189 43.3155C267.465 44.2261 264.516 46.4201 264.296 47.2368C264.075 48.0534 264.484 47.4571 264.61 47.7391C264.736 48.021 265.864 50.7173 265.615 52.4738C265.615 53.0085 265.443 53.0214 265.19 52.7881C264.941 52.5515 263.45 50.6233 262.649 52.2534C261.849 53.8835 260.656 54.6775 261.266 59.6552C261.872 64.6297 261.852 63.9816 261.327 64.9862C260.805 65.9908 259.363 67.663 259.486 69.7727C259.613 71.8857 259.506 72.5111 259.655 72.7834C259.801 73.0556 261.035 74.6241 260.971 75.6903C260.909 76.7565 261.181 76.6949 261.45 76.7986C261.723 76.9023 266.697 77.6769 268.872 75.9625C271.046 74.2482 272.906 72.0121 273.451 70.2329C273.995 68.457 274.873 65.2584 276.672 64.0431C276.902 64.001 276.798 64.3996 276.841 64.7529C276.883 65.1093 277.174 68.7681 278.869 70.9426C280.564 73.1172 280.062 74.7699 279.705 75.1653C279.349 75.5639 276.902 78.0722 277.719 79.5143C278.535 80.9565 280.123 81.8963 281.776 82.525C282.434 82.7745 283.221 83.2282 283.938 83.6852C283.089 83.2379 282.097 82.9074 281.232 83.131C279.226 83.6527 280.794 85.325 281.147 85.4935C281.504 85.662 284.158 87.2694 284.408 89.1522C282.965 87.7717 281.919 86.4333 281.147 86.874C280.376 87.3148 280.328 87.7523 280.665 88.1509C281.002 88.5495 281.922 89.2786 281.964 90.2833C281.608 89.7194 280.541 88.9254 280.541 88.9254C280.541 88.9254 282.8 92.1467 283.218 94.6744C284.557 94.4022 285.519 94.548 286.187 92.9601C286.397 91.8745 286.666 90.4939 287.191 90.0337C287.713 89.5735 288.027 89.4472 287.985 88.4652C287.943 87.4833 288.423 85.9925 287.253 84.9069C286.083 83.8213 284.91 82.9463 284.91 82.9463C284.91 82.9463 285.85 83.4259 286.751 83.9703C287.648 84.5148 287.859 83.5944 287.921 83.0078C287.982 82.4213 287.963 81.543 287.606 76.9023C287.25 72.2616 287.334 65.2973 287.794 61.4732C288.258 57.6492 288.99 53.7603 285.454 51.521Z" fill="#3B62C7"/>
<path d="M260.637 90.1796C260.637 90.1796 259.843 90.0111 259.927 90.8893C260.011 91.7675 259.879 94.2758 260.28 95.3647C260.682 96.4504 262.008 99.1693 262.322 102.135C262.636 105.1 265.475 104.879 265.757 104.896C266.039 104.912 270.476 104.675 273.392 102.779C276.309 100.884 276.559 100.206 279.226 99.6911C277.22 98.9846 269.332 95.0795 268.029 94.0944C266.726 93.1027 264.71 91.3527 260.637 90.1796Z" fill="#3B62C7"/>
<path d="M259.593 89.9916C259.593 89.9916 259.036 92.7722 259.48 94.318C259.924 95.8638 261.768 99.461 261.201 101.616C260.637 103.771 259.82 105.323 258.65 105.476C257.481 105.628 253.925 105.336 252.733 105.819C251.54 106.299 249.891 107.91 248.445 107.242C247.003 106.574 245.979 105.631 246.083 103.373C246.187 101.114 247.337 95.2805 250.85 92.9828C254.366 90.6819 256.842 89.2398 259.593 89.9916Z" fill="#3B62C7"/>
<path d="M258.498 42.2229C256.336 40.4081 257.302 38.266 257.302 38.266C257.302 38.266 257.396 38.1526 257.509 38.0035C257.273 38.0197 257.069 38.0457 256.89 38.0781C256.119 39.3808 257.153 41.6688 257.376 42.2586C257.626 42.9262 259.081 44.809 259.843 45.9789C258.002 45.3113 257.5 49.8678 257.5 49.8678C257.5 49.8678 256.706 49.534 255.118 45.9368C253.53 42.3396 252.736 41.5456 248.847 39.2058C244.958 36.8628 242.032 39.248 241.238 39.9155C240.444 40.5831 236.918 44.5303 238.311 52.2108C239.705 59.8881 239.494 65.2677 239.494 65.2677C239.494 65.2677 241.688 65.1737 242.08 65.0182C242.472 64.8626 242.975 65.3001 242.599 65.5529C241.312 67.4649 242.754 67.5297 243.321 68.3432C243.889 69.1566 243.603 70.1936 243.101 70.9163C244.294 70.6959 248.925 72.501 249.547 72.6825C250.169 72.864 250.503 72.2968 250.535 71.7881C250.568 71.2825 250.253 70.7575 250.033 69.2538C249.813 67.7469 248.244 67.5589 248.497 67.5297C248.746 67.4973 249.469 66.4635 248.999 65.4589C247.745 62.9182 248.182 61.1326 248.497 59.9076C248.811 58.6858 248.247 57.8076 248.247 57.8076C248.247 57.8076 249.158 58.4039 248.97 59.7196C248.782 61.0353 248.435 61.6316 249.378 63.3589C250.318 65.083 250.979 65.8381 251.135 67.5297C251.29 69.2246 250.665 69.8825 251.793 72.2644C252.92 74.6464 257.062 75.4954 258.819 75.9977C260.575 76.5001 259.415 72.8931 259.091 71.7913C258.767 70.6894 258.725 68.2524 259.917 66.2464C261.11 64.2404 261.139 63.7057 261.003 62.39C260.867 61.0742 260.669 59.6613 260.731 58.3131C260.792 56.965 261.22 55.659 260.698 52.4798C260.176 49.3007 258.219 49.7835 258.219 49.7835C258.219 49.7835 258.562 47.8391 259.486 47.1488C260.41 46.4586 261.418 50.1465 261.544 48.9377C261.661 47.7192 260.659 44.0377 258.498 42.2229Z" fill="#3B62C7"/>
<path d="M266.554 119.304C266.554 119.304 268.123 128.65 268.09 133.949C268.528 136.457 268.528 136.865 269.218 138.56C269.908 140.255 271.82 149.128 272.041 150.259C272.261 151.387 272.793 150.982 272.637 150.039C272.481 149.099 271.538 138.029 271.444 136.02C271.35 134.014 270.472 130.877 270.158 129.81C269.844 128.744 266.865 119.304 266.865 119.304C266.865 119.304 266.71 118.614 266.554 119.304Z" fill="#DDB99E"/>
<path d="M238.454 75.1782C238.454 75.1782 239.896 72.7963 240.305 71.9181C240.713 71.0398 242.061 71.0074 242.939 71.2894C243.818 71.5713 248.585 72.3556 249.337 72.6051C250.088 72.8546 251.093 73.3894 254.794 75.1782C258.495 76.9671 259.217 76.9347 261.411 77.0611C263.605 77.1875 268.155 76.9347 269.785 76.4972C271.416 76.0597 273.14 76.0889 273.707 77.4694C274.274 78.85 273.551 79.6342 272.955 80.2921C272.359 80.95 271.921 81.9222 272.829 82.5801C273.736 83.2379 277.375 84.0546 279.76 89.4796C282.142 94.9045 282.113 95.8476 282.142 96.1911C282.175 96.5346 282.33 97.0369 281.232 97.6656C280.133 98.2943 280.574 98.4175 280.01 98.6378C279.446 98.8582 279.038 98.2943 277.032 97.4161C275.026 96.5378 270.194 95.5041 265.177 91.2393C260.161 86.9745 259.94 86.8805 259.94 86.8805C259.94 86.8805 249.476 91.8971 246.634 92.9018C243.792 93.9064 242.534 93.9064 241.825 94.0716C241.115 94.2402 239.942 94.4897 239.566 92.6068C239.19 90.724 239.19 91.3106 238.73 90.6819C238.269 90.0532 238.269 89.5541 237.602 88.718C236.934 87.8819 236.85 87.4217 236.934 86.793C237.019 86.1643 236.617 85.8305 236.442 85.7462C236.267 85.662 236.309 84.868 236.225 84.1162C236.14 83.3643 235.764 82.3176 236.225 81.2319C236.685 80.1463 236.435 79.9356 236.182 79.1417C235.933 78.3477 235.933 77.4694 236.934 76.7176C237.932 75.9625 237.871 76.1569 238.454 75.1782Z" fill="#C88E69"/>
<path d="M251.689 77.3008C251.689 77.3008 254.531 77.2165 254.032 76.254C253.53 75.2915 252.486 74.0795 249.475 73.2855C246.465 72.4916 242.952 71.8337 242.284 71.7851C241.617 71.7365 240.528 72.2388 240.486 73.1591C240.444 74.0795 240.904 74.5397 240.904 74.5397C240.904 74.5397 241.28 75.4989 241.03 75.7517C240.781 76.0012 240.356 76.8374 240.482 77.2975C240.612 77.7577 241.28 78.2179 240.862 79.0961C240.444 79.9744 240.528 80.3082 240.651 80.561C240.777 80.8105 240.862 81.3128 240.777 81.6077C240.693 81.9026 240.946 82.4859 241.529 82.6545C242.116 82.823 243.966 82.5281 244.844 81.2739C245.723 80.0197 247.55 77.1323 251.689 77.3008Z" fill="#E0A680"/>
<path d="M269.572 77.8875C269.572 77.8875 254.489 77.4273 250.685 78.5162C246.88 79.6018 246.712 81.2352 246.482 81.6953C246.251 82.1555 244.997 83.4097 244.495 83.6203C243.993 83.831 242.781 84.706 242.447 85.6263C242.113 86.5467 241.484 86.4624 241.235 87.3828C240.985 88.3032 240.775 91.0221 242.32 91.6476C243.866 92.2763 246.209 92.0656 248.633 91.1453C251.057 90.2249 267.368 83.0759 268.496 82.7C269.624 82.324 271.549 81.6953 271.756 79.5208C271.97 77.3431 269.811 77.894 269.572 77.8875Z" fill="#E0A680"/>
<path d="M268.843 84.8972C268.233 85.3088 265.926 86.3458 265.55 87.506C265.174 88.6661 265.362 90.2347 266.334 91.3009C267.307 92.367 269.877 93.968 271.776 94.561C273.675 95.1573 277.956 97.3675 278.293 97.5328C278.63 97.698 279.595 98.7642 280.665 97.8244C281.734 96.8846 282.266 96.8522 281.796 95.3453C281.326 93.8383 280.143 89.4796 277.473 86.7217C274.802 83.9606 273.046 83.7435 272.45 83.7435C271.857 83.7402 270.194 83.9833 268.843 84.8972Z" fill="#E0A680"/>
<path d="M251.689 7.59302C251.689 7.59302 249.683 9.2231 249.933 12.2661C250.182 15.3092 250.455 16.4694 249.91 17.7559C249.369 19.0425 247.36 22.523 247.045 23.0545C246.731 23.5892 246.511 24.1207 247.421 24.717C248.332 25.3133 248.737 25.4073 249.022 25.5952C249.307 25.7832 249.868 26.3471 249.524 27.4133C249.233 27.9156 249.149 28.4017 249.414 28.635C249.68 28.8716 249.978 29.0596 249.978 29.0596C249.978 29.0596 250.198 29.2151 250.121 29.4355C250.043 29.6558 249.618 30.1711 250.153 31.1433C250.688 32.1156 251.093 31.96 250.876 33.7618C250.655 35.5637 250.626 37.4303 253.135 37.9164C254.168 37.9164 256.411 36.928 256.758 37.116C256.852 37.6507 256.648 39.4104 257.13 40.3502C257.613 41.29 260.517 44.3849 260.77 45.8692C261.019 47.3534 261.502 50.6979 261.606 51.4108C262.024 52.2469 261.816 51.871 262.38 49.9881C262.944 48.1053 264.137 45.2632 266.499 44.0706C268.862 42.878 270.074 42.6285 269.824 40.8104C269.575 38.9924 269.481 33.9628 270.012 31.4544C270.547 28.9461 274.183 25.5272 274.183 25.5272L275.217 15.3967C275.217 15.3967 266.655 5.73608 266.561 5.73608C266.467 5.73608 254.988 4.98424 254.988 4.98424L251.689 7.59302Z" fill="#E0A680"/>
<path d="M270.029 31.367C270.628 28.8684 274.177 25.5337 274.177 25.5337L275.211 15.4032C275.211 15.4032 266.649 5.74259 266.555 5.74259C266.461 5.74259 254.982 4.99074 254.982 4.99074L251.69 7.59304C251.69 7.59304 250.941 8.20553 250.416 9.36895C250.597 9.59256 250.805 9.68978 251.019 9.47266C251.686 8.80507 255.118 5.25 261.178 9.09673C263.522 10.6847 263.087 14.5055 263.21 15.1245C263.334 15.7435 263.583 16.0481 264.38 16.6347C265.178 17.2212 265.489 17.8564 264.024 19.4022C262.559 20.9481 261.995 21.7226 262.812 22.3286C263.807 23.0675 264.847 23.6054 265.696 23.1031C266.545 22.6008 269.209 19.1721 270.985 19.1948C272.761 19.2143 275.814 22.792 272.408 26.4702C270.207 28.8522 270.11 30.4142 270.029 31.367Z" fill="#C88E69"/>
<path d="M259.561 7.75185C259.561 7.75185 257.312 6.53982 254.626 7.31435C252.156 8.02407 251.605 8.39027 251.459 8.54907C251.314 8.70462 250.571 9.20693 250.614 8.42268C250.656 7.63842 253.384 -0.181439 264.892 0.00652274C272.67 0.320873 277.029 7.34676 277.029 7.34676C277.029 7.34676 281.815 15.387 278.503 22.5587C276.423 26.0814 275.648 26.9499 275.052 27.5462C274.456 28.1425 271.383 31.1855 270.975 33.2855C270.567 35.3855 269.565 34.1313 269.594 33.2855C269.627 32.4397 270.064 29.4582 271.882 27.6402C273.7 25.8221 275.645 22.3416 272.54 19.3601C271.724 18.7022 269.812 18.6698 267.806 20.8022C265.8 22.9346 265.641 23.5309 264.481 23.0286C263.32 22.5263 261.849 22.118 262.961 20.9286C264.072 19.736 265.919 17.6685 265.135 16.9134C264.351 16.1583 263.57 16.4111 263.35 14.0583C263.129 11.7055 263.418 9.72545 259.561 7.75185Z" fill="#D16109"/>
<path d="M269.815 40.8169C269.786 40.603 269.757 40.3438 269.734 40.0489C266.999 42.6058 263.982 42.2169 262.394 42.0516C260.806 41.8831 259.759 41.047 258.881 39.7507C258.003 38.4544 259.509 37.2424 260.994 36.3642C262.478 35.4859 266.578 32.4753 266.578 32.4753C266.578 32.4753 258.006 36.2378 254.535 36.8665C252.565 37.223 251.43 36.3901 250.818 35.6026C250.944 36.698 251.495 37.6054 253.135 37.923C254.169 37.923 256.411 36.9345 256.758 37.1225C256.852 37.6572 256.648 39.4169 257.131 40.3567C257.61 41.2965 260.517 44.3914 260.77 45.8757C261.02 47.3599 261.503 50.7044 261.606 51.4173C262.024 52.2534 261.817 51.8775 262.381 49.9946C262.945 48.1118 264.137 45.2697 266.5 44.0771C268.856 42.8877 270.068 42.635 269.815 40.8169Z" fill="#C88E69"/>
<path d="M256.04 16.4691C256.04 16.4691 254.488 16.2261 253.516 15.8956C252.544 15.5652 251.822 15.3545 251.533 15.4647C251.245 15.5749 251.423 15.9216 251.501 15.9507C251.579 15.9799 252.049 15.9572 253.03 16.278C254.012 16.5987 255.814 16.6538 256.002 16.6311C256.189 16.6117 256.164 16.4886 256.04 16.4691Z" fill="#2B2210"/>
<path d="M252.211 18.3365C252.436 18.3048 252.55 17.798 252.467 17.2044C252.383 16.6108 252.133 16.1553 251.908 16.1869C251.683 16.2186 251.568 16.7255 251.652 17.3191C251.735 17.9127 251.986 18.3682 252.211 18.3365Z" fill="#2B2210"/>
</svg>
