<svg width="303" height="230" viewBox="0 0 303 230" fill="none" xmlns="http://www.w3.org/2000/svg">
<path d="M128.701 191.941L125.076 222.087C125.076 222.087 125.578 225.711 121.575 226.714C117.571 227.714 111.149 228.299 111.149 228.299V229.916H208.136V228.581C208.136 228.581 201.006 228.083 198.627 227.209C196.249 226.332 195.877 227.458 194.75 221.953C193.624 216.452 192.487 209.82 191 195.81C189.505 181.797 128.701 191.941 128.701 191.941Z" fill="#EFEFEF"/>
<path d="M128.701 191.941L128.076 197.135L176.6 229.92H208.121V228.584C208.121 228.584 200.992 228.086 198.613 227.213C196.234 226.339 195.862 227.462 194.736 221.96C193.61 216.459 192.473 209.827 190.985 195.818C189.498 181.808 128.701 191.941 128.701 191.941Z" fill="#DADADA"/>
<path d="M26.6243 0H293.199C295.603 0 297.91 0.956616 299.614 2.65687C301.314 4.35712 302.271 6.66383 302.271 9.07161L302.047 190.475C302.047 195.485 298.206 199.601 293.199 199.601H25.7652C24.5739 199.601 23.3935 199.366 22.2961 198.911C21.1951 198.456 20.1952 197.788 19.3541 196.944C18.513 196.103 17.8451 195.103 17.3903 194.002C16.9354 192.901 16.7008 191.72 16.7008 190.529L16.625 10.0066C16.6214 4.48346 21.0976 0 26.6243 0Z" fill="#BCDAEF"/>
<path d="M16.625 172.92H302.202V190.414C302.202 192.897 301.213 195.283 299.458 197.041C297.701 198.799 295.318 199.785 292.831 199.785H25.5703C24.3934 199.785 23.2311 199.554 22.1445 199.103C21.0579 198.655 20.0724 197.994 19.2422 197.164C18.4119 196.334 17.7513 195.345 17.3037 194.262C16.856 193.175 16.625 192.013 16.625 190.836V172.92Z" fill="#EFEFEF"/>
<path d="M7.75647 214.873C7.75647 214.873 10.8098 214.623 9.78223 218.069C8.751 221.515 7.89959 221.335 8.43173 224.143C8.96386 226.95 9.42626 229.967 7.75647 229.967C6.08668 229.967 1.22044 229.967 1.22044 229.967C1.22044 229.967 -0.416327 229.086 0.101124 225.016C0.148833 224.638 0.222231 224.264 0.339666 223.901C0.596557 223.101 0.662614 222.117 0.758031 221.057C0.864457 219.849 2.10854 215.082 4.31046 214.873C6.51605 214.66 7.75647 214.873 7.75647 214.873Z" fill="#272622"/>
<path d="M47.6071 214.021C47.6071 214.021 44.5721 215.159 44.2675 217.288C43.9445 219.578 45.3795 220.719 45.9336 221.691C46.5245 222.726 46.9648 223.853 47.2327 226.106C47.3245 226.895 47.3392 227.692 47.2878 228.484C47.2144 229.629 47.1814 229.897 47.1814 229.897C47.1814 229.897 47.5557 230.128 48.4071 229.897C48.4071 229.897 48.0328 225.468 48.4952 224.301C48.9576 223.134 49.2769 223.134 49.5411 223.17C49.7906 223.203 52.5724 223.159 56.5359 228.326C57.112 229.079 58.0038 229.527 58.9506 229.527H66.0371C66.4665 229.527 66.8702 229.317 67.1124 228.961C67.7363 228.051 68.584 226.297 66.4261 225.692C63.4609 224.858 61.7728 224.147 61.7728 224.147C61.7728 224.147 59.7764 224.514 56.8772 223.442C55.7578 223.031 54.5798 222.436 53.2954 221.519C51.4971 220.231 50.5026 219.412 49.5888 218.429C47.7135 216.403 47.152 214.689 47.6071 214.021Z" fill="#272622"/>
<path d="M16.0315 202.502C16.0315 202.502 13.7599 205.816 11.7231 209.085C9.6863 212.352 9.35601 217.181 9.35601 217.181C9.35601 217.181 9.31931 218.033 8.13027 220.697C7.70457 221.673 7.54309 221.959 7.43667 224.018C7.33024 226.077 6.56691 226.521 6.26598 226.594C5.96505 226.668 3.79616 227.571 2.37592 225.901C2.37592 225.901 1.708 225.376 1.55754 223.453C1.45845 222.187 1.6603 220.913 2.086 219.717C2.36491 218.932 2.70254 218.135 3.01448 217.31C3.56496 215.834 4.41637 210.972 4.41637 210.972C4.41637 210.972 5.96138 204.828 9.13948 199.18C12.3213 193.529 16.0315 202.502 16.0315 202.502Z" fill="#ECCDB0"/>
<path d="M61.7762 224.238C61.7762 224.238 57.9412 225.031 52.3997 220.877C46.8582 216.722 47.3573 214.234 47.3573 214.234C47.3573 214.234 49.2767 208.799 47.6069 200.204C45.9371 191.61 55.5265 193.21 54.9246 200.773C54.3191 208.337 53.9668 211.078 54.2126 212.106C54.4622 213.133 54.4438 214.021 55.721 215.585C56.9981 217.148 60.5505 222.502 61.7762 224.238Z" fill="#ECCDB0"/>
<path d="M42.1019 93.2717C42.1019 93.2717 40.256 95.8994 39.3679 98.2077C38.4797 100.516 38.1605 101.973 38.0907 102.116C38.021 102.259 37.5586 104.707 35.7127 106.946C33.8667 109.184 27.8995 115.577 26.6224 120.407C25.3453 125.236 25.3783 126.337 25.8407 127.989C25.8407 127.989 26.0352 128.414 26.1086 129.978C26.1783 131.541 26.7141 133.387 26.7141 133.387C26.7141 133.387 26.982 134.382 27.6903 134.807C27.6903 134.807 27.9913 135.483 27.1766 135.358C26.3582 135.233 25.5802 135.057 24.637 133.138C23.6975 131.218 22.6112 130.972 22.6112 130.972C22.6112 130.972 20.9781 130.653 20.2478 131.754C19.5175 132.855 17.8331 133.706 17.8331 133.706C17.8331 133.706 18.3138 135.659 17.8331 136.316C17.6973 136.517 17.6496 136.172 17.6496 136.172C17.6496 136.172 17.6863 136.47 17.2606 136.598C17.1174 136.598 17.011 136.29 17.011 136.29C17.011 136.29 16.3945 139.171 15.3816 139.226C15.3816 139.226 15.044 139.439 14.9559 138.639C14.8678 137.839 13.7852 140.716 12.2585 140.859C10.7319 141.002 11.8695 139.901 11.9393 139.901C12.009 139.901 12.5595 138.763 12.809 137.894C13.0586 137.024 13.5907 136.367 13.5907 136.367C13.5907 136.367 11.1209 137.292 9.70064 136.561C9.70064 136.561 9.09512 136.048 10.075 135.728C11.0512 135.409 12.4017 134.697 12.4017 134.697L14.8348 133.259C14.8348 133.259 14.8898 132.426 14.9596 132.194C15.0293 131.963 14.8348 130.862 14.9229 130.668C15.0109 130.473 15.7559 129.424 15.7559 129.424C15.7559 129.424 16.9266 128.605 17.0184 128.572C17.1064 128.536 19.6276 126.088 20.2515 125.269C20.2515 125.269 23.6204 118.642 26.3655 111.302C29.1106 103.962 33.8007 96.1966 33.8007 96.1966C33.8007 96.1966 36.9274 90.5634 37.5403 89.1872C38.1458 87.8146 42.1019 93.2717 42.1019 93.2717Z" fill="#ECCDB0"/>
<path d="M66.9618 38.154C66.9618 38.154 72.0923 37.798 72.9804 42.2019C73.3253 44.1102 73.0501 45.2992 72.7859 45.435C72.518 45.5671 72.3969 45.9782 72.3675 46.1983C72.3418 46.4185 72.3345 48.2755 73.2336 50.3123C73.5896 51.1637 74.1584 51.927 72.5253 52.2683C72.0299 52.2683 71.7877 52.3123 71.7767 52.7747C71.7657 53.2371 71.6849 53.7583 71.839 54.0298C71.839 54.4445 71.5675 54.7161 71.1161 54.7528C71.3473 55.006 71.384 55.718 70.973 55.9822C70.5619 56.2464 69.4096 56.6575 69.1454 58.5034C69.0389 59.9053 68.9325 59.942 68.8444 60.0117C68.7564 60.0814 67.9196 61.2742 65.5599 60.0117C64.848 59.5677 64.5654 59.4979 64.5654 59.4979C64.5654 59.4979 63.8314 59.8833 63.6699 61.3219C63.5085 62.7605 55.5265 62.4448 55.5265 62.4448L53.042 51.4719L55.9889 42.1688L66.9618 38.154Z" fill="#ECCDB0"/>
<path d="M16.0317 202.502C16.0317 202.502 12.3215 193.529 9.14339 199.177C5.96529 204.825 4.42027 210.968 4.42027 210.968C4.42027 210.968 3.56886 215.834 3.01838 217.306C2.71011 218.135 2.37249 218.928 2.08991 219.713C1.6642 220.91 1.46236 222.183 1.56145 223.449C1.71191 225.372 2.37982 225.897 2.37982 225.897C2.55598 226.106 2.74681 226.275 2.94132 226.407C3.36702 214.227 9.09201 202.715 9.2278 202.414C9.38193 202.069 9.63148 202.377 9.9948 202.542C11.5215 203.705 13.2463 204.527 14.3583 204.99C15.3308 203.529 16.0317 202.502 16.0317 202.502Z" fill="#DDB99E"/>
<path d="M54.7708 202.612C54.8185 202.032 54.8699 201.423 54.9213 200.773C54.936 200.586 54.9396 200.403 54.9433 200.223L47.4311 197.856C47.3871 198.535 47.4311 199.313 47.6036 200.204C49.2734 208.799 47.354 214.234 47.354 214.234C47.354 214.234 47.0347 215.845 49.7982 218.642C51.5891 212.418 51.3652 202.905 51.3652 202.905C51.3652 202.905 51.2588 202.502 51.8276 202.597C52.2496 202.667 53.9157 202.634 54.7708 202.612Z" fill="#DDB99E"/>
<path d="M42.1023 93.2717C42.1023 93.2717 38.1499 87.8146 37.5333 89.1872C36.9168 90.5597 33.7937 96.1966 33.7937 96.1966C33.7937 96.1966 29.1073 103.962 26.3586 111.302C23.6135 118.642 20.2446 125.269 20.2446 125.269C19.6244 126.088 17.1032 128.536 17.0114 128.572C16.9234 128.609 15.749 129.424 15.749 129.424C15.749 129.424 15.004 130.47 14.9159 130.668C14.8279 130.862 15.0224 131.963 14.9526 132.194C14.8829 132.426 14.8279 133.259 14.8279 133.259L14.2627 133.593C14.9416 133.211 15.4334 132.939 15.4334 132.939C15.4334 132.939 18.1674 130.682 18.061 130.506C17.8298 130.613 16.3031 131.875 15.4517 132.371C15.3453 131.677 15.7673 131.358 15.9141 131.02C17.1582 129.974 16.9087 129.758 16.9087 129.758C16.9087 129.758 16.4132 130.29 15.771 130.789C15.6829 130.007 16.6408 129.457 16.8903 129.244C18.1454 128.367 19.4702 126.568 19.4702 126.568C19.4702 126.568 20.0391 125.519 21.7199 123.372C23.4007 121.225 24.7035 118.021 24.964 117.262C25.2246 116.506 25.676 114.326 27.3311 110.087C28.9862 105.848 32.6928 100.428 32.6928 100.428C32.6928 100.428 32.3735 101.503 32.3735 102.355C35.1442 96.0682 37.0599 94.2222 38.5352 93.2974C40.0068 92.3726 40.3665 94.0094 40.3665 94.0094C40.3665 94.0094 40.0288 95.6572 39.6435 97.5545C40.5793 95.437 42.1023 93.2717 42.1023 93.2717Z" fill="#DDB99E"/>
<path d="M10.4199 136.51C10.119 136.51 9.53181 136.338 10.2071 135.905C10.4089 135.776 10.9594 135.457 11.631 135.075C11.1649 135.295 10.5667 135.563 10.0676 135.728C9.09142 136.048 9.69328 136.562 9.69328 136.562C11.1135 137.288 13.5833 136.367 13.5833 136.367C13.5833 136.367 13.0512 137.024 12.8017 137.894C12.5521 138.763 12.0016 139.901 11.9319 139.901C11.8732 139.901 11.0658 140.675 11.7117 140.841C11.6163 140.73 11.5943 140.565 11.8548 140.327C12.5778 139.901 12.9338 138.918 13.0402 138.705C13.1466 138.492 13.2164 138.029 13.4439 137.545C14.1302 136.503 14.1558 135.817 14.1558 135.817C14.1558 135.817 10.7245 136.51 10.4199 136.51Z" fill="#B09F83"/>
<path d="M27.1665 135.358C27.6839 135.439 27.7537 135.193 27.7316 135.006C27.1298 135.141 26.3114 135.134 25.6912 134.385C24.5792 133.046 24.271 130.359 22.1865 130.763C21.9443 130.811 21.7204 130.884 21.5186 130.976C22.0947 130.873 22.6012 130.972 22.6012 130.972C22.6012 130.972 23.6838 131.222 24.6269 133.138C25.5701 135.053 26.3518 135.233 27.1665 135.358Z" fill="#B09F83"/>
<path d="M17.2533 136.598C17.679 136.47 17.6423 136.172 17.6423 136.172C17.6423 136.172 17.69 136.517 17.8258 136.316C18.3065 135.659 17.8258 133.706 17.8258 133.706C17.8258 133.706 17.8955 133.673 18.0056 133.611C17.0441 134.004 15.3817 134.895 15.2018 136.448C15.0881 137.431 14.8092 138.246 14.5376 138.848C14.7725 138.525 14.9193 138.374 14.9486 138.646C15.0367 139.446 15.3743 139.233 15.3743 139.233C16.3872 139.178 17.0037 136.297 17.0037 136.297C17.0037 136.297 17.1102 136.598 17.2533 136.598Z" fill="#B09F83"/>
<path d="M66.9618 38.154L55.9889 42.1689L53.9888 48.4774L54.0805 56.074L54.7594 59.0723C55.3576 60.0411 56.2861 61.454 57.1852 62.4742C57.9449 62.4742 58.8807 62.4632 59.8018 62.4082C60.312 59.3512 58.3302 56.8006 58.3302 56.8006C58.3302 56.8006 56.7412 54.4446 57.266 51.6848C57.7907 48.9251 60.1798 48.0994 62.6643 46.9287C65.1488 45.758 66.0039 44.3011 68.2756 41.4936C69.8389 39.5633 71.7069 40.5248 72.7198 41.3138C71.3656 37.8494 66.9618 38.154 66.9618 38.154Z" fill="#DDB99E"/>
<path d="M64.5612 59.498C64.5612 59.498 64.8438 59.5677 65.5557 60.0118C66.6567 60.5989 67.42 60.654 67.9375 60.5366C66.3888 60.1035 61.3243 58.43 58.4912 54.3345C58.7077 56.0043 60.8693 58.5695 63.6731 61.2632C63.8492 59.8723 64.5612 59.498 64.5612 59.498Z" fill="#DDB99E"/>
<path d="M74.4195 92.2185C74.4195 92.2185 75.5571 92.8828 77.0251 93.5911C78.493 94.2993 84.8382 99.8408 87.253 102.021C89.6678 104.201 93.0771 107.654 95.3487 107.797C97.6204 107.94 97.5029 107.76 98.5672 107.867C99.6315 107.973 101.54 108.329 101.833 108.149C101.833 107.878 101.525 105.474 102.52 104.942C102.637 104.942 102.865 106.681 103.125 107.026C103.125 107.026 103.345 106.729 103.61 106.571C103.874 106.414 105.474 105.045 105.881 104.601C106.182 104.351 107.019 104.832 106.681 106.197C107.639 105.346 108.615 103.588 110.696 103.834C111.177 103.889 110.997 104.171 110.858 104.278C110.714 104.384 110.039 105.059 110.039 105.254C110.039 105.254 113.305 102.891 115.012 103.691C115.35 103.797 115.65 103.973 114.498 104.615C113.342 105.254 112.953 105.485 112.953 105.485C112.953 105.485 115.118 104.99 116.043 105.61C116.186 105.735 115.617 105.984 115.617 105.984C115.617 105.984 113.592 107.067 112.81 107.654C112.028 108.241 111.639 108.201 111.639 108.201C111.089 108.399 107.98 111.012 107.98 111.012L107.43 111.724C107.43 111.724 107.041 112.062 106.861 112.15C106.685 112.238 106.38 112.256 106.167 112.432C105.955 112.608 105.742 112.77 105.386 113.019C105.03 113.269 104.197 113.32 103.896 113.445C103.595 113.57 103.364 113.871 103.008 113.94C102.652 114.01 101.907 113.797 101.444 113.852C100.982 113.907 100.255 114.153 99.6865 114.153C99.1177 114.153 97.5837 113.441 96.5084 113.196C95.0331 112.858 93.3486 112.557 93.2752 112.557C93.2019 112.557 92.6367 112.557 91.0917 111.012C89.5467 109.467 86.8126 107.621 85.5685 106.982C84.3244 106.344 81.4142 105.419 74.5589 99.8078C67.7036 94.1966 67.7036 94.1966 67.7036 94.1966L72.746 91.1066L74.4195 92.2185Z" fill="#DDB99E"/>
<path d="M114.129 106.817C114.129 106.817 114.126 106.817 114.126 106.821C113.836 106.99 112.012 107.779 111.498 108.065C110.984 108.347 109.491 109.485 109.491 109.54C109.491 109.595 108.371 110.34 108.658 109.914C108.94 109.489 110.716 107.676 111.021 107.393C111.326 107.111 112.228 106.542 112.779 106.131C113.329 105.72 114.467 105.617 115.513 105.635C115.748 105.639 115.88 105.709 115.946 105.808C116.041 105.742 116.104 105.668 116.045 105.617C115.12 104.997 112.955 105.492 112.955 105.492C112.955 105.492 113.344 105.261 114.5 104.623C115.656 103.984 115.351 103.804 115.014 103.698C114.904 103.646 114.79 103.61 114.669 103.584C114.603 103.668 114.614 103.789 114.746 103.841C115.028 103.947 114.907 104.109 114.357 104.41C113.806 104.711 111.674 106.311 110.448 107.375C109.223 108.439 108.459 109.577 107.641 110.678C106.823 111.779 105.795 111.973 105.19 111.992C104.584 112.01 106.485 109.845 106.54 109.771C106.595 109.702 107.054 109.184 107.516 108.403C107.979 107.621 109.505 106.057 109.505 106.057L110.445 104.986C110.195 105.147 110.037 105.257 110.037 105.257C110.037 105.228 110.056 105.184 110.085 105.136H110.081C110.081 105.136 108.705 106.535 108.173 107.048C107.641 107.562 106.804 108.843 106.804 108.843C106.804 108.843 106.272 109.57 105.758 110.157C105.245 110.744 104.727 111.595 104.338 112.197C103.949 112.803 103.237 112.784 102.492 112.678C101.747 112.571 103.736 109.837 103.736 109.837L105.564 108.116L107.285 106.215C107.285 106.215 107.96 105.327 109.325 104.476C110.305 103.867 110.599 104.193 110.691 104.428C110.76 104.358 110.823 104.303 110.856 104.281C110.999 104.175 111.175 103.892 110.694 103.837C108.617 103.588 107.641 105.346 106.679 106.201C106.687 106.168 106.694 106.135 106.698 106.101C106.206 106.703 105.681 107.32 105.399 107.602C104.812 108.19 103.571 109.643 103.391 109.592C103.215 109.536 103.586 107.247 103.586 107.247C103.586 107.247 103.303 107.584 103.197 108.08C103.09 108.575 103.16 109.907 102.646 110.975C102.133 112.039 101.402 112.696 100.657 113.159C99.9123 113.621 97.5672 112.627 96.1103 112.271C94.6533 111.915 94.5836 110.781 94.5836 110.781C94.5836 110.781 94.7598 109.643 93.5524 110.285C92.345 110.924 90.5688 109.221 90.1798 109.008C89.7908 108.795 82.2602 103.716 79.5959 101.408C77.0343 99.1875 73.1956 96.5745 72.902 96.3763L70.9644 96.5415L71.6249 97.4149C72.425 98.0718 73.3901 98.8572 74.5498 99.8113C81.4051 105.423 84.3153 106.347 85.5594 106.986C86.8035 107.624 89.5375 109.47 91.0826 111.015C92.6276 112.56 93.1964 112.56 93.2661 112.56C93.3359 112.56 95.024 112.861 96.4993 113.199C97.5746 113.445 99.1086 114.157 99.6774 114.157C100.246 114.157 100.973 113.907 101.435 113.856C101.898 113.801 102.643 114.017 102.999 113.944C103.355 113.874 103.586 113.57 103.887 113.449C104.188 113.324 105.024 113.272 105.377 113.023C105.733 112.773 105.946 112.616 106.158 112.436C106.371 112.26 106.672 112.241 106.852 112.153C107.028 112.065 107.421 111.727 107.421 111.727L107.971 111.015C107.971 111.015 111.08 108.406 111.63 108.204C111.63 108.204 112.019 108.245 112.801 107.658C113.12 107.423 113.63 107.111 114.129 106.817Z" fill="#DDB99E"/>
<path d="M72.8916 96.3618C72.8916 96.3618 72.8989 96.3655 72.9099 96.3765L73.0677 96.3618H72.8916Z" fill="#DDB99E"/>
<path d="M102.956 106.612C102.956 106.612 102.956 106.615 102.959 106.619C102.956 106.615 102.956 106.612 102.956 106.612Z" fill="#DDB99E"/>
<path d="M107.253 105.808C107.253 105.808 107.282 105.694 107.319 105.547C107.098 105.786 106.889 106.014 106.684 106.197C107.021 104.828 106.188 104.351 105.884 104.601C105.476 105.045 103.876 106.414 103.612 106.571C103.381 106.711 103.186 106.949 103.139 107.012C103.168 107.07 103.197 107.129 103.223 107.173C103.33 107.368 103.33 109.801 103.33 109.801L104.1 108.993C104.1 108.993 105.781 107.511 105.781 107.459C105.781 107.408 106.706 106.34 106.706 106.34L107.253 105.808Z" fill="#DDB99E"/>
<path d="M101.837 108.153C101.54 108.329 99.6351 107.977 98.5708 107.87C97.5066 107.764 97.624 107.94 95.3523 107.801C93.0807 107.661 89.6714 104.201 87.2566 102.024C84.8418 99.8445 78.4966 94.3067 77.0287 93.5947C75.5607 92.8828 74.4231 92.2222 74.4231 92.2222L73.8506 91.8405L73.6157 92.0313L74.1368 93.169C74.1368 93.169 74.5258 92.1378 78.4342 95.0883C82.3427 98.0353 90.9338 105.709 90.9338 105.709C90.9338 105.709 93.455 107.804 94.5193 107.948C95.5835 108.091 98.8534 108.091 100.2 108.48C101.554 108.861 101.837 108.153 101.837 108.153Z" fill="#DDB99E"/>
<path d="M72.5005 99.5L74.1369 100.623C76.515 115.111 76.6802 119.743 76.6802 119.743C76.6802 119.743 76.6068 126.491 75.4728 129.721C74.3388 132.95 73.6268 136.503 73.6268 136.503C73.6268 136.503 73.0213 140.477 71.957 146.518C70.8928 152.558 68.7606 159.553 68.7606 159.553C68.7606 159.553 67.6927 163.671 65.9531 168.431C64.2136 173.187 62.8631 177.025 60.5915 185.228C58.3198 193.433 59.3327 198.744 59.5455 200.252C59.7584 201.76 59.1015 201.621 58.6941 201.584C52.0186 200.608 46.8148 201.159 46.2459 201.302C45.6771 201.445 45.6184 201.107 45.5707 200.208C45.8092 189.125 47.6075 183.87 51.6333 174.068C55.6555 164.265 55.2665 158.845 55.2665 158.845L55.4426 151.138C55.4426 151.138 53.56 153.946 53.4903 154.052C53.4169 154.159 50.2938 158.1 48.7304 160.232C47.1671 162.364 43.1926 168.702 43.1192 168.864C43.0128 169.102 38.1465 178.277 38.1465 178.277C38.1465 178.277 30.6857 191.382 28.4141 195.397C26.1533 199.392 21.7119 204.933 20.9674 205.861L20.9569 205.874C20.2486 206.762 20.0724 206.406 19.3605 206.124C16.4136 204.953 8.35089 199.272 8.06831 199.023C7.78573 198.777 8.14171 198.491 8.63714 197.639C11.9767 188.406 17.0925 183.437 18.5825 181.73C20.0761 180.027 22.0652 176.758 24.6928 173.279C31.9371 164.684 35.1336 155.45 35.1336 155.45C35.1336 155.45 43.7284 136.272 43.7284 125.405C43.7284 114.539 50.6168 107.507 50.6168 107.507L56.4665 100.021L60.0005 99L72.5005 99.5Z" fill="#2651C0"/>
<path d="M71.9676 146.544C73.0319 140.507 73.6374 136.529 73.6374 136.529C73.6374 136.529 74.3494 132.976 75.4834 129.747C76.621 126.513 76.6908 119.768 76.6908 119.768C76.6908 119.768 76.5183 115.262 74.2503 101.338C73.9751 101.309 73.6521 101.331 73.2631 101.441C73.0686 102.454 73.2998 103.518 73.2998 103.518C73.2998 103.518 74.7017 115.254 72.7126 131.38C72.7126 131.38 73.9897 109.68 71.8245 101.478C70.7713 101.478 70.83 101.76 65.7509 101.334C64.7564 101.122 64.8261 101.371 64.5802 101.83C64.3307 102.292 62.415 105.914 60.7452 109.181C59.0754 112.447 50.6457 132.371 48.9906 138.385C50.6971 130.381 55.2881 119.776 56.2826 116.557C57.2772 113.339 61.8241 101.122 61.8241 101.122C61.8241 101.122 58.1322 100.883 54.767 107.705C51.4054 114.524 50.4586 113.386 46.6235 130.719C42.7885 148.052 39.4746 153.19 39.4746 153.19C39.4746 153.19 33.2249 171.587 19.6574 189.984C15.5948 195.492 12.9195 198.993 11.1616 201.199C13.8406 203.015 17.5655 205.427 19.3711 206.146C20.0831 206.428 20.2592 206.784 20.9675 205.896C21.6795 205.008 26.153 199.434 28.4247 195.419C30.6963 191.404 38.1572 178.299 38.1572 178.299C38.1572 178.299 42.983 169.209 43.1298 168.886C43.2032 168.724 47.1777 162.386 48.7411 160.254C50.3044 158.122 53.4275 154.181 53.5009 154.074C53.5706 153.968 55.4532 151.16 55.4532 151.16C55.4532 151.16 59.1121 143.098 61.1342 134.396C63.16 125.695 65.2555 121.328 65.2555 121.221C65.2555 121.115 66.3564 118.631 67.1014 108.615C67.5271 109.86 67.6702 114.051 65.538 129.534C63.4058 145.017 56.7304 174.211 56.5872 174.636C56.4845 174.948 52.7596 188.762 50.9393 201.045C53.0495 201.045 55.7285 201.177 58.7011 201.61C59.1084 201.647 59.7653 201.786 59.5525 200.278C59.3396 198.769 58.3268 193.459 60.5984 185.253C62.8701 177.051 64.2206 173.213 65.9601 168.456C67.6996 163.697 68.7675 159.579 68.7675 159.579C68.7675 159.579 70.9034 152.581 71.9676 146.544Z" fill="#3B62C7"/>
<path d="M73.6158 97.7564V100.623L68.3082 100.311H64.0005L63.0005 100H59.5005H56.5005L56.6904 97.3527C56.6904 97.3527 56.1986 97.36 56.1216 97.1398C55.9454 96.0389 54.6316 92.5929 52.5361 90.2148C50.4406 87.8331 48.3451 84.6036 48.1323 83.6788C47.9194 82.754 47.8497 82.8604 47.8497 82.8604C47.8497 82.8604 47.1744 84.4568 46.679 85.488C46.1836 86.5192 43.5192 91.0992 43.5192 91.2424C43.5192 91.3818 42.0109 93.6204 42.0109 93.6204C42.0109 93.6204 41.9375 93.4773 41.7614 93.3709C39.842 91.5763 38.1025 91.0442 37.464 90.7249C36.8254 90.402 36.6125 90.6699 36.6125 90.6699C36.3813 90.4717 36.6125 89.8515 36.6125 89.8515C36.6125 89.8515 37.2878 88.7689 37.9814 86.6036C38.675 84.4384 39.7943 82.431 39.7943 82.431C42.0843 78.1152 43.688 75.495 43.8789 74.9738C44.8734 68.6763 46.3634 68.5112 47.9267 67.1387C49.4864 65.7661 50.9324 66.8304 50.9324 66.8304C50.9324 66.8304 53.4426 68.5589 53.4903 68.6286C53.538 68.6984 55.7179 69.836 57.6115 68.1075C60.808 65.0285 59.6703 61.3109 59.6703 61.3109H63.6705V63.656C63.6705 63.656 63.7402 66.5918 66.7715 67.0176C69.8028 67.4433 70.2065 69.3112 70.9148 71.8948C71.6231 74.4784 73.3993 76.9849 75.9095 79.4254C78.4197 81.8658 78.0417 81.9356 77.8508 83.9246C77.6637 85.9137 76.2178 87.8808 75.5792 89.0404C74.9406 90.2038 74.9186 91.1726 74.9883 92.9011C75.0581 94.6291 74.5483 95.8473 74.2656 96.5227L74.2654 96.5233C73.9828 97.1986 74.1369 97.1875 74.1369 97.1875V97.7564H73.6158Z" fill="#FFAD9C"/>
<path d="M59.2666 97.5215L59.4317 100.032L63.0539 100.127V97.5215H59.2666Z" fill="#272622"/>
<path d="M63.9316 97.5215V100.292C63.9316 100.292 69.4952 100.457 70.7759 100.435C70.7759 99.3454 70.7759 97.6646 70.7759 97.6646L63.9316 97.5215Z" fill="#272622"/>
<path d="M71.5059 97.6646V100.435L73.0692 100.575V97.6646H71.5059Z" fill="#272622"/>
<path d="M74.1373 97.7563H73.6162V100.623H74.1373V97.7563Z" fill="#272622"/>
<path d="M58.4851 97.327H56.4227L56.2832 100.127H58.4851V97.327Z" fill="#272622"/>
<path d="M59.7953 63.9422C59.7953 63.9422 59.1274 69.1791 55.1016 69.1314C53.6813 69.1314 51.9749 67.5937 51.9749 67.5937C51.9749 67.5937 50.0812 65.9129 48.3747 66.8817C47.2738 67.5093 46.4627 68.3754 45.9306 69.0763C45.4645 69.6892 45.1232 70.3828 44.8994 71.1204C44.5764 72.1847 44.0406 74.0086 43.8791 74.9775L42.5286 77.5574L40.7744 80.6107C40.7744 80.6107 38.1248 78.8125 39.1193 71.4984C39.4753 68.4084 42.1726 64.2761 43.736 62.4706C45.2994 60.665 46.2939 60.0962 46.826 58.8888C47.3582 57.6814 47.7839 56.5437 47.7141 53.4537C47.6444 50.3637 46.6499 45.4277 46.7196 43.9708C46.7893 42.5138 47.2884 34.2383 53.4318 30.9721C59.5752 27.7059 66.3607 29.4821 66.3607 29.4821C66.3607 29.4821 71.1206 30.4767 72.1481 35.1631C72.6803 37.009 72.9995 37.1888 72.9995 37.1888C72.9995 37.1888 77.7887 40.4624 78.0786 44.646C78.2548 47.2186 77.1685 49.8315 76.8345 50.4958C76.5006 51.16 73.1867 55.5639 71.9573 59.542C70.7279 63.5201 70.7719 63.3293 71.0105 65.3661C71.249 67.4029 72.8564 69.2488 73.1427 70.5736C73.4289 71.8985 74.0418 73.9352 72.7867 75.8069C72.1004 74.86 71.5096 74.0086 70.6802 71.4728C69.8508 68.9405 69.4251 67.4726 67.436 67.212C65.4469 66.9515 64.9038 66.8817 64.4524 66.1698C64.001 65.4578 62.8413 64.2064 63.6707 61.3146C63.7515 60.8411 63.8432 60.4778 63.9643 60.2209C64.2909 59.5273 64.5662 59.4906 64.5662 59.4906C64.5662 59.4906 64.724 59.542 64.9478 59.6558C65.6524 60.0118 67.1901 60.7384 68.0525 60.4154C69.1902 59.9897 69.1425 58.3603 69.1425 58.3603C69.1425 58.3603 69.359 57.3401 69.9022 56.7566C70.2912 56.3345 70.5481 56.2538 70.7793 56.096C71.0435 55.9199 71.2417 55.6409 71.2784 55.3253C71.3004 55.1382 71.2673 54.9327 71.1206 54.7418C71.1206 54.7418 71.7591 54.551 71.7408 53.8794C71.7224 53.2042 71.4729 52.294 71.9903 52.2096C72.5078 52.1252 73.895 52.1032 73.5463 51.1637C73.1977 50.2242 72.1371 48.3526 72.3096 45.9415C72.339 45.6406 72.5885 45.5341 72.8014 45.2956C73.0142 45.057 73.4656 42.8111 72.3279 41.211C71.1903 39.611 69.9499 39.1742 68.8819 39.8128C67.814 40.4514 66.291 42.8661 65.0102 44.1102C63.7331 45.3543 61.5312 46.7378 59.8944 47.0571C58.2613 47.3764 55.7034 48.4076 55.8099 51.0353C55.9163 53.6629 58.1879 57.1456 58.1879 57.1456C58.1879 57.1456 60.4156 61.4724 59.7953 63.9422Z" fill="#DF6D14"/>
<path d="M53.4323 30.9794C47.2889 34.2456 46.7898 42.5211 46.7201 43.9781C46.6504 45.435 47.6449 50.371 47.7146 53.461C47.7844 56.551 47.3587 57.6887 46.8265 58.8961C46.2944 60.1035 45.2999 60.6723 43.7365 62.4779C42.1731 64.2834 39.4758 68.4157 39.1198 71.5057C38.1253 78.8235 40.7749 80.618 40.7749 80.618L41.7951 78.8455C39.8941 71.381 44.7384 65.8064 47.9275 60.9218C51.2671 55.806 49.3257 46.9543 49.0394 45.4864C48.7569 44.0184 48.188 39.0458 49.9386 35.7796C52.6836 31.1812 58.0123 29.5408 62.4748 29.0197C59.9793 28.9463 56.6214 29.2802 53.4323 30.9794Z" fill="#D16109"/>
<path d="M71.0904 39.9596C71.5051 40.2385 71.9198 40.6532 72.3235 41.2184C73.4611 42.8148 73.0097 45.0644 72.7969 45.3029C72.584 45.5415 72.3345 45.6479 72.3051 45.9488C72.1326 48.3563 73.1932 50.2279 73.5419 51.171C73.8905 52.1142 72.4996 52.1362 71.9858 52.217C71.4721 52.3014 71.7179 53.2115 71.7363 53.8867C71.7546 54.562 71.1161 54.7492 71.1161 54.7492C71.2629 54.94 71.2959 55.1455 71.2739 55.3327C71.2372 55.6519 71.0427 55.9272 70.7748 56.1033C70.5436 56.2575 70.2867 56.3419 69.8977 56.7639C69.3582 57.3474 69.138 58.3677 69.138 58.3677C69.138 58.3677 69.1857 59.9971 68.0481 60.4228C67.1856 60.7457 65.648 60.0191 64.9434 59.6631C64.7195 59.5493 64.5617 59.498 64.5617 59.498C64.5617 59.498 64.2865 59.531 63.9598 60.2283C63.8387 60.4852 63.747 60.8485 63.6662 61.3219C62.8369 64.2101 63.9965 65.4652 64.4479 66.1771C64.8993 66.8891 65.4425 66.9588 67.4315 67.2194C69.4206 67.4799 69.8463 68.9479 70.6757 71.4801C71.3032 73.3994 71.795 74.3536 72.2978 75.1169C72.7198 72.4416 71.1418 69.5571 69.7289 67.2084C68.0224 64.3679 69.4096 62.3788 69.7656 61.065C70.1215 59.7512 74.063 51.8683 74.5254 50.316C74.9878 48.7636 75.5896 46.0773 73.8501 42.1358C73.0868 40.4036 72.0335 39.9376 71.0904 39.9596Z" fill="#D16109"/>
<path d="M63.2738 45.5048H72.7861L72.9806 44.6167L73.4613 44.7048L72.2319 49.8316L71.9677 49.7839C71.8906 49.7655 71.8429 49.6885 71.8613 49.6114L72.6283 46.2351H62.0664L63.2738 45.5048Z" fill="#272622"/>
<path d="M71.9503 46.925C71.9503 46.925 71.631 46.4296 70.6768 46.5176C69.7227 46.6057 68.8639 47.2626 68.8639 47.2626C68.8639 47.2626 68.7502 47.4534 69.2419 47.2626C69.7337 47.0718 70.809 46.8259 71.6861 47.0314C71.8292 47.0608 72.0824 47.1378 71.9503 46.925Z" fill="#272622"/>
<path d="M70.8785 48.7416C71.0954 48.7416 71.2712 48.2799 71.2712 47.7104C71.2712 47.1408 71.0954 46.6791 70.8785 46.6791C70.6616 46.6791 70.4858 47.1408 70.4858 47.7104C70.4858 48.2799 70.6616 48.7416 70.8785 48.7416Z" fill="#272622"/>
<path d="M292.095 211.459C292.095 211.459 293.679 214.719 293.586 220.401C293.492 226.083 298.802 224.408 298.99 221.657C299.177 218.91 299.224 213.925 297.78 210.477C296.333 207.037 292.838 208.9 292.095 211.459Z" fill="#9B6348"/>
<path d="M271.367 211.228C271.367 211.228 270.854 217.794 271.132 220.545C271.41 223.292 263.447 224.783 263.635 222.502C263.822 220.22 264.699 216.026 263.631 212.672C262.562 209.318 271.367 211.228 271.367 211.228Z" fill="#9B6348"/>
<path d="M263.631 212.672C263.909 213.546 264.053 214.477 264.115 215.415C266.894 213.52 269.486 214.21 271.136 215.094C271.23 213.004 271.367 211.232 271.367 211.232C271.367 211.232 262.562 209.318 263.631 212.672Z" fill="#8E5335"/>
<path d="M298.777 214.343C298.578 212.979 298.264 211.643 297.777 210.481C297.553 209.95 297.282 209.542 296.979 209.246L292.145 211.304C292.127 211.354 292.109 211.409 292.095 211.459C292.095 211.459 292.745 212.802 293.185 215.257C294.795 213.69 297.044 213.856 298.777 214.343Z" fill="#8E5335"/>
<path d="M271.367 219.332C271.367 219.332 274.489 221.848 272.998 226.877L273.067 227.01V228.88H247.238V227.606C247.238 227.606 247.249 227.465 247.408 227.465C247.477 227.028 247.372 225.613 248.964 224.917C250.552 224.216 257.104 222.523 260.144 218.787C261.158 217.599 262.328 216.423 264.154 216.401C264.548 216.401 264.652 216.517 264.512 216.939C264.371 217.358 263.811 219 264.129 219.246C264.447 219.491 264.616 219.56 265.562 220.329C266.508 221.097 269.439 220.888 269.93 220.26C270.41 219.625 271.027 219.004 271.367 219.332Z" fill="#EDEDED"/>
<path d="M291.932 226.086C291.932 225.982 292.037 224.4 291.932 223.617C291.827 222.834 291.791 220.913 292.91 219.516C294.029 218.119 294.903 217.148 297.415 217.148C299.932 217.148 302.061 219.91 302.061 221.614C302.061 223.318 301.852 223.845 301.852 223.845C301.852 223.845 301.765 226.029 302.061 226.779C302.141 226.877 302.206 226.924 302.206 226.924C302.206 226.924 302.271 226.938 302.271 227.086C302.271 227.234 302.271 228.736 302.271 228.736C302.271 228.736 302.271 228.981 302.025 228.981C301.78 228.981 291.318 228.981 291.318 228.981V226.989C291.318 226.989 291.373 226.657 291.596 226.657C291.82 226.657 291.694 226.086 291.932 226.086C292.167 226.086 291.932 226.086 291.932 226.086Z" fill="#EDEDED"/>
<path d="M243.514 132.836C243.514 132.836 243.42 147.369 253.946 175.501C257.112 183.234 259.444 187.053 260.931 194.879C262.419 202.705 263.354 211.835 262.982 213.509C265.498 213.509 271.923 213.509 271.923 213.509C271.923 213.509 273.042 199.348 269.873 187.147C266.707 174.942 262.888 158.546 262.888 152.586C264.473 157.802 268.942 167.957 278.724 182.118C288.507 196.28 291.767 213.513 291.767 213.513H299.777C299.777 213.513 300.337 202.987 291.391 180.068C282.45 157.152 278.161 143.828 275.743 130.414C268.292 123.985 246.495 127.992 243.514 132.836Z" fill="#272622"/>
<path d="M288.789 182.768C283.107 168.234 280.591 159.571 278.822 155.474C277.053 151.376 271.183 137.587 265.22 132.092C262.379 129.475 255.773 128.992 249.636 129.205C246.618 130.215 244.34 131.493 243.514 132.84C243.514 132.84 243.42 147.373 253.946 175.505C257.112 183.237 259.444 187.056 260.931 194.883C262.419 202.709 263.354 211.838 262.982 213.513C264.44 213.513 267.213 213.513 269.285 213.513C269.234 211.271 268.895 200.247 266.917 189.829C264.704 178.162 261.195 164.747 260.318 159.018C259.44 153.29 258.394 145.954 258.672 141.76C259.289 142.377 261.668 148.911 262.891 152.842C262.891 152.759 262.888 152.669 262.888 152.589C264.473 157.806 268.942 167.96 278.724 182.122C288.507 196.283 291.767 213.517 291.767 213.517H297.532C296.489 208.492 293.362 194.471 288.789 182.768Z" fill="#31302C"/>
<path d="M261.866 55.6065C261.866 55.6065 265.407 54.6751 266.245 56.0252C267.082 57.3753 268.342 60.4978 273.23 61.1945C278.118 61.8912 281.475 62.8262 282.825 67.158C283.385 69.0677 283.013 70.6055 282.172 72.9338C281.334 75.2622 280.45 79.2692 279.89 81.2257C279.331 83.1823 273.324 98.0405 273.136 99.0657C272.948 100.091 272.393 103.538 272.717 106.798C273.042 110.058 273.508 115.31 277.981 127.078C278.771 129.342 278.074 130.089 277.793 130.367C277.515 130.645 264.61 139.59 243.091 137.774C242.532 137.634 242.236 137.67 242.236 136.587C242.236 135.504 239.831 109.502 239.831 109.502L229.958 114.906C229.958 114.906 229.215 115.79 227.724 114.487C226.233 113.184 223.114 107.639 224.277 106.755C225.443 105.87 237.084 97.2066 237.832 96.2753C238.579 95.3439 238.857 89.7992 238.857 89.7992C238.857 89.7992 238.579 89.4743 239.6 88.8678C239.647 87.4708 239.741 76.8975 241.835 71.1686C243.932 65.4397 247.109 65.1473 247.6 64.9055C248.091 64.6636 249.834 64.0319 251.304 61.2379C251.722 60.2199 253.563 57.0035 261.866 55.6065Z" fill="#00274E"/>
<path d="M267.266 59.7542C267.266 59.7542 272.948 63.1547 276.118 64.4109C279.284 65.6672 280.125 68.8836 279.984 70.5585C279.843 72.2371 279.518 75.3091 278.305 78.8035C277.096 82.2978 270.638 99.1126 269.909 100.928C269.179 102.744 268.385 104.69 268.385 104.69C268.385 104.69 267.826 107.729 264.718 106.787C261.61 105.845 246.935 100.116 242.221 97.4232C241.521 96.6543 241.488 96.9359 241.661 96.0623C241.835 95.1887 242.445 89.597 239.6 88.8642C239.6 88.8642 239.521 78.5003 241.181 74.3309C242.838 70.1615 244.564 66.9487 246.264 65.9451C247.964 64.9452 250.574 63.4363 251.173 62.1259C251.173 62.1259 246.556 74.4355 250.747 84.5287C251.657 86.904 252.249 88.9653 256.231 92.8784C256.718 93.3657 256.913 94.1454 256.913 94.1454C256.913 94.1454 256.993 94.3368 257.043 94.1382C257.097 93.9361 257.252 93.1527 256.466 92.3838C255.679 91.6149 252.859 88.2866 252.859 88.1386C252.859 87.9906 252.78 87.2578 253.199 86.0954C253.617 84.933 255.227 78.9443 255.671 77.6628C256.115 76.3813 259.548 64.7936 264.754 60.0105C265.66 59.3463 266.884 59.321 267.266 59.7542Z" fill="#003366"/>
<path d="M271.367 66.5552C271.367 66.5552 267.176 77.3162 265.685 82.6733C264.194 88.0303 263.216 92.4091 263.357 95.5749C263.498 98.7408 263.461 98.1235 263.739 100.116C264.017 102.109 263.898 102.787 263.898 102.787C263.898 102.787 263.443 96.6038 260.945 94.5425C261.364 92.7267 263.75 86.0232 264.357 84.1136C264.963 82.204 266.663 77.5689 267.176 74.5402C267.689 71.5115 267.992 70.6957 267.992 70.6957C267.992 70.6957 267.548 74.2586 267.548 74.6557C267.548 75.0528 271.367 66.5552 271.367 66.5552Z" fill="#00274E"/>
<path d="M242.25 136.937C257.27 137.579 259.101 136.013 259.779 135.923C260.465 135.829 260.223 135.341 260.223 135.341C260.223 135.341 260.14 134.84 260.14 134.096C259.534 110.574 257.671 106.369 257.671 106.369C257.451 105.665 257.09 105.636 256.671 105.405C245.166 102.167 238.344 98.582 238.344 98.582L236.373 97.5388C233.359 99.9646 226.68 104.95 224.731 106.415C230.24 107.675 229.799 112.664 229.799 112.664C235.405 109.834 238.643 104.618 239.178 103.932C238.932 105.397 239.831 109.509 239.831 109.509C239.831 109.509 242.235 135.511 242.235 136.594C242.239 136.72 242.242 136.836 242.25 136.937Z" fill="#003366"/>
<path d="M247.04 110.246C247.812 110.246 248.437 109.268 248.437 108.062C248.437 106.855 247.812 105.878 247.04 105.878C246.269 105.878 245.643 106.855 245.643 108.062C245.643 109.268 246.269 110.246 247.04 110.246Z" fill="#00274E"/>
<path d="M248.079 118.628C248.905 118.628 249.574 117.619 249.574 116.375C249.574 115.131 248.905 114.122 248.079 114.122C247.254 114.122 246.585 115.131 246.585 116.375C246.585 117.619 247.254 118.628 248.079 118.628Z" fill="#00274E"/>
<path d="M253.068 110.419C253.87 110.419 254.52 109.355 254.52 108.044C254.52 106.732 253.87 105.668 253.068 105.668C252.267 105.668 251.617 106.732 251.617 108.044C251.617 109.355 252.267 110.419 253.068 110.419Z" fill="#00274E"/>
<path d="M254.079 118.628C254.823 118.628 255.426 117.564 255.426 116.252C255.426 114.94 254.823 113.877 254.079 113.877C253.336 113.877 252.733 114.94 252.733 116.252C252.733 117.564 253.336 118.628 254.079 118.628Z" fill="#00274E"/>
<path d="M246.679 110.246C247.451 110.246 248.076 109.268 248.076 108.062C248.076 106.855 247.451 105.878 246.679 105.878C245.908 105.878 245.282 106.855 245.282 108.062C245.282 109.268 245.908 110.246 246.679 110.246Z" fill="#00274E"/>
<path d="M247.719 118.628C248.544 118.628 249.214 117.619 249.214 116.375C249.214 115.131 248.544 114.122 247.719 114.122C246.894 114.122 246.225 115.131 246.225 116.375C246.225 117.619 246.894 118.628 247.719 118.628Z" fill="#00274E"/>
<path d="M252.708 110.419C253.509 110.419 254.159 109.355 254.159 108.044C254.159 106.732 253.509 105.668 252.708 105.668C251.907 105.668 251.257 106.732 251.257 108.044C251.257 109.355 251.907 110.419 252.708 110.419Z" fill="#00274E"/>
<path d="M253.719 118.628C254.462 118.628 255.065 117.564 255.065 116.252C255.065 114.94 254.462 113.877 253.719 113.877C252.975 113.877 252.372 114.94 252.372 116.252C252.372 117.564 252.975 118.628 253.719 118.628Z" fill="#00274E"/>
<path d="M263.866 53.5597C263.866 53.5597 263.494 51.4624 263.678 50.1592C263.866 48.856 266.378 45.7335 266.519 44.5242C266.66 43.3149 265.122 32.6008 265.122 32.6008C265.122 32.6008 250.123 28.9223 248.961 29.0126C247.795 29.1064 243.651 31.3409 243.651 31.3409C243.651 31.3409 242.625 35.976 242.86 37.1637C243.095 38.3513 243.954 39.4451 243.954 39.8638C243.954 40.2826 243.975 40.7013 243.419 41.7518C242.86 42.7987 240.882 46.0151 240.882 46.0151C240.882 46.0151 240.485 46.8995 241.347 47.4807C242.21 48.0619 243.326 48.1341 243.513 48.2243C243.701 48.3145 243.896 49.4589 243.896 49.4589L246.271 54.7004L251.581 55.9566L252.177 58.3319L259.491 56.5162L263.866 53.5597Z" fill="#8E5335"/>
<path d="M254.39 32.9473C253.271 31.8968 251.531 31.7308 250.267 32.774C249.545 33.3697 249.43 33.5321 249.069 34.1602C248.708 34.7883 248.101 34.6331 248.101 34.6331L246.495 33.3696L244.809 33.5682C244.809 33.5682 242.964 35.1241 242.928 37.4127C243.221 38.5029 243.957 39.4776 243.957 39.8674C243.957 40.2862 243.979 40.7049 243.423 41.7554C242.867 42.8059 240.885 46.0186 240.885 46.0186C240.885 46.0186 240.488 46.9031 241.351 47.4843C242.214 48.0654 243.329 48.1376 243.517 48.2279C243.704 48.3181 243.899 49.4625 243.899 49.4625L246.116 54.3538H247.181C247.181 54.3538 255.007 50.3 255.112 50.1267C255.216 49.9534 255.682 45.3292 255.09 43.3365C254.985 42.1128 254.946 40.6833 255.137 38.9577C255.328 37.2322 256.274 34.7161 254.39 32.9473Z" fill="#9B6348"/>
<path d="M263.487 53.816C263.476 53.7943 263.461 53.7799 263.451 53.7582C261.573 50.1953 261.162 47.6431 263.162 45.2678C264.339 43.8672 264.075 42.185 263.447 41.4486C262.819 40.7122 261.447 40.001 259.797 40.8674C257.917 41.8565 258.516 45.4375 258.985 46.5962C259.454 47.755 260.48 48.3218 260.104 50.5779C259.913 51.7295 255.736 57.3898 255.736 57.3898L255.744 57.4475L259.487 56.5162L263.487 53.816Z" fill="#9B6348"/>
<path d="M263.703 52.8593V53.1842C263.703 53.1842 260.512 55.6534 257.227 56.0035C253.942 56.3537 252.592 56.4692 251.986 56.3068C251.751 56.379 251.729 61.0826 251.729 61.0826C251.729 61.0826 246.675 74.894 252.032 86.2579C252.032 86.2579 252.31 87.1062 252.581 86.2579C252.848 85.4095 255.354 75.4174 259.404 67.1364C259.404 67.1364 262.339 61.4761 264.873 58.8914C265.642 57.8085 265.205 56.2201 265.205 56.2201C265.205 56.2201 264.681 52.7149 263.703 52.8593Z" fill="#EDEDED"/>
<path d="M263.671 54.5957C263.671 54.5957 261.815 56.3429 256.613 57.6352C251.408 58.9276 250.011 70.2481 250.011 70.2481C250.011 70.2481 248.975 80.1283 252.141 86.0377C252.249 86.2362 252.357 86.3951 252.473 86.5178C252.509 86.4601 252.545 86.377 252.585 86.2579C252.852 85.4096 255.357 75.4175 259.407 67.1364C259.407 67.1364 260.96 64.1474 262.779 61.5194C263.075 60.6964 263.411 59.8553 263.671 59.4618C264.266 58.5738 264.508 58.0865 264.266 56.8266C264.017 55.574 263.671 54.5957 263.671 54.5957Z" fill="#EDEDED"/>
<path d="M253.841 32.2903C252.772 31.7561 251.502 31.7163 250.394 32.1676C249.715 32.4455 249.058 32.9004 248.928 33.644C248.928 33.644 248.964 34.8425 248.007 34.6115C247.051 34.3768 247.029 34.3913 246.993 34.5176C246.961 34.6367 246.841 35.2179 247.246 35.763C247.293 35.828 247.249 35.9254 247.166 35.9254C246.318 35.9435 243.99 35.3226 243.419 33.2072C243.13 32.1351 243.445 30.998 244.156 30.1424C245.499 28.5288 248.563 25.6445 252.942 25.4027C258.833 25.0778 264.082 26.8286 266.753 29.9692C269.291 32.9509 271.634 37.9686 268.14 45.0259C264.645 52.0832 263.18 50.9642 263.18 50.9642C263.18 50.9642 260.804 48.9029 262.447 47.0511C264.089 45.1992 266.115 41.7771 262.306 40.1707C261.353 39.77 260.14 40.1671 259.534 40.4739C258.111 41.1959 257.855 43.8275 258.288 45.867C258.779 48.1918 260.454 49.3614 258.288 52.1193C256.122 54.8809 252.769 58.9312 248.159 58.8626C248.159 58.8626 245.156 59.2813 244.874 57.0468C244.596 54.8123 244.56 55.0217 244.419 54.4982C244.278 53.9748 244.455 52.4731 244.383 52.1915C244.315 51.9136 242.813 50.3036 243.787 48.5925C244.87 48.4878 245.43 49.5022 246.863 50.0256C248.231 50.5274 252.715 51.3757 254.397 47.9933C254.53 47.7225 254.7 47.4698 254.888 47.2316C255.119 46.9356 255.411 46.3183 255.39 45.1017C255.354 43.1091 255.144 40.2826 255.53 38.3585C255.855 36.716 256.527 33.6368 253.841 32.2903Z" fill="black"/>
<path d="M245.365 38.7881C245.365 38.7881 245.217 38.7808 245.217 39.113C245.217 39.4451 245.365 39.3909 245.365 39.3909C245.365 39.3909 247.181 39.1563 249.285 40.2717C249.458 40.3692 249.549 40.3511 249.61 40.2717C249.671 40.1923 249.653 40.0624 249.437 39.9396C249.217 39.8169 248.227 38.6978 245.365 38.7881Z" fill="#272622"/>
<path d="M246.036 41.2825C246.288 41.2825 246.491 40.8364 246.491 40.2862C246.491 39.7359 246.288 39.2899 246.036 39.2899C245.785 39.2899 245.582 39.7359 245.582 40.2862C245.582 40.8364 245.785 41.2825 246.036 41.2825Z" fill="#272622"/>
<path d="M153.216 29.6118L228.211 29.027C228.785 29.0198 229.352 29.1245 229.886 29.3338C230.417 29.5432 230.901 29.8536 231.309 30.2507C231.716 30.6442 232.038 31.1135 232.262 31.6333C232.482 32.1495 232.597 32.7054 232.597 33.2686V105.383C232.594 106.509 232.139 107.585 231.327 108.383C230.514 109.177 229.413 109.625 228.262 109.625H225.627L218.573 109.614H111.371L100.4 109.625H94.7796C94.3933 109.625 94.0106 109.552 93.6569 109.408C93.2995 109.264 92.9782 109.051 92.7039 108.784C92.4295 108.516 92.2129 108.199 92.0685 107.852C91.9205 107.502 91.8447 107.13 91.8447 106.751V97.5857V86.3409V85.5395V15.8618C91.8447 15.3059 91.9566 14.7535 92.1732 14.2373C92.3898 13.7211 92.7111 13.2555 93.1118 12.862C93.5161 12.4685 93.9926 12.1544 94.5196 11.9415C95.0467 11.7285 95.6098 11.6202 96.1802 11.6202H131.218C131.788 11.6202 132.351 11.7285 132.878 11.9451C133.405 12.158 133.882 12.4721 134.282 12.8692L150.119 28.37C150.527 28.7707 151.011 29.0847 151.541 29.2977C152.072 29.5071 152.642 29.6154 153.216 29.6118Z" fill="#6050DC"/>
<path d="M153.177 59.0214H145.018C143.289 59.0214 141.892 60.422 141.892 62.1475V70.3058C141.892 70.443 141.943 70.5838 142.029 70.6849C142.235 70.9448 142.618 70.9773 142.867 70.7643C143.845 69.9593 145.062 69.5189 146.325 69.5297C147.588 69.5297 148.805 69.9701 149.783 70.7751C152.101 72.6847 152.429 76.1069 150.52 78.4244C148.61 80.742 145.188 81.0705 142.87 79.1609C142.766 79.0742 142.628 79.0237 142.491 79.0237C142.163 79.0237 141.896 79.2908 141.896 79.6193V86.6911C141.896 88.4202 143.296 89.8172 145.022 89.8172H169.562C171.291 89.8172 172.688 88.4166 172.688 86.6911V79.6193C172.688 79.2908 172.955 79.0237 173.284 79.0237C173.421 79.0237 173.561 79.0742 173.663 79.1609C175.98 81.0705 179.402 80.742 181.312 78.4244C183.222 76.1069 182.893 72.6847 180.575 70.7751C179.597 69.9701 178.381 69.5297 177.117 69.5297C175.854 69.5225 174.626 69.9629 173.659 70.7643C173.41 70.9701 173.038 70.9376 172.821 70.6849C172.735 70.5802 172.684 70.443 172.684 70.3058V62.1475C172.684 60.4184 171.284 59.0214 169.558 59.0214H162.486C162.158 59.0214 161.891 58.7543 161.891 58.4258C161.891 58.2886 161.941 58.1478 162.028 58.0467C163.938 55.7292 163.609 52.307 161.292 50.3974C158.974 48.4878 155.552 48.8163 153.642 51.1338C152.837 52.1121 152.397 53.3286 152.397 54.5921C152.39 55.8555 152.83 57.0829 153.631 58.0503C153.837 58.2994 153.805 58.6712 153.552 58.8878C153.451 58.9672 153.314 59.0214 153.177 59.0214Z" fill="white"/>
<path d="M95.514 108.722C97.859 108.729 97.7122 108.737 98.7802 108.729C99.9031 108.722 101.562 108.722 101.881 108.722C101.881 108.487 101.881 106.109 102.509 105.103C102.626 104.916 102.92 105.004 102.927 105.228C102.934 105.588 102.949 106.065 103.063 106.403C103.144 106.641 103.254 107.313 103.276 107.562C103.32 108.061 102.832 109.584 103.393 109.592C103.907 109.599 105.265 108.135 106.678 106.201C107.636 105.349 108.612 103.591 110.693 103.837C111.173 103.892 110.993 104.175 110.854 104.281C110.711 104.388 110.036 105.063 110.036 105.258C110.036 105.258 113.302 102.894 115.008 103.694C115.346 103.801 115.647 103.977 114.495 104.619C113.339 105.258 112.95 105.489 112.95 105.489C112.95 105.489 115.115 104.993 116.04 105.614C116.183 105.738 115.614 105.988 115.614 105.988C115.614 105.988 113.588 107.07 112.806 107.658C112.025 108.245 111.636 108.204 111.636 108.204C111.085 108.403 107.977 111.016 107.977 111.016L107.426 111.728C107.426 111.728 107.037 112.065 106.858 112.153C106.681 112.241 106.377 112.26 106.164 112.436C105.951 112.612 105.738 112.773 105.382 113.023C105.026 113.273 104.193 113.324 103.892 113.449C103.591 113.573 103.36 113.874 103.004 113.944C102.648 114.014 101.903 113.801 101.441 113.856C100.978 113.911 100.252 114.157 99.683 114.157C99.1141 114.157 97.5801 113.445 96.5049 113.199C95.0296 112.862 93.3451 112.561 93.2717 112.561C93.1983 112.561 92.6331 112.561 91.0881 111.016C90.3395 110.267 89.3156 109.452 88.3174 108.733C91.1579 108.696 93.2387 108.711 95.514 108.722Z" fill="#ECCDB0"/>
<path d="M114.131 106.817C114.131 106.817 114.128 106.817 114.128 106.821C113.838 106.99 112.014 107.779 111.5 108.065C110.986 108.348 109.493 109.485 109.493 109.54C109.493 109.595 108.373 110.34 108.659 109.915C108.942 109.489 110.718 107.676 111.023 107.393C111.327 107.111 112.23 106.542 112.781 106.131C113.331 105.72 114.469 105.617 115.515 105.635C115.75 105.639 115.882 105.709 115.948 105.808C116.043 105.742 116.106 105.669 116.047 105.617C115.122 104.997 112.957 105.492 112.957 105.492C112.957 105.492 113.346 105.261 114.502 104.623C115.658 103.984 115.353 103.804 115.016 103.698C114.906 103.646 114.792 103.61 114.671 103.584C114.605 103.668 114.616 103.79 114.748 103.841C115.03 103.947 114.909 104.109 114.359 104.41C113.808 104.711 111.676 106.311 110.45 107.375C109.225 108.439 108.461 109.577 107.643 110.678C106.825 111.779 105.797 111.973 105.191 111.992C104.586 112.01 106.487 109.845 106.542 109.771C106.597 109.702 107.056 109.184 107.518 108.403C107.981 107.621 109.507 106.058 109.507 106.058L110.447 104.986C110.197 105.147 110.039 105.258 110.039 105.258C110.039 105.228 110.058 105.184 110.087 105.136H110.083C110.083 105.136 108.707 106.535 108.175 107.048C107.643 107.562 106.806 108.843 106.806 108.843C106.806 108.843 106.274 109.57 105.76 110.157C105.246 110.744 104.729 111.595 104.34 112.197C103.951 112.803 103.239 112.784 102.494 112.678C101.749 112.572 103.738 109.838 103.738 109.838L105.566 108.116L107.287 106.215C107.287 106.215 107.962 105.327 109.327 104.476C110.307 103.867 110.601 104.193 110.693 104.428C110.762 104.358 110.825 104.303 110.858 104.281C111.001 104.175 111.177 103.892 110.696 103.837C108.619 103.588 107.643 105.346 106.681 106.201C106.689 106.168 105.683 107.324 105.404 107.603C104.817 108.19 103.577 109.643 103.397 109.592C103.316 109.566 103.166 109.911 102.652 110.975C102.138 112.039 101.408 112.696 100.663 113.159C99.9178 113.621 97.5728 112.627 96.1159 112.271C94.6589 111.915 94.5892 110.781 94.5892 110.781C94.5892 110.781 94.7653 109.643 93.558 110.285C92.3506 110.924 90.3285 109.181 90.1964 109.063C90.0569 108.938 89.9028 108.806 89.8184 108.718C89.6495 108.718 88.5926 108.733 88.3174 108.733C89.3193 109.452 90.3431 110.267 91.0881 111.016C92.6331 112.561 93.202 112.561 93.2717 112.561C93.3414 112.561 95.0296 112.861 96.5049 113.199C97.5801 113.445 99.1141 114.157 99.683 114.157C100.252 114.157 100.978 113.907 101.441 113.856C101.903 113.801 102.648 114.017 103.004 113.944C103.36 113.874 103.591 113.57 103.892 113.449C104.193 113.324 105.03 113.272 105.382 113.023C105.738 112.773 105.951 112.616 106.164 112.436C106.377 112.26 106.678 112.241 106.858 112.153C107.034 112.065 107.426 111.727 107.426 111.727L107.977 111.016C107.977 111.016 111.085 108.406 111.636 108.204C111.636 108.204 112.025 108.245 112.806 107.658C113.122 107.423 113.632 107.111 114.131 106.817Z" fill="#DDB99E"/>
<path d="M72.8931 96.3618C72.8931 96.3618 72.9004 96.3655 72.9114 96.3765L73.0692 96.3618H72.8931Z" fill="#DDB99E"/>
<path d="M102.934 105.324C102.934 105.023 102.81 105.004 102.612 105.001C101.878 105.713 101.885 108.45 101.885 108.722C101.566 108.722 99.9068 108.722 98.7838 108.729C97.7122 108.737 97.859 108.729 95.5177 108.722C94.2112 108.718 91.1835 108.715 89.8257 108.718C90.3321 109.151 93.58 108.949 94.1194 109.148C94.7103 109.368 96.3911 108.898 98.4535 109.573C99.5251 109.926 100.626 111.144 100.986 110.663C101.389 110.127 101.87 109.79 101.933 109.419C102.028 108.872 102.182 107.595 102.234 106.358C102.256 105.782 102.634 104.916 102.934 105.324Z" fill="#DDB99E"/>
<path d="M229.189 84.6046C229.189 84.6046 231.041 84.9187 232.124 85.0233C233.207 85.128 233.207 85.3013 233.766 85.7237C234.326 86.146 236.946 88.3444 237.365 88.5899C237.784 88.8354 239.358 89.8461 239.845 90.1277C240.332 90.4057 241.661 91.7341 240.997 94.0769C240.332 96.4161 239.563 97.4305 238.235 97.9214C236.907 98.4088 236.069 97.2211 236.069 97.2211L235.546 96.4522C235.546 96.4522 232.892 96.0696 230.968 94.9144C229.817 94.7736 230.236 94.6364 229.503 94.6364C228.77 94.6364 225.03 94.8097 224.575 94.6725C224.12 94.5318 222.933 93.799 223.319 93.6582C223.702 93.5174 223.983 93.4849 224.716 93.4849C225.449 93.4849 226.532 93.3116 226.532 93.3116L228.629 93.0661C228.629 93.0661 229.189 92.4019 228.21 92.4019C227.232 92.4019 223.601 92.3333 222.9 92.2287C222.2 92.124 220.734 91.7197 220.666 91.3262C220.597 90.9363 221.016 90.6548 221.016 90.6548C221.016 90.6548 222.727 90.7955 223.46 90.7594C224.193 90.7233 225.38 90.7594 226.326 90.7594C227.272 90.7594 228.037 90.6908 228.247 90.6186C228.456 90.5465 229.47 90.1638 228.524 89.9183C227.582 89.6729 226.604 89.3227 226.604 89.3227C226.604 89.3227 223.843 89.2541 222.655 88.7271C221.467 88.2036 219.442 88.6224 219.301 86.4926C219.615 86.1424 221.745 86.7705 222.828 86.8427C223.911 86.9149 226.355 87.016 226.355 87.016C226.355 87.016 227.265 86.8752 227.647 86.9474C228.03 87.0196 226.842 86.4926 226.738 86.4926C226.633 86.4926 224.68 86.3193 224.016 86.0738C223.352 85.8284 220.673 85.572 220.998 83.9296C221.124 83.4747 221.37 83.4747 222.139 83.6155C222.908 83.7563 224.817 83.9873 224.817 83.9873C224.817 83.9873 228.037 84.3591 229.189 84.6046Z" fill="#9B6348"/>
<path d="M223.738 109.617C223.738 109.617 224.911 109.625 225.951 109.625C227.969 109.625 229.21 113.751 227.384 114.227C224.355 115.018 224.261 113.982 224.261 113.982L219.301 114.05C219.301 114.05 218.933 113.964 218.496 113.736C218.06 113.509 217.431 113.595 217.359 113.563C217.287 113.53 216.749 113.509 216.54 113.317C216.33 113.126 215.63 112.863 215.525 112.671C215.421 112.48 214.948 112.357 214.811 112.061C214.67 111.765 214.096 111.347 213.937 110.715C213.778 110.087 213.587 110.087 213.554 109.7C213.518 109.318 213.572 108.459 213.554 107.708C213.536 106.957 213.327 105.82 213.327 105.769C213.327 105.715 213.168 105.036 213.186 104.513C213.204 103.99 212.959 101.874 212.923 101.701C212.887 101.528 212.645 100.445 212.836 100.304C213.027 100.163 213.919 100.145 214.146 100.791C214.146 100.791 214.092 98.8527 214.269 98.434C214.446 98.0152 215.421 98.1019 215.825 99.221C216.229 100.34 216.576 102.192 216.54 102.611C216.504 103.029 217.045 104.531 217.027 105.159C217.027 105.159 217.186 103.43 217.2 103.029C217.218 102.629 217.236 101.073 217.287 100.705C217.341 100.336 218.684 100.095 218.893 101.961C219.103 103.831 218.875 104.181 218.875 104.354C218.875 104.527 218.998 105.661 218.962 106.361C218.926 107.062 219.294 107.657 219.294 107.657C219.294 107.657 219.399 106.224 219.572 105.737C219.745 105.249 220.218 102.629 220.218 102.47C220.218 102.311 221.406 102.174 221.442 103.307C221.478 104.441 221.178 105.491 221.178 105.542C221.178 105.596 221.337 106.903 221.196 107.307C221.056 107.708 221.337 108.181 221.337 108.181C221.337 108.181 221.467 108.726 221.074 109.596C221.085 109.599 222.727 109.617 223.738 109.617Z" fill="#9B6348"/>
<path d="M240.997 94.0697C241.661 91.7305 240.333 90.4021 239.845 90.1205C239.52 89.9364 238.719 89.4274 238.094 89.0339C239.203 90.4995 240.278 92.9434 237.593 95.1166C236.86 95.7122 234.098 94.9758 234.098 94.9758C234.098 94.9758 230.344 93.8062 229.521 93.8748C228.752 93.9397 224.189 94.113 223.539 93.5788C223.467 93.5968 223.399 93.6221 223.323 93.6474C222.94 93.7881 224.128 94.5209 224.579 94.6617C225.03 94.8025 228.77 94.6256 229.507 94.6256C230.239 94.6256 229.821 94.7664 230.972 94.9036C232.893 96.0551 235.549 96.4414 235.549 96.4414L236.073 97.2103C236.073 97.2103 236.91 98.3979 238.239 97.9106C239.564 97.4233 240.333 96.4089 240.997 94.0697Z" fill="#8E5335"/>
<path d="M221.067 83.7635C221.042 83.8104 221.02 83.8646 221.002 83.9259C220.677 85.5684 223.355 85.8247 224.02 86.0702C224.684 86.3157 226.637 86.4889 226.742 86.4889C226.846 86.4889 228.034 87.0124 227.651 86.9438C227.518 86.9185 227.315 86.9221 227.113 86.933C227.778 86.9907 228.81 87.1134 229.424 87.3806C230.427 87.8174 227.088 86.2435 226.828 86.211C226.269 86.1424 225.485 86.0124 224.417 85.7056C223.753 85.5143 223.002 85.4962 222.688 85.323C222.449 85.1858 221.316 84.4277 221.067 83.7635Z" fill="#8E5335"/>
<path d="M222.655 88.7235C223.843 89.2469 226.604 89.3191 226.604 89.3191C226.604 89.3191 227.583 89.6692 228.525 89.9147C228.842 89.9977 228.936 90.0952 228.915 90.1891L229.521 90.1927C229.521 90.1927 227.619 89.1639 226.673 89.1278C225.731 89.0917 224.11 88.9762 222.673 88.395C221.854 88.0629 221.294 88.0268 221.294 88.0268C221.294 88.0268 219.93 87.7199 219.63 86.3879C219.475 86.3951 219.359 86.4276 219.305 86.489C219.442 88.6188 221.467 88.2 222.655 88.7235Z" fill="#8E5335"/>
<path d="M228.211 92.3947C228.489 92.3947 228.64 92.4488 228.716 92.5246C228.817 92.5174 228.875 92.5174 228.875 92.5174C228.875 92.5174 227.951 92.0806 226.063 92.0987C224.308 92.1131 221.634 92.16 220.821 90.8316C220.724 90.9507 220.63 91.1204 220.666 91.3189C220.735 91.7088 222.204 92.1167 222.901 92.2214C223.597 92.3261 227.232 92.3947 228.211 92.3947Z" fill="#8E5335"/>
<path d="M226.254 111.328C226.254 111.328 222.092 115.487 214.06 111.025C214.287 111.487 214.699 111.816 214.815 112.061C214.955 112.357 215.425 112.48 215.529 112.671C215.634 112.863 216.334 113.126 216.544 113.318C216.753 113.509 217.294 113.527 217.363 113.563C217.432 113.599 218.063 113.509 218.5 113.736C218.937 113.964 219.305 114.05 219.305 114.05L224.265 113.982C224.265 113.982 224.337 114.78 226.399 114.44L226.254 111.328Z" fill="#8E5335"/>
<path d="M240.997 94.0697C241.661 91.7305 240.332 90.402 239.845 90.1205C239.629 89.9977 239.199 89.7306 238.751 89.449C239.567 90.5067 240.141 91.9868 239.25 93.7195C237.961 96.2248 236.358 96.4955 235.539 96.445H235.546L236.069 97.2139C236.069 97.2139 236.907 98.4015 238.235 97.9142C239.564 97.4232 240.332 96.4089 240.997 94.0697Z" fill="#F5F0EA"/>
<path d="M225.03 109.621C225.326 110.357 225.518 111.209 225.301 112.108C225.16 112.697 224.839 113.328 224.261 113.982C224.261 113.982 224.218 114.523 225.521 114.523C225.965 114.523 226.579 114.444 227.38 114.252C229.983 113.628 229.622 111.278 228.467 109.527C227.925 109.675 226.16 109.57 225.03 109.621Z" fill="#F5F0EA"/>
<path d="M214.952 106.264C214.952 105.881 214.674 105.354 214.638 104.639C214.609 104.069 214.255 101.694 214.114 100.734C213.851 100.16 213.024 100.174 212.836 100.308C212.753 100.369 212.753 100.611 212.782 100.882C213.32 100.86 213.973 100.979 214.056 101.687C214.201 102.91 214.201 104.235 214.338 104.726C214.479 105.213 214.601 105.755 214.706 106.365C214.811 106.979 215.125 108.166 215.125 108.166C215.125 108.166 214.952 106.647 214.952 106.264Z" fill="#8E5335"/>
<path d="M216.403 102.542C216.594 103.607 216.489 104.621 216.648 105.423C216.807 106.228 216.926 108.007 216.926 108.007C216.926 108.007 217.118 106.906 217.219 105.719C217.32 104.531 217.219 102.611 217.219 102.611C217.215 102.791 217.211 102.939 217.208 103.029C217.19 103.43 217.035 105.159 217.035 105.159C217.053 104.531 216.511 103.029 216.547 102.611C216.583 102.192 216.233 100.34 215.832 99.221C215.432 98.1019 214.453 98.0152 214.277 98.434C214.222 98.5603 214.194 98.8275 214.172 99.1379C215.735 98.2571 216.215 101.499 216.403 102.542Z" fill="#8E5335"/>
<path d="M219.294 107.643C219.247 107.563 218.941 107.015 218.973 106.365C219.009 105.665 218.886 104.531 218.886 104.358C218.886 104.184 219.114 103.834 218.905 101.964C218.695 100.095 217.349 100.34 217.298 100.708C217.287 100.795 217.276 100.946 217.266 101.134C217.522 101.04 218.049 100.928 218.309 101.513C218.659 102.3 218.905 103.015 218.814 103.766C218.728 104.517 218.832 106.018 218.832 106.018C218.832 106.018 218.883 107.206 218.955 107.679C219.013 108.069 219.233 108.668 219.291 108.975C219.284 108.697 219.287 108.123 219.294 107.643Z" fill="#8E5335"/>
<path d="M219.302 109.127C219.309 109.095 219.302 109.037 219.287 108.971C219.291 109.098 219.294 109.167 219.302 109.127Z" fill="#8E5335"/>
<path d="M220.965 102.997C221.189 103.38 221.348 103.697 221.207 104.376C221.067 105.058 220.951 105.773 220.965 106.524C220.98 107.275 221.243 108.358 221.189 108.849C221.135 109.336 221.085 109.599 221.085 109.599L221.215 109.264C221.337 108.946 221.388 108.603 221.352 108.26L221.344 108.184C221.344 108.184 221.067 107.711 221.204 107.311C221.344 106.91 221.186 105.6 221.186 105.545C221.186 105.491 221.482 104.444 221.449 103.311C221.413 102.174 220.225 102.315 220.225 102.473C220.225 102.51 220.204 102.665 220.164 102.885C220.413 102.795 220.81 102.737 220.965 102.997Z" fill="#8E5335"/>
<path d="M130.64 147.168C129.865 147.168 129.114 147.065 128.386 146.86C127.667 146.645 127.088 146.37 126.65 146.034L127.42 144.326C127.84 144.634 128.339 144.881 128.918 145.068C129.496 145.255 130.075 145.348 130.654 145.348C131.298 145.348 131.774 145.255 132.082 145.068C132.39 144.872 132.544 144.615 132.544 144.298C132.544 144.065 132.45 143.873 132.264 143.724C132.086 143.565 131.853 143.439 131.564 143.346C131.284 143.253 130.901 143.15 130.416 143.038C129.669 142.861 129.058 142.683 128.582 142.506C128.106 142.329 127.695 142.044 127.35 141.652C127.014 141.26 126.846 140.737 126.846 140.084C126.846 139.515 127 139.001 127.308 138.544C127.616 138.077 128.078 137.709 128.694 137.438C129.319 137.167 130.08 137.032 130.976 137.032C131.601 137.032 132.212 137.107 132.81 137.256C133.407 137.405 133.93 137.62 134.378 137.9L133.678 139.622C132.772 139.109 131.867 138.852 130.962 138.852C130.327 138.852 129.856 138.955 129.548 139.16C129.249 139.365 129.1 139.636 129.1 139.972C129.1 140.308 129.272 140.56 129.618 140.728C129.972 140.887 130.509 141.045 131.228 141.204C131.974 141.381 132.586 141.559 133.062 141.736C133.538 141.913 133.944 142.193 134.28 142.576C134.625 142.959 134.798 143.477 134.798 144.13C134.798 144.69 134.639 145.203 134.322 145.67C134.014 146.127 133.547 146.491 132.922 146.762C132.296 147.033 131.536 147.168 130.64 147.168ZM138.241 139.048H135.105V137.2H143.645V139.048H140.509V147H138.241V139.048ZM150.827 144.9H146.277L145.409 147H143.085L147.453 137.2H149.693L154.075 147H151.695L150.827 144.9ZM150.113 143.178L148.559 139.426L147.005 143.178H150.113ZM161.336 147L159.446 144.27H159.334H157.36V147H155.092V137.2H159.334C160.202 137.2 160.953 137.345 161.588 137.634C162.232 137.923 162.726 138.334 163.072 138.866C163.417 139.398 163.59 140.028 163.59 140.756C163.59 141.484 163.412 142.114 163.058 142.646C162.712 143.169 162.218 143.57 161.574 143.85L163.772 147H161.336ZM161.294 140.756C161.294 140.205 161.116 139.785 160.762 139.496C160.407 139.197 159.889 139.048 159.208 139.048H157.36V142.464H159.208C159.889 142.464 160.407 142.315 160.762 142.016C161.116 141.717 161.294 141.297 161.294 140.756ZM167.28 139.048H164.144V137.2H172.684V139.048H169.548V147H167.28V139.048Z" fill="black"/>
<path d="M188 146.5L193 141.5L188 136.5" stroke="black" stroke-width="2" stroke-linecap="round" stroke-linejoin="round"/>
<path d="M183 141.5H193" stroke="black" stroke-width="2" stroke-linecap="round" stroke-linejoin="round"/>
<rect x="106" y="124" width="107" height="35" rx="6" stroke="url(#paint0_linear_1039:19019)" stroke-width="2"/>
<defs>
<linearGradient id="paint0_linear_1039:19019" x1="159.5" y1="124" x2="159.5" y2="159" gradientUnits="userSpaceOnUse">
<stop stop-color="white"/>
<stop offset="1" stop-color="white"/>
</linearGradient>
</defs>
</svg>
