<svg width="316" height="230" viewBox="0 0 316 230" fill="none" xmlns="http://www.w3.org/2000/svg">
<path d="M237.23 20.4258V230H85.2777C85.2777 230 78.7334 229.413 78.7334 203.962C78.7334 178.511 78.7334 34.492 78.7334 34.492C78.7334 34.492 75.4629 20.4258 89.8063 20.4258C104.15 20.4258 237.23 20.4258 237.23 20.4258Z" fill="#3D358A"/>
<path d="M94.0879 208.358C94.0879 208.358 80.7554 207.857 80.749 218.995C80.749 228.919 85.7653 229.919 87.2543 230H87.6704H237.23V208.358H94.0879Z" fill="#281F7E"/>
<path d="M159.625 21.8087C161.332 21.3218 163.169 21.4386 164.817 22.1009C166.699 22.8573 169.027 24.422 169.027 27.5254C169.027 32.739 169.027 45.5586 169.027 45.5586H173.748V28.2786C173.748 28.2786 173.887 16.6309 162.083 16.6309C150.279 16.6309 149.713 23.8376 149.713 27.5449C149.713 31.2522 149.713 45.5554 149.713 45.5554H154.684V27.7754C154.68 27.7754 154.905 23.1559 159.625 21.8087Z" fill="#D0D0D0"/>
<path d="M167.83 5.66164C167.83 2.5348 165.296 0 162.169 0C159.042 0 156.507 2.5348 156.507 5.66163V33.612C156.507 36.7389 159.042 39.2737 162.169 39.2737C165.296 39.2737 167.83 36.7389 167.83 33.612V5.66164Z" fill="#281F7E"/>
<path d="M162.18 42.0038C162.18 42.0038 173.003 41.8577 177.616 45.3767C178.539 46.0454 177.616 46.435 177.616 46.435C177.616 46.435 174.775 47.4868 176.205 50.1585C176.644 50.8954 177.652 51.5576 179.807 51.5706C180.688 51.5706 180.782 52.1842 180.516 52.8756C180.249 53.5671 180.532 55.6869 183.725 55.6415C184.495 55.6415 185.139 55.5311 185.139 55.8135C185.139 56.096 185.487 68.0521 179.963 76.8365C171.615 90.1139 162.375 91.565 162.375 91.565C162.375 91.565 148.919 88.1888 143.467 75.1192C138.015 62.0497 138.747 55.8914 138.747 55.8914C138.747 55.8914 138.558 55.6707 140.038 55.7032C141.517 55.7356 142.964 55.4207 143.467 54.6351C143.971 53.8495 143.5 52.0283 143.5 52.0283C143.5 52.0283 143.279 51.6518 144.413 51.5901C145.545 51.5284 147.717 51.3401 148.126 49.5482C148.536 47.7562 146.27 46.4382 146.27 46.4382C146.27 46.4382 145.295 45.8084 146.835 45.1494C148.376 44.4905 151.062 42.046 162.18 42.0038Z" fill="#FFAD9C"/>
<path d="M184.024 57.4108C182.116 79.5473 166.069 84.6375 162.629 85.8094C153.988 82.9397 142.157 73.2008 140.145 57.4108C144.8 57.4108 145.347 54.856 144.716 52.7621C144.716 52.7621 148.559 52.0772 149.206 49.9087C149.849 47.7401 147.632 45.5586 147.632 45.5586C147.632 45.5586 155.769 43.1077 162.375 43.1077C168.981 43.1077 176.699 45.5586 176.699 45.5586C176.699 45.5586 174.31 47.5681 174.876 49.7691C175.441 51.9668 179.121 52.7232 179.375 52.6583C179.378 52.6583 177.333 56.4272 184.024 57.4108Z" fill="black"/>
<path d="M182.808 58.1669C180.968 79.5211 165.991 83.5075 162.671 84.6405C154.336 81.8714 142.935 73.418 140.99 58.1832C145.483 58.1832 146.257 55.4011 145.649 53.3819C145.649 53.3819 149.401 52.4243 150.022 50.3336C150.643 48.243 149.268 46.029 149.268 46.029C149.268 46.029 155.994 43.8638 162.366 43.8638C168.738 43.8638 175.506 45.8115 175.506 45.8115C175.506 45.8115 173.41 48.1294 173.956 50.2525C174.502 52.3723 177.571 53.4955 177.815 53.4371C177.815 53.4338 176.355 57.2158 182.808 58.1669Z" fill="#FFAD9C"/>
<path opacity="0.2" d="M163.279 42.0135C162.59 41.9973 162.177 42.0005 162.177 42.0005C151.062 42.0427 148.376 44.4839 146.835 45.1429C145.294 45.8019 146.27 46.4317 146.27 46.4317C146.27 46.4317 148.536 47.7497 148.126 49.5417C147.716 51.3336 145.545 51.5219 144.413 51.5836C143.282 51.6453 143.5 52.0218 143.5 52.0218C143.5 52.0218 143.971 53.843 143.467 54.6286C142.963 55.4142 141.517 55.7291 140.037 55.6966C138.558 55.6642 138.747 55.8849 138.747 55.8849C138.747 55.8849 138.012 62.0431 143.467 75.1127C148.922 88.1856 162.378 91.5617 162.378 91.5617C162.378 91.5617 163.006 91.4611 164.079 91.0812C155.2 64.7473 161.179 46.9576 163.279 42.0135Z" fill="black"/>
<path d="M162.233 60.2189C163.786 60.2189 165.045 58.9617 165.045 57.4108C165.045 55.86 163.786 54.6028 162.233 54.6028C160.679 54.6028 159.42 55.86 159.42 57.4108C159.42 58.9617 160.679 60.2189 162.233 60.2189Z" fill="black"/>
<path d="M161.208 59.8518L160.516 70.6912L162.248 72.4182L163.929 70.675L163.302 59.7415L161.208 59.8518Z" fill="black"/>
<path d="M114.41 64.2507C118.193 64.2507 121.26 61.1883 121.26 57.4107C121.26 53.6331 118.193 50.5708 114.41 50.5708C110.627 50.5708 107.56 53.6331 107.56 57.4107C107.56 61.1883 110.627 64.2507 114.41 64.2507Z" fill="#FDBD00"/>
<path d="M151.479 54.9824H119.446V58.3748H151.479V54.9824Z" fill="#FDBD00"/>
<path d="M151.479 56.875H140.946V61.8938H151.479V56.875Z" fill="#FDBD00"/>
<path d="M151.479 61.105H148.47V65.1119H151.479V61.105Z" fill="#FDBD00"/>
<path d="M147.467 61.105H144.457V63.1084H145.962H147.467V61.105Z" fill="#FDBD00"/>
<path d="M143.454 61.105H140.946V64.1101H143.454V61.105Z" fill="#FDBD00"/>
<path d="M7.11024 210.539C7.11024 210.539 10.5075 210.776 9.94187 215.204C9.2429 218.457 9.51599 220.09 10.2735 224.345C10.6831 226.89 9.58101 229.624 9.20389 230H4.10631C4.10631 230 2.27599 228.273 2.83192 224.378C3.38784 220.482 3.20578 219.525 2.98471 217.811C2.76364 216.1 2.11019 210.38 7.11024 210.539Z" fill="#FFC65B"/>
<path d="M24.8706 169.797C24.8706 169.797 24.2822 174.907 18.2418 188.73C12.2014 202.553 9.30803 208.5 9.43157 211.097C9.55836 213.694 9.71766 214.742 9.42832 216.207C9.13898 217.674 9.18124 220.271 9.60062 223.16C10.02 226.049 9.01219 226.176 8.55055 226.468C8.0889 226.76 5.73842 228.017 3.85284 226.218C3.85284 226.218 3.18313 225.695 3.41395 223.936C3.64477 222.176 3.94712 221.297 3.36519 217.486C2.78326 213.674 5.09147 209.925 5.09147 209.925C5.09147 209.925 6.93805 203.517 8.00763 194.093C9.07721 184.669 11.6585 175.433 15.4329 167.954C19.2073 160.477 25.4363 164.1 24.8706 169.797Z" fill="#B9645C"/>
<path d="M30.2416 167.116C30.2416 167.116 28.395 175.241 29.1525 184.708C29.9067 194.174 30.6902 194.485 28.9704 207.286C28.4795 210.931 27.7675 211.934 27.6408 212.437C27.514 212.941 25.3325 216.417 29.4873 219.141C33.6389 221.865 42.8262 226.89 42.8262 226.89L45.5961 225.634C45.5961 225.634 43.665 224.546 42.9107 223.498C42.1565 222.449 37.5401 215.414 36.8281 213.528C36.1161 211.642 35.0238 207.831 36.7436 199.16C38.4634 190.489 42.8685 169.963 42.8685 169.963C42.8685 169.963 39.702 158.737 30.2416 167.116Z" fill="#B9645C"/>
<path d="M21.4118 177.754C21.4118 177.754 22.8585 172.287 19.0223 172.226C15.1861 172.164 13.9247 172.979 12.7934 177.001C11.662 181.023 8.38824 194.404 8.0729 197.232C7.75755 200.06 5.55662 210.302 4.89666 211.996C4.23671 213.694 3.98313 215.168 4.26597 216.395C4.5488 217.619 5.33555 219.946 4.61057 222.271C3.8856 224.595 4.23345 224.689 4.76662 225.254C5.30304 225.819 7.2829 226.699 8.7296 225.254C10.1763 223.809 9.20099 223.15 9.10672 222.459C9.01244 221.768 7.91034 217.745 8.88565 212.941C9.86095 208.136 11.2134 203.579 13.3525 198.897C15.4949 194.216 20.3097 183.189 21.4118 177.754Z" fill="#B6716A"/>
<path d="M42.9106 223.497C42.1564 222.449 37.54 215.414 36.828 213.528C36.116 211.642 35.0237 207.831 36.7435 199.16C38.1089 192.271 41.1681 177.906 42.371 172.287C40.3781 172.524 34.9554 173.602 32.9788 178.384C30.5373 184.289 31.1647 190.259 31.4801 192.583C31.7954 194.907 32.0458 202.134 30.5373 206.909C29.0256 211.684 29.8448 212.626 30.2219 213.882C30.5991 215.138 33.0536 220.228 38.4015 222.614C40.3781 223.497 42.1792 224.001 43.6681 224.286C43.3723 224.033 43.1024 223.764 42.9106 223.497Z" fill="#B6716A"/>
<path d="M28.271 210.714C28.271 210.714 26.0506 212.899 26.0864 216.502C26.1904 218.297 26.5383 218.661 27.3868 220.943C27.8484 222.03 29.1065 224.692 28.9375 229.906H30.5305C30.5305 229.906 29.7763 224.293 31.7041 223.329C33.632 222.365 35.4168 224.355 35.7321 224.647C36.0475 224.939 40.5566 230.01 41.9838 229.997C43.411 229.987 49.7439 229.997 49.7439 229.997C49.7439 229.997 54.4417 227.513 51.4442 226.887C49.1263 226.403 46.2849 225.218 45.1113 224.702C44.7667 224.553 44.3993 224.481 44.0254 224.485C42.5462 224.504 38.2354 224.16 33.723 220.057C28.1443 214.992 28.271 210.714 28.271 210.714Z" fill="#FFC65B"/>
<path d="M48.0274 92.4716C48.0274 92.4716 50.2934 92.0528 50.7973 100.178C51.3012 108.304 52.0554 122.964 49.4124 138.127C46.7693 153.291 45.0918 156.391 44.9227 160.748C44.7537 165.104 44.5033 168.896 44.5359 169.399C44.5684 169.902 45.4169 170.688 41.3889 170.938C37.3609 171.188 26.7919 172.603 15.3386 169.24C14.9127 169.009 14.4055 169.094 14.8021 168.12C15.1988 167.146 18.453 159.91 19.2073 155.92C19.9615 151.931 21.0311 145.743 20.4654 139.238C19.8997 132.732 17.8548 113.381 18.9537 105.905C20.0558 98.4285 22.0161 93.6013 28.3068 92.1339C34.604 90.6699 48.0274 92.4716 48.0274 92.4716Z" fill="#02192B"/>
<path d="M46.8737 84.8069C46.8737 84.8069 48.9706 83.0896 48.886 85.6444C48.8015 88.1993 48.6129 88.4525 48.6129 88.4525C48.6129 88.4525 48.2131 89.29 48.4016 89.8127C48.5902 90.3353 49.0778 92.4519 48.886 92.9129C48.6942 93.3739 46.8704 93.4161 40.9958 93.4583C35.1213 93.5005 28.0341 92.8707 27.8878 92.559C27.7415 92.2474 27.657 91.7215 27.7415 90.1308C27.826 88.5401 27.6147 87.2611 27.6147 87.2611C27.6147 87.2611 27.3091 85.2322 27.5562 85.0114C27.8032 84.7907 28.8956 84.9984 28.8956 84.9984L46.8737 84.8069Z" fill="#1A1A1A"/>
<path d="M47.5236 93.8121C47.5236 93.8121 43.2778 94.0945 41.4832 94.127C39.6886 94.1594 38.9409 94.3152 38.1997 94.7567C37.4585 95.195 36.5774 95.6365 34.7504 95.9189C32.9266 96.2013 30.7549 96.3279 29.5292 99.0289C28.3036 101.73 26.4701 107.826 27.4649 122.464C28.4597 137.105 30.0332 153.44 26.6976 163.052C24.9096 168.552 25.0624 169.775 25.0624 169.775C25.0624 169.775 24.9681 170.025 25.7223 170.152C26.4766 170.279 35.3486 171.282 42.8681 169.964C43.4338 169.837 43.6224 169.649 43.6224 168.707C43.6224 167.766 43.1185 157.712 46.454 141.25C49.7895 124.788 51.363 115.111 50.482 105.249C49.601 95.3833 48.8435 93.7277 47.5236 93.8121Z" fill="#032641"/>
<path d="M41.002 93.4584C46.8733 93.4162 48.7004 93.374 48.8922 92.9131C49.032 92.5754 48.8077 91.3483 48.6029 90.5108C48.7134 93.7409 42.452 93.0202 41.61 93.0462C40.7712 93.0721 40.6867 92.6858 41.1061 92.2638C41.5254 91.845 43.3297 90.7543 42.5755 90.7153C41.8213 90.6764 38.5052 90.0044 38.5052 90.0044C38.5052 90.0044 39.8902 89.0824 40.5859 88.2871C41.2816 87.4917 40.3941 87.1996 40.3941 87.1996C40.3941 87.1996 39.0547 87.4268 38.1996 87.0308C37.3446 86.6347 38.6743 85.9855 39.4285 85.7355C40.1828 85.4855 44.965 86.0277 46.7693 85.7355C47.6926 85.5862 48.3948 85.3135 48.863 85.0862C48.6256 83.3819 46.8733 84.8135 46.8733 84.8135L28.8985 85.0018C28.8985 85.0018 27.8094 84.7908 27.5591 85.0148C27.312 85.2356 27.6176 87.2645 27.6176 87.2645C27.6176 87.2645 27.8289 88.5435 27.7444 90.1342C27.6599 91.7249 27.7444 92.2508 27.8907 92.5625C28.037 92.8708 35.1274 93.4974 41.002 93.4584Z" fill="#262626"/>
<path d="M32.1691 12.823C32.1691 12.823 36.5742 9.24235 42.1106 12.2582C47.6471 15.274 47.0814 22.3119 47.0814 22.3119C47.0814 22.3119 46.2622 30.2296 45.3194 35.8847C44.3766 41.5397 46.8311 46.9416 46.8311 46.9416C46.8311 46.9416 47.4618 47.5389 46.8311 47.7889C46.2004 48.0388 39.9097 49.3601 32.8615 49.201C25.8133 49.0419 32.1691 12.823 32.1691 12.823Z" fill="black"/>
<path d="M29.5487 47.8832C29.5487 47.8832 32.9688 47.7371 33.7653 47.5066C34.2692 47.6949 34.0384 47.987 34.2042 48.3019C34.3732 48.6168 34.8739 48.7824 34.8121 49.2434C34.7504 49.7043 34.7178 50.2692 34.8186 50.438C34.9194 50.6068 35.3388 53.9148 38.567 53.7265C41.7953 53.5382 43.9149 53.8953 48.2778 55.736C52.6407 57.5798 57.6309 59.3393 62.6668 59.6737C67.7026 60.0081 71.0153 59.9237 73.8242 60.1347C76.6363 60.3457 79.8646 60.7223 80.3262 60.7223C80.7879 60.7223 80.8074 60.9982 80.8074 60.9982C80.8074 60.9982 81.877 68.0849 80.336 67.8316C78.795 67.5817 74.6727 67.6109 74.6727 67.6109C74.6727 67.6109 66.6818 66.6045 59.3832 65.7897C52.0847 64.9717 50.5112 66.1988 50.2902 66.9844C50.0691 67.77 50.6998 70.4092 51.7369 72.1038C52.7739 73.8016 51.9872 75.5611 51.3598 76.5642C50.7323 77.5673 49.8805 79.6741 49.8188 81.6544C49.757 83.6346 49.7863 84.2611 48.6549 84.7968C47.5236 85.3324 46.8506 85.4785 41.2296 85.2058C39.1327 85.0175 37.8746 85.1604 36.2783 85.3389C34.6821 85.5175 29.0643 86.4394 27.4681 84.9331C25.8751 83.4236 26.9219 82.4627 25.498 80.3688C24.0708 78.275 19.9615 72.9543 19.2886 69.4775C17.9882 71.026 15.2606 74.4606 9.63957 79.2781C9.63957 79.2781 8.61225 80.3656 9.80863 81.4563C11.005 82.5471 12.7443 84.3683 13.1019 84.641C13.4595 84.9136 13.8009 85.0695 13.5473 85.3259C13.2937 85.5824 10.4133 91.9289 9.2332 91.4257C8.04983 90.9225 1.1707 86.4621 0.835845 86.316C0.500991 86.17 -0.445051 86.1894 0.247414 84.1183C0.939878 82.0439 4.35994 75.8143 7.40938 71.4156C10.4588 67.0168 11.1871 63.9978 14.4576 58.281C16.1253 55.1386 18.2027 54.353 20.3094 54.353C22.416 54.353 24.4609 53.4733 24.4934 51.5255C24.5259 49.5777 23.8952 48.3214 24.4317 47.9448C24.9648 47.5683 26.3595 48.2922 29.5487 47.8832Z" fill="#FFC65B"/>
<path d="M76.7631 65.9161C78.3138 65.5817 79.1526 64.7863 79.4484 63.3612C79.741 61.9361 80.0368 61.0564 80.0368 61.0564L80.1084 60.709C79.2273 60.6473 76.36 60.3227 73.8274 60.1344C71.0153 59.9234 67.7025 60.0078 62.67 59.6734C57.6374 59.3391 52.6439 57.5796 48.281 55.7357C43.9182 53.8918 41.7985 53.5379 38.5702 53.7262C35.3387 53.9145 34.9194 50.6065 34.8218 50.4377C34.7828 50.3728 34.7633 50.2429 34.7601 50.0806C29.8803 46.7727 27.351 51.3369 26.1351 53.0542C24.9193 54.7715 22.5688 54.8137 19.4641 55.2325C16.3594 55.6513 14.3047 59.2969 13.5928 60.511C12.8808 61.7251 11.0342 66.0816 10.3255 67.3801C9.61677 68.6786 6.54782 73.7039 4.99384 75.84C3.43985 77.976 2.39303 80.7419 1.88912 83.5045C1.38522 86.2703 4.86705 88.2798 6.79815 88.8479C8.72924 89.416 9.98738 87.9454 9.98738 87.9454C9.98738 87.9454 10.7416 86.6469 12.2111 85.5172C12.7442 85.1049 13.0011 84.8257 13.1116 84.6342C12.7507 84.355 11.0147 82.5403 9.82158 81.4528C8.62521 80.3653 9.65253 79.2746 9.65253 79.2746C12.9978 76.4081 15.3125 74.035 16.9185 72.2528C17.3282 71.5094 17.7703 70.7952 18.2514 70.1427C21.9023 65.1986 22.403 61.5141 22.403 61.5141C22.403 61.5141 22.8646 61.9329 23.284 63.6501C23.7034 65.3674 23.284 67.6301 24.5421 71.7756C25.8003 75.9211 26.8926 77.5151 30.7938 81.495C34.695 85.475 40.2315 84.4686 41.5742 84.4686C42.9168 84.4686 44.3018 84.803 47.2797 84.6796C49.032 84.605 49.6009 83.6895 49.7895 82.6929C49.8057 82.3942 49.8155 82.0534 49.8252 81.6541C49.835 81.3554 49.8642 81.0535 49.9065 80.7516V80.7484C49.9975 79.4986 50.0886 78.859 51.1386 76.9599C52.166 75.1063 52.0847 72.9443 51.9807 72.5775C51.9676 72.545 51.9546 72.5158 51.9416 72.4833C51.7401 72.1295 50.8363 71.1458 50.1698 69.224C49.4579 67.1724 49.9195 67.2146 50.8396 65.9518C51.7628 64.6922 61.0737 64.2799 63.1316 64.2799C65.183 64.2799 75.2091 66.2504 76.7631 65.9161Z" fill="#FFDD7B"/>
<path d="M27.3054 9.408C27.3054 9.408 33.3035 8.10949 38.6319 14.6443C43.9603 21.1791 42.6176 20.4259 42.6176 20.4259C42.6176 20.4259 37.3315 19.5332 30.771 31.7945C24.2462 43.9875 27.0973 50.8372 27.0973 50.8372C27.0973 50.8372 28.5245 51.6326 12.6661 50.2074C7.04511 49.4121 5.2408 45.7665 5.32533 41.2444C5.40985 36.7223 5.78697 28.5936 10.5269 21.8933C15.2669 15.1929 18.2026 12.5926 21.2228 10.8753C24.2429 9.15804 27.3054 9.408 27.3054 9.408Z" fill="black"/>
<path d="M13.3556 85.2056C13.3556 85.2056 10.0851 87.2475 9.36011 91.1106C9.54867 91.2664 15.0851 94.0647 21.0637 98.6809C21.0637 98.6809 23.8336 101.194 25.186 100.849C26.5384 100.505 27.7673 100.126 29.149 98.0836C30.1243 97.1422 30.5957 96.5449 30.9435 96.1358C31.2882 95.7268 32.0131 94.8795 33.0502 94.9412C34.0873 95.0029 36.6361 95.5061 37.5398 94.649C38.4404 93.7888 37.917 93.831 37.8747 93.8115C37.8324 93.792 39.9293 93.8018 40.2447 93.0421C40.56 92.2825 40.0334 92.3669 39.5522 92.2598C40.6413 92.1137 42.0913 91.4222 42.1953 90.7924C42.2993 90.1627 41.6719 90.3315 41.2297 90.312C40.7908 90.2925 38.3981 89.8088 37.6861 89.4939C38.2323 89.2212 41.337 88.111 40.5178 87.4617C39.3637 87.2735 37.8552 87.6078 36.5743 87.4195C35.2934 87.2313 34.6855 87.2507 34.162 87.2929C33.6386 87.3351 31.3109 87.0203 31.0801 86.9781C30.8493 86.9358 29.9682 86.6632 29.4026 87.2507C28.8369 87.8383 26.9903 90.0977 26.675 90.4354C26.3596 90.773 24.6203 92.1948 24.3668 92.5097C24.1132 92.8246 23.9279 93.0389 23.9279 93.0389C23.9279 93.0389 23.7393 93.4934 22.6697 92.5714C21.6002 91.6495 14.0903 85.5821 13.3556 85.2056Z" fill="#B9645C"/>
<path d="M80.4174 61.2188C80.4174 61.2188 78.987 63.8418 80.5605 67.377C80.827 67.5328 81.2692 67.3608 82.0559 67.377C82.8427 67.3932 87.2738 66.6693 96.2498 67.9484C105.226 69.2274 104.641 69.143 106.738 68.7437C108.834 68.3444 110.47 67.2991 110.808 67.0459C111.143 66.7959 111.562 66.2083 113.282 65.874C115.002 65.5396 115.002 65.0981 115.444 64.952C115.883 64.806 116.786 63.9457 118.841 64.134C120.896 64.3222 118.737 62.8549 118.737 62.8549C118.737 62.8549 117.144 61.6181 114.963 61.8713C114.143 61.9752 114.143 62.1018 113.955 62.1635C113.766 62.2251 111.773 63.673 110.935 63.3776C110.096 63.0854 108.314 62.329 108.249 60.1313C108.188 57.9335 109.036 54.7911 111.143 53.6906C113.249 52.5901 115.944 51.8565 116.387 51.6292C116.825 51.3987 118.483 50.3729 119.176 50.2268C119.868 50.0808 122.658 49.5159 123.516 47.5259C123.766 46.9189 122.131 47.4837 121.923 47.5259C121.712 47.5681 119.007 48.1947 118.818 48.1752C119.153 47.9869 122.32 45.8281 121.461 44.8023C121.292 44.6335 120.769 44.864 120.161 45.2211C119.553 45.5781 117.287 46.6656 116.406 46.8961C115.525 47.1266 114.706 47.4415 114.602 47.5649C114.498 47.6882 111.981 48.8634 111.139 48.8634C110.301 48.8634 109.566 49.386 109.273 49.5549C108.981 49.7237 107.992 50.2463 107.111 50.4768C106.23 50.7073 105.749 51.2299 105.33 51.5254C104.911 51.8175 103.483 52.5512 103.044 53.0544C102.606 53.5575 102.206 54.0185 102.225 54.5834C102.245 55.1482 102.173 60.2904 97.2967 61.3584C92.4201 62.4264 80.9051 61.0143 80.9051 61.0143C80.9051 61.0143 80.5572 60.9039 80.4174 61.2188Z" fill="#B6716A"/>
<path d="M42.3221 20.4258C42.3221 20.4258 44.211 22.3119 42.6147 27.6715C41.8605 29.9342 41.6914 31.0639 42.1108 32.6546C42.5302 34.2453 43.9184 36.8228 43.9184 36.8228C43.9184 36.8228 44.2012 37.1994 43.668 37.5922C43.1316 37.985 41.7662 38.6927 41.5614 38.816C41.3566 38.9426 41.1843 39.1147 41.2168 39.2868C41.2493 39.4588 41.233 40.2931 41.3891 40.4814C41.5451 40.6697 41.5061 41.2053 41.2135 41.4066C40.9209 41.6079 40.4463 41.8319 40.4463 41.8319C40.4463 41.8319 40.9827 42.5395 40.7909 43.0103C40.5991 43.481 40.3975 43.653 40.1472 43.8738C39.8969 44.0945 39.627 44.1724 39.4872 44.9418C39.3475 45.7112 38.9053 47.0941 37.2538 46.6851C35.6023 46.276 33.5412 45.1918 33.5412 45.1918C33.5412 45.1918 33.3526 46.6526 33.6517 47.6103C33.6517 47.6103 33.2128 48.4543 26.5092 48.0777C25.1243 39.2738 34.77 21.2211 42.3221 20.4258Z" fill="#B9645C"/>
<path d="M15.8427 88.3156C15.8427 88.3156 13.7978 86.1795 12.3804 87.4034C10.9662 88.6272 9.54225 90.2568 10.8069 91.4515C12.0715 92.6461 15.6216 94.6134 15.6216 94.6134C15.6216 94.6134 20.5762 98.022 20.6705 98.0999C20.7647 98.1778 23.0599 100.502 24.887 100.015C26.7108 99.5283 27.6081 98.7914 29.2759 96.9669C30.9436 95.1458 32.2018 94.0615 33.2551 94.3439C34.3084 94.6264 37.0458 94.7984 37.5659 93.9674C37.1563 93.8083 32.3741 92.9318 32.3448 92.6948C32.6602 92.6007 33.4762 92.711 33.4762 92.711C33.4762 92.711 35.0822 93.1201 36.1973 93.1201C36.6687 93.198 36.841 93.37 37.4229 93.4577C38.0048 93.5453 39.3247 93.4804 39.6238 93.3408C39.9229 93.2012 40.5374 92.7273 40.0009 92.5714C39.4645 92.4156 36.3988 91.8638 36.2428 91.6592C36.0867 91.4547 32.7187 91.1398 32.3578 90.9353C32.2635 90.7795 34.3702 91.0295 34.4515 91.0295C34.5328 91.0295 35.7876 91.0782 35.9762 91.1236C36.1648 91.1723 37.2181 91.9417 38.681 91.8605C40.144 91.7794 41.1518 91.6398 42.0166 90.7438C42.0166 90.6172 42.1271 90.4938 41.2786 90.4289C40.4301 90.364 37.7382 89.8933 37.4261 89.7212C37.1141 89.5491 36.6069 89.3771 36.2005 89.3284C35.7909 89.2797 33.9833 89.1563 33.2746 89.0297C32.5659 88.9031 31.2622 88.8415 31.2622 88.8415C31.2622 88.8415 32.0002 88.7311 32.7252 88.7473C33.4502 88.7635 35.7129 89.046 36.1062 88.9681C36.4996 88.8901 38.3397 89.2992 39.2987 88.6369C40.2578 87.9747 40.3846 87.7897 40.1017 87.6631C39.8189 87.5364 39.6628 87.5527 38.8436 87.5527C38.0243 87.5527 35.8397 87.4261 35.7454 87.4261C35.6511 87.4261 32.7089 87.4261 32.0815 87.3482C31.4508 87.2703 30.2252 87.0495 30.0366 87.2378C29.848 87.4261 29.5164 88.1792 29.705 88.5266C29.8936 88.8739 29.8155 89.0135 29.7375 89.2505C29.6595 89.4875 29.5002 89.8803 29.549 90.1757C29.5977 90.4743 29.9586 90.773 29.9423 90.9126C29.9261 91.0522 29.7213 91.4775 29.7993 91.854C29.8773 92.2306 30.0496 92.4189 30.0041 92.5909C29.9553 92.763 30.1764 93.2207 30.1927 93.6427C30.2089 94.068 29.9261 94.5225 29.9261 94.5225C29.9261 94.5225 30.0041 93.7206 29.705 93.2662C29.4059 92.8117 29.3734 92.1657 29.4059 91.8832C29.4384 91.6008 29.2011 91.0814 29.1393 90.8152C29.0776 90.549 29.1231 90.0296 29.1718 89.6206C29.2206 89.2115 29.4709 88.6467 28.9508 88.7246C28.4306 88.8025 25.9143 91.8832 25.4592 92.1332C25.004 92.3832 23.98 92.776 23.7297 94.1914C23.4793 95.6035 23.4306 96.7981 23.1802 97.0806C22.9299 97.363 22.8974 96.704 22.8974 96.704C22.8974 96.704 23.5118 94.1784 22.7869 93.5388C22.0554 92.9156 15.8427 88.3156 15.8427 88.3156Z" fill="#B6716A"/>
<path d="M111.861 65.822C111.042 65.9486 109.689 67.14 107.927 68.1463C106.165 69.1527 101.445 68.4612 101.351 68.4612C101.256 68.4612 95.3005 67.549 91.188 67.1724C86.7211 66.7634 82.2835 67.1724 80.8986 67.1724C80.1736 65.3188 81.7178 62.6179 81.7178 62.6179C81.7178 62.6179 88.5449 63.5301 93.0118 63.8417C97.4787 64.1566 100.72 60.8876 101.676 59.6962C102.632 58.5016 103.646 53.4763 104.277 52.8465C104.907 52.2167 106.764 51.4019 106.764 51.4019L108.841 50.2073C108.841 50.2073 109.849 49.36 110.697 49.1717C112.615 48.8276 113.968 48.3536 113.968 48.3536C113.968 48.3536 115.07 47.7563 115.857 47.5064C118.058 47.0032 119.885 45.8735 120.545 45.4644C121.205 45.0554 121.11 45.3703 121.11 45.3703C120.135 47.5388 116.988 48.3244 116.988 48.3244L118.812 48.1784L119.039 48.0323C119.842 47.4934 122.212 45.7112 121.455 44.8055C121.286 44.6366 120.762 44.8671 120.154 45.2242C119.547 45.5813 117.281 46.6688 116.4 46.8993C115.519 47.1298 114.699 47.4447 114.595 47.568C114.491 47.6947 111.975 48.8666 111.133 48.8666C110.291 48.8666 109.559 49.3892 109.267 49.558C108.974 49.7268 107.986 50.2495 107.105 50.48C106.224 50.7105 105.743 51.2331 105.323 51.5285C104.904 51.8207 103.477 52.5544 103.038 53.0575C102.599 53.5607 102.199 54.0217 102.219 54.5865C102.238 55.1514 102.167 60.2935 97.2902 61.3616C92.4136 62.4296 80.9051 61.0142 80.9051 61.0142C80.9051 61.0142 80.5605 60.9038 80.4174 61.2187C80.4174 61.2187 78.987 63.8417 80.5605 67.3769C80.827 67.5328 81.2692 67.3607 82.0559 67.3769C82.8427 67.3932 87.2738 66.6692 96.2498 67.9483C105.226 69.2273 104.641 69.1429 106.738 68.7436C108.834 68.3443 110.47 67.299 110.808 67.0458C111.143 66.7958 111.562 66.2083 113.282 65.8739C113.597 65.8122 113.854 65.7473 114.065 65.6824C113.301 65.7051 112.326 65.7505 111.861 65.822Z" fill="#B9645C"/>
<path d="M109.693 51.8205C110.216 51.6095 112.063 50.4181 112.482 50.2298C112.901 50.0415 113.968 49.8175 115.275 49.3923C116.581 48.967 116.529 48.7625 116.884 48.6586C117.238 48.5547 119.576 48.0451 119.576 48.0451C119.179 48.1262 118.873 48.1846 118.815 48.1782C118.981 48.0873 119.826 47.5192 120.541 46.8472C119.719 47.3861 118.464 47.9996 116.738 48.3048C116.276 48.493 115.941 48.743 115.122 49.0579C114.303 49.3728 112.436 49.7494 112.436 49.7494C112.436 49.7494 111.64 50.1876 111.263 50.4408C110.886 50.6908 109.228 51.6355 108.893 51.8237C108.558 52.0088 109.166 52.0283 109.693 51.8205Z" fill="#B9645C"/>
<path d="M41.5616 38.8191C41.7664 38.6925 43.1351 37.988 43.6683 37.5952C44.2047 37.2024 43.9186 36.8258 43.9186 36.8258C43.9186 36.8258 42.5304 34.2483 42.111 32.6576C41.6916 31.0669 41.8607 29.934 42.6149 27.6745C43.2326 25.5904 43.3269 24.0354 43.2099 22.909C42.6182 22.1234 41.5876 21.6559 39.7833 22.5649C35.7618 24.5873 33.0505 28.8464 31.2266 32.492C29.4028 36.1376 27.514 38.9002 27.3872 47.5094C29.7279 47.5094 32.1142 47.5094 33.6194 47.5094C33.3658 46.555 33.5381 45.2013 33.5381 45.2013C33.5381 45.2013 35.5993 46.2855 37.2508 46.6946C38.9023 47.1036 39.3444 45.7207 39.4842 44.9513C39.624 44.1819 39.8938 44.104 40.1442 43.8833C40.3945 43.6625 40.5993 43.4905 40.7879 43.0198C40.9764 42.5491 40.4433 41.8414 40.4433 41.8414C40.4433 41.8414 40.9146 41.6206 41.2105 41.4161C41.5063 41.2116 41.5453 40.6792 41.386 40.4909C41.23 40.3026 41.243 39.4683 41.2137 39.2963C41.1845 39.1177 41.3568 38.9457 41.5616 38.8191Z" fill="#B6716A"/>
<path d="M36.9772 46.6169C35.1079 45.9677 31.8991 44.601 29.1813 42.1987C31.2034 44.549 31.4797 45.4158 33.4889 46.578C33.4531 45.8573 33.5376 45.1983 33.5376 45.1983C33.5376 45.1983 35.3809 46.1657 36.9772 46.6169Z" fill="#B9645C"/>
<path d="M38.6938 27.7755C39.2855 27.7495 39.6594 27.8599 40.2251 28.0255C40.7907 28.1943 41.0866 28.0255 41.0866 28.0255C41.0866 28.0255 41.4442 28.0677 41.0866 28.4865C40.729 28.9052 39.3245 28.6325 39.3245 28.6325C39.3245 28.6325 37.9396 28.4215 36.5352 29.4928C36.5352 29.4928 36.0963 29.8077 35.9045 29.6389C35.7127 29.4701 36.1613 29.0286 36.649 28.6293C37.1366 28.23 37.6568 27.821 38.6938 27.7755Z" fill="#17161E"/>
<path d="M39.0539 31.3427C39.456 31.3427 39.782 30.6248 39.782 29.7393C39.782 28.8538 39.456 28.136 39.0539 28.136C38.6518 28.136 38.3258 28.8538 38.3258 29.7393C38.3258 30.6248 38.6518 31.3427 39.0539 31.3427Z" fill="#17161E"/>
<path d="M272.282 104.872C272.282 104.872 263.788 107.887 259.321 108.641C254.854 109.394 254.538 110.212 237.549 110.65C237.25 110.65 237.393 110.601 237.376 110.257C237.36 109.913 237.266 107.634 237.233 107.462C237.201 107.29 237.266 107.18 237.578 107.164C237.893 107.147 248.794 106.066 251.72 105.657C254.646 105.248 267.308 102.073 267.595 101.885C267.877 101.697 271.496 100.69 271.496 100.69C271.496 100.69 271.905 100.492 271.99 101.203C272.074 101.914 272.24 103.696 272.39 104.135C272.536 104.576 272.663 104.891 272.282 104.872Z" fill="#714F36"/>
<path d="M271.989 101.207C271.905 100.496 271.495 100.694 271.495 100.694C271.495 100.694 267.877 101.7 267.594 101.888C267.311 102.077 254.645 105.252 251.719 105.661C248.794 106.07 237.893 107.151 237.578 107.167C237.262 107.183 237.2 107.294 237.233 107.466C237.246 107.53 237.265 107.894 237.288 108.342C238.689 108.693 241.823 108.706 243.377 108.475C245.347 108.183 247.194 107.303 248.368 107.845C249.541 108.388 258.371 107.845 258.371 107.845C258.371 107.845 265.396 106.17 266.404 104.284C267.032 103.109 269.961 102.405 272.077 102.041C272.045 101.713 272.015 101.414 271.989 101.207Z" fill="#3F3026"/>
<path d="M299.717 190.236C299.717 190.236 303.492 194.424 305.927 195.68C308.362 196.936 307.604 199.787 307.354 200.54C307.104 201.293 306.265 203.64 305.257 203.64C304.249 203.64 304.334 204.728 302.487 202.887C300.641 201.043 295.943 197.099 295.943 197.099C295.943 197.099 288.81 185.295 299.717 190.236Z" fill="#FE9951"/>
<path d="M268.131 215.914C268.131 215.914 267.881 220.897 268.131 222.365C268.381 223.832 265.446 223.874 265.446 223.874C265.446 223.874 262.468 224.462 262.594 222.072C262.721 219.683 262.344 216.21 262.344 216.21C262.344 216.21 262.26 214.492 264.818 214.661C267.377 214.827 268.189 214.505 268.131 215.914Z" fill="#FE9951"/>
<path d="M305.066 195.161C305.066 195.161 307.803 196.732 306.418 199.874C305.033 203.017 303.502 203.575 302.774 203.169C302.045 202.763 300 204.523 300 204.523C300 204.523 302.8 208.042 303.746 208.042C304.688 208.042 308.716 208.042 309.094 207.477C309.471 206.912 310.29 200.095 310.29 200.095L307.426 195.164H305.066V195.161Z" fill="#3F3026"/>
<path d="M262.341 223.024C262.341 223.024 261.723 220.615 262.981 220.501C264.239 220.388 267.26 220.365 267.689 220.501C268.118 220.638 268.654 220.449 268.58 221.55C268.505 222.65 268.466 224.585 268.466 224.585L262.341 223.024Z" fill="#3F3026"/>
<path d="M305.862 195.161C305.862 195.161 306.427 194.112 308.882 195.349C311.336 196.586 312.867 196.333 313.16 196.398C313.453 196.459 314.942 196.21 315.572 200.336C316.203 204.462 316.161 205.237 315.28 209.51C314.399 213.782 313.644 218.976 313.81 221.196C313.979 223.417 314.86 229.575 311.336 229.909C308.358 229.909 302.402 229.909 302.402 229.909C302.402 229.909 301.814 227.354 302.402 224.589C302.991 221.823 302.259 219.94 302.142 219.06C302.025 218.18 301.983 215.415 301.775 213.824C301.564 212.233 301.105 211.1 300.306 209.006C299.506 206.913 298.114 203.225 302.064 202.933C306.011 202.64 305.884 202.598 306.222 203.225C306.557 203.855 306.964 204.65 307.705 203.267C308.446 201.884 310.836 197.946 305.862 195.161Z" fill="#04709E"/>
<path d="M271.01 229.952H260.077V229.497C260.077 229.497 260.188 229.276 260.204 229.104C260.22 228.932 260.298 226.403 260.441 226.121C260.584 225.838 260.568 225.196 260.474 224.926C260.38 224.66 260.669 223.258 261.449 222.303C262.229 221.346 262.785 220.716 265.776 220.716C268.764 220.716 269.993 222.758 270.038 223.748C270.087 224.738 270.415 225.491 270.415 225.54C270.415 225.589 270.731 226.497 270.731 227.488C270.731 228.478 270.919 228.51 271.014 228.604C271.105 228.695 271.01 229.952 271.01 229.952Z" fill="#04709E"/>
<path d="M306.225 194.869C305.959 194.992 305.865 195.158 305.865 195.158C310.835 197.943 308.446 201.881 307.701 203.264C306.957 204.646 306.554 203.851 306.219 203.221C306.398 204.374 307.035 204.487 307.035 204.487C307.035 204.487 308.462 205.179 309.405 200.183C310.013 196.985 307.854 195.515 306.225 194.869Z" fill="#026084"/>
<path d="M304.466 224.189C304.811 222.053 304.938 221.329 304.844 220.719C304.749 220.105 304.024 218.128 304.119 214.892C304.213 211.655 304.369 212.003 303.017 208.042C301.664 204.085 303.676 203.205 303.93 202.796L303.933 202.793C303.439 202.829 302.828 202.874 302.061 202.933C298.114 203.225 299.505 206.913 300.302 209.006C301.098 211.1 301.56 212.233 301.771 213.824C301.983 215.415 302.022 218.18 302.139 219.06C302.256 219.94 302.987 221.826 302.399 224.589C301.81 227.351 302.399 229.909 302.399 229.909C302.399 229.909 304.229 229.909 306.372 229.909C304.369 229.104 304.128 226.286 304.466 224.189Z" fill="#026084"/>
<path d="M262.425 228.9C262.864 228.565 262.802 227.685 262.802 227.497C262.802 227.309 262.321 227.078 262.425 226.199C262.529 225.319 262.109 225.173 261.878 224.689C261.648 224.205 261.248 223.829 262.34 221.923C262.922 220.904 265.019 220.742 266.843 220.81C266.514 220.748 266.157 220.712 265.77 220.712C262.782 220.712 262.226 221.342 261.443 222.3C260.663 223.258 260.373 224.657 260.468 224.923C260.562 225.189 260.578 225.835 260.435 226.117C260.292 226.4 260.214 228.929 260.198 229.101C260.181 229.273 260.071 229.494 260.071 229.494V229.948H261.586C261.638 229.601 262.067 229.172 262.425 228.9Z" fill="#026084"/>
<path d="M268.823 101.311C268.823 101.311 269.209 105.722 269.44 105.661C269.671 105.599 272.285 104.872 272.285 104.872C272.285 104.872 272.412 105.29 272.747 105.982C273.081 106.673 273.377 108.245 273.416 109.92C273.459 111.595 273.836 115.052 274.801 117.941C275.178 119.155 275.39 120.538 275.221 122.59C275.052 124.642 273.543 153.628 273.039 158.403C272.961 159.267 272.773 159.659 273.101 159.802C273.433 159.945 274.421 159.945 282.539 168.33C290.656 176.719 296.32 184.623 297.158 185.461C297.997 186.299 301.941 189.775 301.983 190.194C302.025 190.613 302.653 192.833 299.551 196.352C296.446 199.871 295.65 199.453 295.357 199.326C295.065 199.199 284.2 189.818 282.899 188.769C281.599 187.72 272.873 180.767 272.454 180.728C272.285 181.65 270.022 208.166 270.104 213.275C270.104 216.291 270.188 217.129 268.823 217.255C267.46 217.382 263.559 217.801 260.581 216.963C260.12 216.671 259.869 216.629 259.827 213.697C259.785 210.766 258.192 185.299 257.519 178.345C256.849 171.392 256.93 170.973 256.93 170.973L255.211 169.843C255.211 169.843 254.226 169.025 253.156 166.577C252.086 164.126 240.006 135.663 238.244 132.147C236.482 128.628 237.174 124.544 237.174 124.544C237.174 124.544 237.567 118.733 237.041 116.156C236.514 113.578 236.231 112.04 237.551 110.657C237.896 110.436 240.76 110.595 240.948 110.501C241.137 110.407 240.76 107.485 240.76 107.485L241.924 107.453C241.924 107.453 241.924 109.527 242.018 109.839C242.112 110.153 242.554 110.309 243.055 110.309C243.559 110.309 246.137 110.153 246.485 110.153C246.833 110.153 247.083 110.027 246.989 109.556C246.895 109.085 246.358 106.385 246.358 106.258C246.358 106.131 247.584 106.164 247.584 106.164C247.584 106.164 247.711 108.426 247.899 109.053C248.088 109.679 248.244 109.933 248.559 109.933C248.874 109.933 252.116 109.556 252.116 109.556C252.116 109.556 261.836 107.764 262.152 107.641C262.467 107.514 262.688 107.391 262.59 106.982C262.496 106.573 262.213 104.719 262.213 104.719L263.033 104.531L263.254 106.794C263.254 106.794 263.348 107.108 263.598 107.138C263.849 107.17 267.815 106.102 267.971 106.07C268.127 106.037 268.254 105.787 268.254 105.411C268.254 105.034 267.688 101.609 267.688 101.609L268.823 101.311Z" fill="#B0AA9E"/>
<path d="M265.39 182.614C260.624 183.452 260.035 189.568 260.077 190.908C260.113 192.103 260.903 209.532 260.851 217.031C263.79 217.775 267.503 217.379 268.826 217.255C270.188 217.129 270.107 216.291 270.107 213.275C270.042 209.299 271.397 192.359 272.083 184.607C270.565 183.432 268.169 182.127 265.39 182.614Z" fill="#DED6BF"/>
<path d="M301.983 190.197C301.941 189.779 297.997 186.302 297.159 185.464C296.32 184.627 290.657 176.719 282.539 168.334C274.421 159.945 273.429 159.945 273.101 159.806C272.769 159.663 272.958 159.27 273.039 158.406C273.543 153.631 275.052 124.645 275.221 122.593C275.39 120.542 275.178 119.159 274.801 117.945C273.836 115.055 273.459 111.598 273.416 109.923C273.374 108.267 273.088 106.712 272.756 106.011C269.138 107.141 262.821 108.975 258.023 109.65C250.89 110.657 241.999 111.41 241.999 111.41C241.999 111.41 240.91 111.41 240.321 112.835C239.733 114.26 235.958 120.457 240.321 128.333C244.684 136.208 254.248 154.053 255.757 161.007C256.521 164.441 256.7 165.477 256.944 166.045C257.187 166.613 257.971 167.113 258.663 167.555C259.333 167.98 279.684 181.088 298.049 197.943C298.478 197.534 298.976 197.018 299.551 196.362C302.653 192.833 302.025 190.616 301.983 190.197Z" fill="#DED6BF"/>
<path d="M258.943 105.66C258.943 105.66 259.275 107.241 259.424 107.699C259.574 108.157 259.405 108.725 258.793 108.871C258.185 109.017 255.471 109.897 252.626 109.855C252.626 109.855 252.005 110.231 251.719 108.994C251.433 107.758 251.277 106.647 251.277 106.647C251.277 106.647 250.906 105.307 252.272 105.307C253.637 105.307 257.747 104.3 257.747 104.3C257.747 104.3 258.569 104.011 258.943 105.66Z" fill="#3E3C3D"/>
<path d="M255.672 38.9816C255.672 38.9816 262.343 40.1957 263.013 41.2864C263.682 42.374 266.117 44.7632 265.825 46.6071C266.748 47.5291 266.117 48.1978 270.145 48.7854C274.173 49.373 275.682 48.6588 277.444 49.8729C279.206 51.087 282.311 53.3919 281.134 60.261C279.96 67.1302 279.287 65.9161 280.253 79.6544C280.545 83.1734 279.772 83.8843 279.772 84.355C279.772 84.8258 279.804 85.7996 280.022 86.3028C280.243 86.806 279.989 87.6208 280.116 88.0299C280.243 88.4389 280.149 89.8835 279.58 90.5425C279.011 91.2015 279.076 92.2695 278.448 93.4025C277.818 94.5322 275.711 95.2236 274.863 95.4444C274.014 95.6651 274.326 96.4507 274.359 97.0481C274.391 97.6454 274.768 100.473 271.465 101.07C268.162 101.668 267.028 102.736 265.802 103.554C264.576 104.372 261.462 106.602 258.565 106.508C255.672 106.414 255.168 106.193 254.57 105.849C253.972 105.505 253.25 105.943 253.058 106.164C252.866 106.384 251.202 106.923 250.07 106.511C248.939 106.099 244.501 106.569 242.928 107.326C241.354 108.079 237.421 108.897 236.322 105.44C235.535 101.314 236.354 94.6004 236.322 93.7855C236.289 92.9675 228.656 76.8529 228.656 76.8529C228.656 76.8529 228.321 76.9795 228.237 74.9668C228.152 72.9541 228.363 67.3445 228.237 66.0459C228.11 64.7474 228.067 46.3994 228.698 44.3899C229.329 42.3805 231.845 35.6769 237.005 35.8457C239.479 35.8424 241.914 37.4785 242.668 37.9817C243.422 38.4849 246.107 40.2444 246.319 40.2444C246.53 40.2444 247.031 39.4912 247.369 39.1147C247.7 38.7284 247.492 37.0111 255.672 38.9816Z" fill="#026084"/>
<path d="M277.337 51.6096C273.793 49.3697 271.57 49.954 270.877 49.8923C270.185 49.8306 266.495 49.5157 265.045 47.2758C265.022 47.068 265.484 46.9544 265.893 46.6817C265.871 46.6558 265.848 46.633 265.822 46.6071C266.114 44.7632 263.683 42.3771 263.01 41.2864C262.915 41.1306 262.694 40.9747 262.392 40.8157C262.395 40.8352 262.74 42.4843 261.02 43.39C259.291 44.3022 256.332 46.4999 256.111 47.318C255.89 48.1361 256.3 47.5388 256.426 47.8212C256.553 48.1036 257.685 50.8045 257.434 52.564C257.434 53.0997 257.262 53.1126 257.008 52.8789C256.758 52.6419 255.263 50.7104 254.46 52.3433C253.657 53.9762 252.46 54.7715 253.071 59.7578C253.679 64.7409 253.66 64.0916 253.133 65.098C252.61 66.1043 251.163 67.7794 251.287 69.8927C251.413 72.0093 251.306 72.6359 251.456 72.9086C251.602 73.1812 252.841 74.7524 252.776 75.8205C252.714 76.8885 252.987 76.8268 253.257 76.9307C253.53 77.0346 258.52 77.8105 260.702 76.0932C262.883 74.3759 264.749 72.1359 265.295 70.3537C265.841 68.5747 266.722 65.3707 268.527 64.1533C268.758 64.1111 268.654 64.5104 268.696 64.8642C268.738 65.2213 269.031 68.8864 270.731 71.0646C272.431 73.2429 271.927 74.8985 271.57 75.2946C271.212 75.6939 268.758 78.2065 269.577 79.6511C270.396 81.0957 271.989 82.0371 273.647 82.6669C274.307 82.9169 275.097 83.3714 275.815 83.8291C274.964 83.3811 273.969 83.05 273.101 83.274C271.089 83.7966 272.662 85.4717 273.016 85.6405C273.374 85.8093 276.037 87.4195 276.287 89.3056C274.84 87.9227 273.79 86.5819 273.016 87.0234C272.243 87.4649 272.194 87.9032 272.532 88.3025C272.87 88.7018 273.793 89.4322 273.836 90.4385C273.478 89.8737 272.408 89.0783 272.408 89.0783C272.408 89.0783 274.674 92.3052 275.094 94.8373C276.436 94.5646 277.402 94.7107 278.072 93.12C278.283 92.0325 278.553 90.6495 279.079 90.1886C279.603 89.7276 279.918 89.601 279.876 88.6174C279.834 87.6337 280.315 86.1404 279.141 85.0529C277.968 83.9654 276.791 83.0889 276.791 83.0889C276.791 83.0889 277.734 83.5694 278.637 84.1148C279.538 84.6601 279.749 83.7382 279.811 83.1506C279.873 82.563 279.853 81.6833 279.496 77.0346C279.138 72.3859 279.223 65.4096 279.684 61.579C280.149 57.7483 280.884 53.8528 277.337 51.6096Z" fill="#04709E"/>
<path d="M252.441 90.3348C252.441 90.3348 251.644 90.166 251.729 91.0457C251.813 91.9254 251.68 94.4381 252.083 95.5288C252.486 96.6163 253.816 99.34 254.131 102.31C254.447 105.281 257.295 105.06 257.577 105.076C257.86 105.092 262.311 104.855 265.237 102.956C268.163 101.057 268.413 100.379 271.089 99.8626C269.076 99.1549 261.163 95.2432 259.856 94.2563C258.55 93.2629 256.527 91.5099 252.441 90.3348Z" fill="#04709E"/>
<path d="M251.394 90.1462C251.394 90.1462 250.835 92.9315 251.28 94.48C251.726 96.0285 253.576 99.6319 253.007 101.791C252.441 103.949 251.622 105.504 250.448 105.657C249.275 105.81 245.708 105.517 244.512 106.001C243.315 106.482 241.661 108.095 240.211 107.426C238.764 106.757 237.737 105.813 237.841 103.55C237.945 101.287 239.099 95.4442 242.623 93.1425C246.15 90.8377 248.634 89.3931 251.394 90.1462Z" fill="#04709E"/>
<path d="M250.295 42.2958C248.127 40.4778 249.095 38.332 249.095 38.332C249.095 38.332 249.19 38.2184 249.303 38.0691C249.066 38.0853 248.861 38.1113 248.682 38.1438C247.909 39.4488 248.946 41.7406 249.17 42.3315C249.42 43.0002 250.88 44.8863 251.644 46.0582C249.798 45.3895 249.294 49.9538 249.294 49.9538C249.294 49.9538 248.497 49.6194 246.904 46.016C245.311 42.4126 244.515 41.6173 240.613 39.2735C236.712 36.9264 233.777 39.3157 232.98 39.9844C232.184 40.6531 228.646 44.6071 230.044 52.3008C231.442 59.9913 231.231 65.3802 231.231 65.3802C231.231 65.3802 233.432 65.286 233.825 65.1302C234.219 64.9744 234.723 65.4126 234.346 65.6658C233.055 67.5812 234.502 67.6461 235.07 68.4609C235.639 69.2757 235.353 70.3145 234.849 71.0385C236.046 70.8177 240.691 72.6259 241.316 72.8077C241.94 72.9895 242.275 72.4214 242.307 71.9117C242.34 71.4053 242.024 70.8794 241.803 69.3731C241.582 67.8636 240.009 67.6753 240.262 67.6461C240.513 67.6136 241.238 66.5781 240.766 65.5717C239.508 63.0266 239.947 61.2379 240.262 60.0108C240.578 58.7869 240.012 57.9072 240.012 57.9072C240.012 57.9072 240.926 58.5045 240.737 59.8225C240.548 61.1405 240.201 61.7378 241.147 63.4681C242.089 65.1951 242.753 65.9515 242.909 67.6461C243.065 69.3439 242.437 70.0029 243.569 72.3889C244.7 74.775 248.855 75.6255 250.617 76.1287C252.379 76.6318 251.215 73.0187 250.89 71.915C250.565 70.8112 250.523 68.37 251.719 66.3606C252.915 64.3511 252.945 63.8155 252.808 62.4975C252.671 61.1795 252.473 59.7641 252.535 58.4136C252.597 57.0632 253.026 55.7549 252.502 52.5703C251.979 49.3857 250.015 49.8694 250.015 49.8694C250.015 49.8694 250.36 47.9216 251.287 47.2301C252.213 46.5387 253.224 50.233 253.351 49.0221C253.468 47.8015 252.463 44.1137 250.295 42.2958Z" fill="#04709E"/>
<path d="M258.377 119.509C258.377 119.509 259.95 128.871 259.918 134.179C260.357 136.692 260.357 137.101 261.049 138.798C261.742 140.496 263.66 149.385 263.881 150.518C264.102 151.647 264.635 151.242 264.479 150.297C264.323 149.355 263.377 138.266 263.283 136.253C263.188 134.244 262.307 131.101 261.992 130.033C261.677 128.965 258.689 119.509 258.689 119.509C258.689 119.509 258.533 118.818 258.377 119.509Z" fill="#B0A99F"/>
<path d="M230.188 75.308C230.188 75.308 231.634 72.9219 232.044 72.0422C232.454 71.1624 233.806 71.13 234.687 71.4124C235.568 71.6948 240.35 72.4804 241.105 72.7304C241.859 72.9804 242.867 73.516 246.579 75.308C250.292 77.0999 251.017 77.0675 253.218 77.1941C255.419 77.3207 259.983 77.0675 261.619 76.6292C263.254 76.191 264.983 76.2202 265.552 77.6031C266.121 78.986 265.396 79.7716 264.798 80.4306C264.2 81.0896 263.761 82.0635 264.671 82.7225C265.582 83.3815 269.232 84.1996 271.625 89.6339C274.015 95.0682 273.985 96.0128 274.015 96.3569C274.047 96.701 274.203 97.2042 273.101 97.834C271.999 98.4638 272.441 98.5872 271.875 98.8079C271.31 99.0286 270.9 98.4638 268.888 97.584C266.875 96.7043 262.028 95.6687 256.996 91.3966C251.963 87.1245 251.742 87.0303 251.742 87.0303C251.742 87.0303 241.244 92.0556 238.393 93.062C235.542 94.0683 234.281 94.0683 233.569 94.2339C232.857 94.4027 231.68 94.6526 231.303 92.7665C230.926 90.8804 230.926 91.468 230.464 90.8382C230.002 90.2085 230.002 89.7085 229.333 88.871C228.663 88.0334 228.579 87.5725 228.663 86.9427C228.748 86.3129 228.344 85.9785 228.169 85.8941C227.993 85.8097 228.036 85.0144 227.951 84.2612C227.867 83.5081 227.489 82.4595 227.951 81.372C228.413 80.2845 228.162 80.0735 227.909 79.2782C227.659 78.4828 227.659 77.6031 228.663 76.85C229.664 76.0936 229.603 76.2883 230.188 75.308Z" fill="#F1823D"/>
<path d="M243.464 77.4342C243.464 77.4342 246.316 77.3498 245.815 76.3856C245.311 75.4215 244.264 74.2074 241.244 73.412C238.224 72.6167 234.7 71.9577 234.03 71.909C233.36 71.8603 232.268 72.3635 232.226 73.2854C232.183 74.2074 232.645 74.6683 232.645 74.6683C232.645 74.6683 233.022 75.6292 232.772 75.8825C232.522 76.1324 232.096 76.97 232.223 77.4309C232.353 77.8919 233.022 78.3529 232.603 79.2326C232.184 80.1124 232.268 80.4468 232.392 80.7C232.518 80.9499 232.603 81.4531 232.518 81.7485C232.434 82.0439 232.687 82.6283 233.273 82.7971C233.861 82.9659 235.717 82.6705 236.598 81.4141C237.479 80.1578 239.313 77.2654 243.464 77.4342Z" fill="#FE9951"/>
<path d="M261.404 78.0215C261.404 78.0215 246.274 77.5605 242.457 78.6513C238.641 79.7388 238.471 81.375 238.241 81.8359C238.01 82.2969 236.752 83.5532 236.248 83.7642C235.744 83.9752 234.528 84.8517 234.193 85.7737C233.858 86.6956 233.228 86.6112 232.977 87.5332C232.727 88.4551 232.516 91.1788 234.066 91.8053C235.617 92.4351 237.968 92.2241 240.399 91.3021C242.831 90.3802 259.193 83.2188 260.325 82.8423C261.456 82.4657 263.387 81.8359 263.595 79.6577C263.81 77.4761 261.645 78.028 261.404 78.0215Z" fill="#FE9951"/>
<path d="M260.673 85.0434C260.062 85.4557 257.747 86.4945 257.37 87.6567C256.993 88.8189 257.181 90.3901 258.157 91.4581C259.132 92.5261 261.71 94.1298 263.615 94.7239C265.52 95.3212 269.815 97.5352 270.153 97.7007C270.491 97.8663 271.46 98.9343 272.533 97.9929C273.605 97.0515 274.139 97.019 273.667 95.5095C273.196 93.9999 272.009 89.6337 269.33 86.8711C266.651 84.1052 264.889 83.8877 264.291 83.8877C263.696 83.8845 262.028 84.128 260.673 85.0434Z" fill="#FE9951"/>
<path d="M243.465 7.60619C243.465 7.60619 241.453 9.23907 241.703 12.2873C241.953 15.3356 242.226 16.4978 241.68 17.7866C241.137 19.0753 239.122 22.5619 238.806 23.0943C238.491 23.6299 238.27 24.1623 239.183 24.7596C240.097 25.3569 240.503 25.4511 240.789 25.6394C241.075 25.8276 241.638 26.3925 241.293 27.4605C241.001 27.9637 240.916 28.4506 241.183 28.6844C241.449 28.9214 241.748 29.1096 241.748 29.1096C241.748 29.1096 241.969 29.2655 241.891 29.4862C241.813 29.707 241.388 30.2231 241.924 31.197C242.46 32.1709 242.867 32.0151 242.649 33.82C242.428 35.625 242.399 37.4948 244.915 37.9818C245.952 37.9818 248.202 36.9916 248.55 37.1799C248.644 37.7156 248.439 39.4783 248.923 40.4197C249.408 41.3612 252.321 44.4614 252.574 45.9482C252.825 47.435 253.309 50.7852 253.413 51.4993C253.832 52.3369 253.624 51.9603 254.19 50.0742C254.756 48.1881 255.952 45.3411 258.322 44.1465C260.692 42.9518 261.908 42.7019 261.658 40.8807C261.407 39.0595 261.313 34.0213 261.846 31.5087C262.383 28.996 266.03 25.5712 266.03 25.5712L267.067 15.4233C267.067 15.4233 258.478 5.74606 258.384 5.74606C258.29 5.74606 246.774 4.99292 246.774 4.99292L243.465 7.60619Z" fill="#FE9951"/>
<path d="M261.862 31.4209C262.464 28.918 266.024 25.5775 266.024 25.5775L267.061 15.4296C267.061 15.4296 258.472 5.75241 258.377 5.75241C258.283 5.75241 246.768 4.99927 246.768 4.99927L243.465 7.60604C243.465 7.60604 242.714 8.21959 242.187 9.38501C242.369 9.60901 242.577 9.7064 242.792 9.48889C243.462 8.82016 246.905 5.25897 252.984 9.11233C255.334 10.703 254.899 14.5304 255.022 15.1504C255.146 15.7705 255.396 16.0756 256.196 16.6632C256.996 17.2508 257.308 17.8871 255.838 19.4355C254.369 20.984 253.803 21.7599 254.622 22.3669C255.621 23.1071 256.664 23.646 257.516 23.1428C258.368 22.6396 261.04 19.2051 262.822 19.2278C264.603 19.2473 267.666 22.8312 264.249 26.5157C262.041 28.9017 261.944 30.4664 261.862 31.4209Z" fill="#F1823D"/>
<path d="M251.362 7.76516C251.362 7.76516 249.106 6.55104 246.411 7.32691C243.933 8.03785 243.381 8.40468 243.234 8.56375C243.088 8.71957 242.344 9.22275 242.386 8.43714C242.428 7.65154 245.165 -0.181772 256.71 0.00651321C264.512 0.321404 268.885 7.35937 268.885 7.35937C268.885 7.35937 273.686 15.4134 270.364 22.5975C268.277 26.1262 267.5 26.9962 266.902 27.5935C266.303 28.1908 263.221 31.2391 262.812 33.3427C262.402 35.4463 261.398 34.19 261.427 33.3427C261.459 32.4954 261.898 29.5088 263.722 27.6877C265.546 25.8665 267.497 22.38 264.382 19.3934C263.563 18.7344 261.645 18.7019 259.632 20.838C257.62 22.9741 257.461 23.5714 256.297 23.0682C255.133 22.565 253.657 22.156 254.772 20.9646C255.887 19.77 257.74 17.6988 256.954 16.9424C256.167 16.186 255.383 16.4393 255.162 14.0824C254.941 11.7256 255.231 9.74215 251.362 7.76516Z" fill="#B42A13"/>
<path d="M261.648 40.8872C261.619 40.673 261.589 40.4133 261.567 40.1178C258.823 42.6792 255.796 42.2896 254.203 42.1241C252.61 41.9552 251.56 41.1177 250.679 39.8192C249.798 38.5207 251.31 37.3066 252.799 36.4268C254.288 35.5471 258.4 32.5312 258.4 32.5312C258.4 32.5312 249.801 36.3002 246.319 36.93C244.343 37.2871 243.205 36.4528 242.591 35.6639C242.717 36.7612 243.27 37.6701 244.915 37.9883C245.952 37.9883 248.202 36.9982 248.55 37.1864C248.644 37.7221 248.439 39.4848 248.924 40.4262C249.405 41.3677 252.321 44.4679 252.574 45.9547C252.825 47.4415 253.309 50.7917 253.413 51.5058C253.833 52.3434 253.624 51.9668 254.19 50.0807C254.756 48.1946 255.952 45.3476 258.322 44.153C260.686 42.9616 261.902 42.7084 261.648 40.8872Z" fill="#F1823D"/>
<path d="M247.83 16.4976C247.83 16.4976 246.273 16.2542 245.298 15.9231C244.323 15.5921 243.598 15.3811 243.309 15.4914C243.019 15.6018 243.198 15.9491 243.276 15.9783C243.354 16.0075 243.825 15.9848 244.81 16.3061C245.795 16.6274 247.602 16.6826 247.791 16.6599C247.979 16.6404 247.953 16.5171 247.83 16.4976Z" fill="#2B2210"/>
<path d="M243.987 18.368C244.213 18.3362 244.328 17.8284 244.244 17.2338C244.161 16.6392 243.91 16.1829 243.684 16.2147C243.458 16.2465 243.343 16.7543 243.427 17.3489C243.511 17.9435 243.762 18.3998 243.987 18.368Z" fill="#2B2210"/>
</svg>
