<?xml version="1.0" encoding="utf-8"?>
<!-- Generator: Adobe Illustrator 26.0.2, SVG Export Plug-In . SVG Version: 6.00 Build 0)  -->
<svg version="1.1" id="Calque_1" xmlns="http://www.w3.org/2000/svg" xmlns:xlink="http://www.w3.org/1999/xlink" x="0px" y="0px"
	 viewBox="0 0 303 230" style="enable-background:new 0 0 303 230;" xml:space="preserve">
<style type="text/css">
	.st0{fill:#EFEFEF;}
	.st1{fill:#DADADA;}
	.st2{fill:#BCDAEF;}
	.st3{fill:#272622;}
	.st4{fill:#ECCDB0;}
	.st5{fill:#DDB99E;}
	.st6{fill:#B09F83;}
	.st7{fill:#2651C0;}
	.st8{fill:#3B62C7;}
	.st9{fill:#FFAD9C;}
	.st10{fill:#DF6D14;}
	.st11{fill:#D16109;}
	.st12{fill:#9B6348;}
	.st13{fill:#8E5335;}
	.st14{fill:#EDEDED;}
	.st15{fill:#31302C;}
	.st16{fill:#00274E;}
	.st17{fill:#003366;}
	.st18{fill:#6050DC;}
	.st19{fill:#FFFFFF;}
	.st20{fill:#F5F0EA;}
</style>
<path class="st0" d="M128.7,191.9l-3.6,30.1c0,0,0.5,3.6-3.5,4.6c-4,1-10.4,1.6-10.4,1.6v1.6h97v-1.3c0,0-7.1-0.5-9.5-1.4
	c-2.4-0.9-2.8,0.2-3.9-5.3c-1.1-5.5-2.3-12.1-3.8-26.1C189.5,181.8,128.7,191.9,128.7,191.9z"/>
<path class="st1" d="M128.7,191.9l-0.6,5.2l48.5,32.8h31.5v-1.3c0,0-7.1-0.5-9.5-1.4c-2.4-0.9-2.8,0.2-3.9-5.3
	c-1.1-5.5-2.3-12.1-3.8-26.1C189.5,181.8,128.7,191.9,128.7,191.9z"/>
<path class="st2" d="M26.6,0h266.6c2.4,0,4.7,1,6.4,2.7c1.7,1.7,2.7,4,2.7,6.4L302,190.5c0,5-3.8,9.1-8.8,9.1H25.8
	c-1.2,0-2.4-0.2-3.5-0.7c-1.1-0.5-2.1-1.1-2.9-2c-0.8-0.8-1.5-1.8-2-2.9c-0.5-1.1-0.7-2.3-0.7-3.5L16.6,10C16.6,4.5,21.1,0,26.6,0z"
	/>
<path class="st0" d="M16.6,172.9h285.6v17.5c0,2.5-1,4.9-2.7,6.6c-1.8,1.8-4.1,2.7-6.6,2.7H25.6c-1.2,0-2.3-0.2-3.4-0.7
	c-1.1-0.4-2.1-1.1-2.9-1.9c-0.8-0.8-1.5-1.8-1.9-2.9c-0.4-1.1-0.7-2.2-0.7-3.4V172.9z"/>
<path class="st3" d="M7.8,214.9c0,0,3.1-0.2,2,3.2c-1,3.4-1.9,3.3-1.4,6.1c0.5,2.8,1,5.8-0.7,5.8s-6.5,0-6.5,0s-1.6-0.9-1.1-5
	c0-0.4,0.1-0.8,0.2-1.1c0.3-0.8,0.3-1.8,0.4-2.8c0.1-1.2,1.4-6,3.6-6.2C6.5,214.7,7.8,214.9,7.8,214.9z"/>
<path class="st3" d="M47.6,214c0,0-3,1.1-3.3,3.3c-0.3,2.3,1.1,3.4,1.7,4.4c0.6,1,1,2.2,1.3,4.4c0.1,0.8,0.1,1.6,0.1,2.4
	c-0.1,1.1-0.1,1.4-0.1,1.4s0.4,0.2,1.2,0c0,0-0.4-4.4,0.1-5.6c0.5-1.2,0.8-1.2,1-1.1c0.2,0,3,0,7,5.2c0.6,0.8,1.5,1.2,2.4,1.2H66
	c0.4,0,0.8-0.2,1.1-0.6c0.6-0.9,1.5-2.7-0.7-3.3c-3-0.8-4.7-1.5-4.7-1.5s-2,0.4-4.9-0.7c-1.1-0.4-2.3-1-3.6-1.9
	c-1.8-1.3-2.8-2.1-3.7-3.1C47.7,216.4,47.2,214.7,47.6,214z"/>
<path class="st4" d="M16,202.5c0,0-2.3,3.3-4.3,6.6c-2,3.3-2.4,8.1-2.4,8.1s0,0.9-1.2,3.5c-0.4,1-0.6,1.3-0.7,3.3
	c-0.1,2.1-0.9,2.5-1.2,2.6c-0.3,0.1-2.5,1-3.9-0.7c0,0-0.7-0.5-0.8-2.4c-0.1-1.3,0.1-2.5,0.5-3.7c0.3-0.8,0.6-1.6,0.9-2.4
	c0.6-1.5,1.4-6.3,1.4-6.3s1.5-6.1,4.7-11.8C12.3,193.5,16,202.5,16,202.5z"/>
<path class="st4" d="M61.8,224.2c0,0-3.8,0.8-9.4-3.4c-5.5-4.2-5-6.6-5-6.6s1.9-5.4,0.2-14c-1.7-8.6,7.9-7,7.3,0.6
	c-0.6,7.6-1,10.3-0.7,11.3c0.2,1,0.2,1.9,1.5,3.5C57,217.1,60.6,222.5,61.8,224.2z"/>
<path class="st4" d="M42.1,93.3c0,0-1.8,2.6-2.7,4.9c-0.9,2.3-1.2,3.8-1.3,3.9c-0.1,0.1-0.5,2.6-2.4,4.8c-1.8,2.2-7.8,8.6-9.1,13.5
	c-1.3,4.8-1.2,5.9-0.8,7.6c0,0,0.2,0.4,0.3,2c0.1,1.6,0.6,3.4,0.6,3.4s0.3,1,1,1.4c0,0,0.3,0.7-0.5,0.6c-0.8-0.1-1.6-0.3-2.5-2.2
	c-0.9-1.9-2-2.2-2-2.2s-1.6-0.3-2.4,0.8c-0.7,1.1-2.4,2-2.4,2s0.5,2,0,2.6c-0.1,0.2-0.2-0.1-0.2-0.1s0,0.3-0.4,0.4
	c-0.1,0-0.2-0.3-0.2-0.3s-0.6,2.9-1.6,2.9c0,0-0.3,0.2-0.4-0.6c-0.1-0.8-1.2,2.1-2.7,2.2c-1.5,0.1-0.4-1-0.3-1c0.1,0,0.6-1.1,0.9-2
	c0.2-0.9,0.8-1.5,0.8-1.5s-2.5,0.9-3.9,0.2c0,0-0.6-0.5,0.4-0.8c1-0.3,2.3-1,2.3-1l2.4-1.4c0,0,0.1-0.8,0.1-1.1
	c0.1-0.2-0.1-1.3,0-1.5c0.1-0.2,0.8-1.2,0.8-1.2s1.2-0.8,1.3-0.9c0.1,0,2.6-2.5,3.2-3.3c0,0,3.4-6.6,6.1-14
	c2.7-7.3,7.4-15.1,7.4-15.1s3.1-5.6,3.7-7C38.1,87.8,42.1,93.3,42.1,93.3z"/>
<path class="st4" d="M67,38.2c0,0,5.1-0.4,6,4c0.3,1.9,0.1,3.1-0.2,3.2c-0.3,0.1-0.4,0.5-0.4,0.8c0,0.2,0,2.1,0.9,4.1
	c0.4,0.9,0.9,1.6-0.7,2c-0.5,0-0.7,0-0.7,0.5c0,0.5-0.1,1,0.1,1.3c0,0.4-0.3,0.7-0.7,0.7c0.2,0.3,0.3,1-0.1,1.2
	c-0.4,0.3-1.6,0.7-1.8,2.5c-0.1,1.4-0.2,1.4-0.3,1.5c-0.1,0.1-0.9,1.3-3.3,0c-0.7-0.4-1-0.5-1-0.5s-0.7,0.4-0.9,1.8
	c-0.2,1.4-8.1,1.1-8.1,1.1l-2.5-11l2.9-9.3L67,38.2z"/>
<path class="st5" d="M16,202.5c0,0-3.7-9-6.9-3.3C6,204.8,4.4,211,4.4,211s-0.9,4.9-1.4,6.3c-0.3,0.8-0.6,1.6-0.9,2.4
	c-0.4,1.2-0.6,2.5-0.5,3.7c0.2,1.9,0.8,2.4,0.8,2.4c0.2,0.2,0.4,0.4,0.6,0.5c0.4-12.2,6.2-23.7,6.3-24c0.2-0.3,0.4,0,0.8,0.1
	c1.5,1.2,3.3,2,4.4,2.4C15.3,203.5,16,202.5,16,202.5z"/>
<path class="st5" d="M54.8,202.6c0-0.6,0.1-1.2,0.2-1.8c0-0.2,0-0.4,0-0.5l-7.5-2.4c0,0.7,0,1.5,0.2,2.3c1.7,8.6-0.2,14-0.2,14
	s-0.3,1.6,2.4,4.4c1.8-6.2,1.6-15.7,1.6-15.7s-0.1-0.4,0.5-0.3C52.2,202.7,53.9,202.6,54.8,202.6z"/>
<path class="st5" d="M42.1,93.3c0,0-4-5.5-4.6-4.1c-0.6,1.4-3.7,7-3.7,7s-4.7,7.8-7.4,15.1c-2.7,7.3-6.1,14-6.1,14
	c-0.6,0.8-3.1,3.3-3.2,3.3c-0.1,0-1.3,0.9-1.3,0.9s-0.7,1-0.8,1.2c-0.1,0.2,0.1,1.3,0,1.5c-0.1,0.2-0.1,1.1-0.1,1.1l-0.6,0.3
	c0.7-0.4,1.2-0.7,1.2-0.7s2.7-2.3,2.6-2.4c-0.2,0.1-1.8,1.4-2.6,1.9c-0.1-0.7,0.3-1,0.5-1.4c1.2-1,1-1.3,1-1.3s-0.5,0.5-1.1,1
	c-0.1-0.8,0.9-1.3,1.1-1.5c1.3-0.9,2.6-2.7,2.6-2.7s0.6-1,2.2-3.2c1.7-2.1,3-5.4,3.2-6.1c0.3-0.8,0.7-2.9,2.4-7.2s5.4-9.7,5.4-9.7
	s-0.3,1.1-0.3,1.9c2.8-6.3,4.7-8.1,6.2-9.1c1.5-0.9,1.8,0.7,1.8,0.7s-0.3,1.6-0.7,3.5C40.6,95.4,42.1,93.3,42.1,93.3z"/>
<path class="st6" d="M10.4,136.5c-0.3,0-0.9-0.2-0.2-0.6c0.2-0.1,0.8-0.4,1.4-0.8c-0.5,0.2-1.1,0.5-1.6,0.7c-1,0.3-0.4,0.8-0.4,0.8
	c1.4,0.7,3.9-0.2,3.9-0.2s-0.5,0.7-0.8,1.5c-0.2,0.9-0.8,2-0.9,2c-0.1,0-0.9,0.8-0.2,0.9c-0.1-0.1-0.1-0.3,0.1-0.5
	c0.7-0.4,1.1-1.4,1.2-1.6c0.1-0.2,0.2-0.7,0.4-1.2c0.7-1,0.7-1.7,0.7-1.7S10.7,136.5,10.4,136.5z"/>
<path class="st6" d="M27.2,135.4c0.5,0.1,0.6-0.2,0.6-0.4c-0.6,0.1-1.4,0.1-2-0.6c-1.1-1.3-1.4-4-3.5-3.6c-0.2,0-0.5,0.1-0.7,0.2
	c0.6-0.1,1.1,0,1.1,0s1.1,0.2,2,2.2C25.6,135.1,26.4,135.2,27.2,135.4z"/>
<path class="st6" d="M17.3,136.6c0.4-0.1,0.4-0.4,0.4-0.4s0,0.3,0.2,0.1c0.5-0.7,0-2.6,0-2.6s0.1,0,0.2-0.1c-1,0.4-2.6,1.3-2.8,2.8
	c-0.1,1-0.4,1.8-0.7,2.4c0.2-0.3,0.4-0.5,0.4-0.2c0.1,0.8,0.4,0.6,0.4,0.6c1-0.1,1.6-2.9,1.6-2.9S17.1,136.6,17.3,136.6z"/>
<path class="st5" d="M67,38.2l-11,4l-2,6.3l0.1,7.6l0.7,3c0.6,1,1.5,2.4,2.4,3.4c0.8,0,1.7,0,2.6-0.1c0.5-3.1-1.5-5.6-1.5-5.6
	s-1.6-2.4-1.1-5.1c0.5-2.8,2.9-3.6,5.4-4.8c2.5-1.2,3.3-2.6,5.6-5.4c1.6-1.9,3.4-1,4.4-0.2C71.4,37.8,67,38.2,67,38.2z"/>
<path class="st5" d="M64.6,59.5c0,0,0.3,0.1,1,0.5c1.1,0.6,1.9,0.6,2.4,0.5c-1.5-0.4-6.6-2.1-9.4-6.2c0.2,1.7,2.4,4.2,5.2,6.9
	C63.8,59.9,64.6,59.5,64.6,59.5z"/>
<path class="st5" d="M74.4,92.2c0,0,1.1,0.7,2.6,1.4c1.5,0.7,7.8,6.2,10.2,8.4c2.4,2.2,5.8,5.6,8.1,5.8c2.3,0.1,2.2,0,3.2,0.1
	c1.1,0.1,3,0.5,3.3,0.3c0-0.3-0.3-2.7,0.7-3.2c0.1,0,0.3,1.7,0.6,2.1c0,0,0.2-0.3,0.5-0.5c0.3-0.2,1.9-1.5,2.3-2
	c0.3-0.2,1.1,0.2,0.8,1.6c1-0.9,1.9-2.6,4-2.4c0.5,0.1,0.3,0.3,0.2,0.4c-0.1,0.1-0.8,0.8-0.8,1c0,0,3.3-2.4,5-1.6
	c0.3,0.1,0.6,0.3-0.5,0.9c-1.2,0.6-1.5,0.9-1.5,0.9s2.2-0.5,3.1,0.1c0.1,0.1-0.4,0.4-0.4,0.4s-2,1.1-2.8,1.7
	c-0.8,0.6-1.2,0.5-1.2,0.5c-0.6,0.2-3.7,2.8-3.7,2.8l-0.6,0.7c0,0-0.4,0.3-0.6,0.4c-0.2,0.1-0.5,0.1-0.7,0.3
	c-0.2,0.2-0.4,0.3-0.8,0.6c-0.4,0.2-1.2,0.3-1.5,0.4c-0.3,0.1-0.5,0.4-0.9,0.5c-0.4,0.1-1.1-0.1-1.6-0.1c-0.5,0.1-1.2,0.3-1.8,0.3
	c-0.6,0-2.1-0.7-3.2-1c-1.5-0.3-3.2-0.6-3.2-0.6c-0.1,0-0.6,0-2.2-1.5c-1.5-1.5-4.3-3.4-5.5-4c-1.2-0.6-4.2-1.6-11-7.2
	s-6.9-5.6-6.9-5.6l5-3.1L74.4,92.2z"/>
<path class="st5" d="M114.1,106.8C114.1,106.8,114.1,106.8,114.1,106.8c-0.3,0.2-2.1,1-2.6,1.2c-0.5,0.3-2,1.4-2,1.5
	s-1.1,0.8-0.8,0.4c0.3-0.4,2.1-2.2,2.4-2.5c0.3-0.3,1.2-0.9,1.8-1.3c0.6-0.4,1.7-0.5,2.7-0.5c0.2,0,0.4,0.1,0.4,0.2
	c0.1-0.1,0.2-0.1,0.1-0.2c-0.9-0.6-3.1-0.1-3.1-0.1s0.4-0.2,1.5-0.9c1.2-0.6,0.9-0.8,0.5-0.9c-0.1-0.1-0.2-0.1-0.3-0.1
	c-0.1,0.1-0.1,0.2,0.1,0.3c0.3,0.1,0.2,0.3-0.4,0.6c-0.6,0.3-2.7,1.9-3.9,3c-1.2,1.1-2,2.2-2.8,3.3s-1.8,1.3-2.5,1.3
	c-0.6,0,1.3-2.1,1.3-2.2c0.1-0.1,0.5-0.6,1-1.4c0.5-0.8,2-2.3,2-2.3l0.9-1.1c-0.2,0.2-0.4,0.3-0.4,0.3c0,0,0-0.1,0-0.1h0
	c0,0-1.4,1.4-1.9,1.9c-0.5,0.5-1.4,1.8-1.4,1.8s-0.5,0.7-1,1.3c-0.5,0.6-1,1.4-1.4,2c-0.4,0.6-1.1,0.6-1.8,0.5
	c-0.7-0.1,1.2-2.8,1.2-2.8l1.8-1.7l1.7-1.9c0,0,0.7-0.9,2-1.7c1-0.6,1.3-0.3,1.4,0c0.1-0.1,0.1-0.1,0.2-0.1c0.1-0.1,0.3-0.4-0.2-0.4
	c-2.1-0.2-3.1,1.5-4,2.4c0,0,0-0.1,0-0.1c-0.5,0.6-1,1.2-1.3,1.5c-0.6,0.6-1.8,2-2,2c-0.2-0.1,0.2-2.3,0.2-2.3s-0.3,0.3-0.4,0.8
	c-0.1,0.5,0,1.8-0.6,2.9c-0.5,1.1-1.2,1.7-2,2.2c-0.7,0.5-3.1-0.5-4.5-0.9c-1.5-0.4-1.5-1.5-1.5-1.5s0.2-1.1-1-0.5
	c-1.2,0.6-3-1.1-3.4-1.3c-0.4-0.2-7.9-5.3-10.6-7.6c-2.6-2.2-6.4-4.8-6.7-5L71,96.5l0.7,0.9c0.8,0.7,1.8,1.4,2.9,2.4
	c6.9,5.6,9.8,6.5,11,7.2c1.2,0.6,4,2.5,5.5,4c1.5,1.5,2.1,1.5,2.2,1.5c0.1,0,1.8,0.3,3.2,0.6c1.1,0.2,2.6,1,3.2,1
	c0.6,0,1.3-0.2,1.8-0.3c0.5-0.1,1.2,0.2,1.6,0.1c0.4-0.1,0.6-0.4,0.9-0.5c0.3-0.1,1.1-0.2,1.5-0.4c0.4-0.2,0.6-0.4,0.8-0.6
	c0.2-0.2,0.5-0.2,0.7-0.3c0.2-0.1,0.6-0.4,0.6-0.4l0.6-0.7c0,0,3.1-2.6,3.7-2.8c0,0,0.4,0,1.2-0.5
	C113.1,107.4,113.6,107.1,114.1,106.8z"/>
<path class="st5" d="M72.9,96.4C72.9,96.4,72.9,96.4,72.9,96.4h0.2H72.9z"/>
<path class="st5" d="M103,106.6C103,106.6,103,106.6,103,106.6C103,106.6,103,106.6,103,106.6z"/>
<path class="st5" d="M107.3,105.8c0,0,0-0.1,0.1-0.3c-0.2,0.2-0.4,0.5-0.6,0.7c0.3-1.4-0.5-1.8-0.8-1.6c-0.4,0.4-2,1.8-2.3,2
	c-0.2,0.1-0.4,0.4-0.5,0.4c0,0.1,0.1,0.1,0.1,0.2c0.1,0.2,0.1,2.6,0.1,2.6l0.8-0.8c0,0,1.7-1.5,1.7-1.5c0-0.1,0.9-1.1,0.9-1.1
	L107.3,105.8z"/>
<path class="st5" d="M101.8,108.2c-0.3,0.2-2.2-0.2-3.3-0.3c-1.1-0.1-0.9,0.1-3.2-0.1c-2.3-0.1-5.7-3.6-8.1-5.8
	c-2.4-2.2-8.8-7.7-10.2-8.4c-1.5-0.7-2.6-1.4-2.6-1.4l-0.6-0.4L73.6,92l0.5,1.1c0,0,0.4-1,4.3,1.9c3.9,2.9,12.5,10.6,12.5,10.6
	s2.5,2.1,3.6,2.2c1.1,0.1,4.3,0.1,5.7,0.5C101.6,108.9,101.8,108.2,101.8,108.2z"/>
<path class="st7" d="M72.5,99.5l1.6,1.1c2.4,14.5,2.5,19.1,2.5,19.1s-0.1,6.7-1.2,10c-1.1,3.2-1.8,6.8-1.8,6.8s-0.6,4-1.7,10
	c-1.1,6-3.2,13-3.2,13s-1.1,4.1-2.8,8.9c-1.7,4.8-3.1,8.6-5.4,16.8c-2.3,8.2-1.3,13.5-1,15c0.2,1.5-0.4,1.4-0.9,1.3
	c-6.7-1-11.9-0.4-12.4-0.3c-0.6,0.1-0.6-0.2-0.7-1.1c0.2-11.1,2-16.3,6.1-26.1c4-9.8,3.6-15.2,3.6-15.2l0.2-7.7c0,0-1.9,2.8-2,2.9
	c-0.1,0.1-3.2,4-4.8,6.2c-1.6,2.1-5.5,8.5-5.6,8.6c-0.1,0.2-5,9.4-5,9.4s-7.5,13.1-9.7,17.1c-2.3,4-6.7,9.5-7.4,10.5l0,0
	c-0.7,0.9-0.9,0.5-1.6,0.2c-2.9-1.2-11-6.9-11.3-7.1c-0.3-0.2,0.1-0.5,0.6-1.4c3.3-9.2,8.5-14.2,9.9-15.9c1.5-1.7,3.5-5,6.1-8.5
	c7.2-8.6,10.4-17.8,10.4-17.8s8.6-19.2,8.6-30c0-10.9,6.9-17.9,6.9-17.9l5.8-7.5l3.5-1L72.5,99.5z"/>
<path class="st8" d="M72,146.5c1.1-6,1.7-10,1.7-10s0.7-3.6,1.8-6.8c1.1-3.2,1.2-10,1.2-10s-0.2-4.5-2.4-18.4c-0.3,0-0.6,0-1,0.1
	c-0.2,1,0,2.1,0,2.1s1.4,11.7-0.6,27.9c0,0,1.3-21.7-0.9-29.9c-1.1,0-1,0.3-6.1-0.1c-1-0.2-0.9,0-1.2,0.5c-0.2,0.5-2.2,4.1-3.8,7.4
	c-1.7,3.3-10.1,23.2-11.8,29.2c1.7-8,6.3-18.6,7.3-21.8c1-3.2,5.5-15.4,5.5-15.4s-3.7-0.2-7.1,6.6c-3.4,6.8-4.3,5.7-8.1,23
	c-3.8,17.3-7.1,22.5-7.1,22.5s-6.2,18.4-19.8,36.8c-4.1,5.5-6.7,9-8.5,11.2c2.7,1.8,6.4,4.2,8.2,4.9c0.7,0.3,0.9,0.6,1.6-0.2
	c0.7-0.9,5.2-6.5,7.5-10.5c2.3-4,9.7-17.1,9.7-17.1s4.8-9.1,5-9.4c0.1-0.2,4-6.5,5.6-8.6c1.6-2.1,4.7-6.1,4.8-6.2
	c0.1-0.1,2-2.9,2-2.9s3.7-8.1,5.7-16.8c2-8.7,4.1-13.1,4.1-13.2c0-0.1,1.1-2.6,1.8-12.6c0.4,1.2,0.6,5.4-1.6,20.9
	c-2.1,15.5-8.8,44.7-9,45.1c-0.1,0.3-3.8,14.1-5.6,26.4c2.1,0,4.8,0.1,7.8,0.6c0.4,0,1.1,0.2,0.9-1.3c-0.2-1.5-1.2-6.8,1-15
	c2.3-8.2,3.6-12,5.4-16.8c1.7-4.8,2.8-8.9,2.8-8.9S70.9,152.6,72,146.5z"/>
<path class="st9" d="M73.6,97.8v2.9l-5.3-0.3H64l-1-0.3h-3.5h-3l0.2-2.6c0,0-0.5,0-0.6-0.2c-0.2-1.1-1.5-4.5-3.6-6.9
	c-2.1-2.4-4.2-5.6-4.4-6.5c-0.2-0.9-0.3-0.8-0.3-0.8s-0.7,1.6-1.2,2.6c-0.5,1-3.2,5.6-3.2,5.8c0,0.1-1.5,2.4-1.5,2.4
	s-0.1-0.1-0.2-0.2c-1.9-1.8-3.7-2.3-4.3-2.6c-0.6-0.3-0.9-0.1-0.9-0.1c-0.2-0.2,0-0.8,0-0.8s0.7-1.1,1.4-3.2
	c0.7-2.2,1.8-4.2,1.8-4.2c2.3-4.3,3.9-6.9,4.1-7.5c1-6.3,2.5-6.5,4-7.8c1.6-1.4,3-0.3,3-0.3s2.5,1.7,2.6,1.8c0,0.1,2.2,1.2,4.1-0.5
	c3.2-3.1,2.1-6.8,2.1-6.8h4v2.3c0,0,0.1,2.9,3.1,3.4c3,0.4,3.4,2.3,4.1,4.9c0.7,2.6,2.5,5.1,5,7.5c2.5,2.4,2.1,2.5,1.9,4.5
	c-0.2,2-1.6,4-2.3,5.1c-0.6,1.2-0.7,2.1-0.6,3.9c0.1,1.7-0.4,2.9-0.7,3.6l0,0c-0.3,0.7-0.1,0.7-0.1,0.7v0.6H73.6z"/>
<path class="st3" d="M59.3,97.5l0.2,2.5l3.6,0.1v-2.6H59.3z"/>
<path class="st3" d="M63.9,97.5v2.8c0,0,5.6,0.2,6.8,0.1c0-1.1,0-2.8,0-2.8L63.9,97.5z"/>
<path class="st3" d="M71.5,97.7v2.8l1.6,0.1v-2.9H71.5z"/>
<path class="st3" d="M74.1,97.8h-0.5v2.9h0.5V97.8z"/>
<path class="st3" d="M58.5,97.3h-2.1l-0.1,2.8h2.2V97.3z"/>
<path class="st10" d="M59.8,63.9c0,0-0.7,5.2-4.7,5.2c-1.4,0-3.1-1.5-3.1-1.5s-1.9-1.7-3.6-0.7c-1.1,0.6-1.9,1.5-2.4,2.2
	c-0.5,0.6-0.8,1.3-1,2c-0.3,1.1-0.9,2.9-1,3.9l-1.4,2.6l-1.8,3.1c0,0-2.6-1.8-1.7-9.1c0.4-3.1,3.1-7.2,4.6-9
	c1.6-1.8,2.6-2.4,3.1-3.6c0.5-1.2,1-2.3,0.9-5.4c-0.1-3.1-1.1-8-1-9.5c0.1-1.5,0.6-9.7,6.7-13s12.9-1.5,12.9-1.5s4.8,1,5.8,5.7
	c0.5,1.8,0.9,2,0.9,2s4.8,3.3,5.1,7.5c0.2,2.6-0.9,5.2-1.2,5.8c-0.3,0.7-3.6,5.1-4.9,9s-1.2,3.8-0.9,5.8c0.2,2,1.8,3.9,2.1,5.2
	c0.3,1.3,0.9,3.4-0.4,5.2c-0.7-0.9-1.3-1.8-2.1-4.3c-0.8-2.5-1.3-4-3.2-4.3c-2-0.3-2.5-0.3-3-1c-0.5-0.7-1.6-2-0.8-4.9
	c0.1-0.5,0.2-0.8,0.3-1.1c0.3-0.7,0.6-0.7,0.6-0.7s0.2,0.1,0.4,0.2c0.7,0.4,2.2,1.1,3.1,0.8c1.1-0.4,1.1-2.1,1.1-2.1s0.2-1,0.8-1.6
	c0.4-0.4,0.6-0.5,0.9-0.7c0.3-0.2,0.5-0.5,0.5-0.8c0-0.2,0-0.4-0.2-0.6c0,0,0.6-0.2,0.6-0.9c0-0.7-0.3-1.6,0.2-1.7
	c0.5-0.1,1.9-0.1,1.6-1c-0.3-0.9-1.4-2.8-1.2-5.2c0-0.3,0.3-0.4,0.5-0.6c0.2-0.2,0.7-2.5-0.5-4.1c-1.1-1.6-2.4-2-3.4-1.4
	c-1.1,0.6-2.6,3.1-3.9,4.3c-1.3,1.2-3.5,2.6-5.1,2.9c-1.6,0.3-4.2,1.4-4.1,4c0.1,2.6,2.4,6.1,2.4,6.1S60.4,61.5,59.8,63.9z"/>
<path class="st11" d="M53.4,31c-6.1,3.3-6.6,11.5-6.7,13c-0.1,1.5,0.9,6.4,1,9.5c0.1,3.1-0.4,4.2-0.9,5.4c-0.5,1.2-1.5,1.8-3.1,3.6
	c-1.6,1.8-4.3,5.9-4.6,9c-1,7.3,1.7,9.1,1.7,9.1l1-1.8c-1.9-7.5,2.9-13,6.1-17.9c3.3-5.1,1.4-14,1.1-15.4c-0.3-1.5-0.9-6.4,0.9-9.7
	c2.7-4.6,8.1-6.2,12.5-6.8C60,28.9,56.6,29.3,53.4,31z"/>
<path class="st11" d="M71.1,40c0.4,0.3,0.8,0.7,1.2,1.3c1.1,1.6,0.7,3.8,0.5,4.1c-0.2,0.2-0.5,0.3-0.5,0.6c-0.2,2.4,0.9,4.3,1.2,5.2
	c0.3,0.9-1,1-1.6,1c-0.5,0.1-0.3,1-0.2,1.7c0,0.7-0.6,0.9-0.6,0.9c0.1,0.2,0.2,0.4,0.2,0.6c0,0.3-0.2,0.6-0.5,0.8
	c-0.2,0.2-0.5,0.2-0.9,0.7c-0.5,0.6-0.8,1.6-0.8,1.6s0,1.6-1.1,2.1c-0.9,0.3-2.4-0.4-3.1-0.8c-0.2-0.1-0.4-0.2-0.4-0.2
	s-0.3,0-0.6,0.7c-0.1,0.3-0.2,0.6-0.3,1.1c-0.8,2.9,0.3,4.1,0.8,4.9c0.5,0.7,1,0.8,3,1c2,0.3,2.4,1.7,3.2,4.3
	c0.6,1.9,1.1,2.9,1.6,3.6c0.4-2.7-1.2-5.6-2.6-7.9c-1.7-2.8-0.3-4.8,0-6.1c0.4-1.3,4.3-9.2,4.8-10.7c0.5-1.6,1.1-4.2-0.7-8.2
	C73.1,40.4,72,39.9,71.1,40z"/>
<path class="st3" d="M63.3,45.5h9.5l0.2-0.9l0.5,0.1l-1.2,5.1l-0.3,0c-0.1,0-0.1-0.1-0.1-0.2l0.8-3.4H62.1L63.3,45.5z"/>
<path class="st3" d="M72,46.9c0,0-0.3-0.5-1.3-0.4c-1,0.1-1.8,0.7-1.8,0.7s-0.1,0.2,0.4,0c0.5-0.2,1.6-0.4,2.4-0.2
	C71.8,47.1,72.1,47.1,72,46.9z"/>
<path class="st3" d="M70.9,48.7c0.2,0,0.4-0.5,0.4-1c0-0.6-0.2-1-0.4-1c-0.2,0-0.4,0.5-0.4,1C70.5,48.3,70.7,48.7,70.9,48.7z"/>
<path class="st12" d="M292.1,211.5c0,0,1.6,3.3,1.5,8.9c-0.1,5.7,5.2,4,5.4,1.3c0.2-2.7,0.2-7.7-1.2-11.2
	C296.3,207,292.8,208.9,292.1,211.5z"/>
<path class="st12" d="M271.4,211.2c0,0-0.5,6.6-0.2,9.3c0.3,2.7-7.7,4.2-7.5,2c0.2-2.3,1.1-6.5,0-9.8
	C262.6,209.3,271.4,211.2,271.4,211.2z"/>
<path class="st13" d="M263.6,212.7c0.3,0.9,0.4,1.8,0.5,2.7c2.8-1.9,5.4-1.2,7-0.3c0.1-2.1,0.2-3.9,0.2-3.9S262.6,209.3,263.6,212.7
	z"/>
<path class="st13" d="M298.8,214.3c-0.2-1.4-0.5-2.7-1-3.9c-0.2-0.5-0.5-0.9-0.8-1.2l-4.8,2.1c0,0.1,0,0.1,0,0.2
	c0,0,0.6,1.3,1.1,3.8C294.8,213.7,297,213.9,298.8,214.3z"/>
<path class="st14" d="M271.4,219.3c0,0,3.1,2.5,1.6,7.5l0.1,0.1v1.9h-25.8v-1.3c0,0,0-0.1,0.2-0.1c0.1-0.4,0-1.9,1.6-2.5
	c1.6-0.7,8.1-2.4,11.2-6.1c1-1.2,2.2-2.4,4-2.4c0.4,0,0.5,0.1,0.4,0.5c-0.1,0.4-0.7,2.1-0.4,2.3c0.3,0.2,0.5,0.3,1.4,1.1
	c0.9,0.8,3.9,0.6,4.4-0.1C270.4,219.6,271,219,271.4,219.3z"/>
<path class="st14" d="M291.9,226.1c0-0.1,0.1-1.7,0-2.5c-0.1-0.8-0.1-2.7,1-4.1c1.1-1.4,2-2.4,4.5-2.4c2.5,0,4.6,2.8,4.6,4.5
	s-0.2,2.2-0.2,2.2s-0.1,2.2,0.2,2.9c0.1,0.1,0.1,0.1,0.1,0.1s0.1,0,0.1,0.2s0,1.6,0,1.6s0,0.2-0.2,0.2c-0.2,0-10.7,0-10.7,0v-2
	c0,0,0.1-0.3,0.3-0.3C291.8,226.7,291.7,226.1,291.9,226.1C292.2,226.1,291.9,226.1,291.9,226.1z"/>
<path class="st3" d="M243.5,132.8c0,0-0.1,14.5,10.4,42.7c3.2,7.7,5.5,11.6,7,19.4c1.5,7.8,2.4,17,2.1,18.6c2.5,0,8.9,0,8.9,0
	s1.1-14.2-2.1-26.4c-3.2-12.2-7-28.6-7-34.6c1.6,5.2,6.1,15.4,15.8,29.5c9.8,14.2,13,31.4,13,31.4h8c0,0,0.6-10.5-8.4-33.4
	c-8.9-22.9-13.2-36.2-15.6-49.7C268.3,124,246.5,128,243.5,132.8z"/>
<path class="st15" d="M288.8,182.8c-5.7-14.5-8.2-23.2-10-27.3c-1.8-4.1-7.6-17.9-13.6-23.4c-2.8-2.6-9.4-3.1-15.6-2.9
	c-3,1-5.3,2.3-6.1,3.6c0,0-0.1,14.5,10.4,42.7c3.2,7.7,5.5,11.6,7,19.4c1.5,7.8,2.4,17,2.1,18.6c1.5,0,4.2,0,6.3,0
	c-0.1-2.2-0.4-13.3-2.4-23.7c-2.2-11.7-5.7-25.1-6.6-30.8c-0.9-5.7-1.9-13.1-1.6-17.3c0.6,0.6,3,7.2,4.2,11.1c0-0.1,0-0.2,0-0.3
	c1.6,5.2,6.1,15.4,15.8,29.5c9.8,14.2,13,31.4,13,31.4h5.8C296.5,208.5,293.4,194.5,288.8,182.8z"/>
<path class="st16" d="M261.9,55.6c0,0,3.5-0.9,4.4,0.4c0.8,1.4,2.1,4.5,7,5.2s8.2,1.6,9.6,6c0.6,1.9,0.2,3.4-0.7,5.8
	c-0.8,2.3-1.7,6.3-2.3,8.3c-0.6,2-6.6,16.8-6.8,17.8c-0.2,1-0.7,4.5-0.4,7.7c0.3,3.3,0.8,8.5,5.3,20.3c0.8,2.3,0.1,3-0.2,3.3
	c-0.3,0.3-13.2,9.2-34.7,7.4c-0.6-0.1-0.9-0.1-0.9-1.2c0-1.1-2.4-27.1-2.4-27.1l-9.9,5.4c0,0-0.7,0.9-2.2-0.4s-4.6-6.8-3.4-7.7
	c1.2-0.9,12.8-9.5,13.6-10.5c0.7-0.9,1-6.5,1-6.5s-0.3-0.3,0.7-0.9c0-1.4,0.1-12,2.2-17.7c2.1-5.7,5.3-6,5.8-6.3
	c0.5-0.2,2.2-0.9,3.7-3.7C251.7,60.2,253.6,57,261.9,55.6z"/>
<path class="st17" d="M267.3,59.8c0,0,5.7,3.4,8.9,4.7c3.2,1.3,4,4.5,3.9,6.1c-0.1,1.7-0.5,4.8-1.7,8.2c-1.2,3.5-7.7,20.3-8.4,22.1
	c-0.7,1.8-1.5,3.8-1.5,3.8s-0.6,3-3.7,2.1c-3.1-0.9-17.8-6.7-22.5-9.4c-0.7-0.8-0.7-0.5-0.6-1.4c0.2-0.9,0.8-6.5-2.1-7.2
	c0,0-0.1-10.4,1.6-14.5c1.7-4.2,3.4-7.4,5.1-8.4c1.7-1,4.3-2.5,4.9-3.8c0,0-4.6,12.3-0.4,22.4c0.9,2.4,1.5,4.4,5.5,8.3
	c0.5,0.5,0.7,1.3,0.7,1.3s0.1,0.2,0.1,0c0.1-0.2,0.2-1-0.6-1.8c-0.8-0.8-3.6-4.1-3.6-4.2c0-0.1-0.1-0.9,0.3-2c0.4-1.2,2-7.2,2.5-8.4
	c0.4-1.3,3.9-12.9,9.1-17.7C265.7,59.3,266.9,59.3,267.3,59.8z"/>
<path class="st16" d="M271.4,66.6c0,0-4.2,10.8-5.7,16.1c-1.5,5.4-2.5,9.7-2.3,12.9c0.1,3.2,0.1,2.5,0.4,4.5c0.3,2,0.2,2.7,0.2,2.7
	s-0.5-6.2-3-8.2c0.4-1.8,2.8-8.5,3.4-10.4c0.6-1.9,2.3-6.5,2.8-9.6s0.8-3.8,0.8-3.8s-0.4,3.6-0.4,4S271.4,66.6,271.4,66.6z"/>
<path class="st17" d="M242.2,136.9c15,0.6,16.9-0.9,17.5-1c0.7-0.1,0.4-0.6,0.4-0.6s-0.1-0.5-0.1-1.2c-0.6-23.5-2.5-27.7-2.5-27.7
	c-0.2-0.7-0.6-0.7-1-1c-11.5-3.2-18.3-6.8-18.3-6.8l-2-1c-3,2.4-9.7,7.4-11.6,8.9c5.5,1.3,5.1,6.2,5.1,6.2c5.6-2.8,8.8-8,9.4-8.7
	c-0.2,1.5,0.7,5.6,0.7,5.6s2.4,26,2.4,27.1C242.2,136.7,242.2,136.8,242.2,136.9z"/>
<path class="st16" d="M247,110.2c0.8,0,1.4-1,1.4-2.2c0-1.2-0.6-2.2-1.4-2.2c-0.8,0-1.4,1-1.4,2.2
	C245.6,109.3,246.3,110.2,247,110.2z"/>
<path class="st16" d="M248.1,118.6c0.8,0,1.5-1,1.5-2.3s-0.7-2.3-1.5-2.3c-0.8,0-1.5,1-1.5,2.3S247.3,118.6,248.1,118.6z"/>
<path class="st16" d="M253.1,110.4c0.8,0,1.5-1.1,1.5-2.4c0-1.3-0.7-2.4-1.5-2.4c-0.8,0-1.5,1.1-1.5,2.4
	C251.6,109.4,252.3,110.4,253.1,110.4z"/>
<path class="st16" d="M254.1,118.6c0.7,0,1.3-1.1,1.3-2.4c0-1.3-0.6-2.4-1.3-2.4c-0.7,0-1.3,1.1-1.3,2.4
	C252.7,117.6,253.3,118.6,254.1,118.6z"/>
<path class="st16" d="M246.7,110.2c0.8,0,1.4-1,1.4-2.2c0-1.2-0.6-2.2-1.4-2.2c-0.8,0-1.4,1-1.4,2.2
	C245.3,109.3,245.9,110.2,246.7,110.2z"/>
<path class="st16" d="M247.7,118.6c0.8,0,1.5-1,1.5-2.3s-0.7-2.3-1.5-2.3c-0.8,0-1.5,1-1.5,2.3S246.9,118.6,247.7,118.6z"/>
<path class="st16" d="M252.7,110.4c0.8,0,1.5-1.1,1.5-2.4c0-1.3-0.6-2.4-1.5-2.4c-0.8,0-1.5,1.1-1.5,2.4
	C251.3,109.4,251.9,110.4,252.7,110.4z"/>
<path class="st16" d="M253.7,118.6c0.7,0,1.3-1.1,1.3-2.4c0-1.3-0.6-2.4-1.3-2.4c-0.7,0-1.3,1.1-1.3,2.4
	C252.4,117.6,253,118.6,253.7,118.6z"/>
<path class="st13" d="M263.9,53.6c0,0-0.4-2.1-0.2-3.4c0.2-1.3,2.7-4.4,2.8-5.6c0.1-1.2-1.4-11.9-1.4-11.9s-15-3.7-16.2-3.6
	c-1.2,0.1-5.3,2.3-5.3,2.3s-1,4.6-0.8,5.8c0.2,1.2,1.1,2.3,1.1,2.7c0,0.4,0,0.8-0.5,1.9c-0.6,1-2.5,4.3-2.5,4.3s-0.4,0.9,0.5,1.5
	c0.9,0.6,2,0.7,2.2,0.7c0.2,0.1,0.4,1.2,0.4,1.2l2.4,5.2l5.3,1.3l0.6,2.4l7.3-1.8L263.9,53.6z"/>
<path class="st12" d="M254.4,32.9c-1.1-1.1-2.9-1.2-4.1-0.2c-0.7,0.6-0.8,0.8-1.2,1.4c-0.4,0.6-1,0.5-1,0.5l-1.6-1.3l-1.7,0.2
	c0,0-1.8,1.6-1.9,3.8c0.3,1.1,1,2.1,1,2.5c0,0.4,0,0.8-0.5,1.9c-0.6,1.1-2.5,4.3-2.5,4.3s-0.4,0.9,0.5,1.5c0.9,0.6,2,0.7,2.2,0.7
	c0.2,0.1,0.4,1.2,0.4,1.2l2.2,4.9h1.1c0,0,7.8-4.1,7.9-4.2c0.1-0.2,0.6-4.8,0-6.8c-0.1-1.2-0.1-2.7,0-4.4
	C255.3,37.2,256.3,34.7,254.4,32.9z"/>
<path class="st12" d="M263.5,53.8C263.5,53.8,263.5,53.8,263.5,53.8c-1.9-3.6-2.3-6.2-0.3-8.5c1.2-1.4,0.9-3.1,0.3-3.8
	c-0.6-0.7-2-1.4-3.6-0.6c-1.9,1-1.3,4.6-0.8,5.7c0.5,1.2,1.5,1.7,1.1,4c-0.2,1.2-4.4,6.8-4.4,6.8l0,0.1l3.7-0.9L263.5,53.8z"/>
<path class="st14" d="M263.7,52.9v0.3c0,0-3.2,2.5-6.5,2.8c-3.3,0.4-4.6,0.5-5.2,0.3c-0.2,0.1-0.3,4.8-0.3,4.8s-5.1,13.8,0.3,25.2
	c0,0,0.3,0.8,0.5,0c0.3-0.8,2.8-10.8,6.8-19.1c0,0,2.9-5.7,5.5-8.2c0.8-1.1,0.3-2.7,0.3-2.7S264.7,52.7,263.7,52.9z"/>
<path class="st14" d="M263.7,54.6c0,0-1.9,1.7-7.1,3c-5.2,1.3-6.6,12.6-6.6,12.6s-1,9.9,2.1,15.8c0.1,0.2,0.2,0.4,0.3,0.5
	c0-0.1,0.1-0.1,0.1-0.3c0.3-0.8,2.8-10.8,6.8-19.1c0,0,1.6-3,3.4-5.6c0.3-0.8,0.6-1.7,0.9-2.1c0.6-0.9,0.8-1.4,0.6-2.6
	C264,55.6,263.7,54.6,263.7,54.6z"/>
<path d="M253.8,32.3c-1.1-0.5-2.3-0.6-3.4-0.1c-0.7,0.3-1.3,0.7-1.5,1.5c0,0,0,1.2-0.9,1c-1-0.2-1-0.2-1-0.1c0,0.1-0.2,0.7,0.3,1.2
	c0,0.1,0,0.2-0.1,0.2c-0.8,0-3.2-0.6-3.7-2.7c-0.3-1.1,0-2.2,0.7-3.1c1.3-1.6,4.4-4.5,8.8-4.7c5.9-0.3,11.1,1.4,13.8,4.6
	c2.5,3,4.9,8,1.4,15.1c-3.5,7.1-5,5.9-5,5.9s-2.4-2.1-0.7-3.9c1.6-1.9,3.7-5.3-0.1-6.9c-1-0.4-2.2,0-2.8,0.3
	c-1.4,0.7-1.7,3.4-1.2,5.4c0.5,2.3,2.2,3.5,0,6.3c-2.2,2.8-5.5,6.8-10.1,6.7c0,0-3,0.4-3.3-1.8c-0.3-2.2-0.3-2-0.5-2.5
	c-0.1-0.5,0-2,0-2.3c-0.1-0.3-1.6-1.9-0.6-3.6c1.1-0.1,1.6,0.9,3.1,1.4c1.4,0.5,5.9,1.4,7.5-2c0.1-0.3,0.3-0.5,0.5-0.8
	c0.2-0.3,0.5-0.9,0.5-2.1c0-2-0.2-4.8,0.1-6.7C255.9,36.7,256.5,33.6,253.8,32.3z"/>
<path class="st3" d="M245.4,38.8c0,0-0.1,0-0.1,0.3c0,0.3,0.1,0.3,0.1,0.3s1.8-0.2,3.9,0.9c0.2,0.1,0.3,0.1,0.3,0
	c0.1-0.1,0-0.2-0.2-0.3C249.2,39.8,248.2,38.7,245.4,38.8z"/>
<path class="st3" d="M246,41.3c0.3,0,0.5-0.4,0.5-1c0-0.6-0.2-1-0.5-1c-0.3,0-0.5,0.4-0.5,1C245.6,40.8,245.8,41.3,246,41.3z"/>
<path class="st18" d="M153.2,29.6l75-0.6c0.6,0,1.1,0.1,1.7,0.3c0.5,0.2,1,0.5,1.4,0.9c0.4,0.4,0.7,0.9,1,1.4
	c0.2,0.5,0.3,1.1,0.3,1.6v72.1c0,1.1-0.5,2.2-1.3,3c-0.8,0.8-1.9,1.2-3.1,1.2h-2.6l-7.1,0H111.4l-11,0h-5.6c-0.4,0-0.8-0.1-1.1-0.2
	c-0.4-0.1-0.7-0.4-1-0.6c-0.3-0.3-0.5-0.6-0.6-0.9c-0.1-0.3-0.2-0.7-0.2-1.1v-9.2V86.3v-0.8V15.9c0-0.6,0.1-1.1,0.3-1.6
	c0.2-0.5,0.5-1,0.9-1.4c0.4-0.4,0.9-0.7,1.4-0.9c0.5-0.2,1.1-0.3,1.7-0.3h35c0.6,0,1.1,0.1,1.7,0.3c0.5,0.2,1,0.5,1.4,0.9l15.8,15.5
	c0.4,0.4,0.9,0.7,1.4,0.9C152.1,29.5,152.6,29.6,153.2,29.6z"/>
<path class="st19" d="M153.2,59H145c-1.7,0-3.1,1.4-3.1,3.1v8.2c0,0.1,0.1,0.3,0.1,0.4c0.2,0.3,0.6,0.3,0.8,0.1
	c1-0.8,2.2-1.2,3.5-1.2c1.3,0,2.5,0.4,3.5,1.2c2.3,1.9,2.6,5.3,0.7,7.6c-1.9,2.3-5.3,2.6-7.7,0.7c-0.1-0.1-0.2-0.1-0.4-0.1
	c-0.3,0-0.6,0.3-0.6,0.6v7.1c0,1.7,1.4,3.1,3.1,3.1h24.5c1.7,0,3.1-1.4,3.1-3.1v-7.1c0-0.3,0.3-0.6,0.6-0.6c0.1,0,0.3,0.1,0.4,0.1
	c2.3,1.9,5.7,1.6,7.6-0.7c1.9-2.3,1.6-5.7-0.7-7.6c-1-0.8-2.2-1.2-3.5-1.2c-1.3,0-2.5,0.4-3.5,1.2c-0.2,0.2-0.6,0.2-0.8-0.1
	c-0.1-0.1-0.1-0.2-0.1-0.4v-8.2c0-1.7-1.4-3.1-3.1-3.1h-7.1c-0.3,0-0.6-0.3-0.6-0.6c0-0.1,0-0.3,0.1-0.4c1.9-2.3,1.6-5.7-0.7-7.6
	c-2.3-1.9-5.7-1.6-7.7,0.7c-0.8,1-1.2,2.2-1.2,3.5c0,1.3,0.4,2.5,1.2,3.5c0.2,0.2,0.2,0.6-0.1,0.8C153.5,59,153.3,59,153.2,59z"/>
<path class="st4" d="M95.5,108.7c2.3,0,2.2,0,3.3,0c1.1,0,2.8,0,3.1,0c0-0.2,0-2.6,0.6-3.6c0.1-0.2,0.4-0.1,0.4,0.1
	c0,0.4,0,0.8,0.1,1.2c0.1,0.2,0.2,0.9,0.2,1.2c0,0.5-0.4,2,0.1,2c0.5,0,1.9-1.5,3.3-3.4c1-0.9,1.9-2.6,4-2.4
	c0.5,0.1,0.3,0.3,0.2,0.4c-0.1,0.1-0.8,0.8-0.8,1c0,0,3.3-2.4,5-1.6c0.3,0.1,0.6,0.3-0.5,0.9c-1.2,0.6-1.5,0.9-1.5,0.9
	s2.2-0.5,3.1,0.1c0.1,0.1-0.4,0.4-0.4,0.4s-2,1.1-2.8,1.7c-0.8,0.6-1.2,0.5-1.2,0.5c-0.6,0.2-3.7,2.8-3.7,2.8l-0.6,0.7
	c0,0-0.4,0.3-0.6,0.4c-0.2,0.1-0.5,0.1-0.7,0.3c-0.2,0.2-0.4,0.3-0.8,0.6c-0.4,0.2-1.2,0.3-1.5,0.4c-0.3,0.1-0.5,0.4-0.9,0.5
	c-0.4,0.1-1.1-0.1-1.6-0.1c-0.5,0.1-1.2,0.3-1.8,0.3c-0.6,0-2.1-0.7-3.2-1c-1.5-0.3-3.2-0.6-3.2-0.6c-0.1,0-0.6,0-2.2-1.5
	c-0.7-0.7-1.8-1.6-2.8-2.3C91.2,108.7,93.2,108.7,95.5,108.7z"/>
<path class="st5" d="M114.1,106.8C114.1,106.8,114.1,106.8,114.1,106.8c-0.3,0.2-2.1,1-2.6,1.2c-0.5,0.3-2,1.4-2,1.5
	s-1.1,0.8-0.8,0.4c0.3-0.4,2.1-2.2,2.4-2.5c0.3-0.3,1.2-0.9,1.8-1.3c0.6-0.4,1.7-0.5,2.7-0.5c0.2,0,0.4,0.1,0.4,0.2
	c0.1-0.1,0.2-0.1,0.1-0.2c-0.9-0.6-3.1-0.1-3.1-0.1s0.4-0.2,1.5-0.9c1.2-0.6,0.9-0.8,0.5-0.9c-0.1-0.1-0.2-0.1-0.3-0.1
	c-0.1,0.1-0.1,0.2,0.1,0.3c0.3,0.1,0.2,0.3-0.4,0.6c-0.6,0.3-2.7,1.9-3.9,3c-1.2,1.1-2,2.2-2.8,3.3s-1.8,1.3-2.5,1.3
	c-0.6,0,1.3-2.1,1.4-2.2c0.1-0.1,0.5-0.6,1-1.4c0.5-0.8,2-2.3,2-2.3l0.9-1.1c-0.2,0.2-0.4,0.3-0.4,0.3c0,0,0-0.1,0-0.1h0
	c0,0-1.4,1.4-1.9,1.9c-0.5,0.5-1.4,1.8-1.4,1.8s-0.5,0.7-1,1.3c-0.5,0.6-1,1.4-1.4,2c-0.4,0.6-1.1,0.6-1.8,0.5
	c-0.7-0.1,1.2-2.8,1.2-2.8l1.8-1.7l1.7-1.9c0,0,0.7-0.9,2-1.7c1-0.6,1.3-0.3,1.4,0c0.1-0.1,0.1-0.1,0.2-0.1c0.1-0.1,0.3-0.4-0.2-0.4
	c-2.1-0.2-3.1,1.5-4,2.4c0,0-1,1.1-1.3,1.4c-0.6,0.6-1.8,2-2,2c-0.1,0-0.2,0.3-0.7,1.4c-0.5,1.1-1.2,1.7-2,2.2
	c-0.7,0.5-3.1-0.5-4.5-0.9c-1.5-0.4-1.5-1.5-1.5-1.5s0.2-1.1-1-0.5c-1.2,0.6-3.2-1.1-3.4-1.2c-0.1-0.1-0.3-0.3-0.4-0.3
	c-0.2,0-1.2,0-1.5,0c1,0.7,2,1.5,2.8,2.3c1.5,1.5,2.1,1.5,2.2,1.5c0.1,0,1.8,0.3,3.2,0.6c1.1,0.2,2.6,1,3.2,1c0.6,0,1.3-0.2,1.8-0.3
	c0.5-0.1,1.2,0.2,1.6,0.1c0.4-0.1,0.6-0.4,0.9-0.5c0.3-0.1,1.1-0.2,1.5-0.4c0.4-0.2,0.6-0.4,0.8-0.6c0.2-0.2,0.5-0.2,0.7-0.3
	c0.2-0.1,0.6-0.4,0.6-0.4l0.6-0.7c0,0,3.1-2.6,3.7-2.8c0,0,0.4,0,1.2-0.5C113.1,107.4,113.6,107.1,114.1,106.8z"/>
<path class="st5" d="M72.9,96.4C72.9,96.4,72.9,96.4,72.9,96.4h0.2H72.9z"/>
<path class="st5" d="M102.9,105.3c0-0.3-0.1-0.3-0.3-0.3c-0.7,0.7-0.7,3.4-0.7,3.7c-0.3,0-2,0-3.1,0c-1.1,0-0.9,0-3.3,0
	c-1.3,0-4.3,0-5.7,0c0.5,0.4,3.8,0.2,4.3,0.4c0.6,0.2,2.3-0.2,4.3,0.4c1.1,0.4,2.2,1.6,2.5,1.1c0.4-0.5,0.9-0.9,0.9-1.2
	c0.1-0.5,0.2-1.8,0.3-3.1C102.3,105.8,102.6,104.9,102.9,105.3z"/>
<path class="st12" d="M229.2,84.6c0,0,1.9,0.3,2.9,0.4c1.1,0.1,1.1,0.3,1.6,0.7c0.6,0.4,3.2,2.6,3.6,2.9c0.4,0.2,2,1.3,2.5,1.5
	c0.5,0.3,1.8,1.6,1.2,3.9c-0.7,2.3-1.4,3.4-2.8,3.8c-1.3,0.5-2.2-0.7-2.2-0.7l-0.5-0.8c0,0-2.7-0.4-4.6-1.5
	c-1.2-0.1-0.7-0.3-1.5-0.3c-0.7,0-4.5,0.2-4.9,0c-0.5-0.1-1.6-0.9-1.3-1c0.4-0.1,0.7-0.2,1.4-0.2s1.8-0.2,1.8-0.2l2.1-0.2
	c0,0,0.6-0.7-0.4-0.7c-1,0-4.6-0.1-5.3-0.2c-0.7-0.1-2.2-0.5-2.2-0.9c-0.1-0.4,0.4-0.7,0.4-0.7s1.7,0.1,2.4,0.1c0.7,0,1.9,0,2.9,0
	s1.7-0.1,1.9-0.1c0.2-0.1,1.2-0.5,0.3-0.7c-0.9-0.2-1.9-0.6-1.9-0.6s-2.8-0.1-3.9-0.6c-1.2-0.5-3.2-0.1-3.4-2.2
	c0.3-0.4,2.4,0.3,3.5,0.4c1.1,0.1,3.5,0.2,3.5,0.2s0.9-0.1,1.3-0.1c0.4,0.1-0.8-0.5-0.9-0.5c-0.1,0-2.1-0.2-2.7-0.4
	c-0.7-0.2-3.3-0.5-3-2.1c0.1-0.5,0.4-0.5,1.1-0.3c0.8,0.1,2.7,0.4,2.7,0.4S228,84.4,229.2,84.6z"/>
<path class="st12" d="M223.7,109.6c0,0,1.2,0,2.2,0c2,0,3.3,4.1,1.4,4.6c-3,0.8-3.1-0.2-3.1-0.2l-5,0.1c0,0-0.4-0.1-0.8-0.3
	c-0.4-0.2-1.1-0.1-1.1-0.2c-0.1,0-0.6-0.1-0.8-0.2c-0.2-0.2-0.9-0.5-1-0.6c-0.1-0.2-0.6-0.3-0.7-0.6c-0.1-0.3-0.7-0.7-0.9-1.3
	c-0.2-0.6-0.3-0.6-0.4-1c0-0.4,0-1.2,0-2s-0.2-1.9-0.2-1.9c0-0.1-0.2-0.7-0.1-1.3c0-0.5-0.2-2.6-0.3-2.8c0-0.2-0.3-1.3-0.1-1.4
	s1.1-0.2,1.3,0.5c0,0-0.1-1.9,0.1-2.4c0.2-0.4,1.2-0.3,1.6,0.8c0.4,1.1,0.8,3,0.7,3.4c0,0.4,0.5,1.9,0.5,2.5c0,0,0.2-1.7,0.2-2.1
	c0-0.4,0-2,0.1-2.3c0.1-0.4,1.4-0.6,1.6,1.3c0.2,1.9,0,2.2,0,2.4c0,0.2,0.1,1.3,0.1,2c0,0.7,0.3,1.3,0.3,1.3s0.1-1.4,0.3-1.9
	c0.2-0.5,0.6-3.1,0.6-3.3c0-0.2,1.2-0.3,1.2,0.8c0,1.1-0.3,2.2-0.3,2.2c0,0.1,0.2,1.4,0,1.8c-0.1,0.4,0.1,0.9,0.1,0.9
	s0.1,0.5-0.3,1.4C221.1,109.6,222.7,109.6,223.7,109.6z"/>
<path class="st13" d="M241,94.1c0.7-2.3-0.7-3.7-1.2-3.9c-0.3-0.2-1.1-0.7-1.8-1.1c1.1,1.5,2.2,3.9-0.5,6.1
	c-0.7,0.6-3.5-0.1-3.5-0.1s-3.8-1.2-4.6-1.1c-0.8,0.1-5.3,0.2-6-0.3c-0.1,0-0.1,0-0.2,0.1c-0.4,0.1,0.8,0.9,1.3,1
	c0.5,0.1,4.2,0,4.9,0c0.7,0,0.3,0.1,1.5,0.3c1.9,1.2,4.6,1.5,4.6,1.5l0.5,0.8c0,0,0.8,1.2,2.2,0.7C239.6,97.4,240.3,96.4,241,94.1z"
	/>
<path class="st13" d="M221.1,83.8c0,0,0,0.1-0.1,0.2c-0.3,1.6,2.4,1.9,3,2.1c0.7,0.2,2.6,0.4,2.7,0.4c0.1,0,1.3,0.5,0.9,0.5
	c-0.1,0-0.3,0-0.5,0c0.7,0.1,1.7,0.2,2.3,0.4c1,0.4-2.3-1.1-2.6-1.2c-0.6-0.1-1.3-0.2-2.4-0.5c-0.7-0.2-1.4-0.2-1.7-0.4
	C222.4,85.2,221.3,84.4,221.1,83.8z"/>
<path class="st13" d="M222.7,88.7c1.2,0.5,3.9,0.6,3.9,0.6s1,0.4,1.9,0.6c0.3,0.1,0.4,0.2,0.4,0.3l0.6,0c0,0-1.9-1-2.8-1.1
	c-0.9,0-2.6-0.2-4-0.7c-0.8-0.3-1.4-0.4-1.4-0.4s-1.4-0.3-1.7-1.6c-0.2,0-0.3,0-0.3,0.1C219.4,88.6,221.5,88.2,222.7,88.7z"/>
<path class="st13" d="M228.2,92.4c0.3,0,0.4,0.1,0.5,0.1c0.1,0,0.2,0,0.2,0s-0.9-0.4-2.8-0.4c-1.8,0-4.4,0.1-5.2-1.3
	c-0.1,0.1-0.2,0.3-0.2,0.5c0.1,0.4,1.5,0.8,2.2,0.9C223.6,92.3,227.2,92.4,228.2,92.4z"/>
<path class="st13" d="M226.3,111.3c0,0-4.2,4.2-12.2-0.3c0.2,0.5,0.6,0.8,0.8,1c0.1,0.3,0.6,0.4,0.7,0.6c0.1,0.2,0.8,0.5,1,0.6
	c0.2,0.2,0.8,0.2,0.8,0.2c0.1,0,0.7-0.1,1.1,0.2c0.4,0.2,0.8,0.3,0.8,0.3l5-0.1c0,0,0.1,0.8,2.1,0.5L226.3,111.3z"/>
<path class="st20" d="M241,94.1c0.7-2.3-0.7-3.7-1.2-3.9c-0.2-0.1-0.6-0.4-1.1-0.7c0.8,1.1,1.4,2.5,0.5,4.3
	c-1.3,2.5-2.9,2.8-3.7,2.7h0l0.5,0.8c0,0,0.8,1.2,2.2,0.7C239.6,97.4,240.3,96.4,241,94.1z"/>
<path class="st20" d="M225,109.6c0.3,0.7,0.5,1.6,0.3,2.5c-0.1,0.6-0.5,1.2-1,1.9c0,0,0,0.5,1.3,0.5c0.4,0,1.1-0.1,1.9-0.3
	c2.6-0.6,2.2-3,1.1-4.7C227.9,109.7,226.2,109.6,225,109.6z"/>
<path class="st13" d="M215,106.3c0-0.4-0.3-0.9-0.3-1.6c0-0.6-0.4-2.9-0.5-3.9c-0.3-0.6-1.1-0.6-1.3-0.4c-0.1,0.1-0.1,0.3-0.1,0.6
	c0.5,0,1.2,0.1,1.3,0.8c0.1,1.2,0.1,2.5,0.3,3c0.1,0.5,0.3,1,0.4,1.6c0.1,0.6,0.4,1.8,0.4,1.8S215,106.6,215,106.3z"/>
<path class="st13" d="M216.4,102.5c0.2,1.1,0.1,2.1,0.2,2.9c0.2,0.8,0.3,2.6,0.3,2.6s0.2-1.1,0.3-2.3c0.1-1.2,0-3.1,0-3.1
	c0,0.2,0,0.3,0,0.4c0,0.4-0.2,2.1-0.2,2.1c0-0.6-0.5-2.1-0.5-2.5c0-0.4-0.3-2.3-0.7-3.4c-0.4-1.1-1.4-1.2-1.6-0.8
	c-0.1,0.1-0.1,0.4-0.1,0.7C215.7,98.3,216.2,101.5,216.4,102.5z"/>
<path class="st13" d="M219.3,107.6c0-0.1-0.4-0.6-0.3-1.3c0-0.7-0.1-1.8-0.1-2c0-0.2,0.2-0.5,0-2.4c-0.2-1.9-1.6-1.6-1.6-1.3
	c0,0.1,0,0.2,0,0.4c0.3-0.1,0.8-0.2,1,0.4c0.3,0.8,0.6,1.5,0.5,2.3c-0.1,0.8,0,2.3,0,2.3s0.1,1.2,0.1,1.7c0.1,0.4,0.3,1,0.3,1.3
	C219.3,108.7,219.3,108.1,219.3,107.6z"/>
<path class="st13" d="M219.3,109.1c0,0,0-0.1,0-0.2C219.3,109.1,219.3,109.2,219.3,109.1z"/>
<path class="st13" d="M221,103c0.2,0.4,0.4,0.7,0.2,1.4c-0.1,0.7-0.3,1.4-0.2,2.1c0,0.8,0.3,1.8,0.2,2.3c-0.1,0.5-0.1,0.8-0.1,0.8
	l0.1-0.3c0.1-0.3,0.2-0.7,0.1-1l0-0.1c0,0-0.3-0.5-0.1-0.9c0.1-0.4,0-1.7,0-1.8c0-0.1,0.3-1.1,0.3-2.2c0-1.1-1.2-1-1.2-0.8
	c0,0,0,0.2-0.1,0.4C220.4,102.8,220.8,102.7,221,103z"/>
</svg>
