<svg width="300" height="193" viewBox="0 0 300 193" fill="none" xmlns="http://www.w3.org/2000/svg"> <path d="M200.134 100.103V59.7016C200.134 52.4271 194.279 46.5418 187.07 46.5418H93.4914L77.8573 36.2994H34.8918C27.5198 36.2994 21.6147 42.4372 21.8279 49.8507L23.2947 100.103H200.134V100.103Z" fill="#BCDAEF"/> <path d="M70.0278 166.377C69.9155 166.108 69.7132 165.86 69.4211 165.658C69.129 165.456 68.7694 165.299 68.3649 165.209C67.9604 165.119 67.4885 165.096 66.9941 165.141C66.9492 165.141 66.9267 165.141 66.8818 165.164C66.8368 165.164 66.8144 165.164 66.7694 165.186C66.7245 165.186 66.702 165.209 66.6571 165.209C66.6121 165.209 66.5896 165.231 66.5447 165.231C66.5222 165.164 66.4773 165.096 66.4548 165.051C66.4323 164.984 66.3874 164.917 66.3649 164.872C66.3424 164.804 66.2975 164.737 66.275 164.692C66.2526 164.624 66.2076 164.579 66.1851 164.512C66.1627 164.49 66.1402 164.445 66.1177 164.422C66.0953 164.377 66.0728 164.332 66.0503 164.287C66.0278 164.242 66.0054 164.197 66.0054 164.152C66.0054 164.108 66.0278 164.085 66.0503 164.063C66.1627 163.995 66.2526 163.905 66.3424 163.838C66.4323 163.77 66.5222 163.681 66.6121 163.591C66.702 163.501 66.7919 163.433 66.8593 163.343C66.9267 163.254 67.0166 163.186 67.084 163.096C67.2863 162.872 67.3986 162.669 67.511 162.49C67.6009 162.287 67.6683 162.085 67.7132 161.905C67.7357 161.703 67.7357 161.523 67.7132 161.321C67.6683 161.141 67.6009 160.961 67.4885 160.782C67.4436 160.692 67.3762 160.624 67.3312 160.534C67.2638 160.445 67.2189 160.377 67.129 160.287C67.0616 160.197 66.9941 160.13 66.9042 160.063C66.8144 159.995 66.7245 159.928 66.6346 159.86C66.5896 159.838 66.5672 159.815 66.5222 159.815C66.4773 159.793 66.4548 159.793 66.4099 159.793C66.3649 159.793 66.3424 159.77 66.2975 159.77C66.2526 159.77 66.2301 159.77 66.1851 159.77C66.1177 159.77 66.0503 159.793 66.0054 159.815C65.938 159.838 65.893 159.86 65.8256 159.905C65.7582 159.928 65.7132 159.973 65.6683 160.018C65.6233 160.063 65.5559 160.085 65.511 160.13C65.3087 160.287 65.1739 160.467 65.0391 160.669C64.9267 160.849 64.8368 161.051 64.7919 161.254C64.7469 161.456 64.7245 161.658 64.7245 161.838C64.7245 162.04 64.7694 162.22 64.8144 162.422C64.8368 162.49 64.8818 162.557 64.9267 162.647C64.9717 162.737 65.0391 162.827 65.0615 162.917C65.1065 163.006 65.129 163.096 65.129 163.186C65.129 163.276 65.1065 163.343 65.0166 163.411C64.9042 163.501 64.7694 163.568 64.6571 163.658C64.5447 163.748 64.4099 163.815 64.2975 163.905C64.1851 163.995 64.0728 164.085 63.9379 164.175C63.8256 164.265 63.7132 164.355 63.6009 164.445C63.3986 164.602 63.1964 164.782 63.0166 164.961C62.8593 165.096 62.702 165.276 62.5447 165.478C62.3874 165.681 62.275 165.86 62.1851 166.063C62.0952 166.265 62.0503 166.467 62.0278 166.692C62.0054 167.074 62.1402 167.456 62.3424 167.77C62.5672 168.108 62.9042 168.4 63.3312 168.624C63.7582 168.849 64.2526 169.029 64.8144 169.141C65.3762 169.231 66.0054 169.254 66.6346 169.186C66.7245 169.186 66.8368 169.164 66.9267 169.141C67.0166 169.119 67.129 169.119 67.2189 169.096C67.3087 169.074 67.4211 169.051 67.511 169.029C67.6009 169.006 67.7132 168.984 67.8031 168.939C67.893 169.119 68.0278 169.321 68.1402 169.546C68.275 169.77 68.3874 169.995 68.4998 170.22C68.5896 170.467 68.6571 170.692 68.6571 170.939C68.6571 171.186 68.5896 171.411 68.4323 171.658C68.3649 171.748 68.275 171.838 68.1851 171.928C68.0953 172.018 67.9829 172.085 67.8705 172.153C67.7582 172.22 67.6458 172.265 67.511 172.332C67.3762 172.377 67.2413 172.422 67.084 172.467C67.0616 172.467 67.0166 172.49 66.9941 172.49C66.9717 172.49 66.9267 172.512 66.8818 172.512C66.8368 172.512 66.8144 172.535 66.7694 172.535C66.7245 172.535 66.702 172.535 66.6571 172.557C66.5447 172.579 66.4099 172.579 66.275 172.579C66.1402 172.579 66.0278 172.579 65.9155 172.557C65.8031 172.535 65.7132 172.512 65.6233 172.467C65.5559 172.422 65.4885 172.355 65.466 172.287C65.4885 172.287 65.4885 172.287 65.511 172.287C65.5335 172.287 65.5335 172.287 65.5559 172.287C65.5784 172.287 65.5784 172.287 65.6009 172.287C65.6009 172.287 65.6233 172.287 65.6458 172.287C65.938 172.242 66.1851 172.152 66.3874 172.04C66.5896 171.905 66.7245 171.77 66.7919 171.591C66.8593 171.433 66.8818 171.254 66.8144 171.096C66.7469 170.939 66.6121 170.782 66.3874 170.669C66.32 170.624 66.2526 170.602 66.1627 170.579C66.0953 170.557 66.0054 170.535 65.938 170.535C65.8705 170.535 65.7806 170.512 65.7132 170.512C65.6458 170.512 65.5559 170.512 65.4885 170.512C65.3087 170.535 65.1514 170.579 64.9941 170.647C64.8368 170.714 64.6795 170.804 64.5672 170.894C64.4323 170.984 64.32 171.096 64.2526 171.231C64.1627 171.344 64.1177 171.478 64.0953 171.613C64.0503 171.838 64.0953 172.063 64.2301 172.22C64.3649 172.4 64.5447 172.535 64.7919 172.647C65.0391 172.737 65.3312 172.804 65.6233 172.849C65.938 172.872 66.275 172.872 66.6121 172.827C66.8818 172.804 67.1514 172.737 67.3986 172.669C67.6458 172.602 67.893 172.512 68.1177 172.4C68.3425 172.287 68.5222 172.175 68.6795 172.018C68.8368 171.883 68.9492 171.726 69.0391 171.546C69.129 171.321 69.1739 171.096 69.1514 170.894C69.129 170.669 69.084 170.467 68.9941 170.265C68.9043 170.063 68.7919 169.86 68.702 169.658C68.5896 169.456 68.4998 169.276 68.4099 169.096C68.3649 169.029 68.3425 168.961 68.3425 168.917C68.32 168.872 68.32 168.849 68.3425 168.804C68.3649 168.782 68.3874 168.759 68.4323 168.714C68.4773 168.692 68.5672 168.647 68.6571 168.602C68.7245 168.579 68.7694 168.535 68.8368 168.512C68.8818 168.49 68.9492 168.445 68.9941 168.422C69.0391 168.4 69.1065 168.355 69.1514 168.31C69.1964 168.265 69.2413 168.242 69.3087 168.197C69.3986 168.13 69.4885 168.063 69.5559 167.995C69.6458 167.928 69.7132 167.86 69.7807 167.77C69.8481 167.703 69.893 167.613 69.9604 167.546C70.0054 167.456 70.0503 167.388 70.0728 167.299C70.1627 166.984 70.1402 166.669 70.0278 166.377ZM65.2863 161.883C65.3087 161.748 65.3537 161.613 65.3986 161.501C65.4211 161.433 65.466 161.343 65.5335 161.254C65.6009 161.164 65.6683 161.074 65.7582 160.984C65.8481 160.894 65.9604 160.804 66.0728 160.737C66.1851 160.669 66.32 160.624 66.4773 160.602C66.4998 160.602 66.5222 160.602 66.5447 160.602C66.5672 160.602 66.5896 160.602 66.6121 160.602C66.6346 160.602 66.6571 160.602 66.6795 160.602C66.702 160.602 66.7245 160.602 66.7694 160.624C66.9267 160.647 67.0166 160.714 67.084 160.804C67.1514 160.894 67.1739 160.984 67.1739 161.074C67.1739 161.186 67.1514 161.276 67.1065 161.388C67.0616 161.501 67.0166 161.591 66.9717 161.658C66.9042 161.77 66.8144 161.883 66.7245 162.018C66.6346 162.13 66.5222 162.242 66.4099 162.355C66.2975 162.467 66.1627 162.579 66.0278 162.669C65.893 162.782 65.7357 162.872 65.5784 162.984C65.5784 162.984 65.5784 162.984 65.5559 163.006C65.5559 163.006 65.5335 163.006 65.5335 163.029H65.511H65.4885C65.4211 162.917 65.3537 162.782 65.3087 162.647C65.2638 162.512 65.2413 162.4 65.2189 162.265C65.2638 162.13 65.2638 161.995 65.2863 161.883ZM67.6683 168.647C67.6458 168.692 67.6009 168.714 67.511 168.737C67.4436 168.759 67.3762 168.782 67.3087 168.782C67.2413 168.804 67.1739 168.804 67.084 168.827C67.0166 168.849 66.9267 168.849 66.8593 168.872C66.7919 168.894 66.702 168.894 66.6346 168.894C66.4099 168.917 66.1627 168.939 65.938 168.939C65.7132 168.939 65.4885 168.917 65.2638 168.894C65.0391 168.872 64.8368 168.827 64.6346 168.782C64.4323 168.737 64.2526 168.669 64.0728 168.602C63.5559 168.377 63.2638 168.085 63.129 167.77C62.9941 167.456 63.0166 167.119 63.1514 166.782C63.2863 166.445 63.511 166.108 63.8031 165.793C64.0953 165.478 64.4323 165.186 64.7919 164.917C64.8593 164.872 64.9492 164.804 65.0166 164.759C65.084 164.714 65.1739 164.647 65.2638 164.602C65.3537 164.557 65.4211 164.49 65.511 164.445C65.6009 164.4 65.6683 164.332 65.7582 164.287C65.7806 164.332 65.8031 164.4 65.8256 164.445C65.8481 164.49 65.8705 164.557 65.893 164.602C65.9155 164.647 65.938 164.714 65.9604 164.759C65.9829 164.804 66.0054 164.872 66.0278 164.917C66.0503 164.961 66.0728 165.006 66.0953 165.051C66.1177 165.096 66.1402 165.141 66.1627 165.164C66.1851 165.209 66.1851 165.254 66.1627 165.276C66.1402 165.321 66.0953 165.343 66.0278 165.366C65.9155 165.411 65.7806 165.478 65.6683 165.523C65.5559 165.591 65.4436 165.636 65.3537 165.703C65.2638 165.77 65.1739 165.838 65.084 165.905C64.9941 165.973 64.9267 166.063 64.8593 166.13C64.7245 166.287 64.6346 166.445 64.5896 166.624C64.5447 166.782 64.5447 166.961 64.5896 167.119C64.6346 167.276 64.7245 167.433 64.8368 167.568C64.9717 167.703 65.129 167.838 65.3537 167.928C65.3762 167.928 65.4436 167.95 65.511 167.995C65.6009 168.018 65.7132 168.063 65.8256 168.085C65.938 168.108 66.0503 168.152 66.1627 168.175C66.275 168.197 66.3649 168.197 66.4548 168.197C66.4773 168.197 66.4998 168.197 66.4998 168.197C66.5222 168.197 66.5222 168.197 66.5447 168.175L66.5672 168.152C66.5672 168.152 66.5672 168.13 66.5672 168.108C66.5672 168.085 66.5222 168.04 66.4323 168.018C66.3424 167.973 66.2301 167.95 66.1177 167.905C66.0054 167.86 65.893 167.838 65.7806 167.793C65.6908 167.748 65.6009 167.726 65.5784 167.703C65.4211 167.568 65.3312 167.411 65.3312 167.254C65.3312 167.096 65.3762 166.939 65.4885 166.782C65.6009 166.624 65.7582 166.49 65.938 166.355C66.1177 166.242 66.3424 166.13 66.5896 166.063C66.6346 166.175 66.6795 166.287 66.7469 166.377C66.7919 166.49 66.8368 166.602 66.9042 166.714C66.9492 166.827 66.9941 166.939 67.0616 167.051C67.1065 167.164 67.1739 167.276 67.2189 167.388C67.2413 167.456 67.2863 167.523 67.3087 167.568C67.3312 167.636 67.3762 167.703 67.3986 167.748C67.4211 167.815 67.466 167.883 67.4885 167.928C67.511 167.995 67.5559 168.063 67.5784 168.13C67.6009 168.175 67.6233 168.22 67.6683 168.287C67.6908 168.332 67.7357 168.377 67.7582 168.445C67.6908 168.557 67.6908 168.602 67.6683 168.647ZM69.129 167.703C69.0391 167.86 68.9043 168.018 68.7245 168.152C68.5447 168.287 68.3425 168.422 68.1177 168.535C68.0054 168.31 67.9155 168.108 67.8031 167.883C67.7132 167.681 67.6009 167.456 67.511 167.254C67.4211 167.051 67.3087 166.849 67.2189 166.647C67.129 166.445 67.0391 166.242 66.9267 166.04C66.9267 166.04 66.9267 166.04 66.9492 166.04H66.9717H66.9941C67.0616 166.04 67.1514 166.04 67.2638 166.04C67.3762 166.04 67.511 166.063 67.6234 166.063C67.7582 166.085 67.8705 166.085 67.9604 166.108C68.0503 166.13 68.1177 166.13 68.1402 166.13C68.2526 166.152 68.3425 166.197 68.4323 166.242C68.5222 166.287 68.6121 166.332 68.702 166.377C68.7919 166.422 68.8593 166.49 68.9267 166.557C68.9941 166.624 69.0391 166.692 69.084 166.759C69.1739 166.917 69.2189 167.074 69.2189 167.231C69.2863 167.388 69.2189 167.546 69.129 167.703Z" fill="#BCDAEF"/> <path d="M73.5559 165.231C73.5559 165.186 73.5334 165.141 73.511 165.119C73.4885 165.074 73.4211 165.029 73.3761 164.984C73.3087 164.939 73.2413 164.917 73.1739 164.872C73.084 164.849 73.0166 164.827 72.9042 164.804C72.8143 164.804 72.702 164.804 72.6121 164.804C72.5896 164.804 72.5671 164.804 72.5447 164.804C72.5222 164.804 72.4997 164.804 72.4773 164.827C72.4548 164.827 72.4323 164.827 72.4098 164.849C72.3874 164.849 72.3649 164.872 72.3424 164.872C72.2975 164.894 72.2525 164.894 72.2076 164.917C72.1626 164.939 72.1177 164.961 72.0728 164.961C72.0278 164.984 72.0053 165.006 71.9604 165.029C71.9155 165.051 71.893 165.074 71.848 165.096C71.848 165.096 71.848 165.096 71.8256 165.096C71.8256 165.096 71.8256 165.096 71.8031 165.096C71.8031 165.096 71.8031 165.096 71.7806 165.096C71.7357 164.894 71.6907 164.714 71.6683 164.512C71.6233 164.332 71.6009 164.13 71.5559 163.95C71.511 163.77 71.4885 163.591 71.4435 163.411C71.3986 163.231 71.3761 163.051 71.3312 162.872C71.3087 162.872 71.2862 162.872 71.2638 162.872C71.2413 162.872 71.2188 162.872 71.1964 162.872C71.1739 162.872 71.1514 162.872 71.1289 162.872C71.1065 162.872 71.084 162.872 71.0615 162.872C71.1289 163.186 71.1739 163.478 71.2413 163.793C71.3087 164.108 71.3761 164.422 71.4435 164.759C71.511 165.096 71.5784 165.433 71.6458 165.77C71.7132 166.108 71.7806 166.467 71.848 166.804C71.8705 166.804 71.8705 166.804 71.8705 166.782L71.893 166.759L71.9155 166.737L71.9379 166.714C71.9829 166.669 72.0503 166.624 72.1177 166.557C72.1851 166.512 72.2301 166.467 72.2975 166.4C72.3649 166.355 72.4098 166.31 72.4773 166.265C72.5447 166.22 72.6121 166.175 72.6795 166.13C72.7469 166.085 72.8368 166.018 72.9042 165.973C72.9716 165.928 73.0615 165.86 73.1289 165.815C73.1964 165.77 73.2638 165.703 73.3312 165.658C73.3986 165.591 73.4436 165.546 73.4885 165.478C73.511 165.456 73.5334 165.411 73.5559 165.366C73.5784 165.321 73.5784 165.299 73.6009 165.254C73.5559 165.299 73.5784 165.254 73.5559 165.231ZM72.8143 165.523C72.8143 165.546 72.7919 165.568 72.7919 165.613C72.7919 165.636 72.7694 165.658 72.7469 165.681C72.702 165.748 72.6795 165.815 72.6346 165.86C72.5896 165.928 72.5447 165.973 72.4773 166.04C72.4323 166.108 72.3649 166.152 72.2975 166.22C72.2301 166.265 72.1851 166.332 72.1177 166.377C72.1177 166.377 72.1177 166.377 72.0952 166.4C72.0952 166.4 72.0952 166.4 72.0728 166.422C72.0728 166.422 72.0728 166.422 72.0503 166.445H72.0278C72.0053 166.377 72.0053 166.31 71.9829 166.242C72.0053 166.152 72.0053 166.085 71.9829 166.018C71.9604 165.95 71.9604 165.883 71.9379 165.815C71.9155 165.748 71.9155 165.681 71.893 165.613C71.893 165.591 71.893 165.568 71.8705 165.546C71.8705 165.523 71.848 165.501 71.848 165.478C71.848 165.456 71.848 165.433 71.8256 165.411C71.8256 165.388 71.8256 165.366 71.8256 165.343C71.8256 165.321 71.848 165.299 71.8705 165.276C71.893 165.254 71.9155 165.231 71.9604 165.209C71.9829 165.186 72.0278 165.164 72.0728 165.141C72.1177 165.119 72.1402 165.096 72.1626 165.096C72.1851 165.096 72.1851 165.096 72.2076 165.074C72.2076 165.074 72.2301 165.074 72.2525 165.074C72.2525 165.074 72.275 165.074 72.2975 165.074H72.32C72.3874 165.074 72.4323 165.074 72.4997 165.074C72.5447 165.074 72.6121 165.096 72.657 165.141C72.702 165.164 72.7469 165.209 72.7694 165.231C72.7919 165.276 72.8143 165.299 72.8368 165.343C72.8368 165.366 72.8368 165.411 72.8368 165.433C72.8368 165.456 72.8143 165.478 72.8143 165.523Z" fill="#BCDAEF"/> <path fill-rule="evenodd" clip-rule="evenodd" d="M238.366 121.501C238.523 121.411 238.703 121.321 238.86 121.231C239.265 121.995 239.669 122.759 240.074 123.523C240.344 123.343 240.568 123.141 240.815 122.961C241.04 123.366 241.242 123.793 241.467 124.197C241.22 124.4 240.973 124.579 240.726 124.782C241.04 125.366 241.332 125.95 241.647 126.534C241.894 126.377 242.141 126.13 242.411 125.973C242.636 126.4 242.86 126.826 243.085 127.253C242.838 127.456 242.591 127.635 242.344 127.838C242.748 128.602 243.153 129.388 243.557 130.152C243.377 130.242 243.197 130.355 243.018 130.422C242.636 129.68 242.254 128.961 241.849 128.22C241.49 128.489 241.153 128.759 240.793 129.029C241.22 129.838 241.624 130.624 242.051 131.433C241.917 131.523 241.692 131.635 241.535 131.703C241.13 130.939 240.726 130.175 240.321 129.411C240.074 129.591 239.804 129.815 239.579 129.973C239.355 129.546 239.13 129.119 238.905 128.692C239.153 128.489 239.4 128.31 239.647 128.107C239.332 127.523 239.018 126.939 238.726 126.355C238.456 126.534 238.254 126.737 237.962 126.916C237.737 126.512 237.535 126.085 237.31 125.68C237.535 125.478 237.804 125.298 238.051 125.096C237.624 124.287 237.22 123.501 236.793 122.692C236.928 122.602 237.153 122.489 237.31 122.422C237.714 123.186 238.119 123.95 238.523 124.714C238.883 124.444 239.22 124.175 239.579 123.905C239.175 123.119 238.748 122.332 238.344 121.546C238.366 121.523 238.366 121.501 238.366 121.501ZM239.22 125.973C239.535 126.557 239.827 127.141 240.141 127.725C240.501 127.456 240.838 127.186 241.197 126.916C240.928 126.4 240.636 125.86 240.388 125.366C240.344 125.298 240.321 125.208 240.254 125.164C239.894 125.433 239.557 125.703 239.22 125.973Z" fill="#BCDAEF"/> <path fill-rule="evenodd" clip-rule="evenodd" d="M107.243 156.4C107.355 156.4 107.468 156.377 107.557 156.4C107.625 157.299 108.029 157.771 108.524 158.153C109.018 158.535 109.512 158.939 109.962 159.389C110.411 159.838 110.816 160.355 111.063 161.007C111.288 161.613 111.333 162.377 111.243 163.051C111.22 163.141 111.175 163.254 111.198 163.321C111.198 163.389 111.265 163.456 111.31 163.546C111.557 164.04 111.715 164.714 111.647 165.456C111.602 165.995 111.468 166.49 111.265 166.917C111.22 167.029 111.13 167.321 110.951 167.231C110.883 167.209 110.951 167.141 110.996 167.051C111.31 166.355 111.512 165.321 111.243 164.332C110.996 163.389 110.187 162.939 109.468 162.557C108.951 162.287 108.456 162.04 107.939 161.748C108.052 163.456 108.164 165.051 108.277 166.782C108.321 167.366 108.389 167.928 108.232 168.31C107.962 169.051 107.288 169.636 106.479 169.928C105.512 170.265 104.411 169.995 104.344 168.984C104.321 168.602 104.479 168.242 104.659 167.973C104.996 167.433 105.535 166.984 106.187 166.737C106.748 166.535 107.535 166.535 107.939 166.804C107.692 163.344 107.468 159.883 107.22 156.422C107.22 156.422 107.22 156.4 107.243 156.4ZM109.108 161.231C109.737 161.748 110.389 162.22 110.883 162.849C110.906 162.894 110.951 162.984 110.973 162.939C111.063 161.658 110.524 160.894 109.939 160.287C109.333 159.681 108.546 159.254 107.782 158.872C107.76 158.872 107.76 158.872 107.737 158.872C107.895 159.95 108.456 160.714 109.108 161.231Z" fill="#BCDAEF"/> <path d="M194.008 140.355C193.986 140.265 193.941 140.153 193.941 140.108C193.941 140.04 194.031 139.928 194.053 139.838C194.323 139.141 194.458 138.355 194.39 137.658C194.3 136.939 194.008 136.287 193.649 135.703C193.312 135.141 192.885 134.602 192.458 134.063C192.143 133.681 191.918 133.276 191.873 132.714L191.941 132.31L191.559 132.242L189.694 143.344C189.222 142.759 188.188 142.557 187.154 142.894C185.896 143.299 185.109 144.31 185.379 145.186C185.649 146.04 186.885 146.422 188.143 146.018C189.267 145.658 190.008 144.827 189.963 144.04L191.02 137.748C191.447 138.13 191.873 138.49 192.323 138.894C192.975 139.478 193.694 140.13 193.739 141.186C193.784 142.287 193.312 143.299 192.817 143.95C192.75 144.04 192.682 144.085 192.727 144.13C192.907 144.243 193.065 143.973 193.132 143.883C193.447 143.456 193.716 143.007 193.896 142.445C194.143 141.681 194.143 140.939 194.008 140.355ZM193.829 139.681C193.784 139.726 193.784 139.613 193.761 139.568C193.402 138.782 192.84 138.13 192.323 137.434C191.873 136.849 191.536 136.13 191.469 135.254L191.559 134.692C192.233 135.276 192.952 135.905 193.402 136.669C193.851 137.434 194.233 138.377 193.829 139.681Z" fill="#BCDAEF"/> <path d="M290.749 102.377C290.614 102.22 290.39 102.085 290.345 101.928C290.277 101.77 290.322 101.478 290.277 101.253C290.03 99.5456 289.378 97.8153 288.412 96.5344C287.401 95.2085 286.052 94.2647 284.682 93.5231C283.356 92.804 281.873 92.1973 280.457 91.6355C279.401 91.231 278.479 90.6692 277.738 89.658L277.401 88.7816L276.592 89.0962L285.648 113.298C284.052 112.692 281.76 113.478 280.052 115.343C278.008 117.568 277.603 120.512 279.131 121.928C280.659 123.321 283.558 122.647 285.603 120.422C287.401 118.445 287.94 115.905 286.951 114.377L281.805 100.647C283.131 100.916 284.39 101.141 285.693 101.411C287.693 101.815 289.873 102.31 291.131 104.355C292.457 106.489 292.727 109.074 292.457 110.916C292.412 111.164 292.345 111.343 292.502 111.366C292.996 111.411 292.974 110.669 293.019 110.4C293.154 109.209 293.154 107.973 292.884 106.669C292.502 104.827 291.67 103.366 290.749 102.377ZM289.581 101.253C289.536 101.366 289.401 101.164 289.311 101.096C287.715 99.9501 285.828 99.2984 284.008 98.5119C282.457 97.8602 280.929 96.8265 279.805 95.1636L279.356 93.9501C281.378 94.3321 283.491 94.7591 285.288 95.7479C287.086 96.7366 288.906 98.1524 289.581 101.253Z" fill="#BCDAEF"/> <path d="M216.435 160.197C216.457 160.287 216.502 160.4 216.502 160.467C216.502 160.557 216.412 160.669 216.367 160.759C216.075 161.523 215.918 162.4 216.008 163.141C216.098 163.928 216.435 164.647 216.817 165.276C217.199 165.905 217.671 166.49 218.12 167.074C218.457 167.501 218.704 167.95 218.772 168.534L218.704 168.984L219.109 169.051L221.154 156.872C221.671 157.501 222.817 157.725 223.94 157.366C225.311 156.939 226.187 155.815 225.895 154.871C225.603 153.928 224.232 153.523 222.862 153.95C221.648 154.332 220.817 155.254 220.862 156.13L219.716 163.029C219.244 162.602 218.772 162.197 218.3 161.793C217.581 161.141 216.794 160.422 216.749 159.276C216.704 158.063 217.221 156.939 217.76 156.242C217.828 156.152 217.918 156.085 217.85 156.04C217.648 155.905 217.491 156.22 217.401 156.31C217.064 156.759 216.772 157.276 216.569 157.883C216.277 158.759 216.277 159.568 216.435 160.197ZM216.637 160.939C216.682 160.894 216.704 161.029 216.727 161.074C217.109 161.928 217.738 162.647 218.3 163.411C218.794 164.063 219.176 164.849 219.244 165.793L219.131 166.4C218.39 165.748 217.603 165.074 217.109 164.242C216.592 163.411 216.187 162.377 216.637 160.939Z" fill="#BCDAEF"/> <path d="M147.871 169.726C147.894 169.793 147.939 169.883 147.916 169.95C147.916 170.018 147.849 170.108 147.804 170.175C147.579 170.759 147.444 171.434 147.534 172.018C147.601 172.625 147.871 173.186 148.163 173.658C148.455 174.13 148.815 174.602 149.174 175.052C149.444 175.366 149.624 175.726 149.669 176.175L149.601 176.512L149.916 176.557L151.489 167.141C151.894 167.636 152.77 167.793 153.646 167.523C154.703 167.186 155.377 166.31 155.152 165.591C154.927 164.849 153.871 164.535 152.815 164.872C151.871 165.164 151.242 165.883 151.264 166.557L150.365 171.883C149.983 171.546 149.624 171.254 149.264 170.917C148.703 170.422 148.096 169.861 148.073 168.984C148.051 168.063 148.433 167.186 148.86 166.647C148.905 166.58 148.972 166.535 148.927 166.49C148.77 166.377 148.658 166.625 148.59 166.714C148.321 167.074 148.096 167.456 147.939 167.928C147.759 168.625 147.759 169.231 147.871 169.726ZM148.028 170.287C148.073 170.265 148.073 170.355 148.096 170.377C148.388 171.052 148.882 171.591 149.309 172.175C149.691 172.67 149.983 173.276 150.028 174.018L149.939 174.49C149.354 173.995 148.77 173.479 148.365 172.827C147.983 172.198 147.669 171.411 148.028 170.287Z" fill="#BCDAEF"/> <path d="M132.545 160.175L134.275 149.838L133.961 149.793L132.32 159.591C131.916 159.096 131.039 158.939 130.163 159.209C129.107 159.546 128.433 160.4 128.657 161.141C128.882 161.883 129.938 162.197 130.995 161.86C131.938 161.546 132.568 160.827 132.545 160.175Z" fill="#BCDAEF"/> <path d="M127.779 158.962L133.667 158.827V159.254L127.802 159.366L127.779 158.962Z" fill="#BCDAEF"/> <path d="M128.07 157.209L133.958 157.074V157.501L128.093 157.636L128.07 157.209Z" fill="#BCDAEF"/> <path d="M90.3636 164.984L89.1501 154.692L88.9254 154.714L90.0939 164.624C89.7344 164.377 89.1052 164.422 88.5658 164.782C87.9141 165.209 87.622 165.928 87.9366 166.377C88.2287 166.827 89.0153 166.827 89.6669 166.4C90.2287 166.04 90.5209 165.433 90.3636 164.984Z" fill="#BCDAEF"/> <path d="M100.184 162.984L98.9704 152.692L98.7457 152.714L99.9142 162.624C99.5547 162.377 98.9255 162.422 98.3861 162.782C97.7344 163.209 97.4423 163.928 97.7569 164.377C98.0491 164.827 98.8356 164.827 99.4873 164.4C100.049 164.04 100.341 163.433 100.184 162.984Z" fill="#BCDAEF"/> <path d="M93.3753 160.399L92.6337 154.242L92.409 154.265L93.0832 160.062C92.7236 159.815 92.0944 159.86 91.5551 160.22C90.9034 160.647 90.6113 161.366 90.9259 161.815C91.218 162.265 92.0045 162.265 92.6562 161.838C93.218 161.456 93.5101 160.849 93.3753 160.399Z" fill="#BCDAEF"/> <path d="M96.9046 158.647L96.3203 153.658L96.0956 153.681L96.6349 158.288C96.2754 158.04 95.6462 158.085 95.1068 158.445C94.4552 158.872 94.163 159.591 94.4776 160.04C94.7698 160.49 95.5563 160.49 96.208 160.063C96.7698 159.703 97.0619 159.097 96.9046 158.647Z" fill="#BCDAEF"/> <path d="M88.9678 154.714L98.8105 152.692L98.9678 153.433L89.1026 155.456L88.9678 154.714Z" fill="#BCDAEF"/> <path d="M89.082 156.242L92.7674 155.433L92.9247 156.153L89.2393 156.962L89.082 156.242Z" fill="#BCDAEF"/> <path d="M87.3975 166.13L91.3525 164.894L91.4424 165.164L87.4649 166.422L87.3975 166.13Z" fill="#BCDAEF"/> <path d="M80.3907 156.13L81.2671 150.916L81.1098 150.894L80.2783 155.838C80.0761 155.59 79.6042 155.5 79.1547 155.635C78.5929 155.815 78.2334 156.265 78.3682 156.647C78.4806 157.029 79.0424 157.208 79.6042 157.029C80.0761 156.871 80.4132 156.489 80.3907 156.13Z" fill="#BCDAEF"/> <path d="M83.085 154.782L83.6918 151.096L83.5345 151.074L82.9727 154.489C82.7704 154.242 82.2985 154.152 81.8491 154.287C81.2873 154.467 80.9277 154.916 81.0625 155.298C81.1749 155.68 81.7367 155.86 82.2985 155.68C82.7704 155.501 83.1075 155.119 83.085 154.782Z" fill="#BCDAEF"/> <path d="M77.1739 158.108L78.4548 150.49L78.2975 150.467L77.0615 157.793C76.8593 157.546 76.3874 157.456 75.9155 157.591C75.3537 157.77 74.9941 158.22 75.129 158.602C75.2413 158.984 75.8031 159.164 76.3649 158.984C76.8593 158.827 77.1739 158.445 77.1739 158.108Z" fill="#BCDAEF"/> <path d="M243.782 153.209L241.827 134.49L241.266 134.557L243.108 152.332C242.187 151.681 240.591 151.793 239.198 152.714C237.513 153.793 236.771 155.613 237.513 156.782C238.254 157.928 240.232 157.995 241.917 156.894C243.4 155.883 244.164 154.355 243.782 153.209Z" fill="#BCDAEF"/> <path d="M251.219 132.872L242.252 108.063L241.713 108.265L250.342 132.153C249.286 131.748 247.758 132.243 246.634 133.456C245.263 134.917 244.971 136.872 245.983 137.793C246.994 138.737 248.904 138.31 250.275 136.849C251.488 135.568 251.848 133.905 251.219 132.872Z" fill="#BCDAEF"/> <path d="M274.41 123.388L265.444 98.5793L264.904 98.7815L273.534 122.669C272.477 122.265 270.949 122.759 269.826 123.973C268.455 125.433 268.163 127.388 269.174 128.31C270.185 129.254 272.095 128.827 273.466 127.366C274.68 126.085 275.039 124.4 274.41 123.388Z" fill="#BCDAEF"/> <path d="M255.915 120.692L250.544 105.816L250.005 106.018L255.061 119.973C254.005 119.568 252.477 120.063 251.353 121.276C249.982 122.737 249.69 124.692 250.702 125.613C251.713 126.557 253.623 126.13 254.994 124.67C256.185 123.389 256.544 121.726 255.915 120.692Z" fill="#BCDAEF"/> <path d="M264.051 114.827L259.692 102.804L259.152 103.006L263.175 114.13C262.119 113.726 260.59 114.22 259.467 115.433C258.096 116.894 257.804 118.849 258.815 119.771C259.826 120.714 261.737 120.287 263.107 118.827C264.321 117.501 264.68 115.838 264.051 114.827Z" fill="#BCDAEF"/> <path d="M242.795 111.029L241.784 108.175L264.953 97.2985L265.852 99.9952L242.795 111.029Z" fill="#BCDAEF"/> <path d="M244.365 115.164L243.331 112.31L266.5 101.434L267.421 104.13L244.365 115.164Z" fill="#BCDAEF"/> <path d="M141.065 157.816L139.177 149.568L138.93 149.636L140.728 157.456C140.279 157.209 139.582 157.366 138.998 157.838C138.301 158.422 138.076 159.276 138.481 159.748C138.885 160.22 139.762 160.13 140.436 159.568C141.043 159.029 141.312 158.31 141.065 157.816Z" fill="#BCDAEF"/> <path d="M166.14 151.186L164.005 137.86L163.713 137.905L165.758 150.737C165.264 150.422 164.455 150.535 163.758 151.029C162.926 151.636 162.589 152.579 163.016 153.141C163.421 153.703 164.432 153.681 165.264 153.074C166.005 152.557 166.365 151.748 166.14 151.186Z" fill="#BCDAEF"/> <path d="M178.701 148.625L176.567 135.299L176.275 135.344L178.319 148.175C177.825 147.861 177.016 147.973 176.319 148.467C175.488 149.074 175.151 150.018 175.578 150.58C175.982 151.141 176.994 151.119 177.825 150.512C178.589 150.018 178.926 149.209 178.701 148.625Z" fill="#BCDAEF"/> <path d="M169.668 145.501L168.387 137.524L168.095 137.569L169.286 145.074C168.792 144.76 167.983 144.872 167.286 145.366C166.455 145.973 166.118 146.917 166.545 147.479C166.949 148.04 167.96 148.018 168.792 147.411C169.533 146.894 169.893 146.085 169.668 145.501Z" fill="#BCDAEF"/> <path d="M174.321 143.321L173.287 136.849L172.995 136.894L173.961 142.872C173.467 142.557 172.658 142.669 171.961 143.164C171.13 143.771 170.793 144.714 171.219 145.276C171.624 145.838 172.635 145.816 173.467 145.209C174.186 144.714 174.545 143.905 174.321 143.321Z" fill="#BCDAEF"/> <path d="M164.004 139.389L163.757 137.861L176.453 134.602L176.633 136.063L164.004 139.389Z" fill="#BCDAEF"/> <path d="M164.388 141.613L164.141 140.085L176.837 136.827L177.04 138.287L164.388 141.613Z" fill="#BCDAEF"/> <path d="M222.522 139.096L224.814 125.478L224.409 125.411L222.252 138.355C221.735 137.748 220.634 137.523 219.51 137.883C218.162 138.31 217.308 139.411 217.6 140.332C217.892 141.254 219.218 141.658 220.567 141.231C221.758 140.849 222.567 139.95 222.522 139.096Z" fill="#BCDAEF"/> <path d="M218.14 140.175C218.005 139.793 218.725 139.209 219.736 138.872C220.747 138.534 221.668 138.579 221.803 138.961C221.938 139.343 221.219 139.928 220.208 140.265C219.174 140.624 218.253 140.579 218.14 140.175Z" fill="#BCDAEF"/> <path d="M204.433 143.058L204.117 144.942L207.552 145.518L207.868 143.634L204.433 143.058Z" fill="#BCDAEF"/> <path d="M196.59 152.874L198.86 139.346L198.478 139.278L196.321 152.155C195.849 151.57 194.793 151.368 193.736 151.705C192.478 152.11 191.669 153.143 191.939 153.997C192.208 154.874 193.467 155.256 194.725 154.851C195.871 154.514 196.635 153.66 196.59 152.874Z" fill="#BCDAEF"/> <path d="M212.7 155.771L215.037 141.861L214.655 141.793L212.43 155.074C211.958 154.49 210.902 154.287 209.846 154.625C208.587 155.029 207.778 156.063 208.048 156.917C208.318 157.793 209.576 158.175 210.834 157.771C211.981 157.411 212.745 156.557 212.7 155.771Z" fill="#BCDAEF"/> <path d="M206.97 150.378L208.543 140.984L208.161 140.917L206.7 149.681C206.229 149.097 205.172 148.895 204.139 149.232C202.88 149.636 202.071 150.67 202.341 151.524C202.611 152.4 203.869 152.782 205.127 152.378C206.251 152.041 207.015 151.187 206.97 150.378Z" fill="#BCDAEF"/> <path d="M198.513 139.11L198.197 140.994L214.73 143.765L215.046 141.881L198.513 139.11Z" fill="#BCDAEF"/> <path d="M109.535 153.366L107.041 146.669L106.861 146.737L109.243 153.119C108.884 152.984 108.344 153.164 107.962 153.591C107.491 154.108 107.401 154.782 107.76 155.096C108.12 155.411 108.771 155.254 109.243 154.759C109.648 154.287 109.76 153.703 109.535 153.366Z" fill="#BCDAEF"/> <path d="M117.601 150.58L115.039 143.703L114.859 143.771L117.309 150.333C116.949 150.198 116.41 150.378 116.028 150.805C115.556 151.321 115.466 151.996 115.826 152.31C116.185 152.625 116.837 152.467 117.309 151.973C117.713 151.501 117.826 150.917 117.601 150.58Z" fill="#BCDAEF"/> <path d="M121.895 151.119C121.805 151.321 121.67 151.546 121.536 151.726C121.109 152.332 120.502 152.827 119.783 153.096C119.266 153.299 118.434 153.366 117.783 153.209C117.131 153.074 116.682 152.782 116.682 152.782C116.682 152.782 117.176 152.984 117.805 153.052C118.457 153.119 119.198 152.962 119.67 152.782C120.322 152.557 120.951 152.175 121.446 151.658C121.603 151.501 121.738 151.299 121.895 151.119C121.918 151.029 122.007 150.894 122.007 150.894C122.007 150.894 121.94 151.052 121.895 151.119Z" fill="#BCDAEF"/> <path d="M115.064 143.684L106.872 146.735L107.217 147.662L115.409 144.611L115.064 143.684Z" fill="#BCDAEF"/> <path d="M115.48 145.148L113.774 145.784L114.12 146.71L115.825 146.075L115.48 145.148Z" fill="#BCDAEF"/> <path d="M125.212 141.536L123.506 142.171L123.85 143.097L125.557 142.463L125.212 141.536Z" fill="#BCDAEF"/> <path d="M122.524 148.647L120.029 141.95L119.85 142.018L122.232 148.4C121.872 148.265 121.333 148.445 120.951 148.872C120.479 149.389 120.389 150.063 120.748 150.377C121.108 150.692 121.76 150.535 122.232 150.04C122.636 149.568 122.748 148.984 122.524 148.647Z" fill="#BCDAEF"/> <path d="M130.546 145.748L127.984 138.872L127.805 138.939L130.254 145.501C129.895 145.366 129.355 145.546 128.973 145.973C128.501 146.49 128.411 147.164 128.771 147.478C129.131 147.793 129.782 147.636 130.254 147.141C130.659 146.692 130.771 146.108 130.546 145.748Z" fill="#BCDAEF"/> <path d="M126.568 144.827L124.837 140.175L124.658 140.242L126.276 144.58C125.916 144.445 125.377 144.624 124.995 145.051C124.523 145.568 124.433 146.242 124.793 146.557C125.152 146.872 125.804 146.714 126.276 146.22C126.68 145.748 126.793 145.164 126.568 144.827Z" fill="#BCDAEF"/> <path d="M128.005 138.883L119.813 141.933L120.158 142.859L128.35 139.81L128.005 138.883Z" fill="#BCDAEF"/> <path d="M82.0953 160.31L80.9043 167.434L81.129 167.478L82.2526 160.714C82.5223 161.052 83.129 161.164 83.7358 160.984C84.4773 160.759 84.9268 160.153 84.7695 159.658C84.6122 159.164 83.8931 158.939 83.1515 159.164C82.5223 159.366 82.0728 159.838 82.0953 160.31Z" fill="#BCDAEF"/> <path d="M181.153 151.59L179.468 161.658L179.782 161.703L181.378 152.152C181.76 152.624 182.614 152.804 183.49 152.534C184.524 152.197 185.176 151.366 184.951 150.647C184.726 149.928 183.715 149.613 182.659 149.95C181.76 150.242 181.131 150.939 181.153 151.59Z" fill="#BCDAEF"/> <path d="M180.052 152.489L185.782 152.377L185.805 152.781L180.074 152.894L180.052 152.489Z" fill="#BCDAEF"/> <path d="M179.783 154.197L185.514 154.062V154.489L179.783 154.602V154.197Z" fill="#BCDAEF"/> <path d="M142.075 163.366L140.098 175.209L140.435 175.276L142.322 164.04C142.749 164.602 143.693 164.782 144.659 164.444C145.806 164.04 146.547 163.051 146.322 162.22C146.075 161.388 144.952 161.029 143.783 161.433C142.749 161.793 142.053 162.602 142.075 163.366Z" fill="#BCDAEF"/> <path d="M140.839 164.445L147.221 164.242V164.714L140.839 164.917V164.445Z" fill="#BCDAEF"/> <path d="M140.502 166.445L146.884 166.242V166.714L140.502 166.917V166.445Z" fill="#BCDAEF"/> <path d="M228.974 146.265L231.491 131.208L231.019 131.141L228.637 145.411C228.053 144.691 226.772 144.444 225.491 144.849C223.94 145.343 222.974 146.602 223.311 147.658C223.648 148.714 225.176 149.186 226.727 148.691C228.098 148.265 229.019 147.231 228.974 146.265Z" fill="#BCDAEF"/> <path d="M222.051 144.489L230.613 144.31L230.635 144.939L222.073 145.119L222.051 144.489Z" fill="#BCDAEF"/> <path d="M222.48 141.95L231.042 141.77L231.065 142.377L222.503 142.556L222.48 141.95Z" fill="#BCDAEF"/> <path d="M152.683 160.085L151.672 147.95L151.38 147.972L152.346 159.613C151.874 159.253 151.043 159.298 150.301 159.77C149.425 160.31 148.998 161.253 149.38 161.86C149.762 162.467 150.773 162.512 151.672 161.973C152.458 161.478 152.885 160.692 152.683 160.085Z" fill="#BCDAEF"/> <path d="M159.514 154.063L158.862 146.332L158.57 146.355L159.177 153.591C158.705 153.231 157.874 153.276 157.132 153.748C156.256 154.287 155.829 155.231 156.211 155.838C156.593 156.445 157.604 156.49 158.503 155.95C159.289 155.456 159.694 154.647 159.514 154.063Z" fill="#BCDAEF"/> <path d="M151.492 149.231L151.357 147.613L158.863 145.725L158.953 147.253L151.492 149.231Z" fill="#BCDAEF"/> <path d="M119.76 157.883L117.872 169.119L118.209 169.164L120.007 158.49C120.434 159.007 121.333 159.186 122.254 158.894C123.355 158.535 124.074 157.636 123.827 156.872C123.58 156.108 122.479 155.771 121.378 156.13C120.411 156.445 119.737 157.186 119.76 157.883Z" fill="#BCDAEF"/> <path d="M123.399 157.007C123.511 157.321 122.927 157.816 122.096 158.085C121.264 158.355 120.5 158.332 120.388 157.995C120.276 157.681 120.86 157.186 121.691 156.917C122.523 156.647 123.287 156.67 123.399 157.007Z" fill="#BCDAEF"/> <path d="M60.344 172.669C62.5013 170.917 65.2429 169.726 67.7148 168.557C71.2879 166.894 75.0407 165.411 78.9283 164.669C81.4901 164.175 85.6924 163.726 86.7486 166.872C87.6025 169.389 85.6025 172.782 88.0295 174.804C89.9396 176.4 93.198 175.186 95.1531 174.422C98.6587 173.052 101.917 171.074 105.063 169.051C107.445 167.523 109.737 165.838 112.164 164.377C117.445 161.186 124.119 157.838 130.457 159.546C133.94 160.49 136.434 163.231 138.187 166.265C139.603 168.714 140.928 171.254 143.108 173.119C147.693 177.074 154.681 175.209 159.378 172.512C167.917 167.613 173.131 157.501 183.221 155.186C185.917 154.557 188.726 154.782 191.356 155.501C194.614 156.4 197.311 158.647 199.985 160.602C202.614 162.535 205.311 164.018 208.502 164.759C211.603 165.478 214.839 165.366 217.962 164.827C224.636 163.658 231.019 160.242 236.861 156.962C243.063 153.478 249.019 149.568 255.041 145.793C258.726 143.501 262.457 141.299 266.097 138.872C269.94 136.31 273.693 133.636 277.423 130.939C284.749 125.658 292.052 120.332 299.828 115.726C299.918 115.681 299.828 115.523 299.738 115.568C286.951 123.119 275.491 132.647 263.019 140.669C257.019 144.512 250.929 148.198 244.884 151.973C238.771 155.771 232.502 159.433 225.85 162.198C219.153 164.984 211.535 166.4 204.681 163.299C201.715 161.973 199.243 159.748 196.591 157.928C194.097 156.22 191.445 155.119 188.457 154.737C178.547 153.523 171.58 162.018 164.996 167.973C160.322 172.198 154.412 175.995 147.805 175.007C140.591 173.928 139.513 165.838 134.749 161.658C127.018 154.872 115.76 161.681 108.794 166.355C105.692 168.422 102.569 170.467 99.3104 172.22C96.5463 173.703 92.9733 175.681 89.7149 175.276C85.9396 174.827 87.2205 170.445 87.0856 167.905C86.9508 165.344 84.8609 164.242 82.5463 164.13C78.1418 163.905 73.4901 165.816 69.5351 167.501C66.389 168.849 62.8834 170.31 60.1867 172.49C60.1418 172.625 60.2766 172.759 60.344 172.669Z" fill="#BCDAEF"/> <path d="M60.7488 170.467C62.8387 168.714 65.4904 167.501 67.9174 166.31C71.4005 164.624 75.0634 163.119 78.8612 162.31C81.3556 161.771 85.4904 161.276 86.5691 164.332C87.4455 166.804 85.5354 170.13 87.9624 172.085C89.85 173.613 93.0185 172.355 94.9511 171.591C98.3669 170.198 101.513 168.198 104.592 166.153C106.906 164.624 109.131 162.917 111.468 161.456C116.592 158.242 123.086 154.827 129.311 156.4C132.749 157.254 135.243 159.905 137.019 162.849C138.457 165.231 139.805 167.681 141.962 169.501C146.524 173.299 153.333 171.366 157.895 168.625C166.187 163.681 171.131 153.658 180.974 151.231C183.603 150.58 186.367 150.737 188.974 151.411C192.187 152.242 194.884 154.377 197.536 156.265C200.142 158.108 202.817 159.523 205.963 160.198C209.019 160.849 212.187 160.669 215.244 160.085C221.783 158.827 227.963 155.366 233.648 152.063C239.671 148.557 245.423 144.602 251.289 140.804C254.862 138.49 258.48 136.265 261.985 133.838C265.693 131.276 269.334 128.579 272.951 125.86C280.053 120.557 287.109 115.209 294.659 110.557C294.749 110.512 294.659 110.355 294.57 110.422C282.165 118.04 271.109 127.591 258.996 135.658C253.199 139.523 247.266 143.254 241.401 147.029C235.468 150.872 229.401 154.535 222.906 157.366C216.39 160.198 208.951 161.748 202.165 158.827C199.243 157.568 196.772 155.433 194.142 153.703C191.67 152.085 189.064 151.029 186.097 150.714C176.367 149.703 169.67 158.13 163.311 164.085C158.794 168.31 153.064 172.13 146.569 171.276C139.491 170.332 138.3 162.422 133.558 158.422C125.85 151.905 114.951 158.782 108.187 163.478C105.198 165.568 102.165 167.613 98.9736 169.389C96.2994 170.894 92.8388 172.894 89.6253 172.557C85.9174 172.175 87.0859 167.86 86.9286 165.389C86.7489 162.872 84.7039 161.838 82.4118 161.771C78.0747 161.613 73.5803 163.568 69.7151 165.299C66.6589 166.669 63.2432 168.175 60.6365 170.355C60.5241 170.422 60.6589 170.535 60.7488 170.467Z" fill="#BCDAEF"/> <path d="M61.0869 168.288C63.0869 166.535 65.6936 165.299 68.0307 164.085C71.4015 162.377 74.9745 160.827 78.6824 159.973C81.1319 159.411 85.1543 158.849 86.2779 161.838C87.1768 164.243 85.3791 167.546 87.7836 169.411C89.6712 170.872 92.7499 169.591 94.615 168.804C97.9409 167.389 100.997 165.366 103.963 163.321C106.211 161.771 108.345 160.085 110.638 158.602C115.604 155.366 121.896 151.906 128.053 153.344C131.447 154.13 133.918 156.692 135.716 159.546C137.154 161.838 138.525 164.243 140.683 165.973C145.222 169.613 151.874 167.591 156.301 164.849C164.346 159.861 169.02 149.973 178.638 147.389C181.2 146.715 183.896 146.804 186.48 147.411C189.626 148.153 192.323 150.22 194.952 152.018C197.537 153.771 200.188 155.119 203.289 155.726C206.301 156.31 209.402 156.085 212.391 155.456C218.773 154.108 224.773 150.625 230.278 147.276C236.121 143.726 241.694 139.748 247.379 135.95C250.84 133.613 254.368 131.366 257.761 128.939C261.357 126.355 264.885 123.658 268.368 120.939C275.222 115.636 282.054 110.243 289.38 105.568C289.469 105.501 289.38 105.366 289.29 105.434C277.267 113.119 266.57 122.647 254.863 130.782C249.245 134.67 243.492 138.422 237.806 142.243C232.054 146.108 226.166 149.816 219.851 152.692C213.514 155.591 206.256 157.209 199.559 154.467C196.683 153.276 194.211 151.231 191.604 149.568C189.155 148.018 186.57 147.029 183.671 146.782C174.121 145.95 167.694 154.333 161.581 160.288C157.222 164.512 151.671 168.355 145.289 167.636C138.323 166.827 137.02 159.097 132.301 155.254C124.638 149.007 114.053 155.906 107.536 160.647C104.638 162.737 101.716 164.804 98.615 166.602C96.0083 168.13 92.66 170.13 89.4914 169.861C85.851 169.546 86.9296 165.299 86.7049 162.872C86.5027 160.422 84.4577 159.434 82.2105 159.389C77.9633 159.299 73.5813 161.299 69.8285 163.074C66.8397 164.467 63.5138 165.995 61.0195 168.198C60.8846 168.243 60.997 168.355 61.0869 168.288Z" fill="#BCDAEF"/> <path d="M61.379 166.13C63.3116 164.377 65.8284 163.119 68.1206 161.905C71.4015 160.152 74.8621 158.579 78.4801 157.681C80.8622 157.096 84.8172 156.467 85.9633 159.366C86.8846 161.703 85.1768 164.984 87.5588 166.782C89.424 168.175 92.4352 166.872 94.2554 166.063C97.4914 164.602 100.458 162.579 103.334 160.534C105.514 158.984 107.581 157.276 109.784 155.793C114.615 152.534 120.705 149.051 126.75 150.332C130.076 151.051 132.57 153.501 134.368 156.265C135.829 158.49 137.199 160.827 139.334 162.49C143.851 165.995 150.323 163.883 154.615 161.119C162.413 156.085 166.817 146.31 176.211 143.636C178.705 142.916 181.357 142.984 183.896 143.523C186.997 144.197 189.671 146.175 192.278 147.883C194.862 149.568 197.469 150.849 200.503 151.366C203.469 151.883 206.503 151.613 209.402 150.961C215.627 149.546 221.447 146.018 226.795 142.647C232.458 139.074 237.874 135.074 243.357 131.253C246.705 128.916 250.121 126.647 253.402 124.197C256.885 121.613 260.278 118.894 263.672 116.175C270.301 110.849 276.908 105.456 284.009 100.759C284.099 100.692 284.009 100.557 283.919 100.624C272.256 108.355 261.941 117.883 250.615 126.062C245.177 129.973 239.604 133.748 234.098 137.591C228.525 141.478 222.818 145.209 216.683 148.152C210.525 151.096 203.424 152.827 196.817 150.242C193.964 149.141 191.537 147.164 188.93 145.591C186.503 144.107 183.964 143.186 181.11 143.006C171.739 142.355 165.581 150.692 159.671 156.624C155.492 160.849 150.098 164.714 143.829 164.085C136.997 163.411 135.581 155.86 130.885 152.175C123.267 146.175 113.02 153.141 106.682 157.883C103.873 159.995 101.042 162.063 98.0307 163.883C95.4914 165.411 92.2554 167.456 89.1543 167.231C85.5813 166.984 86.5476 162.804 86.3228 160.422C86.0757 158.018 84.0532 157.096 81.8509 157.096C77.6936 157.096 73.4239 159.119 69.761 160.916C66.8621 162.332 63.6262 163.905 61.1992 166.085C61.1767 166.107 61.2891 166.197 61.379 166.13Z" fill="#BCDAEF"/> <path d="M61.6244 164.04C63.4895 162.288 65.939 161.007 68.1637 159.771C71.3547 157.995 74.7255 156.4 78.2536 155.456C80.5907 154.827 84.4334 154.153 85.6019 156.984C86.5458 159.254 84.9278 162.49 87.2873 164.22C89.1525 165.568 92.0739 164.243 93.8267 163.411C96.9727 161.928 99.8491 159.883 102.636 157.838C104.748 156.288 106.748 154.58 108.883 153.074C113.557 149.793 119.49 146.265 125.422 147.434C128.703 148.085 131.175 150.445 132.995 153.119C134.456 155.276 135.849 157.546 137.962 159.119C142.456 162.467 148.771 160.31 152.928 157.524C160.478 152.445 164.636 142.804 173.782 140.018C176.231 139.276 178.816 139.276 181.31 139.793C184.366 140.4 187.018 142.31 189.602 143.928C192.164 145.523 194.726 146.737 197.737 147.209C200.636 147.658 203.625 147.344 206.456 146.647C212.546 145.141 218.186 141.591 223.377 138.198C228.883 134.602 234.097 130.602 239.422 126.737C242.681 124.377 245.984 122.108 249.153 119.658C252.524 117.052 255.805 114.332 259.085 111.613C265.49 106.287 271.872 100.894 278.748 96.1526C278.838 96.0852 278.748 95.9728 278.658 96.0178C267.355 103.793 257.422 113.321 246.434 121.523C241.153 125.456 235.76 129.254 230.434 133.096C225.04 137.007 219.512 140.759 213.535 143.748C207.535 146.737 200.613 148.557 194.097 146.13C191.288 145.097 188.861 143.209 186.299 141.703C183.894 140.288 181.377 139.434 178.591 139.299C169.377 138.827 163.49 147.097 157.804 153.007C153.759 157.209 148.568 161.097 142.411 160.602C135.692 160.063 134.186 152.692 129.535 149.141C121.962 143.389 112.029 150.4 105.917 155.141C103.197 157.254 100.456 159.321 97.557 161.164C95.1076 162.715 91.9615 164.759 88.9053 164.602C85.3997 164.422 86.2761 160.31 86.0064 157.973C85.7143 155.613 83.7368 154.737 81.5795 154.782C77.4896 154.849 73.3547 156.917 69.8042 158.737C66.9952 160.175 63.8491 161.771 61.512 163.95C61.4446 163.995 61.5569 164.108 61.6244 164.04Z" fill="#BCDAEF"/> <path d="M141.267 8.38892H73.2949V101.681H141.267V8.38892Z" fill="#BCDAEF"/> <path d="M104.691 18.8521C104.691 18.8521 110.625 17.7736 117.233 22.4931C121.405 25.4732 123.415 24.0384 125.1 28.5343C126.785 33.0302 131.505 35.7253 130.156 39.9977C128.807 44.2676 132.404 43.1449 131.392 47.3017C130.38 51.4586 132.067 53.483 131.618 56.5172C131.168 59.5513 120.83 63.035 115.998 62.2489C111.165 61.4627 105.21 58.8782 106.895 52.1343C108.581 45.3904 104.691 18.8521 104.691 18.8521Z" fill="#00274E"/> <path d="M94.6543 24.0778C94.6543 24.0778 99.9487 16.2235 111.088 19.4271C111.088 19.4271 115.331 21.1886 116.866 28.4116C118.434 35.782 113.53 41.3835 110.997 40.0003C109.37 39.1134 108.142 41.9559 108.142 41.9559L94.6543 24.0778Z" fill="#00274E"/> <path d="M120.792 77.8129C120.566 79.3386 120.198 80.8496 119.667 82.3163C117.412 88.5467 116.249 91.087 116.306 93.443C116.355 95.5239 117.358 97.4624 119.402 101.678H90.0404C93.448 87.3502 89.0503 82.5349 88.7604 74.9213C88.731 74.2408 88.7359 73.5381 88.785 72.8036C89.4238 63.0157 97.003 52.4883 97.003 52.4883C97.003 52.4883 97.03 52.4859 97.0742 52.481C97.0914 52.481 97.1086 52.4785 97.1332 52.4761C97.1798 52.4711 97.2364 52.4662 97.2929 52.4589C97.3641 52.4515 97.4378 52.4417 97.5066 52.4368C97.5459 52.4343 97.5852 52.4318 97.6172 52.4294C97.74 52.4171 97.8874 52.4024 98.0471 52.3901C98.5532 52.1223 98.6883 49.9947 98.6834 47.7492C98.6834 47.6165 98.6834 47.4839 98.681 47.3512C98.6785 47.1473 98.676 46.9409 98.6736 46.7395C98.6711 46.5552 98.6662 46.3758 98.6638 46.1965C98.6613 46.1081 98.6589 46.0196 98.6564 45.9287C98.649 45.6609 98.6392 45.398 98.6294 45.145C98.6269 45.0295 98.622 44.919 98.6171 44.8084C98.6146 44.7593 98.6146 44.7101 98.6122 44.6635C98.6048 44.5038 98.5999 44.3514 98.5901 44.1991C98.5876 44.123 98.5851 44.0517 98.5802 43.978C98.5778 43.9068 98.5729 43.838 98.5704 43.7667C98.5655 43.6611 98.5606 43.5579 98.5532 43.4596C98.5532 43.44 98.5507 43.4252 98.5507 43.4056C98.5458 43.2926 98.5385 43.1845 98.5311 43.0838C98.5213 42.8749 98.5065 42.698 98.4992 42.558C98.4967 42.5285 98.4967 42.5015 98.4942 42.4745C98.4893 42.3958 98.4869 42.3344 98.4795 42.2877C98.4795 42.2607 98.4771 42.2411 98.4771 42.2263C98.4746 42.2042 98.4746 42.1944 98.4746 42.1944L107.049 40.4967L107.078 40.4918L107.567 40.3936L108.108 40.2855C108.11 40.2879 108.108 40.2879 108.108 40.2879C108.105 40.8579 108.118 41.4082 108.14 41.9413C108.41 47.958 110.218 51.6432 111.319 51.9306C111.378 51.9405 111.437 51.9577 111.496 51.9749C111.496 51.9749 111.496 51.9749 111.498 51.9749C112.532 52.2623 113.699 53.2082 114.854 54.643C116.353 56.4954 117.832 59.1708 118.972 62.2934C120.64 66.8827 121.588 72.4473 120.792 77.8129Z" fill="#DFF2FF"/> <path d="M98.4648 42.1943C98.4648 42.1943 98.6712 45.054 98.6786 47.7491C103.767 47.6066 106.454 42.9657 107.555 40.3934L98.4648 42.1943Z" fill="#BCDAEF"/> <path d="M108.497 39.4033C108.497 39.4033 111.163 35.1923 111.801 31.5907C112.258 29.0184 110.949 19.4885 101.37 20.8619C101.37 20.8619 98.5887 21.137 95.9722 22.901C93.8938 24.3063 90.8916 27.338 94.2476 35.6542L95.1197 38.4648L108.497 39.4033Z" fill="#00274E"/> <path d="M96.7703 44.7469C96.7703 44.7469 108.806 44.9459 108.813 37.4478C108.821 29.9521 110.381 24.9279 102.696 24.4833C95.0112 24.0386 93.515 26.8983 92.9057 29.3993C92.294 31.9028 93.6403 44.5012 96.7703 44.7469Z" fill="#DFF2FF"/> <path d="M97.2139 24.299C97.2139 24.299 100.508 33.0943 105.567 34.3939C110.623 35.6936 112.817 34.3399 112.817 34.3399C112.817 34.3399 108.938 31.2591 108.132 25.8787C108.134 25.8811 99.7001 20.1151 97.2139 24.299Z" fill="#00274E"/> <path d="M98.0325 25.0137C98.0325 25.0137 95.5708 26.9767 94.9713 28.8856C94.3719 30.7946 94.1016 34.7255 92.9567 34.5903C92.9567 34.5903 90.4729 28.6129 93.2638 25.2299C96.2218 21.6455 98.0325 25.0137 98.0325 25.0137Z" fill="#00274E"/> <path d="M119.473 86.4068C120.261 91.5685 121.497 96.8997 122.647 101.681H84.333C85.0971 93.1531 86.8463 83.5888 87.232 76.9653C87.264 76.4199 87.2885 75.8942 87.2984 75.393C86.7235 71.9338 86.5269 68.9292 86.5884 66.3471C86.753 59.3919 88.7946 55.4905 90.3644 53.9206C90.8067 53.5816 91.2513 53.3678 93.0374 53.0607C93.9489 52.906 95.2142 52.7266 97.0052 52.4908C97.0052 52.4908 97.0322 52.4883 97.0764 52.4834C97.0936 52.4834 97.1108 52.4809 97.1353 52.4785C97.182 52.4736 97.2385 52.4687 97.295 52.4613C97.3663 52.4539 97.44 52.4441 97.5088 52.4392C97.5481 52.4367 97.5874 52.4343 97.6194 52.4318C97.6832 52.4293 97.725 52.4293 97.7225 52.4343C97.612 52.6308 97.5407 53.245 97.5333 54.0336C97.5112 55.5937 97.7176 57.8343 98.2458 58.8784C100.27 62.8732 105.916 62.4973 108.392 58.8465C108.459 58.7458 108.525 58.6475 108.586 58.5418C110.034 56.1244 111.286 51.9282 111.286 51.9282C111.286 51.9282 111.495 51.9429 111.498 51.9429C111.969 51.9896 114.222 51.8839 116.426 52.3483C118.421 52.7708 120.345 53.7585 121.546 54.6355C121.546 54.6355 121.536 54.6478 121.517 54.6699C121.846 54.9033 122.091 55.1564 122.234 55.4217C122.981 56.8442 123.728 58.8244 124.46 61.151C126.573 67.8654 128.56 77.4641 130.076 84.8565C125.131 87.5762 120.814 86.7679 119.473 86.4068Z" fill="#DFF2FF"/> <path d="M135.738 101.681H82.6885C82.4895 95.428 82.8187 83.9523 87.2287 76.9652C87.693 76.2306 88.2016 75.5476 88.7617 74.9236C90.0614 73.4667 91.6313 72.3391 93.523 71.6905C95.1739 71.1205 96.7586 70.4105 98.272 69.5973C103.045 67.0324 107.089 63.4676 110.138 60.2418C112.175 58.0897 113.772 56.0898 114.848 54.6452C115.499 53.7682 115.961 53.0975 116.211 52.7142C116.369 52.4857 116.447 52.3604 116.447 52.3604C116.447 52.3604 122.516 53.7092 125.886 57.0799C126.301 57.4951 126.776 58.5515 127.287 60.087C130.127 68.6195 134.126 91.9197 135.738 101.681Z" fill="#003366"/> <path d="M101.751 75.2012V101.681H79.4922C81.0473 89.5022 85.3565 57.2814 87.6782 54.5519C90.5428 51.1812 98.0434 52.3924 98.0434 52.3924C98.0434 52.3924 97.8199 53.0213 97.5275 54.036C96.8421 56.424 95.793 60.9494 96.4441 64.497C96.7561 66.2094 97.4661 67.9906 98.2694 69.5973C99.8344 72.7297 101.751 75.2012 101.751 75.2012Z" fill="#003366"/> <path d="M94.6543 24.0779C94.6543 24.0779 97.1258 22.4294 102.695 24.4858C108.265 26.5421 108.872 35.104 108.872 35.104C108.872 35.104 111.098 33.0821 111.434 31.2616C111.771 29.4411 110.073 23.4121 108.063 22.0241C105.231 20.0685 101.253 19.7982 98.7596 20.4738C96.2635 21.1445 94.6543 24.0779 94.6543 24.0779Z" fill="#BCDAEF"/> <path d="M119.011 72.1425C119.011 72.1425 110.022 88.5047 102.29 90.4824C94.559 92.4601 100.313 96.2362 106.067 92.8188C111.82 89.4014 119.011 72.1425 119.011 72.1425Z" fill="#00274E"/> <path d="M120.675 80.2793C120.675 80.2793 115.955 88.7749 112.585 92.1456C109.214 95.5163 114.236 95.9585 116.309 93.4452C118.38 90.9319 120.675 80.2793 120.675 80.2793Z" fill="#00274E"/> <path d="M90.4651 64.2316C90.4651 64.2316 89.5315 68.9732 88.7846 72.8058C88.0377 76.6384 88.1729 84.5935 89.6568 84.0555C91.1407 83.5174 90.4651 64.2316 90.4651 64.2316Z" fill="#00274E"/> <path d="M71 7.00079V103.97H143.559V7.00079H71V7.00079ZM138.975 99.386H75.5844V11.5876H138.975V99.386Z" fill="#00274E"/> <path d="M183.551 93.2595L131.794 87.9171L137.496 25.0114L175.922 28.9796L188.164 42.3426L183.551 93.2595Z" fill="white"/> <path opacity="0.8" d="M183.551 93.2595L131.794 87.9171L137.496 25.0114L175.922 28.9796L188.164 42.3426L183.551 93.2595Z" fill="white"/> <path d="M172.907 27.3041L184.819 40.435L171.62 39.295L172.907 27.3041Z" fill="white"/> <path d="M140.698 39.6103L167.927 40.0805L168.222 38.4718L140.993 38.0016L140.698 39.6103Z" fill="#DADADA"/> <path d="M140.666 43.6741L167.896 44.1443L168.191 42.5356L140.962 42.0654L140.666 43.6741Z" fill="#DADADA"/> <path d="M140.645 47.7416L167.874 48.2117L168.17 46.6031L140.941 46.133L140.645 47.7416Z" fill="#DADADA"/> <path d="M140.613 51.8058L180.478 52.3708L180.778 50.7591L140.914 50.194L140.613 51.8058Z" fill="#DADADA"/> <path d="M140.581 55.8698L180.445 56.4348L180.746 54.823L140.882 54.258L140.581 55.8698Z" fill="#DADADA"/> <path d="M140.555 59.9375L180.42 60.5024L180.721 58.8907L140.856 58.3258L140.555 59.9375Z" fill="#DADADA"/> <path d="M140.529 64.0056L180.394 64.5706L180.694 62.9588L140.83 62.3939L140.529 64.0056Z" fill="#DADADA"/> <path d="M140.497 68.0691L180.361 68.6342L180.662 67.0224L140.798 66.4574L140.497 68.0691Z" fill="#DADADA"/> <path d="M140.467 72.1387L180.332 72.7037L180.633 71.092L140.768 70.527L140.467 72.1387Z" fill="#DADADA"/> <path d="M140.435 76.2013L180.3 76.7663L180.601 75.1546L140.736 74.5896L140.435 76.2013Z" fill="#DADADA"/> <path d="M140.41 80.2659L180.274 80.8307L180.575 79.219L140.711 78.6542L140.41 80.2659Z" fill="#DADADA"/> <path d="M140.382 84.3369L180.246 84.9019L180.547 83.2901L140.682 82.7252L140.382 84.3369Z" fill="#DADADA"/> <mask id="mask0_3043_20246" style="mask-type:alpha" maskUnits="userSpaceOnUse" x="1" y="0" width="78" height="101"> <rect x="0.923828" y="13.6174" width="58.4043" height="89.9426" rx="2" transform="rotate(-13.4831 0.923828 13.6174)" fill="#E7CDB8"/> </mask> <g mask="url(#mask0_3043_20246)"> <path d="M55.446 0.544638L57.7178 -6.10352e-05L58.5348 3.40762L1.74019 17.0251L0.923144 13.6174L55.446 0.544638Z" fill="#EDEDED"/> <path d="M0.923828 13.6174L5.14855 16.2081L25.3024 100.264L21.8947 101.081L21.35 98.8094L0.923828 13.6174Z" fill="#DADADA"/> </g> <rect x="3.74023" y="15.3445" width="56.0681" height="87.6065" rx="1" transform="rotate(-13.4831 3.74023 15.3445)" fill="#FEFEFE"/> <rect x="11.8701" y="24.2056" width="44.3873" height="1.571" rx="0.785502" transform="rotate(-13.4831 11.8701 24.2056)" fill="#DADADA"/> <rect x="16.2285" y="42.3801" width="44.3873" height="1.571" rx="0.785502" transform="rotate(-13.4831 16.2285 42.3801)" fill="#DADADA"/> <rect x="20.5859" y="60.5543" width="44.3873" height="1.571" rx="0.785502" transform="rotate(-13.4831 20.5859 60.5543)" fill="#DADADA"/> <rect x="12.6865" y="27.6135" width="44.3873" height="1.571" rx="0.785502" transform="rotate(-13.4831 12.6865 27.6135)" fill="#DADADA"/> <rect x="17.0439" y="45.7877" width="44.3873" height="1.571" rx="0.785502" transform="rotate(-13.4831 17.0439 45.7877)" fill="#DADADA"/> <rect x="21.4033" y="63.962" width="44.3873" height="1.571" rx="0.785502" transform="rotate(-13.4831 21.4033 63.962)" fill="#DADADA"/> <rect x="13.5068" y="31.0211" width="44.3873" height="1.571" rx="0.785502" transform="rotate(-13.4831 13.5068 31.0211)" fill="#DADADA"/> <rect x="17.8623" y="49.1956" width="44.3873" height="1.571" rx="0.785502" transform="rotate(-13.4831 17.8623 49.1956)" fill="#DADADA"/> <rect x="22.2207" y="67.3696" width="44.3873" height="1.571" rx="0.785502" transform="rotate(-13.4831 22.2207 67.3696)" fill="#DADADA"/> <path d="M52.404 78.719L70.9419 60.7246L71.0558 61.1587L52.514 79.154L52.404 78.719Z" fill="#31302C"/> <path d="M53.6731 72.5904C54.4219 71.7558 55.1669 70.4665 54.6856 69.2475C54.3918 68.5096 53.7225 68.3552 53.1119 68.7751C51.917 69.6047 51.598 71.8616 51.4501 73.2152C51.3209 74.3985 51.327 76.5729 52.9962 76.5595C54.962 76.5467 55.6856 73.3973 55.7308 71.8328C55.7373 71.6142 55.3854 71.575 55.3427 71.7806C55.2597 72.1529 54.7221 74.6043 55.8565 74.0567C56.2606 73.8626 56.3357 73.1174 56.3991 72.7326C56.5168 72.0415 56.4322 71.1368 56.7242 70.4998C56.6068 70.4754 56.4884 70.447 56.371 70.4226C56.5371 70.998 56.633 71.3934 57.1054 71.7629C57.1822 71.8221 57.324 71.8452 57.3826 71.751C57.8483 71.0191 57.6478 70.047 58.1902 69.3574C58.0855 69.3343 57.9847 69.3104 57.879 69.2834C57.918 69.4704 57.9813 70.0138 58.0279 70.2629C58.0496 70.3815 58.2276 70.4176 58.3091 70.365C58.5097 70.23 58.558 70.1764 58.6072 69.931C58.5006 69.917 58.3902 69.9038 58.2826 69.8856C58.8981 71.2445 59.7142 69.5685 59.977 68.9297C60.7529 67.0458 61.1351 65.1364 60.6438 63.0638C60.606 62.8978 60.2808 62.8824 60.3278 63.0846C60.7017 64.6772 60.3993 66.2831 60.3447 67.8752C60.2866 69.6002 60.3203 71.3298 60.4321 73.0586C60.5348 73.0736 60.6364 73.0845 60.7352 73.1004C60.4631 71.9104 60.589 70.6981 60.7348 69.5153C60.8571 68.5166 61.019 67.4792 61.5637 66.6357C61.4698 66.623 61.375 66.6062 61.2811 66.5935C61.6797 67.3715 61.5706 68.3245 61.2505 69.0786C61.1962 69.2059 61.4302 69.3656 61.4855 69.2423C61.7735 68.5892 62.4337 68.2517 62.757 67.6076C63.0906 66.9399 63.1985 66.1446 63.4214 65.4297C63.3421 65.4094 63.2628 65.3891 63.1835 65.3688C63.4984 66.7279 64.1997 64.3372 64.3102 64.0737C64.2368 64.0605 64.1606 64.0523 64.0872 64.0392C64.2393 64.2984 64.3991 64.4579 64.704 64.3929C65.3088 64.2596 65.3036 63.2942 65.7328 63.0858C65.7367 63.085 65.9802 63.2169 66.0475 63.2059C66.3301 63.1671 66.5237 63.1018 66.7403 62.8993C67.1791 62.4844 67.4359 61.8384 67.584 61.2512C67.6215 61.1064 67.3432 60.9994 67.297 61.1589C67.1333 61.7497 66.5459 63.3523 65.696 62.826C65.6468 62.7946 65.5442 62.7796 65.5156 62.8457C65.3916 63.1209 64.6573 64.5993 64.2966 63.9873C64.2528 63.9121 64.1175 63.8492 64.0736 63.9529C63.9689 64.2066 63.9015 64.4774 63.8154 64.7397C63.7651 64.8831 63.5061 65.7809 63.4237 65.3738C63.4032 65.2763 63.2228 65.1981 63.1859 65.313C62.9313 66.0819 62.8437 67.0386 62.3891 67.7168C62.0518 68.2236 61.51 68.5086 61.2544 69.0777C61.334 69.132 61.4098 69.1872 61.4894 69.2414C61.8449 68.4155 61.9933 67.3896 61.5587 66.5346C61.5029 66.4281 61.3454 66.3915 61.2762 66.4925C60.7229 67.3507 60.5564 68.419 60.4342 69.4346C60.2868 70.6433 60.1581 71.8776 60.4364 73.0917C60.464 73.2174 60.7529 73.3008 60.7394 73.1335C60.6223 71.2696 60.59 69.3992 60.6809 67.5433C60.7551 66.0447 60.9944 64.5638 60.6449 63.0678C60.5395 63.0748 60.4342 63.0817 60.3288 63.0886C60.7138 64.7085 60.5708 66.1632 60.0656 67.7003C59.9322 68.1011 59.791 68.5036 59.6301 68.8936C59.5587 69.0674 58.9225 70.5917 58.6054 69.8591C58.5585 69.7548 58.3133 69.6487 58.2809 69.8137C58.2088 69.9195 58.1366 70.0253 58.0656 70.1351C58.1606 70.1689 58.2556 70.2026 58.3468 70.2372C58.2838 69.9067 58.2677 69.5825 58.1969 69.2537C58.1682 69.1239 57.958 69.0908 57.8857 69.1797C57.3337 69.88 57.5303 70.853 57.0567 71.5866C57.1504 71.5823 57.2402 71.5789 57.3339 71.5747C57.0218 71.2369 56.8226 70.8564 56.7352 70.4292C56.6957 70.2892 56.4546 70.1992 56.382 70.352C56.0554 71.0479 56.1447 72.0197 56.0061 72.7751C55.9294 73.1885 55.5587 74.3288 55.5031 73.2131C55.4798 72.7628 55.6358 72.2717 55.7328 71.8409C55.6047 71.8232 55.4728 71.8064 55.3447 71.7886C55.3023 73.1523 54.8164 75.3194 53.5852 76.038C52.0124 76.9536 51.7555 74.6999 51.8217 73.6587C51.9009 72.4569 52.1888 71.2333 52.6537 70.1397C52.7442 69.9275 52.8366 69.7064 52.9615 69.5162C53.2257 69.1112 53.3156 69.0268 53.8659 69.1827C54.4436 69.3494 54.4853 69.5145 54.4883 70.0801C54.4893 70.3609 54.4396 70.6532 54.3613 70.9137C54.1955 71.4795 53.8805 71.9769 53.5358 72.4385C53.4828 72.5059 53.6162 72.6587 53.6731 72.5904Z" fill="#31302C"/> <path d="M16.5362 87.6386L28.8398 182.323C29.4054 186.671 33.2259 189.938 37.7502 189.938H185.381C189.88 189.938 193.688 186.709 194.279 182.385L207.261 87.7014C207.978 82.4859 203.793 77.861 198.363 77.861H25.4466C20.0425 77.8485 15.8575 82.4356 16.5362 87.6386Z" fill="#DAEEF9"/> <path d="M16.2354 90.2525L28.539 184.936C29.1045 189.285 32.9251 192.552 37.4494 192.552H185.08C189.58 192.552 193.388 189.322 193.978 184.999L206.96 90.3153C207.677 85.0998 203.492 80.4749 198.063 80.4749H25.1458C19.7417 80.4624 15.5567 85.0621 16.2354 90.2525Z" fill="#8EBDDB"/> <path d="M43.418 113.744C42.5473 114.169 42 115.067 42 116.041V129.347C42 149.019 52.4235 159.08 68.0962 168.716C68.9171 169.215 69.962 169.215 70.7829 168.716C86.4555 159.08 96.8791 149.044 96.8791 129.347V116.041C96.8791 115.067 96.3318 114.169 95.4611 113.744L70.5839 101.262C69.8624 100.913 69.0166 100.913 68.2952 101.262L43.418 113.744Z" fill="#E6007A" stroke="#E6007A" stroke-width="2" stroke-miterlimit="10"/> <path d="M48.4948 117.921C47.794 118.262 47.3535 118.985 47.3535 119.767V130.465C47.3535 146.279 55.7432 154.367 68.3577 162.114C69.0185 162.516 69.8595 162.516 70.5202 162.114C83.1348 154.367 91.5245 146.299 91.5245 130.465V119.767C91.5245 118.985 91.084 118.262 90.3832 117.921L70.3601 107.886C69.7794 107.605 69.0986 107.605 68.5179 107.886L48.4948 117.921Z" fill="#8EBDDB" stroke="#E6007A" stroke-width="2" stroke-miterlimit="10"/> <path d="M59.4004 133.017L66.5401 141.482C66.9396 141.956 67.6694 141.956 68.0689 141.482L80.8166 126.367" stroke="#E6007A" stroke-width="4" stroke-miterlimit="10" stroke-linecap="round"/> <path d="M113.664 140L121.08 123.2H125.76L133.2 140H128.256L122.448 125.528H124.32L118.512 140H113.664ZM117.72 136.736L118.944 133.232H127.152L128.376 136.736H117.72ZM134.331 140V126.992H138.675V130.784L138.027 129.704C138.411 128.728 139.035 128 139.899 127.52C140.763 127.024 141.811 126.776 143.043 126.776V130.88C142.835 130.848 142.651 130.832 142.491 130.832C142.347 130.816 142.187 130.808 142.011 130.808C141.083 130.808 140.331 131.064 139.755 131.576C139.179 132.072 138.891 132.888 138.891 134.024V140H134.331ZM151.131 140.216C149.467 140.216 148.171 139.808 147.243 138.992C146.315 138.16 145.851 136.912 145.851 135.248V124.088H150.411V135.2C150.411 135.664 150.539 136.032 150.795 136.304C151.051 136.56 151.379 136.688 151.779 136.688C152.323 136.688 152.787 136.552 153.171 136.28L154.299 139.472C153.915 139.728 153.443 139.912 152.883 140.024C152.323 140.152 151.739 140.216 151.131 140.216ZM143.955 130.88V127.472H153.387V130.88H143.955Z" fill="white"/> </svg>