<svg width="48" height="38" viewBox="0 0 48 38"  fill="none" xmlns="http://www.w3.org/2000/svg">
    <path d="M14 7.16663H34C35.8966 7.16663 37.2801 7.16726 38.3375 7.27685C39.3911 7.38603 40.0457 7.59771 40.5232 7.96572C40.9819 8.31934 41.229 8.77949 41.361 9.53595C41.4982 10.3228 41.5 11.3616 41.5 12.8333V26.2083H6.5V12.8333C6.5 11.3616 6.50176 10.3228 6.63901 9.53595C6.77095 8.77949 7.01807 8.31934 7.47683 7.96572C7.95425 7.59771 8.60889 7.38603 9.66245 7.27685C10.7199 7.16726 12.1034 7.16663 14 7.16663Z"
          stroke="white" />
    <path d="M40.6667 26.2084H7.33333C6.44961 26.2084 5.5 26.7792 5.5 27.7362C5.5 29.2608 7.04656 30.2917 8.66667 30.2917H39.3333C40.9534 30.2917 42.5 29.2608 42.5 27.7362C42.5 26.7792 41.5504 26.2084 40.6667 26.2084Z"
          stroke="white" />
    <path d="M23.2101 21.775L23.8009 22.5818L23.2101 23.0145L22.6192 22.5818L23.2101 21.775ZM22.2101 10.675C22.2101 10.1227 22.6578 9.67502 23.2101 9.67502C23.7623 9.67502 24.2101 10.1227 24.2101 10.675H22.2101ZM28.8535 18.8818L23.8009 22.5818L22.6192 20.9682L27.6719 17.2682L28.8535 18.8818ZM22.6192 22.5818L17.5666 18.8818L18.7482 17.2682L23.8009 20.9682L22.6192 22.5818ZM22.2101 21.775V10.675H24.2101V21.775H22.2101Z"
          fill="white" />
</svg>
