<?xml version="1.0" encoding="UTF-8" standalone="no"?>
<svg
   width="45"
   height="29.874868"
   viewBox="0 0 45 29.874868"
   fill="none"
   version="1.1"
   id="svg8"
   sodipodi:docname="backup.svg"
   inkscape:version="1.1.2 (0a00cf5339, 2022-02-04)"
   xmlns:inkscape="http://www.inkscape.org/namespaces/inkscape"
   xmlns:sodipodi="http://sodipodi.sourceforge.net/DTD/sodipodi-0.dtd"
   xmlns="http://www.w3.org/2000/svg"
   xmlns:svg="http://www.w3.org/2000/svg">
  <defs
     id="defs12" />
  <sodipodi:namedview
     id="namedview10"
     pagecolor="#ffffff"
     bordercolor="#666666"
     borderopacity="1.0"
     inkscape:pageshadow="2"
     inkscape:pageopacity="0.0"
     inkscape:pagecheckerboard="0"
     showgrid="false"
     inkscape:zoom="19.181818"
     inkscape:cx="22.495261"
     inkscape:cy="14.362559"
     inkscape:window-width="1920"
     inkscape:window-height="1016"
     inkscape:window-x="0"
     inkscape:window-y="27"
     inkscape:window-maximized="1"
     inkscape:current-layer="svg8" />
  <path
     d="m 11.6667,1.5000179 h 21.6666 c 2.078,0 3.5114,0.00219 4.5891,0.122 1.0593,0.11777 1.5459,0.32997 1.8525,0.5835 0.2654,0.21945 0.4638,0.51905 0.5859,1.26995 0.1346,0.8278 0.1392,1.9511 0.1392,3.6912 V 21.791668 H 4.5 V 7.1666679 c 0,-1.7401 0.00462,-2.8634 0.13921,-3.6912 0.1221,-0.7509 0.32048,-1.0505 0.58589,-1.26995 0.30659,-0.25353 0.79324,-0.46573 1.8525,-0.5835 1.0777,-0.11981 2.5111,-0.122 4.5891,-0.122 z"
     stroke="#ffffff"
     stroke-width="3"
     id="path2" />
  <path
     d="M 40.5556,21.791568 H 4.44444 c -1.3468,0 -2.94444,0.9521 -2.94444,2.6944 0,2.4019 2.24434,3.8889 4.38889,3.8889 H 39.1111 c 2.1446,0 4.3889,-1.487 4.3889,-3.8889 0,-1.7423 -1.5976,-2.6944 -2.9444,-2.6944 z"
     stroke="#ffffff"
     stroke-width="3"
     id="path4" />
  <path
     d="m 22.6573,17.208268 0.8863,1.2102 -0.8863,0.649 -0.8862,-0.649 z m -1.5,-11.1000001 c 0,-0.8284 0.6716,-1.5 1.5,-1.5 0.8285,0 1.5,0.6716 1.5,1.5 z m 7.4389,8.6102001 -5.0526,3.7 -1.7725,-2.4204 5.0526,-3.7 z m -6.8251,3.7 -5.0526,-3.7 1.7724,-2.4204 5.0527,3.7 z m -0.6138,-1.2102 V 6.1082679 h 3 V 17.208268 Z"
     fill="#ffffff"
     id="path6" />
</svg>
