<svg width="52" height="44" viewBox="0 0 52 44" fill="none" xmlns="http://www.w3.org/2000/svg">
    <path d="M15.1667 9.16675H36.8333C38.9113 9.16675 40.3447 9.16894 41.4224 9.28875C42.4817 9.40652 42.9683 9.61872 43.2749 9.87225C43.5403 10.0917 43.7387 10.3913 43.8608 11.1422C43.9954 11.97 44 13.0933 44 14.8334V29.4584H8V14.8334C8 13.0933 8.00462 11.97 8.13921 11.1422C8.26131 10.3913 8.45969 10.0917 8.7251 9.87225C9.03169 9.61872 9.51834 9.40652 10.5776 9.28875C11.6553 9.16894 13.0887 9.16675 15.1667 9.16675Z"
          stroke="white" stroke-width="3" />
    <path d="M44.0556 29.4583H7.94444C6.59764 29.4583 5 30.4104 5 32.1527C5 34.5546 7.24434 36.0416 9.38889 36.0416H42.6111C44.7557 36.0416 47 34.5546 47 32.1527C47 30.4104 45.4024 29.4583 44.0556 29.4583Z"
          stroke="white" stroke-width="3" />
    <path d="M26.1573 24.875L27.0436 26.0852L26.1573 26.7342L25.2711 26.0852L26.1573 24.875ZM24.6573 13.775C24.6573 12.9466 25.3289 12.275 26.1573 12.275C26.9858 12.275 27.6573 12.9466 27.6573 13.775H24.6573ZM32.0962 22.3852L27.0436 26.0852L25.2711 23.6648L30.3237 19.9648L32.0962 22.3852ZM25.2711 26.0852L20.2185 22.3852L21.9909 19.9648L27.0436 23.6648L25.2711 26.0852ZM24.6573 24.875V13.775H27.6573V24.875H24.6573Z"
          fill="white" />
</svg>
