<svg width="36" height="36" viewBox="0 0 36 36" fill="none" xmlns="http://www.w3.org/2000/svg">
<path d="M24 27C24.5523 27 25 26.5523 25 26C25 25.4477 24.5523 25 24 25C23.4477 25 23 25.4477 23 26C23 26.5523 23.4477 27 24 27Z" fill="white" stroke="white" stroke-width="2" stroke-linecap="round" stroke-linejoin="round"/>
<path d="M15 27C15.5523 27 16 26.5523 16 26C16 25.4477 15.5523 25 15 25C14.4477 25 14 25.4477 14 26C14 26.5523 14.4477 27 15 27Z" fill="white" stroke="white" stroke-width="2" stroke-linecap="round" stroke-linejoin="round"/>
<path d="M7 8H10.6555L13.1047 19.5433C13.1882 19.9599 13.4171 20.3341 13.7513 20.6004C14.0854 20.8667 14.5035 21.0081 14.9324 21H23.8153C24.2442 21.0081 24.6623 20.8667 24.9964 20.6004C25.3306 20.3341 25.5594 19.9599 25.643 19.5433L27 12H11.5042" stroke="white" stroke-width="2" stroke-linecap="round" stroke-linejoin="round"/>
</svg>
