<svg width="35" height="35" viewBox="0 0 35 35" fill="none" xmlns="http://www.w3.org/2000/svg"> <path fill-rule="evenodd" clip-rule="evenodd" d="M31.0773 13.2854L29.1669 12.6583L30.071 10.8791C30.3585 10.3178 30.2526 9.63526 29.8085 9.18745L25.8127 5.17703C25.3649 4.73295 24.6824 4.62704 24.121 4.91453L22.3419 5.83328L21.7148 3.93745C21.5115 3.31133 20.9139 2.89903 20.2564 2.9312H14.671C14.0135 2.89903 13.416 3.31133 13.2127 3.93745L12.6585 5.83328L10.8794 4.91453C10.318 4.62704 9.6355 4.73295 9.1877 5.17703L5.17728 9.18745C4.7332 9.63526 4.62729 10.3178 4.91478 10.8791L5.83353 12.6583L3.9377 13.2854C3.31158 13.4887 2.89927 14.0862 2.93145 14.7437V20.402C2.89927 21.0595 3.31158 21.6571 3.9377 21.8604L5.83353 22.4874L4.92936 24.2666C4.64187 24.8279 4.74778 25.5105 5.19186 25.9583L9.1877 29.8229C9.6355 30.2669 10.318 30.3729 10.8794 30.0854L12.6585 29.1666L13.2856 31.0624C13.4889 31.6886 14.0864 32.1009 14.7439 32.0687H20.4023C21.0598 32.1009 21.6573 31.6886 21.8606 31.0624L22.4877 29.1666L24.2669 30.0708C24.8282 30.3583 25.5107 30.2524 25.9585 29.8083L29.9689 25.7979C30.413 25.3501 30.5189 24.6675 30.2314 24.1062L29.1669 22.3416L31.0627 21.7145C31.6888 21.5112 32.1011 20.9137 32.0689 20.2562V14.6708C32.0706 14.0438 31.6713 13.486 31.0773 13.2854ZM10.2085 17.5C10.2085 13.4729 13.4731 10.2083 17.5002 10.2083C19.4341 10.2083 21.2887 10.9765 22.6562 12.344C24.0236 13.7114 24.7919 15.5661 24.7919 17.5C24.7919 21.527 21.5273 24.7916 17.5002 24.7916C13.4731 24.7916 10.2085 21.527 10.2085 17.5ZM13.1252 17.5C13.1252 19.9162 15.0839 21.875 17.5002 21.875C18.6605 21.875 19.7733 21.414 20.5938 20.5935C21.4143 19.7731 21.8752 18.6603 21.8752 17.5C21.8752 15.0837 19.9164 13.125 17.5002 13.125C15.0839 13.125 13.1252 15.0837 13.1252 17.5ZM28.2773 19.5708L29.1669 19.2791V15.7208L28.2773 15.4291C27.4676 15.1677 26.8125 14.5658 26.4835 13.7812C26.1604 12.9934 26.1977 12.1038 26.5856 11.3458L27.0085 10.5L24.5002 7.99162L23.6544 8.41453C22.8963 8.79677 22.0093 8.82972 21.2249 8.50477C20.4405 8.17982 19.8367 7.52924 19.571 6.72287L19.2794 5.83328H15.721L15.4294 6.72287C15.1637 7.52924 14.5599 8.17982 13.7755 8.50477C12.9911 8.82972 12.1041 8.79677 11.346 8.41453L10.5002 7.99162L7.99186 10.5L8.41478 11.3458C8.80266 12.1038 8.83995 12.9934 8.51686 13.7812C8.18791 14.5658 7.53276 15.1677 6.72311 15.4291L5.83353 15.7208V19.2791L6.72311 19.5708C7.53276 19.8322 8.18791 20.4341 8.51686 21.2187C8.83995 22.0065 8.80266 22.8961 8.41478 23.6541L7.99186 24.5L10.5002 27.0083L11.346 26.5854C12.1041 26.2031 12.9911 26.1702 13.7755 26.4951C14.5599 26.8201 15.1637 27.4707 15.4294 28.277L15.721 29.1666H19.2794L19.571 28.277C19.8367 27.4707 20.4405 26.8201 21.2249 26.4951C22.0093 26.1702 22.8963 26.2031 23.6544 26.5854L24.5002 27.0083L27.0085 24.5L26.5856 23.6541C26.1977 22.8961 26.1604 22.0065 26.4835 21.2187C26.8125 20.4341 27.4676 19.8322 28.2773 19.5708Z" fill="white"/> </svg>