<svg width="21" height="21" viewBox="0 0 21 21" fill="none" xmlns="http://www.w3.org/2000/svg">
<path d="M16.5 8.25H9.75C8.92157 8.25 8.25 8.92157 8.25 9.75V16.5C8.25 17.3284 8.92157 18 9.75 18H16.5C17.3284 18 18 17.3284 18 16.5V9.75C18 8.92157 17.3284 8.25 16.5 8.25Z" stroke="white" stroke-width="2" stroke-linecap="round" stroke-linejoin="round"/>
<path d="M5.25 12.75H4.5C4.10218 12.75 3.72064 12.592 3.43934 12.3107C3.15804 12.0294 3 11.6478 3 11.25V4.5C3 4.10218 3.15804 3.72064 3.43934 3.43934C3.72064 3.15804 4.10218 3 4.5 3H11.25C11.6478 3 12.0294 3.15804 12.3107 3.43934C12.592 3.72064 12.75 4.10218 12.75 4.5V5.25" stroke="white" stroke-width="2" stroke-linecap="round" stroke-linejoin="round"/>
</svg>
