<svg width="32" height="39" viewBox="0 0 32 39" fill="none" xmlns="http://www.w3.org/2000/svg"> <circle cx="24" cy="31" r="7" stroke="#3B6CF4" stroke-width="2" stroke-linejoin="round"/> <path fill-rule="evenodd" clip-rule="evenodd" d="M3 0C1.34315 0 0 1.34315 0 3V33C0 34.6569 1.34315 36 3 36H19.101C18.5151 35.4259 18.0297 34.7496 17.6736 34H3C2.44772 34 2 33.5523 2 33V3C2 2.44772 2.44772 2 3 2H23C23.5523 2 24 2.44771 24 3V24C24.695 24 25.3663 24.1013 26 24.2899V3C26 1.34315 24.6569 0 23 0H3Z" fill="#3B6CF4"/> <path d="M21 30.6601L23.2144 33L27 29" stroke="#3B6CF4" stroke-width="2" stroke-miterlimit="10" stroke-linecap="round" stroke-linejoin="round"/> <line x1="5" y1="5" x2="14" y2="5" stroke="#3B6CF4" stroke-width="2" stroke-linecap="round"/> <line x1="5" y1="12" x2="21" y2="12" stroke="#3B6CF4" stroke-width="2" stroke-linecap="round"/> <line x1="5" y1="17" x2="21" y2="17" stroke="#3B6CF4" stroke-width="2" stroke-linecap="round"/> <line x1="5" y1="22" x2="21" y2="22" stroke="#3B6CF4" stroke-width="2" stroke-linecap="round"/> <line x1="5" y1="27" x2="14" y2="27" stroke="#3B6CF4" stroke-width="2" stroke-linecap="round"/> </svg>