<svg width="24" height="24" viewBox="0 0 24 24" fill="none" xmlns="http://www.w3.org/2000/svg">
    <path d="M11.1056 3.44721L5.78885 6.10557C5.00831 6.49585 4.61803 6.69098 4.61803 7C4.61803 7.30902 5.00831 7.50415 5.78885 7.89443L11.1056 10.5528C11.5445 10.7722 11.7639 10.882 12 10.882C12.2361 10.882 12.4555 10.7722 12.8944 10.5528L18.2111 7.89443C18.9917 7.50415 19.382 7.30902 19.382 7C19.382 6.69098 18.9917 6.49585 18.2111 6.10557L12.8944 3.44721C12.4555 3.22776 12.2361 3.11803 12 3.11803C11.7639 3.11803 11.5445 3.22776 11.1056 3.44721Z"
          fill="white" />
    <path fill-rule="evenodd" clip-rule="evenodd"
          d="M7.02217 10.4893C7.62603 10.8135 8.33716 11.169 9.15554 11.5782L10.2113 12.1061C11.0891 12.545 11.528 12.7644 12.0001 12.7644C12.4723 12.7644 12.9112 12.545 13.789 12.1061L14.8447 11.5782C15.6631 11.169 16.3742 10.8135 16.9781 10.4893L18.2113 11.1059C18.9918 11.4961 19.3821 11.6913 19.3821 12.0003C19.3821 12.3093 18.9918 12.5044 18.2113 12.8947L12.8946 15.5531C12.4557 15.7725 12.2362 15.8822 12.0001 15.8822C11.7641 15.8822 11.5446 15.7725 11.1057 15.5531L11.1057 15.5531L5.78898 12.8947C5.00844 12.5044 4.61816 12.3093 4.61816 12.0003C4.61816 11.6913 5.00844 11.4961 5.78898 11.1059L7.02217 10.4893Z"
          fill="white" />
    <path fill-rule="evenodd" clip-rule="evenodd"
          d="M7.02169 15.4893C7.62567 15.8135 8.33696 16.1692 9.15557 16.5785L10.2113 17.1063C11.0891 17.5452 11.528 17.7647 12.0001 17.7647C12.4723 17.7647 12.9112 17.5452 13.789 17.1063L14.8447 16.5785C15.6633 16.1692 16.3746 15.8135 16.9786 15.4893L18.2113 16.1056C18.9918 16.4959 19.3821 16.691 19.3821 17C19.3821 17.3091 18.9918 17.5042 18.2113 17.8945L12.8946 20.5528C12.4557 20.7723 12.2362 20.882 12.0001 20.882C11.7641 20.882 11.5446 20.7723 11.1057 20.5528L11.1057 20.5528L5.78898 17.8945C5.00844 17.5042 4.61816 17.3091 4.61816 17C4.61816 16.691 5.00844 16.4959 5.78898 16.1056L7.02169 15.4893Z"
          fill="white" />
</svg>
