<svg width="57" height="40" viewBox="0 0 57 40" fill="none" xmlns="http://www.w3.org/2000/svg"> <path fill-rule="evenodd" clip-rule="evenodd" d="M0 8.83593C0 8.26398 0.31913 7.73602 0.826836 7.48671L15.3327 0.153987C15.7534 -0.0513291 16.2466 -0.0513291 16.6673 0.153987L31.1732 7.48671C31.6809 7.73602 32 8.26398 32 8.83593V16.6526C32 28.2236 25.922 34.1192 16.7833 39.78C16.3046 40.0733 15.6954 40.0733 15.2167 39.78C6.07797 34.1192 0 28.209 0 16.6526V8.83593ZM3.31159 11.1687C3.31159 10.7163 3.56571 10.2986 3.97 10.1014L15.521 4.30089C15.856 4.13847 16.2487 4.13847 16.5837 4.30089L28.1347 10.1014C28.5389 10.2986 28.7931 10.7163 28.7931 11.1687V17.352C28.7931 26.5053 23.9532 31.1689 16.6761 35.6469C16.2949 35.8789 15.8098 35.8789 15.4286 35.6469C8.15145 31.1689 3.31159 26.4937 3.31159 17.352V11.1687Z" fill="#EFF3FE"/> <path d="M15.1056 10.4472L9.78885 13.1056C9.00831 13.4958 8.61803 13.691 8.61803 14C8.61803 14.309 9.00831 14.5042 9.78885 14.8944L15.1056 17.5528C15.5445 17.7722 15.7639 17.882 16 17.882C16.2361 17.882 16.4555 17.7722 16.8944 17.5528L22.2111 14.8944C22.9917 14.5042 23.382 14.309 23.382 14C23.382 13.691 22.9917 13.4958 22.2111 13.1056L16.8944 10.4472C16.4555 10.2278 16.2361 10.118 16 10.118C15.7639 10.118 15.5445 10.2278 15.1056 10.4472Z" fill="white"/> <path fill-rule="evenodd" clip-rule="evenodd" d="M11.0222 17.4893C11.626 17.8135 12.3372 18.169 13.1555 18.5782L14.2113 19.1061C15.0891 19.545 15.528 19.7644 16.0001 19.7644C16.4723 19.7644 16.9112 19.545 17.789 19.1061L18.8447 18.5782C19.6631 18.169 20.3742 17.8135 20.9781 17.4893L22.2113 18.1059C22.9918 18.4961 23.3821 18.6913 23.3821 19.0003C23.3821 19.3093 22.9918 19.5044 22.2113 19.8947L16.8946 22.5531C16.4557 22.7725 16.2362 22.8822 16.0001 22.8822C15.7641 22.8822 15.5446 22.7725 15.1057 22.5531L15.1057 22.5531L9.78898 19.8947C9.00844 19.5044 8.61816 19.3093 8.61816 19.0003C8.61816 18.6913 9.00844 18.4961 9.78898 18.1059L11.0222 17.4893Z" fill="white"/> <path fill-rule="evenodd" clip-rule="evenodd" d="M11.0217 22.4893C11.6257 22.8135 12.337 23.1692 13.1556 23.5785L14.2113 24.1063C15.0891 24.5452 15.528 24.7647 16.0001 24.7647C16.4723 24.7647 16.9112 24.5452 17.789 24.1063L18.8447 23.5785C19.6633 23.1692 20.3746 22.8135 20.9786 22.4893L22.2113 23.1056C22.9918 23.4959 23.3821 23.691 23.3821 24C23.3821 24.3091 22.9918 24.5042 22.2113 24.8945L16.8946 27.5528C16.4557 27.7723 16.2362 27.882 16.0001 27.882C15.7641 27.882 15.5446 27.7723 15.1057 27.5528L15.1057 27.5528L9.78898 24.8945C9.00844 24.5042 8.61816 24.3091 8.61816 24C8.61816 23.691 9.00844 23.4959 9.78898 23.1056L11.0217 22.4893Z" fill="white"/> <path d="M48.6663 30L49.3734 30.7071L48.6663 31.4142L47.9592 30.7071L48.6663 30ZM47.6663 10C47.6663 9.44772 48.1141 9 48.6663 9C49.2186 9 49.6663 9.44772 49.6663 10H47.6663ZM56.0401 24.0404L49.3734 30.7071L47.9592 29.2929L54.6259 22.6262L56.0401 24.0404ZM47.9592 30.7071L41.2926 24.0404L42.7068 22.6262L49.3734 29.2929L47.9592 30.7071ZM47.6663 30V10H49.6663V30H47.6663Z" fill="white"/> </svg>