<svg width="312" height="328" viewBox="0 0 312 328" fill="none" xmlns="http://www.w3.org/2000/svg">
<path d="M190.173 232.463V190.733C190.173 183.22 184.125 177.141 176.679 177.141H80.0248L63.8768 166.562H19.4991C11.8848 166.562 5.78564 172.902 6.00578 180.559L7.52084 232.463H190.173Z" fill="#E2E9FD"/>
<rect x="18" y="15.1851" width="63.0586" height="98.529" transform="rotate(-13 18 15.1851)" fill="#F9F9F9" stroke="#C4C4C4" stroke-width="0.25"/>
<rect x="27.002" y="22.2299" width="49.9214" height="1.76687" rx="0.883437" transform="rotate(-13 27.002 22.2299)" fill="#C4C4C4"/>
<rect x="27.8867" y="26.0707" width="49.9214" height="1.76687" rx="0.883437" transform="rotate(-13 27.8867 26.0707)" fill="#C4C4C4"/>
<path d="M70.7038 98.878L91.7229 78.8167L91.8469 79.3059L70.8234 99.3682L70.7038 98.878Z" fill="#455A64"/>
<path d="M72.1861 91.9964C73.0361 91.065 73.8862 89.6221 73.3564 88.2465C73.0331 87.4138 72.2818 87.2339 71.5911 87.7003C70.2394 88.622 69.8592 91.1572 69.68 92.6781C69.5235 94.0076 69.5098 96.4531 71.3871 96.4538C73.5981 96.4581 74.4418 92.923 74.5074 91.164C74.5167 90.9182 74.1214 90.8708 74.0714 91.1016C73.9745 91.5195 73.3467 94.2713 74.6277 93.6662C75.084 93.4518 75.1756 92.6144 75.2504 92.1822C75.3894 91.4062 75.3028 90.3879 75.6373 89.6743C75.5055 89.6457 75.3726 89.6126 75.2408 89.5841C75.4221 90.2327 75.5262 90.6784 76.054 91.0984C76.1398 91.1657 76.299 91.193 76.3658 91.0876C76.8966 90.2689 76.6803 89.1738 77.2968 88.4033C77.1793 88.3764 77.0661 88.3486 76.9475 88.3172C76.9897 88.5278 77.0557 89.1396 77.1056 89.4202C77.129 89.5537 77.3289 89.5961 77.421 89.5377C77.6479 89.3877 77.7027 89.3279 77.7603 89.0524C77.6406 89.0356 77.5165 89.0197 77.3957 88.9983C78.0751 90.5323 79.0088 88.6553 79.3104 87.9393C80.2008 85.8279 80.6487 83.6842 80.116 81.3486C80.075 81.1616 79.7093 81.1411 79.7603 81.369C80.1657 83.1636 79.8104 84.9668 79.7339 86.7569C79.6522 88.6963 79.6737 90.6417 79.7831 92.5871C79.8984 92.605 80.0126 92.6182 80.1235 92.637C79.8287 91.2962 79.9819 89.9339 80.157 88.605C80.304 87.4831 80.496 86.3179 81.1165 85.3744C81.0111 85.3592 80.9046 85.3395 80.7992 85.3243C81.2401 86.203 81.1083 87.2738 80.7412 88.1188C80.6789 88.2615 80.9405 88.4433 81.0039 88.3052C81.334 87.5734 82.0797 87.2001 82.4493 86.4788C82.831 85.731 82.9598 84.8377 83.2173 84.0357C83.1283 84.0122 83.0393 83.9886 82.9503 83.965C83.2916 85.4965 84.1029 82.8145 84.2297 82.5191C84.1473 82.5036 84.0616 82.4937 83.9793 82.4782C84.1478 82.7712 84.326 82.9521 84.6695 82.8818C85.351 82.7376 85.3543 81.6519 85.839 81.4216C85.8434 81.4207 86.116 81.5714 86.1917 81.5596C86.51 81.5187 86.7283 81.4471 86.9738 81.2214C87.4712 80.759 87.7662 80.0349 87.9383 79.3758C87.9819 79.2134 87.6699 79.0904 87.6164 79.2694C87.4268 79.9322 86.7508 81.729 85.8 81.129C85.7451 81.0933 85.6297 81.0754 85.597 81.1495C85.4549 81.4578 84.6151 83.1136 84.2152 82.4219C84.1667 82.3369 84.0151 82.2649 83.9648 82.381C83.8446 82.6654 83.7662 82.9693 83.6669 83.2635C83.609 83.4243 83.3092 84.4315 83.2204 83.9729C83.1982 83.863 82.9961 83.7734 82.9535 83.9022C82.6599 84.7646 82.5523 85.8397 82.0346 86.5981C81.6504 87.1649 81.0385 87.4803 80.7456 88.1179C80.8346 88.1797 80.9193 88.2424 81.0083 88.3042C81.4159 87.3787 81.5925 86.2263 81.1119 85.2607C81.0502 85.1404 80.8734 85.0978 80.7946 85.2106C80.1642 86.1705 79.9668 87.3704 79.8198 88.5114C79.6425 89.8694 79.4861 91.2563 79.7875 92.6244C79.8174 92.766 80.1415 92.8625 80.1279 92.6743C80.0139 90.5769 79.9954 88.4731 80.1152 86.3868C80.2128 84.702 80.4959 83.0389 80.1171 81.3532C79.9985 81.3599 79.88 81.3667 79.7614 81.3735C80.179 83.199 80.0045 84.8336 79.4217 86.5575C79.2678 87.0069 79.1052 87.4584 78.9205 87.8954C78.8386 88.0902 78.1087 89.7984 77.759 88.9715C77.7072 88.8537 77.4325 88.7322 77.3944 88.9173C77.3124 89.0357 77.2303 89.154 77.1493 89.2768C77.2558 89.3157 77.3624 89.3545 77.4646 89.3943C77.3969 89.022 77.3818 88.6572 77.3053 88.2867C77.2743 88.1406 77.0382 88.1014 76.9561 88.2006C76.3286 88.983 76.5405 90.0791 76.0009 90.8997C76.1063 90.8957 76.2073 90.8928 76.3127 90.8889C75.965 90.506 75.7446 90.0762 75.6503 89.5949C75.6072 89.4371 75.3369 89.3336 75.2538 89.5047C74.8799 90.2843 74.9711 91.3781 74.8081 92.2263C74.7179 92.6905 74.2902 93.9695 74.2382 92.7142C74.2163 92.2075 74.3964 91.6567 74.5096 91.1731C74.3657 91.152 74.2175 91.1318 74.0736 91.1106C74.013 92.6439 73.446 95.0765 72.0545 95.873C70.277 96.8877 70.0095 94.3507 70.0938 93.1803C70.1943 91.8296 70.5296 90.4561 71.0629 89.2306C71.1667 88.9929 71.2727 88.745 71.415 88.5323C71.7159 88.0793 71.8178 87.9854 72.4352 88.1659C73.0833 88.3588 73.1287 88.5449 73.1267 89.181C73.1251 89.4968 73.0665 89.8251 72.976 90.1174C72.784 90.752 72.4251 91.3085 72.0331 91.8243C71.9729 91.8996 72.1214 92.0727 72.1861 91.9964Z" fill="#455A64"/>
<rect x="38.9346" y="30.0832" width="31.4754" height="54.8155" transform="rotate(-13 38.9346 30.0832)" fill="white" stroke="#C4C4C4" stroke-width="0.25"/>
<path d="M68.465 55.0882L67.6949 55.0538L67.7451 52.5163L68.5078 52.5503C68.7644 52.5618 68.9956 52.7408 69.0671 52.9982C69.2261 53.5734 69.2226 54.1284 69.0541 54.6553C68.9673 54.9213 68.7316 55.1001 68.465 55.0882Z" fill="#D39A87"/>
<path d="M68.2617 55.0781L67.6916 55.0529L67.7432 52.5214L68.3133 52.5466C68.6426 52.5611 68.9072 52.8549 68.9001 53.2039L68.8742 54.4762C68.8646 54.8226 68.591 55.0926 68.2617 55.0781Z" fill="#D39A87"/>
<path d="M64.8224 64.22L64.971 64.8004L65.2733 65.9787L65.352 66.2839L65.5251 66.9655L66.0065 68.8373L66.0764 69.1125L66.671 71.434L66.7344 71.6866L67.2777 73.8061L67.3369 74.0356L67.3398 74.0456L67.6183 75.1332L63.9301 76.0479L63.5793 74.9676L63.5062 74.7415L62.9924 73.1595L62.8287 72.6553L62.7468 72.4073L62.0065 70.122L61.918 69.8514L61.1016 67.3381L61.0044 67.0375L60.628 65.8776L60.4424 65.3064L64.8224 64.22Z" fill="#B87E70"/>
<path d="M60.2013 66.3055L66.0131 64.8734C66.3679 64.786 66.5971 64.4458 66.5683 64.0552C66.4158 62.0456 66.5113 59.477 67.6241 56.5381L54.2627 59.8305C56.8281 61.863 58.3111 64.0426 59.2746 65.8524C59.4626 66.2038 59.8441 66.3935 60.2013 66.3055Z" fill="#D39A87"/>
<path d="M67.6617 74.0339L68.0534 75.6257C68.082 75.7416 68.0078 75.8606 67.8893 75.8899C66.6107 76.5465 65.1194 76.856 63.8961 76.8756C63.7752 76.9054 63.6486 76.836 63.6103 76.7225L63.0832 75.1641C63.0394 75.0407 63.1065 74.9151 63.2322 74.884L63.8442 74.733C63.9469 74.7384 64.0438 74.8039 64.0758 74.905L64.1554 75.151C64.2309 75.3923 64.4912 75.5378 64.733 75.4781L66.4019 75.0661C66.6462 75.0058 66.7923 74.7601 66.7264 74.5163L66.6614 74.2668C66.6341 74.1645 66.6799 74.0637 66.7659 74.0118L67.3802 73.8601C67.4238 73.8494 67.4663 73.8529 67.5062 73.8654C67.5805 73.889 67.6405 73.9524 67.6617 74.0339Z" fill="#D39A87"/>
<path d="M67.1254 71.7267L67.5495 73.4465C67.581 73.5717 67.5047 73.6984 67.382 73.7285L66.831 73.8639C66.7107 73.8934 66.6161 73.9665 66.557 74.064C66.4914 74.166 66.4701 74.2957 66.5048 74.4228L66.5695 74.6699C66.6026 74.7919 66.5303 74.9148 66.41 74.9443L64.7427 75.3539C64.62 75.3841 64.4902 75.3108 64.4523 75.19L64.3756 74.9459C64.2989 74.7018 64.0353 74.5507 63.7875 74.6115L63.2366 74.7469C63.1115 74.7776 62.9785 74.7023 62.935 74.5802L62.3641 72.8964C62.358 72.8757 62.3528 72.8577 62.3523 72.8384L62.3515 72.8358C62.3421 72.7246 62.406 72.6259 62.5167 72.5987L63.1543 72.4421C63.2613 72.4462 63.3623 72.5183 63.3973 72.6287L63.4824 72.8929C63.5668 73.1545 63.8382 73.3148 64.0908 73.2527L65.8255 72.8266C66.0781 72.7645 66.2254 72.5014 66.1554 72.2362L66.0847 71.9685C66.0546 71.8569 66.1027 71.7482 66.193 71.6956L66.8305 71.539C66.9605 71.507 67.0909 71.5912 67.1254 71.7267Z" fill="#D39A87"/>
<path d="M62.5272 72.455L63.1041 72.3133C63.3614 72.2501 63.642 72.4162 63.7246 72.6806L63.8081 72.9476C63.8491 73.0785 63.9858 73.1582 64.1132 73.1269L65.8536 72.6996C65.981 72.6683 66.0558 72.5366 66.0196 72.4045L65.9458 72.1352C65.872 71.8659 66.0224 71.5967 66.282 71.533L66.859 71.3913C66.9888 71.3595 67.0668 71.2214 67.0316 71.0836L66.5658 69.205C66.5299 69.0563 66.3893 68.9637 66.2547 68.9967L65.5864 69.1608C65.4929 69.2197 65.4447 69.3366 65.4754 69.4589L65.5544 69.7547C65.6311 70.0426 65.478 70.329 65.2136 70.3939L63.4011 70.839C63.1367 70.9039 62.8475 70.7261 62.7563 70.4417L62.6629 70.1495C62.625 70.0289 62.5169 69.9504 62.4037 69.9423L61.7355 70.1064C61.6009 70.1394 61.5299 70.284 61.5802 70.4292L62.2046 72.2688C62.2543 72.4031 62.3974 72.4868 62.5272 72.455Z" fill="#D39A87"/>
<path d="M61.7497 69.9431L62.3524 69.7951C62.6238 69.7285 62.9174 69.9132 63.0107 70.2049L63.1016 70.4972C63.1463 70.6408 63.2907 70.7296 63.4252 70.6966L65.2431 70.2504C65.3752 70.218 65.4517 70.075 65.4142 69.9297L65.3329 69.635C65.2523 69.3429 65.4071 69.0455 65.6784 68.9789L66.2812 68.831C66.4157 68.7979 66.4979 68.6481 66.4589 68.4976L65.9487 66.4341C65.9091 66.2727 65.7594 66.1659 65.6177 66.2007L64.9165 66.3728C64.819 66.4353 64.769 66.5635 64.8028 66.696L64.89 67.0196C64.9749 67.3355 64.8168 67.6475 64.5406 67.7153L62.641 68.1815C62.3649 68.2492 62.0571 68.0515 61.9578 67.7392L61.8562 67.4191C61.8145 67.2858 61.6987 67.1983 61.5808 67.1914L60.882 67.3629C60.7403 67.3977 60.6684 67.5561 60.7232 67.7165L61.411 69.7364C61.4628 69.8865 61.6128 69.9766 61.7497 69.9431Z" fill="#D39A87"/>
<path d="M60.8926 67.1831L61.5259 67.0278C61.809 66.9583 62.1218 67.1655 62.2233 67.4851L62.3248 67.8046C62.374 67.9634 62.5285 68.0606 62.6677 68.0264L64.5724 67.5592C64.7116 67.5251 64.789 67.3683 64.7478 67.2103L64.6606 66.8872C64.5735 66.5641 64.7309 66.2416 65.014 66.1721L65.6473 66.0168C65.7888 65.9821 65.8719 65.8184 65.8308 65.6521L65.2658 63.3765C65.221 63.1974 65.0628 63.0791 64.9141 63.1156L59.9386 64.3361C59.7899 64.3725 59.7178 64.5473 59.777 64.7229L60.534 66.9514C60.5895 67.1142 60.7486 67.2184 60.8926 67.1831Z" fill="#D39A87"/>
<path d="M67.6617 74.0339L68.0534 75.6257C68.082 75.7416 68.0078 75.8606 67.8893 75.8899C66.6107 76.5465 65.1194 76.856 63.8961 76.8756C63.7752 76.9054 63.6486 76.836 63.6103 76.7225L63.0832 75.1641C63.0394 75.0407 63.1065 74.9151 63.2322 74.884L63.8442 74.733C63.9469 74.7384 64.0438 74.8039 64.0758 74.905L64.1554 75.151C64.2309 75.3923 64.4912 75.5378 64.733 75.4781L66.4019 75.0661C66.6462 75.0058 66.7923 74.7601 66.7264 74.5163L66.6614 74.2668C66.6341 74.1645 66.6799 74.0637 66.7659 74.0118L67.3802 73.8601C67.4238 73.8494 67.4663 73.8529 67.5062 73.8654C67.5805 73.889 67.6405 73.9524 67.6617 74.0339Z" fill="#D39A87"/>
<path d="M67.1254 71.7267L67.5495 73.4465C67.581 73.5717 67.5047 73.6984 67.382 73.7285L66.831 73.8639C66.7107 73.8934 66.6161 73.9665 66.557 74.064C66.4914 74.166 66.4701 74.2957 66.5048 74.4228L66.5695 74.6699C66.6026 74.7919 66.5303 74.9148 66.41 74.9443L64.7427 75.3539C64.62 75.3841 64.4902 75.3108 64.4523 75.19L64.3756 74.9459C64.2989 74.7018 64.0353 74.5507 63.7875 74.6115L63.2366 74.7469C63.1115 74.7776 62.9785 74.7023 62.935 74.5802L62.3641 72.8964C62.358 72.8757 62.3528 72.8577 62.3523 72.8384L62.3515 72.8358C62.3421 72.7246 62.406 72.6259 62.5167 72.5987L63.1543 72.4421C63.2613 72.4462 63.3623 72.5183 63.3973 72.6287L63.4824 72.8929C63.5668 73.1545 63.8382 73.3148 64.0908 73.2527L65.8255 72.8266C66.0781 72.7645 66.2254 72.5014 66.1554 72.2362L66.0847 71.9685C66.0546 71.8569 66.1027 71.7482 66.193 71.6956L66.8305 71.539C66.9605 71.507 67.0909 71.5912 67.1254 71.7267Z" fill="#D39A87"/>
<path d="M62.5272 72.455L63.1041 72.3133C63.3614 72.2501 63.642 72.4162 63.7246 72.6806L63.8081 72.9476C63.8491 73.0785 63.9858 73.1582 64.1132 73.1269L65.8536 72.6996C65.981 72.6683 66.0558 72.5366 66.0196 72.4045L65.9458 72.1352C65.872 71.8659 66.0224 71.5967 66.282 71.533L66.859 71.3913C66.9888 71.3595 67.0668 71.2214 67.0316 71.0836L66.5658 69.205C66.5299 69.0563 66.3893 68.9637 66.2547 68.9967L65.5864 69.1608C65.4929 69.2197 65.4447 69.3366 65.4754 69.4589L65.5544 69.7547C65.6311 70.0426 65.478 70.329 65.2136 70.3939L63.4011 70.839C63.1367 70.9039 62.8475 70.7261 62.7563 70.4417L62.6629 70.1495C62.625 70.0289 62.5169 69.9504 62.4037 69.9423L61.7355 70.1064C61.6009 70.1394 61.5299 70.284 61.5802 70.4292L62.2046 72.2688C62.2543 72.4031 62.3974 72.4868 62.5272 72.455Z" fill="#D39A87"/>
<path d="M61.7497 69.9431L62.3524 69.7951C62.6238 69.7285 62.9174 69.9132 63.0107 70.2049L63.1016 70.4972C63.1463 70.6408 63.2907 70.7296 63.4252 70.6966L65.2431 70.2504C65.3752 70.218 65.4517 70.075 65.4142 69.9297L65.3329 69.635C65.2523 69.3429 65.4071 69.0455 65.6784 68.9789L66.2812 68.831C66.4157 68.7979 66.4979 68.6481 66.4589 68.4976L65.9487 66.4341C65.9091 66.2727 65.7594 66.1659 65.6177 66.2007L64.9165 66.3728C64.819 66.4353 64.769 66.5635 64.8028 66.696L64.89 67.0196C64.9749 67.3355 64.8168 67.6475 64.5406 67.7153L62.641 68.1815C62.3649 68.2492 62.0571 68.0515 61.9578 67.7392L61.8562 67.4191C61.8145 67.2858 61.6987 67.1983 61.5808 67.1914L60.882 67.3629C60.7403 67.3977 60.6684 67.5561 60.7232 67.7165L61.411 69.7364C61.4628 69.8865 61.6128 69.9766 61.7497 69.9431Z" fill="#D39A87"/>
<path d="M60.8926 67.1831L61.5259 67.0278C61.809 66.9583 62.1218 67.1655 62.2233 67.4851L62.3248 67.8046C62.374 67.9634 62.5285 68.0606 62.6677 68.0264L64.5724 67.5592C64.7116 67.5251 64.789 67.3683 64.7478 67.2103L64.6606 66.8872C64.5735 66.5641 64.7309 66.2416 65.014 66.1721L65.6473 66.0168C65.7888 65.9821 65.8719 65.8184 65.8308 65.6521L65.2658 63.3765C65.221 63.1974 65.0628 63.0791 64.9141 63.1156L59.9386 64.3361C59.7899 64.3725 59.7178 64.5473 59.777 64.7229L60.534 66.9514C60.5895 67.1142 60.7486 67.2184 60.8926 67.1831Z" fill="#D39A87"/>
<path d="M59.2224 42.2922L54.8083 43.3971L52.049 32.5014L55.7659 31.5711L59.2224 42.2922Z" fill="#B87E70"/>
<path d="M59.4916 41.324L53.6645 42.7745C53.3088 42.8631 53.0776 43.2027 53.1044 43.5915C53.247 45.5912 53.1384 48.1485 52.0093 51.0788L65.4056 47.7439C62.8469 45.7317 61.3729 43.5684 60.4173 41.771C60.2307 41.422 59.8473 41.2354 59.4916 41.324Z" fill="#D39A87"/>
<path d="M56.063 30.8945C56.0248 30.7811 55.8958 30.7124 55.7773 30.7417C54.5537 30.7623 53.0617 31.0725 51.7823 31.7296C51.6637 31.759 51.5894 31.8779 51.618 31.9937L52.0083 33.5839C52.0392 33.7076 52.1655 33.7852 52.2889 33.7547L52.9035 33.6027C52.9903 33.5534 53.0386 33.452 53.0115 33.3498L52.9443 33.1012C52.8786 32.8577 53.0249 32.612 53.2693 32.5516L54.9389 32.1387C55.1833 32.0783 55.441 32.224 55.5188 32.4645L55.5957 32.7108C55.6277 32.8118 55.7246 32.8772 55.8265 32.8799L56.4412 32.7279C56.5646 32.6974 56.6318 32.5719 56.5913 32.4506L56.063 30.8945Z" fill="#D39A87"/>
<path d="M56.4327 32.8698L55.8814 33.0054C55.6335 33.0664 55.37 32.9156 55.2935 32.6717L55.217 32.4278C55.1791 32.3072 55.0494 32.234 54.9266 32.2643L53.2584 32.6748C53.1357 32.705 53.0633 32.8279 53.0963 32.9498L53.1632 33.196C53.2301 33.4423 53.0843 33.6938 52.8364 33.7548L52.2852 33.8905C52.16 33.9213 52.0859 34.0474 52.1181 34.175L52.5432 35.8927C52.5776 36.028 52.708 36.1121 52.838 36.0801L53.4759 35.9231C53.5663 35.8704 53.6145 35.7618 53.5844 35.6503L53.5132 35.3802C53.4434 35.1153 53.5917 34.8548 53.8445 34.7926L55.58 34.3655C55.8327 34.3033 56.1065 34.4627 56.1875 34.722L56.2732 34.9885C56.3081 35.0988 56.4083 35.1682 56.5161 35.1749L57.154 35.0179C57.284 34.9859 57.351 34.8532 57.3069 34.7203L56.7374 33.0381C56.6908 32.9141 56.5578 32.8389 56.4327 32.8698Z" fill="#D39A87"/>
<path d="M57.145 35.1618L56.5677 35.3038C56.3104 35.3671 56.0298 35.2014 55.9473 34.9372L55.8641 34.6705C55.8233 34.5397 55.6865 34.4601 55.559 34.4914L53.8177 34.9198C53.6902 34.9511 53.6153 35.0828 53.6514 35.2148L53.725 35.4839C53.7978 35.7504 53.6479 36.0221 53.3881 36.0859L52.8109 36.2279C52.681 36.2599 52.6028 36.3979 52.6379 36.5356L53.1022 38.4126C53.138 38.5612 53.2785 38.6537 53.4132 38.6205L54.0818 38.4561C54.1754 38.3971 54.2238 38.2803 54.1931 38.158L54.1144 37.8626C54.0379 37.5748 54.1913 37.2886 54.4559 37.2235L56.2694 36.7774C56.5339 36.7123 56.8231 36.8897 56.914 37.1739L57.0072 37.4658C57.045 37.5863 57.153 37.6647 57.2663 37.6727L57.9349 37.5083C58.0696 37.4751 58.1407 37.3306 58.0905 37.1855L57.4675 35.3476C57.4179 35.2134 57.2748 35.1299 57.145 35.1618Z" fill="#D39A87"/>
<path d="M57.9229 37.6711L57.3198 37.8194C57.0483 37.8861 56.7548 37.7018 56.6641 37.4098L56.5734 37.1177C56.5288 36.9742 56.3844 36.8856 56.2499 36.9187L54.4285 37.3665C54.2964 37.399 54.2197 37.5419 54.2571 37.6872L54.3382 37.9816C54.4185 38.2735 54.2635 38.5708 53.9919 38.6376L53.3888 38.7859C53.2543 38.819 53.172 38.9688 53.2108 39.1192L53.7193 41.181C53.7588 41.3423 53.9085 41.4489 54.0503 41.414L54.7519 41.2415C54.8495 41.1789 54.8995 41.0508 54.8659 40.9184L54.779 40.5951C54.6943 40.2795 54.8528 39.9675 55.1291 39.8996L57.0297 39.4323C57.306 39.3643 57.6137 39.5617 57.7128 39.8738L57.8142 40.1935C57.8557 40.3267 57.9715 40.4141 58.0894 40.4209L58.7886 40.249C58.9304 40.2142 59.0025 40.0558 58.9478 39.8955L58.2615 37.8774C58.2082 37.7306 58.0575 37.638 57.9229 37.6711Z" fill="#D39A87"/>
<path d="M58.7819 40.4341L58.1482 40.5899C57.8649 40.6595 57.5522 40.4527 57.4509 40.1334L57.3496 39.8141C57.3006 39.6554 57.1461 39.5585 57.0069 39.5927L55.101 40.0611C54.9618 40.0953 54.8842 40.252 54.9253 40.4099L55.0122 40.7327C55.099 41.0556 54.9413 41.378 54.6581 41.4476L54.0244 41.6033C53.8827 41.6381 53.7995 41.8018 53.8404 41.9679L54.4036 44.2417C54.4484 44.4207 54.6065 44.5388 54.7553 44.5022L59.7336 43.2788C59.8824 43.2422 59.9548 43.0675 59.8956 42.892L59.1404 40.6654C59.0843 40.5003 58.9235 40.3993 58.7819 40.4341Z" fill="#D39A87"/>
<path d="M56.063 30.8945C56.0248 30.7811 55.8958 30.7124 55.7773 30.7417C54.5537 30.7623 53.0617 31.0725 51.7823 31.7296C51.6637 31.759 51.5894 31.8779 51.618 31.9937L52.0083 33.5839C52.0392 33.7076 52.1655 33.7852 52.2889 33.7547L52.9035 33.6027C52.9903 33.5534 53.0386 33.452 53.0115 33.3498L52.9443 33.1012C52.8786 32.8577 53.0249 32.612 53.2693 32.5516L54.9389 32.1387C55.1833 32.0783 55.441 32.224 55.5188 32.4645L55.5957 32.7108C55.6277 32.8118 55.7246 32.8772 55.8265 32.8799L56.4412 32.7279C56.5646 32.6974 56.6318 32.5719 56.5913 32.4506L56.063 30.8945Z" fill="#D39A87"/>
<path d="M56.4327 32.8698L55.8814 33.0054C55.6335 33.0664 55.37 32.9156 55.2935 32.6717L55.217 32.4278C55.1791 32.3072 55.0494 32.234 54.9266 32.2643L53.2584 32.6748C53.1357 32.705 53.0633 32.8279 53.0963 32.9498L53.1632 33.196C53.2301 33.4423 53.0843 33.6938 52.8364 33.7548L52.2852 33.8905C52.16 33.9213 52.0859 34.0474 52.1181 34.175L52.5432 35.8927C52.5776 36.028 52.708 36.1121 52.838 36.0801L53.4759 35.9231C53.5663 35.8704 53.6145 35.7618 53.5844 35.6503L53.5132 35.3802C53.4434 35.1153 53.5917 34.8548 53.8445 34.7926L55.58 34.3655C55.8327 34.3033 56.1065 34.4627 56.1875 34.722L56.2732 34.9885C56.3081 35.0988 56.4083 35.1682 56.5161 35.1749L57.154 35.0179C57.284 34.9859 57.351 34.8532 57.3069 34.7203L56.7374 33.0381C56.6908 32.9141 56.5578 32.8389 56.4327 32.8698Z" fill="#D39A87"/>
<path d="M57.145 35.1618L56.5677 35.3038C56.3104 35.3671 56.0298 35.2014 55.9473 34.9372L55.8641 34.6705C55.8233 34.5397 55.6865 34.4601 55.559 34.4914L53.8177 34.9198C53.6902 34.9511 53.6153 35.0828 53.6514 35.2148L53.725 35.4839C53.7978 35.7504 53.6479 36.0221 53.3881 36.0859L52.8109 36.2279C52.681 36.2599 52.6028 36.3979 52.6379 36.5356L53.1022 38.4126C53.138 38.5612 53.2785 38.6537 53.4132 38.6205L54.0818 38.4561C54.1754 38.3971 54.2238 38.2803 54.1931 38.158L54.1144 37.8626C54.0379 37.5748 54.1913 37.2886 54.4559 37.2235L56.2694 36.7774C56.5339 36.7123 56.8231 36.8897 56.914 37.1739L57.0072 37.4658C57.045 37.5863 57.153 37.6647 57.2663 37.6727L57.9349 37.5083C58.0696 37.4751 58.1407 37.3306 58.0905 37.1855L57.4675 35.3476C57.4179 35.2134 57.2748 35.1299 57.145 35.1618Z" fill="#D39A87"/>
<path d="M57.9229 37.6711L57.3198 37.8194C57.0483 37.8861 56.7548 37.7018 56.6641 37.4098L56.5734 37.1177C56.5288 36.9742 56.3844 36.8856 56.2499 36.9187L54.4285 37.3665C54.2964 37.399 54.2197 37.5419 54.2571 37.6872L54.3382 37.9816C54.4185 38.2735 54.2635 38.5708 53.9919 38.6376L53.3888 38.7859C53.2543 38.819 53.172 38.9688 53.2108 39.1192L53.7193 41.181C53.7588 41.3423 53.9085 41.4489 54.0503 41.414L54.7519 41.2415C54.8495 41.1789 54.8995 41.0508 54.8659 40.9184L54.779 40.5951C54.6943 40.2795 54.8528 39.9675 55.1291 39.8996L57.0297 39.4323C57.306 39.3643 57.6137 39.5617 57.7128 39.8738L57.8142 40.1935C57.8557 40.3267 57.9715 40.4141 58.0894 40.4209L58.7886 40.249C58.9304 40.2142 59.0025 40.0558 58.9478 39.8955L58.2615 37.8774C58.2082 37.7306 58.0575 37.638 57.9229 37.6711Z" fill="#D39A87"/>
<path d="M58.7819 40.4341L58.1482 40.5899C57.8649 40.6595 57.5522 40.4527 57.4509 40.1334L57.3496 39.8141C57.3006 39.6554 57.1461 39.5585 57.0069 39.5927L55.101 40.0611C54.9618 40.0953 54.8842 40.252 54.9253 40.4099L55.0122 40.7327C55.099 41.0556 54.9413 41.378 54.6581 41.4476L54.0244 41.6033C53.8827 41.6381 53.7995 41.8018 53.8404 41.9679L54.4036 44.2417C54.4484 44.4207 54.6065 44.5388 54.7553 44.5022L59.7336 43.2788C59.8824 43.2422 59.9548 43.0675 59.8956 42.892L59.1404 40.6654C59.0843 40.5003 58.9235 40.3993 58.7819 40.4341Z" fill="#D39A87"/>
<path d="M62.2698 62.2458C66.6815 61.1456 69.1672 56.4761 67.8216 51.816C66.4761 47.1559 61.8089 44.2701 57.3973 45.3702C52.9856 46.4704 50.4999 51.1399 51.8455 55.8C53.191 60.4601 57.8582 63.3459 62.2698 62.2458Z" fill="#B87E70"/>
<path d="M62.0829 61.5909C66.1521 60.5762 68.4447 56.2691 67.2037 51.9709C65.9626 47.6726 61.6578 45.0108 57.5886 46.0255C53.5194 47.0403 51.2268 51.3473 52.4679 55.6456C53.7089 59.9438 58.0137 62.6056 62.0829 61.5909Z" fill="#D39A87"/>
<path d="M61.6812 60.2047C65.0257 59.3706 66.91 55.8307 65.89 52.2979C64.87 48.7651 61.3318 46.5774 57.9873 47.4114C54.6429 48.2454 52.7585 51.7854 53.7786 55.3182C54.7986 58.8509 58.3367 61.0387 61.6812 60.2047Z" fill="white"/>
<path d="M61.6812 60.2047C65.0257 59.3706 66.91 55.8307 65.89 52.2979C64.87 48.7651 61.3318 46.5774 57.9873 47.4114C54.6429 48.2454 52.7585 51.7854 53.7786 55.3182C54.7986 58.8509 58.3367 61.0387 61.6812 60.2047Z" fill="#B87E70"/>
<path d="M65.769 53.7934C65.5508 50.3042 62.7172 47.483 59.4399 47.4919C56.1626 47.5009 53.6827 50.3366 53.9008 53.8257C54.119 57.3148 56.9527 60.1361 60.23 60.1271C63.5073 60.1182 65.9872 57.2825 65.769 53.7934Z" fill="white"/>
<path d="M54.9211 54.947L54.2197 55.1229L54.3196 55.4709L55.021 55.295C55.0015 55.2364 54.9804 55.1809 54.9634 55.1216C54.9447 55.0655 54.9349 55.0043 54.9211 54.947Z" fill="#3C3C3B"/>
<path d="M64.7523 52.671L65.4536 52.4951L65.3537 52.1471L64.6523 52.323C64.6718 52.3817 64.6929 52.4372 64.71 52.4965C64.7262 52.5532 64.7377 52.6111 64.7523 52.671Z" fill="#3C3C3B"/>
<path d="M60.9746 58.7047L61.1814 59.4268L61.4983 59.3471L61.2915 58.6251C61.2382 58.6412 61.188 58.6591 61.134 58.6727C61.0831 58.6882 61.027 58.6943 60.9746 58.7047Z" fill="#3C3C3B"/>
<path d="M58.6975 48.9132L58.4907 48.1912L58.1738 48.2709L58.3807 48.9929C58.4339 48.9768 58.4841 48.9588 58.5381 48.9453C58.589 48.9298 58.6428 48.9243 58.6975 48.9132Z" fill="#3C3C3B"/>
<path d="M58.5559 58.6686C58.6644 58.7066 58.7729 58.7446 58.8841 58.7739L58.7211 59.4897L58.392 59.3901L58.5559 58.6686ZM61.2785 48.2286L60.9494 48.129L60.7865 48.8448C60.8976 48.874 61.0061 48.912 61.1146 48.95L61.2785 48.2286ZM55.8487 57.7115L56.0945 57.9674L56.5873 57.4514C56.5021 57.3696 56.4168 57.2878 56.3373 57.1992L55.8487 57.7115ZM63.8242 49.9066L63.5784 49.6507L63.0856 50.1667C63.1709 50.2485 63.2561 50.3303 63.3356 50.4189L63.8242 49.9066ZM65.3158 55.6679L65.3907 55.3319L64.6894 55.1164C64.6683 55.2301 64.6386 55.3406 64.6088 55.451L65.3158 55.6679ZM54.3572 51.9502L54.2822 52.2861L54.9836 52.5016C55.0046 52.3879 55.0344 52.2775 55.0641 52.167L54.3572 51.9502ZM63.8597 58.2082L64.0909 57.9689L63.5611 57.4232C63.4877 57.5066 63.4142 57.59 63.3338 57.667L63.8597 58.2082ZM55.8132 49.4098L55.582 49.6491L56.1118 50.1949C56.1852 50.1115 56.2587 50.0281 56.3392 49.9511L55.8132 49.4098ZM55.692 54.8574L55.6411 54.6722L54.3696 54.9893L54.4682 55.3307L55.7397 55.0137L55.692 54.8574ZM63.9332 52.6044L64.0318 52.9458L65.3009 52.6294L65.2023 52.2879L63.9332 52.6044ZM60.9182 58.1555L61.3271 59.5719L61.6504 59.4913L61.2414 58.0749L61.0817 58.1174L60.9182 58.1555ZM58.4308 49.5407L58.754 49.46L58.3458 48.0462L58.0225 48.1268L58.4308 49.5407Z" fill="#3C3C3B"/>
<path d="M60.9092 57.5263C58.9697 58.01 56.908 56.7373 56.3157 54.686C55.7242 52.6372 56.8202 50.5744 58.7621 50.0901C60.7017 49.6064 62.7633 50.8791 63.3556 52.9304C63.9479 54.9817 62.8511 57.042 60.9092 57.5263ZM58.7994 50.2191C56.9245 50.6866 55.8644 52.6782 56.4362 54.6587C57.008 56.6391 58.9985 57.8699 60.8734 57.4024C62.7483 56.9348 63.8084 54.9433 63.2366 52.9628C62.6648 50.9823 60.6743 49.7515 58.7994 50.2191Z" fill="#EFEFEF"/>
<path d="M64.0697 53.4943L65.4733 53.544L64.0824 53.6694L57.3133 53.819L57.3037 53.7111L64.0697 53.4943Z" fill="#EFEFEF"/>
<path d="M57.009 52.0953L56.418 51.4126L57.2321 51.7422L60.6016 54.268L60.4625 54.4865L57.009 52.0953Z" fill="#B87E70"/>
<path d="M63.9019 51.0499L62.8732 51.5517L58.819 54.3937L58.938 54.5727L63.0535 51.8267L63.9019 51.0499Z" fill="#D39A87"/>
<path d="M60.0691 54.1646C59.8885 54.2856 59.637 54.2236 59.5079 54.0253C59.3795 53.8296 59.4232 53.5719 59.6062 53.4504C59.7869 53.3294 60.0384 53.3914 60.1675 53.5897C60.2943 53.7885 60.2506 54.0462 60.0691 54.1646Z" fill="#D39A87"/>
<path d="M169.759 53.3274L85.5137 67.8503L105.446 183.477L189.692 168.954L169.759 53.3274Z" fill="#8EBDDB"/>
<path d="M126.66 74.1103C126.66 74.1103 133.784 71.5059 142.983 75.9432C148.79 78.7455 150.974 76.5378 154.024 81.75C157.073 86.9622 163.498 89.2942 162.739 94.8775C161.98 100.458 166.198 98.2979 165.832 103.666C165.465 109.035 167.99 111.183 168.081 115.04C168.172 118.896 156.103 125.423 149.945 125.481C143.788 125.539 135.855 123.608 136.503 114.89C137.151 106.171 126.66 74.1103 126.66 74.1103Z" fill="#3C5C99"/>
<path d="M115.341 82.731C115.341 82.731 120.225 71.865 134.715 73.4557C134.715 73.4557 140.351 74.7324 143.797 83.3565C147.314 92.1565 142.433 100.147 138.998 98.9737C136.793 98.2219 135.878 102.007 135.878 102.007L115.341 82.731Z" fill="#3C5C99"/>
<path d="M159.212 143.747C159.258 145.687 159.124 147.638 158.779 149.569C157.315 157.773 156.418 161.17 156.991 164.078C157.497 166.646 159.153 168.835 162.587 173.623L126.197 179.897C127.359 161.41 120.88 156.382 118.894 147.007C118.712 146.17 118.568 145.298 118.472 144.377C117.172 132.11 124.316 117.443 124.316 117.443C124.316 117.443 124.349 117.434 124.403 117.418C124.424 117.415 124.445 117.408 124.475 117.4C124.532 117.384 124.601 117.365 124.669 117.344C124.756 117.32 124.845 117.292 124.93 117.271C124.978 117.26 125.026 117.248 125.065 117.238C125.215 117.197 125.394 117.147 125.59 117.098C126.16 116.658 125.873 113.992 125.387 111.21C125.358 111.045 125.33 110.881 125.299 110.717C125.252 110.465 125.205 110.21 125.159 109.96C125.116 109.733 125.072 109.511 125.031 109.29C125.009 109.181 124.987 109.071 124.964 108.959C124.898 108.629 124.829 108.305 124.763 107.994C124.736 107.851 124.706 107.715 124.676 107.579C124.663 107.519 124.652 107.458 124.639 107.401C124.596 107.204 124.557 107.016 124.512 106.83C124.493 106.736 124.475 106.648 124.453 106.558C124.435 106.47 124.414 106.386 124.396 106.298C124.367 106.168 124.339 106.041 124.309 105.921C124.305 105.897 124.298 105.879 124.294 105.855C124.264 105.716 124.232 105.583 124.201 105.46C124.144 105.203 124.088 104.987 124.049 104.815C124.04 104.779 124.034 104.746 124.025 104.713C124.002 104.616 123.986 104.541 123.967 104.484C123.961 104.451 123.954 104.427 123.951 104.409C123.943 104.382 123.941 104.37 123.941 104.37L134.205 100.434L134.241 100.421L134.826 100.195L135.472 99.9456C135.476 99.9482 135.473 99.9487 135.473 99.9487C135.592 100.656 135.725 101.335 135.866 101.991C137.486 109.39 140.515 113.572 141.94 113.693C142.015 113.692 142.092 113.701 142.169 113.71C142.169 113.71 142.169 113.71 142.172 113.709C143.515 113.844 145.164 114.767 146.902 116.299C149.155 118.275 151.559 121.275 153.64 124.901C156.688 130.233 159.052 136.927 159.212 143.747Z" fill="#DAEEF9"/>
<path d="M123.933 104.37C123.933 104.37 124.799 107.871 125.384 111.209C131.66 109.946 134 103.619 134.814 100.196L123.933 104.37Z" fill="#C1E1F0"/>
<path d="M135.769 98.7687C135.769 98.7687 138.173 92.9801 138.196 88.3797C138.212 85.0939 134.553 73.5623 122.974 77.3111C122.974 77.3111 119.586 78.2463 116.72 80.9917C114.444 83.1775 111.371 87.5764 117.307 97.1666L118.989 100.464L135.769 98.7687Z" fill="#3C5C99"/>
<path d="M122.374 107.897C122.374 107.897 137.334 105.572 135.741 96.2777C134.148 86.9859 135.009 80.4256 125.389 81.5164C115.769 82.6072 114.526 86.4712 114.305 89.7012C114.082 92.9347 118.442 108.262 122.374 107.897Z" fill="#DAEEF9"/>
<path d="M118.556 82.4587C118.556 82.4587 124.518 92.6558 131.066 93.1858C137.61 93.7163 140.04 91.5698 140.04 91.5698C140.04 91.5698 134.573 88.5802 132.425 82.0839C132.429 82.0864 120.743 76.742 118.556 82.4587Z" fill="#3C5C99"/>
<path d="M119.723 83.1703C119.723 83.1703 117.091 86.1292 116.756 88.6232C116.421 91.1172 116.926 96.0469 115.478 96.124C115.478 96.124 111.122 89.2463 113.859 84.4571C116.759 79.3825 119.723 83.1703 119.723 83.1703Z" fill="#3C5C99"/>
<path d="M159.41 154.68C161.49 160.909 164.161 167.253 166.608 172.933L119.121 181.119C118.246 170.387 118.371 158.159 117.434 149.867C117.357 149.184 117.275 148.527 117.18 147.904C115.728 143.74 114.843 140.058 114.367 136.844C113.085 128.189 114.782 122.917 116.392 120.636C116.868 120.121 117.373 119.761 119.522 118.999C120.618 118.613 122.148 118.12 124.317 117.445C124.317 117.445 124.35 117.436 124.404 117.421C124.425 117.417 124.446 117.41 124.476 117.402C124.533 117.386 124.602 117.368 124.67 117.347C124.757 117.322 124.846 117.294 124.931 117.273C124.979 117.262 125.027 117.251 125.066 117.241C125.145 117.224 125.196 117.215 125.194 117.222C125.099 117.489 125.142 118.265 125.302 119.244C125.608 121.183 126.342 123.916 127.22 125.097C130.582 129.615 137.499 127.943 139.789 122.889C139.849 122.75 139.911 122.614 139.964 122.47C141.241 119.165 141.898 113.696 141.898 113.696C141.898 113.696 142.159 113.67 142.163 113.67C142.757 113.627 145.527 113.014 148.357 113.119C150.92 113.216 153.515 114.03 155.192 114.86C155.192 114.86 155.182 114.877 155.163 114.909C155.62 115.128 155.979 115.389 156.212 115.687C157.442 117.291 158.791 119.585 160.195 122.313C164.248 130.183 168.763 141.655 172.221 150.494C166.672 154.921 161.15 154.841 159.41 154.68Z" fill="#8EBDDB"/>
<path d="M182.839 170.135L117.089 181.469C115.507 173.762 113.463 159.469 117.436 149.867C117.854 148.857 118.338 147.902 118.899 147.009C120.199 144.926 121.904 143.193 124.11 141.985C126.034 140.925 127.846 139.707 129.548 138.376C134.917 134.177 139.167 128.895 142.257 124.245C144.321 121.143 145.873 118.323 146.898 116.302C147.518 115.076 147.947 114.146 148.176 113.618C148.322 113.301 148.392 113.129 148.392 113.129C148.392 113.129 156.202 113.504 161.099 116.961C161.703 117.387 162.516 118.595 163.477 120.389C168.821 130.358 178.756 158.382 182.839 170.135Z" fill="#C1E1F0"/>
<path d="M135.057 144.578L140.714 177.397L113.127 182.152C112.452 166.726 110.909 125.871 113.203 121.992C116.033 117.202 125.589 117.101 125.589 117.101C125.589 117.101 125.446 117.928 125.3 119.248C124.961 122.354 124.628 128.187 126.193 132.445C126.945 134.501 128.206 136.557 129.545 138.376C132.154 141.924 135.057 144.578 135.057 144.578Z" fill="#C1E1F0"/>
<path d="M115.341 82.7313C115.341 82.7313 118.052 80.16 125.395 81.5187C132.737 82.8773 135.318 93.3594 135.318 93.3594C135.318 93.3594 137.645 90.3778 137.673 88.0496C137.702 85.7213 134.309 78.6117 131.522 77.3207C127.593 75.5021 122.606 76.017 119.659 77.3872C116.709 78.7518 115.341 82.7313 115.341 82.7313Z" fill="#8EBDDB"/>
<path d="M155.797 137.099C155.797 137.099 148.151 159.299 138.991 163.402C129.831 167.505 137.769 170.956 144.171 165.491C150.572 160.026 155.797 137.099 155.797 137.099Z" fill="#8EBDDB"/>
<path d="M159.593 146.829C159.593 146.829 155.559 158.367 152.101 163.265C148.644 168.163 154.962 167.638 156.995 164.08C159.025 160.522 159.593 146.829 159.593 146.829Z" fill="#DAEEF9"/>
<path d="M118.726 133.394C118.726 133.394 118.582 139.47 118.475 144.38C118.368 149.289 120.235 159.12 121.959 158.136C123.684 157.152 118.726 133.394 118.726 133.394Z" fill="#8EBDDB"/>
<path d="M82.374 66.6202L103.093 186.805L193.023 171.302L172.304 51.1173L82.374 66.6202ZM186.361 166.6L107.795 180.144L89.036 71.3256L167.602 57.7817L186.361 166.6Z" fill="#3C5C99"/>
<path d="M144.81 212.879C124.273 220.068 103.781 227.246 83.3289 234.413C67.1038 207.612 65.7371 176.871 51.0956 149.65C71.6322 142.46 92.1292 135.281 112.576 128.115C128.797 154.918 130.158 185.66 144.81 212.879Z" fill="#FCFCFC"/>
<path d="M144.804 212.882C124.294 220.122 103.83 227.354 83.4189 234.567C83.3709 234.585 83.3229 234.604 83.2733 234.617C83.2419 234.569 83.2089 234.515 83.1825 234.466C66.9225 207.674 65.5227 176.947 50.8563 149.732C50.8134 149.647 50.7672 149.569 50.7243 149.484C50.8021 149.458 50.8848 149.43 50.961 149.399C71.5059 142.235 92.0112 135.082 112.472 127.941C112.53 127.92 112.583 127.901 112.642 127.885C112.677 127.944 112.71 127.997 112.745 128.056C128.907 154.879 130.211 185.643 144.804 212.882ZM144.804 212.882C130.1 185.684 128.674 154.958 112.4 128.175C112.493 128.213 112.581 128.252 112.673 128.29C92.234 135.482 71.7502 142.686 51.22 149.896C51.2549 149.785 51.2898 149.674 51.3263 149.568C65.9447 176.801 67.2767 207.551 83.4688 234.367C83.3878 234.332 83.3084 234.302 83.2274 234.267C103.713 227.153 124.241 220.022 144.804 212.882Z" fill="#DBDBDB"/>
<path d="M62.6123 161.022C74.5037 156.714 86.3849 152.409 98.2593 148.1C98.5794 148.879 98.8944 149.66 99.2043 150.442C87.318 154.748 75.4163 159.059 63.5111 163.376C63.2166 162.59 62.917 161.805 62.6123 161.022Z" fill="#DBDBDB"/>
<path d="M64.5595 166.409C76.4869 162.091 88.404 157.777 100.314 153.458C100.604 154.245 100.888 155.034 101.167 155.825C89.2447 160.141 77.3122 164.46 65.3763 168.786C65.1075 167.993 64.8335 167.201 64.5595 166.409Z" fill="#DBDBDB"/>
<path d="M66.3066 171.849C78.2596 167.524 90.2075 163.201 102.149 158.873C102.412 159.668 102.676 160.463 102.929 161.26C90.9765 165.585 79.0183 169.911 67.0619 174.243C66.8136 173.444 66.5601 172.646 66.3066 171.849Z" fill="#DBDBDB"/>
<path d="M67.9432 177.316C85.4951 170.933 103.042 164.551 120.573 158.174C120.821 158.976 121.069 159.779 121.312 160.582C103.765 166.964 86.2132 173.347 68.651 179.733C68.4185 178.926 68.186 178.119 67.9432 177.316Z" fill="#DBDBDB"/>
<path d="M69.4522 182.824C87.0247 176.435 104.587 170.049 122.149 163.663C122.382 164.47 122.614 165.276 122.847 166.083C105.28 172.47 87.7121 178.858 70.1344 185.248C69.9087 184.446 69.6796 183.632 69.4522 182.824Z" fill="#DBDBDB"/>
<path d="M70.9046 188.353C88.4823 181.963 106.06 175.573 123.633 169.184C123.86 169.992 124.087 170.8 124.31 171.609C106.732 177.999 89.1542 184.39 71.5816 190.779C71.3542 189.971 71.132 189.161 70.9046 188.353Z" fill="#DBDBDB"/>
<path d="M72.3601 193.878C89.9327 187.489 107.505 181.1 125.083 174.71C125.31 175.518 125.533 176.327 125.76 177.135C108.188 183.524 90.6149 189.913 73.0475 196.3C72.8201 195.492 72.5875 194.686 72.3601 193.878Z" fill="#DBDBDB"/>
<path d="M73.857 199.389C91.4141 193.005 108.976 186.619 126.544 180.231C126.771 181.039 127.004 181.846 127.236 182.653C109.674 189.038 92.1168 195.423 74.57 201.804C74.3323 200.999 74.0895 200.196 73.857 199.389Z" fill="#DBDBDB"/>
<path d="M75.4412 204.875C92.9675 198.5 110.509 192.12 128.061 185.737C128.304 186.541 128.547 187.344 128.789 188.148C111.253 194.527 93.7215 200.904 76.2055 207.277C75.949 206.483 75.696 205.682 75.4412 204.875Z" fill="#DBDBDB"/>
<path d="M77.1688 210.327C94.6591 203.961 112.165 197.591 129.686 191.217C129.944 192.017 130.202 192.816 130.471 193.613C112.965 199.983 95.4798 206.347 78.0049 212.708C77.721 211.916 77.4423 211.122 77.1688 210.327Z" fill="#DBDBDB"/>
<path d="M79.0867 215.718C96.5257 209.366 113.99 203.008 131.465 196.647C131.744 197.441 132.033 198.232 132.322 199.023C114.862 205.38 97.4234 211.731 80.005 218.076C79.6903 217.292 79.386 216.506 79.0867 215.718Z" fill="#DBDBDB"/>
<path d="M81.2323 221.042C98.6147 214.707 116.018 208.366 133.441 202.02C133.751 202.805 134.07 203.587 134.39 204.37C116.987 210.711 99.6099 217.045 82.2582 223.371C81.9094 222.603 81.5674 221.821 81.2323 221.042Z" fill="#DBDBDB"/>
<path d="M141.866 217.782C141.716 217.614 141.506 217.486 141.243 217.413C140.979 217.34 140.678 217.317 140.361 217.354C140.044 217.392 139.695 217.495 139.347 217.654C139.314 217.665 139.298 217.671 139.271 217.698C139.238 217.71 139.222 217.716 139.195 217.743C139.163 217.755 139.152 217.777 139.119 217.788C139.087 217.8 139.076 217.822 139.043 217.833C139.01 217.79 138.96 217.752 138.932 217.725C138.899 217.682 138.849 217.644 138.821 217.617C138.788 217.574 138.738 217.536 138.71 217.509C138.677 217.466 138.633 217.445 138.599 217.402C138.577 217.391 138.549 217.364 138.527 217.353C138.5 217.326 138.472 217.299 138.444 217.272C138.416 217.246 138.389 217.219 138.377 217.186C138.366 217.153 138.376 217.131 138.387 217.109C138.452 217.032 138.494 216.943 138.542 216.872C138.591 216.8 138.633 216.712 138.676 216.623C138.718 216.535 138.766 216.463 138.793 216.381C138.819 216.298 138.867 216.227 138.893 216.144C138.983 215.929 139.013 215.754 139.049 215.595C139.063 215.425 139.061 215.261 139.048 215.119C139.013 214.966 138.967 214.835 138.9 214.694C138.821 214.575 138.727 214.461 138.599 214.359C138.544 214.305 138.478 214.273 138.422 214.219C138.35 214.171 138.301 214.133 138.212 214.091C138.14 214.043 138.074 214.011 137.992 213.985C137.909 213.958 137.827 213.932 137.745 213.906C137.706 213.901 137.684 213.89 137.651 213.902C137.613 213.897 137.597 213.903 137.564 213.914C137.531 213.925 137.509 213.915 137.477 213.926C137.444 213.938 137.428 213.943 137.395 213.955C137.346 213.972 137.303 214.005 137.276 214.033C137.232 214.067 137.205 214.094 137.168 214.144C137.125 214.178 137.103 214.222 137.082 214.266C137.061 214.31 137.017 214.343 136.996 214.387C136.889 214.553 136.837 214.718 136.79 214.899C136.754 215.058 136.74 215.228 136.759 215.387C136.778 215.545 136.813 215.698 136.858 215.829C136.91 215.976 136.988 216.095 137.072 216.231C137.105 216.274 137.155 216.311 137.211 216.365C137.266 216.419 137.338 216.468 137.377 216.527C137.433 216.581 137.472 216.641 137.495 216.706C137.518 216.771 137.518 216.826 137.47 216.898C137.411 216.992 137.33 217.075 137.272 217.169C137.213 217.263 137.132 217.346 137.073 217.44C137.014 217.534 136.955 217.628 136.88 217.727C136.821 217.821 136.762 217.915 136.704 218.009C136.596 218.175 136.495 218.357 136.41 218.533C136.33 218.671 136.261 218.842 136.198 219.029C136.135 219.216 136.099 219.375 136.085 219.545C136.071 219.715 136.09 219.873 136.131 220.042C136.211 220.325 136.406 220.569 136.633 220.746C136.882 220.934 137.202 221.061 137.569 221.116C137.936 221.171 138.342 221.176 138.778 221.115C139.21 221.038 139.673 220.894 140.113 220.685C140.178 220.662 140.254 220.618 140.314 220.578C140.374 220.539 140.455 220.511 140.515 220.472C140.575 220.432 140.651 220.388 140.71 220.348C140.77 220.309 140.846 220.264 140.9 220.209C141.011 220.317 141.16 220.429 141.299 220.564C141.454 220.693 141.593 220.828 141.731 220.963C141.86 221.12 141.966 221.266 142.028 221.446C142.091 221.625 142.099 221.806 142.048 222.026C142.022 222.108 141.979 222.196 141.937 222.284C141.894 222.373 141.829 222.45 141.765 222.528C141.7 222.605 141.63 222.666 141.549 222.75C141.463 222.817 141.376 222.884 141.273 222.956C141.257 222.962 141.23 222.99 141.213 222.995C141.197 223.001 141.17 223.029 141.137 223.04C141.105 223.052 141.094 223.074 141.061 223.085C141.029 223.096 141.012 223.102 140.986 223.13C140.91 223.175 140.812 223.209 140.714 223.243C140.616 223.278 140.534 223.306 140.446 223.318C140.359 223.33 140.288 223.337 140.211 223.327C140.151 223.312 140.085 223.28 140.051 223.236C140.068 223.231 140.068 223.231 140.084 223.225C140.1 223.219 140.1 223.219 140.117 223.214C140.133 223.208 140.133 223.208 140.149 223.202C140.149 223.202 140.166 223.196 140.182 223.191C140.383 223.084 140.54 222.956 140.658 222.823C140.771 222.673 140.835 222.541 140.838 222.393C140.847 222.262 140.818 222.125 140.729 222.028C140.64 221.931 140.502 221.851 140.31 221.826C140.25 221.811 140.195 221.811 140.124 221.818C140.069 221.819 139.998 221.825 139.949 221.842C139.9 221.859 139.829 221.866 139.78 221.883C139.731 221.9 139.666 221.923 139.617 221.94C139.492 222.002 139.389 222.075 139.292 222.164C139.194 222.253 139.103 222.358 139.044 222.452C138.969 222.551 138.916 222.662 138.901 222.777C138.864 222.881 138.866 222.991 138.884 223.094C138.908 223.269 138.998 223.421 139.136 223.501C139.279 223.598 139.444 223.65 139.652 223.669C139.855 223.672 140.084 223.646 140.308 223.605C140.543 223.541 140.788 223.456 141.021 223.337C141.212 223.253 141.391 223.135 141.553 223.023C141.716 222.911 141.873 222.783 142.007 222.645C142.142 222.506 142.244 222.378 142.319 222.224C142.399 222.086 142.441 221.943 142.46 221.79C142.469 221.604 142.444 221.429 142.376 221.288C142.303 221.13 142.219 220.994 142.102 220.87C141.986 220.746 141.853 220.627 141.736 220.503C141.603 220.385 141.492 220.277 141.381 220.169C141.331 220.131 141.298 220.088 141.286 220.055C141.258 220.029 141.253 220.012 141.258 219.974C141.268 219.952 141.279 219.93 141.3 219.886C141.327 219.858 141.381 219.802 141.435 219.747C141.478 219.713 141.499 219.669 141.543 219.636C141.57 219.608 141.607 219.558 141.634 219.531C141.661 219.503 141.699 219.453 141.72 219.409C141.741 219.365 141.768 219.337 141.806 219.287C141.854 219.215 141.902 219.144 141.934 219.078C141.982 219.006 142.014 218.94 142.041 218.857C142.072 218.791 142.082 218.714 142.114 218.648C142.124 218.571 142.14 218.511 142.133 218.44C142.118 218.188 142.022 217.965 141.866 217.782ZM137.278 215.719C137.26 215.615 137.259 215.505 137.263 215.412C137.262 215.358 137.272 215.281 137.298 215.198C137.324 215.116 137.35 215.034 137.393 214.945C137.435 214.857 137.494 214.763 137.559 214.686C137.623 214.608 137.71 214.541 137.819 214.485C137.835 214.479 137.851 214.474 137.868 214.468C137.884 214.462 137.9 214.456 137.917 214.451C137.933 214.445 137.949 214.439 137.966 214.434C137.982 214.428 137.998 214.422 138.037 214.427C138.157 214.404 138.239 214.43 138.311 214.478C138.383 214.526 138.422 214.586 138.445 214.651C138.473 214.733 138.48 214.804 138.476 214.897C138.472 214.99 138.462 215.067 138.446 215.127C138.426 215.226 138.389 215.331 138.358 215.451C138.321 215.556 138.268 215.666 138.215 215.776C138.162 215.887 138.092 216.002 138.017 216.102C137.947 216.218 137.856 216.323 137.77 216.445C137.77 216.445 137.77 216.445 137.759 216.467C137.759 216.467 137.743 216.473 137.749 216.489L137.732 216.495L137.716 216.5C137.639 216.436 137.555 216.355 137.488 216.268C137.422 216.182 137.377 216.106 137.326 216.013C137.324 215.904 137.29 215.806 137.278 215.719ZM140.728 220.031C140.723 220.069 140.696 220.097 140.636 220.136C140.593 220.169 140.549 220.203 140.5 220.22C140.457 220.253 140.408 220.271 140.348 220.31C140.305 220.343 140.24 220.366 140.197 220.399C140.153 220.433 140.088 220.456 140.039 220.473C139.881 220.546 139.707 220.625 139.544 220.683C139.381 220.74 139.211 220.78 139.042 220.821C138.873 220.862 138.715 220.88 138.556 220.899C138.398 220.918 138.25 220.915 138.102 220.911C137.67 220.879 137.383 220.741 137.205 220.546C137.027 220.352 136.958 220.101 136.97 219.822C136.983 219.543 137.061 219.241 137.193 218.938C137.325 218.635 137.496 218.337 137.689 218.049C137.727 218 137.775 217.928 137.813 217.878C137.85 217.828 137.898 217.756 137.952 217.701C138.006 217.645 138.038 217.579 138.092 217.524C138.146 217.468 138.178 217.402 138.232 217.347C138.26 217.374 138.293 217.417 138.321 217.444C138.348 217.471 138.382 217.514 138.41 217.541C138.437 217.568 138.471 217.611 138.499 217.638C138.526 217.665 138.56 217.709 138.588 217.736C138.615 217.763 138.643 217.79 138.671 217.816C138.699 217.843 138.726 217.87 138.748 217.881C138.776 217.908 138.788 217.941 138.777 217.963C138.772 218.001 138.745 218.029 138.702 218.062C138.631 218.124 138.551 218.207 138.48 218.268C138.416 218.346 138.346 218.407 138.297 218.479C138.249 218.55 138.201 218.622 138.153 218.694C138.104 218.766 138.078 218.848 138.046 218.915C137.988 219.063 137.963 219.2 137.976 219.342C137.983 219.468 138.029 219.599 138.101 219.702C138.174 219.805 138.279 219.896 138.395 219.966C138.528 220.029 138.676 220.088 138.862 220.096C138.879 220.09 138.933 220.089 138.994 220.105C139.065 220.098 139.158 220.102 139.245 220.09C139.333 220.078 139.426 220.082 139.513 220.07C139.601 220.058 139.666 220.035 139.731 220.012C139.748 220.006 139.764 220.001 139.764 220.001C139.78 219.995 139.78 219.995 139.791 219.973L139.802 219.951C139.802 219.951 139.796 219.935 139.79 219.918C139.784 219.902 139.74 219.881 139.669 219.887C139.593 219.877 139.505 219.89 139.412 219.885C139.319 219.881 139.232 219.893 139.138 219.889C139.062 219.879 138.991 219.886 138.969 219.875C138.82 219.817 138.715 219.726 138.675 219.611C138.635 219.497 138.628 219.371 138.669 219.228C138.711 219.086 138.791 218.948 138.888 218.804C138.99 218.677 139.125 218.538 139.287 218.426C139.348 218.496 139.409 218.567 139.481 218.615C139.543 218.685 139.604 218.755 139.681 218.82C139.742 218.89 139.804 218.96 139.881 219.025C139.942 219.095 140.02 219.16 140.081 219.23C140.115 219.273 140.164 219.311 140.192 219.338C140.226 219.381 140.275 219.419 140.303 219.446C140.337 219.489 140.386 219.527 140.414 219.554C140.448 219.597 140.497 219.634 140.531 219.678C140.559 219.705 140.586 219.732 140.636 219.769C140.664 219.796 140.708 219.818 140.742 219.861C140.721 219.96 140.732 219.992 140.728 220.031ZM141.55 218.974C141.524 219.111 141.466 219.259 141.37 219.403C141.273 219.547 141.161 219.696 141.026 219.835C140.887 219.7 140.77 219.576 140.632 219.441C140.515 219.317 140.376 219.182 140.259 219.058C140.143 218.934 140.01 218.815 139.893 218.691C139.776 218.567 139.659 218.443 139.526 218.324C139.526 218.324 139.526 218.324 139.543 218.318L139.559 218.313L139.575 218.307C139.624 218.29 139.69 218.267 139.771 218.238C139.853 218.21 139.957 218.192 140.039 218.163C140.142 218.146 140.224 218.117 140.295 218.111C140.366 218.104 140.415 218.087 140.431 218.081C140.519 218.069 140.596 218.079 140.672 218.089C140.749 218.099 140.826 218.108 140.903 218.118C140.979 218.128 141.045 218.16 141.112 218.192C141.178 218.224 141.227 218.261 141.277 218.299C141.383 218.39 141.455 218.493 141.495 218.608C141.584 218.705 141.575 218.836 141.55 218.974Z" fill="#152665"/>
<path d="M144.142 216.051C144.131 216.019 144.103 215.992 144.081 215.981C144.053 215.954 143.993 215.939 143.949 215.917C143.888 215.902 143.833 215.903 143.773 215.887C143.702 215.894 143.647 215.894 143.56 215.907C143.495 215.929 143.413 215.958 143.347 215.981C143.331 215.987 143.315 215.992 143.298 215.998C143.282 216.004 143.266 216.009 143.255 216.031C143.239 216.037 143.223 216.043 143.212 216.065C143.196 216.071 143.185 216.093 143.169 216.098C143.142 216.126 143.109 216.137 143.082 216.165C143.055 216.193 143.028 216.221 142.995 216.232C142.968 216.26 142.958 216.282 142.931 216.31C142.904 216.337 142.893 216.359 142.866 216.387C142.866 216.387 142.866 216.387 142.85 216.393C142.85 216.393 142.85 216.393 142.834 216.399C142.834 216.399 142.834 216.399 142.817 216.404C142.733 216.269 142.655 216.149 142.587 216.008C142.509 215.889 142.441 215.748 142.363 215.628C142.285 215.509 142.223 215.384 142.144 215.265C142.066 215.146 142.004 215.021 141.926 214.901C141.909 214.907 141.893 214.913 141.877 214.918C141.86 214.924 141.844 214.93 141.828 214.936C141.811 214.941 141.795 214.947 141.778 214.953C141.762 214.958 141.746 214.964 141.729 214.97C141.858 215.181 141.965 215.382 142.094 215.594C142.223 215.805 142.352 216.017 142.487 216.245C142.621 216.473 142.756 216.701 142.89 216.929C143.025 217.157 143.165 217.401 143.3 217.629C143.316 217.623 143.316 217.623 143.311 217.607L143.321 217.585L143.332 217.563L143.343 217.541C143.364 217.496 143.401 217.447 143.433 217.381C143.471 217.331 143.492 217.287 143.524 217.221C143.562 217.171 143.583 217.127 143.62 217.077C143.658 217.027 143.696 216.977 143.733 216.927C143.771 216.878 143.819 216.806 143.857 216.756C143.894 216.706 143.942 216.634 143.98 216.585C144.018 216.535 144.05 216.469 144.087 216.419C144.119 216.353 144.14 216.309 144.156 216.248C144.166 216.226 144.171 216.188 144.176 216.149C144.181 216.111 144.175 216.095 144.18 216.056C144.159 216.1 144.164 216.062 144.142 216.051ZM143.677 216.452C143.683 216.469 143.672 216.491 143.684 216.523C143.689 216.54 143.679 216.562 143.668 216.584C143.653 216.644 143.653 216.699 143.632 216.743C143.617 216.803 143.595 216.847 143.563 216.914C143.548 216.974 143.51 217.024 143.478 217.09C143.441 217.14 143.425 217.2 143.388 217.25C143.388 217.25 143.388 217.25 143.377 217.272C143.377 217.272 143.377 217.272 143.366 217.294C143.366 217.294 143.366 217.294 143.356 217.316L143.339 217.322C143.306 217.278 143.289 217.229 143.255 217.186C143.249 217.115 143.232 217.066 143.198 217.023C143.165 216.979 143.148 216.93 143.114 216.887C143.081 216.844 143.064 216.795 143.03 216.752C143.025 216.735 143.019 216.719 142.997 216.708C142.991 216.692 142.969 216.681 142.963 216.665C142.958 216.649 142.952 216.632 142.93 216.622C142.924 216.605 142.918 216.589 142.913 216.573C142.907 216.556 142.918 216.534 142.928 216.512C142.939 216.49 142.95 216.468 142.976 216.44C142.987 216.418 143.014 216.391 143.041 216.363C143.068 216.335 143.079 216.313 143.095 216.307C143.111 216.302 143.111 216.302 143.122 216.28C143.122 216.28 143.138 216.274 143.155 216.268C143.155 216.268 143.171 216.262 143.187 216.257L143.204 216.251C143.253 216.234 143.285 216.222 143.334 216.205C143.367 216.194 143.422 216.193 143.466 216.214C143.504 216.219 143.548 216.241 143.57 216.251C143.598 216.278 143.62 216.289 143.648 216.316C143.654 216.332 143.665 216.365 143.671 216.381C143.676 216.397 143.666 216.42 143.677 216.452Z" fill="#152665"/>
<path fill-rule="evenodd" clip-rule="evenodd" d="M252.842 142.404C252.933 142.299 253.041 142.188 253.133 142.082C253.621 142.535 254.109 142.988 254.597 143.441C254.747 143.241 254.859 143.037 254.993 142.844C255.26 143.081 255.515 143.34 255.781 143.577C255.653 143.787 255.519 143.98 255.39 144.19C255.767 144.535 256.128 144.885 256.505 145.23C256.645 145.053 256.762 144.81 256.918 144.628C257.19 144.881 257.462 145.134 257.733 145.387C257.605 145.597 257.471 145.791 257.343 146.001C257.831 146.453 258.325 146.922 258.813 147.375C258.705 147.486 258.603 147.613 258.489 147.708C258.023 147.266 257.563 146.84 257.08 146.404C256.888 146.691 256.711 146.973 256.518 147.26C257.034 147.74 257.528 148.209 258.044 148.688C257.968 148.788 257.834 148.927 257.736 149.016C257.248 148.563 256.76 148.11 256.272 147.658C256.138 147.851 255.999 148.083 255.876 148.254C255.604 148.001 255.332 147.748 255.06 147.495C255.189 147.285 255.323 147.091 255.451 146.881C255.074 146.537 254.697 146.192 254.336 145.841C254.186 146.04 254.09 146.239 253.923 146.444C253.657 146.207 253.402 145.948 253.136 145.711C253.248 145.507 253.398 145.308 253.526 145.098C253.011 144.618 252.517 144.149 252.001 143.669C252.076 143.57 252.211 143.431 252.308 143.342C252.796 143.795 253.284 144.247 253.772 144.7C253.965 144.413 254.142 144.131 254.335 143.844C253.841 143.375 253.331 142.911 252.837 142.442C252.848 142.42 252.842 142.404 252.842 142.404ZM254.598 145.438C254.975 145.783 255.336 146.133 255.713 146.478C255.906 146.191 256.083 145.909 256.276 145.622C255.948 145.315 255.599 144.997 255.294 144.7C255.244 144.663 255.205 144.603 255.144 144.587C254.951 144.875 254.775 145.156 254.598 145.438Z" fill="#152665"/>
<path fill-rule="evenodd" clip-rule="evenodd" d="M166.385 201.077C166.467 201.048 166.542 201.003 166.614 200.997C166.891 201.633 167.305 201.873 167.761 202.026C168.218 202.178 168.68 202.346 169.121 202.559C169.561 202.771 169.987 203.044 170.332 203.455C170.649 203.839 170.876 204.383 170.982 204.896C170.988 204.967 170.984 205.06 171.018 205.104C171.035 205.153 171.101 205.184 171.157 205.238C171.462 205.535 171.747 205.985 171.887 206.541C171.991 206.945 172.019 207.338 171.98 207.7C171.976 207.793 171.985 208.028 171.831 208.009C171.776 208.01 171.808 207.943 171.818 207.867C171.87 207.28 171.754 206.478 171.307 205.827C170.888 205.204 170.186 205.083 169.566 204.988C169.122 204.923 168.7 204.869 168.25 204.788C168.765 206.001 169.252 207.132 169.773 208.361C169.954 208.775 170.146 209.166 170.129 209.483C170.121 210.091 169.779 210.687 169.265 211.105C168.648 211.595 167.78 211.679 167.474 210.961C167.36 210.689 167.383 210.388 167.446 210.146C167.554 209.668 167.832 209.205 168.242 208.859C168.599 208.57 169.171 208.37 169.534 208.463C168.475 206.01 167.433 203.552 166.374 201.099C166.374 201.099 166.369 201.082 166.385 201.077ZM168.968 204.115C169.556 204.331 170.15 204.509 170.669 204.84C170.697 204.867 170.752 204.921 170.757 204.883C170.497 203.929 169.911 203.511 169.332 203.218C168.737 202.931 168.057 202.82 167.405 202.737C167.388 202.742 167.388 202.742 167.372 202.748C167.76 203.492 168.363 203.905 168.968 204.115Z" fill="#152665"/>
<path d="M225.383 167.376C225.344 167.317 225.283 167.246 225.272 167.214C225.255 167.165 225.291 167.06 225.285 166.989C225.304 166.414 225.202 165.808 224.976 165.319C224.728 164.819 224.35 164.419 223.941 164.086C223.553 163.763 223.106 163.48 222.658 163.196C222.332 162.998 222.066 162.761 221.891 162.364L221.837 162.053L221.542 162.101L223.006 170.645C222.515 170.34 221.712 170.455 221.046 170.963C220.234 171.577 219.919 172.511 220.338 173.08C220.751 173.632 221.746 173.596 222.558 172.982C223.284 172.436 223.611 171.643 223.379 171.083L222.549 166.24C222.956 166.41 223.358 166.563 223.787 166.742C224.409 167.002 225.098 167.293 225.399 168.049C225.711 168.838 225.625 169.693 225.431 170.292C225.405 170.375 225.367 170.425 225.411 170.446C225.57 170.482 225.616 170.246 225.642 170.164C225.763 169.773 225.845 169.378 225.833 168.924C225.818 168.306 225.63 167.767 225.383 167.376ZM225.082 166.932C225.06 166.976 225.032 166.894 225.004 166.867C224.543 166.387 223.969 166.056 223.416 165.681C222.941 165.37 222.514 164.933 222.242 164.313L222.165 163.882C222.803 164.135 223.486 164.41 224.006 164.851C224.527 165.293 225.045 165.882 225.082 166.932Z" fill="#152665"/>
<path d="M286.063 115.199C285.925 115.119 285.727 115.078 285.655 114.975C285.566 114.878 285.524 114.654 285.434 114.502C284.821 113.323 283.908 112.231 282.88 111.545C281.808 110.838 280.588 110.494 279.403 110.303C278.257 110.117 277.025 110.053 275.853 110.004C274.982 109.978 274.17 109.804 273.374 109.257L272.906 108.706L272.398 109.14L285.128 124.433C283.814 124.398 282.348 125.551 281.58 127.341C280.659 129.478 281.112 131.72 282.583 132.361C284.047 132.986 285.983 131.76 286.905 129.623C287.71 127.729 287.457 125.746 286.35 124.887L279.122 116.212C280.154 116.072 281.126 115.915 282.142 115.78C283.698 115.567 285.409 115.372 286.843 116.539C288.349 117.754 289.201 119.564 289.473 120.973C289.503 121.164 289.5 121.311 289.62 121.288C289.991 121.195 289.786 120.662 289.75 120.454C289.546 119.554 289.232 118.656 288.705 117.777C287.959 116.534 286.984 115.683 286.063 115.199ZM284.928 114.679C284.924 114.772 284.774 114.659 284.692 114.633C283.241 114.205 281.703 114.211 280.18 114.101C278.888 114.021 277.514 113.658 276.275 112.734L275.64 111.966C277.208 111.731 278.852 111.504 280.41 111.767C281.968 112.029 283.65 112.596 284.928 114.679Z" fill="#152665"/>
<path d="M246.723 176.105C246.762 176.165 246.824 176.235 246.841 176.284C246.863 176.35 246.827 176.454 246.817 176.531C246.798 177.161 246.907 177.838 247.16 178.354C247.426 178.903 247.853 179.34 248.291 179.7C248.728 180.061 249.22 180.366 249.695 180.676C250.048 180.901 250.342 181.165 250.539 181.572L250.605 181.916L250.916 181.863L249.309 172.489C249.844 172.815 250.735 172.688 251.46 172.141C252.348 171.482 252.7 170.443 252.248 169.831C251.796 169.219 250.697 169.273 249.808 169.932C249.023 170.518 248.653 171.399 248.908 172.024L249.827 177.33C249.376 177.14 248.93 176.966 248.484 176.792C247.796 176.5 247.042 176.177 246.718 175.356C246.377 174.485 246.467 173.537 246.682 172.894C246.709 172.811 246.757 172.739 246.696 172.724C246.515 172.677 246.481 172.946 246.438 173.034C246.307 173.446 246.226 173.896 246.233 174.389C246.244 175.1 246.449 175.688 246.723 176.105ZM247.059 176.593C247.08 176.549 247.13 176.641 247.158 176.668C247.653 177.192 248.293 177.555 248.895 177.968C249.42 178.316 249.898 178.791 250.186 179.46L250.259 179.929C249.554 179.644 248.811 179.354 248.241 178.875C247.654 178.401 247.097 177.753 247.059 176.593Z" fill="#152665"/>
<path d="M199.304 200.445C199.338 200.488 199.393 200.542 199.394 200.596C199.411 200.646 199.385 200.728 199.369 200.788C199.354 201.27 199.427 201.794 199.641 202.196C199.844 202.62 200.183 202.96 200.515 203.229C200.847 203.498 201.229 203.75 201.604 203.985C201.88 204.145 202.102 204.361 202.249 204.676L202.286 204.938L202.526 204.891L201.278 197.647C201.697 197.904 202.374 197.795 202.943 197.377C203.625 196.864 203.893 196.055 203.547 195.59C203.195 195.108 202.347 195.147 201.665 195.66C201.053 196.112 200.778 196.795 200.966 197.279L201.665 201.379C201.302 201.231 200.966 201.11 200.619 200.956C200.085 200.74 199.502 200.485 199.263 199.854C199.012 199.19 199.068 198.456 199.241 197.955C199.256 197.895 199.294 197.845 199.25 197.824C199.107 197.782 199.088 197.99 199.062 198.073C198.957 198.403 198.891 198.738 198.896 199.121C198.943 199.673 199.097 200.114 199.304 200.445ZM199.561 200.813C199.588 200.785 199.611 200.851 199.633 200.861C200.017 201.277 200.513 201.544 200.972 201.86C201.375 202.122 201.741 202.489 201.962 203.017L202.017 203.383C201.467 203.172 200.911 202.944 200.451 202.573C200.014 202.213 199.585 201.721 199.561 200.813Z" fill="#152665"/>
<path d="M185.736 197.395L184.369 189.441L184.129 189.488L185.425 197.027C185.005 196.771 184.328 196.879 183.759 197.298C183.077 197.811 182.804 198.603 183.156 199.085C183.508 199.567 184.355 199.527 185.037 199.014C185.644 198.546 185.918 197.863 185.736 197.395Z" fill="#152665"/>
<path d="M181.964 197.723L186.21 196.129L186.318 196.44L182.083 198.011L181.964 197.723Z" fill="#152665"/>
<path d="M181.73 196.375L185.975 194.782L186.084 195.092L181.854 196.68L181.73 196.375Z" fill="#152665"/>
<path d="M156.293 211.604L152.797 204.431L152.639 204.504L156.005 211.411C155.681 211.323 155.235 211.515 154.935 211.914C154.569 212.39 154.54 212.987 154.882 213.233C155.209 213.486 155.781 213.286 156.146 212.81C156.463 212.406 156.521 211.891 156.293 211.604Z" fill="#152665"/>
<path d="M162.925 207.655L159.429 200.482L159.271 200.555L162.637 207.463C162.313 207.374 161.867 207.567 161.566 207.965C161.201 208.441 161.171 209.038 161.514 209.285C161.841 209.537 162.413 209.337 162.778 208.862C163.095 208.458 163.153 207.942 162.925 207.655Z" fill="#152665"/>
<path d="M157.319 207.506L155.216 203.219L155.058 203.292L157.021 207.335C156.696 207.247 156.25 207.439 155.95 207.838C155.584 208.314 155.555 208.911 155.898 209.157C156.224 209.41 156.796 209.21 157.161 208.734C157.472 208.314 157.531 207.799 157.319 207.506Z" fill="#152665"/>
<path d="M159.441 205.336L157.749 201.857L157.592 201.931L159.154 205.143C158.83 205.054 158.384 205.247 158.083 205.645C157.718 206.121 157.688 206.718 158.031 206.965C158.357 207.217 158.929 207.017 159.294 206.542C159.611 206.138 159.67 205.622 159.441 205.336Z" fill="#152665"/>
<path d="M152.674 204.492L159.315 200.522L159.618 201.021L152.96 204.996L152.674 204.492Z" fill="#152665"/>
<path d="M153.141 205.575L155.615 204.051L155.912 204.534L153.438 206.058L153.141 205.575Z" fill="#152665"/>
<path d="M154.43 213.19L156.991 211.287L157.125 211.46L154.553 213.385L154.43 213.19Z" fill="#152665"/>
<path d="M146.79 207.702L146.103 203.689L145.983 203.713L146.635 207.518C146.425 207.39 146.059 207.444 145.766 207.656C145.404 207.93 145.256 208.348 145.451 208.591C145.63 208.84 146.084 208.828 146.447 208.555C146.75 208.321 146.898 207.958 146.79 207.702Z" fill="#152665"/>
<path d="M148.407 206.037L147.912 203.204L147.792 203.228L148.251 205.854C148.041 205.725 147.676 205.78 147.383 205.992C147.02 206.265 146.873 206.683 147.068 206.927C147.247 207.176 147.701 207.164 148.064 206.891C148.361 206.64 148.509 206.277 148.407 206.037Z" fill="#152665"/>
<path d="M144.958 209.955L143.955 204.092L143.835 204.116L144.797 209.755C144.587 209.627 144.221 209.681 143.912 209.899C143.55 210.173 143.402 210.591 143.597 210.834C143.776 211.083 144.23 211.071 144.593 210.798C144.912 210.558 145.044 210.2 144.958 209.955Z" fill="#152665"/>
<path d="M264.833 164.078L258.658 150.967L258.266 151.158L264.12 163.612C263.285 163.372 262.154 163.859 261.375 164.883C260.424 166.095 260.347 167.606 261.183 168.267C262.013 168.912 263.468 168.459 264.413 167.23C265.235 166.119 265.402 164.814 264.833 164.078Z" fill="#152665"/>
<path d="M265.069 147.407L252.25 131.649L251.91 131.933L264.25 147.107C263.379 147.081 262.394 147.828 261.885 148.996C261.26 150.406 261.544 151.901 262.513 152.314C263.488 152.743 264.768 151.948 265.393 150.538C265.95 149.299 265.789 147.998 265.069 147.407Z" fill="#152665"/>
<path d="M279.521 134.622L266.703 118.865L266.362 119.149L278.702 134.322C277.831 134.297 276.846 135.044 276.337 136.212C275.712 137.621 275.996 139.117 276.965 139.53C277.94 139.959 279.22 139.164 279.846 137.754C280.402 136.514 280.236 135.198 279.521 134.622Z" fill="#152665"/>
<path d="M265.392 137.359L257.709 127.909L257.369 128.193L264.589 137.054C263.718 137.028 262.733 137.775 262.224 138.943C261.599 140.353 261.883 141.848 262.852 142.261C263.827 142.69 265.107 141.895 265.732 140.485C266.273 139.251 266.112 137.951 265.392 137.359Z" fill="#152665"/>
<path d="M269.817 131.029L263.594 123.397L263.254 123.681L269.003 130.746C268.132 130.72 267.147 131.467 266.639 132.635C266.013 134.045 266.297 135.54 267.266 135.953C268.241 136.382 269.521 135.587 270.147 134.177C270.692 132.905 270.531 131.605 269.817 131.029Z" fill="#152665"/>
<path d="M253.4 133.667L251.94 131.85L266.02 118.059L267.358 119.791L253.4 133.667Z" fill="#152665"/>
<path d="M255.592 136.274L254.116 134.462L268.196 120.671L269.55 122.398L255.592 136.274Z" fill="#152665"/>
<path d="M191.33 193.516L187.863 188L187.701 188.112L190.994 193.34C190.604 193.275 190.138 193.566 189.833 194.057C189.475 194.659 189.528 195.337 189.942 195.577C190.356 195.817 190.97 195.53 191.318 194.95C191.622 194.404 191.635 193.813 191.33 193.516Z" fill="#152665"/>
<path d="M207.874 182.328L202.937 173.183L202.737 173.29L207.482 182.099C207.043 181.995 206.483 182.283 206.102 182.819C205.652 183.471 205.647 184.243 206.1 184.543C206.536 184.848 207.266 184.575 207.716 183.923C208.124 183.359 208.18 182.68 207.874 182.328Z" fill="#152665"/>
<path d="M216.355 177.276L211.419 168.131L211.218 168.238L215.963 177.046C215.524 176.943 214.965 177.23 214.584 177.766C214.133 178.419 214.128 179.19 214.581 179.49C215.018 179.796 215.747 179.523 216.198 178.871C216.627 178.317 216.667 177.644 216.355 177.276Z" fill="#152665"/>
<path d="M208.996 177.299L206.039 171.825L205.838 171.932L208.61 177.086C208.171 176.983 207.611 177.27 207.23 177.806C206.78 178.459 206.774 179.23 207.228 179.53C207.664 179.836 208.394 179.563 208.844 178.91C209.252 178.346 209.308 177.667 208.996 177.299Z" fill="#152665"/>
<path d="M211.828 174.532L209.433 170.09L209.232 170.197L211.452 174.297C211.013 174.193 210.453 174.481 210.072 175.017C209.622 175.669 209.617 176.441 210.07 176.741C210.507 177.046 211.236 176.773 211.686 176.121C212.084 175.579 212.139 174.9 211.828 174.532Z" fill="#152665"/>
<path d="M203.326 174.294L202.758 173.246L211.16 167.653L211.662 168.669L203.326 174.294Z" fill="#152665"/>
<path d="M204.169 175.815L203.601 174.767L212.003 169.173L212.521 170.184L204.169 175.815Z" fill="#152665"/>
<path d="M245.791 159.22L243.999 148.738L243.688 148.792L245.407 158.749C244.877 158.439 244.02 158.556 243.294 159.102C242.422 159.755 242.081 160.773 242.528 161.368C242.974 161.964 244.041 161.921 244.912 161.268C245.681 160.688 246.041 159.829 245.791 159.22Z" fill="#152665"/>
<path d="M242.879 161.117C242.684 160.873 243.058 160.266 243.708 159.764C244.357 159.262 245.039 159.061 245.234 159.304C245.429 159.548 245.054 160.155 244.405 160.657C243.745 161.181 243.063 161.382 242.879 161.117Z" fill="white"/>
<path d="M233.649 166.693L233.897 168.143L236.541 167.689L236.292 166.24L233.649 166.693Z" fill="#152665"/>
<path d="M230.442 175.823L228.657 165.412L228.362 165.46L230.064 175.369C229.572 175.064 228.753 175.185 228.071 175.698C227.259 176.312 226.933 177.269 227.346 177.821C227.765 178.39 228.777 178.348 229.589 177.734C230.336 177.198 230.675 176.383 230.442 175.823Z" fill="#152665"/>
<path d="M242.886 173.835L241.052 163.13L240.757 163.178L242.513 173.397C242.022 173.092 241.203 173.214 240.52 173.727C239.708 174.341 239.383 175.297 239.796 175.85C240.214 176.418 241.226 176.376 242.038 175.763C242.78 175.21 243.119 174.395 242.886 173.835Z" fill="#152665"/>
<path d="M237.352 171.37L236.109 164.142L235.815 164.19L236.979 170.932C236.487 170.627 235.668 170.749 235.002 171.256C234.19 171.87 233.865 172.827 234.277 173.379C234.696 173.948 235.708 173.906 236.52 173.292C237.251 172.762 237.59 171.947 237.352 171.37Z" fill="#152665"/>
<path d="M228.342 165.327L228.591 166.777L241.313 164.592L241.064 163.143L228.342 165.327Z" fill="#152665"/>
<path d="M167.28 198.289L163.766 194.055L163.653 194.149L167.005 198.184C166.71 198.177 166.363 198.445 166.194 198.852C165.982 199.348 166.088 199.861 166.429 199.998C166.771 200.135 167.204 199.855 167.422 199.376C167.596 198.93 167.529 198.477 167.28 198.289Z" fill="#152665"/>
<path d="M172.439 194.214L168.83 189.866L168.716 189.961L172.163 194.109C171.868 194.102 171.521 194.37 171.352 194.777C171.14 195.273 171.246 195.786 171.588 195.923C171.929 196.061 172.363 195.781 172.58 195.302C172.754 194.856 172.688 194.402 172.439 194.214Z" fill="#152665"/>
<path d="M175.694 193.517C175.68 193.687 175.639 193.884 175.586 194.049C175.43 194.599 175.115 195.112 174.66 195.491C174.336 195.769 173.749 196.029 173.235 196.08C172.727 196.148 172.326 196.05 172.326 196.05C172.326 196.05 172.737 196.071 173.211 195.96C173.702 195.844 174.201 195.541 174.499 195.291C174.915 194.962 175.276 194.524 175.504 194.023C175.578 193.869 175.625 193.687 175.694 193.517C175.687 193.446 175.718 193.325 175.718 193.325C175.718 193.325 175.709 193.456 175.694 193.517Z" fill="#152665"/>
<path d="M168.84 189.847L163.66 194.145L164.146 194.731L169.326 190.433L168.84 189.847Z" fill="#152665"/>
<path d="M169.516 190.805L168.438 191.7L168.924 192.286L170.002 191.391L169.516 190.805Z" fill="#152665"/>
<path d="M175.671 185.709L174.592 186.603L175.078 187.189L176.157 186.295L175.671 185.709Z" fill="#152665"/>
<path d="M175.526 191.56L172.012 187.325L171.898 187.42L175.25 191.454C174.955 191.447 174.608 191.715 174.439 192.123C174.227 192.618 174.333 193.131 174.675 193.268C175.016 193.406 175.45 193.126 175.667 192.647C175.841 192.201 175.775 191.748 175.526 191.56Z" fill="#152665"/>
<path d="M180.621 187.415L177.013 183.067L176.899 183.161L180.346 187.309C180.05 187.303 179.704 187.57 179.535 187.978C179.323 188.473 179.429 188.986 179.77 189.124C180.111 189.261 180.545 188.981 180.763 188.502C180.943 188.072 180.876 187.619 180.621 187.415Z" fill="#152665"/>
<path d="M177.494 187.755L175.055 184.813L174.942 184.908L177.219 187.65C176.924 187.643 176.577 187.911 176.408 188.318C176.196 188.814 176.302 189.327 176.643 189.464C176.985 189.602 177.418 189.322 177.636 188.842C177.81 188.397 177.743 187.943 177.494 187.755Z" fill="#152665"/>
<path d="M177.031 183.069L171.851 187.367L172.337 187.953L177.517 183.655L177.031 183.069Z" fill="#152665"/>
<path d="M149.098 210.306L150.041 215.787L150.216 215.762L149.315 210.56C149.597 210.737 150.066 210.664 150.462 210.379C150.944 210.028 151.116 209.472 150.876 209.153C150.637 208.834 150.057 208.853 149.575 209.205C149.169 209.511 148.962 209.969 149.098 210.306Z" fill="#152665"/>
<path d="M218.891 178.809L220.223 186.556L220.463 186.509L219.197 179.161C219.595 179.407 220.261 179.321 220.83 178.902C221.495 178.394 221.758 177.624 221.412 177.159C221.066 176.693 220.251 176.721 219.569 177.234C218.99 177.675 218.709 178.341 218.891 178.809Z" fill="#152665"/>
<path d="M218.317 179.743L222.454 178.206L222.573 178.495L218.436 180.032L218.317 179.743Z" fill="#152665"/>
<path d="M218.557 181.052L222.688 179.499L222.796 179.809L218.659 181.347L218.557 181.052Z" fill="#152665"/>
<path d="M193.476 197.294L195.046 206.405L195.308 206.368L193.826 197.721C194.28 198.021 195.011 197.912 195.628 197.422C196.358 196.836 196.646 195.929 196.272 195.382C195.881 194.84 194.973 194.864 194.226 195.455C193.566 195.979 193.265 196.744 193.476 197.294Z" fill="#152665"/>
<path d="M192.851 198.392L197.439 196.624L197.559 196.967L192.971 198.735L192.851 198.392Z" fill="#152665"/>
<path d="M193.117 199.931L197.705 198.163L197.825 198.506L193.237 200.274L193.117 199.931Z" fill="#152665"/>
<path d="M252.302 162.792L250.308 151.208L249.948 151.279L251.84 162.257C251.233 161.883 250.239 162.028 249.411 162.648C248.409 163.401 248.026 164.561 248.54 165.243C249.053 165.925 250.284 165.88 251.285 165.127C252.173 164.469 252.58 163.483 252.302 162.792Z" fill="#152665"/>
<path d="M246.819 163.26L252.997 160.954L253.173 161.406L246.995 163.711L246.819 163.26Z" fill="#152665"/>
<path d="M246.484 161.305L252.662 159L252.833 159.435L246.655 161.741L246.484 161.305Z" fill="#152665"/>
<path d="M200.356 192.214L196.539 183.649L196.332 183.74L199.991 191.956C199.557 191.815 198.964 192.059 198.544 192.59C198.044 193.205 197.974 193.999 198.405 194.343C198.837 194.687 199.584 194.463 200.1 193.843C200.546 193.284 200.657 192.604 200.356 192.214Z" fill="#152665"/>
<path d="M203.792 186.101L201.355 180.647L201.148 180.737L203.427 185.843C202.993 185.702 202.4 185.946 201.98 186.477C201.48 187.092 201.41 187.886 201.842 188.23C202.273 188.574 203.02 188.35 203.536 187.73C203.982 187.171 204.071 186.48 203.792 186.101Z" fill="#152665"/>
<path d="M196.733 184.626L196.224 183.484L201.2 180.206L201.654 181.294L196.733 184.626Z" fill="#152665"/>
<path d="M175.861 198.976L177.342 207.623L177.599 207.57L176.195 199.354C176.636 199.622 177.335 199.524 177.931 199.078C178.64 198.537 178.935 197.701 178.561 197.208C178.187 196.715 177.301 196.75 176.592 197.291C175.969 197.765 175.668 198.475 175.861 198.976Z" fill="#152665"/>
<path d="M178.286 197.414C178.448 197.614 178.149 198.122 177.613 198.529C177.077 198.936 176.516 199.114 176.348 198.897C176.187 198.697 176.486 198.189 177.022 197.782C177.558 197.375 178.119 197.197 178.286 197.414Z" fill="white"/>
<path d="M136.426 224.814C137.549 222.992 139.24 221.43 140.74 219.953C142.915 217.837 145.266 215.805 147.904 214.279C149.641 213.269 152.581 211.875 154.148 213.893C155.408 215.506 154.816 218.481 157.094 219.335C158.888 220.009 160.948 218.3 162.175 217.248C164.376 215.361 166.242 213.096 168.015 210.827C169.359 209.111 170.597 207.303 171.99 205.625C175.019 201.964 179.02 197.835 184.06 197.467C186.832 197.269 189.342 198.628 191.386 200.388C193.038 201.809 194.646 203.318 196.705 204.121C201.042 205.831 205.648 202.701 208.378 199.547C213.341 193.818 214.562 185.142 221.309 180.897C223.11 179.755 225.209 179.205 227.303 179.06C229.9 178.886 232.431 179.834 234.871 180.576C237.273 181.313 239.61 181.707 242.118 181.435C244.555 181.17 246.879 180.267 249.013 179.082C253.568 176.537 257.339 172.433 260.753 168.564C264.377 164.457 267.713 160.102 271.132 155.828C273.229 153.226 275.382 150.677 277.412 147.989C279.554 145.15 281.603 142.253 283.63 139.346C287.614 133.646 291.571 127.92 296.053 122.596C296.107 122.541 296.002 122.449 295.948 122.505C288.57 131.241 282.659 141.078 275.63 150.077C272.245 154.395 268.754 158.62 265.318 162.9C261.839 167.213 258.212 171.468 254.079 175.167C249.918 178.893 244.74 181.857 238.97 181.344C236.477 181.133 234.115 180.144 231.725 179.494C229.478 178.886 227.271 178.759 225.001 179.241C217.489 180.875 214.582 188.82 211.309 194.821C208.984 199.079 205.652 203.341 200.598 204.3C195.08 205.348 192.242 199.741 187.717 197.913C180.374 194.943 173.919 202.752 170.042 207.919C168.313 210.209 166.562 212.489 164.638 214.591C163.005 216.371 160.91 218.716 158.439 219.25C155.58 219.882 155.399 216.371 154.656 214.559C153.907 212.731 152.108 212.462 150.397 212.968C147.138 213.923 144.242 216.493 141.795 218.723C139.85 220.502 137.673 222.454 136.266 224.724C136.268 224.833 136.4 224.897 136.426 224.814Z" fill="#152665"/>
<path d="M136.161 223.111C137.235 221.306 138.854 219.75 140.316 218.268C142.42 216.158 144.701 214.133 147.256 212.581C148.932 211.555 151.812 210.146 153.373 212.093C154.637 213.668 154.094 216.57 156.354 217.375C158.115 218.007 160.098 216.287 161.309 215.241C163.438 213.361 165.217 211.108 166.936 208.839C168.231 207.14 169.414 205.334 170.742 203.679C173.65 200.041 177.504 195.909 182.428 195.471C185.145 195.219 187.631 196.513 189.669 198.202C191.32 199.568 192.922 201.007 194.953 201.782C199.233 203.384 203.692 200.25 206.312 197.098C211.084 191.398 212.133 182.857 218.671 178.593C220.417 177.451 222.466 176.864 224.532 176.692C227.08 176.48 229.582 177.347 231.989 178.046C234.352 178.723 236.656 179.073 239.114 178.764C241.501 178.462 243.759 177.526 245.832 176.325C250.266 173.75 253.879 169.664 257.173 165.819C260.661 161.741 263.838 157.405 267.137 153.155C269.147 150.565 271.212 148.029 273.144 145.374C275.189 142.57 277.15 139.685 279.09 136.79C282.905 131.131 286.676 125.451 290.983 120.152C291.037 120.096 290.932 120.005 290.884 120.076C283.801 128.765 278.19 138.515 271.434 147.456C268.201 151.738 264.835 155.957 261.531 160.191C258.194 164.491 254.714 168.695 250.712 172.403C246.694 176.116 241.68 179.132 236.005 178.732C233.562 178.559 231.223 177.635 228.872 177.045C226.664 176.497 224.501 176.391 222.265 176.916C214.934 178.652 212.207 186.479 209.096 192.423C206.886 196.641 203.69 200.874 198.752 201.902C193.367 203.014 190.492 197.566 186.029 195.863C178.771 193.083 172.595 200.85 168.871 205.982C167.229 208.26 165.543 210.517 163.674 212.618C162.112 214.392 160.105 216.725 157.683 217.296C154.891 217.96 154.644 214.527 153.902 212.77C153.132 210.986 151.383 210.754 149.7 211.287C146.507 212.274 143.736 214.837 141.366 217.076C139.493 218.849 137.392 220.811 136.051 223.058C135.986 223.135 136.113 223.183 136.161 223.111Z" fill="#152665"/>
<path d="M135.849 221.442C136.857 219.659 138.438 218.099 139.829 216.623C141.846 214.526 144.049 212.491 146.528 210.928C148.166 209.898 150.947 208.468 152.523 210.355C153.787 211.875 153.319 214.733 155.541 215.478C157.284 216.06 159.197 214.347 160.353 213.302C162.411 211.428 164.119 209.182 165.756 206.942C166.996 205.244 168.119 203.476 169.409 201.816C172.197 198.202 175.892 194.089 180.734 193.57C183.4 193.28 185.848 194.515 187.879 196.133C189.507 197.434 191.114 198.834 193.122 199.543C197.346 201.037 201.668 197.877 204.19 194.76C208.771 189.09 209.657 180.715 215.993 176.394C217.684 175.253 219.667 174.634 221.7 174.419C224.175 174.159 226.66 174.977 229.028 175.616C231.352 176.233 233.622 176.54 236.03 176.194C238.368 175.854 240.565 174.903 242.578 173.686C246.875 171.085 250.352 167.029 253.504 163.197C256.849 159.132 259.89 154.825 263.059 150.62C264.981 148.042 266.975 145.513 268.825 142.887C270.782 140.095 272.662 137.239 274.504 134.377C278.139 128.781 281.735 123.126 285.874 117.867C285.922 117.796 285.822 117.72 285.774 117.792C278.986 126.432 273.63 136.076 267.186 144.963C264.089 149.215 260.86 153.405 257.698 157.626C254.497 161.896 251.159 166.087 247.299 169.782C243.429 173.499 238.563 176.518 232.999 176.226C230.606 176.091 228.289 175.232 225.972 174.685C223.798 174.18 221.668 174.118 219.498 174.675C212.344 176.496 209.801 184.221 206.87 190.103C204.774 194.281 201.715 198.484 196.893 199.582C191.623 200.763 188.713 195.475 184.306 193.88C177.149 191.285 171.207 198.988 167.674 204.09C166.098 206.346 164.499 208.591 162.701 210.685C161.194 212.458 159.268 214.762 156.897 215.371C154.17 216.067 153.876 212.705 153.096 210.998C152.327 209.269 150.589 209.07 148.944 209.608C145.834 210.621 143.156 213.188 140.879 215.432C139.06 217.203 137.031 219.159 135.777 221.393C135.69 221.46 135.801 221.513 135.849 221.442Z" fill="#152665"/>
<path d="M135.518 219.798C136.477 218.033 137.987 216.479 139.345 215.015C141.285 212.907 143.401 210.885 145.803 209.312C147.386 208.283 150.102 206.821 151.671 208.637C152.934 210.102 152.526 212.921 154.714 213.622C156.424 214.162 158.282 212.449 159.4 211.399C161.381 209.515 163.024 207.292 164.595 205.075C165.786 203.394 166.855 201.627 168.079 199.99C170.764 196.394 174.306 192.315 179.026 191.711C181.626 191.389 184.062 192.536 186.07 194.089C187.697 195.335 189.287 196.686 191.262 197.353C195.435 198.754 199.604 195.574 202.022 192.475C206.412 186.835 207.131 178.611 213.28 174.281C214.91 173.125 216.855 172.5 218.838 172.247C221.264 171.95 223.71 172.708 226.039 173.288C228.345 173.857 230.565 174.126 232.902 173.731C235.19 173.353 237.326 172.387 239.268 171.177C243.434 168.567 246.769 164.524 249.8 160.715C253.009 156.679 255.93 152.396 258.946 148.226C260.787 145.677 262.693 143.16 264.456 140.546C266.332 137.783 268.108 134.944 269.884 132.106C273.35 126.551 276.783 120.952 280.752 115.734C280.801 115.662 280.701 115.587 280.653 115.659C274.138 124.241 269.06 133.787 262.904 142.609C259.944 146.833 256.852 150.993 253.825 155.185C250.761 159.426 247.56 163.587 243.848 167.286C240.119 170.989 235.397 174.051 229.938 173.85C227.583 173.775 225.317 172.953 223.022 172.472C220.881 172.01 218.802 171.985 216.681 172.579C209.704 174.486 207.345 182.11 204.556 187.924C202.59 192.056 199.651 196.236 194.934 197.371C189.797 198.616 186.85 193.487 182.5 192C175.438 189.574 169.758 197.24 166.356 202.297C164.85 204.546 163.317 206.768 161.59 208.856C160.133 210.611 158.3 212.92 155.988 213.544C153.328 214.272 152.969 210.988 152.201 209.313C151.41 207.628 149.706 207.472 148.105 208.031C145.083 209.087 142.493 211.642 140.287 213.879C138.539 215.645 136.586 217.61 135.376 219.811C135.365 219.833 135.469 219.87 135.518 219.798Z" fill="#152665"/>
<path d="M135.164 218.217C136.074 216.469 137.53 214.916 138.833 213.452C140.702 211.351 142.747 209.335 145.072 207.753C146.611 206.702 149.233 205.236 150.802 206.998C152.064 208.408 151.71 211.171 153.865 211.83C155.563 212.336 157.35 210.63 158.413 209.581C160.323 207.704 161.895 205.486 163.401 203.292C164.543 201.629 165.563 199.879 166.732 198.242C169.297 194.67 172.714 190.599 177.323 189.941C179.873 189.582 182.27 190.669 184.272 192.151C185.882 193.348 187.471 194.644 189.406 195.251C193.524 196.544 197.566 193.372 199.88 190.29C204.079 184.681 204.653 176.617 210.594 172.268C212.186 171.107 214.065 170.451 216.009 170.193C218.385 169.858 220.798 170.573 223.087 171.093C225.355 171.602 227.525 171.833 229.834 171.412C232.056 171.002 234.148 170.014 236.03 168.789C240.074 166.148 243.273 162.134 246.184 158.349C249.273 154.337 252.047 150.105 254.937 145.943C256.707 143.4 258.532 140.911 260.213 138.326C262.001 135.575 263.696 132.765 265.39 129.955C268.693 124.457 271.963 118.915 275.757 113.722C275.805 113.65 275.711 113.591 275.657 113.647C269.415 122.17 264.615 131.619 258.71 140.372C255.87 144.572 252.914 148.703 250.018 152.849C247.091 157.061 244.025 161.193 240.439 164.884C236.837 168.58 232.267 171.661 226.914 171.552C224.609 171.514 222.366 170.758 220.121 170.315C218.013 169.896 215.967 169.915 213.907 170.524C207.09 172.521 204.91 180.028 202.278 185.768C200.405 189.85 197.619 193.995 193.017 195.199C187.996 196.514 185.029 191.538 180.746 190.139C173.78 187.88 168.34 195.499 165.101 200.499C163.661 202.725 162.193 204.924 160.554 207C159.167 208.749 157.4 211.035 155.138 211.696C152.544 212.456 152.137 209.244 151.347 207.614C150.535 205.973 148.875 205.838 147.318 206.418C144.362 207.506 141.882 210.059 139.763 212.284C138.086 214.043 136.205 216.002 135.059 218.18C135.022 218.23 135.132 218.283 135.164 218.217Z" fill="#152665"/>
<path d="M0.385234 219.589L13.0933 317.385C13.6774 321.876 17.6235 325.251 22.2965 325.251H174.78C179.427 325.251 183.36 321.915 183.97 317.45L197.379 219.654C198.119 214.267 193.797 209.49 188.189 209.49H9.58849C4.00682 209.477 -0.31572 214.215 0.385234 219.589Z" fill="#EFF3FE"/>
<path d="M0.074687 222.289L12.7827 320.085C13.3668 324.576 17.3129 327.951 21.986 327.951H174.469C179.116 327.951 183.05 324.615 183.66 320.15L197.069 222.354C197.809 216.967 193.486 212.19 187.878 212.19H9.27795C3.69628 212.177 -0.626267 216.928 0.074687 222.289Z" fill="#E2E9FD"/>
<path d="M72.0662 246.796C71.1668 247.234 70.6016 248.162 70.6016 249.168V262.911C70.6016 283.23 81.3677 293.621 97.5555 303.575C98.4034 304.09 99.4826 304.09 100.331 303.575C116.518 293.621 127.284 283.256 127.284 262.911V249.168C127.284 248.162 126.719 247.234 125.82 246.796L100.125 233.903C99.3798 233.542 98.5062 233.542 97.761 233.903L72.0662 246.796Z" fill="#E6007A" stroke="#E6007A" stroke-width="2" stroke-miterlimit="10"/>
<path d="M77.3087 251.11C76.5849 251.462 76.1299 252.208 76.1299 253.017V264.066C76.1299 280.4 84.7953 288.754 97.8245 296.755C98.507 297.17 99.3756 297.17 100.058 296.755C113.087 288.754 121.753 280.421 121.753 264.066V253.017C121.753 252.208 121.298 251.462 120.574 251.11L99.8926 240.745C99.2929 240.455 98.5897 240.455 97.9899 240.745L77.3087 251.11Z" fill="#E2E9FD"/>
<path d="M88.5742 266.701L95.9737 275.475C96.3732 275.949 97.103 275.949 97.5026 275.475L110.694 259.834" stroke="#E6007A" stroke-width="4" stroke-miterlimit="10" stroke-linecap="round"/>
</svg>
