<svg width="16" height="16" viewBox="0 0 16 16" fill="none" xmlns="http://www.w3.org/2000/svg">
<path d="M6.85433 2.19137L1.17957 12.3456C1.06257 12.5628 1.00066 12.809 1.00001 13.0598C0.99935 13.3106 1.05997 13.5572 1.17583 13.7751C1.2917 13.9929 1.45877 14.1745 1.66042 14.3017C1.86207 14.4289 2.09128 14.4972 2.32524 14.5H13.6748C13.9087 14.4972 14.1379 14.4289 14.3396 14.3017C14.5412 14.1745 14.7083 13.9929 14.8242 13.7751C14.94 13.5572 15.0006 13.3106 15 13.0598C14.9993 12.809 14.9374 12.5628 14.8204 12.3456L9.14567 2.19137C9.02623 1.98032 8.85806 1.80582 8.65738 1.68472C8.45671 1.56362 8.2303 1.5 8 1.5C7.7697 1.5 7.54329 1.56362 7.34262 1.68472C7.14194 1.80582 6.97377 1.98032 6.85433 2.19137Z" stroke="#E95B5B" stroke-width="2" stroke-linecap="round" stroke-linejoin="round"/>
<path d="M8 5.5L8 8.5" stroke="#E95B5B" stroke-width="2" stroke-linecap="round" stroke-linejoin="round"/>
<path d="M8 11.5H8.00608" stroke="#E95B5B" stroke-width="2" stroke-linecap="round" stroke-linejoin="round"/>
</svg>
