<svg width="36" height="36" viewBox="0 0 36 36" fill="none" xmlns="http://www.w3.org/2000/svg">
<path fill-rule="evenodd" clip-rule="evenodd" d="M19.249 8.43792C18.5187 7.85403 17.4813 7.85403 16.751 8.43792L9.75104 14.0348C9.27635 14.4143 9 14.9891 9 15.5968V25.9432C9 26.4885 9.21071 27.0114 9.58579 27.397C9.96086 27.7825 10.4696 27.9992 11 27.9992H13C14.1046 27.9992 15 27.1037 15 25.9992V21C15 19.8954 15.8954 19 17 19H19C20.1046 19 21 19.8954 21 21V25.9992C21 27.1037 21.8954 27.9992 23 27.9992H25C25.5304 27.9992 26.0391 27.7825 26.4142 27.397C26.7893 27.0114 27 26.4885 27 25.9432V15.5968C27 14.9891 26.7236 14.4143 26.249 14.0348L19.249 8.43792Z" fill="white"/>
</svg>
