<svg width="188" height="450" viewBox="0 0 188 450" fill="none" xmlns="http://www.w3.org/2000/svg">
<path d="M116.417 399.603C116.417 399.603 112.68 404.71 103.778 429.043C102.91 431.159 98.7357 435.513 90.3933 435.513C82.0509 435.513 76.3907 428.419 80.3721 425.557C84.3536 422.694 86.9071 422.321 93.2556 410.988C99.604 399.655 99.1088 397.294 99.1088 397.294L116.417 399.603Z" fill="#ECCDB0"/>
<path d="M94.6899 435.095C96.2272 433.101 97.6101 430.503 98.6135 427.364C100.395 421.8 101.128 418.275 100.691 411.888C100.318 406.492 99.3596 405 97.9381 401.604C99.3082 398.214 99.1152 397.301 99.1152 397.301L116.417 399.603C116.417 399.603 112.68 404.71 103.778 429.043C103.071 430.76 100.196 433.95 94.6899 435.095Z" fill="#DDB99E"/>
<path d="M171.752 352.668C171.752 352.668 175.052 359.641 175.489 362.94C175.927 366.24 177.046 373.399 177.11 376.699C177.174 379.998 176.551 383.298 179.162 385.478C181.773 387.659 184.269 388.276 184.269 388.276V330.182L179.541 331.758L171.752 352.668Z" fill="#272622"/>
<path d="M80.8093 426.952C80.8093 426.952 77.529 423.961 76.9115 423.009C76.294 422.058 75.7087 421.35 74.1714 422.804C72.6342 424.257 62.137 433.429 42.963 438.987C41.0141 439.733 39.5219 440.691 38.9816 441.765C38.4413 442.84 37.573 445.252 37.573 445.252H105.335C105.335 445.252 109.194 441.81 109.072 437.327C108.95 432.844 108.326 435.005 108.075 433.616C107.824 432.227 108.159 427.949 106.499 427.12C104.84 426.29 105.09 426.83 104.756 427.203C104.421 427.576 98.3239 432.973 93.011 432.973C87.6981 432.973 80.8093 426.952 80.8093 426.952Z" fill="#31302C"/>
<path d="M183.6 389.852V329.018H187.344C187.344 329.018 188 328.767 188 329.674C188 330.574 188 389.852 188 389.852C188 389.852 188.019 390.669 187.183 390.669C186.347 390.669 184.263 390.669 184.263 390.669C184.263 390.669 183.6 390.714 183.6 389.852Z" fill="black"/>
<path d="M38.3576 445.252H105.335C105.335 445.252 106.647 445.219 106.647 446.564C106.647 447.908 106.647 449.278 106.647 449.278C106.647 449.278 106.673 449.992 105.553 449.992C104.434 449.992 37.5729 449.992 37.5729 449.992H36.4344C36.4344 449.992 35.8105 450.146 35.8105 449.092C35.8105 448.037 35.6819 445.252 38.3576 445.252Z" fill="black"/>
<path d="M96.9797 432.137C100.974 430.612 104.499 427.48 104.75 427.197C105.084 426.824 104.833 426.283 106.493 427.113C108.152 427.943 107.818 432.22 108.069 433.61C108.319 434.999 108.937 432.844 109.066 437.321C109.188 441.804 105.328 445.245 105.328 445.245H37.5666C37.5666 445.245 37.8753 444.396 38.2355 443.476C53.0936 442.904 75.9468 441.72 85.4084 439.617C91.4416 438.292 94.9407 435.25 96.9797 432.137Z" fill="#272622"/>
<path d="M185.427 189.21H153.929C153.929 189.21 151.029 196.691 116.289 232.659C95.2497 254.444 93.2557 264.401 92.8827 267.019C92.5096 269.63 90.6443 272.499 94.3749 298.639C98.1119 324.785 98.6072 343.953 99.1025 348.314C99.5978 352.668 99.9708 382.423 96.8641 395.12C95.6163 401.095 94.3749 402.716 97.115 403.212C99.855 403.707 131.102 408.441 157.615 378.686C157.615 378.686 168.942 364.992 174.422 352.54C179.902 340.094 177.246 337.354 185.421 329.635C185.421 329.635 186.688 329.539 186.161 327.455C185.633 325.371 179.658 302.743 182.147 275.355C184.636 247.967 186.289 244.024 186.289 242.532C186.289 241.04 186.289 190.329 186.289 190.329C186.289 190.329 186.379 189.21 185.427 189.21Z" fill="#DAEEF9"/>
<path d="M161.584 249.093C167.019 234.28 170.19 224.503 170.871 213.491C171.347 205.747 169.399 196.999 165.301 189.217H185.421C186.373 189.217 186.289 190.336 186.289 190.336C186.289 190.336 186.289 241.046 186.289 242.538C186.289 244.031 184.636 247.974 182.147 275.361C179.658 302.749 185.633 325.377 186.161 327.461C186.688 329.545 185.421 329.642 185.421 329.642C177.246 337.36 179.902 340.1 174.422 352.546C168.942 364.992 157.615 378.693 157.615 378.693C151.897 385.112 145.954 389.923 140.126 393.518C124.535 328.876 153.408 271.386 161.584 249.093Z" fill="#C0DEEF"/>
<path d="M186.083 174.256C186.083 174.256 186.411 174.146 186.469 176.057C186.547 178.34 186.83 187.84 185.672 188.798C185.228 189.024 185.768 189.217 184.025 189.217C182.282 189.217 155.19 189.217 155.19 189.217V174.063L169.54 174.313C175.097 174.294 185.82 174.268 186.083 174.256Z" fill="#31302C"/>
<path d="M133.803 135.477C133.803 135.477 112.14 119.789 108.409 117.216C104.679 114.643 102.929 114.225 101.521 114.148C100.112 114.071 97.8673 114.064 96.1242 114.978C94.3811 115.891 86.9971 120.207 84.8359 120.953C82.6812 121.699 80.7708 123.989 80.1855 124.793C79.6066 125.597 77.6963 128.337 76.6993 129.418C75.7024 130.498 75.9532 131.656 75.2907 133.071C74.6282 134.48 71.6373 138.879 64.6649 142.449C71.1356 143.53 73.7084 142.449 75.0399 141.368C76.3649 140.288 77.9472 138.879 78.9377 139.625C79.9282 140.371 82.3403 142.012 82.8355 142.893C83.5817 142.893 84.5786 139.374 83.9997 138.133C85.9937 138.384 86.6562 138.551 86.907 138.551C87.1579 138.551 88.901 137.143 85.8265 134.814C86.1995 134.441 86.3217 134.525 86.9456 134.396C87.5695 134.274 87.5245 132.737 87.3637 132.113C87.2029 131.489 90.5154 130.492 90.9335 130.575C91.3516 130.659 95.5839 130.202 97.3656 132.569C99.1473 134.936 103.714 141.452 106.576 141.992C109.439 142.533 111.555 141.954 111.555 141.954C111.555 141.954 108.982 139.587 108.114 138.011C107.245 136.435 106.332 133.116 105.457 131.579C104.589 130.042 104.422 127.43 104.422 127.43C104.422 127.43 111.806 132.409 115.793 135.811C119.775 139.214 126.657 145.189 133.134 150.997C139.611 156.805 144.924 160.793 149.24 161.038C153.556 161.282 133.803 135.477 133.803 135.477Z" fill="#ECCDB0"/>
<path d="M133.135 150.991C126.657 145.183 119.775 139.207 115.794 135.805C111.812 132.402 104.422 127.424 104.422 127.424C104.422 127.424 104.589 130.035 105.457 131.572C106.326 133.11 107.239 136.429 108.114 138.004C108.982 139.58 111.555 141.947 111.555 141.947C111.555 141.947 109.439 142.526 106.577 141.986C103.714 141.446 99.1475 134.93 97.3658 132.563C95.5841 130.196 91.3518 130.653 90.9337 130.569C90.5157 130.485 87.1967 131.482 87.364 132.106C87.5312 132.73 87.5698 134.261 86.9459 134.39C86.322 134.512 86.1998 134.428 85.8267 134.808C88.8948 137.13 87.1517 138.545 86.9073 138.545C86.6564 138.545 85.9939 138.377 84 138.127C84.5789 139.374 83.5819 142.886 82.8358 142.886C82.3405 142.005 79.9285 140.365 78.9379 139.619C77.941 138.873 76.3651 140.281 75.0401 141.362C74.0367 142.179 72.3258 142.989 68.7624 142.873C70.9686 142.404 73.9016 141.118 77.3878 138.043C85.415 130.948 88.8433 129.765 90.7086 129.701C92.5739 129.636 96.4332 129.636 98.8002 133C101.167 136.364 104.467 140.719 108.821 140.841C109.555 140.828 109.6 140.699 109.349 140.468C109.098 140.236 106.969 137.747 106.281 135.412C105.592 133.077 104.319 130.974 104.152 130.492C103.978 130.009 104.306 127.211 103.714 125.153C103.123 123.101 102.331 122.072 102.293 121.043C103.283 121.48 104.589 122.876 105.457 126.491C105.953 126.961 119.46 135.605 128.362 143.105C137.264 150.611 142.989 154.22 142.989 154.22L149.408 161.018C149.356 161.025 149.298 161.031 149.234 161.025C144.925 160.787 139.612 156.805 133.135 150.991Z" fill="#DDB99E"/>
<path d="M158.451 80.9455C158.451 80.9455 156.213 93.3144 145.336 110.327C134.466 127.34 133.051 130.91 133.134 133.315C133.218 135.721 133.218 139.542 139.193 152.489C145.169 165.437 145.793 166.601 145.793 166.601C145.793 166.601 147.742 167.019 148.578 168.84C149.407 170.666 153.305 179.961 151.318 184.026C149.324 188.091 149.472 187.223 149.35 187.255C149.227 187.287 149.195 187.724 149.195 187.724C149.195 187.724 150.347 189.435 152.649 190.214C154.952 190.992 159.12 191.487 161.77 188.998C164.413 186.509 167.089 184.392 168.71 175.117C168.961 174.834 169.27 174.963 169.894 174.339C170.575 174.339 186.482 174.339 186.482 174.339V99.0839C186.482 99.0839 185.639 88.8762 179.124 77.0477C178.127 74.269 177.837 72.8154 177.837 72.8154L158.451 80.9455Z" fill="#381033"/>
<path d="M161.763 188.998C159.12 191.487 154.945 190.992 152.643 190.214C150.34 189.435 149.189 187.724 149.189 187.724C149.189 187.724 149.195 187.634 149.214 187.538C151.138 188.29 153.447 188.741 156.071 188.779C160.181 188.844 161.609 183.113 164.349 178.012C172.441 150.502 172.691 132.074 173.688 116.759C174.685 101.445 168.897 89.6224 168.427 88.8377C167.957 88.0594 167.745 87.4998 168.305 87.6542C170.421 88.4003 175.058 94.5622 175.058 94.5622C175.058 94.5622 172.01 89.0821 166.78 85.8789C162.947 83.5312 159.602 83.2225 157.936 83.1581C158.322 81.7174 158.464 80.9391 158.464 80.9391L177.844 72.8025C177.844 72.8025 178.133 74.2561 179.13 77.0348C185.646 88.8634 186.488 99.0711 186.488 99.0711V174.326C186.488 174.326 170.582 174.326 169.9 174.326C169.276 174.95 168.967 174.822 168.716 175.105C167.083 184.386 164.407 186.502 161.763 188.998Z" fill="#2D0B28"/>
<path d="M52.7144 149.331L100.312 148.624C100.312 148.624 112.43 155.969 145.793 166.595C148.198 167.547 150.398 168.589 151.569 177.427C152.746 186.264 150.122 187.036 149.459 187.306C148.797 187.576 145.838 185.602 144.423 184.939C143.008 184.277 99.1089 160.247 97.16 159.25C95.2111 158.253 93.5902 157.301 89.3193 158.253C85.042 159.205 78.2369 161.404 76.4938 161.488C74.7507 161.572 73.2134 160.825 72.6731 160.285C72.1328 159.745 68.6466 157.378 64.5816 155.558C62.4654 154.606 62.4268 154.271 61.9701 154.02C61.5134 153.769 57.1975 151.447 55.3322 150.952C53.4605 150.457 52.8816 150.122 52.7144 149.331Z" fill="#ECCDB0"/>
<path d="M52.7144 149.331L100.312 148.624C100.312 148.624 105.078 151.512 116.855 156.284C114.134 156.722 111.259 157.545 110.809 159.082C109.941 162.073 110.314 163.379 112.861 165.18C114.958 166.659 140.139 181.884 149.112 187.306C148.083 187.1 145.658 185.518 144.423 184.933C143.014 184.27 99.1089 160.24 97.16 159.243C95.2111 158.246 93.5902 157.294 89.3193 158.246C85.042 159.198 78.2368 161.398 76.4937 161.481C74.7506 161.565 73.2134 160.819 72.6731 160.279C72.1328 159.738 68.6466 157.371 64.5815 155.551C62.4654 154.599 62.4268 154.265 61.9701 154.014C61.5134 153.763 57.1975 151.441 55.3322 150.946C53.4605 150.457 52.8816 150.122 52.7144 149.331Z" fill="#DDB99E"/>
<path opacity="0.2" d="M3.99815 71.2331L50.4763 45.1446L92.0918 124.356L37.5735 142.944L3.99815 71.2331Z" fill="url(#paint0_linear_1085_18904)"/>
<path d="M39.0529 149.544L112.507 148.669C114.186 148.649 115.569 147.337 115.678 145.665L115.852 143.034C115.89 142.43 115.408 141.922 114.803 141.928L41.4906 142.713C40.9118 142.719 40.3843 142.391 40.1271 141.87L4.76353 68.493C4.45479 67.8498 3.6379 67.6504 3.06545 68.0685L0.865692 69.6765C0.280373 70.1074 0.080986 70.8922 0.389725 71.5482L36.6409 148.032C37.0783 148.965 38.0238 149.556 39.0529 149.544Z" fill="#31302C"/>
<path d="M131.314 55.5517C131.314 55.5517 132.723 69.4128 130.15 80.6175C130.15 81.8653 129.719 82.0711 131.7 82.5664C133.681 83.0616 139.489 85.8853 150.816 81.28C162.143 76.6746 158.161 65.1355 158.161 65.1355L148.288 53.3905L131.314 55.5517Z" fill="#E4B523"/>
<path d="M127.867 36.0239C127.867 36.0239 128.799 38.9505 129.545 39.7609C130.292 40.5714 130.915 40.9702 130.915 42.1086C130.915 43.2471 131.726 48.2899 129.391 55.8861C128.921 57.4427 130.71 58.6841 132.761 59.1858C133.321 59.4559 135.27 60.5751 135.669 62.9614C135.772 63.8941 135.128 64.994 137.412 66.0295C137.412 66.4476 136.563 68.7503 138.222 69.8888C139.882 71.0272 140.377 71.1945 141.779 74.031C143.181 76.8611 143.239 77.5815 144.796 77.2085C146.352 76.8354 151.807 74.2819 155.351 71.2974C158.895 68.3129 165.501 34.5638 165.005 34.1457C164.51 33.7277 149.987 25.263 149.987 25.263L134.717 30.6596L127.867 36.0239Z" fill="#ECCDB0"/>
<path d="M127.931 35.9789L134.717 30.6531L144.725 27.1155C149.955 28.7106 155.731 30.5502 156.052 30.7303C156.631 31.0648 159.371 47.994 159.371 47.994L159.107 62.0095C157.763 66.7178 156.425 70.3905 155.364 71.2845C151.82 74.2754 146.365 76.8225 144.809 77.1956C144.584 77.2471 144.397 77.2792 144.224 77.2857C152.096 74.0503 149.131 63.6947 146.462 54.2202C144.101 45.8585 139.92 41.5105 137.213 39.0341C134.505 36.5578 130.999 37.6062 128.716 38.2687C128.317 37.3553 127.989 36.3712 127.899 36.1011C127.905 36.0625 127.918 36.0175 127.931 35.9789Z" fill="#DDB99E"/>
<path d="M132.318 57.8737C132.318 57.8737 135.495 57.4363 135.868 58.4332C135.868 59.2437 135.077 58.9928 134.807 58.8192C134.537 58.6455 133.675 57.9701 132.318 57.8737Z" fill="#DDB99E"/>
<path d="M135.662 63.7204C135.965 63.2766 136.473 62.8649 137.296 63.0064C138.917 63.2895 142.152 63.7847 142.898 63.3152C143.645 62.8456 144.088 62.4469 144.088 62.4469C144.088 62.4469 141.4 69.207 137.45 68.9883C136.897 67.8176 137.405 66.3511 137.405 66.0295C135.727 65.2641 135.637 64.4665 135.662 63.7204Z" fill="#EE8F7C"/>
<path d="M132.382 42.7776C132.382 42.7776 132.131 42.1794 133.347 42.1022C134.563 42.025 138.126 42.3724 139.059 42.7776C138.75 42.9641 137.676 42.7004 136.602 42.6811C135.527 42.6682 133.366 42.7776 133.051 43.0091C132.736 43.2471 132.382 43.0156 132.382 42.7776Z" fill="#130100"/>
<path d="M135.308 43.6974C135.308 43.6974 136.363 44.7072 135.823 45.0803C135.386 45.3826 134.62 44.5207 134.517 44.3856C134.414 44.2505 133.668 43.3758 133.958 43.1056C134.324 42.7647 135.058 43.4272 135.308 43.6974Z" fill="#140200"/>
<path d="M144.095 2.84727C144.095 2.84727 129.487 2.84727 125.75 17.9498C122.013 33.0523 124.753 38.4488 125.004 38.5324C125.255 38.616 124.921 39.4458 128.24 37.7027C131.559 35.9596 137.823 33.5347 140.718 36.7057C143.612 39.8767 151.556 47.5759 151.311 65.4249C150.855 73.5165 149.446 82.0261 149.607 82.978C149.774 83.93 149.523 84.3867 151.556 84.1422C153.588 83.8914 169.939 81.7173 186 66.5891C186.578 65.9459 186.81 65.0969 186.868 62.2346C186.932 59.3723 186.868 37.96 186.868 37.96C186.868 37.96 187.492 13.621 169.624 3.66415C157.743 -4.06077 144.095 2.84727 144.095 2.84727Z" fill="#F4C430"/>
<path d="M169.636 3.65772C187.498 13.6146 186.881 37.9535 186.881 37.9535C186.881 37.9535 186.945 59.3659 186.881 62.2282C186.816 65.0904 186.591 65.9395 186.012 66.5827C185.375 67.1809 184.745 67.7533 184.108 68.3065C183.755 36.0432 175.998 18.117 169.334 9.14428C160.992 -2.07968 144.101 2.83441 144.101 2.83441C144.101 2.83441 157.743 -4.06077 169.636 3.65772Z" fill="#E4B523"/>
<defs>
<linearGradient id="paint0_linear_1085_18904" x1="25" y1="109" x2="71.5" y2="85.5" gradientUnits="userSpaceOnUse">
<stop stop-color="#3B6CF4"/>
<stop offset="1" stop-color="#6050DC" stop-opacity="0"/>
</linearGradient>
</defs>
</svg>