<svg width="188" height="450" viewBox="0 0 188 450" fill="none" xmlns="http://www.w3.org/2000/svg">
<path d="M116.324 399.603C116.324 399.603 112.582 404.71 103.668 429.043C102.799 431.159 98.619 435.513 90.2657 435.513C81.9124 435.513 76.2448 428.419 80.2315 425.556C84.2181 422.694 86.775 422.321 93.1318 410.988C99.4885 399.655 98.9926 397.294 98.9926 397.294L116.324 399.603Z" fill="#ECCDB0"/>
<path d="M94.5679 435.096C96.1072 433.102 97.4919 430.503 98.4966 427.364C100.281 421.801 101.015 418.276 100.577 411.889C100.203 406.492 99.2437 405 97.8204 401.604C99.1922 398.214 98.999 397.301 98.999 397.301L116.324 399.603C116.324 399.603 112.582 404.711 103.668 429.043C102.96 430.76 100.081 433.951 94.5679 435.096Z" fill="#DDB99E"/>
<path d="M171.731 352.669C171.731 352.669 175.035 359.642 175.473 362.941C175.911 366.241 177.032 373.4 177.096 376.699C177.16 379.999 176.536 383.299 179.151 385.479C181.765 387.66 184.264 388.277 184.264 388.277V330.183L179.531 331.758L171.731 352.669Z" fill="#272622"/>
<path d="M80.6695 426.953C80.6695 426.953 77.3848 423.962 76.7666 423.01C76.1483 422.058 75.5622 421.35 74.0229 422.804C72.4836 424.257 61.9728 433.43 42.7737 438.987C40.8223 439.733 39.3281 440.691 38.7871 441.766C38.2461 442.84 37.3766 445.252 37.3766 445.252H105.227C105.227 445.252 109.091 441.811 108.969 437.327C108.847 432.844 108.222 435.005 107.971 433.616C107.719 432.227 108.054 427.95 106.393 427.12C104.731 426.29 104.982 426.83 104.647 427.203C104.312 427.576 98.2069 432.973 92.8871 432.973C87.5672 432.973 80.6695 426.953 80.6695 426.953Z" fill="#31302C"/>
<path d="M183.595 389.853V329.018H187.343C187.343 329.018 188 328.767 188 329.674C188 330.575 188 389.853 188 389.853C188 389.853 188.019 390.67 187.182 390.67C186.345 390.67 184.258 390.67 184.258 390.67C184.258 390.67 183.595 390.715 183.595 389.853Z" fill="black"/>
<path d="M38.1623 445.252H105.227C105.227 445.252 106.541 445.22 106.541 446.564C106.541 447.908 106.541 449.278 106.541 449.278C106.541 449.278 106.567 449.992 105.446 449.992C104.325 449.992 37.3766 449.992 37.3766 449.992H36.2366C36.2366 449.992 35.6119 450.147 35.6119 449.092C35.6119 448.037 35.4831 445.252 38.1623 445.252Z" fill="black"/>
<path d="M96.8607 432.137C100.86 430.613 104.39 427.48 104.641 427.197C104.976 426.824 104.725 426.284 106.386 427.114C108.048 427.943 107.713 432.221 107.964 433.61C108.215 434.999 108.834 432.845 108.962 437.321C109.085 441.804 105.22 445.246 105.22 445.246H37.37C37.37 445.246 37.6792 444.397 38.0398 443.477C52.9173 442.904 75.8003 441.721 85.2743 439.618C91.3154 438.293 94.8191 435.25 96.8607 432.137Z" fill="#272622"/>
<path d="M185.424 189.21H153.885C153.885 189.21 150.98 196.69 116.195 232.659C95.1285 254.444 93.1319 264.401 92.7584 267.019C92.3848 269.63 90.5171 272.499 94.2526 298.639C97.9945 324.785 98.4904 343.953 98.9863 348.314C99.4822 352.668 99.8558 382.423 96.745 395.12C95.4956 401.095 94.2526 402.716 96.9962 403.211C99.7399 403.707 131.028 408.441 157.575 378.686C157.575 378.686 168.917 364.992 174.404 352.54C179.892 340.094 177.232 337.353 185.417 329.635C185.417 329.635 186.686 329.538 186.158 327.454C185.63 325.371 179.647 302.742 182.139 275.355C184.632 247.967 186.287 244.024 186.287 242.532C186.287 241.04 186.287 190.329 186.287 190.329C186.287 190.329 186.377 189.21 185.424 189.21Z" fill="#DAEEF9"/>
<path d="M161.549 249.093C166.991 234.28 170.167 224.503 170.849 213.491C171.326 205.747 169.374 197 165.272 189.217H185.418C186.371 189.217 186.287 190.336 186.287 190.336C186.287 190.336 186.287 241.046 186.287 242.539C186.287 244.031 184.632 247.974 182.139 275.362C179.647 302.749 185.63 325.377 186.158 327.461C186.686 329.545 185.418 329.642 185.418 329.642C177.232 337.36 179.892 340.1 174.404 352.546C168.917 364.992 157.575 378.693 157.575 378.693C151.85 385.112 145.899 389.923 140.064 393.519C124.452 328.876 153.363 271.387 161.549 249.093Z" fill="#C0DEEF"/>
<path d="M186.081 174.255C186.081 174.255 186.409 174.146 186.467 176.056C186.544 178.34 186.828 187.84 185.668 188.798C185.224 189.024 185.765 189.216 184.02 189.216C182.274 189.216 155.147 189.216 155.147 189.216V174.062L169.516 174.313C175.08 174.294 185.817 174.268 186.081 174.255Z" fill="#31302C"/>
<path d="M133.733 135.477C133.733 135.477 112.041 119.789 108.306 117.216C104.57 114.643 102.818 114.225 101.408 114.148C99.9974 114.071 97.7496 114.064 96.0043 114.978C94.2589 115.891 86.8652 120.207 84.7012 120.953C82.5437 121.699 80.6308 123.989 80.0448 124.793C79.4651 125.597 77.5523 128.337 76.554 129.418C75.5558 130.498 75.8069 131.656 75.1436 133.071C74.4802 134.48 71.4854 138.879 64.5039 142.449C70.983 143.53 73.5592 142.449 74.8924 141.368C76.2191 140.288 77.8035 138.879 78.7953 139.625C79.7871 140.371 82.2023 142.012 82.6982 142.893C83.4453 142.893 84.4436 139.374 83.864 138.133C85.8605 138.384 86.5239 138.551 86.7751 138.551C87.0262 138.551 88.7716 137.143 85.6931 134.814C86.0666 134.441 86.189 134.525 86.8137 134.396C87.4384 134.274 87.3933 132.737 87.2323 132.113C87.0713 131.489 90.3882 130.492 90.8068 130.575C91.2254 130.659 95.4633 130.202 97.2473 132.569C99.0313 134.936 103.604 141.452 106.47 141.992C109.336 142.533 111.455 141.954 111.455 141.954C111.455 141.954 108.879 139.587 108.009 138.011C107.14 136.435 106.225 133.116 105.349 131.579C104.48 130.042 104.312 127.43 104.312 127.43C104.312 127.43 111.706 132.409 115.699 135.811C119.686 139.214 126.577 145.189 133.063 150.997C139.548 156.805 144.868 160.793 149.19 161.038C153.511 161.282 133.733 135.477 133.733 135.477Z" fill="#ECCDB0"/>
<path d="M133.063 150.991C126.578 145.183 119.687 139.207 115.7 135.805C111.713 132.402 104.313 127.424 104.313 127.424C104.313 127.424 104.481 130.035 105.35 131.572C106.22 133.11 107.134 136.428 108.01 138.004C108.879 139.58 111.456 141.947 111.456 141.947C111.456 141.947 109.337 142.526 106.471 141.986C103.605 141.445 99.032 134.93 97.248 132.563C95.464 130.196 91.2261 130.652 90.8075 130.569C90.3889 130.485 87.0656 131.482 87.233 132.106C87.4005 132.73 87.4391 134.261 86.8144 134.39C86.1897 134.512 86.0673 134.428 85.6938 134.808C88.7659 137.13 87.0205 138.545 86.7758 138.545C86.5246 138.545 85.8612 138.377 83.8647 138.127C84.4443 139.374 83.446 142.886 82.6989 142.886C82.203 142.005 79.7878 140.365 78.796 139.619C77.7977 138.873 76.2198 140.281 74.8931 141.362C73.8884 142.179 72.1752 142.989 68.6072 142.873C70.8163 142.404 73.7531 141.117 77.2438 138.043C85.2816 130.948 88.7143 129.765 90.5821 129.701C92.4498 129.636 96.3141 129.636 98.6842 133C101.054 136.364 104.358 140.719 108.718 140.841C109.453 140.828 109.498 140.699 109.247 140.468C108.995 140.236 106.864 137.747 106.174 135.412C105.485 133.077 104.21 130.974 104.043 130.492C103.869 130.009 104.197 127.211 103.605 125.153C103.012 123.101 102.22 122.072 102.181 121.043C103.173 121.48 104.481 122.876 105.35 126.491C105.846 126.96 119.371 135.605 128.285 143.105C137.198 150.611 142.93 154.22 142.93 154.22L149.358 161.018C149.306 161.025 149.248 161.031 149.184 161.025C144.869 160.787 139.549 156.805 133.063 150.991Z" fill="#DDB99E"/>
<path d="M158.413 80.9456C158.413 80.9456 156.171 93.3144 145.281 110.327C134.396 127.34 132.979 130.91 133.063 133.315C133.147 135.721 133.147 139.542 139.13 152.49C145.113 165.437 145.738 166.601 145.738 166.601C145.738 166.601 147.689 167.02 148.527 168.84C149.357 170.667 153.26 179.961 151.27 184.026C149.274 188.091 149.422 187.223 149.299 187.255C149.177 187.287 149.145 187.724 149.145 187.724C149.145 187.724 150.298 189.435 152.603 190.214C154.909 190.992 159.082 191.487 161.736 188.998C164.383 186.509 167.062 184.393 168.685 175.118C168.936 174.835 169.246 174.963 169.87 174.339C170.553 174.339 186.48 174.339 186.48 174.339V99.084C186.48 99.084 185.637 88.8763 179.112 77.0477C178.114 74.2691 177.824 72.8154 177.824 72.8154L158.413 80.9456Z" fill="#381033"/>
<path d="M161.729 188.998C159.082 191.487 154.902 190.992 152.597 190.214C150.291 189.435 149.138 187.725 149.138 187.725C149.138 187.725 149.145 187.635 149.164 187.538C151.09 188.291 153.402 188.741 156.029 188.779C160.145 188.844 161.575 183.113 164.318 178.012C172.42 150.502 172.672 132.074 173.67 116.76C174.668 101.445 168.872 89.6226 168.402 88.8379C167.931 88.0596 167.719 87.5 168.279 87.6544C170.398 88.4005 175.042 94.5624 175.042 94.5624C175.042 94.5624 171.989 89.0823 166.753 85.8791C162.914 83.5314 159.565 83.2227 157.897 83.1584C158.284 81.7176 158.425 80.9393 158.425 80.9393L177.83 72.8027C177.83 72.8027 178.12 74.2564 179.119 77.035C185.643 88.8636 186.486 99.0713 186.486 99.0713V174.327C186.486 174.327 170.559 174.327 169.876 174.327C169.252 174.95 168.943 174.822 168.691 175.105C167.056 184.386 164.376 186.502 161.729 188.998Z" fill="#2D0B28"/>
<path d="M52.5376 149.332L100.197 148.624C100.197 148.624 112.331 155.969 145.738 166.595C148.146 167.547 150.349 168.589 151.521 177.427C152.7 186.265 150.072 187.036 149.409 187.306C148.745 187.577 145.783 185.602 144.366 184.939C142.949 184.277 98.9928 160.247 97.0413 159.25C95.0898 158.253 93.4668 157.301 89.1904 158.253C84.9074 159.205 78.0934 161.405 76.348 161.488C74.6027 161.572 73.0634 160.826 72.5224 160.285C71.9814 159.745 68.4907 157.378 64.4203 155.558C62.3014 154.606 62.2627 154.271 61.8054 154.021C61.3482 153.77 57.0266 151.448 55.1589 150.952C53.2847 150.457 52.7051 150.123 52.5376 149.332Z" fill="#ECCDB0"/>
<path d="M52.5375 149.332L100.197 148.624C100.197 148.624 104.969 151.512 116.762 156.285C114.038 156.722 111.159 157.545 110.708 159.083C109.838 162.073 110.212 163.379 112.762 165.18C114.862 166.66 140.076 181.884 149.061 187.306C148.03 187.101 145.602 185.518 144.366 184.933C142.955 184.271 98.9926 160.24 97.0411 159.243C95.0897 158.246 93.4667 157.294 89.1902 158.246C84.9073 159.198 78.0933 161.398 76.3479 161.482C74.6025 161.565 73.0632 160.819 72.5222 160.279C71.9812 159.739 68.4905 157.372 64.4201 155.551C62.3012 154.599 62.2626 154.265 61.8053 154.014C61.348 153.763 57.0265 151.441 55.1587 150.946C53.2846 150.457 52.7049 150.123 52.5375 149.332Z" fill="#DDB99E"/>
<path opacity="0.2" d="M3.7576 71.233L50.2965 45.1445L91.9663 124.356L37.3769 142.944L3.7576 71.233Z" fill="url(#paint0_linear_1105:18906)"/>
<path d="M38.8582 149.543L112.408 148.669C114.089 148.649 115.474 147.337 115.584 145.665L115.757 143.034C115.796 142.429 115.313 141.921 114.708 141.928L41.2991 142.712C40.7195 142.719 40.1914 142.391 39.9338 141.87L4.52403 68.4927C4.21489 67.8495 3.39694 67.6501 2.82374 68.0682L0.621107 69.6762C0.0350242 70.1072 -0.164624 70.8919 0.144519 71.548L36.443 148.032C36.881 148.964 37.8277 149.556 38.8582 149.543Z" fill="#31302C"/>
<path d="M131.24 55.5518C131.24 55.5518 132.65 69.4129 130.074 80.6176C130.074 81.8654 129.643 82.0712 131.626 82.5665C133.61 83.0618 139.426 85.8855 150.767 81.2801C162.109 76.6747 158.122 65.1356 158.122 65.1356L148.236 53.3906L131.24 55.5518Z" fill="#E4B523"/>
<path d="M127.788 36.0235C127.788 36.0235 128.722 38.9501 129.469 39.7606C130.216 40.571 130.841 40.9698 130.841 42.1083C130.841 43.2468 131.652 48.2895 129.314 55.8858C128.844 57.4424 130.635 58.6837 132.689 59.1854C133.25 59.4556 135.201 60.5748 135.6 62.9611C135.703 63.8937 135.059 64.9936 137.346 66.0292C137.346 66.4472 136.496 68.7499 138.157 69.8884C139.819 71.0269 140.315 71.1941 141.719 74.0307C143.123 76.8608 143.181 77.5812 144.739 77.2081C146.298 76.8351 151.759 74.2815 155.308 71.297C158.857 68.3126 165.471 34.5635 164.975 34.1454C164.479 33.7273 149.937 25.2627 149.937 25.2627L134.647 30.6592L127.788 36.0235Z" fill="#ECCDB0"/>
<path d="M127.853 35.9786L134.647 30.6529L144.669 27.1152C149.905 28.7104 155.688 30.55 156.01 30.7301C156.59 31.0645 159.334 47.9937 159.334 47.9937L159.069 62.0092C157.723 66.7175 156.384 70.3902 155.321 71.2843C151.772 74.2752 146.311 76.8223 144.752 77.1954C144.527 77.2468 144.34 77.279 144.166 77.2854C152.049 74.0501 149.08 63.6944 146.408 54.22C144.044 45.8583 139.858 41.5102 137.146 39.0339C134.435 36.5575 130.925 37.606 128.638 38.2685C128.239 37.3551 127.91 36.371 127.82 36.1008C127.827 36.0622 127.84 36.0172 127.853 35.9786Z" fill="#DDB99E"/>
<path d="M132.245 57.8729C132.245 57.8729 135.427 57.4355 135.8 58.4325C135.8 59.2429 135.008 58.9921 134.737 58.8184C134.467 58.6447 133.604 57.9694 132.245 57.8729Z" fill="#DDB99E"/>
<path d="M135.594 63.7198C135.897 63.276 136.405 62.8644 137.23 63.0059C138.853 63.2889 142.092 63.7842 142.839 63.3146C143.586 62.8451 144.031 62.4463 144.031 62.4463C144.031 62.4463 141.339 69.2064 137.384 68.9877C136.83 67.8171 137.339 66.3506 137.339 66.0289C135.658 65.2635 135.568 64.466 135.594 63.7198Z" fill="#EE8F7C"/>
<path d="M132.309 42.777C132.309 42.777 132.058 42.1788 133.275 42.1016C134.493 42.0245 138.061 42.3718 138.995 42.777C138.685 42.9635 137.61 42.6998 136.534 42.6805C135.459 42.6677 133.295 42.777 132.979 43.0086C132.664 43.2465 132.309 43.015 132.309 42.777Z" fill="#130100"/>
<path d="M135.24 43.6968C135.24 43.6968 136.296 44.7067 135.755 45.0797C135.317 45.382 134.551 44.5201 134.448 44.3851C134.345 44.25 133.597 43.3752 133.887 43.1051C134.254 42.7642 134.989 43.4267 135.24 43.6968Z" fill="#140200"/>
<path d="M144.037 2.84766C144.037 2.84766 129.411 2.84766 125.669 17.9502C121.927 33.0527 124.671 38.4492 124.922 38.5328C125.173 38.6164 124.838 39.4461 128.161 37.7031C131.485 35.96 137.758 33.5351 140.656 36.7061C143.554 39.8771 151.508 47.5763 151.263 65.4253C150.806 73.5168 149.396 82.0265 149.557 82.9784C149.724 83.9303 149.473 84.387 151.508 84.1426C153.543 83.8918 169.915 81.7177 185.997 66.5895C186.577 65.9463 186.808 65.0972 186.866 62.235C186.931 59.3727 186.866 37.9603 186.866 37.9603C186.866 37.9603 187.491 13.6214 169.599 3.66453C157.704 -4.06039 144.037 2.84766 144.037 2.84766Z" fill="#F4C430"/>
<path d="M169.612 3.65772C187.497 13.6146 186.879 37.9535 186.879 37.9535C186.879 37.9535 186.944 59.3659 186.879 62.2282C186.815 65.0904 186.589 65.9395 186.01 66.5827C185.372 67.1809 184.741 67.7533 184.103 68.3065C183.749 36.0432 175.982 18.117 169.31 9.14428C160.956 -2.07968 144.044 2.83441 144.044 2.83441C144.044 2.83441 157.704 -4.06077 169.612 3.65772Z" fill="#E4B523"/>
<defs>
<linearGradient id="paint0_linear_1105:18906" x1="24.7869" y1="109" x2="71.3229" y2="85.451" gradientUnits="userSpaceOnUse">
<stop stop-color="#3B6CF4"/>
<stop offset="1" stop-color="#6050DC" stop-opacity="0"/>
</linearGradient>
</defs>
</svg>
