<svg width="325" height="211" viewBox="0 0 325 211" fill="none" xmlns="http://www.w3.org/2000/svg">
<path d="M311.971 117.954V77.5531C311.971 70.2785 306.116 64.3933 298.907 64.3933H205.328L189.694 54.1508H146.729C139.357 54.1508 133.452 60.2887 133.665 67.7021L135.132 117.954H311.971V117.954Z" fill="#BCDAEF"/>
<path d="M261.836 100.072L193.79 102.194L191.253 13.2928L241.774 11.7192L259.78 28.1135L261.836 100.072Z" fill="white"/>
<path opacity="0.8" d="M261.836 100.072L193.79 102.194L191.253 13.2928L241.774 11.7192L259.78 28.1135L261.836 100.072Z" fill="white"/>
<path d="M237.593 9.93786L255.135 26.069L237.816 26.9211L237.593 9.93786Z" fill="white"/>
<path d="M199.003 31.7792L234.596 29.0193L234.831 26.7265L199.238 29.4863L199.003 31.7792Z" fill="#DADADA"/>
<path d="M199.344 37.4815L234.937 34.7216L235.171 32.4288L199.579 35.1887L199.344 37.4815Z" fill="#DADADA"/>
<path d="M199.698 43.1879L235.29 40.4279L235.525 38.135L199.932 40.8951L199.698 43.1879Z" fill="#DADADA"/>
<path d="M200.039 48.8908L252.136 44.6772L252.377 42.3794L200.28 46.593L200.039 48.8908Z" fill="#DADADA"/>
<path d="M200.378 54.5935L252.476 50.3798L252.717 48.082L200.62 52.2957L200.378 54.5935Z" fill="#DADADA"/>
<path d="M200.727 60.3007L252.824 56.087L253.066 53.7891L200.968 58.0029L200.727 60.3007Z" fill="#DADADA"/>
<path d="M201.076 66.0085L253.173 61.7947L253.414 59.4969L201.317 63.7107L201.076 66.0085Z" fill="#DADADA"/>
<path d="M201.416 71.7104L253.514 67.4967L253.755 65.1989L201.658 69.4126L201.416 71.7104Z" fill="#DADADA"/>
<path d="M201.76 77.4206L253.857 73.207L254.099 70.9092L202.001 75.1228L201.76 77.4206Z" fill="#DADADA"/>
<path d="M202.098 83.1214L254.195 78.9078L254.437 76.61L202.339 80.8237L202.098 83.1214Z" fill="#DADADA"/>
<path d="M202.448 88.8242L254.545 84.6103L254.786 82.3125L202.689 86.5264L202.448 88.8242Z" fill="#DADADA"/>
<path d="M202.793 94.5362L254.891 90.3225L255.132 88.0247L203.035 92.2384L202.793 94.5362Z" fill="#DADADA"/>
<mask id="mask0_3050_20272" style="mask-type:alpha" maskUnits="userSpaceOnUse" x="139" y="8" width="78" height="101">
<rect x="139" y="21.4702" width="58.4043" height="89.9426" rx="2" transform="rotate(-13.4831 139 21.4702)" fill="#E7CDB8"/>
</mask>
<g mask="url(#mask0_3050_20272)">
<path d="M193.522 8.39736L195.794 7.85266L196.611 11.2603L139.816 24.8778L138.999 21.4701L193.522 8.39736Z" fill="#EDEDED"/>
<path d="M139 21.4702L143.225 24.0608L163.379 108.117L159.971 108.934L159.426 106.662L139 21.4702Z" fill="#DADADA"/>
</g>
<rect x="141.816" y="23.1973" width="56.0681" height="87.6065" rx="1" transform="rotate(-13.4831 141.816 23.1973)" fill="#FEFEFE"/>
<rect x="149.946" y="32.0583" width="44.3873" height="1.571" rx="0.785502" transform="rotate(-13.4831 149.946 32.0583)" fill="#DADADA"/>
<rect x="154.305" y="50.2328" width="44.3873" height="1.571" rx="0.785502" transform="rotate(-13.4831 154.305 50.2328)" fill="#DADADA"/>
<rect x="158.662" y="68.4071" width="44.3873" height="1.571" rx="0.785502" transform="rotate(-13.4831 158.662 68.4071)" fill="#DADADA"/>
<rect x="150.763" y="35.4663" width="44.3873" height="1.571" rx="0.785502" transform="rotate(-13.4831 150.763 35.4663)" fill="#DADADA"/>
<rect x="155.12" y="53.6404" width="44.3873" height="1.571" rx="0.785502" transform="rotate(-13.4831 155.12 53.6404)" fill="#DADADA"/>
<rect x="159.479" y="71.8147" width="44.3873" height="1.571" rx="0.785502" transform="rotate(-13.4831 159.479 71.8147)" fill="#DADADA"/>
<rect x="151.583" y="38.8738" width="44.3873" height="1.571" rx="0.785502" transform="rotate(-13.4831 151.583 38.8738)" fill="#DADADA"/>
<rect x="155.938" y="57.0483" width="44.3873" height="1.571" rx="0.785502" transform="rotate(-13.4831 155.938 57.0483)" fill="#DADADA"/>
<rect x="160.297" y="75.2223" width="44.3873" height="1.571" rx="0.785502" transform="rotate(-13.4831 160.297 75.2223)" fill="#DADADA"/>
<path d="M167.54 94.0275L186.078 76.0331L186.192 76.4672L167.65 94.4624L167.54 94.0275Z" fill="#31302C"/>
<path d="M168.809 87.8988C169.558 87.0643 170.303 85.775 169.821 84.556C169.528 83.818 168.858 83.6637 168.248 84.0836C167.053 84.9131 166.734 87.17 166.586 88.5237C166.457 89.7069 166.463 91.8814 168.132 91.8679C170.098 91.8551 170.821 88.7057 170.866 87.1413C170.873 86.9226 170.521 86.8835 170.478 87.089C170.395 87.4613 169.858 89.9127 170.992 89.3652C171.396 89.1711 171.471 88.4258 171.535 88.041C171.653 87.35 171.568 86.4453 171.86 85.8083C171.743 85.7839 171.624 85.7554 171.507 85.731C171.673 86.3064 171.769 86.7019 172.241 87.0713C172.318 87.1305 172.46 87.1536 172.518 87.0594C172.984 86.3275 172.784 85.3555 173.326 84.6658C173.221 84.6428 173.12 84.6189 173.015 84.5918C173.054 84.7788 173.117 85.3222 173.164 85.5714C173.185 85.6899 173.363 85.7261 173.445 85.6735C173.645 85.5384 173.694 85.4849 173.743 85.2395C173.636 85.2254 173.526 85.2122 173.418 85.1941C174.034 86.5529 174.85 84.877 175.113 84.2381C175.889 82.3542 176.271 80.4449 175.78 78.3723C175.742 78.2063 175.417 78.1908 175.464 78.393C175.837 79.9856 175.535 81.5916 175.48 83.1837C175.422 84.9086 175.456 86.6382 175.568 88.3671C175.671 88.382 175.772 88.393 175.871 88.4088C175.599 87.2189 175.725 86.0065 175.87 84.8237C175.993 83.8251 176.155 82.7876 176.699 81.9441C176.606 81.9314 176.511 81.9147 176.417 81.902C176.815 82.6799 176.706 83.633 176.386 84.3871C176.332 84.5144 176.566 84.6741 176.621 84.5508C176.909 83.8977 177.569 83.5602 177.893 82.9161C178.226 82.2483 178.334 81.4531 178.557 80.7382C178.478 80.7179 178.399 80.6976 178.319 80.6773C178.634 82.0364 179.335 79.6457 179.446 79.3821C179.373 79.369 179.296 79.3608 179.223 79.3476C179.375 79.6069 179.535 79.7664 179.84 79.7013C180.445 79.568 180.439 78.6026 180.869 78.3943C180.872 78.3934 181.116 78.5254 181.183 78.5143C181.466 78.4756 181.659 78.4103 181.876 78.2077C182.315 77.7928 182.572 77.1468 182.72 76.5596C182.757 76.4148 182.479 76.3078 182.433 76.4673C182.269 77.0581 181.682 78.6607 180.832 78.1344C180.783 78.103 180.68 78.088 180.651 78.1542C180.527 78.4293 179.793 79.9078 179.432 79.2958C179.389 79.2206 179.253 79.1577 179.209 79.2613C179.105 79.5151 179.037 79.7859 178.951 80.0482C178.901 80.1916 178.642 81.0893 178.559 80.6823C178.539 80.5847 178.359 80.5066 178.322 80.6214C178.067 81.3904 177.979 82.3471 177.525 83.0253C177.188 83.5321 176.646 83.8171 176.39 84.3862C176.47 84.4405 176.546 84.4956 176.625 84.5499C176.981 83.7239 177.129 82.698 176.694 81.8431C176.639 81.7365 176.481 81.7 176.412 81.8009C175.859 82.6591 175.692 83.7274 175.57 84.743C175.423 85.9518 175.294 87.186 175.572 88.4002C175.6 88.5259 175.889 88.6092 175.875 88.4419C175.758 86.578 175.726 84.7076 175.817 82.8517C175.891 81.3531 176.13 79.8722 175.781 78.3763C175.675 78.3832 175.57 78.3901 175.465 78.3971C175.85 80.017 175.707 81.4716 175.201 83.0087C175.068 83.4095 174.927 83.8121 174.766 84.2021C174.694 84.3759 174.058 85.9001 173.741 85.1675C173.694 85.0632 173.449 84.9572 173.417 85.1221C173.344 85.2279 173.272 85.3337 173.201 85.4436C173.296 85.4773 173.391 85.5111 173.483 85.5457C173.42 85.2151 173.403 84.8909 173.333 84.5621C173.304 84.4324 173.094 84.3993 173.021 84.4881C172.469 85.1885 172.666 86.1614 172.192 86.8951C172.286 86.8908 172.376 86.8874 172.47 86.8831C172.158 86.5453 171.958 86.1648 171.871 85.7376C171.831 85.5976 171.59 85.5077 171.518 85.6604C171.191 86.3564 171.28 87.3282 171.142 88.0835C171.065 88.497 170.694 89.6373 170.639 88.5216C170.616 88.0712 170.772 87.5802 170.869 87.1493C170.74 87.1316 170.609 87.1148 170.48 87.0971C170.438 88.4608 169.952 90.6279 168.721 91.3465C167.148 92.262 166.891 90.0083 166.957 88.9671C167.037 87.7654 167.325 86.5417 167.789 85.4481C167.88 85.2359 167.972 85.0148 168.097 84.8246C168.361 84.4196 168.451 84.3353 169.002 84.4912C169.579 84.6578 169.621 84.8229 169.624 85.3886C169.625 85.6694 169.575 85.9617 169.497 86.2222C169.331 86.7879 169.016 87.2853 168.672 87.7469C168.619 87.8144 168.752 87.9671 168.809 87.8988Z" fill="#31302C"/>
<mask id="mask1_3050_20272" style="mask-type:alpha" maskUnits="userSpaceOnUse" x="242" y="17" width="83" height="103">
<rect x="269.307" y="16.8526" width="58.4043" height="89.9426" rx="2" transform="rotate(17.6738 269.307 16.8526)" fill="#E7CDB8"/>
</mask>
<g mask="url(#mask1_3050_20272)">
<path d="M322.727 33.8742L324.953 34.5834L323.889 37.9223L268.242 20.1909L269.305 16.852L322.727 33.8742Z" fill="#EDEDED"/>
<path d="M269.307 16.8526L271.582 21.2554L245.339 103.614L242 102.55L242.71 100.324L269.307 16.8526Z" fill="#DADADA"/>
</g>
<rect x="270.823" y="19.7879" width="56.0681" height="87.6065" rx="1" transform="rotate(17.6738 270.823 19.7879)" fill="#FEFEFE"/>
<rect x="273.195" y="31.5766" width="44.3873" height="1.571" rx="0.785502" transform="rotate(17.6738 273.195 31.5766)" fill="#DADADA"/>
<rect x="267.521" y="49.3845" width="44.3873" height="1.571" rx="0.785502" transform="rotate(17.6738 267.521 49.3845)" fill="#DADADA"/>
<rect x="261.848" y="67.1919" width="44.3873" height="1.571" rx="0.785502" transform="rotate(17.6738 261.848 67.1919)" fill="#DADADA"/>
<rect x="272.131" y="34.9157" width="44.3873" height="1.571" rx="0.785502" transform="rotate(17.6738 272.131 34.9157)" fill="#DADADA"/>
<rect x="266.456" y="52.7226" width="44.3873" height="1.571" rx="0.785502" transform="rotate(17.6738 266.456 52.7226)" fill="#DADADA"/>
<rect x="260.784" y="70.5308" width="44.3873" height="1.571" rx="0.785502" transform="rotate(17.6738 260.784 70.5308)" fill="#DADADA"/>
<rect x="271.069" y="38.2559" width="44.3873" height="1.571" rx="0.785502" transform="rotate(17.6738 271.069 38.2559)" fill="#DADADA"/>
<rect x="265.395" y="56.0626" width="44.3873" height="1.571" rx="0.785502" transform="rotate(17.6738 265.395 56.0626)" fill="#DADADA"/>
<rect x="259.721" y="73.8698" width="44.3873" height="1.571" rx="0.785502" transform="rotate(17.6738 259.721 73.8698)" fill="#DADADA"/>
<path d="M256.19 93.7097L281.364 87.9022L281.237 88.3326L256.059 94.1388L256.19 93.7097Z" fill="#31302C"/>
<path d="M260.447 89.1218C261.52 88.7951 262.824 88.0772 263.043 86.785C263.173 86.0015 262.68 85.5231 261.941 85.5666C260.489 85.6582 259.048 87.4245 258.221 88.5064C257.499 89.4521 256.379 91.3161 257.814 92.1682C259.503 93.1743 261.752 90.8536 262.6 89.5382C262.718 89.3544 262.438 89.1388 262.295 89.2927C262.031 89.5683 260.303 91.3879 261.557 91.5063C262.003 91.5493 262.453 90.9504 262.706 90.6539C263.164 90.1234 263.56 89.3054 264.14 88.9114C264.052 88.8298 263.965 88.7442 263.877 88.6626C263.722 89.2409 263.599 89.629 263.812 90.1895C263.847 90.2799 263.957 90.373 264.056 90.3227C264.833 89.9374 265.164 89.0018 265.985 88.6922C265.908 88.6184 265.834 88.5458 265.757 88.4679C265.694 88.6481 265.467 89.1459 265.378 89.3832C265.335 89.4959 265.469 89.6189 265.566 89.6161C265.807 89.6043 265.876 89.5834 266.045 89.3989C265.961 89.3317 265.874 89.2633 265.791 89.1921C265.615 90.6734 267.18 89.6615 267.736 89.2507C269.374 88.04 270.689 86.6038 271.341 84.576C271.395 84.4144 271.124 84.2329 271.06 84.4302C270.556 85.9866 269.466 87.2044 268.596 88.5386C267.654 89.9847 266.788 91.4822 265.989 93.0195C266.069 93.0855 266.15 93.1474 266.226 93.2121C266.609 92.053 267.344 91.0806 268.081 90.1439C268.702 89.3526 269.378 88.5485 270.28 88.1085C270.206 88.0491 270.134 87.9857 270.06 87.9262C269.999 88.7982 269.412 89.5574 268.748 90.037C268.636 90.1179 268.754 90.3756 268.865 90.2987C269.449 89.8888 270.189 89.9416 270.798 89.5577C271.43 89.1589 271.933 88.5341 272.494 88.0377C272.437 87.9793 272.379 87.9209 272.322 87.8625C271.888 89.1885 273.725 87.5054 273.956 87.337C273.9 87.2879 273.839 87.2414 273.783 87.1922C273.779 87.4927 273.833 87.7119 274.128 87.8139C274.714 88.0128 275.209 87.184 275.685 87.2278C275.688 87.229 275.828 87.4679 275.892 87.4933C276.154 87.6064 276.353 87.6507 276.643 87.5894C277.233 87.4614 277.787 87.0414 278.218 86.6155C278.325 86.511 278.142 86.2754 278.02 86.3881C277.574 86.8089 276.243 87.8764 275.788 86.9863C275.762 86.934 275.682 86.8681 275.623 86.9099C275.374 87.0812 273.981 87.9665 273.989 87.2561C273.991 87.1692 273.907 87.0453 273.816 87.1113C273.595 87.2743 273.397 87.4711 273.188 87.651C273.071 87.7478 272.385 88.382 272.525 87.991C272.558 87.897 272.444 87.7367 272.353 87.8159C271.737 88.3423 271.167 89.1156 270.427 89.4608C269.876 89.7199 269.265 89.6836 268.752 90.0383C268.792 90.1259 268.828 90.2123 268.868 90.3C269.6 89.7771 270.258 88.9759 270.328 88.0195C270.336 87.8995 270.22 87.7867 270.108 87.8372C269.191 88.2853 268.496 89.1134 267.866 89.9193C267.114 90.8774 266.365 91.8671 265.975 93.05C265.934 93.1719 266.138 93.3927 266.213 93.2426C267.077 91.587 268.017 89.9696 269.055 88.4285C269.894 87.1844 270.865 86.041 271.34 84.58C271.246 84.5314 271.152 84.4828 271.059 84.4342C270.55 86.0196 269.675 87.1905 268.447 88.2445C268.126 88.5184 267.797 88.7899 267.457 89.0404C267.306 89.1521 265.973 90.1274 266.081 89.3364C266.095 89.2228 265.94 89.0053 265.827 89.1296C265.71 89.1829 265.594 89.2361 265.476 89.2933C265.54 89.3714 265.604 89.4494 265.664 89.5262C265.781 89.2107 265.935 88.925 266.045 88.607C266.087 88.4811 265.924 88.344 265.817 88.3826C264.982 88.6964 264.647 89.6307 263.862 90.0135C263.944 90.0583 264.023 90.1018 264.105 90.1466C264.013 89.6961 264.039 89.2675 264.186 88.8567C264.224 88.7164 264.064 88.5147 263.923 88.6078C263.284 89.0344 262.857 89.9122 262.348 90.487C262.068 90.8011 261.161 91.5851 261.691 90.6015C261.904 90.2042 262.291 89.8646 262.597 89.5461C262.497 89.4647 262.393 89.382 262.292 89.3006C261.55 90.4457 260.013 92.0488 258.588 92.0267C256.768 91.9964 257.715 89.9349 258.31 89.0782C258.999 88.0907 259.879 87.1925 260.843 86.4972C261.03 86.3625 261.223 86.221 261.429 86.1229C261.864 85.913 261.985 85.8874 262.375 86.3055C262.783 86.747 262.733 86.9098 262.443 87.3954C262.299 87.6362 262.105 87.8607 261.903 88.0431C261.469 88.4414 260.942 88.7041 260.408 88.9208C260.328 88.9511 260.363 89.1508 260.447 89.1218Z" fill="#31302C"/>
<path d="M128.373 105.49L140.677 200.174C141.242 204.522 145.063 207.79 149.587 207.79H297.218C301.717 207.79 305.525 204.56 306.116 200.237L319.098 105.553C319.815 100.337 315.63 95.7125 310.2 95.7125H137.283C131.879 95.6999 127.694 100.287 128.373 105.49Z" fill="#DAEEF9"/>
<path d="M128.072 108.104L140.376 202.788C140.941 207.136 144.762 210.404 149.286 210.404H296.917C301.416 210.404 305.224 207.174 305.815 202.851L318.797 108.167C319.514 102.951 315.329 98.3264 309.9 98.3264H136.983C131.579 98.3138 127.394 102.914 128.072 108.104Z" fill="#8EBDDB"/>
<path d="M206.68 159.853V143.053H211.432V159.853H206.68ZM220.261 160.069C219.077 160.069 217.997 159.797 217.021 159.253C216.061 158.693 215.293 157.917 214.717 156.925C214.141 155.917 213.853 154.717 213.853 153.325C213.853 151.949 214.141 150.765 214.717 149.773C215.293 148.765 216.061 147.989 217.021 147.445C217.997 146.901 219.077 146.629 220.261 146.629C221.381 146.629 222.325 146.869 223.093 147.349C223.877 147.829 224.469 148.565 224.869 149.557C225.269 150.549 225.469 151.805 225.469 153.325C225.469 154.877 225.277 156.149 224.893 157.141C224.509 158.133 223.933 158.869 223.165 159.349C222.397 159.829 221.429 160.069 220.261 160.069ZM221.221 156.445C221.733 156.445 222.189 156.325 222.589 156.085C223.005 155.845 223.333 155.493 223.573 155.029C223.813 154.549 223.933 153.981 223.933 153.325C223.933 152.669 223.813 152.117 223.573 151.669C223.333 151.205 223.005 150.853 222.589 150.613C222.189 150.373 221.733 150.253 221.221 150.253C220.693 150.253 220.221 150.373 219.805 150.613C219.405 150.853 219.085 151.205 218.845 151.669C218.605 152.117 218.485 152.669 218.485 153.325C218.485 153.981 218.605 154.549 218.845 155.029C219.085 155.493 219.405 155.845 219.805 156.085C220.221 156.325 220.693 156.445 221.221 156.445ZM224.077 159.853V157.621L224.101 153.325L223.861 149.029V142.045H228.421V159.853H224.077ZM238.171 160.069C236.635 160.069 235.291 159.781 234.139 159.205C233.003 158.613 232.115 157.813 231.475 156.805C230.851 155.781 230.539 154.621 230.539 153.325C230.539 152.029 230.843 150.877 231.451 149.869C232.075 148.845 232.931 148.053 234.019 147.493C235.107 146.917 236.331 146.629 237.691 146.629C238.971 146.629 240.139 146.893 241.195 147.421C242.251 147.933 243.091 148.693 243.715 149.701C244.339 150.709 244.651 151.933 244.651 153.373C244.651 153.533 244.643 153.717 244.627 153.925C244.611 154.133 244.595 154.325 244.579 154.501H234.283V152.101H242.155L240.427 152.773C240.443 152.181 240.331 151.669 240.091 151.237C239.867 150.805 239.547 150.469 239.131 150.229C238.731 149.989 238.259 149.869 237.715 149.869C237.171 149.869 236.691 149.989 236.275 150.229C235.875 150.469 235.563 150.813 235.339 151.261C235.115 151.693 235.003 152.205 235.003 152.797V153.493C235.003 154.133 235.131 154.685 235.387 155.149C235.659 155.613 236.043 155.973 236.539 156.229C237.035 156.469 237.627 156.589 238.315 156.589C238.955 156.589 239.499 156.501 239.947 156.325C240.411 156.133 240.867 155.845 241.315 155.461L243.715 157.957C243.091 158.645 242.323 159.173 241.411 159.541C240.499 159.893 239.419 160.069 238.171 160.069ZM255.225 146.629C256.233 146.629 257.145 146.837 257.961 147.253C258.777 147.653 259.417 148.277 259.881 149.125C260.361 149.973 260.601 151.069 260.601 152.413V159.853H256.041V153.157C256.041 152.229 255.849 151.557 255.465 151.141C255.097 150.709 254.577 150.493 253.905 150.493C253.425 150.493 252.985 150.605 252.585 150.829C252.185 151.037 251.873 151.365 251.649 151.813C251.425 152.261 251.313 152.845 251.313 153.565V159.853H246.753V146.845H251.097V150.541L250.257 149.461C250.753 148.517 251.433 147.813 252.297 147.349C253.161 146.869 254.137 146.629 255.225 146.629ZM269.272 160.069C267.608 160.069 266.312 159.661 265.384 158.845C264.456 158.013 263.992 156.765 263.992 155.101V143.941H268.552V155.053C268.552 155.517 268.68 155.885 268.936 156.157C269.192 156.413 269.52 156.541 269.92 156.541C270.464 156.541 270.928 156.405 271.312 156.133L272.44 159.325C272.056 159.581 271.584 159.765 271.024 159.877C270.464 160.005 269.88 160.069 269.272 160.069ZM262.096 150.733V147.325H271.528V150.733H262.096ZM274.198 159.853V146.845H278.758V159.853H274.198ZM276.478 145.405C275.646 145.405 274.974 145.173 274.462 144.709C273.95 144.245 273.694 143.669 273.694 142.981C273.694 142.293 273.95 141.717 274.462 141.253C274.974 140.789 275.646 140.557 276.478 140.557C277.31 140.557 277.982 140.781 278.494 141.229C279.006 141.661 279.262 142.221 279.262 142.909C279.262 143.629 279.006 144.229 278.494 144.709C277.998 145.173 277.326 145.405 276.478 145.405ZM287.53 160.069C285.866 160.069 284.57 159.661 283.642 158.845C282.714 158.013 282.25 156.765 282.25 155.101V143.941H286.81V155.053C286.81 155.517 286.938 155.885 287.194 156.157C287.45 156.413 287.778 156.541 288.178 156.541C288.722 156.541 289.186 156.405 289.57 156.133L290.698 159.325C290.314 159.581 289.842 159.765 289.282 159.877C288.722 160.005 288.138 160.069 287.53 160.069ZM280.354 150.733V147.325H289.786V150.733H280.354ZM294.454 164.725C293.766 164.725 293.07 164.613 292.366 164.389C291.678 164.181 291.118 163.901 290.686 163.549L292.27 160.357C292.542 160.597 292.854 160.781 293.206 160.909C293.574 161.053 293.934 161.125 294.286 161.125C294.782 161.125 295.174 161.013 295.462 160.789C295.75 160.565 295.998 160.213 296.206 159.733L296.806 158.221L297.166 157.765L301.582 146.845H305.926L300.31 160.381C299.862 161.501 299.342 162.373 298.75 162.997C298.174 163.637 297.526 164.085 296.806 164.341C296.102 164.597 295.318 164.725 294.454 164.725ZM296.23 160.405L290.494 146.845H295.174L299.398 157.357L296.23 160.405Z" fill="white"/>
<path d="M144.507 132.831C143.636 133.256 143.089 134.154 143.089 135.128V148.434C143.089 168.106 153.512 178.167 169.185 187.803C170.006 188.302 171.051 188.302 171.872 187.803C187.544 178.167 197.968 168.131 197.968 148.434V135.128C197.968 134.154 197.421 133.256 196.55 132.831L171.673 120.349C170.951 120 170.105 120 169.384 120.349L144.507 132.831Z" fill="#E6007A" stroke="#E6007A" stroke-width="2" stroke-miterlimit="10"/>
<path d="M149.584 137.008C148.883 137.349 148.442 138.072 148.442 138.854V149.551C148.442 165.366 156.832 173.454 169.447 181.201C170.107 181.602 170.948 181.602 171.609 181.201C184.224 173.454 192.613 165.386 192.613 149.551V138.854C192.613 138.072 192.173 137.349 191.472 137.008L171.449 126.973C170.868 126.692 170.187 126.692 169.607 126.973L149.584 137.008Z" fill="#8EBDDB" stroke="#E6007A" stroke-width="2" stroke-miterlimit="10"/>
<path d="M160.489 152.104L167.629 160.569C168.028 161.043 168.758 161.043 169.158 160.569L181.905 145.454" stroke="#E6007A" stroke-width="4" stroke-miterlimit="10" stroke-linecap="round"/>
<path d="M109.225 190.543C109.225 190.543 115.588 189.666 117.249 189.182C118.909 188.699 121.099 187.777 121.814 190.681C122.528 193.585 121.301 195.836 120.661 196.813C120.02 197.79 117.825 201.24 108.741 201.609C108.741 201.609 105.563 201.609 101.856 200.909C101.072 200.761 100.279 200.699 99.4832 200.742C98.5874 200.792 97.3319 200.897 95.9691 201.125C93.3413 201.564 88.7766 202.786 85.4103 198.381C82.0439 193.978 85.203 190.588 85.203 190.588L109.225 190.543Z" fill="#E7CDB8"/>
<path d="M39.6411 201.376C39.6411 201.376 42.5501 204.399 44.7395 206.174C44.7395 206.174 46.0546 207.234 43.6793 208.594C41.3041 209.955 36.625 210.97 33.5112 208.48C30.3997 205.99 28.4152 204.261 26.5259 200.894C24.6367 197.528 21.499 194.855 21.499 194.855C21.499 194.855 16.9105 191.927 17.4632 188.537C18.0183 185.147 22.6283 183.465 22.6283 183.465L39.6411 201.376Z" fill="#E7CDB8"/>
<path d="M51.7478 75.8481C51.7478 75.8481 50.3636 69.1773 50.4112 65.7181C50.4589 62.2588 51.45 55.8691 44.4981 56.3671L38.6516 53.7416L20.9455 54.3301C20.9455 54.3301 13.0287 51.6332 10.7154 57.7918C8.40204 63.9527 2.80812 76.9536 0.101693 103.329C0.101693 103.329 -0.636857 113.536 2.00763 114.15C4.65211 114.765 5.32872 115.625 12.0281 111.692C12.0281 111.692 10.7988 113.736 10.8297 115.942C10.8607 118.148 54.1421 114.551 54.1421 114.551L51.7478 75.8481ZM14.7345 97.1207L10.0006 100.378C12.8905 96.6895 14.2437 89.8639 14.2437 89.8639C15.2277 93.7377 14.7345 97.1207 14.7345 97.1207Z" fill="#E7CDB8"/>
<path d="M27.8623 99.2173C27.8623 99.2173 27.9552 103.806 28.3245 105.443C28.6938 107.079 28.8558 105.328 28.8558 105.328L28.2554 99.2173H27.8623Z" fill="#E7CDB8"/>
<path d="M25.1246 108.678C19.9595 105.173 19.8975 93.9426 19.8975 93.9426C19.8975 93.9426 22.3562 87.036 18.7897 81.6255C15.2232 76.215 17.8677 70.3876 17.8677 70.3876C16.2072 73.6587 15.1327 80.9799 13.5651 89.0038C11.9974 97.0278 8.46192 101.714 8.73828 101.5C9.01464 101.285 14.7324 97.1184 14.7324 97.1184L10.001 100.378C12.8908 96.6895 14.244 89.8639 14.244 89.8639C15.228 93.7377 14.7348 97.1184 14.7348 97.1184L19.7832 93.9902L18.7301 101.607L13.3197 106.572C13.3197 106.572 -0.698489 122.265 1.45284 99.0862C3.60416 75.9077 8.52386 66.4852 10.0605 63.4119C11.5972 60.3386 13.334 60.1075 13.334 60.1075C13.334 60.1075 14.4418 59.9074 15.3161 60.7841C16.1929 61.6608 18.3895 62.9044 18.3895 62.9044C18.3895 62.9044 19.6498 63.643 23.2472 63.7645C26.8447 63.8884 29.0889 60.7603 29.2795 60.4529C29.4725 60.1456 29.5106 60.2695 29.5106 60.2695C29.5106 60.2695 29.4963 60.3386 29.694 60.553C30.1324 61.1534 30.8543 60.1527 30.8543 60.1527L32.3147 58.6923C32.3147 58.6923 32.8055 63.6406 33.1128 68.0386C33.4202 72.4341 33.4202 74.3091 33.1509 77.9995C32.8817 81.6874 30.6542 86.3927 29.6392 89.1277C28.6243 91.8628 28.6863 93.2922 28.6863 93.2922L30.2086 94.1213L34.1301 80.1484L34.9115 68.4364L35.0497 58.4541L36.2957 59.7692C36.2957 59.7692 36.7794 60.2766 37.3178 60.1385C38.2708 59.7692 40.6746 56.1026 40.6746 56.1026L41.1988 54.8852L32.622 56.6172C32.622 56.6172 26.9733 55.4689 21.2817 54.3158L20.9386 54.3277C20.9386 54.3277 13.0219 51.6308 10.7085 57.7894C8.39521 63.9503 2.80129 76.9512 0.0948574 103.327C0.0948574 103.327 -0.643693 113.533 2.00079 114.148C4.64528 114.763 5.32189 115.623 12.0213 111.689C12.0213 111.689 10.7919 113.733 10.8229 115.939C10.8253 116.192 11.3947 116.368 12.3953 116.483C18.9755 114.508 28.6291 111.056 25.1246 108.678Z" fill="#E7CDB8"/>
<path d="M37.7305 53.2223C37.7305 53.2223 35.279 56.1002 28.8775 55.1902C28.8775 55.1902 27.2789 55.0067 27.6481 55.9287C28.0174 56.8507 29.616 59.986 29.616 59.986C29.616 59.986 29.8924 61.0009 30.6 60.1694C31.3075 59.3403 32.3987 58.2778 32.5202 58.2778C32.6441 58.2778 32.6608 58.5994 32.6608 58.5994C32.6608 58.5994 32.9657 64.9319 33.304 67.5454C33.6423 70.1589 34.4714 75.2621 32.9038 80.7035C31.3361 86.1449 26.2473 93.5233 28.6464 106.019H31.4124C31.4124 106.019 29.8042 97.6425 32.6608 89.8639C35.5173 82.0853 37.3589 80.8941 36.2082 67.3762L35.1933 57.8323C35.1933 57.8323 35.1814 57.6941 35.4363 58.0276C35.6912 58.3612 36.5322 59.2951 36.6704 59.5381C36.8085 59.7811 37.1659 60.0908 37.6615 59.5619C38.157 59.0306 39.7294 57.8013 40.5585 55.4975C41.3876 53.1913 37.7305 53.2223 37.7305 53.2223Z" fill="#FFECDD"/>
<path d="M30.2012 69.4871C30.2012 69.4871 30.9064 69.58 30.8016 70.2471C30.6968 70.9166 30.6158 71.7742 30.6158 71.7742C30.6158 71.7742 30.6515 72.1149 29.9368 71.9315C29.2339 71.7504 25.9939 70.8213 21.1885 71.0976C21.067 71.1048 20.9455 71.1262 20.8264 71.15C20.7001 71.1739 20.5429 71.1667 20.6453 70.9285C20.8073 70.5592 21.3362 69.0368 21.3362 69.0368C21.3362 69.0368 21.1981 68.8415 22.0271 68.7938C22.8586 68.7509 27.8379 68.9463 30.2012 69.4871Z" fill="#FFECDD"/>
<path d="M42.664 67.6193C42.664 67.6193 45.3276 67.3882 45.8565 67.4358C46.3878 67.4811 46.4569 67.7479 46.5021 67.9075C46.5474 68.0672 46.8238 69.0368 46.8238 69.0368C46.8238 69.0368 47.0763 69.5085 46.3616 69.5204C45.6468 69.5323 43.0405 69.5443 40.1482 70.6735C40.1482 70.6735 39.7789 70.9618 39.6527 70.3281C39.5264 69.6943 39.5836 69.4418 39.4573 69.0844C39.4573 69.0844 39.0499 68.5151 39.7718 68.3316C40.4937 68.1482 41.3347 67.786 42.664 67.6193Z" fill="#FFECDD"/>
<path d="M26.7473 92.6562C26.7473 92.6562 31.2739 92.6705 35.0548 92.3226C38.8357 91.9772 39.7815 93.4757 39.7815 93.4757C39.7815 93.4757 41.311 94.7479 42.2402 98.0428C43.1693 101.338 39.3884 106.572 39.3884 106.572L33.2084 105.557L32.4484 104.935C32.4484 104.935 32.0601 104.278 31.0904 103.441C30.1208 102.605 28.1958 100.906 27.5907 99.5771C27.5907 99.5771 27.5025 99.4675 26.7473 99.4699C25.9921 99.4699 24.6555 99.6271 24.4721 99.4222C24.2886 99.2174 23.8264 95.7819 23.9408 95.5294C24.0575 95.2768 23.4238 92.7086 26.7473 92.6562Z" fill="#9B6348"/>
<path d="M32.5652 102.069C32.0125 101.361 31.243 101.116 31.243 101.116C31.243 101.116 28.0458 99.4246 27.0761 95.982C26.5806 94.219 26.9094 93.216 27.3501 92.6537C26.9666 92.6561 26.7474 92.6561 26.7474 92.6561C23.4239 92.7085 24.0576 95.2744 23.9409 95.5293C23.8265 95.7819 24.2863 99.2173 24.4722 99.4222C24.6556 99.6271 25.9945 99.4722 26.7474 99.4698C27.5026 99.4698 27.5907 99.5771 27.5907 99.5771C28.1959 100.906 30.1209 102.605 31.0905 103.441C32.0602 104.278 32.4485 104.935 32.4485 104.935L33.2085 105.557L39.3885 106.572C39.3885 106.572 39.4504 106.486 39.5553 106.334C36.9465 105.407 33.0632 102.705 32.5652 102.069Z" fill="#8E5335"/>
<path d="M27.3929 92.6537C27.2809 92.6466 26.7473 92.6561 26.5471 92.7967C26.3375 92.9872 23.5405 95.5531 24.889 99.203C24.9414 99.3483 25.0629 99.4603 25.213 99.496C25.3178 99.5222 25.4584 99.5341 25.6466 99.5127C25.6466 99.5127 25.7848 99.6699 24.5864 100.547C23.3881 101.423 21.1438 102.484 21.1438 102.484C21.1438 102.484 18.4231 103.682 18.1467 101.347C17.8704 99.0124 19.5619 94.4453 19.5619 94.4453C19.5619 94.4453 19.8383 93.5995 21.0533 93.3541C22.2683 93.1087 25.9873 92.3559 26.3565 92.232C26.7258 92.1081 27.6621 92.0676 27.7098 92.6513C27.7074 92.6513 27.5049 92.6609 27.3929 92.6537Z" fill="#FFECDD"/>
<path d="M36.6223 181.69C36.6223 181.69 34.9617 184.456 34.5925 186.716C34.2232 188.975 33.2083 193.373 39.8481 201.642C39.8481 201.642 41.3466 203.791 38.4067 203.941C35.4668 204.091 32.4459 202.212 32.4459 202.212C32.4459 202.212 29.9563 200.044 29.0104 198.731C28.0646 197.416 25.9895 194.95 24.653 193.566C23.3165 192.182 20.8959 189.461 21.2414 186.488C21.5868 183.514 23.2474 182.5 23.7786 181.83C24.3099 181.161 27.8836 176.412 27.8836 176.412C27.8836 176.412 34.5019 175.486 36.6223 181.69Z" fill="#9B6348"/>
<path d="M39.8 201.576C39.9239 202.355 39.8286 203.901 37.0221 203.577C33.3031 203.146 30.904 199.979 30.904 199.979C30.904 199.979 29.9511 198.688 26.9087 195.338C23.8664 191.989 23.0802 190.452 23.0206 186.807C22.9587 183.009 28.0475 177.909 28.0475 177.909C33.2912 178.683 35.7832 182.18 36.0977 182.65C36.4003 182.064 36.6242 181.69 36.6242 181.69C34.5039 175.488 27.8855 176.41 27.8855 176.41C27.8855 176.41 24.3119 181.161 23.7806 181.828C23.2493 182.497 21.5912 183.51 21.2433 186.485C20.8979 189.459 23.3184 192.179 24.655 193.564C25.9915 194.948 28.0666 197.414 29.0124 198.729C29.6223 199.574 30.8707 200.775 31.6831 201.523C32.2644 202.057 32.9219 202.505 33.6391 202.836C34.7874 203.367 36.6123 204.032 38.4063 203.939C41.3462 203.789 39.8476 201.64 39.8476 201.64C39.8333 201.619 39.8167 201.597 39.8 201.576Z" fill="#8E5335"/>
<path d="M91.5417 175.924L93.0164 182.288C93.0164 182.288 94.1243 187.129 99.1488 188.098C104.176 189.066 108.278 189.966 109.915 190.45C111.552 190.933 114.687 190.45 114.687 190.45C114.687 190.45 116.009 190.326 115.395 191.755C114.78 193.185 114.272 193.697 113.672 194.414C113.072 195.134 110.075 197.249 107.371 197.704C105.05 198.166 100.824 197.611 100.824 197.611C100.824 197.611 97.9195 197.228 94.4149 197.642C90.9104 198.057 87.899 196.582 87.2224 196.013C86.5458 195.443 84.9472 193.814 84.5469 191.679C84.1467 189.542 84.3468 187.791 84.3015 186.5C84.1467 184.487 83.5177 180.768 82.9483 179.245C82.3789 177.723 91.5417 175.924 91.5417 175.924Z" fill="#9B6348"/>
<path d="M113.675 194.414C114.275 193.694 114.783 193.185 115.397 191.755C116.012 190.326 114.69 190.45 114.69 190.45C114.69 190.45 114.666 190.454 114.623 190.459C114.916 190.738 115.293 191.329 114.797 192.294C114.149 193.554 113.339 194.083 112.183 194.998C111.5 195.541 109.93 196.529 109.11 196.834C105.892 198.033 102.223 197.273 102.223 197.273C102.223 197.273 97.5197 196.811 93.491 197.027C89.4647 197.242 87.1276 194.383 87.1276 194.383C87.1276 194.383 84.9763 192.046 85.0978 188.265C85.2216 184.484 84.2377 180.948 84.2377 180.948C88.6714 181.373 91.049 178.778 91.9139 177.544L91.5732 176.074L91.4564 175.938C90.5559 176.119 82.408 177.804 82.9464 179.243C83.5158 180.765 84.1448 184.484 84.2996 186.497C84.3449 187.788 84.1448 189.539 84.545 191.676C84.9453 193.814 86.5439 195.443 87.2205 196.01C87.8971 196.58 90.9085 198.054 94.413 197.64C97.9176 197.225 100.822 197.609 100.822 197.609C100.822 197.609 105.048 198.161 107.369 197.702C110.077 197.251 113.077 195.133 113.675 194.414Z" fill="#8E5335"/>
<path d="M74.5929 109.416C74.5929 109.416 78.3673 107.88 81.6884 111.137C84.2709 113.671 85.4026 116.094 85.779 117.045C85.8672 117.269 85.9577 117.491 86.0601 117.707C86.5271 118.696 88.1019 123.123 87.8398 137.45C87.5325 154.235 89.6219 164.624 89.6219 164.624C89.6219 164.624 90.7892 171.45 92.0805 175.138C92.0805 175.138 92.7404 176.015 91.8065 176.856C90.8726 177.697 88.7594 180.365 82.7486 180.027C82.7486 180.027 82.2268 180.072 81.9648 179.474C81.7027 178.874 74.0647 160.753 69.0854 137.081C69.0854 137.081 67.6107 141.57 56.4657 154.392C56.4657 154.392 41.6947 171.45 37.5684 181.711C37.5684 181.711 36.8679 184.132 35.7768 183.117L36.3152 182.195C36.3152 182.195 33.7327 177.813 27.3692 177.108L26.7236 177.968C26.7236 177.968 25.8945 177.446 26.5997 176.584C27.3073 175.724 37.2658 164.627 42.0616 152.176C46.8574 139.726 50.6836 135.299 50.6836 135.299L28.6581 135.575C28.6581 135.575 4.52659 134.868 11.5357 113.412C11.5357 113.412 14.9163 108.554 19.9575 108.309C24.9987 108.063 71.7871 109.416 71.7871 109.416C71.7871 109.416 73.6157 109.416 74.5929 109.416Z" fill="#23261B"/>
<path d="M48.2083 75.798L38.4364 105.114H20.1953V109.674H78.1758L89.2507 75.798H48.2083Z" fill="#4F5361"/>
<path d="M48.6507 76.4495L39.0879 105.114H78.9639L88.274 76.4495H48.6507Z" fill="#5A5E6B"/>
<path d="M48.0571 24.2187C48.0571 24.2187 52.2192 28.052 50.1084 36.0427C49.67 37.7008 49.7796 39.7521 49.3484 40.9886C47.7093 45.7058 45.72 47.8595 45.72 47.8595C45.72 47.8595 42.892 51.0757 40.6788 51.6809C38.4655 52.286 37.9271 51.395 37.9271 51.395C37.9271 51.395 37.1433 50.7184 36.9288 51.8405C36.7144 52.9626 36.6834 54.0442 36.6834 54.0442L37.1885 54.6017L30.4582 56.6196L29.1526 54.7756C29.1526 54.7756 29.0597 40.5264 29.1526 40.4192C29.2455 40.312 32.8096 30.1057 32.8096 30.1057C32.8096 30.1057 39.9355 25.186 39.9069 25.0025C39.8783 24.8191 46.3966 23.2205 46.3966 23.2205L48.0571 24.2187Z" fill="#9B6348"/>
<path d="M38.251 24.295C38.3439 24.1712 44.4 22.544 46.7967 28.6906C47.8045 31.0182 47.5043 33.0933 47.5043 33.0933C47.5043 33.0933 47.3899 34.3846 46.6967 34.985C46.0058 35.5853 45.7747 35.8831 45.7747 36.3906C45.7747 36.898 45.7985 40.4955 45.889 41.5318C45.9819 42.5682 45.7961 42.8231 45.5674 42.8922C45.3387 42.9613 44.4834 43.1686 43.0087 43.0756C43.0087 43.0756 42.2939 43.0995 42.2249 43.9524C42.1558 44.8053 42.232 45.2579 42.263 45.4581C42.2939 45.6582 42.2939 45.9798 42.0628 46.149C41.8318 46.3181 41.6626 46.442 41.6626 46.442C41.6626 46.442 41.4172 46.6564 41.5697 46.7946C41.7245 46.9328 41.9699 47.1162 41.7698 47.4855C41.5697 47.8548 41.2004 48.5314 41.0479 49.1603C40.8931 49.7917 40.8931 50.8828 40.8931 50.8828C40.8931 50.8828 40.9241 51.2664 40.2927 51.2045C39.6614 51.1425 34.8822 50.4826 32.931 46.4706C30.9798 42.4586 32.7476 32.4381 32.7476 32.4381L22.8486 38.0869L27.6444 55.924L31.4849 56.3076L37.8198 54.7876C37.8198 54.7876 45.0123 49.5773 45.2434 49.4391C45.4745 49.3009 49.5865 39.9166 49.5865 39.9166L51.7903 29.8413L50.2679 22.6488L43.7663 21.2193L38.251 24.295Z" fill="#8E5335"/>
<path d="M43.0495 42.299C43.0495 42.299 43.719 42.5277 43.1758 42.5491C42.6326 42.5706 42.2038 42.6968 42.2038 42.6968C42.2038 42.6968 41.7797 42.8445 41.9941 42.2013C42.0442 42.0655 42.3348 42.0393 43.0495 42.299Z" fill="#8E5335"/>
<path d="M41.5535 31.6233C41.7726 31.6257 41.9871 31.6448 42.2015 31.6829C42.7566 31.7806 43.8144 32.0069 44.2456 32.3953C44.5887 32.7264 44.3838 32.917 44.3838 32.917L43.9383 33.4078C43.9383 33.4078 43.7167 33.6698 42.9996 33.4078C42.1229 33.1005 40.6481 32.238 37.3199 32.5835C33.9917 32.9289 36.498 32.2547 36.498 32.2547C36.498 32.2547 38.8613 31.6829 40.7101 31.6233C40.965 31.6186 41.3105 31.621 41.5535 31.6233Z" fill="#23261B"/>
<path d="M50.1417 32.9027C49.7367 32.8074 49.3436 32.7621 48.0499 32.7931C47.8617 32.7978 47.1279 32.7835 47.2637 33.1647C47.4186 33.6007 47.4591 34.0295 47.4591 34.0295C47.4591 34.0295 47.4686 34.1987 48.1381 34.0867C48.8885 33.9605 50.0392 33.5674 50.5253 33.6841C50.7373 33.7341 50.7635 33.6126 50.7254 33.4601C50.6563 33.1766 50.4228 32.9694 50.1417 32.9027Z" fill="#23261B"/>
<path d="M43.1797 36.6336C43.0963 36.6693 41.9242 37.203 40.9902 37.2554C39.78 37.3245 38.9842 36.9552 38.534 36.6336C38.2219 36.4096 37.2093 35.3423 36.4351 35.2399C36.0181 35.1827 36.123 35.2994 36.3064 35.4185C36.5852 35.5972 36.8305 35.8188 37.0521 36.0666C37.4786 36.5478 38.2052 37.2768 38.8556 37.5246C39.8586 37.9058 41.0355 38.0773 42.465 37.72C43.4155 37.4627 43.7276 37.3316 43.7872 37.2911C43.8468 37.2482 43.9992 37.2244 43.6514 36.7074C43.4942 36.4525 43.2631 36.5978 43.1797 36.6336Z" fill="#23261B"/>
<path d="M48.3335 37.7438C47.9714 37.8058 47.4758 37.8463 46.8421 37.2125C46.6015 36.9552 46.499 36.8885 46.4204 36.8814C46.3394 36.8742 46.2465 36.9481 46.1679 37.1577C46.0059 37.5103 46.2918 37.751 46.2918 37.751C46.2918 37.751 47.2733 38.6468 48.2668 38.511C49.2602 38.3752 49.4818 37.6509 49.8201 37.5961C50.1584 37.5413 50.1965 37.4341 50.1965 37.4341C50.1965 37.4341 50.3109 37.2507 49.751 37.334C49.1864 37.4222 48.698 37.6819 48.3335 37.7438Z" fill="#23261B"/>
<path d="M48.0583 24.2188C48.0583 24.2188 43.4007 23.666 41.7878 25.5553C40.1749 27.4469 39.8056 28.6453 36.7156 30.3511C33.6256 32.0569 32.3343 35.8378 32.3343 35.8378C32.3343 35.8378 30.3522 41.0482 31.5505 51.8834C32.7489 62.7186 24.7725 63.3667 22.6522 63.2285C20.5318 63.0903 16.4722 62.2612 14.9522 57.0032C13.8587 53.2247 11.9789 55.6167 11.0069 57.2605C10.6519 57.8609 10.3613 58.4994 10.1254 59.1569L7.61912 66.1327C7.61912 66.1327 7.15693 66.5948 6.88057 64.6103C6.6042 62.6281 3.4213 46.0727 14.166 28.6429C24.9107 11.2131 31.136 10.4293 31.136 10.4293C31.136 10.4293 35.9771 9.1833 39.4363 10.9368C41.8997 12.1851 44.1535 12.5663 45.2447 12.6831C45.9808 12.7617 46.7003 12.9523 47.3793 13.2549C49.5163 14.2054 53.3973 16.6736 54.5147 22.3247C56.0823 30.2558 55.6225 37.5865 52.1632 45.5652C49.3782 51.9906 47.01 54.4374 46.1953 55.1473C46.0237 55.295 45.8569 55.4451 45.6926 55.6C45.1613 56.1098 43.5817 57.2796 41.1421 56.1718C41.1421 56.1718 40.5275 55.6953 38.5763 55.6333C36.6251 55.5714 36.5322 53.4963 36.5322 53.4963C36.5322 53.4963 36.5322 51.7452 36.9777 51.3283C37.4232 50.9138 37.8687 51.0662 37.8687 51.0662C37.8687 51.0662 39.422 52.1121 40.6204 51.6976C41.8187 51.283 44.5776 50.0609 48.1989 42.3609C51.8178 34.6609 49.8356 27.628 49.8356 27.628C49.8356 27.628 49.6736 26.5702 48.0583 24.2188Z" fill="#23261B"/>
<path d="M240.543 26.7075C240.543 26.7075 239.096 27.9766 239.83 30.6221C239.982 31.1711 239.944 31.8502 240.094 32.2596C240.664 33.8213 241.355 34.5344 241.355 34.5344C241.355 34.5344 242.338 35.5992 243.108 35.7995C243.877 35.9999 244.064 35.7049 244.064 35.7049C244.064 35.7049 244.337 35.4809 244.411 35.8524C244.486 36.2239 244.497 36.582 244.497 36.582L244.321 36.7666L246.661 37.4346L247.115 36.8241C247.115 36.8241 247.147 32.1066 247.115 32.0711C247.082 32.0356 245.843 28.6565 245.843 28.6565C245.843 28.6565 243.366 27.0277 243.376 26.967C243.386 26.9062 241.12 26.377 241.12 26.377L240.543 26.7075Z" fill="#9B6348"/>
<path d="M243.952 26.7327C243.92 26.6917 241.815 26.153 240.982 28.188C240.631 28.9586 240.736 29.6456 240.736 29.6456C240.736 29.6456 240.775 30.0732 241.016 30.2719C241.257 30.4707 241.337 30.5693 241.337 30.7373C241.337 30.9053 241.329 32.0963 241.297 32.4394C241.265 32.7826 241.329 32.867 241.409 32.8898C241.488 32.9127 241.786 32.9813 242.298 32.9506C242.298 32.9506 242.547 32.9584 242.571 33.2408C242.595 33.5232 242.568 33.6731 242.558 33.7393C242.547 33.8056 242.547 33.9121 242.627 33.9681C242.708 34.0241 242.766 34.0651 242.766 34.0651C242.766 34.0651 242.852 34.1361 242.799 34.1818C242.745 34.2276 242.66 34.2883 242.729 34.4106C242.799 34.5328 242.927 34.7568 242.98 34.9651C243.034 35.1741 243.034 35.5353 243.034 35.5353C243.034 35.5353 243.023 35.6623 243.243 35.6418C243.462 35.6213 245.123 35.4028 245.802 34.0745C246.48 32.7463 245.865 29.4287 245.865 29.4287L249.307 31.2989L247.639 37.2044L246.304 37.3313L244.102 36.8281C244.102 36.8281 241.602 35.1031 241.522 35.0573C241.441 35.0116 240.012 31.9047 240.012 31.9047L239.246 28.569L239.775 26.1877L242.035 25.7145L243.952 26.7327Z" fill="#8E5335"/>
<path d="M242.284 32.6934C242.284 32.6934 242.051 32.7691 242.24 32.7762C242.429 32.7833 242.578 32.8251 242.578 32.8251C242.578 32.8251 242.725 32.874 242.651 32.6611C242.633 32.6161 242.532 32.6074 242.284 32.6934Z" fill="#8E5335"/>
<path d="M242.805 29.159C242.729 29.1598 242.654 29.1661 242.58 29.1787C242.387 29.211 242.019 29.286 241.869 29.4145C241.75 29.5242 241.821 29.5873 241.821 29.5873L241.976 29.7498C241.976 29.7498 242.053 29.8365 242.302 29.7498C242.607 29.648 243.12 29.3625 244.277 29.4768C245.434 29.5912 244.562 29.368 244.562 29.368C244.562 29.368 243.741 29.1787 243.098 29.159C243.009 29.1574 242.889 29.1582 242.805 29.159Z" fill="#23261B"/>
<path d="M239.819 29.5825C239.96 29.551 240.096 29.536 240.546 29.5462C240.612 29.5478 240.867 29.5431 240.819 29.6693C240.766 29.8136 240.751 29.9556 240.751 29.9556C240.751 29.9556 240.748 30.0116 240.515 29.9745C240.255 29.9327 239.855 29.8026 239.686 29.8412C239.612 29.8578 239.603 29.8176 239.616 29.7671C239.64 29.6732 239.721 29.6046 239.819 29.5825Z" fill="#23261B"/>
<path d="M242.24 30.8177C242.269 30.8296 242.677 31.0063 243.001 31.0236C243.422 31.0465 243.699 30.9242 243.855 30.8177C243.964 30.7436 244.316 30.3902 244.585 30.3563C244.73 30.3374 244.693 30.376 244.63 30.4155C244.533 30.4746 244.447 30.548 244.37 30.63C244.222 30.7893 243.97 31.0307 243.743 31.1127C243.395 31.2389 242.986 31.2957 242.489 31.1774C242.158 31.0922 242.05 31.0488 242.029 31.0354C242.008 31.0212 241.955 31.0134 242.076 30.8422C242.131 30.7578 242.211 30.8059 242.24 30.8177Z" fill="#23261B"/>
<path d="M240.449 31.1853C240.575 31.2058 240.747 31.2192 240.967 31.0094C241.051 30.9242 241.086 30.9022 241.114 30.8998C241.142 30.8974 241.174 30.9219 241.201 30.9913C241.258 31.108 241.158 31.1877 241.158 31.1877C241.158 31.1877 240.817 31.4843 240.472 31.4393C240.126 31.3943 240.049 31.1546 239.932 31.1364C239.814 31.1183 239.801 31.0828 239.801 31.0828C239.801 31.0828 239.761 31.022 239.956 31.0497C240.152 31.0788 240.322 31.1648 240.449 31.1853Z" fill="#23261B"/>
<path d="M240.543 26.7075C240.543 26.7075 242.162 26.5245 242.723 27.15C243.284 27.7763 243.412 28.173 244.486 28.7378C245.56 29.3025 246.009 30.5543 246.009 30.5543C246.009 30.5543 246.698 32.2793 246.282 35.8666C245.865 39.4539 248.638 39.6684 249.375 39.6227C250.112 39.5769 251.523 39.3024 252.052 37.5616C252.432 36.3107 253.085 37.1026 253.423 37.6468C253.547 37.8456 253.648 38.057 253.73 38.2747L254.601 40.5842C254.601 40.5842 254.762 40.7372 254.858 40.0802C254.954 39.4239 256.06 33.9428 252.325 28.1722C248.59 22.4016 246.426 22.1421 246.426 22.1421C246.426 22.1421 244.743 21.7296 243.54 22.3101C242.684 22.7235 241.9 22.8497 241.521 22.8883C241.265 22.9143 241.015 22.9774 240.779 23.0776C240.036 23.3923 238.687 24.2095 238.299 26.0804C237.754 28.7062 237.914 31.1332 239.116 33.7748C240.084 35.9021 240.907 36.7121 241.191 36.9472C241.25 36.9961 241.308 37.0458 241.365 37.0971C241.55 37.2659 242.099 37.6531 242.947 37.2864C242.947 37.2864 243.161 37.1286 243.839 37.1081C244.518 37.0876 244.55 36.4006 244.55 36.4006C244.55 36.4006 244.55 35.8208 244.395 35.6828C244.24 35.5456 244.085 35.5961 244.085 35.5961C244.085 35.5961 243.545 35.9423 243.129 35.8051C242.712 35.6678 241.753 35.2632 240.494 32.7139C239.236 30.1646 239.925 27.8362 239.925 27.8362C239.925 27.8362 239.982 27.486 240.543 26.7075Z" fill="#23261B"/>
<path d="M48.0583 24.2188C48.0583 24.2188 43.4007 23.666 41.7878 25.5553C40.1749 27.4469 39.8056 28.6453 36.7156 30.3511C33.6256 32.0569 32.3343 35.8378 32.3343 35.8378C32.3343 35.8378 30.3522 41.0482 31.5505 51.8834C32.7489 62.7186 24.7725 63.3667 22.6522 63.2285C20.5318 63.0903 16.4722 62.2612 14.9522 57.0032C13.8587 53.2247 11.9789 55.6167 11.0069 57.2605C10.6519 57.8609 10.3613 58.4994 10.1254 59.1569L7.61912 66.1327C7.61912 66.1327 7.15693 66.5948 6.88057 64.6103C6.6042 62.6281 3.4213 46.0727 14.166 28.6429C24.9107 11.2131 31.136 10.4293 31.136 10.4293C31.136 10.4293 35.9771 9.1833 39.4363 10.9368C41.8997 12.1851 44.1535 12.5663 45.2447 12.6831C45.9808 12.7617 46.7003 12.9523 47.3793 13.2549C49.5163 14.2054 53.3973 16.6736 54.5147 22.3247C56.0823 30.2558 55.6225 37.5865 52.1632 45.5652C49.3782 51.9906 47.01 54.4374 46.1953 55.1473C46.0237 55.295 45.8569 55.4451 45.6926 55.6C45.1613 56.1098 43.5817 57.2796 41.1421 56.1718C41.1421 56.1718 40.5275 55.6953 38.5763 55.6333C36.6251 55.5714 36.5322 53.4963 36.5322 53.4963C36.5322 53.4963 36.5322 51.7452 36.9777 51.3283C37.4232 50.9138 37.8687 51.0662 37.8687 51.0662C37.8687 51.0662 39.422 52.1121 40.6204 51.6976C41.8187 51.283 44.5776 50.0609 48.1989 42.3609C51.8178 34.6609 49.8356 27.628 49.8356 27.628C49.8356 27.628 49.6736 26.5702 48.0583 24.2188Z" fill="#23261B"/>
</svg>