<svg width="36" height="36" viewBox="0 0 36 36" fill="none" xmlns="http://www.w3.org/2000/svg">
<path fill-rule="evenodd" clip-rule="evenodd" d="M29 25.7778C29 26.3671 28.7682 26.9324 28.3556 27.3491C27.9431 27.7659 27.3835 28 26.8 28H9.2C8.61652 28 8.05694 27.7659 7.64437 27.3491C7.23178 26.9324 7 26.3671 7 25.7778V10.2222C7 9.63285 7.23178 9.06762 7.64437 8.65087C8.05694 8.23413 8.61652 8 9.2 8H14.7L16.9 11.3333H26.8C27.3835 11.3333 27.9431 11.5675 28.3556 11.9842C28.7682 12.401 29 12.9662 29 13.5556V25.7778ZM23 25.125V23.4583C23 22.5743 22.7366 21.7264 22.2678 21.1013C21.7989 20.4762 21.163 20.125 20.5 20.125H15.5C14.837 20.125 14.2011 20.4762 13.7322 21.1013C13.2634 21.7264 13 22.5743 13 23.4583V25.125H23ZM20.5 16.375C20.5 17.7557 19.3807 18.875 18 18.875C16.6193 18.875 15.5 17.7557 15.5 16.375C15.5 14.9943 16.6193 13.875 18 13.875C19.3807 13.875 20.5 14.9943 20.5 16.375Z" fill="white"/>
</svg>
