<svg width="22" height="31" viewBox="0 0 22 31" fill="none" xmlns="http://www.w3.org/2000/svg"> <path fill-rule="evenodd" clip-rule="evenodd" d="M5.37532 19.6705C5.16424 19.6705 4.96189 19.5995 4.81324 19.4733C4.66337 19.3481 4.57907 19.1777 4.57907 19C4.57907 18.8222 4.66337 18.6518 4.81324 18.5266L7.18824 16.5266C7.33689 16.4004 7.53924 16.3294 7.75032 16.3294C7.96141 16.3294 8.16376 16.4004 8.31241 16.5266L10.6874 18.5266C10.8882 18.6957 10.9666 18.9422 10.8931 19.1732C10.8196 19.4042 10.6054 19.5846 10.3311 19.6465C10.0567 19.7084 9.76405 19.6424 9.56324 19.4733L8.54199 18.6066L8.54199 29C8.54199 29.3681 8.18755 29.6666 7.75032 29.6666C7.3131 29.6666 6.95866 29.3681 6.95866 29L6.95866 18.6066L5.93741 19.4733C5.78876 19.5995 5.58641 19.6705 5.37532 19.6705ZM19.6253 25.6666H11.7087C11.2714 25.6666 10.917 25.3681 10.917 25C10.917 24.6318 11.2714 24.3333 11.7087 24.3333H19.6253C20.0626 24.3333 20.417 24.6318 20.417 25C20.417 25.3681 20.0626 25.6666 19.6253 25.6666ZM19.6253 21.6666H13.292C12.8548 21.6666 12.5003 21.3681 12.5003 21C12.5003 20.6318 12.8548 20.3333 13.292 20.3333H19.6253C20.0626 20.3333 20.417 20.6318 20.417 21C20.417 21.3681 20.0626 21.6666 19.6253 21.6666ZM14.8753 17.6666H19.6253C20.0626 17.6666 20.417 17.3681 20.417 17C20.417 16.6318 20.0626 16.3333 19.6253 16.3333H14.8753C14.4381 16.3333 14.0837 16.6318 14.0837 17C14.0837 17.3681 14.4381 17.6666 14.8753 17.6666Z" fill="white"/> <path d="M8 8.44223C8.00045 9.08619 7.84558 9.72094 7.5483 10.2937C7.25101 10.8664 6.81989 11.3605 6.29083 11.7349L4.78849 12.7962C4.61556 12.9184 4.38444 12.9184 4.21151 12.7962L2.70917 11.7349C2.1801 11.3605 1.74899 10.8664 1.4517 10.2937C1.15442 9.72094 0.999554 9.08619 1 8.44223V5.54417C1 5.25137 1.25126 5.02338 1.54371 5.00915C2.48416 4.96338 3.41034 4.61004 4.24233 4.14814C4.40251 4.05922 4.59749 4.05922 4.75767 4.14814C5.58965 4.61004 6.51584 4.96338 7.45629 5.00915C7.74874 5.02338 8 5.25137 8 5.54417V8.44223Z" stroke="white"/> <path fill-rule="evenodd" clip-rule="evenodd" d="M3.00017 14.0261C3.01414 15.1186 3.90415 16 5 16H11.3333H15.7841H22V10.566V5C22 3.89543 21.1046 3 20 3H16.6364H13.3012C12.5101 3 11.7933 2.53364 11.4728 1.81035L11.1977 1.18965C10.8771 0.466357 10.1604 0 9.36921 0H5C3.89543 0 3 0.895431 3 2V2.71698C3.34659 2.57597 3.68598 2.42011 4.01617 2.25398C4.32039 2.10091 4.67961 2.10091 4.98383 2.25398C6.20391 2.86785 7.54956 3.3414 8.92008 3.44415C9.50135 3.48772 10 3.94248 10 4.52538V8.41656C10.0007 9.34672 9.75734 10.2636 9.29018 11.0908C8.82301 11.9181 8.14555 12.6318 7.31417 13.1727L5.0446 14.6464C4.71338 14.8614 4.28662 14.8614 3.9554 14.6464L3.00017 14.0261Z" fill="white"/> </svg>