<svg width="82" height="79" viewBox="0 0 82 79" fill="none" xmlns="http://www.w3.org/2000/svg">
    <path d="M80.5 39.5C80.5 60.4346 62.8684 77.5 41 77.5C19.1316 77.5 1.5 60.4346 1.5 39.5C1.5 18.5654 19.1316 1.5 41 1.5C62.8684 1.5 80.5 18.5654 80.5 39.5Z" fill="white" stroke="#E6007A" stroke-width="3"/>
    <path d="M25.4042 12.9985C25.4567 13.0246 25.5092 13.0507 25.5617 13.0768C26.9611 13.3638 27.9407 14.9814 27.9932 17.0687C27.9932 17.1991 27.9932 17.3557 27.9932 17.5122C27.9932 32.5144 27.9932 47.4904 27.9932 62.4926C27.9932 62.91 27.9757 63.3535 27.9057 63.771C27.6958 65.1538 27.1185 66.0931 26.2264 66.641C25.0194 67.3715 23.585 66.9541 22.7454 65.6495C22.3255 64.9973 22.0806 64.2145 22.0281 63.3014C21.9932 62.8317 21.9932 62.3621 21.9932 61.8925C21.9932 47.1773 21.9932 32.4883 21.9932 17.7731C21.9932 17.3035 22.0107 16.86 22.0631 16.3903C22.2905 14.6683 23.2177 13.3377 24.3897 13.0768C24.4596 13.0507 24.5296 13.0246 24.5996 12.9985C24.862 12.9985 25.1419 12.9985 25.4042 12.9985Z" fill="black"/>
    <path d="M57.4111 13C57.4636 13.0261 57.516 13.0522 57.5685 13.0783C58.9679 13.3653 59.9475 14.9829 60 17.0701C60 17.2006 60 17.3571 60 17.5137C60 32.5158 60 47.4919 60 62.494C60 62.9115 59.9825 63.355 59.9125 63.7725C59.7026 65.1553 59.1254 66.0945 58.2332 66.6424C57.0262 67.373 55.5918 66.9555 54.7522 65.651C54.3324 64.9987 54.0875 64.216 54.035 63.3028C54 62.8332 54 62.3636 54 61.8939C54 47.1788 54 32.4897 54 17.7746C54 17.305 54.0175 16.8614 54.07 16.3918C54.2974 14.6698 55.2245 13.3392 56.3965 13.0783C56.4665 13.0522 56.5364 13.0261 56.6064 13C56.8688 13 57.1487 13 57.4111 13Z" fill="black"/>
    <path d="M50.9935 40.392C50.9603 40.5256 50.9437 40.6592 50.9104 40.7929C50.6278 41.9454 49.6304 42.7472 48.4501 42.7806C48.3836 42.7806 48.3171 42.7806 48.2506 42.7806C43.4796 42.7806 38.692 42.7806 33.921 42.7806C33.5719 42.7806 33.2228 42.7472 32.8904 42.6135C32.3085 42.3964 31.8431 42.0289 31.5605 41.4777C31.0119 40.4588 30.9953 39.4065 31.5438 38.3876C31.9761 37.5691 32.7075 37.1515 33.6218 37.068C33.7714 37.0513 33.921 37.0513 34.054 37.0513C38.7419 37.0513 43.4298 37.0513 48.101 37.0513C48.4169 37.0513 48.7494 37.0847 49.0486 37.1515C50.0626 37.4187 50.7774 38.2539 50.9271 39.2895C50.9271 39.3397 50.9603 39.3731 50.9769 39.4065C50.9935 39.7572 50.9935 40.0746 50.9935 40.392Z" fill="black"/>
    <path d="M68.9932 23.4971C68.9747 23.637 68.9655 23.777 68.9471 23.9169C68.7905 25.1239 68.2379 25.9635 67.5839 25.9985C67.5471 25.9985 67.5102 25.9985 67.4734 25.9985C64.8299 25.9985 62.1772 25.9985 59.5337 25.9985C59.3403 25.9985 59.1469 25.9635 58.9626 25.8236C58.6403 25.5962 58.3824 25.2114 58.2258 24.6341C57.9218 23.567 57.9126 22.465 58.2166 21.398C58.4561 20.5408 58.8613 20.1035 59.3679 20.016C59.4508 19.9985 59.5337 19.9985 59.6074 19.9985C62.2048 19.9985 64.8023 19.9985 67.3905 19.9985C67.5655 19.9985 67.7497 20.0335 67.9155 20.1035C68.4774 20.3834 68.8734 21.258 68.9563 22.3426C68.9563 22.395 68.9747 22.43 68.984 22.465C68.9932 22.8324 68.9932 23.1647 68.9932 23.4971Z" fill="black"/>
    <path d="M50.5614 56.2604C50.4118 55.2081 50.1292 54.2226 49.6804 53.3039C49.2648 52.4186 48.7328 51.6168 48.0512 50.8986C48.0346 50.8819 48.018 50.8485 48.0014 50.8318C47.5193 50.3307 46.9873 49.8797 46.3889 49.4621C44.0948 47.9087 41.5514 47.4243 38.8417 48.059C37.0297 48.4933 35.517 49.4454 34.2702 50.8151C32.8572 52.3518 31.9928 54.1725 31.7102 56.2437C31.6104 57.0121 31.5605 57.7972 31.5605 58.5822C31.5605 60.4864 31.5772 62.3906 31.6104 64.2948C31.627 65.5142 32.3751 66.483 33.5221 66.8338C33.971 66.9674 34.4364 66.9841 34.9019 66.934C36.0323 66.8004 36.9632 65.9986 37.2126 64.9129C37.2625 64.6623 37.2957 64.3783 37.2957 64.1278C37.2957 61.8728 37.2957 59.6178 37.2957 57.3629C37.2957 57.0789 37.3123 56.7949 37.3788 56.511C37.6947 54.9074 38.9913 53.7215 40.6537 53.5043C40.9695 53.4709 41.2688 53.4709 41.5846 53.5043H41.568C41.8672 53.5377 42.1498 53.6213 42.4158 53.7048C42.4491 53.7215 42.4823 53.7215 42.5155 53.7382C42.5322 53.7382 42.5488 53.7549 42.5654 53.7549C43.3301 54.089 44.0117 54.6736 44.4439 55.4921C44.7597 56.0767 44.8927 56.7114 44.8927 57.3796C44.8927 59.551 44.8927 61.7225 44.8927 63.8939C44.8927 64.1111 44.8927 64.3115 44.926 64.5287C45.0257 65.581 45.5743 66.2992 46.5219 66.7168C46.5551 66.7335 46.605 66.7502 46.6382 66.7669C46.8543 66.8505 47.0871 66.9006 47.3198 66.934C47.7853 66.9841 48.2507 66.9674 48.6996 66.8338C49.8632 66.483 50.5947 65.5142 50.6113 64.2948C50.6279 62.3906 50.6611 60.4864 50.6611 58.5822C50.711 57.8139 50.6611 57.0288 50.5614 56.2604Z" fill="black"/>
    <path d="M50.5613 22.1852C50.4117 20.6318 49.9296 19.1953 49.0818 17.9091C47.3031 15.2031 44.7763 13.7165 41.5679 13.4659C39.5897 13.3156 37.7445 13.8 36.0987 14.9024C33.2062 16.8568 31.76 19.6462 31.6104 23.1206C31.627 23.7553 31.6768 24.3733 31.8098 24.9914C32.2088 26.8288 33.0899 28.3822 34.4198 29.6851C36.3149 31.5225 38.5923 32.4913 41.2188 32.5247C43.0308 32.5581 44.6932 32.0403 46.1893 31.0381C47.6522 30.0693 48.7826 28.7998 49.5473 27.2129C50.3286 25.6428 50.7276 23.9725 50.5613 22.1852ZM41.1191 26.8622C39.0079 26.8789 37.2624 25.1417 37.2624 23.0204C37.2624 20.8656 38.9746 19.1451 41.1025 19.1451C43.2303 19.1451 44.9425 20.8656 44.9425 23.0037C44.9592 25.125 43.2469 26.8455 41.1191 26.8622Z" fill="black"/>
</svg>
