<svg width="48" height="48" viewBox="0 0 48 48" fill="none" xmlns="http://www.w3.org/2000/svg">
    <path d="M6 26V14C6 10.2288 6 8.34315 7.17157 7.17157C8.34315 6 10.2288 6 14 6H34C37.7712 6 39.6569 6 40.8284 7.17157C42 8.34315 42 10.2288 42 14V34C42 37.7712 42 39.6569 40.8284 40.8284C39.6569 42 37.7712 42 34 42H24" stroke="url(#paint0_linear_1148_18977)" stroke-width="2"/>
    <path d="M16 32V31H17V32H16ZM6.6247 40.7809C6.19343 41.1259 5.56414 41.056 5.21913 40.6247C4.87412 40.1934 4.94404 39.5641 5.3753 39.2191L6.6247 40.7809ZM15 42V32H17V42H15ZM16 33H6V31H16V33ZM16.6247 32.7809L6.6247 40.7809L5.3753 39.2191L15.3753 31.2191L16.6247 32.7809Z" fill="url(#paint1_linear_1148_18977)"/>
    <path d="M35 27.4422C35.0004 28.0862 34.8456 28.7209 34.5483 29.2937C34.251 29.8664 33.8199 30.3605 33.2908 30.7349L31.7885 31.7962C31.6156 31.9184 31.3844 31.9184 31.2115 31.7962L29.7092 30.7349C29.1801 30.3605 28.749 29.8664 28.4517 29.2937C28.1544 28.7209 27.9996 28.0862 28 27.4422V24.5442C28 24.2514 28.2513 24.0234 28.5437 24.0091C29.4842 23.9634 30.4103 23.61 31.2423 23.1481C31.4025 23.0592 31.5975 23.0592 31.7577 23.1481C32.5897 23.61 33.5158 23.9634 34.4563 24.0091C34.7487 24.0234 35 24.2514 35 24.5442V27.4422Z" stroke="#E6007A"/>
    <path fill-rule="evenodd" clip-rule="evenodd" d="M16 26V15.25V14C16 12.8954 16.8954 12 18 12H22.3692C23.1604 12 23.8771 12.4664 24.1977 13.1897L24.4728 13.8103C24.7933 14.5336 25.5101 15 26.3012 15H29.6364H33C34.1046 15 35 15.8954 35 17V22.3211C33.9504 22.1212 32.9294 21.7297 31.9838 21.254C31.6796 21.1009 31.3204 21.1009 31.0162 21.254C29.7961 21.8678 28.4504 22.3414 27.0799 22.4441C26.4987 22.4877 26 22.9425 26 23.5254V27.4166C25.9999 27.6119 26.0105 27.8066 26.0317 28H24.3333H18C16.8954 28 16 27.1046 16 26Z" fill="#E6007A"/>
    <defs>
        <linearGradient id="paint0_linear_1148_18977" x1="24" y1="6" x2="24" y2="42" gradientUnits="userSpaceOnUse">
            <stop stop-color="#3B6CF4"/>
            <stop offset="1" stop-color="#6050DC"/>
        </linearGradient>
        <linearGradient id="paint1_linear_1148_18977" x1="11" y1="32" x2="11" y2="42" gradientUnits="userSpaceOnUse">
            <stop stop-color="#3B6CF4"/>
            <stop offset="1" stop-color="#6050DC"/>
        </linearGradient>
    </defs>
</svg>
