<svg width="36" height="36" viewBox="0 0 36 36" fill="none" xmlns="http://www.w3.org/2000/svg">
<rect width="36" height="36" rx="10" fill="url(#paint0_linear)"/>
<path d="M28 23.4422C28.0004 24.0862 27.8456 24.7209 27.5483 25.2937C27.251 25.8664 26.8199 26.3605 26.2908 26.7349L24.7885 27.7962C24.6156 27.9184 24.3844 27.9184 24.2115 27.7962L22.7092 26.7349C22.1801 26.3605 21.749 25.8664 21.4517 25.2937C21.1544 24.7209 20.9996 24.0862 21 23.4422V20.5442C21 20.2514 21.2513 20.0234 21.5437 20.0091C22.4842 19.9634 23.4103 19.61 24.2423 19.1481C24.4025 19.0592 24.5975 19.0592 24.7577 19.1481C25.5897 19.61 26.5158 19.9634 27.4563 20.0091C27.7487 20.0234 28 20.2514 28 20.5442V23.4422Z" stroke="white"/>
<path fill-rule="evenodd" clip-rule="evenodd" d="M9 22V11.25V10C9 8.89543 9.89543 8 11 8H15.3692C16.1604 8 16.8771 8.46636 17.1977 9.18965L17.4728 9.81035C17.7933 10.5336 18.5101 11 19.3012 11H22.6364H26C27.1046 11 28 11.8954 28 13V18.3211C26.9504 18.1212 25.9294 17.7297 24.9838 17.254C24.6796 17.1009 24.3204 17.1009 24.0162 17.254C22.7961 17.8678 21.4504 18.3414 20.0799 18.4441C19.4987 18.4877 19 18.9425 19 19.5254V23.4166C18.9999 23.6119 19.0105 23.8066 19.0317 24H17.3333H11C9.89543 24 9 23.1046 9 22Z" fill="white"/>
<defs>
<linearGradient id="paint0_linear" x1="18" y1="0" x2="18" y2="36" gradientUnits="userSpaceOnUse">
<stop stop-color="#3B6CF4"/>
<stop offset="1" stop-color="#6050DC"/>
</linearGradient>
</defs>
</svg>