<?xml version="1.0" encoding="UTF-8" standalone="no"?>
<svg
   width="24"
   height="24"
   viewBox="0 0 24 24"
   fill="none"
   version="1.1"
   id="svg8"
   sodipodi:docname="lock.svg"
   inkscape:version="1.1.2 (0a00cf5339, 2022-02-04)"
   xmlns:inkscape="http://www.inkscape.org/namespaces/inkscape"
   xmlns:sodipodi="http://sodipodi.sourceforge.net/DTD/sodipodi-0.dtd"
   xmlns="http://www.w3.org/2000/svg"
   xmlns:svg="http://www.w3.org/2000/svg">
  <defs
     id="defs12" />
  <sodipodi:namedview
     id="namedview10"
     pagecolor="#ffffff"
     bordercolor="#666666"
     borderopacity="1.0"
     inkscape:pageshadow="2"
     inkscape:pageopacity="0.0"
     inkscape:pagecheckerboard="0"
     showgrid="false"
     inkscape:zoom="35.166667"
     inkscape:cx="12"
     inkscape:cy="12.014218"
     inkscape:window-width="1920"
     inkscape:window-height="1016"
     inkscape:window-x="0"
     inkscape:window-y="27"
     inkscape:window-maximized="1"
     inkscape:current-layer="svg8" />
  <path
     d="M4 13C4 11.1144 4 10.1716 4.58579 9.58579C5.17157 9 6.11438 9 8 9H16C17.8856 9 18.8284 9 19.4142 9.58579C20 10.1716 20 11.1144 20 13V15C20 17.8284 20 19.2426 19.1213 20.1213C18.2426 21 16.8284 21 14 21H10C7.17157 21 5.75736 21 4.87868 20.1213C4 19.2426 4 17.8284 4 15V13Z"
     stroke="#0C163D"
     stroke-width="2"
     id="path2"
     style="stroke:#fffffd;stroke-opacity:1" />
  <path
     d="M16 8V7C16 4.79086 14.2091 3 12 3V3C9.79086 3 8 4.79086 8 7V8"
     stroke="#0C163D"
     stroke-width="2"
     stroke-linecap="round"
     id="path4"
     style="stroke:#fffffd;stroke-opacity:1" />
  <circle
     cx="12"
     cy="15"
     r="2"
     fill="#0C163D"
     id="circle6"
     style="stroke:#ffffff;stroke-opacity:1;fill:#ffffff;fill-opacity:1" />
</svg>
