<svg width="20" height="20" viewBox="0 0 20 20" fill="none" xmlns="http://www.w3.org/2000/svg">
<path d="M15.4444 8H4.55556C3.69645 8 3 8.73262 3 9.63636V15.3636C3 16.2674 3.69645 17 4.55556 17H15.4444C16.3036 17 17 16.2674 17 15.3636V9.63636C17 8.73262 16.3036 8 15.4444 8Z" stroke="white" stroke-width="2" stroke-linecap="round" stroke-linejoin="round"/>
<path d="M7 8V5.33333C7 4.44928 7.31607 3.60143 7.87868 2.97631C8.44129 2.35119 9.20435 2 10 2C10.7956 2 11.5587 2.35119 12.1213 2.97631C12.6839 3.60143 13 4.44928 13 5.33333V8" stroke="white" stroke-width="2" stroke-linecap="round" stroke-linejoin="round"/>
</svg>
