<svg width="186" height="499" viewBox="0 0 186 499" fill="none" xmlns="http://www.w3.org/2000/svg">
<path d="M45.4527 457.498C45.4527 457.498 50.492 457.128 50.9998 460.829C51.5012 464.531 51.8202 471.188 51.3124 480.801C50.811 490.421 50.9998 493.007 50.9998 493.007C50.9998 493.007 50.8761 500 44.6974 500C38.5187 500 33.3556 500 33.3556 500C33.3556 500 29.7617 499.423 30.1393 494.116C30.5169 488.816 30.5234 486.904 30.1132 479.381C29.7031 471.857 30.3932 459.218 32.4116 458.421C34.4299 457.619 45.4527 457.498 45.4527 457.498Z" fill="black"/>
<path d="M110.354 139.234V198.748C110.354 198.748 147.042 203.723 148.357 202.22C149.672 200.723 151.691 131.997 151.691 131.997L110.354 139.234Z" fill="black"/>
<path d="M27.0837 261.252H46.3675C47.6305 261.252 48.797 261.945 49.4272 263.069L52.6011 267.522C53.2313 268.646 54.398 269.339 55.6608 269.339H102.632V320.178C102.632 322.848 100.524 325.013 97.9245 325.013H26.7075C24.1077 325.013 22 322.848 22 320.178V274.979C22 271.241 22.5622 267.527 23.6667 263.966C24.0714 262.368 25.476 261.252 27.0837 261.252Z" fill="#64A5CF"/>
<path d="M91.3169 268.507H29.3377V295.396H91.3169V268.507Z" fill="#EBF0F3"/>
<path d="M99.1015 263.67H79.6688C78.2868 263.67 77.0318 264.498 76.4576 265.789L73.1322 273.263C72.5578 274.554 71.3029 275.382 69.921 275.382H22V321.387C22 324.057 24.1077 326.221 26.7075 326.221H97.9247C100.524 326.221 102.632 324.057 102.632 321.387V267.296C102.632 265.293 101.051 263.67 99.1015 263.67Z" fill="#8EBDDB"/>
<path d="M51.6201 291.209C51.2393 291.391 51 291.779 51 292.199V297.935C51 306.416 55.5585 310.753 62.4125 314.907C62.7715 315.122 63.2285 315.122 63.5875 314.907C70.4415 310.753 75 306.426 75 297.935V292.199C75 291.779 74.7607 291.391 74.3799 291.209L63.5005 285.827C63.185 285.677 62.815 285.677 62.4995 285.827L51.6201 291.209Z" fill="#E6007A" stroke="#E6007A" stroke-width="2" stroke-miterlimit="10"/>
<path d="M53.5168 292.433C53.1995 292.592 53 292.927 53 293.291V298.263C53 305.613 56.7987 309.371 62.5104 312.972C62.8096 313.158 63.1904 313.158 63.4896 312.972C69.2013 309.371 73 305.622 73 298.263V293.291C73 292.927 72.8005 292.592 72.4832 292.433L63.417 287.769C63.1541 287.639 62.8459 287.639 62.583 287.769L53.5168 292.433Z" fill="#8EBDDB"/>
<path d="M59 299.32L62.3216 303.327L68 296.478" stroke="#E6007A" stroke-width="2" stroke-miterlimit="10" stroke-linecap="round" stroke-linejoin="round"/>
<mask id="mask0" style="mask-type:alpha" maskUnits="userSpaceOnUse" x="0" y="0" width="176" height="500">
<path d="M70 268.591H51.5L49.5 244.618L59.5 3.9139L146 0L176 136.986L168.5 499.022H24L0 478.474L49.5 341.487L76.5 285.714L70 268.591Z" fill="black"/>
</mask>
<g mask="url(#mask0)">
<path d="M129.678 425.95C129.678 425.95 131.104 434.085 124.639 453.242L126.234 467.378L139.256 480.037L159.335 488.669L166.321 484.197C166.321 484.197 156.509 475.239 152.316 468.862C148.123 462.485 141.02 453.082 146.476 428.581C151.939 404.086 128.584 407.125 129.678 425.95Z" fill="#E99F86"/>
<path d="M55.4095 437.029C55.4095 437.029 50.624 441.004 49.8623 453.032C49.1005 465.059 50.4482 473.691 50.4482 473.691C50.4482 473.691 51.8741 484.623 46.8348 487.911C41.7954 491.198 36.3329 489.147 34.8224 486.516C33.3119 483.884 28.4353 478.54 33.1426 453.637C37.8499 428.728 45.2396 420.427 45.2396 420.427C45.2396 420.427 66.2499 415.407 55.4095 437.029Z" fill="#E99F86"/>
<path d="M109.724 22.5049L91.2007 24.4798C91.2007 24.4798 85.5298 37.7944 85.6535 40.0177C85.7772 42.2347 87.2942 66.1564 88.4271 68.3798C89.56 70.5967 89.3451 79.5984 94.684 81.5096C100.023 83.4208 112.244 85.8863 112.244 85.8863L117.413 103.272C117.413 103.272 126.737 112.643 129.132 113.012C131.528 113.382 145.768 115.847 145.768 115.847C145.768 115.847 147.656 87.6127 147.656 86.9947C147.656 86.3768 139.966 38.2913 139.966 38.2913L109.724 22.5049Z" fill="#E99F86"/>
<path d="M152.316 468.863C148.123 462.48 141.02 453.083 146.476 428.582C147.153 425.536 147.388 422.918 147.277 420.707L132.68 414.891C130.694 417.446 129.405 421.192 129.678 425.951C129.678 425.951 129.952 427.505 129.717 430.843C132.055 430.964 134.744 431.671 136.736 433.844C141.105 438.609 140.935 445.349 140.935 445.349C140.935 445.349 141.105 459.275 153.703 475.495C155.402 477.616 157.544 479.591 157.609 480.203C157.675 480.821 158.43 482.668 156.477 482.178C154.575 481.7 135.766 478.585 124.951 452.293C124.847 452.605 124.75 452.917 124.639 453.242L126.234 467.379L139.256 480.037L159.335 488.669L166.321 484.197C166.321 484.197 156.509 475.24 152.316 468.863Z" fill="#EC8B6A"/>
<path d="M39.1892 431.817C38.7856 432.83 38.3819 433.92 37.9717 435.092C39.3064 436.098 41.0383 437.347 42.2233 438.016C44.4044 439.252 47.2626 442.698 47.2626 446.973C47.2626 451.248 47.0087 463.167 48.1871 473.195C49.3656 483.222 47.0348 486.617 44.8341 487.497C43.4734 488.038 40.7909 489.306 37.0147 487.006C35.2307 485.917 32.3855 482.77 31.2461 474.768C31.7214 482.266 33.9025 484.904 34.8271 486.509C36.3376 489.14 41.8001 491.192 46.8394 487.904C51.8787 484.617 50.4529 473.685 50.4529 473.685C50.4529 473.685 49.1117 465.053 49.8669 453.025C50.6222 440.997 55.4141 437.022 55.4141 437.022C55.8504 436.149 56.2345 435.321 56.573 434.531L39.1892 431.817Z" fill="#EC8B6A"/>
<path d="M127.556 65.7422C113.922 74.4572 110.94 75.0305 105.23 76.5914C99.5203 78.1522 96.916 73.3869 96.916 73.3869C96.916 73.3869 98.5893 78.2732 100.224 83.134C105.797 84.5801 112.249 85.8797 112.249 85.8797L114.515 93.499C116.364 93.3716 118.154 93.1231 119.6 92.7027C125.231 91.059 121.279 83.2487 120.27 80.3755C119.261 77.5024 120.355 75.1962 122.288 72.5651C124.216 69.9341 127.556 65.7422 127.556 65.7422Z" fill="#EC8B6A"/>
<path d="M147.656 86.9952C147.656 86.3772 139.967 38.2918 139.967 38.2918L109.724 22.5117L91.2008 24.4866C91.2008 24.4866 85.5299 37.8012 85.6536 40.0246C85.6927 40.7508 85.888 43.8278 86.1614 47.6948C86.4739 47.8668 86.6432 47.9496 86.6563 47.9178C86.8255 47.5037 91.3635 37.9732 91.3635 37.9732C91.3635 37.9732 91.9495 30.3285 95.563 31.1503C99.1765 31.9721 103.122 32.7557 109.848 31.0866C112.198 31.0866 113.546 30.7362 114.802 31.8893C116.059 33.0424 117.322 34.3547 118.5 37.9732C119.679 41.5917 123.54 41.2605 123.54 41.2605C123.54 41.2605 127.824 41.012 129.927 40.5215C132.03 40.0309 134.126 42.0823 134.38 42.6556C134.634 43.229 137.154 45.8601 133.54 53.5876C129.927 61.3152 125.141 65.093 126.567 79.4842C127.993 93.8755 142.304 91.7286 142.304 91.7286L147.513 89.295C147.604 87.9444 147.656 87.0971 147.656 86.9952Z" fill="#EC8B6A"/>
<path d="M87.0845 206.393C87.0845 206.393 85.9061 219.549 81.8759 231.545C77.8457 243.547 77.5072 247.407 77.5072 247.407C77.5072 247.407 76.6673 255.422 78.7703 260.747C79.4018 262.085 79.7339 264.219 79.6948 266.36C79.6557 268.501 79.5711 275.196 80.5738 277.948C81.5829 280.7 81.2444 281.732 81.2444 281.732C81.2444 281.732 80.6128 281.65 79.4799 281.032C78.3471 280.414 74.0174 278.362 73.6854 274.005C73.3468 269.647 70.6578 267.016 69.1083 268.169C67.5522 269.322 65.4102 270.717 65.625 271.456C65.8334 272.195 69.4469 273.967 70.7099 279.063C70.749 280.133 70.5862 280.42 69.4924 279.636C68.3986 278.853 66.7644 277.744 65.9245 277.91C65.0846 278.076 67.8973 280.872 67.3113 285.389C67.2267 286.376 66.5951 286.376 66.5951 286.376C66.5951 286.376 66.0222 285.638 65.612 285.434C65.612 286.052 66.2175 290.861 64.7005 294.149C64.1145 294.932 63.776 293.448 63.776 293.448C63.776 293.448 63.0598 290.078 60.2927 286.217C60.2927 286.791 58.027 293.531 54.9604 296.984C54.4135 297.436 54.0359 296.448 54.0359 295.958C54.0359 295.467 55.1687 289.504 54.8367 285.026C54.4981 280.547 54.7976 278.037 54.3744 274.177C53.9512 270.316 53.2806 268.507 54.459 266.653C55.6375 264.806 60.2146 257.282 60.8852 256.212C61.5558 255.141 62.7342 253.663 63.4504 252.638C64.1666 251.612 67.0639 247.541 67.1876 245.611C67.3113 243.681 67.7736 208.292 68.6981 204.839C69.6096 201.38 87.7812 200.832 87.0845 206.393Z" fill="#E99F86"/>
<path d="M81.8762 231.544C85.9064 219.542 87.0849 206.393 87.0849 206.393C87.7815 200.832 69.61 201.38 68.6854 204.832C68.4901 205.559 68.3208 207.693 68.1646 210.623C70.6777 211.999 75.2027 213.439 83.0547 213.216C83.8946 213.242 84.3699 214.325 84.396 214.86C84.4611 216.153 83.1003 223.142 81.121 230.582C79.9751 234.895 78.0024 240.024 77.6378 243.101C76.6286 251.485 76.902 253.294 77.1559 255.186C77.4099 257.078 77.9112 261.41 77.9112 261.41C77.9112 261.41 77.9763 262.582 77.807 265.5C77.6377 268.418 76.7588 272.813 77.8917 276.107C78.4581 277.744 79.1938 279.675 79.7993 281.197C80.7369 281.662 81.2512 281.739 81.2512 281.739C81.2512 281.739 81.5898 280.713 80.5806 277.954C79.5714 275.202 79.6561 268.5 79.7017 266.366C79.7407 264.232 79.4087 262.092 78.7772 260.754C76.6742 255.434 77.5141 247.414 77.5141 247.414C77.5141 247.414 77.8396 243.547 81.8762 231.544Z" fill="#EC8B6A"/>
<path d="M63.7702 293.441C63.7702 293.441 64.1088 294.919 64.6948 294.142C66.2053 290.855 65.6063 286.045 65.6063 285.427C66.0099 285.631 66.5894 286.37 66.5894 286.37C66.5894 286.37 67.221 286.37 67.3056 285.382C67.8916 280.859 65.0789 278.069 65.9188 277.903C66.7587 277.738 68.3994 278.846 69.4867 279.63C70.5805 280.413 70.7498 280.12 70.7042 279.056C69.4411 273.96 65.8342 272.195 65.6193 271.45C65.411 270.711 67.553 269.316 69.1026 268.163C70.6521 267.01 73.3476 269.641 73.6797 273.998C73.7903 275.457 74.3568 276.648 75.0925 277.623C74.4154 275.871 73.6081 273.189 72.8007 269.106C72.2148 265.321 66.1662 266.723 64.9031 269.596C63.6401 272.476 61.5436 275.432 60.5344 280.777C59.5968 285.752 59.2322 290.231 54.1017 296.397C54.2385 296.856 54.5445 297.302 54.9481 296.964C58.0147 293.511 60.2805 286.771 60.2805 286.198C63.0541 290.071 63.7702 293.441 63.7702 293.441Z" fill="#EC8B6A"/>
</g>
<path d="M140.428 87.4466C140.428 87.4466 145.467 94.6773 143.618 111.203C143.494 111.534 143.39 112.228 142.544 111.674C141.704 111.12 135.362 104.131 120.934 99.2641L109.847 102.902L116.403 157.027L122.829 157.887C122.829 157.887 124.971 161.747 127.999 164.009C129.047 166.391 128.715 170.01 128.715 170.01L126.944 178.642C126.944 178.642 113.506 192.167 109.853 206.469C106.201 220.771 102.418 231.62 101.161 238.405C99.8981 245.19 91.0825 280.203 85.1577 294.014C79.2329 307.826 67.7674 334.334 63.2294 343.705C58.6914 353.076 51.6337 364.422 43.5734 394.632C42.4405 397.836 42.3558 398.575 41.8936 398.76C41.4313 398.945 39.12 398.575 38.2801 400.709C37.4402 402.844 32.1469 417.152 31.6456 418.057C31.1443 418.961 30.9294 419.452 31.6456 421.095C32.3618 422.739 46.9785 440.43 65.9444 436.181C69.662 435.257 68.464 433.41 68.7766 431.403C69.0891 429.396 72.1491 418.515 73.0932 416.483C74.0373 414.451 73.9136 413.986 73.2495 412.967C72.5854 411.947 73.6596 408.928 73.6596 408.928C73.6596 408.928 80.4569 391.255 82.9766 385.745C85.4962 380.234 99.9437 349.655 104.482 338.64C109.02 327.626 126.052 291.721 126.052 291.721C126.052 291.721 136.762 270.143 137.14 269.838C137.517 269.532 137.452 271.379 137.452 271.379C137.452 271.379 139.907 288.147 138.273 301.958C136.632 315.77 135.44 324.09 133.8 332.104C132.159 340.118 130.017 358.243 129.138 367.123C128.259 376.004 124.665 400.786 125.043 405.717C124.476 406.704 122.211 407.322 121.514 414.037C120.824 420.758 120.694 424.249 120.524 425.485C120.355 426.721 120.27 427.619 121.742 427.867C123.213 428.116 154.55 432.104 156.06 432.104C157.571 432.104 158.495 432.435 158.541 430.664C158.58 428.899 159.042 414.674 159.381 412.661C159.719 410.648 159.674 409.743 158.795 409.252C157.916 408.762 156.229 407.896 155.852 407.488C155.474 407.074 155.936 400.996 156.229 397.747C156.522 394.498 165.305 331.741 167.317 320.395C169.336 309.049 172.864 291.294 173.867 283.28C174.876 275.265 177.396 258.128 176.764 244.565C176.133 231.002 171.347 186.37 171.347 186.37C171.347 186.37 167.063 162.818 167.942 156.16C168.821 149.503 172.604 138.526 172.103 135.57C171.601 132.608 173.613 122.256 163.788 107.578C153.957 92.9063 146.398 84.6436 146.398 84.6436L140.428 87.4466Z" fill="#0F5B34"/>
<path d="M144.673 92.8301C144.673 92.8301 158.495 107.502 162.942 132.576C163.151 133.5 163.216 134.59 162.942 134.303C162.669 134.016 150.175 117.236 143.683 112.949C143.683 112.949 146.835 104.705 142.928 92.8301C143.247 92.8301 144.673 92.8301 144.673 92.8301Z" fill="#1C7D50"/>
<path d="M122.83 101.545C122.83 101.545 126.828 140.055 125.161 157.976C125.096 158.498 125.174 159.823 126.685 161.531C128.482 163.557 129.953 163.805 130.233 163.862C131.483 164.111 132.688 164.149 133.287 164.06C134.087 163.932 134.986 163.773 134.439 163.136C133.892 162.499 131.307 161.104 131.392 152.51C131.392 152.058 131.646 152.548 131.815 153.453C131.984 154.357 135.845 163.684 139.628 164.219C143.411 164.754 148.45 164.423 149.082 163.971C149.713 163.518 150.13 163.767 149.583 162.41C149.036 161.053 148.151 158.243 149.29 155.096C149.544 154.396 149.713 155.466 149.837 155.956C149.961 156.447 151.64 163.187 153.828 163.232C156.009 163.27 157.819 160.48 158.112 159.696C158.405 158.912 160.886 154.765 161.218 147.98C161.218 147.49 161.491 147.694 161.595 148.471C161.706 149.299 161.472 156.32 160 161.868C159.864 162.282 159.584 162.569 159.584 162.798C159.584 163.028 159.662 163.27 159.733 163.251C159.805 163.232 160.671 162.289 160.671 162.289C160.671 162.289 166.869 152.453 162.461 140.928C158.054 129.41 147.91 111.343 122.83 101.545Z" fill="#1C7D50"/>
<path d="M152.817 173.553C152.817 173.553 148.787 173.183 146.892 175.031C145.004 176.878 137.758 184.65 135.238 190.69C132.718 196.729 126.117 216.006 125.472 233.271C124.827 250.535 124.827 254.778 124.827 254.778C124.827 254.778 125.127 255.613 123.486 254.103C121.845 252.593 107.45 237.635 105.855 236.647C105.269 236.112 104.93 236.157 104.891 236.768C104.852 237.38 101.909 256.906 93.9728 277.993C86.0362 299.079 75.1957 324.352 69.1472 335.819C63.0987 347.286 52.3039 371.947 49.8688 379.26C47.4338 386.574 43.8854 396.849 43.1888 398.391C42.4986 399.933 42.4335 400.239 43.1888 401.162C43.944 402.086 44.8881 403.073 43.1888 402.583C41.4894 402.092 40.6691 401.965 39.4711 403.443C38.2732 404.921 34.1778 411.272 34.1127 415.585C34.0476 419.898 36.8863 423.848 36.8863 423.848C36.8863 423.848 41.8671 431.308 49.0485 432.232C56.2299 433.156 57.5515 432.296 58.8146 431.741C60.0777 431.187 63.2876 429.397 64.9869 422.803C66.6862 416.21 65.7421 412.324 60.8916 410.349C56.041 408.374 46.34 404.182 46.34 404.182C46.34 404.182 52.9419 406.832 56.5684 405.29C60.2014 403.749 64.2316 403.194 69.7788 390.249C75.326 377.304 82.5725 360.843 82.5725 360.843C82.5725 360.843 87.9569 348.375 89.3762 345.432C92.3321 339.284 97.0524 330.512 98.8169 327.862C100.581 325.212 112.542 305.112 118.421 294.754C124.3 284.395 147.491 244.279 157.909 218.637C157.909 251.682 153.201 303.08 153.201 303.08C153.201 303.08 146.652 361.499 139.757 402.933C141.267 403.099 146.437 405.15 146.437 405.15C146.437 405.15 147.023 405.188 144.549 405.233C142.074 405.278 132.406 404.577 130.856 412.464C129.307 420.351 128.942 424.466 132.79 426.256C136.631 428.046 143.5 430.696 153.52 430.512C154.276 430.021 155.409 425.766 155.409 425.766C155.409 425.766 157.928 411.151 155.597 409.183C153.267 407.208 150.239 405.73 150.239 405.73C150.239 405.73 150.05 405.055 151.561 405.055C152.042 404.991 152.401 404.602 154.204 386.618C154.204 386.618 157.479 356.982 161.431 334.87C165.383 312.757 170.422 289.574 171.594 281.726C172.773 273.877 176.608 236.176 170.865 202.501C167.981 186.332 164.035 174.604 162.518 173.521C161.014 172.444 158.071 173.508 152.817 173.553Z" fill="#1C7D50"/>
<path d="M167.734 162.418C167.734 162.418 162.422 163.673 160.234 164.081C158.053 164.495 155.885 164.699 153.241 164.655C150.598 164.61 145.891 165.069 145.891 165.069C145.891 165.069 140.663 165.215 139.276 165.069C137.889 164.922 135.493 164.967 135.493 164.967C135.493 164.967 132.869 165.177 132.361 165.132C131.86 165.088 128.579 164.132 128.058 164.17C127.53 164.209 126.124 165.871 126.378 167.349C126.632 168.827 127.048 169.178 127.068 169.528C127.088 169.878 126.84 170.7 126.625 170.987C126.417 171.274 126.143 172.631 126.345 173.65C126.541 174.669 127.27 175.096 127.048 175.529C126.827 175.962 125.727 176.58 125.85 177.409C125.974 178.237 125.877 178.543 125.837 179.199C125.798 179.855 126.664 179.352 126.664 179.352C126.664 179.352 127.543 178.982 129.594 178.861C131.645 178.74 139.295 177.198 143.677 174.637C148.059 172.076 149.061 172.14 150.292 172.076C151.522 172.013 163.209 172.541 168.659 169.362C174.115 166.184 167.734 162.418 167.734 162.418Z" fill="#16362B"/>
<path d="M167.924 162.532C167.806 162.455 167.735 162.411 167.735 162.411C167.735 162.411 162.422 163.666 160.234 164.073C158.053 164.487 155.885 164.691 153.242 164.647C150.598 164.608 145.891 165.061 145.891 165.061C145.891 165.061 140.663 165.207 139.276 165.061C137.889 164.914 135.493 164.959 135.493 164.959C135.493 164.959 132.869 165.169 132.362 165.125C131.86 165.08 128.579 164.124 128.058 164.163C127.531 164.201 126.124 165.864 126.378 167.342C126.632 168.819 127.049 169.17 127.068 169.52C127.088 169.871 126.841 170.692 126.626 170.979C126.417 171.266 126.144 172.623 126.346 173.642C126.541 174.661 127.27 175.088 127.049 175.521C126.827 175.955 125.727 176.573 125.851 177.401C125.975 178.229 125.877 178.535 125.838 179.191C125.799 179.847 126.665 179.344 126.665 179.344C126.665 179.344 127.544 178.974 129.595 178.853C131.645 178.732 139.296 177.19 143.677 174.629C144.341 174.241 144.921 173.916 145.448 173.642C145.442 173.642 145.442 173.642 145.435 173.648C130.5 178.923 129.627 177.929 128.305 178.299C126.984 178.668 126.476 177.496 127.485 177.496C128.494 177.496 131.014 176.566 131.014 176.566C131.014 176.566 128.117 177.19 127.361 176.566C126.606 175.942 128.807 174.789 128.807 174.789L138.885 171.826C138.885 171.826 132.961 173.438 130.382 173.68C127.798 173.929 127.355 172.075 127.361 171.584C127.361 171.094 127.361 169.488 128.937 169.488C130.513 169.488 137.629 168.01 137.629 168.01C137.629 168.01 132.59 168.813 130.317 168.87C128.051 168.934 128.11 168.565 127.42 167.252C126.73 165.94 132.082 165.462 132.082 165.462C132.082 165.462 133.149 165.125 138.885 165.36C144.621 165.596 146.887 165.36 146.887 165.36C146.887 165.36 151.673 164.927 154.576 164.927C161.732 164.921 166.739 163.029 167.924 162.532Z" fill="black"/>
<path d="M123.878 452.337C123.878 452.337 125.057 450.694 125.142 452.828C125.226 454.962 130.266 468.117 138.749 474.118C147.233 480.119 152.474 484.362 165.235 484.088C165.925 483.84 165.99 483.687 165.99 483.687C165.99 483.687 172.924 488.771 181.87 490.191C190.816 491.612 181.714 498.116 181.714 498.116C181.714 498.116 181.18 498.671 178.908 498.671C176.635 498.671 159.499 498.671 159.499 498.671C159.499 498.671 155.404 498.238 151.686 494.383C147.968 490.529 141.764 480.82 133.794 480.82C125.825 480.82 127.271 493.861 127.271 493.861L127.87 498.116C127.87 498.116 128.182 499.257 126.737 499.257C125.291 499.257 122.355 486.834 122.355 486.834C122.355 486.834 115.733 465.41 123.878 452.337Z" fill="black"/>
<path d="M119.249 90.2947C119.249 90.2947 122.641 94.8879 122.895 109.375C123.148 123.862 123.904 155.18 124.093 163.257C124.281 171.335 124.093 199.449 124.093 199.449C124.093 199.449 124.47 236.01 124.724 244.827C124.978 253.644 124.724 252.777 124.724 252.777C124.724 252.777 124.789 254.81 123.148 252.16C121.508 249.509 112.503 239.272 107.399 235.144C107.399 235.144 103.284 231.652 102.587 231.238V232.079C102.587 232.079 100.426 231.506 100.048 230.372C99.6706 229.238 100.172 228.072 100.68 227.25C101.181 226.429 107.399 217.204 106.709 193.773C106.019 170.342 104.026 156.74 104.026 156.74C104.026 156.74 103.994 156.186 103.558 157.441C103.121 158.696 95.4907 180.089 91.4605 196.952C92.5022 197.015 93.4463 197.232 93.3487 198.984C93.251 200.742 92.5283 207.801 92.2744 208.693C92.1767 209.4 92.3395 210.082 92.1181 210.419C91.8968 210.757 87.9903 212.362 79.1356 211.591C70.281 210.821 65.4304 206.909 64.6752 202.774C64.5645 202.099 64.278 201.379 65.1179 199.322C65.1179 199.322 67.4292 194.391 68.2236 192.352C69.0179 190.314 69.1871 189.804 69.1871 189.581C69.1871 189.358 69.5843 188.823 71.9412 189.23C72.3644 188.288 78.6603 178.362 80.555 162.824C82.4431 147.286 84.3963 127.251 84.3963 127.251C84.3963 127.251 87.1634 107.336 94.6834 103.227C99.0781 100.061 104.554 99.6914 105.647 99.6914C106.741 99.6914 115.394 100.596 118.584 92.1294C119.047 91.1547 118.877 89.6003 119.249 90.2947Z" fill="#212121"/>
<path d="M143.684 87.2433C143.684 87.2433 145.826 86.6891 149.986 93.0406C154.146 99.3921 161.204 106.049 169.961 132.003C170.782 134.59 170.97 138.106 169.961 141.005C168.952 143.904 165.866 151.051 167.064 161.353C168.262 171.648 173.19 204.119 173.19 204.119C173.19 204.119 177.331 246.171 176.726 255.071C178.275 253.529 183.855 246.28 183.979 245.598C184.103 244.916 184.48 244.056 183.979 240.298C183.478 236.539 180.417 218.567 181.173 199.328C181.928 180.095 182.937 170.724 182.872 166.902C182.807 163.079 181.42 154.511 180.73 150.625C180.04 146.739 179.031 140.699 179.975 134.042C180.919 127.385 182.052 122.084 176.511 112.834C170.964 103.584 163.405 91.0721 151.685 81.5161C147.089 82.4335 143.684 87.2433 143.684 87.2433Z" fill="#212121"/>
<path d="M124.717 252.771C124.717 252.771 124.73 252.816 124.75 252.778C120.303 246.84 113.506 240.317 113.506 240.317C113.506 240.317 112.842 239.361 112.816 238.896C112.783 238.431 113.128 236.679 113.258 234.825C116.156 169.475 110.53 159.613 108.427 147.77C106.324 135.934 105.823 126.932 105.699 124.505C105.198 134.207 102.464 146.617 101.539 150.605C100.614 154.593 100.068 154.058 95.1128 168.239C90.1581 182.42 89.1034 192.862 88.9797 193.843C88.856 194.824 88.3937 194.913 88.0161 194.996C83.1005 195.614 77.5989 193.639 77.3449 193.518C77.091 193.397 76.3357 193.27 76.5897 193.722C79.6953 195.901 83.9794 196.353 85.3272 196.27C86.6749 196.187 86.2517 196.232 86.167 197.544C86.0824 198.857 85.3662 205.807 85.1188 207.858C84.8714 209.91 83.9859 209.916 82.853 210.241C76.466 211.063 70.0008 207.24 66.804 204.94C63.6137 202.641 65.1633 200.335 65.1633 200.335L67.4551 195.888C67.4551 195.888 69.4734 190.893 69.8836 190.435C70.2938 189.97 71.9605 190.772 72.3381 190.587C72.7158 190.403 72.2209 191.091 77.6444 179.827C83.0679 168.564 84.7216 135.501 85.6657 126.435C86.6098 117.37 91.278 109.789 95.3733 105.476C99.4686 101.163 101.168 102.329 110.368 101.163C116.852 100.335 119.112 94.6713 119.873 91.4032C119.509 90.626 119.255 90.2883 119.255 90.2883C118.884 89.5939 119.059 91.1484 118.597 92.1294C115.407 100.596 106.754 99.6914 105.66 99.6914C104.566 99.6914 99.0844 100.061 94.6961 103.227C87.1762 107.336 84.4091 127.251 84.4091 127.251C84.4091 127.251 82.4559 147.286 80.5678 162.824C78.6797 178.362 72.3772 188.288 71.954 189.231C69.6036 188.816 69.1999 189.352 69.1999 189.581C69.1999 189.804 69.0307 190.32 68.2364 192.352C67.4421 194.384 65.1307 199.322 65.1307 199.322C64.2908 201.379 64.5838 202.099 64.688 202.774C65.4432 206.903 70.2938 210.821 79.1484 211.591C88.0031 212.362 91.9095 210.757 92.1309 210.419C92.3523 210.082 92.196 209.4 92.2872 208.693C92.5411 207.801 93.2638 200.742 93.3614 198.984C93.4591 197.226 92.5085 197.009 91.4733 196.952C95.5035 180.089 103.128 158.696 103.57 157.441C104.013 156.186 104.039 156.74 104.039 156.74C104.039 156.74 106.025 170.342 106.722 193.773C107.412 217.198 101.2 226.429 100.693 227.25C100.191 228.072 99.6834 229.244 100.061 230.372C100.439 231.5 102.6 232.079 102.6 232.079V231.238C103.29 231.653 107.412 235.144 107.412 235.144C112.516 239.272 121.527 249.509 123.161 252.16C124.782 254.81 124.717 252.771 124.717 252.771Z" fill="black"/>
<path d="M183.979 240.291C183.478 236.533 180.417 218.561 181.173 199.322C181.928 180.089 182.937 170.718 182.872 166.895C182.807 163.073 181.42 154.504 180.73 150.618C180.04 146.732 179.031 140.693 179.975 134.036C180.919 127.378 182.052 122.078 176.511 112.828C170.97 103.578 163.405 91.0657 151.685 81.5098C147.089 82.4335 143.684 87.2433 143.684 87.2433C143.684 87.2433 145.305 86.8293 148.456 90.881C151.92 92.1424 155.904 94.3338 158.411 98.1371C163.62 106.03 172.858 119.835 173.028 128.226C173.197 136.609 174.864 141.871 174.2 144.503C173.536 147.134 172.357 151.733 172.188 153.874C172.019 156.008 169.499 169.329 173.197 189.218C176.895 209.113 176.674 218.809 176.869 223.25C177.064 227.69 177.904 232.787 178.744 237.386C179.46 241.304 180.769 246.42 176.791 253.134C176.784 253.886 176.765 254.542 176.732 255.071C178.282 253.529 183.862 246.28 183.985 245.598C184.109 244.916 184.48 244.05 183.979 240.291Z" fill="black"/>
<path d="M100.862 30.8886C100.862 30.8886 105.901 31.1371 113.382 29.4934C116.741 29.4934 118.337 31.3027 119.176 33.6025C120.016 35.9023 120.856 40.0113 125.811 39.6036C130.766 39.1959 134.125 36.9725 136.228 43.547C138.331 50.1215 131.775 59.824 131.775 59.824C131.775 59.824 124.131 71.8262 128.246 82.3441C132.361 92.8684 143.117 90.868 143.117 90.868C143.117 90.868 151.685 88.0968 151.431 82.1785C154.374 84.644 160.403 90.4858 168.652 101.991C168.652 101.991 169.7 103.017 170.918 100.679C172.135 98.3344 177.975 88.186 170.286 80.7451C162.597 73.3042 159.407 74.2535 156.841 68.3351C154.276 62.4168 153.189 60.9771 155.038 51.1982C156.887 41.4193 160.748 30.5255 153.82 19.8611C146.886 9.19662 139.829 10.5918 138.448 10.1841C137.784 10.1841 137.348 10.2478 136.717 9.32404C136.085 8.4003 131.899 0.978516 117.152 0.978516C102.405 0.978516 97.6193 5.06846 95.7898 6.61015C93.9603 8.15184 80.4373 18.8991 79.7667 36.1635C79.0961 53.4279 86.0887 73.6865 86.3426 74.6739C86.5966 75.6614 90.184 85.8926 86.4664 99.2136C82.7487 112.528 83.1263 110.413 83.1914 114.318C83.2565 118.224 84.2657 119.491 84.767 120.237C85.2683 120.982 85.6069 120.982 85.6069 120.982L87.0979 116.382C87.0979 116.382 89.7738 106.922 95.2559 103.495C100.738 100.074 102.724 100.564 107.073 100.074C111.422 99.5831 119.958 96.8373 119.294 87.8675C118.63 78.8976 115.387 74.8905 115.387 74.8905C115.387 74.8905 114.853 73.782 113.31 74.7695C111.767 75.7569 108.362 77.0502 108.362 77.0502C108.362 77.0502 104.553 77.9102 102.314 77.4197C100.074 76.9291 99.4488 76.0309 99.1624 73.9349C98.8759 71.839 98.8759 69.2207 98.4071 68.6346C97.9383 68.0485 97.1766 67.4942 97.1766 67.4942C97.1766 67.4942 96.4864 66.7234 96.7664 65.8888C96.3237 65.3983 95.0996 64.379 95.7247 63.0858C96.3562 61.7925 97.1115 60.6522 96.1674 59.601C95.2233 59.1997 92.2935 58.3396 91.5382 57.4095C90.783 56.4858 89.8715 55.218 90.6593 53.8356C91.4471 52.4468 94.8718 45.6366 94.8913 45.0378C94.9108 44.4389 95.7963 41.9735 94.4681 39.7183C93.1464 37.4567 91.9159 34.3224 92.9576 31.6085C93.9993 28.8946 96.2976 30.0031 96.2976 30.0031C96.2976 30.0031 98.4266 30.6784 100.862 30.8886Z" fill="#EDDBCD"/>
<path d="M170.293 80.7448C162.604 73.3039 159.414 74.2532 156.848 68.3348C154.283 62.4165 153.196 60.9768 155.045 51.1979C156.894 41.419 160.755 30.5252 153.827 19.8608C146.893 9.19633 139.836 10.5915 138.455 10.1838C138.175 10.1838 137.934 10.1901 137.707 10.1328L135.682 12.4008C135.682 12.4008 143.807 12.834 148.072 25.3076C149.641 29.9009 150.422 33.4875 148.788 41.0686C147.147 48.6496 144.569 57.199 145.826 65.7484C147.082 74.2978 146.77 80.4645 143.684 82.4968C140.597 84.529 137.381 86.0133 132.719 82.1272C128.058 78.2412 128.813 71.5202 128.813 71.5202C128.813 71.5202 128.181 66.0351 135.552 53.1473C137.641 48.6114 138.664 41.4572 134.087 39.8072C134.393 40.062 134.679 40.3805 134.953 40.7819C134.966 40.801 134.979 40.8265 134.992 40.8456C135.063 40.9539 135.135 41.0686 135.206 41.1896C135.233 41.2278 135.252 41.2724 135.278 41.3107C135.337 41.419 135.395 41.5273 135.46 41.6419C135.486 41.6929 135.512 41.7439 135.539 41.8012C135.591 41.9159 135.649 42.0305 135.701 42.1579C135.727 42.2153 135.753 42.279 135.779 42.3363C135.831 42.4637 135.89 42.6039 135.942 42.744C135.962 42.8014 135.988 42.8587 136.007 42.9224C136.079 43.1263 136.157 43.3365 136.229 43.5595C138.332 50.134 131.775 59.8364 131.775 59.8364C131.775 59.8364 124.132 71.8387 128.246 82.3566C132.361 92.8809 143.117 90.8805 143.117 90.8805C143.117 90.8805 151.685 88.1093 151.431 82.191C154.374 84.6564 160.403 90.4983 168.652 102.004C168.652 102.004 169.701 103.029 170.918 100.691C172.136 98.3532 177.982 88.1857 170.293 80.7448Z" fill="#F6D5B5"/>
<path d="M95.2629 103.488C100.745 100.067 102.731 100.557 107.08 100.067C111.429 99.5762 119.965 96.8305 119.301 87.8606C118.637 78.8908 115.394 74.8837 115.394 74.8837C115.394 74.8837 114.86 73.7752 113.317 74.7626C112.438 75.3232 110.967 75.9794 109.854 76.4445C108.734 76.9159 107.562 77.2281 106.351 77.3873C105.088 77.553 103.492 77.6676 102.321 77.4064C100.081 76.9159 99.4558 76.0177 99.1693 73.9217C98.8829 71.8258 98.8828 69.2074 98.4141 68.6214C97.9388 68.0353 97.1835 67.481 97.1835 67.481C97.1835 67.481 96.4934 66.7102 96.7733 65.8756C96.3306 65.3851 95.1066 64.3658 95.7316 63.0725C96.3632 61.7793 97.1184 60.639 96.1744 59.5878C96.0116 59.5177 95.7837 59.4349 95.5168 59.3394C95.1131 61.2123 95.0089 63.6013 95.8553 66.277C97.8737 72.6285 100.393 77.4893 101.272 79.6234C102.151 81.7512 103.792 87.7842 99.0652 91.8295C94.4751 95.7539 81.7074 99.0921 85.2818 120.816C85.4837 120.969 85.6009 120.975 85.6009 120.975L87.0918 116.376C87.1048 116.369 89.7808 106.909 95.2629 103.488Z" fill="#F6D5B5"/>
<path d="M99.7942 39.304C100.914 39.3486 102.014 39.6098 103.03 40.0876C103.831 40.4635 104.808 41.0304 105.693 41.8204C105.986 42.1071 106.618 43.0945 104.768 42.3555C102.919 41.6165 100.23 40.5463 97.3787 40.6673C96.7081 40.6673 95.6534 40.2978 97.1704 39.8455C98.3228 39.5015 98.5181 39.253 99.7942 39.304Z" fill="black"/>
<path d="M100.003 46.3627C100.56 46.3627 101.012 45.0022 101.012 43.3239C101.012 41.6457 100.56 40.2852 100.003 40.2852C99.4455 40.2852 98.9937 41.6457 98.9937 43.3239C98.9937 45.0022 99.4455 46.3627 100.003 46.3627Z" fill="black"/>
</svg>
