<svg width="301" height="530" viewBox="0 0 301 530" fill="none" xmlns="http://www.w3.org/2000/svg">
<path d="M142.502 225.734C142.502 225.734 142.375 227.892 142.716 230.605C143.063 233.317 143.965 234.961 143.618 238.148C143.27 241.336 144.353 244.316 144.52 246.293C144.693 248.278 153.527 298.798 147.152 340.526C140.771 382.253 145.97 446.745 145.97 446.745C145.97 446.745 148.535 497.265 148.362 504.682C148.188 512.099 123.185 517.271 123.185 517.271C123.185 517.271 113.182 524.166 111.458 512.44C109.735 500.713 110.944 493.47 112.494 470.712C114.044 447.954 114.044 436.228 112.494 418.809C110.944 401.396 108.184 352.426 106.975 343.111C105.766 333.797 105.766 323.801 94.3867 275.693C93.5247 272.071 92.469 273.775 92.2084 275.586C91.9478 277.397 89.8832 283.604 88.3264 289.684C86.7762 295.765 75.3304 339.924 72.0964 357.13C68.8625 374.328 63.9514 403.427 63.5639 431.364C63.1764 459.3 65.5885 510.722 57.6573 510.896C49.726 511.07 34.0374 509.52 34.0374 509.52C34.0374 509.52 29.5539 511.244 29.0394 499.003C28.525 486.762 27.8301 478.831 28.0038 468.307C28.1775 457.783 28.692 445.716 31.2778 428.992C33.8636 412.267 35.2468 397.434 35.935 379.507C36.6232 361.573 37.8326 331.746 37.3114 301.05C36.7902 270.354 48.6904 224.838 48.6904 224.838C48.6904 224.838 53.0001 215.01 97.6607 215.872C142.321 216.733 142.502 225.734 142.502 225.734Z" fill="#3B62C7"/>
<path d="M148.367 504.682C148.401 503.299 148.334 500.419 148.214 496.651C136.721 489.829 131.69 498.943 130.694 501.194C129.659 503.519 130.307 503.78 128.496 503.519C126.685 503.259 122.937 503.907 120.739 504.168C118.54 504.428 118.928 504.041 118.153 501.061C117.378 498.087 118.026 477.006 118.54 474.935C119.055 472.864 121.126 452.952 121.647 407.169C122.168 361.386 110.442 310.865 107.85 297.589C105.257 284.312 99.5709 275.693 98.3682 272.071C97.1588 268.45 94.9204 266.038 92.5083 272.419C83.9691 294.996 68.0198 369.324 66.1289 384.498C64.2313 399.672 62.3337 430.709 62.3337 430.709C62.3337 430.709 62.3337 482.773 61.9862 493.978C61.6855 503.707 53.5338 492.782 49.0571 492.094C44.5736 491.406 44.0592 491.92 41.1259 490.544C38.1926 489.167 35.9542 467.786 36.8162 451.402C37.6781 435.018 43.1972 410.016 45.4356 390.365C47.674 370.707 50.0928 321.91 50.0928 296.734C50.0928 271.557 56.2132 251.084 57.6364 245.779C59.0596 240.474 61.131 236.725 67.8528 234.266C74.5746 231.807 84.664 250.817 103.159 249.788C121.674 248.752 136.634 237.039 142.848 231.366C142.808 231.119 142.762 230.872 142.728 230.605C142.381 227.892 142.514 225.734 142.514 225.734C142.514 225.734 142.341 216.727 97.68 215.865C53.0193 215.003 48.7096 224.832 48.7096 224.832C48.7096 224.832 36.8095 270.354 37.3307 301.043C37.8518 331.732 36.6424 361.566 35.9542 379.5C35.266 397.434 33.8829 412.261 31.2971 428.985C28.7112 445.709 28.1901 457.783 28.023 468.3C27.8493 478.817 28.5375 486.748 29.0587 498.996C29.5732 511.237 34.0566 509.513 34.0566 509.513C34.0566 509.513 49.7453 511.063 57.6765 510.889C65.6077 510.716 63.1956 459.286 63.5831 431.357C63.9707 403.421 68.8884 374.328 72.1157 357.123C75.3496 339.924 86.7954 295.758 88.3456 289.678C89.8958 283.597 91.9671 277.39 92.2277 275.579C92.4883 273.769 93.544 272.065 94.4059 275.686C105.785 323.795 105.785 333.797 106.994 343.105C108.204 352.412 110.963 401.389 112.513 418.802C114.064 436.215 114.064 447.941 112.513 470.706C110.963 493.47 109.754 500.706 111.478 512.433C113.202 524.159 123.204 517.264 123.204 517.264C123.204 517.264 148.194 512.099 148.367 504.682Z" fill="#2651C0"/>
<path d="M114.079 73.6443L116.518 75.1076C116.518 75.1076 116.992 74.7201 117.981 78.1679C118.97 81.6156 118.496 82.6513 120.219 83.7271C121.943 84.8028 129.36 89.0724 130.783 89.46C132.206 89.8475 135.093 89.4199 135.614 90.0613C136.129 90.7095 136.389 91.7852 137.772 92.0458C139.149 92.3064 141.955 93.9434 144.628 95.6673C147.3 97.3912 176.052 116.661 177.562 117.049C179.072 117.436 179.413 117.436 180.275 116.488C181.137 115.539 181.264 115.626 182.513 115.666C183.763 115.706 185.62 115.492 185.62 115.492C185.62 115.492 187.043 114.931 188.293 115.706C189.542 116.481 194.026 120.49 192.736 122.127C192.736 122.127 189.288 124.065 188.253 128.207C187.217 132.343 184.631 143.555 185.146 145.84C185.66 148.125 188.206 149.375 189.328 149.027C189.328 149.027 188.466 153.424 183.856 152.001C182.346 151.961 178.471 152.736 178.25 148.767C178.25 148.767 173.807 149.154 174.114 146.355C174.114 146.355 171.094 146.656 168.208 144.718C168.208 144.718 168.081 143.943 165.969 144.03C163.858 144.116 145.964 141.918 142.65 140.709C142.65 140.709 140.625 140.061 140.325 141.009C140.024 141.958 130.797 160.32 133.643 177.739C136.489 195.151 136.576 199.12 142.262 210.76C142.262 210.76 144.073 211.969 143.986 216.54C143.986 216.54 143.124 217.575 144.761 219.727C146.398 221.885 145.276 226.021 142.951 227.23C141.4 227.23 140.792 227.665 140.017 228.607C139.242 229.556 126.828 242.745 106.649 247.229L104.751 241.449C104.751 241.449 103.542 237.828 101.731 240.587C99.9204 243.347 97.5083 247.229 97.5083 247.229C97.5083 247.229 97.3345 248.438 95.6975 247.743C94.0605 247.048 84.5724 243.26 68.9706 230.331C53.3688 217.402 47.8564 228.219 47.8564 228.219L46.3931 234.407C46.3931 234.407 43.5333 236.277 44.1347 228.781C44.736 221.277 51.1171 213.519 52.3265 208.087C53.5359 202.655 54.2241 192.566 52.5002 182.309C50.7763 172.053 48.9656 149.722 48.8787 145.239L48.8854 143.555C48.8854 143.555 48.725 142.393 47.6092 145.56C46.4933 148.727 42.2437 161.389 41.2749 164.101C40.306 166.814 30.8648 183.953 30.8648 183.953L28.3725 185.797L28.0651 187.234C28.0651 187.234 26.4615 187.026 22.7131 192.064C22.7131 192.064 21.7442 193.134 20.0003 192.679C18.2564 192.225 16.2185 193.521 16.2185 193.521C16.2185 193.521 13.9199 196.073 10.2383 194.229C9.04228 193.909 7.84626 194.129 6.45646 194.129C5.06666 194.129 3.38287 193.321 2.38061 190.768C1.37835 188.216 -2.37009 179.743 2.38061 169.594C4.031 165.391 6.61682 163.774 6.61682 163.774C6.61682 163.774 7.07118 164.743 8.49438 160.026C9.91759 155.308 19.292 133.452 24.5973 121.232C29.9026 109.011 35.0074 98.7943 36.7514 92.0057C38.4953 85.2171 40.2459 85.2839 41.7961 85.0901C43.3462 84.8964 44.1213 84.9632 45.2906 85.932C46.4532 86.9009 48.9789 85.2238 48.9789 85.2238C48.9789 85.2238 66.1175 81.2147 79.0467 74.0987C79.7549 72.4149 83.5167 65.2254 85.254 65.3724C89.1828 65.6931 114.079 73.6443 114.079 73.6443Z" fill="#381033"/>
<path d="M189.602 148.206C188.479 148.553 185.66 148.139 185.139 145.854C184.624 143.569 186.909 131.802 187.938 127.659C188.974 123.523 192.722 122.14 192.722 122.14C192.762 122.087 192.782 122.033 192.809 121.98C191.132 121.632 188.533 121.659 186.989 124.472C184.577 128.869 182.078 135.851 182.078 135.851C182.078 135.851 179.406 141.283 176.82 139.56C174.234 137.836 173.973 133.893 174.495 130.86C175.009 127.833 176.653 121.365 176.653 121.365C176.653 121.365 174.668 125.074 173.806 125.935C172.944 126.797 171.735 129.042 171.481 130.158C171.221 131.281 170.88 134.555 168.635 136.018C166.396 137.481 165.1 138.09 165.1 138.09C165.1 138.09 155.271 140.762 142.168 136.453C142.168 136.453 137.338 136.098 135.787 125.114C135.787 133.265 134.491 139.386 134.063 142.66C133.629 145.934 125.183 164.73 134.063 195.987C139.108 213.319 142.984 222.306 142.342 223.923C141.694 225.54 141.18 226.028 140.371 226.896C139.603 227.731 125.952 242.164 106.308 246.2L106.648 247.242C126.821 242.759 139.235 229.569 140.017 228.62C140.792 227.671 141.393 227.244 142.95 227.244C145.275 226.034 146.398 221.898 144.761 219.74C143.124 217.582 143.986 216.553 143.986 216.553C144.073 211.983 142.262 210.773 142.262 210.773C136.569 199.134 136.482 195.171 133.643 177.752C130.803 160.333 140.024 141.972 140.324 141.023C140.625 140.074 142.649 140.722 142.649 140.722C145.97 141.932 163.857 144.13 165.969 144.043C168.08 143.956 168.207 144.731 168.207 144.731C171.094 146.669 174.114 146.368 174.114 146.368C173.813 149.168 178.25 148.78 178.25 148.78C178.463 152.749 182.346 151.967 183.856 152.014C188.827 154.152 189.602 148.206 189.602 148.206Z" fill="#2D0B28"/>
<path d="M16.2102 193.528C16.2102 193.528 18.2481 192.232 19.992 192.686C21.736 193.14 22.7048 192.071 22.7048 192.071C26.4533 187.027 28.0569 187.24 28.0569 187.24L28.3642 185.804L30.8565 183.96C30.8565 183.96 40.2978 166.821 41.2666 164.108C42.2355 161.395 46.4851 148.734 47.6009 145.566C48.7167 142.399 48.8771 143.562 48.8771 143.562L48.8704 145.246C48.9573 149.729 50.768 172.059 52.4919 182.316C54.2158 192.572 53.5276 202.662 52.3182 208.094C51.1088 213.526 44.7344 221.284 44.1264 228.787C43.5251 236.291 46.3848 234.413 46.3848 234.413L47.8481 228.226C47.8481 228.226 53.3539 217.402 68.9624 230.337C84.5642 243.267 94.0522 247.062 95.6892 247.75C97.3263 248.438 97.5 247.236 97.5 247.236C97.5 247.236 97.5067 247.229 97.5067 247.222C94.9142 246.547 91.2593 244.977 86.121 241.716C71.6818 232.542 64.5658 226.803 64.5658 225.42C64.5658 224.037 71.9825 193.087 61.2917 144.978C58.5322 129.804 54.5232 114.329 54.5232 114.329C54.5232 114.329 53.7481 112.258 53.0131 114.677C52.2781 117.089 48.102 134.461 38.7877 143.689C29.4734 152.916 20.5132 156.017 19.0432 156.104C19.3907 154.467 22.9253 147.397 22.9253 147.397L46.6321 93.0415C46.6321 93.0415 48.3158 92.0058 48.0553 90.8432C47.7947 89.6806 46.759 88.1304 46.759 88.1304C46.759 88.1304 47.9216 88.4778 48.6566 89.6405C49.3916 90.8031 64.8665 80.2861 83.4016 78.2615C84.1766 78.2615 84.5642 77.874 85.2123 77.012C85.8604 76.1501 87.8449 72.5286 88.9607 71.9673C90.0833 71.4061 90.7314 70.8916 92.1479 71.7067C93.5711 72.5286 99.431 75.0543 104.863 75.4084C109.5 75.7091 112.788 76.0565 117.057 75.669C116.683 74.9674 116.503 75.1144 116.503 75.1144L114.064 73.6511C114.064 73.6511 89.1679 65.6999 85.2257 65.3725C83.4884 65.2321 79.7266 72.4217 79.0183 74.0988C66.0892 81.2148 48.9506 85.2239 48.9506 85.2239C48.9506 85.2239 46.4316 86.9076 45.2623 85.9321C44.0997 84.9633 43.3246 84.8964 41.7678 85.0902C40.2176 85.284 38.467 85.2172 36.7231 92.0058C34.9791 98.7944 29.8676 109.011 24.569 121.232C19.2704 133.452 9.88927 155.308 8.46606 160.026C7.04286 164.743 6.5885 163.774 6.5885 163.774C6.5885 163.774 4.00268 165.391 2.35229 169.594C-2.39841 179.743 1.35003 188.216 2.35229 190.768C3.35455 193.321 5.03834 194.129 6.42814 194.129C7.81794 194.129 9.01397 193.902 10.21 194.229C13.9117 196.087 16.2102 193.528 16.2102 193.528Z" fill="#2D0B28"/>
<path d="M68.1861 529.946H26.4588C26.4588 529.946 25.8574 530.106 25.8574 529.344C25.8574 528.576 25.8574 527.935 25.8574 527.935C25.8574 527.935 25.8908 527.326 26.4655 527.326C26.4655 526.705 26.4588 521.567 28.5301 518.206C28.4967 517.591 27.9154 517.912 28.7239 515.46C29.5324 513.008 30.6616 507.736 30.6616 507.736C32.0848 505.765 34.4768 501.756 36.6751 499.17C38.8734 496.584 43.1764 493.998 46.4037 493.998C49.6377 493.998 54.1612 497.586 56.0387 500.045C57.9163 502.504 60.5623 505.056 60.756 509.52C60.9498 513.983 63.2483 516.181 63.2483 516.181C63.2483 516.181 67.6917 517.832 68.1861 523.491C68.8409 525.656 68.6472 526.986 68.6472 526.986C68.6472 526.986 69.1349 526.986 69.1349 527.534C69.1349 528.082 69.1349 529.605 69.1349 529.605C69.1349 529.605 69.2084 529.946 68.1861 529.946Z" fill="#130013"/>
<path d="M181.903 529.959H115.434C115.434 529.959 112.935 530.46 112.848 527.961C112.761 525.462 112.848 517.872 112.848 517.872C112.848 517.872 115.995 514.725 117.117 513.602C118.24 512.48 120.264 507.956 128.884 509.079C131.209 508.304 131.042 509.68 132.592 506.232C134.142 502.784 135.352 496.751 140.61 496.664C145.869 496.577 147.94 499.25 149.063 500.025C150.185 500.8 153.893 502.958 155.531 504.335C157.168 505.711 168.293 515.025 176.651 515.627C176.651 515.627 180.099 515.112 180.534 518.039C180.534 518.039 182.605 517.865 183.206 523.986C183.206 523.986 183.554 525.021 183.808 525.195C184.068 525.369 184.155 529.164 183.808 529.505C183.453 529.859 182.424 529.959 181.903 529.959Z" fill="#130013"/>
<path d="M29.304 163.981C29.304 163.981 37.7096 164.823 45.4671 159.13C49.0218 156.671 50.739 155.963 52.3827 154.8C54.0331 153.638 58.0421 150.471 58.6902 149.916C59.3383 149.362 60.9219 148.847 62.9264 149.402C64.9309 149.95 68.9734 151.085 69.7485 150.985C70.5235 150.885 73.2296 150.357 79.2432 147.578C81.2277 146.716 84.0941 145.834 82.564 149.903C81.3546 152.489 80.4927 153.09 80.4927 153.09C80.4927 153.09 81.9359 153.244 82.6041 153.912C83.2723 154.58 89.1789 158.095 91.3304 158.783C93.4886 159.471 91.9785 161.629 90.856 161.803C89.7335 161.977 85.8113 162.578 84.3881 162.451C84.3881 162.451 88.7446 167.322 89.2591 167.71C89.7736 168.097 91.9719 171.892 84.6487 170.556C81.5016 169.955 79.8178 167.409 79.8178 167.409C79.8178 167.409 80.8535 171.418 81.2811 172.28C81.7154 173.142 82.8313 176.676 77.8333 175.641C77.399 176.289 76.9313 178.574 73.8243 177.625C70.7173 176.676 67.4032 171.765 66.9288 171.291C66.4544 170.817 64.8174 170.903 63.7817 170.69C62.746 170.476 61.0689 175.26 57.9619 175.347C54.8549 175.434 48.0062 175.908 46.8836 175.734C45.7611 175.561 40.5894 176.623 39.34 177.859C38.0905 179.095 29.725 185.349 29.725 185.349C29.725 185.349 27.1792 188.022 23.0833 186.512C18.9874 185.002 15.8871 182.028 17.7781 175.173C19.689 168.311 24.3662 164.235 29.304 163.981Z" fill="#9B6348"/>
<path d="M198.413 120.463L192.72 122.147C192.72 122.147 187.235 123.784 185.778 135.297C184.322 146.809 184.595 148.132 186.426 148.573C188.257 149.014 191.384 148.921 197.077 145.6C202.77 142.279 233.031 122.755 236.606 122.321C240.181 121.886 242.125 121.245 242.125 121.245C242.125 121.245 242.773 120.811 244.41 121.719C246.047 122.621 251.74 126.55 260.099 124.432C261.048 124.559 261.261 124.606 261.87 125.294C262.478 125.982 265.578 127.105 267.041 126.717C268.504 126.33 269.153 127.279 269.153 127.279L271.865 129.604C271.865 129.604 273.162 130.165 275.186 129.002C277.211 127.84 279.456 126.804 280.017 126.417C280.578 126.029 281.701 125.167 282.175 122.755C282.65 120.343 283.211 117.71 283.385 117.45C283.558 117.189 283.258 115.512 282.349 115.078C281.447 114.643 278.854 111.416 278.854 111.416C278.854 111.416 288.51 110.514 289.071 110.427C289.632 110.34 298.86 110.427 300.75 104.006C301.098 102.884 299.588 103.144 298.465 103.057C297.343 102.97 290.233 102.456 287.387 101.895C284.541 101.333 281.307 101.895 281.307 101.895C281.307 101.895 274.411 101.868 272.727 101.647C271.044 101.42 269.32 101.44 267.342 101.647C265.364 101.855 258.375 103.057 253.417 102.89C248.459 102.717 246.522 102.63 243.889 103.538C241.256 104.447 206.258 118.525 198.413 120.463Z" fill="#9B6348"/>
<path d="M300.234 103.151C300.241 104.32 299.626 105.924 296.913 107.4C291.882 110.147 273.895 110.334 273.895 110.334C273.895 110.334 272.946 111.109 274.329 111.369C275.705 111.63 276.741 111.022 278.124 112.144C279.507 113.267 281.485 115.251 282.006 115.592C282.521 115.94 283.556 116.802 280.63 123.784C280.63 123.784 280.028 125.508 276.407 125.508C272.785 125.508 269.425 125.421 268.476 125.508C267.527 125.595 267.099 126.022 265.369 125.508C263.645 124.993 261.146 123.523 261.146 123.523C261.146 123.523 259.937 122.835 258.734 123.35C257.524 123.864 252.179 123.61 248.992 122.401C245.805 121.191 242.437 119.554 240.459 119.989C238.475 120.423 232.956 122.314 230.37 123.523C227.784 124.733 204.244 138.183 196.574 140.508C188.903 142.834 187.954 142.493 187.867 139.132C187.787 135.998 187.186 129.557 193.754 121.846L192.738 122.147C192.738 122.147 187.253 123.784 185.796 135.297C184.34 146.809 184.614 148.132 186.444 148.573C188.275 149.014 191.402 148.921 197.095 145.6C202.788 142.279 233.049 122.755 236.624 122.321C240.199 121.886 242.143 121.245 242.143 121.245C242.143 121.245 242.791 120.811 244.428 121.719C246.065 122.621 251.758 126.55 260.117 124.432C261.066 124.559 261.28 124.606 261.888 125.294C262.489 125.982 265.596 127.105 267.059 126.717C268.523 126.33 269.171 127.278 269.171 127.278L271.883 129.604C271.883 129.604 273.18 130.165 275.204 129.002C277.229 127.84 279.474 126.804 280.035 126.417C280.596 126.029 281.719 125.167 282.193 122.755C282.668 120.343 283.229 117.71 283.403 117.45C283.576 117.189 283.276 115.512 282.367 115.078C281.465 114.643 278.873 111.416 278.873 111.416C278.873 111.416 288.528 110.514 289.089 110.427C289.65 110.34 298.878 110.427 300.768 104.006C300.915 103.465 300.662 103.244 300.234 103.151Z" fill="#8E5335"/>
<path d="M84.6491 170.556C91.9789 171.892 89.7806 168.097 89.2594 167.71C88.8585 167.409 86.1391 164.395 84.9431 163.072C84.7359 162.839 84.8896 162.471 85.2036 162.464C86.9543 162.404 89.9009 161.95 90.8497 161.803C91.9722 161.629 93.4823 159.478 91.3241 158.783C89.1659 158.095 83.2659 154.58 82.5978 153.912C82.2236 153.538 81.6089 153.324 81.1345 153.21C80.8739 153.15 80.767 152.836 80.9407 152.629C81.3082 152.188 81.8762 151.366 82.551 149.923C82.5577 149.909 82.5644 149.896 82.5644 149.883C83.0655 148.54 83.0855 147.731 82.8116 147.29C82.7782 147.23 82.6579 147.103 82.6045 147.063C82.4441 146.956 82.4708 146.976 82.2637 146.896C82.2169 146.876 81.9897 146.856 81.9363 146.849C81.1679 146.802 80.1189 147.183 79.2302 147.571C73.2166 150.35 70.5105 150.878 69.7355 150.979C69.1675 151.052 66.8757 150.471 64.8979 149.936C67.2298 150.852 69.5684 151.212 71.025 151.366C73.9115 151.667 77.3192 151.78 80.5398 153.477C83.3528 154.954 88.6447 158.135 90.8831 158.997C92.4065 159.124 92.2194 161.021 90.3218 161.369C88.4242 161.716 84.5021 162.317 83.0388 161.068C81.5755 159.818 79.6311 157.62 79.6311 157.62C79.6311 157.62 78.9429 156.585 77.2591 156.284C75.5753 155.983 68.339 154.299 66.0538 153.698C63.7687 153.097 62.2586 152.836 62.2586 152.836C62.2586 152.836 60.6216 152.489 61.9579 152.963C63.2876 153.437 73.7779 156.344 78.0742 156.965C78.1077 156.972 78.1344 156.972 78.1611 156.985C79.0364 157.373 83.1189 161.582 83.1189 161.582L87.9031 166.714L89.2394 168.09C89.2394 168.09 91.3842 170.536 86.266 170.503C86.2393 170.503 86.2059 170.503 86.1792 170.496C84.0477 170.055 82.4641 168.859 81.6089 168.131C80.7469 167.396 79.023 164.81 77.8137 162.224C76.9517 160.801 76.4372 160.54 75.5285 160.199C74.6265 159.852 65.8935 157.74 64.9914 157.453C63.5883 157.005 62.4992 156.471 61.3566 155.843C61.0292 155.662 61.0158 156.524 62.0381 156.919C64.1362 157.734 71.8669 159.678 73.2434 159.939C74.6198 160.199 76.0029 160.714 76.651 162.351C77.2992 163.988 79.0631 166.64 79.2369 166.894C79.4106 167.148 81.3951 173.77 81.3951 173.77C81.3951 173.77 81.6957 175.32 79.7981 175.32C77.9005 175.32 77.6399 174.933 76.8649 173.336C76.0898 171.739 75.014 169.327 74.8804 168.164C74.7467 167.001 74.0585 166.914 73.6309 166.226C73.2367 165.598 72.5217 164.355 72.4015 164.142C72.3881 164.115 72.3747 164.101 72.3547 164.081C72.2211 163.941 71.613 163.36 70.1831 162.946C68.5461 162.471 63.889 160.66 63.2876 160.273C62.6863 159.885 63.1673 161.021 64.37 161.509C65.5728 161.997 70.1431 163.68 70.7444 163.981C71.3458 164.282 71.8202 165.358 72.2545 165.966C72.622 166.48 73.3236 167.142 73.5307 167.335C73.5708 167.375 73.5975 167.416 73.6175 167.462C73.7044 167.683 73.9717 168.384 74.1454 169.2C74.3592 170.188 75.8292 173.122 76.3838 174.03C76.945 174.933 75.435 175.801 75.435 175.801C75.435 175.801 73.0229 177.264 71.1653 175.414C69.3145 173.563 67.3167 170.509 67.1964 170.416C65.9469 169.38 64.791 169.32 64.2765 169.306C63.174 169.273 61.8243 169.554 61.4368 169.901C60.9022 170.382 60.0871 173.389 56.5925 173.603C53.1047 173.817 52.5835 173.817 48.3874 174.418C48.374 174.418 48.354 174.425 48.3406 174.425C46.8773 174.418 44.953 174.558 43.4095 174.812C41.8526 175.073 38.024 176.797 36.6008 177.959C35.1776 179.122 26.8589 186.879 21.3398 185.029C19.7562 184.501 19.2684 183.813 18.7005 182.877C17.3508 180.652 17.0635 177.939 17.9054 175.474C19.4555 170.944 21.2863 168.612 24.6606 166.059C26.2575 164.85 26.3444 165.104 29.144 164.683C31.9437 164.262 39.9216 163.908 45.6145 159.812C51.3073 155.716 55.931 152.669 57.0335 151.653C58.5169 150.284 58.8509 150.371 61.0091 149.161C59.92 149.201 59.0915 149.542 58.6639 149.903C58.0157 150.451 54.0067 153.618 52.3563 154.787C50.7059 155.95 48.9954 156.658 45.4407 159.117C37.9372 164.616 29.8322 164.015 29.3044 163.968C29.2843 163.968 29.2643 163.968 29.2442 163.968C24.3198 164.235 19.656 168.311 17.765 175.153C15.8674 182.008 18.9744 184.982 23.0703 186.492C26.9858 187.935 29.4848 185.55 29.6919 185.343C29.7053 185.329 29.712 185.323 29.7253 185.309C30.1864 184.968 38.1042 179.035 39.3203 177.839C40.5698 176.603 45.7414 175.541 46.8639 175.714C47.9865 175.888 54.8419 175.414 57.9422 175.327C61.0492 175.24 62.4657 170.282 63.5014 170.496C64.5371 170.71 66.4347 170.797 66.9091 171.271C67.3835 171.745 70.7043 176.656 73.8046 177.605C76.5976 178.46 77.2591 176.696 77.68 175.861C77.7535 175.714 77.9206 175.641 78.0809 175.674C82.7782 176.529 81.6891 173.108 81.2681 172.26C81.0142 171.745 80.5465 170.128 80.2057 168.899C80.1055 168.545 80.5398 168.278 80.8071 168.531C81.6356 169.306 82.9252 170.222 84.6491 170.556Z" fill="#8E5335"/>
<path d="M87.303 67.7644C87.303 67.7644 91.1851 51.0201 90.9913 49.5968C90.7976 48.1736 87.303 41.5788 87.303 41.5788C87.303 41.5788 82.3252 30.5874 86.528 22.2419C90.7308 13.8964 99.5907 3.03863 105.083 2.97181C110.582 2.90499 122.222 5.36386 124.286 6.5933C126.351 7.82274 135.926 14.8051 136.962 19.2685C137.997 23.7319 137.67 30.7477 136.962 33.5273C136.253 36.3069 136.607 37.2156 136.607 37.2156C136.607 37.2156 136.06 43.7771 135.926 45.3339C135.799 46.8841 136.38 49.2761 132.177 58.0693C127.975 66.8624 129.184 63.6552 126.097 70.2901C123.511 75.8493 120.925 75.0742 120.15 75.0074C119.375 74.9406 116.509 75.1143 116.509 75.1143C116.509 75.1143 101.548 77.6534 87.303 67.7644Z" fill="#8E5335"/>
<path d="M136.962 19.2685C135.926 14.8051 126.358 7.82274 124.286 6.5933C122.215 5.36386 110.575 2.90499 105.083 2.97181C99.584 3.03863 90.7308 13.8964 86.528 22.2419C82.3252 30.5807 87.303 41.5788 87.303 41.5788C87.303 41.5788 90.7976 48.1736 90.9913 49.5969C91.1851 51.0201 87.303 67.7644 87.303 67.7644C92.4881 71.3659 97.7599 73.3103 102.377 74.3393C102.925 72.9495 103.279 71.1454 103.279 71.1454C103.279 71.1454 103.319 70.6309 103.84 70.544C109.78 73.4573 114.17 74.6667 117.324 75.0676C118.233 75.0208 119.643 74.9607 120.157 75.0008C120.631 75.0408 121.774 75.3348 123.184 74.3125C121.794 74.239 119.308 73.9116 118.54 72.5686C117.464 70.671 119.275 67.397 120.09 65.9738C120.912 64.5505 120.652 63.1741 120.652 63.1741C120.652 63.1741 120.565 62.7866 121.213 62.3523C121.861 61.918 121.647 61.664 122.035 59.7664C122.422 57.8688 124.019 57.1806 125.529 56.4924C127.039 55.8042 127.126 55.283 127.166 53.4723C126.952 42.267 127.6 38.7324 127.854 37.9506C128.115 37.1755 128.489 37.1221 128.503 35.4917C128.376 32.5585 129.665 30.407 130.714 28.5962C131.763 26.7855 132.304 27.7343 133.714 27.3868C135.725 27.447 136.948 26.6919 137.616 25.4157C137.57 23.2508 137.376 21.0525 136.962 19.2685Z" fill="#9B6348"/>
<path d="M113.061 36.6744C113.015 36.641 116.917 35.8325 119.73 37.416C120.612 37.8771 120.465 38.0107 120.465 38.0508C120.465 38.0909 120.204 38.5052 119.463 38.3849C118.721 38.2646 114.645 37.7902 113.061 36.6744Z" fill="#060107"/>
<path d="M128.496 39.7814C128.496 39.7814 130.1 39.0397 131.697 39.5075C133.3 39.9752 134.216 41.218 134.216 41.218C134.216 41.218 133.474 41.4585 131.723 41.1178C129.979 40.7837 128.496 39.7814 128.496 39.7814Z" fill="#060107"/>
<path d="M131.278 40.0887C131.278 40.0887 130.148 43.8238 131.084 45.3739C131.278 45.6813 131.545 45.0465 131.545 45.0465C131.545 45.0465 132.634 41.5453 132.2 40.4428C131.759 39.347 131.278 40.0887 131.278 40.0887Z" fill="#060107"/>
<path d="M116.336 37.2757C116.336 37.2757 115.541 40.4629 115.902 42.3337C115.968 42.7681 116.322 43.2759 116.583 42.6545C116.844 42.0264 118.267 38.5385 117.779 37.6499C117.291 36.7545 116.336 37.2757 116.336 37.2757Z" fill="#060107"/>
<path d="M112.006 19.008C112.006 19.008 105.15 19.8499 105.023 24.634C104.896 29.4181 104.81 33.5808 104.81 33.5808C104.81 33.5808 105.003 33.8815 103.734 33.9684C102.464 34.0552 101.128 34.1621 100.413 36.5141C99.7047 38.8661 99.424 43.6034 99.3973 44.3183C99.3773 45.0266 98.943 45.2872 98.3416 45.2471C97.7402 45.207 96.0565 44.8128 96.1233 43.2626C96.1901 41.7125 96.7246 36.621 95.6489 34.2958C94.5731 31.9705 92.288 28.4359 89.7422 29.4649C87.1965 30.5006 87.0495 32.8926 87.0896 33.4739C87.1297 34.0552 86.8824 41.4786 91.3458 46.8173C91.3458 46.8173 92.5419 47.5924 91.7 49.0156C90.8581 50.4388 90.9316 50.4321 90.9316 50.4321C90.9316 50.4321 82.3656 44.893 83.4881 27.868C84.6107 10.8429 90.7445 7.51544 95.3883 4.50199C100.239 1.3549 102.892 1.00744 107.155 0.319223C108.865 0.0452725 116.382 -0.716439 122.843 1.86939C129.311 4.45521 133.187 6.52654 137.243 4.02758C141.292 1.52862 142.154 3.76699 142.154 3.76699C142.154 3.76699 145.668 5.93856 143.617 15.8409C143.129 18.1861 142.22 20.4178 141.091 22.5293C140.73 23.2041 140.356 24.2131 140.129 25.7031C139.548 29.4315 138.586 35.5252 136.548 35.7858C136.548 35.7858 137.804 28.3357 137.61 25.2287C136.855 25.5293 135.131 26.8657 131.296 25.7031C127.461 24.5405 125.737 24.1061 120.565 21.1796C115.387 18.253 112.006 19.008 112.006 19.008Z" fill="#161514"/>
</svg>
