<svg width="164" height="509" viewBox="0 0 164 509" fill="none" xmlns="http://www.w3.org/2000/svg">
<path d="M88.0554 141.02V201.724C88.0554 201.724 124.672 206.799 125.984 205.266C127.297 203.739 129.311 133.638 129.311 133.638L88.0554 141.02Z" fill="black"/>
<path d="M23.2817 465.648C23.2817 465.648 28.3112 465.271 28.818 469.046C29.3184 472.821 29.6368 479.612 29.13 489.417C28.6296 499.229 28.818 501.867 28.818 501.867C28.818 501.867 28.6946 509 22.528 509C16.3613 509 11.2084 509 11.2084 509C11.2084 509 7.62153 508.411 7.99841 502.998C8.3753 497.592 8.38177 495.642 7.9724 487.968C7.56302 480.294 8.25183 467.402 10.2662 466.59C12.2806 465.771 23.2817 465.648 23.2817 465.648Z" fill="black"/>
<path d="M5.08371 266H24.3675C25.6305 266 26.797 266.708 27.4272 267.857L30.6011 272.408C31.2313 273.556 32.398 274.264 33.6608 274.264H80.632V326.222C80.632 328.951 78.5243 331.163 75.9245 331.163H4.70749C2.10769 331.163 0 328.951 0 326.222V280.028C0 276.209 0.562178 272.412 1.66673 268.773C2.07136 267.14 3.47603 266 5.08371 266Z" fill="#64A5CF"/>
<path d="M69.3169 273.414H7.33765V300.895H69.3169V273.414Z" fill="#EBF0F3"/>
<path d="M77.1015 268.47H57.6688C56.2868 268.47 55.0318 269.317 54.4576 270.636L51.1322 278.275C50.5578 279.594 49.3029 280.44 47.921 280.44H0V327.457C0 330.186 2.10769 332.398 4.70749 332.398H75.9247C78.5245 332.398 80.6321 330.186 80.6321 327.457V272.176C80.6321 270.13 79.0513 268.47 77.1015 268.47Z" fill="#8EBDDB"/>
<path d="M29.6201 296.615C29.2393 296.802 29 297.198 29 297.627V303.489C29 312.157 33.5585 316.589 40.4125 320.835C40.7715 321.055 41.2285 321.055 41.5875 320.835C48.4415 316.589 53 312.168 53 303.489V297.627C53 297.198 52.7607 296.802 52.3799 296.615L41.5005 291.115C41.185 290.962 40.815 290.962 40.4995 291.115L29.6201 296.615Z" fill="#E6007A" stroke="#E6007A" stroke-width="2" stroke-miterlimit="10"/>
<path d="M31.5168 297.866C31.1995 298.028 31 298.372 31 298.743V303.824C31 311.336 34.7987 315.177 40.5104 318.857C40.8096 319.048 41.1904 319.048 41.4896 318.857C47.2013 315.177 51 311.345 51 303.824V298.743C51 298.372 50.8005 298.028 50.4832 297.866L41.417 293.1C41.1541 292.967 40.8459 292.967 40.583 293.1L31.5168 297.866Z" fill="#8EBDDB"/>
<path d="M37 304.905L40.3216 309L46 302" stroke="#E6007A" stroke-width="2" stroke-miterlimit="10" stroke-linecap="round" stroke-linejoin="round"/>
<path d="M59.6331 235.176C63.6554 222.94 64.8315 209.522 64.8315 209.522C65.5268 203.849 47.3908 204.408 46.4811 207.936C45.5584 211.458 45.097 247.555 44.9736 249.524C44.8501 251.493 41.9585 255.645 41.2437 256.691C40.5289 257.737 39.3528 259.245 38.6835 260.336C38.0142 261.428 33.4461 269.102 32.27 270.987C31.7945 271.751 31.6206 272.508 31.6101 273.399H45.7266C46.1213 273.105 46.5223 272.812 46.8905 272.533C47.6632 271.945 48.7197 272.321 49.6257 273.399C50.5331 274.478 51.2895 276.261 51.4586 278.485C51.79 282.93 56.1112 285.022 57.2418 285.653C58.3725 286.283 59.0028 286.367 59.0028 286.367C59.0028 286.367 59.3407 285.315 58.3335 282.508C57.3328 279.7 57.4173 272.871 57.4563 270.688C57.4953 268.504 57.1639 266.327 56.5336 264.963C54.4347 259.531 55.2729 251.356 55.2729 251.356C55.2729 251.356 55.6108 247.418 59.6331 235.176Z" fill="#E0A680"/>
<path d="M59.6333 235.176C63.6556 222.934 64.8317 209.522 64.8317 209.522C65.527 203.849 47.3911 204.408 46.4684 207.93C46.2734 208.671 46.1044 210.847 45.9485 213.837C48.4567 215.24 52.9729 216.709 60.8095 216.481C61.6477 216.507 62.1221 217.612 62.1481 218.158C62.213 219.477 60.8549 226.605 58.8795 234.195C57.7359 238.594 55.767 243.825 55.4031 246.963C54.3959 255.515 54.6688 257.36 54.9222 259.29C55.1757 261.22 55.676 265.639 55.676 265.639C55.676 265.639 55.741 266.834 55.572 269.81C55.4031 272.787 54.5259 277.27 55.6565 280.63C56.2218 282.3 56.9562 284.268 57.5605 285.822C58.4962 286.296 59.0095 286.374 59.0095 286.374C59.0095 286.374 59.3474 285.328 58.3402 282.514C57.333 279.707 57.4175 272.871 57.463 270.694C57.502 268.517 57.1706 266.334 56.5403 264.969C54.4414 259.544 55.2797 251.363 55.2797 251.363C55.2797 251.363 55.6045 247.418 59.6333 235.176Z" fill="#C88E69"/>
<path d="M51.4527 278.479C51.1213 274.034 48.4312 271.351 46.8846 272.527C46.5099 272.812 46.1004 273.111 45.698 273.412H43.0142C44.7509 270.888 50.0305 269.891 50.5755 273.488C51.3813 277.654 52.187 280.389 52.8628 282.176C52.1285 281.182 51.5632 279.967 51.4527 278.479Z" fill="#C88E69"/>
<path d="M107.342 433.469C107.342 433.469 108.765 441.767 102.312 461.307L103.904 475.726L116.9 488.638L136.94 497.442L143.912 492.881C143.912 492.881 134.12 483.745 129.935 477.24C125.751 470.736 118.661 461.144 124.107 436.153C129.558 411.168 106.25 414.268 107.342 433.469Z" fill="#E0A680"/>
<path d="M33.2186 444.769C33.2186 444.769 28.4426 448.824 27.6823 461.092C26.922 473.361 28.2671 482.166 28.2671 482.166C28.2671 482.166 29.6902 493.316 24.6607 496.669C19.6313 500.022 14.1794 497.93 12.6719 495.246C11.1644 492.562 6.29735 487.111 10.9954 461.71C15.6935 436.303 23.0687 427.836 23.0687 427.836C23.0687 427.836 44.0378 422.715 33.2186 444.769Z" fill="#E0A680"/>
<path d="M87.4265 21.9568L68.9396 23.9712C68.9396 23.9712 63.2799 37.552 63.4034 39.8198C63.5268 42.0811 65.0409 66.4812 66.1715 68.749C67.3022 71.0103 67.0877 80.192 72.4161 82.1414C77.7445 84.0908 89.9412 86.6055 89.9412 86.6055L95.1006 104.339C95.1006 104.339 104.406 113.897 106.797 114.274C109.188 114.651 123.399 117.166 123.399 117.166C123.399 117.166 125.284 88.3665 125.284 87.7362C125.284 87.1058 117.61 38.0589 117.61 38.0589L87.4265 21.9568Z" fill="#E0A680"/>
<path d="M129.935 477.24C125.751 470.729 118.661 461.144 124.107 436.153C124.782 433.047 125.016 430.376 124.906 428.121L110.337 422.189C108.355 424.795 107.069 428.615 107.342 433.469C107.342 433.469 107.615 435.055 107.381 438.46C109.713 438.583 112.397 439.305 114.386 441.52C118.746 446.381 118.577 453.256 118.577 453.256C118.577 453.256 118.746 467.46 131.319 484.004C133.015 486.168 135.153 488.183 135.218 488.806C135.283 489.437 136.037 491.321 134.088 490.821C132.19 490.333 113.417 487.156 102.624 460.339C102.52 460.657 102.423 460.975 102.312 461.307L103.904 475.726L116.9 488.637L136.94 497.442L143.912 492.881C143.912 492.881 134.12 483.744 129.935 477.24Z" fill="#C88E69"/>
<path d="M17.0308 439.454C16.6279 440.487 16.2251 441.598 15.8157 442.794C17.1478 443.821 18.8763 445.094 20.0589 445.777C22.2357 447.037 25.0884 450.553 25.0884 454.913C25.0884 459.273 24.8349 471.431 26.0111 481.659C27.1872 491.886 24.8609 495.35 22.6646 496.247C21.3065 496.799 18.6293 498.092 14.8605 495.746C13.08 494.635 10.2404 491.425 9.10327 483.264C9.57763 490.912 11.7545 493.602 12.6772 495.239C14.1847 497.923 19.6365 500.015 24.666 496.662C29.6954 493.309 28.2724 482.159 28.2724 482.159C28.2724 482.159 26.9338 473.354 27.6876 461.086C28.4413 448.818 33.2239 444.763 33.2239 444.763C33.6593 443.873 34.0426 443.028 34.3805 442.222L17.0308 439.454Z" fill="#C88E69"/>
<path d="M125.284 87.7362C125.284 87.1059 117.61 38.0589 117.61 38.0589L87.4265 21.9633L68.9396 23.9777C68.9396 23.9777 63.2799 37.5586 63.4034 39.8264C63.4423 40.5671 63.6373 43.7057 63.9102 47.65C64.2221 47.8254 64.391 47.9099 64.404 47.8774C64.573 47.455 69.1021 37.734 69.1021 37.734C69.1021 37.734 69.6869 29.9364 73.2933 30.7746C76.8997 31.6129 80.8375 32.4121 87.55 30.7097C89.8957 30.7097 91.2408 30.3523 92.4949 31.5284C93.749 32.7045 95.0097 34.0431 96.1858 37.734C97.3619 41.4249 101.215 41.087 101.215 41.087C101.215 41.087 105.491 40.8336 107.59 40.3332C109.689 39.8329 111.781 41.9252 112.034 42.51C112.288 43.0949 114.803 45.7785 111.196 53.6606C107.59 61.5427 102.814 65.396 104.237 80.075C105.66 94.7541 119.943 92.5642 119.943 92.5642L125.141 90.082C125.232 88.7044 125.284 87.8402 125.284 87.7362Z" fill="#C88E69"/>
<path d="M105.224 66.0588C91.6168 74.9481 88.6408 75.5329 82.942 77.1249C77.2433 78.7169 74.644 73.8564 74.644 73.8564C74.644 73.8564 76.314 78.8404 77.945 83.7984C83.5073 85.2734 89.9469 86.599 89.9469 86.599L92.2081 94.3706C94.0536 94.2407 95.8405 93.9873 97.2831 93.5584C102.904 91.8819 98.9596 83.9153 97.9524 80.9847C96.9452 78.0541 98.0369 75.7019 99.9668 73.0182C101.89 70.3345 105.224 66.0588 105.224 66.0588Z" fill="#C88E69"/>
<path d="M118.071 88.1974C118.071 88.1974 123.1 95.5727 121.255 112.429C121.131 112.766 121.027 113.475 120.183 112.909C119.344 112.344 113.015 105.216 98.6156 100.251L87.5495 103.962L94.093 159.169L100.507 160.046C100.507 160.046 102.644 163.984 105.666 166.291C106.712 168.721 106.381 172.412 106.381 172.412L104.613 181.216C104.613 181.216 91.2014 195.012 87.556 209.6C83.9106 224.188 80.1353 235.254 78.8812 242.174C77.6206 249.095 68.8222 284.808 62.9091 298.895C56.9959 312.983 45.5529 340.021 41.0238 349.58C36.4946 359.139 29.4508 370.712 21.4063 401.525C20.2756 404.794 20.1911 405.547 19.7298 405.736C19.2684 405.924 16.9616 405.547 16.1234 407.724C15.2851 409.901 10.0022 424.496 9.50189 425.418C9.00155 426.341 8.78711 426.841 9.50189 428.518C10.2167 430.194 24.8047 448.239 43.7334 443.905C47.4438 442.963 46.2481 441.078 46.56 439.032C46.8719 436.985 49.926 425.886 50.8682 423.813C51.8104 421.74 51.687 421.266 51.0242 420.226C50.3614 419.187 51.4335 416.107 51.4335 416.107C51.4335 416.107 58.2175 398.081 60.7322 392.46C63.2469 386.84 77.666 355.649 82.1951 344.414C86.7243 333.179 103.723 296.556 103.723 296.556C103.723 296.556 114.412 274.547 114.789 274.236C115.166 273.924 115.101 275.808 115.101 275.808C115.101 275.808 117.551 292.911 115.92 306.998C114.282 321.086 113.093 329.573 111.456 337.747C109.818 345.922 107.68 364.408 106.803 373.467C105.926 382.525 102.339 407.802 102.716 412.832C102.151 413.839 99.8892 414.469 99.1939 421.318C98.5051 428.173 98.3752 431.734 98.2063 432.995C98.0373 434.256 97.9528 435.172 99.4214 435.425C100.89 435.679 132.165 439.746 133.672 439.746C135.18 439.746 136.103 440.084 136.148 438.278C136.187 436.478 136.648 421.968 136.986 419.914C137.324 417.861 137.279 416.938 136.402 416.438C135.524 415.938 133.841 415.054 133.464 414.638C133.088 414.216 133.549 408.017 133.841 404.703C134.134 401.389 142.9 337.377 144.907 325.804C146.922 314.231 150.444 296.121 151.444 287.946C152.452 279.772 154.966 262.292 154.336 248.458C153.706 234.624 148.93 189.099 148.93 189.099C148.93 189.099 144.654 165.075 145.531 158.285C146.408 151.495 150.184 140.298 149.683 137.283C149.183 134.262 151.191 123.703 141.386 108.731C131.574 93.7662 124.029 85.3383 124.029 85.3383L118.071 88.1974Z" fill="#0F5B34"/>
<path d="M122.308 93.6883C122.308 93.6883 136.103 108.653 140.541 134.229C140.749 135.172 140.814 136.283 140.541 135.99C140.268 135.698 127.798 118.582 121.32 114.209C121.32 114.209 124.465 105.801 120.566 93.6883C120.885 93.6883 122.308 93.6883 122.308 93.6883Z" fill="#1C7D50"/>
<path d="M100.507 102.578C100.507 102.578 104.497 141.858 102.833 160.137C102.768 160.67 102.846 162.021 104.354 163.763C106.147 165.829 107.616 166.083 107.895 166.141C109.143 166.395 110.345 166.434 110.943 166.343C111.742 166.213 112.639 166.05 112.093 165.4C111.547 164.751 108.967 163.327 109.052 154.562C109.052 154.1 109.305 154.601 109.474 155.523C109.643 156.446 113.496 165.959 117.272 166.505C121.047 167.051 126.077 166.713 126.707 166.252C127.337 165.79 127.753 166.044 127.207 164.66C126.661 163.275 125.778 160.41 126.915 157.2C127.168 156.485 127.337 157.577 127.461 158.077C127.584 158.577 129.261 165.452 131.444 165.498C133.621 165.537 135.427 162.691 135.72 161.891C136.012 161.092 138.488 156.862 138.819 149.942C138.819 149.441 139.092 149.649 139.196 150.442C139.306 151.287 139.073 158.447 137.604 164.107C137.468 164.53 137.188 164.822 137.188 165.056C137.188 165.29 137.266 165.537 137.338 165.517C137.409 165.498 138.273 164.536 138.273 164.536C138.273 164.536 144.459 154.503 140.06 142.748C135.661 131 125.537 112.571 100.507 102.578Z" fill="#1C7D50"/>
<path d="M130.436 176.025C130.436 176.025 126.413 175.648 124.523 177.532C122.638 179.417 115.406 187.344 112.891 193.504C110.376 199.664 103.787 219.327 103.144 236.937C102.501 254.547 102.501 258.874 102.501 258.874C102.501 258.874 102.8 259.725 101.162 258.185C99.5247 256.645 85.1576 241.388 83.5656 240.381C82.9808 239.835 82.6429 239.881 82.6039 240.504C82.5649 241.128 79.6278 261.045 71.7067 282.553C63.7856 304.061 52.9664 329.839 46.9298 341.535C40.8931 353.232 30.1194 378.386 27.6892 385.845C25.2589 393.305 21.7175 403.786 21.0222 405.359C20.3334 406.931 20.2685 407.243 21.0222 408.186C21.776 409.128 22.7182 410.135 21.0222 409.635C19.3262 409.134 18.5075 409.004 17.3119 410.512C16.1162 412.019 12.029 418.498 11.964 422.897C11.899 427.296 14.7322 431.325 14.7322 431.325C14.7322 431.325 19.7031 438.934 26.8704 439.876C34.0377 440.819 35.3568 439.941 36.6174 439.376C37.8781 438.811 41.0816 436.985 42.7776 430.259C44.4736 423.534 43.5313 419.57 38.6903 417.556C33.8493 415.541 24.1673 411.266 24.1673 411.266C24.1673 411.266 30.7562 413.969 34.3756 412.396C38.0015 410.824 42.0238 410.258 47.5601 397.054C53.0964 383.85 60.3287 367.06 60.3287 367.06C60.3287 367.06 65.7025 354.343 67.1191 351.341C70.0692 345.07 74.7803 336.123 76.5412 333.419C78.3022 330.716 90.239 310.215 96.1067 299.649C101.974 289.083 125.12 248.165 135.517 222.011C135.517 255.716 130.819 308.142 130.819 308.142C130.819 308.142 124.282 367.729 117.401 409.992C118.908 410.161 124.068 412.253 124.068 412.253C124.068 412.253 124.653 412.292 122.183 412.338C119.714 412.383 110.064 411.668 108.518 419.713C106.971 427.758 106.608 431.955 110.448 433.781C114.282 435.607 121.137 438.31 131.138 438.122C131.891 437.622 133.022 433.281 133.022 433.281C133.022 433.281 135.537 418.374 133.21 416.367C130.884 414.352 127.863 412.845 127.863 412.845C127.863 412.845 127.674 412.156 129.182 412.156C129.662 412.091 130.02 411.694 131.82 393.351C131.82 393.351 135.088 363.122 139.033 340.567C142.977 318.013 148.006 294.366 149.176 286.361C150.352 278.355 154.179 239.9 148.448 205.552C145.57 189.06 141.632 177.097 140.118 175.992C138.617 174.894 135.68 175.979 130.436 176.025Z" fill="#1C7D50"/>
<path d="M145.324 164.667C145.324 164.667 140.021 165.947 137.838 166.363C135.661 166.786 133.497 166.994 130.859 166.948C128.221 166.903 123.523 167.37 123.523 167.37C123.523 167.37 118.305 167.52 116.921 167.37C115.537 167.221 113.146 167.266 113.146 167.266C113.146 167.266 110.527 167.481 110.02 167.435C109.52 167.39 106.245 166.415 105.725 166.454C105.199 166.493 103.795 168.189 104.048 169.697C104.302 171.204 104.718 171.562 104.737 171.919C104.757 172.276 104.51 173.115 104.295 173.407C104.087 173.699 103.815 175.084 104.016 176.123C104.211 177.163 104.939 177.598 104.718 178.04C104.497 178.482 103.399 179.112 103.522 179.957C103.646 180.802 103.548 181.114 103.509 181.783C103.47 182.452 104.334 181.939 104.334 181.939C104.334 181.939 105.212 181.562 107.258 181.439C109.305 181.315 116.94 179.743 121.314 177.13C125.687 174.518 126.687 174.583 127.916 174.518C129.144 174.453 140.808 174.993 146.247 171.75C151.692 168.508 145.324 164.667 145.324 164.667Z" fill="#212121"/>
<path d="M145.512 164.783C145.395 164.705 145.324 164.66 145.324 164.66C145.324 164.66 140.021 165.94 137.838 166.356C135.661 166.778 133.497 166.986 130.859 166.94C128.221 166.901 123.523 167.363 123.523 167.363C123.523 167.363 118.305 167.512 116.921 167.363C115.537 167.213 113.146 167.259 113.146 167.259C113.146 167.259 110.527 167.473 110.02 167.428C109.52 167.382 106.245 166.408 105.725 166.447C105.199 166.486 103.795 168.182 104.048 169.689C104.302 171.197 104.718 171.554 104.737 171.911C104.757 172.269 104.51 173.107 104.295 173.399C104.087 173.692 103.815 175.076 104.016 176.116C104.211 177.155 104.939 177.591 104.718 178.033C104.497 178.474 103.399 179.105 103.522 179.949C103.646 180.794 103.548 181.106 103.509 181.775C103.47 182.445 104.334 181.931 104.334 181.931C104.334 181.931 105.212 181.554 107.258 181.431C109.305 181.308 116.94 179.735 121.314 177.123C121.976 176.726 122.555 176.395 123.081 176.116C123.075 176.116 123.075 176.116 123.068 176.122C108.162 181.502 107.291 180.489 105.972 180.866C104.653 181.243 104.146 180.047 105.153 180.047C106.16 180.047 108.675 179.098 108.675 179.098C108.675 179.098 105.783 179.735 105.03 179.098C104.276 178.461 106.472 177.285 106.472 177.285L116.531 174.264C116.531 174.264 110.618 175.908 108.045 176.155C105.465 176.408 105.023 174.517 105.03 174.017C105.03 173.516 105.03 171.879 106.602 171.879C108.175 171.879 115.277 170.371 115.277 170.371C115.277 170.371 110.248 171.19 107.98 171.249C105.718 171.314 105.777 170.937 105.088 169.598C104.399 168.26 109.741 167.772 109.741 167.772C109.741 167.772 110.806 167.428 116.531 167.668C122.256 167.909 124.517 167.668 124.517 167.668C124.517 167.668 129.293 167.226 132.191 167.226C139.333 167.22 144.33 165.29 145.512 164.783Z" fill="black"/>
<path d="M101.554 460.384C101.554 460.384 102.73 458.708 102.814 460.885C102.899 463.061 107.928 476.48 116.395 482.601C124.862 488.722 130.093 493.05 142.829 492.77C143.518 492.517 143.583 492.361 143.583 492.361C143.583 492.361 150.503 497.546 159.432 498.995C168.36 500.444 159.276 507.079 159.276 507.079C159.276 507.079 158.743 507.644 156.475 507.644C154.207 507.644 137.104 507.644 137.104 507.644C137.104 507.644 133.017 507.202 129.307 503.271C125.597 499.34 119.404 489.437 111.45 489.437C103.497 489.437 104.939 502.738 104.939 502.738L105.537 507.079C105.537 507.079 105.849 508.242 104.406 508.242C102.964 508.242 100.033 495.571 100.033 495.571C100.033 495.571 93.4248 473.718 101.554 460.384Z" fill="black"/>
<path d="M96.9328 91.1021C96.9328 91.1021 100.318 95.7872 100.572 110.564C100.825 125.34 101.579 157.284 101.767 165.524C101.956 173.763 101.767 202.439 101.767 202.439C101.767 202.439 102.144 239.731 102.398 248.724C102.651 257.718 102.398 256.834 102.398 256.834C102.398 256.834 102.463 258.907 100.825 256.204C99.1876 253.5 90.2008 243.058 85.1064 238.847C85.1064 238.847 80.9997 235.286 80.3044 234.864V235.722C80.3044 235.722 78.147 235.137 77.7701 233.98C77.3933 232.824 77.8936 231.635 78.4004 230.796C78.9008 229.958 85.1064 220.549 84.4176 196.649C83.7288 172.75 81.7404 158.876 81.7404 158.876C81.7404 158.876 81.708 158.311 81.2726 159.591C80.8372 160.871 73.2215 182.692 69.1993 199.892C70.2389 199.957 71.1812 200.178 71.0837 201.965C70.9862 203.758 70.2649 210.958 70.0115 211.868C69.914 212.589 70.0765 213.284 69.8556 213.629C69.6346 213.973 65.7358 215.611 56.8985 214.824C48.0612 214.038 43.2202 210.048 42.4664 205.831C42.356 205.142 42.0701 204.408 42.9083 202.309C42.9083 202.309 45.2151 197.28 46.0079 195.2C46.8006 193.121 46.9696 192.601 46.9696 192.374C46.9696 192.146 47.366 191.6 49.7182 192.016C50.1406 191.055 56.4242 180.931 58.3151 165.082C60.1995 149.233 62.1489 128.797 62.1489 128.797C62.1489 128.797 64.9106 108.484 72.4158 104.293C76.8019 101.064 82.2668 100.687 83.3584 100.687C84.4501 100.687 93.0859 101.609 96.27 92.9736C96.7313 91.9794 96.5624 90.3938 96.9328 91.1021Z" fill="#212121"/>
<path d="M121.32 87.9896C121.32 87.9896 123.458 87.4242 127.61 93.9028C131.762 100.381 138.806 107.172 147.546 133.645C148.365 136.283 148.553 139.87 147.546 142.826C146.539 145.783 143.459 153.074 144.654 163.581C145.85 174.082 150.769 207.202 150.769 207.202C150.769 207.202 154.902 250.095 154.297 259.173C155.844 257.601 161.413 250.206 161.536 249.511C161.659 248.815 162.036 247.938 161.536 244.104C161.036 240.27 157.982 221.94 158.735 202.316C159.489 182.698 160.496 173.14 160.431 169.241C160.366 165.342 158.982 156.602 158.293 152.638C157.605 148.674 156.598 142.514 157.54 135.724C158.482 128.934 159.613 123.527 154.083 114.092C148.546 104.657 141.002 91.8949 129.306 82.1479C124.718 83.0836 121.32 87.9896 121.32 87.9896Z" fill="#212121"/>
<path d="M102.391 256.827C102.391 256.827 102.404 256.873 102.423 256.834C97.985 250.778 91.201 244.124 91.201 244.124C91.201 244.124 90.5382 243.149 90.5122 242.675C90.4797 242.2 90.8241 240.413 90.9541 238.523C93.8457 171.866 88.2314 161.807 86.1326 149.727C84.0337 137.654 83.5334 128.472 83.4099 125.996C82.9096 135.893 80.1804 148.551 79.2577 152.619C78.335 156.687 77.7891 156.141 72.8441 170.605C67.8992 185.07 66.8465 195.72 66.723 196.721C66.5996 197.721 66.1382 197.812 65.7613 197.897C60.8553 198.527 55.3645 196.513 55.1111 196.389C54.8577 196.266 54.1039 196.136 54.3573 196.597C57.4568 198.82 61.7326 199.281 63.0777 199.197C64.4227 199.112 64.0004 199.158 63.9159 200.496C63.8314 201.835 63.1166 208.924 62.8697 211.016C62.6228 213.109 61.739 213.115 60.6084 213.447C54.2338 214.285 47.7813 210.386 44.5908 208.04C41.4068 205.695 42.9533 203.342 42.9533 203.342L45.2406 198.807C45.2406 198.807 47.255 193.712 47.6643 193.244C48.0737 192.77 49.7372 193.589 50.1141 193.4C50.491 193.212 49.9971 193.914 55.41 182.425C60.8228 170.937 62.4733 137.212 63.4155 127.965C64.3577 118.719 69.0168 110.986 73.1041 106.587C77.1913 102.188 78.8873 103.377 88.069 102.188C94.541 101.343 96.7958 95.5662 97.5561 92.2328C97.1922 91.44 96.9388 91.0956 96.9388 91.0956C96.5684 90.3873 96.7438 91.9728 96.2825 92.9735C93.0985 101.609 84.4626 100.687 83.3709 100.687C82.2793 100.687 76.8079 101.064 72.4283 104.293C64.9231 108.484 62.1614 128.797 62.1614 128.797C62.1614 128.797 60.212 149.233 58.3276 165.082C56.4432 180.931 50.1531 191.055 49.7307 192.016C47.3849 191.594 46.9821 192.14 46.9821 192.374C46.9821 192.601 46.8131 193.127 46.0204 195.2C45.2276 197.273 42.9208 202.309 42.9208 202.309C42.0826 204.408 42.375 205.142 42.4789 205.831C43.2327 210.042 48.0738 214.038 56.911 214.824C65.7483 215.611 69.6471 213.973 69.868 213.629C70.089 213.284 69.9331 212.589 70.024 211.868C70.2775 210.958 70.9987 203.758 71.0962 201.965C71.1936 200.171 70.245 199.95 69.2118 199.892C73.234 182.692 80.8432 160.871 81.2851 159.591C81.7269 158.311 81.7529 158.876 81.7529 158.876C81.7529 158.876 83.7348 172.75 84.4301 196.649C85.1189 220.543 78.9198 229.958 78.4129 230.796C77.9126 231.635 77.4058 232.83 77.7827 233.98C78.1595 235.131 80.3169 235.722 80.3169 235.722V234.864C81.0056 235.286 85.1189 238.847 85.1189 238.847C90.2133 243.058 99.2066 253.5 100.838 256.204C102.456 258.907 102.391 256.827 102.391 256.827Z" fill="black"/>
<path d="M161.536 244.098C161.036 240.264 157.982 221.933 158.735 202.309C159.489 182.692 160.496 173.133 160.431 169.234C160.366 165.335 158.982 156.596 158.293 152.632C157.605 148.668 156.598 142.508 157.54 135.717C158.482 128.927 159.613 123.521 154.083 114.086C148.553 104.65 141.002 91.8884 129.306 82.1414C124.718 83.0836 121.32 87.9896 121.32 87.9896C121.32 87.9896 122.938 87.5672 126.083 91.7C129.54 92.9866 133.517 95.2219 136.018 99.1012C141.217 107.152 150.437 121.233 150.606 129.791C150.775 138.343 152.439 143.71 151.776 146.394C151.113 149.077 149.937 153.769 149.768 155.952C149.599 158.129 147.084 171.716 150.775 192.003C154.466 212.297 154.245 222.187 154.44 226.716C154.635 231.245 155.473 236.443 156.312 241.135C157.026 245.131 158.332 250.349 154.362 257.198C154.356 257.965 154.336 258.634 154.304 259.173C155.85 257.601 161.419 250.206 161.542 249.511C161.666 248.815 162.036 247.932 161.536 244.098Z" fill="black"/>
<path d="M78.5817 30.5082C78.5817 30.5082 83.6111 30.7616 91.0774 29.0851C94.4303 29.0851 96.0224 30.9305 96.8606 33.2763C97.6988 35.6221 98.5371 39.8133 103.482 39.3974C108.427 38.9816 111.78 36.7138 113.879 43.4197C115.978 50.1257 109.434 60.0221 109.434 60.0221C109.434 60.0221 101.806 72.2644 105.912 82.9926C110.019 93.7273 120.754 91.6869 120.754 91.6869C120.754 91.6869 129.305 88.8603 129.052 82.8237C131.989 85.3384 138.006 91.2971 146.239 103.032C146.239 103.032 147.285 104.079 148.5 101.694C149.715 99.3026 155.544 88.9513 147.87 81.3616C140.196 73.7719 137.012 74.7401 134.452 68.7035C131.891 62.6668 130.806 61.1983 132.652 51.2238C134.497 41.2494 138.35 30.1378 131.436 19.2601C124.516 8.38243 117.472 9.8055 116.095 9.38962C115.432 9.38962 114.997 9.45461 114.366 8.5124C113.736 7.57019 109.558 0 94.8397 0C80.1217 0 75.3457 4.17172 73.5198 5.74424C71.6938 7.31676 58.1974 18.2789 57.5281 35.8885C56.8588 53.4981 63.8377 74.1618 64.0911 75.169C64.3446 76.1762 67.925 86.612 64.2146 100.199C60.5042 113.78 60.8811 111.623 60.9461 115.606C61.0111 119.589 62.0182 120.883 62.5186 121.643C63.0189 122.403 63.3569 122.403 63.3569 122.403L64.8449 117.711C64.8449 117.711 67.5156 108.062 72.9869 104.566C78.4582 101.077 80.4401 101.577 84.7808 101.077C89.1215 100.576 97.6404 97.7756 96.9776 88.6264C96.3148 79.4772 93.0788 75.3899 93.0788 75.3899C93.0788 75.3899 92.5459 74.2593 91.0059 75.2665C89.4659 76.2737 86.0674 77.5927 86.0674 77.5927C86.0674 77.5927 82.2661 78.47 80.0307 77.9696C77.7954 77.4693 77.1716 76.5531 76.8857 74.4152C76.5998 72.2774 76.5998 69.6067 76.1319 69.0089C75.6641 68.4111 74.9038 67.8457 74.9038 67.8457C74.9038 67.8457 74.215 67.0595 74.4945 66.2082C74.0526 65.7079 72.8309 64.6682 73.4548 63.3491C74.0851 62.03 74.8388 60.8669 73.8966 59.7947C72.9544 59.3853 70.0303 58.5081 69.2765 57.5594C68.5228 56.6172 67.6131 55.3241 68.3993 53.914C69.1856 52.4974 72.6035 45.5511 72.623 44.9402C72.6425 44.3294 73.5262 41.8147 72.2006 39.5144C70.8815 37.2076 69.6534 34.0106 70.6931 31.2424C71.7328 28.4743 74.0266 29.6049 74.0266 29.6049C74.0266 29.6049 76.1514 30.2937 78.5817 30.5082Z" fill="#9B6348"/>
<path d="M147.877 81.3616C140.203 73.7719 137.019 74.7401 134.459 68.7034C131.899 62.6668 130.813 61.1982 132.659 51.2238C134.504 41.2493 138.358 30.1377 131.444 19.2601C124.523 8.38241 117.48 9.80547 116.102 9.3896C115.823 9.3896 115.582 9.3961 115.355 9.33762V9.3896C115.355 9.3896 121.443 12.0928 125.7 24.8159C127.266 29.5009 128.045 33.1593 126.414 40.892C124.777 48.6246 122.204 57.3449 123.458 66.0652C124.712 74.7856 124.4 81.0757 121.32 83.1485C118.24 85.2214 115.03 86.7354 110.377 82.7716C105.725 78.8078 106.478 71.9524 106.478 71.9524C106.478 71.9524 105.848 66.3577 113.204 53.2122C115.29 48.5856 116.31 41.2883 111.742 39.6053C112.047 39.8653 112.333 40.1902 112.606 40.5995C112.619 40.619 112.632 40.645 112.645 40.6645C112.716 40.775 112.788 40.892 112.859 41.0154C112.885 41.0544 112.905 41.0999 112.931 41.1389C112.989 41.2493 113.048 41.3598 113.113 41.4768C113.139 41.5288 113.165 41.5807 113.191 41.6392C113.243 41.7562 113.301 41.8732 113.353 42.0031C113.379 42.0616 113.405 42.1266 113.431 42.1851C113.483 42.315 113.542 42.458 113.594 42.6009C113.613 42.6594 113.639 42.7179 113.659 42.7829C113.73 42.9908 113.808 43.2052 113.88 43.4327C115.978 50.1386 109.435 60.0351 109.435 60.0351C109.435 60.0351 101.806 72.2774 105.913 83.0056C110.02 93.7403 120.755 91.6999 120.755 91.6999C120.755 91.6999 129.306 88.8733 129.052 82.8366C131.99 85.3513 138.007 91.31 146.24 103.045C146.24 103.045 147.286 104.092 148.501 101.707C149.716 99.3221 155.551 88.9512 147.877 81.3616Z" fill="#8E5335"/>
<path d="M72.9938 104.56C78.4652 101.07 80.447 101.57 84.7877 101.07C89.1284 100.57 97.6473 97.7691 96.9845 88.6199C96.3217 79.4707 93.0857 75.3834 93.0857 75.3834C93.0857 75.3834 92.5528 74.2528 91.0128 75.26C90.1356 75.8318 88.667 76.5011 87.5559 76.9755C86.4382 77.4563 85.2686 77.7747 84.0599 77.9372C82.7993 78.1061 81.2073 78.2231 80.0376 77.9566C77.8023 77.4563 77.1785 76.5401 76.8926 74.4022C76.6067 72.2644 76.6067 69.5937 76.1388 68.9959C75.6645 68.3981 74.9107 67.8328 74.9107 67.8328C74.9107 67.8328 74.2219 67.0465 74.5013 66.1953C74.0595 65.6949 72.8379 64.6552 73.4617 63.3361C74.092 62.017 74.8457 60.8539 73.9035 59.7817C73.7411 59.7102 73.5136 59.6258 73.2472 59.5283C72.8443 61.4387 72.7404 63.8755 73.5851 66.6046C75.5995 73.0831 78.1142 78.0411 78.9915 80.218C79.8687 82.3883 81.5062 88.5419 76.7886 92.6682C72.2075 96.6709 59.465 100.076 63.0324 122.234C63.2338 122.39 63.3508 122.397 63.3508 122.397L64.8388 117.705C64.8518 117.698 67.5225 108.049 72.9938 104.56Z" fill="#8E5335"/>
<path d="M77.5165 39.092C78.6342 39.1375 79.7324 39.4039 80.7461 39.8912C81.5453 40.2746 82.52 40.8529 83.4037 41.6587C83.6961 41.9511 84.3265 42.9583 82.481 42.2045C80.6356 41.4507 77.9519 40.3591 75.1058 40.4825C74.4365 40.4825 73.3838 40.1057 74.8979 39.6443C76.048 39.2934 76.2429 39.04 77.5165 39.092Z" fill="black"/>
<path d="M77.725 46.2918C78.2812 46.2918 78.7321 44.9041 78.7321 43.1922C78.7321 41.4804 78.2812 40.0927 77.725 40.0927C77.1687 40.0927 76.7178 41.4804 76.7178 43.1922C76.7178 44.9041 77.1687 46.2918 77.725 46.2918Z" fill="black"/>
</svg>
