<svg width="301" height="530" viewBox="0 0 301 530" fill="none" xmlns="http://www.w3.org/2000/svg">
<path d="M142.502 225.734C142.502 225.734 142.376 227.892 142.716 230.605C143.064 233.317 143.966 234.961 143.618 238.148C143.271 241.335 144.353 244.315 144.52 246.293C144.694 248.278 153.527 298.798 147.153 340.526C140.772 382.253 145.97 446.745 145.97 446.745C145.97 446.745 148.536 497.265 148.362 504.682C148.189 512.099 123.186 517.27 123.186 517.27C123.186 517.27 113.183 524.166 111.459 512.44C109.735 500.713 110.945 493.47 112.495 470.712C114.045 447.954 114.045 436.228 112.495 418.809C110.945 401.396 108.185 352.426 106.976 343.111C105.766 333.797 105.766 323.801 94.3874 275.693C93.5255 272.071 92.4697 273.775 92.2092 275.586C91.9486 277.397 89.8839 283.604 88.3271 289.684C86.7769 295.765 75.3311 339.924 72.0972 357.13C68.8632 374.328 63.9522 403.427 63.5646 431.364C63.1771 459.3 65.5892 510.722 57.658 510.896C49.7268 511.07 34.0381 509.52 34.0381 509.52C34.0381 509.52 29.5547 511.243 29.0402 499.003C28.5257 486.762 27.8308 478.83 28.0045 468.307C28.1782 457.783 28.6927 445.716 31.2786 428.992C33.8644 412.267 35.2475 397.434 35.9357 379.507C36.6239 361.573 37.8333 331.746 37.3121 301.05C36.791 270.354 48.6911 224.838 48.6911 224.838C48.6911 224.838 53.0008 215.009 97.6614 215.871C142.322 216.733 142.502 225.734 142.502 225.734Z" fill="#3B62C7"/>
<path d="M148.368 504.682C148.401 503.299 148.334 500.419 148.214 496.65C136.722 489.828 131.69 498.942 130.695 501.194C129.659 503.519 130.307 503.78 128.496 503.519C126.686 503.259 122.937 503.907 120.739 504.167C118.541 504.428 118.928 504.04 118.153 501.06C117.378 498.087 118.026 477.006 118.541 474.935C119.055 472.864 121.127 452.952 121.648 407.169C122.169 361.386 110.442 310.865 107.85 297.589C105.257 284.312 99.5713 275.693 98.3686 272.071C97.1592 268.45 94.9208 266.038 92.5087 272.419C83.9695 294.996 68.0202 369.324 66.1293 384.498C64.2317 399.672 62.3341 430.709 62.3341 430.709C62.3341 430.709 62.3341 482.773 61.9866 493.978C61.686 503.706 53.5343 492.782 49.0575 492.094C44.5741 491.405 44.0596 491.92 41.1263 490.543C38.193 489.167 35.9547 467.785 36.8166 451.402C37.6785 435.018 43.1976 410.015 45.436 390.364C47.6744 370.707 50.0932 321.91 50.0932 296.733C50.0932 271.557 56.2136 251.084 57.6368 245.779C59.06 240.473 61.1314 236.725 67.8532 234.266C74.575 231.807 84.6644 250.817 103.159 249.788C121.674 248.752 136.635 237.039 142.849 231.366C142.809 231.119 142.762 230.872 142.729 230.604C142.381 227.892 142.515 225.733 142.515 225.733C142.515 225.733 142.341 216.727 97.6804 215.865C53.0198 215.003 48.7101 224.831 48.7101 224.831C48.7101 224.831 36.8099 270.354 37.3311 301.043C37.8523 331.732 36.6429 361.566 35.9547 379.5C35.2664 397.434 33.8833 412.26 31.2975 428.985C28.7117 445.709 28.1905 457.783 28.0235 468.3C27.8497 478.817 28.5379 486.748 29.0591 498.996C29.5736 511.237 34.0571 509.513 34.0571 509.513C34.0571 509.513 49.7457 511.063 57.6769 510.889C65.6081 510.715 63.196 459.286 63.5836 431.357C63.9711 403.42 68.8888 374.328 72.1161 357.123C75.3501 339.924 86.7959 295.758 88.346 289.678C89.8962 283.597 91.9675 277.39 92.2281 275.579C92.4887 273.768 93.5444 272.065 94.4063 275.686C105.785 323.794 105.785 333.797 106.995 343.105C108.204 352.412 110.964 401.389 112.514 418.802C114.064 436.214 114.064 447.941 112.514 470.705C110.964 493.47 109.754 500.706 111.478 512.433C113.202 524.159 123.205 517.264 123.205 517.264C123.205 517.264 148.194 512.099 148.368 504.682Z" fill="#2651C0"/>
<path d="M114.079 73.6443L116.518 75.1076C116.518 75.1076 116.992 74.7201 117.981 78.1678C118.97 81.6156 118.496 82.6513 120.22 83.727C121.943 84.8028 129.36 89.0724 130.783 89.4599C132.207 89.8475 135.093 89.4198 135.614 90.0613C136.129 90.7094 136.389 91.7852 137.772 92.0458C139.149 92.3063 141.955 93.9434 144.628 95.6673C147.301 97.3911 176.052 116.661 177.562 117.049C179.072 117.436 179.413 117.436 180.275 116.487C181.137 115.539 181.264 115.626 182.513 115.666C183.763 115.706 185.62 115.492 185.62 115.492C185.62 115.492 187.043 114.931 188.293 115.706C189.542 116.481 194.026 120.49 192.736 122.127C192.736 122.127 189.289 124.065 188.253 128.207C187.217 132.343 184.631 143.555 185.146 145.84C185.66 148.125 188.206 149.375 189.329 149.027C189.329 149.027 188.467 153.424 183.856 152.001C182.346 151.961 178.471 152.736 178.25 148.767C178.25 148.767 173.807 149.154 174.114 146.355C174.114 146.355 171.094 146.655 168.208 144.718C168.208 144.718 168.081 143.943 165.969 144.03C163.858 144.116 145.964 141.918 142.65 140.709C142.65 140.709 140.626 140.061 140.325 141.009C140.024 141.958 130.797 160.32 133.643 177.739C136.49 195.151 136.576 199.12 142.263 210.76C142.263 210.76 144.073 211.969 143.986 216.54C143.986 216.54 143.125 217.575 144.762 219.727C146.399 221.885 145.276 226.021 142.951 227.23C141.401 227.23 140.793 227.665 140.018 228.607C139.242 229.556 126.828 242.745 106.649 247.229L104.751 241.449C104.751 241.449 103.542 237.827 101.731 240.587C99.9205 243.347 97.5084 247.229 97.5084 247.229C97.5084 247.229 97.3347 248.438 95.6977 247.743C94.0607 247.048 84.5726 243.26 68.9708 230.331C53.369 217.402 47.8566 228.219 47.8566 228.219L46.3933 234.406C46.3933 234.406 43.5335 236.277 44.1349 228.78C44.7362 221.277 51.1172 213.519 52.3266 208.087C53.536 202.655 54.2243 192.566 52.5004 182.309C50.7765 172.053 48.9657 149.722 48.8789 145.239L48.8856 143.555C48.8856 143.555 48.7252 142.393 47.6093 145.56C46.4935 148.727 42.2439 161.389 41.2751 164.101C40.3062 166.814 30.865 183.953 30.865 183.953L28.3727 185.797L28.0653 187.234C28.0653 187.234 26.4617 187.026 22.7133 192.064C22.7133 192.064 21.7444 193.133 20.0005 192.679C18.2566 192.225 16.2186 193.521 16.2186 193.521C16.2186 193.521 13.9201 196.073 10.2385 194.229C9.04247 193.909 7.84644 194.129 6.45664 194.129C5.06684 194.129 3.38305 193.321 2.38079 190.768C1.37854 188.216 -2.36991 179.743 2.38079 169.594C4.03118 165.391 6.617 163.774 6.617 163.774C6.617 163.774 7.07136 164.743 8.49457 160.026C9.91777 155.308 19.2922 133.452 24.5975 121.232C29.9028 109.011 35.0076 98.7943 36.7516 92.0057C38.4955 85.217 40.2461 85.2839 41.7963 85.0901C43.3464 84.8963 44.1215 84.9631 45.2908 85.932C46.4534 86.9008 48.9791 85.2237 48.9791 85.2237C48.9791 85.2237 66.1177 81.2147 79.0468 74.0987C79.7551 72.4149 83.5169 65.2253 85.2542 65.3723C89.183 65.6931 114.079 73.6443 114.079 73.6443Z" fill="#381033"/>
<path d="M189.602 148.206C188.479 148.553 185.66 148.139 185.138 145.854C184.624 143.569 186.909 131.802 187.938 127.659C188.974 123.523 192.722 122.14 192.722 122.14C192.762 122.087 192.782 122.033 192.809 121.98C191.132 121.633 188.533 121.659 186.989 124.472C184.577 128.869 182.078 135.851 182.078 135.851C182.078 135.851 179.406 141.283 176.82 139.56C174.234 137.836 173.973 133.893 174.494 130.86C175.009 127.833 176.653 121.365 176.653 121.365C176.653 121.365 174.668 125.074 173.806 125.936C172.944 126.797 171.735 129.043 171.481 130.158C171.22 131.281 170.88 134.555 168.635 136.018C166.396 137.482 165.1 138.09 165.1 138.09C165.1 138.09 155.271 140.762 142.168 136.453C142.168 136.453 137.337 136.098 135.787 125.114C135.787 133.265 134.491 139.386 134.063 142.66C133.629 145.934 125.183 164.73 134.063 195.987C139.108 213.319 142.984 222.306 142.342 223.923C141.694 225.54 141.179 226.028 140.371 226.896C139.603 227.732 125.952 242.164 106.308 246.2L106.648 247.242C126.82 242.759 139.235 229.569 140.017 228.62C140.792 227.671 141.393 227.244 142.95 227.244C145.275 226.034 146.398 221.898 144.761 219.74C143.124 217.582 143.986 216.553 143.986 216.553C144.073 211.983 142.262 210.773 142.262 210.773C136.569 199.134 136.482 195.172 133.642 177.752C130.803 160.333 140.024 141.972 140.324 141.023C140.625 140.074 142.649 140.722 142.649 140.722C145.97 141.932 163.857 144.13 165.969 144.043C168.08 143.956 168.207 144.731 168.207 144.731C171.093 146.669 174.114 146.368 174.114 146.368C173.813 149.168 178.25 148.78 178.25 148.78C178.463 152.749 182.346 151.968 183.856 152.014C188.827 154.152 189.602 148.206 189.602 148.206Z" fill="#130013"/>
<path d="M16.2102 193.528C16.2102 193.528 18.2481 192.232 19.992 192.686C21.736 193.14 22.7048 192.071 22.7048 192.071C26.4533 187.027 28.0569 187.241 28.0569 187.241L28.3642 185.804L30.8565 183.96C30.8565 183.96 40.2978 166.821 41.2666 164.108C42.2355 161.396 46.485 148.734 47.6009 145.567C48.7167 142.399 48.8771 143.562 48.8771 143.562L48.8704 145.246C48.9573 149.729 50.768 172.06 52.4919 182.316C54.2158 192.573 53.5276 202.662 52.3182 208.094C51.1088 213.526 44.7344 221.284 44.1264 228.787C43.525 236.291 46.3848 234.413 46.3848 234.413L47.8481 228.226C47.8481 228.226 53.3538 217.402 68.9623 230.338C84.5642 243.267 94.0522 247.062 95.6892 247.75C97.3262 248.438 97.5 247.236 97.5 247.236C97.5 247.236 97.5067 247.229 97.5067 247.222C94.9141 246.547 91.2592 244.977 86.121 241.717C71.6818 232.543 64.5658 226.803 64.5658 225.42C64.5658 224.037 71.9825 193.087 61.2917 144.979C58.5322 129.804 54.5232 114.33 54.5232 114.33C54.5232 114.33 53.7481 112.258 53.0131 114.677C52.2781 117.089 48.102 134.462 38.7877 143.689C29.4734 152.917 20.5132 156.017 19.0432 156.104C19.3907 154.467 22.9253 147.397 22.9253 147.397L46.632 93.0416C46.632 93.0416 48.3158 92.006 48.0553 90.8434C47.7947 89.6807 46.759 88.1306 46.759 88.1306C46.759 88.1306 47.9216 88.478 48.6566 89.6406C49.3916 90.8032 64.8665 80.2862 83.4015 78.2617C84.1766 78.2617 84.5642 77.8741 85.2123 77.0122C85.8604 76.1502 87.8449 72.5288 88.9607 71.9675C90.0833 71.4062 90.7314 70.8917 92.1479 71.7069C93.5711 72.5288 99.431 75.0544 104.863 75.4086C109.5 75.7093 112.788 76.0567 117.057 75.6692C116.683 74.9676 116.503 75.1146 116.503 75.1146L114.064 73.6513C114.064 73.6513 89.1679 65.7 85.2257 65.3726C83.4884 65.2323 79.7266 72.4219 79.0183 74.099C66.0892 81.215 48.9506 85.224 48.9506 85.224C48.9506 85.224 46.4316 86.9078 45.2623 85.9323C44.0997 84.9634 43.3246 84.8966 41.7678 85.0904C40.2176 85.2842 38.467 85.2173 36.7231 92.006C34.9791 98.7946 29.8676 109.011 24.569 121.232C19.2704 133.453 9.88927 155.309 8.46606 160.026C7.04286 164.743 6.5885 163.774 6.5885 163.774C6.5885 163.774 4.00267 165.391 2.35229 169.594C-2.39841 179.744 1.35003 188.216 2.35229 190.768C3.35455 193.321 5.03834 194.129 6.42814 194.129C7.81794 194.129 9.01397 193.902 10.21 194.23C13.9117 196.087 16.2102 193.528 16.2102 193.528Z" fill="#130013"/>
<path d="M68.1864 529.946H26.4591C26.4591 529.946 25.8577 530.106 25.8577 529.344C25.8577 528.576 25.8577 527.934 25.8577 527.934C25.8577 527.934 25.8911 527.326 26.4658 527.326C26.4658 526.705 26.4591 521.567 28.5304 518.206C28.497 517.591 27.9157 517.912 28.7242 515.46C29.5327 513.008 30.6619 507.736 30.6619 507.736C32.0851 505.765 34.4771 501.756 36.6754 499.17C38.8737 496.584 43.1767 493.998 46.404 493.998C49.638 493.998 54.1615 497.586 56.039 500.045C57.9166 502.504 60.5626 505.056 60.7563 509.52C60.9501 513.983 63.2486 516.181 63.2486 516.181C63.2486 516.181 67.692 517.832 68.1864 523.491C68.8412 525.656 68.6474 526.986 68.6474 526.986C68.6474 526.986 69.1352 526.986 69.1352 527.534C69.1352 528.081 69.1352 529.605 69.1352 529.605C69.1352 529.605 69.2087 529.946 68.1864 529.946Z" fill="#130013"/>
<path d="M181.903 529.959H115.433C115.433 529.959 112.934 530.46 112.848 527.961C112.761 525.462 112.848 517.872 112.848 517.872C112.848 517.872 115.995 514.725 117.117 513.602C118.24 512.48 120.264 507.956 128.884 509.079C131.209 508.304 131.042 509.68 132.592 506.232C134.142 502.785 135.352 496.751 140.61 496.664C145.869 496.577 147.94 499.25 149.063 500.025C150.185 500.8 153.893 502.958 155.53 504.335C157.167 505.711 168.293 515.026 176.651 515.627C176.651 515.627 180.099 515.112 180.533 518.039C180.533 518.039 182.605 517.865 183.206 523.986C183.206 523.986 183.554 525.021 183.807 525.195C184.068 525.369 184.155 529.164 183.807 529.505C183.453 529.859 182.424 529.959 181.903 529.959Z" fill="#130013"/>
<path d="M29.3045 163.981C29.3045 163.981 37.7101 164.823 45.4675 159.13C49.0222 156.671 50.7394 155.963 52.3831 154.8C54.0335 153.638 58.0425 150.471 58.6907 149.916C59.3388 149.361 60.9223 148.847 62.9269 149.402C64.9314 149.949 68.9738 151.085 69.7489 150.985C70.524 150.885 73.2301 150.357 79.2436 147.577C81.2281 146.716 84.0945 145.834 82.5644 149.903C81.355 152.489 80.4931 153.09 80.4931 153.09C80.4931 153.09 81.9364 153.244 82.6045 153.912C83.2727 154.58 89.1793 158.094 91.3308 158.783C93.489 159.471 91.979 161.629 90.8564 161.803C89.7339 161.977 85.8117 162.578 84.3885 162.451C84.3885 162.451 88.745 167.322 89.2595 167.709C89.774 168.097 91.9723 171.892 84.6491 170.556C81.502 169.955 79.8182 167.409 79.8182 167.409C79.8182 167.409 80.8539 171.418 81.2815 172.28C81.7158 173.142 82.8317 176.676 77.8338 175.641C77.3995 176.289 76.9317 178.574 73.8247 177.625C70.7177 176.676 67.4036 171.765 66.9292 171.291C66.4548 170.816 64.8178 170.903 63.7821 170.69C62.7464 170.476 61.0693 175.26 57.9623 175.347C54.8553 175.434 48.0066 175.908 46.8841 175.734C45.7615 175.561 40.5899 176.623 39.3404 177.859C38.0909 179.095 29.7254 185.349 29.7254 185.349C29.7254 185.349 27.1797 188.022 23.0838 186.512C18.9879 185.002 15.8876 182.028 17.7785 175.173C19.6895 168.311 24.3667 164.235 29.3045 163.981Z" fill="#7B472A"/>
<path d="M198.413 120.463L192.72 122.147C192.72 122.147 187.234 123.784 185.778 135.296C184.321 146.809 184.595 148.132 186.426 148.573C188.257 149.014 191.384 148.92 197.077 145.6C202.769 142.279 233.031 122.755 236.606 122.321C240.18 121.886 242.125 121.245 242.125 121.245C242.125 121.245 242.773 120.811 244.41 121.719C246.047 122.621 251.74 126.55 260.098 124.432C261.047 124.559 261.261 124.606 261.869 125.294C262.477 125.982 265.578 127.105 267.041 126.717C268.504 126.33 269.152 127.278 269.152 127.278L271.865 129.604C271.865 129.604 273.161 130.165 275.186 129.002C277.21 127.84 279.455 126.804 280.017 126.416C280.578 126.029 281.7 125.167 282.175 122.755C282.649 120.343 283.211 117.71 283.384 117.45C283.558 117.189 283.257 115.512 282.349 115.078C281.447 114.643 278.854 111.416 278.854 111.416C278.854 111.416 288.509 110.514 289.07 110.427C289.632 110.34 298.859 110.427 300.75 104.006C301.098 102.883 299.587 103.144 298.465 103.057C297.342 102.97 290.233 102.456 287.387 101.895C284.54 101.333 281.306 101.895 281.306 101.895C281.306 101.895 274.411 101.868 272.727 101.647C271.043 101.42 269.319 101.44 267.341 101.647C265.364 101.854 258.375 103.057 253.417 102.89C248.459 102.716 246.521 102.63 243.889 103.538C241.256 104.447 206.257 118.525 198.413 120.463Z" fill="#7B472A"/>
<path d="M300.235 103.151C300.241 104.32 299.627 105.924 296.914 107.4C291.883 110.147 273.895 110.334 273.895 110.334C273.895 110.334 272.947 111.109 274.33 111.369C275.706 111.63 276.742 111.022 278.125 112.144C279.508 113.267 281.486 115.251 282.007 115.592C282.522 115.94 283.557 116.802 280.631 123.784C280.631 123.784 280.029 125.508 276.408 125.508C272.786 125.508 269.425 125.421 268.477 125.508C267.528 125.595 267.1 126.022 265.37 125.508C263.646 124.993 261.147 123.523 261.147 123.523C261.147 123.523 259.937 122.835 258.735 123.35C257.525 123.864 252.18 123.61 248.993 122.401C245.805 121.192 242.438 119.555 240.46 119.989C238.476 120.423 232.957 122.314 230.371 123.523C227.785 124.733 204.245 138.183 196.575 140.508C188.904 142.834 187.955 142.493 187.868 139.132C187.788 135.998 187.187 129.557 193.755 121.846L192.739 122.147C192.739 122.147 187.254 123.784 185.797 135.297C184.34 146.809 184.614 148.132 186.445 148.573C188.276 149.014 191.403 148.921 197.096 145.6C202.789 142.279 233.05 122.755 236.625 122.321C240.2 121.886 242.144 121.245 242.144 121.245C242.144 121.245 242.792 120.811 244.429 121.719C246.066 122.621 251.759 126.55 260.118 124.432C261.067 124.559 261.28 124.606 261.888 125.294C262.49 125.982 265.597 127.105 267.06 126.717C268.523 126.33 269.171 127.279 269.171 127.279L271.884 129.604C271.884 129.604 273.18 130.165 275.205 129.002C277.23 127.84 279.475 126.804 280.036 126.417C280.597 126.029 281.72 125.167 282.194 122.755C282.669 120.343 283.23 117.71 283.404 117.45C283.577 117.189 283.277 115.512 282.368 115.078C281.466 114.643 278.873 111.416 278.873 111.416C278.873 111.416 288.528 110.514 289.09 110.427C289.651 110.34 298.878 110.427 300.769 104.006C300.916 103.465 300.662 103.244 300.235 103.151Z" fill="#63341A"/>
<path d="M84.6492 170.556C91.9791 171.892 89.7808 168.097 89.2596 167.709C88.8587 167.409 86.1393 164.395 84.9432 163.072C84.7361 162.838 84.8898 162.471 85.2038 162.464C86.9544 162.404 89.9011 161.95 90.8499 161.803C91.9724 161.629 93.4825 159.478 91.3243 158.783C89.1661 158.094 83.2661 154.58 82.5979 153.912C82.2238 153.538 81.6091 153.324 81.1347 153.21C80.8741 153.15 80.7672 152.836 80.9409 152.629C81.3084 152.188 81.8763 151.366 82.5512 149.923C82.5579 149.909 82.5645 149.896 82.5645 149.883C83.0657 148.54 83.0857 147.731 82.8118 147.29C82.7784 147.23 82.6581 147.103 82.6046 147.063C82.4443 146.956 82.471 146.976 82.2639 146.896C82.2171 146.876 81.9899 146.856 81.9365 146.849C81.1681 146.802 80.119 147.183 79.2304 147.571C73.2168 150.35 70.5107 150.878 69.7356 150.978C69.1677 151.052 66.8759 150.471 64.8981 149.936C67.23 150.851 69.5686 151.212 71.0252 151.366C73.9117 151.667 77.3194 151.78 80.54 153.477C83.353 154.954 88.6449 158.135 90.8833 158.996C92.4067 159.123 92.2196 161.021 90.322 161.368C88.4244 161.716 84.5022 162.317 83.0389 161.068C81.5756 159.818 79.6313 157.62 79.6313 157.62C79.6313 157.62 78.9431 156.584 77.2593 156.284C75.5755 155.983 68.3392 154.299 66.054 153.698C63.7689 153.097 62.2588 152.836 62.2588 152.836C62.2588 152.836 60.6218 152.488 61.9581 152.963C63.2878 153.437 73.7781 156.344 78.0744 156.965C78.1078 156.972 78.1346 156.972 78.1613 156.985C79.0366 157.373 83.1191 161.582 83.1191 161.582L87.9032 166.714L89.2396 168.09C89.2396 168.09 91.3844 170.536 86.2662 170.502C86.2395 170.502 86.2061 170.502 86.1794 170.496C84.0479 170.055 82.4643 168.859 81.6091 168.13C80.7471 167.395 79.0232 164.81 77.8138 162.224C76.9519 160.801 76.4374 160.54 75.5287 160.199C74.6267 159.852 65.8937 157.74 64.9916 157.453C63.5885 157.005 62.4993 156.471 61.3568 155.843C61.0294 155.662 61.016 156.524 62.0383 156.918C64.1364 157.734 71.8671 159.678 73.2435 159.939C74.62 160.199 76.0031 160.714 76.6512 162.351C77.2994 163.988 79.0633 166.64 79.237 166.894C79.4108 167.148 81.3952 173.77 81.3952 173.77C81.3952 173.77 81.6959 175.32 79.7983 175.32C77.9007 175.32 77.6401 174.932 76.865 173.335C76.09 171.739 75.0142 169.326 74.8806 168.164C74.7469 167.001 74.0587 166.914 73.6311 166.226C73.2369 165.598 72.5219 164.355 72.4016 164.141C72.3883 164.115 72.3749 164.101 72.3549 164.081C72.2212 163.941 71.6132 163.36 70.1833 162.945C68.5463 162.471 63.8891 160.66 63.2878 160.273C62.6864 159.885 63.1675 161.021 64.3702 161.509C65.5729 161.997 70.1432 163.68 70.7446 163.981C71.3459 164.282 71.8203 165.357 72.2547 165.966C72.6221 166.48 73.3237 167.141 73.5309 167.335C73.571 167.375 73.5977 167.415 73.6177 167.462C73.7046 167.683 73.9719 168.384 74.1456 169.199C74.3594 170.188 75.8294 173.122 76.3839 174.03C76.9452 174.932 75.4351 175.801 75.4351 175.801C75.4351 175.801 73.023 177.264 71.1655 175.413C69.3147 173.563 67.3169 170.509 67.1966 170.416C65.9471 169.38 64.7912 169.32 64.2767 169.306C63.1742 169.273 61.8245 169.554 61.4369 169.901C60.9024 170.382 60.0872 173.389 56.5927 173.603C53.1048 173.817 52.5837 173.817 48.3875 174.418C48.3742 174.418 48.3541 174.425 48.3408 174.425C46.8775 174.418 44.9531 174.558 43.4097 174.812C41.8528 175.073 38.0242 176.797 36.601 177.959C35.1778 179.122 26.859 186.879 21.3399 185.028C19.7564 184.501 19.2686 183.812 18.7007 182.877C17.351 180.652 17.0636 177.939 17.9055 175.474C19.4557 170.943 21.2865 168.611 24.6608 166.059C26.2577 164.85 26.3446 165.104 29.1442 164.683C31.9438 164.262 39.9218 163.908 45.6146 159.812C51.3075 155.716 55.9312 152.669 57.0337 151.653C58.517 150.284 58.8511 150.37 61.0093 149.161C59.9202 149.201 59.0917 149.542 58.664 149.903C58.0159 150.451 54.0069 153.618 52.3565 154.787C50.7061 155.95 48.9956 156.658 45.4409 159.117C37.9373 164.616 29.8324 164.014 29.3046 163.968C29.2845 163.968 29.2645 163.968 29.2444 163.968C24.32 164.235 19.6562 168.311 17.7652 175.153C15.8676 182.008 18.9746 184.982 23.0705 186.492C26.986 187.935 29.485 185.55 29.6921 185.342C29.7055 185.329 29.7121 185.322 29.7255 185.309C30.1865 184.968 38.1044 179.035 39.3205 177.839C40.5699 176.603 45.7416 175.54 46.8641 175.714C47.9866 175.888 54.8421 175.413 57.9424 175.327C61.0494 175.24 62.4659 170.282 63.5016 170.496C64.5373 170.71 66.4349 170.796 66.9093 171.271C67.3837 171.745 70.7045 176.656 73.8048 177.605C76.5978 178.46 77.2593 176.696 77.6802 175.861C77.7537 175.714 77.9207 175.641 78.0811 175.674C82.7784 176.529 81.6892 173.108 81.2683 172.26C81.0144 171.745 80.5467 170.128 80.2059 168.899C80.1057 168.545 80.54 168.277 80.8073 168.531C81.6358 169.306 82.9254 170.222 84.6492 170.556Z" fill="#63341A"/>
<path d="M87.3028 67.7642C87.3028 67.7642 91.1849 51.0198 90.9911 49.5966C90.7973 48.1734 87.3028 41.5785 87.3028 41.5785C87.3028 41.5785 82.3249 30.5871 86.5277 22.2416C90.7305 13.8962 99.5905 3.03837 105.083 2.97155C110.582 2.90473 122.221 5.3636 124.286 6.59304C126.351 7.82248 135.926 14.8049 136.961 19.2683C137.997 23.7316 137.67 30.7475 136.961 33.5271C136.253 36.3067 136.607 37.2154 136.607 37.2154C136.607 37.2154 136.059 43.7768 135.926 45.3337C135.799 46.8838 136.38 49.2759 132.177 58.069C127.974 66.8622 129.184 63.6549 126.097 70.2899C123.511 75.8491 120.925 75.074 120.15 75.0072C119.375 74.9403 116.509 75.1141 116.509 75.1141C116.509 75.1141 101.548 77.6531 87.3028 67.7642Z" fill="#63341A"/>
<path d="M136.961 19.2683C135.926 14.8049 126.357 7.82248 124.286 6.59304C122.215 5.3636 110.575 2.90473 105.083 2.97155C99.5838 3.03837 90.7305 13.8962 86.5277 22.2416C82.3249 30.5804 87.3028 41.5785 87.3028 41.5785C87.3028 41.5785 90.7973 48.1734 90.9911 49.5966C91.1849 51.0198 87.3028 67.7642 87.3028 67.7642C92.4878 71.3656 97.7597 73.31 102.377 74.339C102.925 72.9492 103.279 71.1451 103.279 71.1451C103.279 71.1451 103.319 70.6306 103.84 70.5438C109.78 73.457 114.17 74.6664 117.324 75.0673C118.232 75.0205 119.642 74.9604 120.157 75.0005C120.631 75.0406 121.774 75.3346 123.184 74.3123C121.794 74.2388 119.308 73.9114 118.54 72.5683C117.464 70.6707 119.275 67.3967 120.09 65.9735C120.912 64.5503 120.651 63.1738 120.651 63.1738C120.651 63.1738 120.564 62.7863 121.213 62.352C121.861 61.9177 121.647 61.6638 122.034 59.7662C122.422 57.8686 124.019 57.1803 125.529 56.4921C127.039 55.8039 127.126 55.2827 127.166 53.472C126.952 42.2667 127.6 38.7321 127.854 37.9504C128.115 37.1753 128.489 37.1218 128.502 35.4915C128.375 32.5582 129.665 30.4067 130.714 28.5959C131.763 26.7852 132.304 27.734 133.714 27.3866C135.725 27.4467 136.948 26.6917 137.616 25.4155C137.569 23.2506 137.376 21.0523 136.961 19.2683Z" fill="#7B472A"/>
<path d="M113.061 36.6743C113.014 36.6409 116.916 35.8324 119.729 37.4159C120.611 37.877 120.464 38.0106 120.464 38.0507C120.464 38.0908 120.204 38.5051 119.462 38.3848C118.72 38.2645 114.645 37.7901 113.061 36.6743Z" fill="#060107"/>
<path d="M128.496 39.7812C128.496 39.7812 130.099 39.0396 131.696 39.5073C133.3 39.975 134.215 41.2178 134.215 41.2178C134.215 41.2178 133.473 41.4584 131.723 41.1176C129.979 40.7835 128.496 39.7812 128.496 39.7812Z" fill="#060107"/>
<path d="M131.277 40.0886C131.277 40.0886 130.147 43.8237 131.083 45.3738C131.277 45.6812 131.544 45.0464 131.544 45.0464C131.544 45.0464 132.633 41.5452 132.199 40.4427C131.758 39.3469 131.277 40.0886 131.277 40.0886Z" fill="#060107"/>
<path d="M116.335 37.2758C116.335 37.2758 115.54 40.463 115.901 42.3339C115.967 42.7682 116.322 43.276 116.582 42.6546C116.843 42.0265 118.266 38.5387 117.778 37.65C117.29 36.7546 116.335 37.2758 116.335 37.2758Z" fill="#060107"/>
<path d="M112.006 19.008C112.006 19.008 105.15 19.8498 105.023 24.634C104.896 29.4181 104.809 33.5808 104.809 33.5808C104.809 33.5808 105.003 33.8815 103.734 33.9683C102.464 34.0552 101.128 34.1621 100.413 36.5141C99.7046 38.866 99.424 43.6034 99.3972 44.3183C99.3772 45.0266 98.9429 45.2872 98.3415 45.2471C97.7402 45.207 96.0564 44.8128 96.1232 43.2626C96.19 41.7124 96.7246 36.621 95.6488 34.2957C94.573 31.9705 92.2879 28.4359 89.7422 29.4648C87.1964 30.5005 87.0494 32.8926 87.0895 33.4739C87.1296 34.0552 86.8824 41.4786 91.3458 46.8173C91.3458 46.8173 92.5418 47.5923 91.6999 49.0156C90.858 50.4388 90.9315 50.4321 90.9315 50.4321C90.9315 50.4321 82.3655 44.8929 83.4881 27.8679C84.6106 10.8429 90.7444 7.5154 95.3882 4.50195C100.239 1.35486 102.892 1.0074 107.155 0.319185C108.865 0.0452343 116.382 -0.716477 122.843 1.86935C129.311 4.45517 133.187 6.5265 137.242 4.02754C141.292 1.52858 142.154 3.76695 142.154 3.76695C142.154 3.76695 145.668 5.93852 143.617 15.8408C143.129 18.1861 142.22 20.4178 141.091 22.5292C140.73 23.2041 140.356 24.213 140.129 25.703C139.548 29.4314 138.586 35.5252 136.548 35.7857C136.548 35.7857 137.804 28.3356 137.61 25.2286C136.855 25.5293 135.131 26.8657 131.296 25.703C127.46 24.5404 125.737 24.1061 120.565 21.1795C115.387 18.2529 112.006 19.008 112.006 19.008Z" fill="#161514"/>
</svg>
