<?xml version="1.0" encoding="UTF-8" standalone="no"?>
<svg
   width="316.15802"
   height="289.67368"
   version="1.1"
   id="svg210"
   sodipodi:docname="metamask.svg"
   inkscape:version="1.1.2 (0a00cf5339, 2022-02-04)"
   xmlns:inkscape="http://www.inkscape.org/namespaces/inkscape"
   xmlns:sodipodi="http://sodipodi.sourceforge.net/DTD/sodipodi-0.dtd"
   xmlns="http://www.w3.org/2000/svg"
   xmlns:svg="http://www.w3.org/2000/svg">
  <defs
     id="defs214" />
  <sodipodi:namedview
     id="namedview212"
     pagecolor="#ffffff"
     bordercolor="#666666"
     borderopacity="1.0"
     inkscape:pageshadow="2"
     inkscape:pageopacity="0.0"
     inkscape:pagecheckerboard="0"
     showgrid="false"
     inkscape:zoom="1.6199616"
     inkscape:cx="33.951422"
     inkscape:cy="138.58353"
     inkscape:window-width="1920"
     inkscape:window-height="1016"
     inkscape:window-x="0"
     inkscape:window-y="27"
     inkscape:window-maximized="1"
     inkscape:current-layer="svg210" />
  <polygon
     fill="#773900"
     stroke="#773900"
     points="237.08716,124.58329 292.04894,148.71666 240.05863,136.75403 "
     id="polygon2"
     transform="translate(-226.26685,-23.213821)" />
  <polygon
     fill="#773900"
     stroke="#773900"
     points="313.57751,153.71267 249.58574,172.25686 292.04894,148.71666 "
     id="polygon4"
     transform="translate(-226.26685,-23.213821)" />
  <polygon
     fill="#773900"
     stroke="#773900"
     points="249.58574,172.25686 242.05521,151.37893 292.04894,148.71666 "
     id="polygon6"
     transform="translate(-226.26685,-23.213821)" />
  <polygon
     fill="#773900"
     stroke="#773900"
     points="292.04894,148.71666 242.05521,151.37893 240.05863,136.75403 "
     id="polygon8"
     transform="translate(-226.26685,-23.213821)" />
  <polygon
     fill="#f78419"
     stroke="#f78419"
     points="341.65671,66.989006 403.79864,113.64857 358.10117,113.96537 "
     id="polygon10"
     transform="translate(-226.26685,-23.213821)" />
  <polygon
     fill="#f78419"
     stroke="#f78419"
     points="403.79864,113.64857 341.65671,66.989006 424.16796,66.090881 "
     id="polygon12"
     transform="translate(-226.26685,-23.213821)" />
  <polygon
     fill="#e47719"
     stroke="#e47719"
     points="228.00587,239.87473 315.04622,287.72155 246.91395,309.62982 "
     id="polygon14"
     transform="translate(-226.26685,-23.213821)" />
  <polygon
     fill="#773900"
     stroke="#773900"
     points="237.08716,124.58329 292.25262,84.356102 292.04894,148.71666 "
     id="polygon16"
     transform="translate(-226.26685,-23.213821)" />
  <polygon
     fill="#773900"
     stroke="#773900"
     points="292.25262,84.356102 313.57751,153.71267 292.04894,148.71666 "
     id="polygon18"
     transform="translate(-226.26685,-23.213821)" />
  <polygon
     fill="#e47719"
     stroke="#e47719"
     points="341.65671,66.989006 358.10117,113.96537 241.86213,28.169752 "
     id="polygon20"
     transform="translate(-226.26685,-23.213821)" />
  <polygon
     fill="#773900"
     stroke="#773900"
     points="474.29166,147.97995 516.62272,171.7052 450.87119,153.21638 "
     id="polygon22"
     transform="translate(-226.26685,-23.213821)" />
  <polygon
     fill="#773900"
     stroke="#773900"
     points="526.60302,135.30044 474.29166,147.97995 529.73354,122.79679 "
     id="polygon24"
     transform="translate(-226.26685,-23.213821)" />
  <polygon
     fill="#773900"
     stroke="#773900"
     points="474.29166,147.97995 524.4366,150.29622 516.62272,171.7052 "
     id="polygon26"
     transform="translate(-226.26685,-23.213821)" />
  <polygon
     fill="#773900"
     stroke="#773900"
     points="526.60302,135.30044 524.4366,150.29622 474.29166,147.97995 "
     id="polygon28"
     transform="translate(-226.26685,-23.213821)" />
  <polygon
     fill="#e17719"
     stroke="#e17719"
     points="424.16796,66.090881 521.1451,24.18652 403.79864,113.64857 "
     id="polygon30"
     transform="translate(-226.26685,-23.213821)" />
  <polygon
     fill="#773900"
     stroke="#773900"
     points="471.23409,82.661774 529.73354,122.79679 474.29166,147.97995 "
     id="polygon32"
     transform="translate(-226.26685,-23.213821)" />
  <polygon
     fill="#773900"
     stroke="#773900"
     points="450.87119,153.21638 471.23409,82.661774 474.29166,147.97995 "
     id="polygon34"
     transform="translate(-226.26685,-23.213821)" />
  <polygon
     fill="#e47719"
     stroke="#e47719"
     points="446.80515,288.73056 540.57699,241.01877 521.50756,312.25371 "
     id="polygon36"
     transform="translate(-226.26685,-23.213821)" />
  <polygon
     fill="#f78419"
     stroke="#f78419"
     points="249.58574,172.25686 291.95088,180.12226 228.00587,239.87473 "
     id="polygon38"
     transform="translate(-226.26685,-23.213821)" />
  <polygon
     fill="#e47719"
     stroke="#e47719"
     points="315.04622,287.72155 228.00587,239.87473 281.97919,236.28327 "
     id="polygon40"
     transform="translate(-226.26685,-23.213821)" />
  <polygon
     fill="#f78419"
     stroke="#f78419"
     points="291.95088,180.12226 281.97919,236.28327 228.00587,239.87473 "
     id="polygon42"
     transform="translate(-226.26685,-23.213821)" />
  <polygon
     fill="#773900"
     stroke="#773900"
     points="240.05863,136.75403 230.42353,129.25975 237.08716,124.58329 "
     id="polygon44"
     transform="translate(-226.26685,-23.213821)" />
  <polygon
     fill="#773900"
     stroke="#773900"
     points="240.05863,136.75403 242.05521,151.37893 232.5145,142.38808 "
     id="polygon46"
     transform="translate(-226.26685,-23.213821)" />
  <polygon
     fill="#773900"
     stroke="#773900"
     points="242.05521,151.37893 249.58574,172.25686 235.88504,155.66013 "
     id="polygon48"
     transform="translate(-226.26685,-23.213821)" />
  <polygon
     fill="#773900"
     stroke="#773900"
     points="313.57751,153.71267 292.25262,84.356102 358.10117,113.96537 "
     id="polygon50"
     transform="translate(-226.26685,-23.213821)" />
  <polygon
     fill="#773900"
     stroke="#773900"
     points="292.25262,84.356102 237.08716,124.58329 227.10936,74.668874 "
     id="polygon52"
     transform="translate(-226.26685,-23.213821)" />
  <polygon
     fill="#773900"
     stroke="#773900"
     points="471.23409,82.661774 450.87119,153.21638 403.79864,113.64857 "
     id="polygon54"
     transform="translate(-226.26685,-23.213821)" />
  <polygon
     fill="#f78419"
     stroke="#f78419"
     points="291.95088,180.12226 249.58574,172.25686 313.57751,153.71267 "
     id="polygon56"
     transform="translate(-226.26685,-23.213821)" />
  <polygon
     fill="#f78419"
     stroke="#f78419"
     points="540.57699,241.01877 468.66383,179.87565 516.62272,171.7052 "
     id="polygon58"
     transform="translate(-226.26685,-23.213821)" />
  <polygon
     fill="#e47719"
     stroke="#e47719"
     points="540.57699,241.01877 446.80515,288.73056 478.74191,236.94055 "
     id="polygon60"
     transform="translate(-226.26685,-23.213821)" />
  <polygon
     fill="#f78419"
     stroke="#f78419"
     points="478.74191,236.94055 468.66383,179.87565 540.57699,241.01877 "
     id="polygon62"
     transform="translate(-226.26685,-23.213821)" />
  <polygon
     fill="#773900"
     stroke="#773900"
     points="529.73354,122.79679 536.44342,127.5118 526.60302,135.30044 "
     id="polygon64"
     transform="translate(-226.26685,-23.213821)" />
  <polygon
     fill="#773900"
     stroke="#773900"
     points="530.63873,154.63626 516.62272,171.7052 524.4366,150.29622 "
     id="polygon66"
     transform="translate(-226.26685,-23.213821)" />
  <polygon
     fill="#773900"
     stroke="#773900"
     points="534.18934,141.00071 524.4366,150.29622 526.60302,135.30044 "
     id="polygon68"
     transform="translate(-226.26685,-23.213821)" />
  <polygon
     fill="#e47719"
     stroke="#e47719"
     points="359.95744,181.86754 313.57751,153.71267 358.10117,113.96537 "
     id="polygon70"
     transform="translate(-226.26685,-23.213821)" />
  <polygon
     fill="#e47719"
     stroke="#e47719"
     points="313.57751,153.71267 359.95744,181.86754 291.95088,180.12226 "
     id="polygon72"
     transform="translate(-226.26685,-23.213821)" />
  <polygon
     fill="#f78419"
     stroke="#f78419"
     points="450.87119,153.21638 516.62272,171.7052 468.66383,179.87565 "
     id="polygon74"
     transform="translate(-226.26685,-23.213821)" />
  <polygon
     fill="#773900"
     stroke="#773900"
     points="529.73354,122.79679 471.23409,82.661774 538.65293,71.447614 "
     id="polygon76"
     transform="translate(-226.26685,-23.213821)" />
  <polygon
     fill="#e47719"
     stroke="#e47719"
     points="397.70711,181.82068 450.87119,153.21638 468.66383,179.87565 "
     id="polygon78"
     transform="translate(-226.26685,-23.213821)" />
  <polygon
     fill="#e47719"
     stroke="#e47719"
     points="450.87119,153.21638 397.70711,181.82068 403.79864,113.64857 "
     id="polygon80"
     transform="translate(-226.26685,-23.213821)" />
  <polygon
     fill="#773900"
     stroke="#773900"
     points="292.25262,84.356102 241.86213,28.169752 358.10117,113.96537 "
     id="polygon82"
     transform="translate(-226.26685,-23.213821)" />
  <polygon
     fill="#773900"
     stroke="#773900"
     points="241.86213,28.169752 292.25262,84.356102 227.10936,74.668874 "
     id="polygon84"
     transform="translate(-226.26685,-23.213821)" />
  <polygon
     fill="#773900"
     stroke="#773900"
     points="471.23409,82.661774 521.1451,24.18652 538.65293,71.447614 "
     id="polygon86"
     transform="translate(-226.26685,-23.213821)" />
  <polygon
     fill="#773900"
     stroke="#773900"
     points="521.1451,24.18652 471.23409,82.661774 403.79864,113.64857 "
     id="polygon88"
     transform="translate(-226.26685,-23.213821)" />
  <polygon
     fill="#f78419"
     stroke="#f78419"
     points="397.70711,181.82068 358.10117,113.96537 403.79864,113.64857 "
     id="polygon90"
     transform="translate(-226.26685,-23.213821)" />
  <polygon
     fill="#f78419"
     stroke="#f78419"
     points="358.10117,113.96537 397.70711,181.82068 359.95744,181.86754 "
     id="polygon92"
     transform="translate(-226.26685,-23.213821)" />
  <polygon
     fill="#cd6200"
     stroke="#cd6200"
     points="319.46915,235.85789 315.04622,287.72155 281.97919,236.28327 "
     id="polygon94"
     transform="translate(-226.26685,-23.213821)" />
  <polygon
     fill="#cd6200"
     stroke="#cd6200"
     points="478.74191,236.94055 446.80515,288.73056 438.68857,236.25062 "
     id="polygon96"
     transform="translate(-226.26685,-23.213821)" />
  <polygon
     fill="#e47424"
     stroke="#e47424"
     points="319.46915,235.85789 291.95088,180.12226 318.91017,207.76522 "
     id="polygon98"
     transform="translate(-226.26685,-23.213821)" />
  <polygon
     fill="#f78419"
     stroke="#f78419"
     points="281.97919,236.28327 291.95088,180.12226 319.46915,235.85789 "
     id="polygon100"
     transform="translate(-226.26685,-23.213821)" />
  <polygon
     fill="#cd6200"
     stroke="#cd6200"
     points="359.95744,181.86754 318.91017,207.76522 291.95088,180.12226 "
     id="polygon102"
     transform="translate(-226.26685,-23.213821)" />
  <polygon
     fill="#c0ac9d"
     stroke="#c0ac9d"
     points="348.92092,299.5729 327.42558,297.49384 315.04622,287.72155 "
     id="polygon104"
     transform="translate(-226.26685,-23.213821)" />
  <polygon
     fill="#d6c2b2"
     stroke="#d6c2b2"
     points="315.04622,287.72155 347.55117,286.23939 348.92092,299.5729 "
     id="polygon106"
     transform="translate(-226.26685,-23.213821)" />
  <polygon
     fill="#c0ac9d"
     stroke="#c0ac9d"
     points="431.74657,298.37756 401.67518,300.02818 446.80515,288.73056 "
     id="polygon108"
     transform="translate(-226.26685,-23.213821)" />
  <polygon
     fill="#cd6200"
     stroke="#cd6200"
     points="439.81827,207.87791 397.70711,181.82068 468.66383,179.87565 "
     id="polygon110"
     transform="translate(-226.26685,-23.213821)" />
  <polygon
     fill="#d6c2b2"
     stroke="#d6c2b2"
     points="347.55117,286.23939 315.04622,287.72155 350.7482,258.04346 "
     id="polygon112"
     transform="translate(-226.26685,-23.213821)" />
  <polygon
     fill="#e47719"
     stroke="#e47719"
     points="319.46915,235.85789 350.7482,258.04346 315.04622,287.72155 "
     id="polygon114"
     transform="translate(-226.26685,-23.213821)" />
  <polygon
     fill="#e47424"
     stroke="#e47424"
     points="439.81827,207.87791 468.66383,179.87565 438.68857,236.25062 "
     id="polygon116"
     transform="translate(-226.26685,-23.213821)" />
  <polygon
     fill="#f78419"
     stroke="#f78419"
     points="468.66383,179.87565 478.74191,236.94055 438.68857,236.25062 "
     id="polygon118"
     transform="translate(-226.26685,-23.213821)" />
  <polygon
     fill="#d6c2b2"
     stroke="#d6c2b2"
     points="401.67518,300.02818 400.88453,286.64007 446.80515,288.73056 "
     id="polygon120"
     transform="translate(-226.26685,-23.213821)" />
  <polygon
     fill="#d6c2b2"
     stroke="#d6c2b2"
     points="397.32852,258.28317 446.80515,288.73056 400.88453,286.64007 "
     id="polygon122"
     transform="translate(-226.26685,-23.213821)" />
  <polygon
     fill="#e47719"
     stroke="#e47719"
     points="446.80515,288.73056 397.32852,258.28317 438.68857,236.25062 "
     id="polygon124"
     transform="translate(-226.26685,-23.213821)" />
  <polygon
     fill="#cd6200"
     stroke="#cd6200"
     points="318.91017,207.76522 359.95744,181.86754 343.42456,196.36372 "
     id="polygon126"
     transform="translate(-226.26685,-23.213821)" />
  <polygon
     fill="#243343"
     stroke="#243343"
     points="343.42456,196.36372 353.1057,217.32256 318.91017,207.76522 "
     id="polygon128"
     transform="translate(-226.26685,-23.213821)" />
  <polygon
     fill="#f78419"
     stroke="#f78419"
     points="353.1057,217.32256 319.46915,235.85789 318.91017,207.76522 "
     id="polygon130"
     transform="translate(-226.26685,-23.213821)" />
  <polygon
     fill="#cd6200"
     stroke="#cd6200"
     points="353.1057,217.32256 343.42456,196.36372 359.95744,181.86754 "
     id="polygon132"
     transform="translate(-226.26685,-23.213821)" />
  <polygon
     fill="#cd6200"
     stroke="#cd6200"
     points="397.70711,181.82068 439.81827,207.87791 414.69046,196.36182 "
     id="polygon134"
     transform="translate(-226.26685,-23.213821)" />
  <polygon
     fill="#243343"
     stroke="#243343"
     points="439.81827,207.87791 403.85542,217.41039 414.69046,196.36182 "
     id="polygon136"
     transform="translate(-226.26685,-23.213821)" />
  <polygon
     fill="#f78419"
     stroke="#f78419"
     points="439.81827,207.87791 438.68857,236.25062 403.85542,217.41039 "
     id="polygon138"
     transform="translate(-226.26685,-23.213821)" />
  <polygon
     fill="#cd6200"
     stroke="#cd6200"
     points="397.70711,181.82068 414.69046,196.36182 403.85542,217.41039 "
     id="polygon140"
     transform="translate(-226.26685,-23.213821)" />
  <polygon
     fill="#e47424"
     stroke="#e47424"
     points="360.66453,203.32168 353.1057,217.32256 359.95744,181.86754 "
     id="polygon142"
     transform="translate(-226.26685,-23.213821)" />
  <polygon
     fill="#f78419"
     stroke="#f78419"
     points="397.70711,181.82068 360.66453,203.32168 359.95744,181.86754 "
     id="polygon144"
     transform="translate(-226.26685,-23.213821)" />
  <polygon
     fill="#f78419"
     stroke="#f78419"
     points="360.66453,203.32168 397.70711,181.82068 395.32946,203.34097 "
     id="polygon146"
     transform="translate(-226.26685,-23.213821)" />
  <polygon
     fill="#e17719"
     stroke="#e17719"
     points="397.70711,181.82068 403.85542,217.41039 395.32946,203.34097 "
     id="polygon148"
     transform="translate(-226.26685,-23.213821)" />
  <polygon
     fill="#c0ac9d"
     stroke="#c0ac9d"
     points="327.42558,297.49384 348.92092,299.5729 350.99835,311.41943 "
     id="polygon150"
     transform="translate(-226.26685,-23.213821)" />
  <polygon
     fill="#c0ac9d"
     stroke="#c0ac9d"
     points="401.67518,300.02818 431.74657,298.37756 399.0974,311.88224 "
     id="polygon152"
     transform="translate(-226.26685,-23.213821)" />
  <polygon
     fill="#f78419"
     stroke="#f78419"
     points="353.1057,217.32256 350.7482,258.04346 319.46915,235.85789 "
     id="polygon154"
     transform="translate(-226.26685,-23.213821)" />
  <polygon
     fill="#f78419"
     stroke="#f78419"
     points="397.32852,258.28317 403.85542,217.41039 438.68857,236.25062 "
     id="polygon156"
     transform="translate(-226.26685,-23.213821)" />
  <polygon
     fill="#e47424"
     stroke="#e47424"
     points="353.1057,217.32256 360.66453,203.32168 356.73341,253.89788 "
     id="polygon158"
     transform="translate(-226.26685,-23.213821)" />
  <polygon
     fill="#f78419"
     stroke="#f78419"
     points="350.7482,258.04346 353.1057,217.32256 356.73341,253.89788 "
     id="polygon160"
     transform="translate(-226.26685,-23.213821)" />
  <polygon
     fill="#e47424"
     stroke="#e47424"
     points="391.30375,254.06368 395.32946,203.34097 403.85542,217.41039 "
     id="polygon162"
     transform="translate(-226.26685,-23.213821)" />
  <polygon
     fill="#f78419"
     stroke="#f78419"
     points="403.85542,217.41039 397.32852,258.28317 391.30375,254.06368 "
     id="polygon164"
     transform="translate(-226.26685,-23.213821)" />
  <polygon
     fill="#f78419"
     stroke="#f78419"
     points="391.30375,254.06368 360.66453,203.32168 395.32946,203.34097 "
     id="polygon166"
     transform="translate(-226.26685,-23.213821)" />
  <polygon
     fill="#f78419"
     stroke="#f78419"
     points="360.66453,203.32168 391.30375,254.06368 356.73341,253.89788 "
     id="polygon168"
     transform="translate(-226.26685,-23.213821)" />
  <polygon
     fill="#c0ac9d"
     stroke="#c0ac9d"
     points="347.55117,286.23939 350.99835,311.41943 348.92092,299.5729 "
     id="polygon170"
     transform="translate(-226.26685,-23.213821)" />
  <polygon
     fill="#c0ac9d"
     stroke="#c0ac9d"
     points="399.0974,311.88224 400.88453,286.64007 401.67518,300.02818 "
     id="polygon172"
     transform="translate(-226.26685,-23.213821)" />
  <polygon
     fill="#c0ac9d"
     stroke="#c0ac9d"
     points="350.99835,311.41943 347.55117,286.23939 350.12056,282.69172 "
     id="polygon174"
     transform="translate(-226.26685,-23.213821)" />
  <polygon
     fill="#c0ac9d"
     stroke="#c0ac9d"
     points="397.27184,283.03186 350.99835,311.41943 350.12056,282.69172 "
     id="polygon176"
     transform="translate(-226.26685,-23.213821)" />
  <polygon
     fill="#c0ac9d"
     stroke="#c0ac9d"
     points="350.99835,311.41943 397.27184,283.03186 399.0974,311.88224 "
     id="polygon178"
     transform="translate(-226.26685,-23.213821)" />
  <polygon
     fill="#c0ac9d"
     stroke="#c0ac9d"
     points="400.88453,286.64007 399.0974,311.88224 397.27184,283.03186 "
     id="polygon180"
     transform="translate(-226.26685,-23.213821)" />
  <polygon
     fill="#000000"
     stroke="#000000"
     points="350.7482,258.04346 350.12056,282.69172 347.55117,286.23939 "
     id="polygon182"
     transform="translate(-226.26685,-23.213821)" />
  <polygon
     fill="#000000"
     stroke="#000000"
     points="397.27184,283.03186 397.32852,258.28317 400.88453,286.64007 "
     id="polygon184"
     transform="translate(-226.26685,-23.213821)" />
  <polygon
     fill="#000000"
     stroke="#000000"
     points="350.12056,282.69172 350.7482,258.04346 351.55987,262.52093 "
     id="polygon186"
     transform="translate(-226.26685,-23.213821)" />
  <polygon
     fill="#000000"
     stroke="#000000"
     points="355.38695,258.2138 350.7482,258.04346 356.73341,253.89788 "
     id="polygon188"
     transform="translate(-226.26685,-23.213821)" />
  <polygon
     fill="#000000"
     stroke="#000000"
     points="350.7482,258.04346 355.38695,258.2138 351.55987,262.52093 "
     id="polygon190"
     transform="translate(-226.26685,-23.213821)" />
  <polygon
     fill="#000000"
     stroke="#000000"
     points="391.30375,254.06368 355.38695,258.2138 356.73341,253.89788 "
     id="polygon192"
     transform="translate(-226.26685,-23.213821)" />
  <polygon
     fill="#000000"
     stroke="#000000"
     points="355.38695,258.2138 391.30375,254.06368 390.60022,258.39544 "
     id="polygon194"
     transform="translate(-226.26685,-23.213821)" />
  <polygon
     fill="#000000"
     stroke="#000000"
     points="397.32852,258.28317 390.60022,258.39544 391.30375,254.06368 "
     id="polygon196"
     transform="translate(-226.26685,-23.213821)" />
  <polygon
     fill="#000000"
     stroke="#000000"
     points="397.32852,258.28317 397.27184,283.03186 394.451,262.75774 "
     id="polygon198"
     transform="translate(-226.26685,-23.213821)" />
  <polygon
     fill="#000000"
     stroke="#000000"
     points="390.60022,258.39544 397.32852,258.28317 394.451,262.75774 "
     id="polygon200"
     transform="translate(-226.26685,-23.213821)" />
  <polygon
     fill="#000000"
     stroke="#000000"
     points="351.55987,262.52093 397.27184,283.03186 350.12056,282.69172 "
     id="polygon202"
     transform="translate(-226.26685,-23.213821)" />
  <polygon
     fill="#000000"
     stroke="#000000"
     points="397.27184,283.03186 351.55987,262.52093 394.451,262.75774 "
     id="polygon204"
     transform="translate(-226.26685,-23.213821)" />
  <polygon
     fill="#000000"
     stroke="#000000"
     points="390.60022,258.39544 351.55987,262.52093 355.38695,258.2138 "
     id="polygon206"
     transform="translate(-226.26685,-23.213821)" />
  <polygon
     fill="#000000"
     stroke="#000000"
     points="351.55987,262.52093 390.60022,258.39544 394.451,262.75774 "
     id="polygon208"
     transform="translate(-226.26685,-23.213821)" />
</svg>
