<svg width="36" height="36" viewBox="0 0 36 36" fill="none" xmlns="http://www.w3.org/2000/svg">
<path fill-rule="evenodd" clip-rule="evenodd" d="M18 28C23.5228 28 28 23.5228 28 18C28 12.4772 23.5228 8 18 8C12.4772 8 8 12.4772 8 18C8 23.5228 12.4772 28 18 28ZM10.5 18C10.5 13.8579 13.8579 10.5 18 10.5C22.1421 10.5 25.5 13.8579 25.5 18C25.5 22.1421 22.1421 25.5 18 25.5C13.8579 25.5 10.5 22.1421 10.5 18ZM18 9.5C13.3056 9.5 9.5 13.3056 9.5 18C9.5 22.6944 13.3056 26.5 18 26.5C22.6944 26.5 26.5 22.6944 26.5 18C26.5 13.3056 22.6944 9.5 18 9.5Z" fill="white"/>
</svg>
