<svg width="64" height="64" viewBox="0 0 64 64" fill="none" xmlns="http://www.w3.org/2000/svg">
<path fill-rule="evenodd" clip-rule="evenodd" d="M48.3259 58.4325C54.9622 56.0367 59.3709 49.7219 59.333 42.6666C59.3253 39.0862 58.1556 35.6051 55.9997 32.7466C56.0934 32.5081 56.1475 32.2559 56.1597 31.9999L55.9997 12.7466C55.9122 8.57417 52.4657 5.25887 48.293 5.33326H13.0397C8.86699 5.25887 5.42051 8.57417 5.33301 12.7466V45.9199C5.42051 50.0924 8.86699 53.4076 13.0397 53.3333H29.333C29.4838 53.3461 29.6355 53.3461 29.7863 53.3333C34.2639 58.7858 41.6897 60.8282 48.3259 58.4325ZM45.333 18.6666C45.333 17.1938 44.1391 15.9999 42.6663 15.9999H18.6663C17.1936 15.9999 15.9997 17.1938 15.9997 18.6666C15.9997 20.1394 17.1936 21.3333 18.6663 21.3333H42.6663C44.1391 21.3333 45.333 20.1394 45.333 18.6666ZM49.893 38.1066C50.3978 38.6073 50.6818 39.2889 50.6818 39.9999C50.6818 40.711 50.3978 41.3925 49.893 41.8933L41.893 49.8933C41.3898 50.3924 40.7085 50.6707 39.9997 50.6666H39.573C38.731 50.5258 38.0073 49.9905 37.6263 49.2266L34.9597 43.8933C34.4443 43.0368 34.4512 41.964 34.9776 41.1142C35.5039 40.2644 36.4613 39.7804 37.4576 39.8602C38.454 39.9401 39.3221 40.5705 39.7063 41.4933L40.7197 43.5199L46.053 38.1866C46.5447 37.6545 47.2317 37.3454 47.956 37.3303C48.6803 37.3152 49.3796 37.5954 49.893 38.1066ZM42.6663 25.9999C45.4719 26.0127 48.2269 26.7474 50.6663 28.1333V12.7733C50.632 12.1788 50.3624 11.6225 49.9171 11.2272C49.4717 10.8319 48.8874 10.6302 48.293 10.6666H13.0397C11.8115 10.5904 10.7519 11.5191 10.6663 12.7466V45.9199C10.7519 47.1474 11.8115 48.0761 13.0397 47.9999H26.8797C25.1618 42.9138 25.999 37.3115 29.1288 32.9498C32.2587 28.5881 37.2979 26.0011 42.6663 25.9999ZM42.6663 31.3333C48.9256 31.3333 53.9997 36.4074 53.9997 42.6666C53.985 48.9197 48.9195 53.9853 42.6663 53.9999C36.4071 53.9999 31.333 48.9258 31.333 42.6666C31.333 36.4074 36.4071 31.3333 42.6663 31.3333Z" fill="#E6007A"/>
<path d="M28 27.5C28 26.1193 27.5116 25 26.9091 25H17.0909C16.4884 25 16 26.1193 16 27.5C16 28.8807 16.4884 30 17.0909 30H26.9091C27.5116 30 28 28.8807 28 27.5Z" fill="#E6007A"/>
<path d="M25 37.5C25 36.1193 24.6337 35 24.1818 35H16.8182C16.3663 35 16 36.1193 16 37.5C16 38.8807 16.3663 40 16.8182 40H24.1818C24.6337 40 25 38.8807 25 37.5Z" fill="#E6007A"/>
</svg>