<svg width="55" height="68" viewBox="0 0 55 68" fill="none" xmlns="http://www.w3.org/2000/svg"> <path d="M2.35391 13.1684C1.52256 13.5736 1 14.4317 1 15.3613V28.066C1 46.8489 10.9524 56.4549 25.9167 65.6556C26.7005 66.1324 27.6982 66.1324 28.482 65.6556C43.4463 56.4549 53.3987 46.8727 53.3987 28.066V15.3613C53.3987 14.4317 52.8761 13.5736 52.0448 13.1684L28.292 1.25028C27.6031 0.916573 26.7955 0.916573 26.1067 1.25028L2.35391 13.1684Z" fill="#E6007A" stroke="#E6007A" stroke-width="2" stroke-miterlimit="10"/> <path d="M7.20106 17.1563C6.53193 17.4821 6.11133 18.1719 6.11133 18.9193V29.1328C6.11133 44.2328 14.1218 51.9553 26.1662 59.352C26.7971 59.7352 27.6001 59.7352 28.231 59.352C40.2754 51.9553 48.2859 44.252 48.2859 29.1328V18.9193C48.2859 18.1719 47.8653 17.4821 47.1962 17.1563L28.078 7.57511C27.5236 7.30683 26.8736 7.30683 26.3192 7.57511L7.20106 17.1563Z" fill="white"/> <path d="M17.6143 31.5695L24.3967 39.6115C24.7962 40.0853 25.526 40.0853 25.9256 39.6115L38.0625 25.2207" stroke="#E6007A" stroke-width="4" stroke-miterlimit="10" stroke-linecap="round"/></svg>