<svg width="40" height="40" viewBox="0 0 40 40" fill="none" xmlns="http://www.w3.org/2000/svg">
<circle cx="28" cy="32" r="7" stroke="#E6007A" stroke-width="2" stroke-linejoin="round"/>
<path fill-rule="evenodd" clip-rule="evenodd" d="M7 1C5.34315 1 4 2.34315 4 4V34C4 35.6569 5.34315 37 7 37H23.101C22.5151 36.4259 22.0297 35.7496 21.6736 35H7C6.44772 35 6 34.5523 6 34V4C6 3.44772 6.44772 3 7 3H27C27.5523 3 28 3.44771 28 4V25C28.695 25 29.3663 25.1013 30 25.2899V4C30 2.34315 28.6569 1 27 1H7Z" fill="#E6007A"/>
<path d="M25 31.6601L27.2144 34L31 30" stroke="#E6007A" stroke-width="2" stroke-miterlimit="10" stroke-linecap="round" stroke-linejoin="round"/>
<line x1="9" y1="6" x2="18" y2="6" stroke="#E6007A" stroke-width="2" stroke-linecap="round"/>
<line x1="9" y1="13" x2="25" y2="13" stroke="#E6007A" stroke-width="2" stroke-linecap="round"/>
<line x1="9" y1="18" x2="25" y2="18" stroke="#E6007A" stroke-width="2" stroke-linecap="round"/>
<line x1="9" y1="23" x2="25" y2="23" stroke="#E6007A" stroke-width="2" stroke-linecap="round"/>
<line x1="9" y1="28" x2="18" y2="28" stroke="#E6007A" stroke-width="2" stroke-linecap="round"/>
</svg>
