<?xml version="1.0" encoding="UTF-8" standalone="no"?>
<svg
   width="36"
   height="36"
   viewBox="0 0 36 36"
   fill="none"
   version="1.1"
   id="svg10"
   sodipodi:docname="polkadot_import_items.svg"
   inkscape:version="1.1.1 (3bf5ae0d25, 2021-09-20)"
   xmlns:inkscape="http://www.inkscape.org/namespaces/inkscape"
   xmlns:sodipodi="http://sodipodi.sourceforge.net/DTD/sodipodi-0.dtd"
   xmlns="http://www.w3.org/2000/svg"
   xmlns:svg="http://www.w3.org/2000/svg">
  <defs
     id="defs14" />
  <sodipodi:namedview
     id="namedview12"
     pagecolor="#ffffff"
     bordercolor="#666666"
     borderopacity="1.0"
     inkscape:pageshadow="2"
     inkscape:pageopacity="0.0"
     inkscape:pagecheckerboard="0"
     showgrid="false"
     inkscape:zoom="23.444444"
     inkscape:cx="18"
     inkscape:cy="21.433649"
     inkscape:window-width="1920"
     inkscape:window-height="1016"
     inkscape:window-x="0"
     inkscape:window-y="27"
     inkscape:window-maximized="1"
     inkscape:current-layer="svg10" />
  <path
     fill-rule="evenodd"
     clip-rule="evenodd"
     d="M12.3753 24.6705C12.1642 24.6705 11.9619 24.5995 11.8132 24.4733C11.6634 24.3481 11.5791 24.1777 11.5791 24C11.5791 23.8222 11.6634 23.6518 11.8132 23.5266L14.1882 21.5266C14.3369 21.4004 14.5392 21.3294 14.7503 21.3294C14.9614 21.3294 15.1638 21.4004 15.3124 21.5266L17.6874 23.5266C17.8882 23.6957 17.9666 23.9422 17.8931 24.1732C17.8196 24.4042 17.6054 24.5846 17.3311 24.6465C17.0567 24.7084 16.7641 24.6424 16.5632 24.4733L15.542 23.6066L15.542 34C15.542 34.3681 15.1875 34.6666 14.7503 34.6666C14.3131 34.6666 13.9587 34.3681 13.9587 34L13.9587 23.6066L12.9374 24.4733C12.7888 24.5995 12.5864 24.6705 12.3753 24.6705ZM26.6253 30.6666H18.7087C18.2714 30.6666 17.917 30.3681 17.917 30C17.917 29.6318 18.2714 29.3333 18.7087 29.3333H26.6253C27.0626 29.3333 27.417 29.6318 27.417 30C27.417 30.3681 27.0626 30.6666 26.6253 30.6666ZM26.6253 26.6666H20.292C19.8548 26.6666 19.5003 26.3681 19.5003 26C19.5003 25.6318 19.8548 25.3333 20.292 25.3333H26.6253C27.0626 25.3333 27.417 25.6318 27.417 26C27.417 26.3681 27.0626 26.6666 26.6253 26.6666ZM21.8753 22.6666H26.6253C27.0626 22.6666 27.417 22.3681 27.417 22C27.417 21.6318 27.0626 21.3333 26.6253 21.3333H21.8753C21.4381 21.3333 21.0837 21.6318 21.0837 22C21.0837 22.3681 21.4381 22.6666 21.8753 22.6666Z"
     fill="#E6007A"
     id="path4" />
  <path
     d="M14 12.4422C14.0004 13.0862 13.8456 13.7209 13.5483 14.2937C13.251 14.8664 12.8199 15.3605 12.2908 15.7349L10.7885 16.7962C10.6156 16.9184 10.3844 16.9184 10.2115 16.7962L8.70917 15.7349C8.1801 15.3605 7.74899 14.8664 7.4517 14.2937C7.15442 13.7209 6.99955 13.0862 7 12.4422V9.54417C7 9.25137 7.25126 9.02338 7.54371 9.00915C8.48416 8.96338 9.41034 8.61004 10.2423 8.14814C10.4025 8.05922 10.5975 8.05922 10.7577 8.14814C11.5897 8.61004 12.5158 8.96338 13.4563 9.00915C13.7487 9.02338 14 9.25137 14 9.54417V12.4422Z"
     stroke="#E6007A"
     id="path6" />
  <path
     fill-rule="evenodd"
     clip-rule="evenodd"
     d="M9.00017 18.0261C9.01414 19.1186 9.90415 20 11 20H17.3333H21.7841H28V14.566V9C28 7.89543 27.1046 7 26 7H22.6364H19.3012C18.5101 7 17.7933 6.53364 17.4728 5.81035L17.1977 5.18965C16.8771 4.46636 16.1604 4 15.3692 4H11C9.89543 4 9 4.89543 9 6V6.71698C9.34659 6.57597 9.68598 6.42011 10.0162 6.25398C10.3204 6.10091 10.6796 6.10091 10.9838 6.25398C12.2039 6.86785 13.5496 7.3414 14.9201 7.44415C15.5013 7.48772 16 7.94248 16 8.52538V12.4166C16.0007 13.3467 15.7573 14.2636 15.2902 15.0908C14.823 15.9181 14.1455 16.6318 13.3142 17.1727L11.0446 18.6464C10.7134 18.8614 10.2866 18.8614 9.9554 18.6464L9.00017 18.0261Z"
     fill="#E6007A"
     id="path8" />
</svg>
