<svg width="36" height="36" viewBox="0 0 36 36" fill="none" xmlns="http://www.w3.org/2000/svg">
    <path fill-rule="evenodd" clip-rule="evenodd"
          d="M11.583 19C11.583 18.6319 11.9374 18.3334 12.3747 18.3334H21.8747C22.3119 18.3334 22.6663 18.6319 22.6663 19C22.6663 19.3682 22.3119 19.6667 21.8747 19.6667H12.3747C11.9374 19.6667 11.583 19.3682 11.583 19ZM20.2913 22.3334H12.3747C11.9374 22.3334 11.583 22.6319 11.583 23C11.583 23.3682 11.9374 23.6667 12.3747 23.6667H20.2913C20.7286 23.6667 21.083 23.3682 21.083 23C21.083 22.6319 20.7286 22.3334 20.2913 22.3334ZM12.3747 26.3334H18.708C19.1452 26.3334 19.4997 26.6319 19.4997 27C19.4997 27.3682 19.1452 27.6667 18.708 27.6667H12.3747C11.9374 27.6667 11.583 27.3682 11.583 27C11.583 26.6319 11.9374 26.3334 12.3747 26.3334ZM17.1247 30.3334H12.3747C11.9374 30.3334 11.583 30.6319 11.583 31C11.583 31.3682 11.9374 31.6667 12.3747 31.6667H17.1247C17.5619 31.6667 17.9163 31.3682 17.9163 31C17.9163 30.6319 17.5619 30.3334 17.1247 30.3334ZM26.6247 28.3295C26.8358 28.3295 27.0381 28.4005 27.1868 28.5267C27.3366 28.6519 27.4209 28.8223 27.4209 29C27.4209 29.1778 27.3366 29.3482 27.1868 29.4734L24.8118 31.4734C24.6631 31.5996 24.4608 31.6706 24.2497 31.6706C24.0386 31.6706 23.8362 31.5996 23.6876 31.4734L21.3126 29.4734C21.1118 29.3043 21.0334 29.0578 21.1069 28.8268C21.1804 28.5958 21.3946 28.4154 21.6689 28.3535C21.9433 28.2916 22.2359 28.3576 22.4368 28.5267L23.458 29.3934V19C23.458 18.6319 23.8125 18.3334 24.2497 18.3334C24.6869 18.3334 25.0413 18.6319 25.0413 19V29.3934L26.0626 28.5267C26.2112 28.4005 26.4136 28.3295 26.6247 28.3295Z"
          fill="#E6007A" />
    <path d="M14 12.4422C14.0004 13.0862 13.8456 13.7209 13.5483 14.2937C13.251 14.8664 12.8199 15.3605 12.2908 15.7349L10.7885 16.7962C10.6156 16.9184 10.3844 16.9184 10.2115 16.7962L8.70917 15.7349C8.1801 15.3605 7.74899 14.8664 7.4517 14.2937C7.15442 13.7209 6.99955 13.0862 7 12.4422V9.54417C7 9.25137 7.25126 9.02338 7.54371 9.00915C8.48416 8.96338 9.41034 8.61004 10.2423 8.14814C10.4025 8.05922 10.5975 8.05922 10.7577 8.14814C11.5897 8.61004 12.5158 8.96338 13.4563 9.00915C13.7487 9.02338 14 9.25137 14 9.54417V12.4422Z"
          stroke="#E6007A" />
    <path fill-rule="evenodd" clip-rule="evenodd"
          d="M9.00017 18.0261C9.01414 19.1186 9.90415 20 11 20H17.3333H21.7841H28V14.566V9C28 7.89543 27.1046 7 26 7H22.6364H19.3012C18.5101 7 17.7933 6.53364 17.4728 5.81035L17.1977 5.18965C16.8771 4.46636 16.1604 4 15.3692 4H11C9.89543 4 9 4.89543 9 6V6.71698C9.34659 6.57597 9.68598 6.42011 10.0162 6.25398C10.3204 6.10091 10.6796 6.10091 10.9838 6.25398C12.2039 6.86785 13.5496 7.3414 14.9201 7.44415C15.5013 7.48772 16 7.94248 16 8.52538V12.4166C16.0007 13.3467 15.7573 14.2636 15.2902 15.0908C14.823 15.9181 14.1455 16.6318 13.3142 17.1727L11.0446 18.6464C10.7134 18.8614 10.2866 18.8614 9.9554 18.6464L9.00017 18.0261Z"
          fill="#E6007A" />
</svg>
