<svg width="100" height="50" viewBox="0 0 100 50" fill="none" xmlns="http://www.w3.org/2000/svg">
    <path d="M49.25 18.5576L54.25 18.5576" stroke="white" stroke-linecap="round" />
    <path d="M49.25 28.5576L53 28.5576" stroke="white" stroke-linecap="round" />
    <path d="M49.25 23.5576L56.75 23.5576" stroke="white" stroke-linecap="round" />
    <path d="M61.75 23.5576V19.5576C61.75 16.7292 61.75 15.315 60.8713 14.4363C59.9926 13.5576 58.5784 13.5576 55.75 13.5576H50.25C47.4216 13.5576 46.0074 13.5576 45.1287 14.4363C44.25 15.315 44.25 16.7292 44.25 19.5576V30.0576C44.25 32.886 44.25 34.3003 45.1287 35.1789C46.0074 36.0576 47.4216 36.0576 50.25 36.0576H53"
          stroke="white" stroke-width="2" stroke-linecap="round" />
    <path d="M56.75 32.3076L58.5429 34.1005C58.9334 34.491 59.5666 34.491 59.9571 34.1005L64.25 29.8076" stroke="white"
          stroke-linecap="round" />
    <path d="M73.9433 16.7114L67.6407 23.014C67.4282 23.2265 67.3219 23.3328 67.252 23.4633C67.1822 23.5939 67.1527 23.7413 67.0938 24.036L66.3981 27.5145C66.3315 27.8471 66.2983 28.0134 66.3929 28.108C66.4875 28.2026 66.6538 28.1693 66.9864 28.1028L70.4649 27.4071C70.7596 27.3482 70.907 27.3187 71.0375 27.2488C71.1681 27.179 71.2743 27.0727 71.4869 26.8602L77.7894 20.5576L73.9433 16.7114Z"
          fill="#7E869E" fill-opacity="0.25" />
    <path d="M66.5447 27.956L66.8983 27.6025L66.5447 27.956C66.7541 28.1654 67.0152 28.169 67.1699 28.1538C67.3104 28.1401 67.4778 28.0982 67.6345 28.0589C67.6434 28.0567 67.6523 28.0545 67.6612 28.0522L70.1614 27.4272C70.1766 27.4234 70.1916 27.4197 70.2065 27.416C70.4292 27.3605 70.6264 27.3115 70.8054 27.2101C70.9844 27.1087 71.128 26.9649 71.2901 26.8024C71.3009 26.7916 71.3118 26.7806 71.3229 26.7696L71.3229 26.7696L78.1708 19.9217L78.1941 19.8984C78.5075 19.585 78.7776 19.315 78.9647 19.0696C79.1653 18.8067 79.3172 18.5143 79.3172 18.1539C79.3172 17.7935 79.1653 17.5011 78.9647 17.2382C78.7776 16.9928 78.5075 16.7228 78.1941 16.4094L78.1708 16.3861L78.1146 16.3299L78.0913 16.3067C77.7779 15.9932 77.5079 15.7232 77.2626 15.536C76.9996 15.3354 76.7072 15.1835 76.3468 15.1835C75.9864 15.1835 75.694 15.3354 75.4311 15.536C75.1858 15.7232 74.9157 15.9932 74.6023 16.3067L74.5791 16.3299L67.7311 23.1779C67.7201 23.1889 67.7092 23.1998 67.6983 23.2107C67.5358 23.3728 67.392 23.5163 67.2906 23.6953C67.1893 23.8744 67.1402 24.0715 67.0848 24.2943C67.0811 24.3092 67.0773 24.3242 67.0736 24.3393L66.4485 26.8396C66.4463 26.8484 66.444 26.8573 66.4418 26.8663C66.4026 27.023 66.3607 27.1903 66.3469 27.3308C66.3318 27.4856 66.3353 27.7466 66.5447 27.956Z"
          stroke="white" />
    <path d="M73.9434 16.7114L77.7895 20.5576" stroke="white" />
    <path d="M32 31.5L32.7071 32.2071L32 32.9142L31.2929 32.2071L32 31.5ZM31 19.5C31 18.9477 31.4477 18.5 32 18.5C32.5523 18.5 33 18.9477 33 19.5H31ZM36.7071 28.2071L32.7071 32.2071L31.2929 30.7929L35.2929 26.7929L36.7071 28.2071ZM31.2929 32.2071L27.2929 28.2071L28.7071 26.7929L32.7071 30.7929L31.2929 32.2071ZM31 31.5V19.5H33V31.5H31Z"
          fill="white" />
</svg>
