<?xml version="1.0" encoding="UTF-8" standalone="no"?>
<svg
   width="26"
   height="26"
   viewBox="0 0 26 26"
   fill="none"
   version="1.1"
   id="svg69"
   sodipodi:docname="qr.svg"
   inkscape:version="1.1.2 (0a00cf5339, 2022-02-04)"
   xmlns:inkscape="http://www.inkscape.org/namespaces/inkscape"
   xmlns:sodipodi="http://sodipodi.sourceforge.net/DTD/sodipodi-0.dtd"
   xmlns="http://www.w3.org/2000/svg"
   xmlns:svg="http://www.w3.org/2000/svg">
  <sodipodi:namedview
     id="namedview71"
     pagecolor="#ffffff"
     bordercolor="#666666"
     borderopacity="1.0"
     inkscape:pageshadow="2"
     inkscape:pageopacity="0.0"
     inkscape:pagecheckerboard="0"
     showgrid="false"
     inkscape:zoom="16.577726"
     inkscape:cx="-1.8398181"
     inkscape:cy="8.5355496"
     inkscape:window-width="1920"
     inkscape:window-height="1016"
     inkscape:window-x="0"
     inkscape:window-y="27"
     inkscape:window-maximized="1"
     inkscape:current-layer="svg69" />
  <rect
     x="0.5"
     y="0.5"
     width="8"
     height="8"
     fill="#ffffff"
     stroke="#000000"
     id="rect4" />
  <rect
     x="2.9541001"
     y="2.9545898"
     width="3.09091"
     height="3.09091"
     fill="#000000"
     stroke="#000000"
     id="rect6" />
  <rect
     x="1"
     y="12"
     width="2"
     height="2"
     fill="#ffffff"
     id="rect8" />
  <rect
     x="5"
     y="12"
     width="2"
     height="2"
     fill="#ffffff"
     id="rect10" />
  <rect
     x="9"
     y="12"
     width="2"
     height="2"
     fill="#ffffff"
     id="rect12" />
  <rect
     x="11"
     y="3"
     width="2"
     height="2"
     fill="#ffffff"
     id="rect14" />
  <rect
     x="13"
     y="3"
     width="2"
     height="2"
     fill="#ffffff"
     id="rect16" />
  <rect
     x="11"
     y="18"
     width="2"
     height="2"
     fill="#ffffff"
     id="rect18" />
  <rect
     x="10"
     y="12"
     width="2"
     height="2"
     fill="#ffffff"
     id="rect20" />
  <rect
     x="12"
     y="12"
     width="2"
     height="2"
     fill="#ffffff"
     id="rect22" />
  <rect
     x="13"
     y="18"
     width="2"
     height="2"
     fill="#ffffff"
     id="rect24" />
  <rect
     x="15"
     y="18"
     width="2"
     height="2"
     fill="#ffffff"
     id="rect26" />
  <rect
     x="19"
     y="18"
     width="2"
     height="2"
     fill="#ffffff"
     id="rect28" />
  <rect
     x="17"
     y="12"
     width="2"
     height="2"
     fill="#ffffff"
     id="rect30" />
  <rect
     x="20"
     y="12"
     width="2"
     height="2"
     fill="#ffffff"
     id="rect32" />
  <rect
     x="24"
     y="12"
     width="2"
     height="2"
     fill="#ffffff"
     id="rect34" />
  <rect
     x="11"
     y="7"
     width="2"
     height="2"
     fill="#ffffff"
     id="rect36" />
  <rect
     x="11"
     y="23"
     width="2"
     height="2"
     fill="#ffffff"
     id="rect38" />
  <rect
     x="15"
     y="23"
     width="2"
     height="2"
     fill="#ffffff"
     id="rect40" />
  <rect
     x="17"
     y="23"
     width="2"
     height="2"
     fill="#ffffff"
     id="rect42" />
  <rect
     x="19"
     y="23"
     width="2"
     height="2"
     fill="#ffffff"
     id="rect44" />
  <rect
     x="21"
     y="23"
     width="2"
     height="2"
     fill="#ffffff"
     id="rect46" />
  <rect
     x="23"
     y="23"
     width="2"
     height="2"
     fill="#ffffff"
     id="rect48" />
  <rect
     x="21"
     y="18"
     width="2"
     height="2"
     fill="#ffffff"
     id="rect50" />
  <rect
     x="24"
     y="18"
     width="2"
     height="2"
     fill="#ffffff"
     id="rect52" />
  <rect
     x="17.5"
     y="0.5"
     width="8"
     height="8"
     fill="#ffffff"
     stroke="#000000"
     id="rect54" />
  <rect
     x="19.9541"
     y="2.9545898"
     width="3.09091"
     height="3.09091"
     fill="#000000"
     stroke="#000000"
     id="rect56" />
  <rect
     x="0.5"
     y="17.5"
     width="8"
     height="8"
     fill="#ffffff"
     stroke="#000000"
     id="rect58" />
  <rect
     x="2.9541001"
     y="19.954599"
     width="3.09091"
     height="3.09091"
     fill="#000000"
     stroke="#000000"
     id="rect60" />
  <defs
     id="defs67">
    <linearGradient
       id="paint0_linear_3058_20142"
       x1="18"
       y1="0"
       x2="18"
       y2="36"
       gradientUnits="userSpaceOnUse">
      <stop
         stop-color="#3B6CF4"
         id="stop62" />
      <stop
         offset="1"
         stop-color="#6050DC"
         id="stop64" />
    </linearGradient>
  </defs>
</svg>
