<svg width="20" height="20" viewBox="0 0 20 20" fill="none" xmlns="http://www.w3.org/2000/svg"> <path d="M9.60001 19.4C14.9019 19.4 19.2 15.0572 19.2 9.70001C19.2 4.34285 14.9019 0 9.60001 0C4.29807 0 0 4.34285 0 9.70001C0 15.0572 4.29807 19.4 9.60001 19.4Z" fill="url(#paint0_linear_3980_20724)"/> <path d="M8.30038 9.10004C8.60038 9.10004 8.70038 9.10004 8.80038 9.10004C9.90038 9.10004 10.7004 8.50004 10.7004 7.60004C10.7004 6.90004 10.2004 6.40009 9.5004 6.40009C8.9004 6.40009 8.40039 6.90006 8.40039 7.50006C8.40039 7.50006 8.40039 7.60007 8.40039 7.70007H6.40039C6.40039 7.60007 6.40039 7.50006 6.40039 7.50006C6.40039 6.00006 7.8004 4.80005 9.5004 4.80005C11.2004 4.80005 12.6004 6.10007 12.6004 7.70007C12.6004 9.10007 11.7004 10.1001 10.1004 10.5001V11.8H8.20041V9.10004H8.30038ZM10.4004 14.2001C10.4004 14.9001 9.90041 15.4001 9.20041 15.4001C8.50041 15.4001 8.0004 14.9001 8.0004 14.2001C8.0004 13.5001 8.50041 13.0001 9.20041 13.0001C9.90041 13.0001 10.4004 13.5001 10.4004 14.2001Z" fill="white"/> <defs> <linearGradient id="paint0_linear_3980_20724" x1="9.60001" y1="0" x2="9.60001" y2="19.4" gradientUnits="userSpaceOnUse"> <stop stop-color="#3B6CF4"/> <stop offset="1" stop-color="#6050DC"/> </linearGradient> </defs> </svg>