<svg width="250" height="212" viewBox="0 0 250 212" fill="none" xmlns="http://www.w3.org/2000/svg">
<path d="M206.971 119.101V78.6992C206.971 71.4247 201.116 65.5394 193.907 65.5394H100.328L84.6942 55.297H41.7287C34.3567 55.297 28.4516 61.4349 28.6648 68.8483L30.1316 119.101H206.971V119.101Z" fill="#BCDAEF"/>
<path d="M172.241 98.2697C150.062 93.4855 128.374 88.7062 107.025 83.922C112.394 58.3747 127.437 32.8275 128.46 7.28018C150.619 12.0643 172.292 16.8437 193.625 21.6279C188.186 47.1751 173.163 72.7224 172.241 98.2697Z" fill="white"/>
<path d="M172.24 98.2697C150.056 93.5381 128.363 88.8016 106.994 84.0699C106.943 84.0604 106.893 84.0461 106.837 84.0365C106.847 83.9888 106.857 83.9411 106.867 83.8935C112.216 58.3414 127.228 32.7846 128.201 7.23253C128.206 7.15622 128.206 7.0799 128.211 6.99881C128.297 7.01789 128.383 7.03697 128.469 7.05605C150.643 11.8593 172.321 16.6673 193.66 21.4705C193.72 21.4848 193.776 21.4991 193.837 21.5087C193.827 21.5611 193.812 21.6184 193.801 21.6708C188.291 47.199 173.223 72.732 172.24 98.2697ZM172.24 98.2697C173.096 72.7082 188.078 47.1513 193.447 21.5898C193.492 21.6565 193.543 21.7233 193.589 21.7949C172.26 17.0346 150.598 12.2743 128.449 7.51872C128.54 7.46148 128.626 7.39948 128.717 7.34224C127.639 32.88 112.57 58.4225 107.181 83.9602C107.141 83.903 107.1 83.841 107.055 83.7837C128.388 88.6061 150.066 93.4379 172.24 98.2697Z" fill="#DADADA"/>
<path d="M168.731 52.1931C165.434 61.1461 155.441 66.66 146.116 64.5088C136.746 62.3576 131.904 53.3522 135.125 44.3992C138.316 35.4462 147.955 29.9322 157.401 32.0834C166.877 34.2346 172.069 43.2353 168.731 52.1931Z" fill="#E4B523"/>
<path d="M151.936 48.2976C148.112 52.8814 144.243 57.47 140.469 62.0538C134.781 58.1568 132.735 51.1118 135.121 44.4006C138.291 35.5048 148.016 29.948 157.396 32.0849C166.817 34.2217 172.044 43.2988 168.726 52.1945C163.135 50.8923 157.538 49.595 151.936 48.2976Z" fill="#F4C430"/>
<path d="M151.937 48.2977C155.27 52.5619 158.567 56.8214 161.935 61.0856C157.311 64.4722 151.461 65.7457 146.113 64.5103C136.803 62.3735 131.921 53.2964 135.122 44.4007C138.292 35.5049 148.017 29.9481 157.397 32.085C166.818 34.2218 172.045 43.2988 168.727 52.1946C163.136 50.8924 157.539 49.595 151.937 48.2977Z" fill="#F4C430"/>
<path d="M151.938 48.2981C146.068 49.6336 140.192 50.9692 134.317 52.3047C133.922 49.7099 134.206 47.0007 135.127 44.4059C138.298 35.5101 148.023 29.9532 157.403 32.0901C166.824 34.227 172.051 43.304 168.733 52.1998C163.136 50.8929 157.54 49.5955 151.938 48.2981Z" fill="#DF6D14"/>
<path d="M133.479 18.0604C142.479 20.0638 151.414 22.0623 160.298 24.0609C160.141 24.7191 159.984 25.3726 159.816 26.0308C150.968 24.0275 142.074 22.0289 133.114 20.0304C133.241 19.3721 133.368 18.7187 133.479 18.0604Z" fill="#DADADA"/>
<path d="M131.449 68.3535C143.311 71.0819 155.228 73.8102 167.227 76.5386C167.045 77.1968 166.873 77.8503 166.7 78.5085C154.656 75.7802 142.703 73.0518 130.815 70.3235C131.023 69.6652 131.236 69.0118 131.449 68.3535Z" fill="#DADADA"/>
<path d="M129.897 73.3236C141.835 76.052 153.849 78.7803 165.964 81.5087C165.812 82.1669 165.665 82.8204 165.523 83.4786C153.357 80.7503 141.303 78.0219 129.324 75.2936C129.512 74.6353 129.699 73.9771 129.897 73.3236Z" fill="#DADADA"/>
<path d="M128.51 78.289C140.549 81.0174 152.68 83.7457 164.927 86.4741C164.805 87.1323 164.694 87.7857 164.587 88.444C152.28 85.7156 140.099 82.9873 128.014 80.2589C128.171 79.6007 128.338 78.9472 128.51 78.289Z" fill="#DADADA"/>
<path d="M124.433 68.859C122.995 68.5299 121.557 68.196 120.118 67.8669C120.331 67.2087 120.554 66.5552 120.772 65.897C122.205 66.2261 123.643 66.56 125.077 66.8891C124.864 67.5473 124.646 68.2008 124.433 68.859Z" fill="#DF6D14"/>
<path d="M122.899 73.8246C121.451 73.4955 120.002 73.1616 118.554 72.8325C118.751 72.1743 118.954 71.5208 119.156 70.8625C120.6 71.1917 122.043 71.5256 123.487 71.8547C123.289 72.5129 123.092 73.1711 122.899 73.8246Z" fill="#E4B523"/>
<path d="M121.531 78.7947C120.067 78.4656 118.608 78.1317 117.149 77.8026C117.322 77.1443 117.504 76.4909 117.686 75.8326C119.14 76.1618 120.594 76.4956 122.052 76.8248C121.87 77.4782 121.698 78.1365 121.531 78.7947Z" fill="#DADADA"/>
<path d="M140.947 29.9994L76.9062 30.8562L77.9032 109.234L141.944 108.377L140.947 29.9994Z" fill="white"/>
<path d="M141.933 108.383L109.964 108.919L77.9007 109.409L77.7235 109.411L77.7214 109.242L76.6351 30.8593L76.6318 30.6006L76.9031 30.597L140.933 29.7935L141.143 29.7906L141.146 29.9912L141.571 69.2371L141.933 108.383ZM141.933 108.383L141.298 69.1404L140.731 30.0074L140.944 30.2052L76.9153 31.1248L77.1833 30.8625L78.0814 109.248L77.9021 109.081L109.873 108.709L141.933 108.383Z" fill="#DADADA"/>
<path d="M84.2301 50.6848L106.748 47.8217L129.213 45.3072L106.697 48.1558L84.2301 50.6848Z" fill="#DADADA"/>
<path d="M84.4696 52.5487L106.985 49.7002L129.452 47.1712L106.934 50.0342L84.4696 52.5487Z" fill="#DADADA"/>
<path d="M84.6998 54.4354L107.218 51.5723L129.682 49.0579L107.167 51.9064L84.6998 54.4354Z" fill="#DADADA"/>
<path d="M84.9364 56.3085L107.453 53.4551L129.92 50.9216L107.404 53.775L84.9364 56.3085Z" fill="#DADADA"/>
<path d="M85.1686 58.1855L107.687 55.3224L130.151 52.8079L107.635 55.6565L85.1686 58.1855Z" fill="#DADADA"/>
<path d="M85.4002 60.0576L107.917 57.2041L130.384 54.6705L107.868 57.524L85.4002 60.0576Z" fill="#DADADA"/>
<path d="M85.6386 61.9206L108.154 59.072L130.621 56.5431L108.103 59.4061L85.6386 61.9206Z" fill="#DADADA"/>
<path d="M85.8707 63.8079L108.389 60.9448L130.854 58.4302L108.338 61.2788L85.8707 63.8079Z" fill="#DADADA"/>
<path d="M86.1054 65.6703L108.621 62.8217L131.088 60.2927L108.57 63.1558L86.1054 65.6703Z" fill="#DADADA"/>
<path d="M86.3404 67.5582L108.859 64.6952L131.323 62.1807L108.807 65.0292L86.3404 67.5582Z" fill="#DADADA"/>
<path d="M86.5761 69.4211L109.092 66.5725L131.559 64.0434L109.041 66.9066L86.5761 69.4211Z" fill="#DADADA"/>
<path d="M86.8063 71.3078L109.324 68.4447L131.789 65.9302L109.273 68.7788L86.8063 71.3078Z" fill="#DADADA"/>
<path d="M87.0448 73.1712L109.561 70.3227L132.027 67.7937L109.509 70.6568L87.0448 73.1712Z" fill="#DADADA"/>
<path d="M87.2731 75.0573L109.791 72.1943L132.256 69.6798L109.74 72.5283L87.2731 75.0573Z" fill="#DADADA"/>
<path d="M87.5126 76.9209L110.028 74.0723L132.495 71.5432L109.977 74.4064L87.5126 76.9209Z" fill="#DADADA"/>
<path d="M95.619 70.4917L91.6221 70.4192L91.8688 78.4732L95.8658 78.5456L95.619 70.4917Z" fill="#6E0B14"/>
<path d="M101.663 65.5614L97.4492 65.3481L97.966 77.63L102.179 77.8432L101.663 65.5614Z" fill="#6E0B14"/>
<path d="M107.621 60.1271L103.214 59.7798L104.086 76.7973L108.494 77.1446L107.621 60.1271Z" fill="#6E0B14"/>
<path d="M113.78 57.3421L109.301 56.9448L110.34 75.9908L114.819 76.3882L113.78 57.3421Z" fill="#6E0B14"/>
<path d="M119.785 52.9857L115.193 52.5086L116.546 75.1735L121.138 75.6506L119.785 52.9857Z" fill="#6E0B14"/>
<path d="M125.781 48.6667L121.093 48.1212L122.773 74.3563L127.462 74.9018L125.781 48.6667Z" fill="#6E0B14"/>
<path d="M86.0375 45.9179L86.0681 54.0151L86.0671 62.1132C86.0665 67.5083 86.0395 72.9096 86.002 78.3056L85.7828 78.0791L97.3529 77.7469L108.923 77.4534L120.492 77.2099L132.061 77.0273L120.49 77.4869L108.919 77.8856L97.349 78.2344L85.7791 78.5444L85.558 78.5506L85.5599 78.3179C85.6131 72.9214 85.6664 67.5194 85.7513 62.122L85.8786 54.0204L86.0375 45.9179Z" fill="#DADADA"/>
<path d="M96.1851 79.7916L92.7812 79.9697L92.7252 80.5114L96.129 80.3333L96.1851 79.7916Z" fill="#DADADA"/>
<path d="M102.517 79.0037L99.1133 79.1818L99.0573 79.7235L102.461 79.5454L102.517 79.0037Z" fill="#DADADA"/>
<path d="M108.844 78.2145L105.44 78.3928L105.384 78.9344L108.788 78.7561L108.844 78.2145Z" fill="#DADADA"/>
<path d="M115.178 77.4272L111.774 77.6055L111.718 78.1471L115.122 77.9688L115.178 77.4272Z" fill="#DADADA"/>
<path d="M121.51 76.6389L118.106 76.8173L118.05 77.3589L121.454 77.1805L121.51 76.6389Z" fill="#DADADA"/>
<path d="M127.84 75.8505L124.437 76.0287L124.381 76.5703L127.784 76.3921L127.84 75.8505Z" fill="#DADADA"/>
<path d="M89.9602 71.2087C91.6977 71.1658 93.4334 70.9879 95.1615 70.7045C96.8892 70.4329 98.6036 70.0734 100.3 69.6027C103.688 68.6614 107.027 67.398 110.161 65.6032C113.31 63.861 116.264 61.6282 118.856 58.9362L119.351 58.438L119.82 57.9107L120.754 56.8503C121.333 56.0988 121.953 55.3822 122.481 54.5844C123.618 53.0583 124.573 51.3701 125.512 49.6762L125.538 49.6935C123.868 53.2139 121.733 56.4991 119.123 59.2617C117.848 60.672 116.423 61.9021 114.968 63.0564C113.509 64.2107 111.959 65.2134 110.371 66.1111C107.185 67.8889 103.81 69.1762 100.378 70.0242C96.9353 70.8664 93.4349 71.3398 89.9602 71.2087Z" fill="#4F5361"/>
<path d="M124.618 51.8319L124.108 51.9664L123.508 49.3768L121.05 50.2204L120.894 49.7059L123.889 48.6835L124.618 51.8319Z" fill="#4F5361"/>
<path d="M88.2883 92.9269L135.087 88.7786L135.429 85.2509L88.6303 89.3993L88.2883 92.9269Z" fill="#DADADA"/>
<path d="M88.8924 97.8244L115.251 95.9194L115.526 92.7017L89.1674 94.6066L88.8924 97.8244Z" fill="#DADADA"/>
<path d="M92.5537 43.7244L118.912 41.8193L119.187 38.6015L92.8287 40.5066L92.5537 43.7244Z" fill="#DADADA"/>
<path d="M202.999 130.289L228.549 79.2626L201.304 41.1893L157.832 53.3747L143.885 108.648L202.999 130.289Z" fill="#ECCDB0"/>
<path d="M201.88 68.0394C204.062 64.7628 203.025 60.2485 199.564 57.9565C196.103 55.6646 191.528 56.4627 189.347 59.7393C187.165 63.016 188.202 67.5302 191.663 69.8222C195.124 72.1142 199.698 71.316 201.88 68.0394Z" fill="#DFF2FF"/>
<path d="M198.488 56.1869C194.103 54.5539 189.247 56.6791 187.664 60.9244C186.081 65.1698 188.361 69.9519 192.746 71.5849C197.131 73.2179 201.986 71.0927 203.569 66.8473C205.152 62.602 202.873 57.8199 198.488 56.1869ZM202.247 65.3808L196.819 63.3595L198.779 58.1046C201.448 59.5283 202.872 62.5153 202.247 65.3808ZM197.012 57.4465L195.052 62.7014L189.624 60.6801C191.028 58.1048 194.061 56.7773 197.012 57.4465ZM188.986 62.391L194.414 64.4123L192.455 69.6672C189.787 68.2382 188.362 65.2565 188.986 62.391ZM194.222 70.3253L196.181 65.0704L201.609 67.0917C200.205 69.667 197.175 70.9891 194.222 70.3253Z" fill="#6E0B14"/>
<path d="M226.231 75.128L234.27 62.8724L216.62 56.1057L216.217 61.0452L226.231 75.128Z" fill="#ECCDB0"/>
<path d="M229.026 85.0049L231.777 86.1317L236.421 87.7913L204.719 37.6648L154.55 54.2562L160.07 56.7599L161.446 57.3232L202.935 43.1759L229.026 85.0049Z" fill="#6E0B14"/>
<path d="M192.848 92.685L172.807 85.662L161.275 114.964L181.316 121.987L192.848 92.685Z" fill="#6E0B14"/>
<path d="M176.14 73.8203L161.104 68.5887L152.028 91.5321L167.064 96.7637L176.14 73.8203Z" fill="#6E0B14"/>
<path d="M174.485 74.7223L161.757 70.3273L153.68 90.6348L166.409 95.0298L174.485 74.7223Z" fill="#DFF2FF"/>
<path d="M160.431 93.7087L158.85 93.3084L167.634 71.1594L170.478 71.8791L160.431 93.7087Z" fill="#6E0B14"/>
<path d="M170.804 83.9136L157.958 78.1912L157.389 80.2508L170.235 85.9732L170.804 83.9136Z" fill="#6E0B14"/>
<path d="M213.212 92.2155L198.176 86.9839L189.1 109.927L204.136 115.159L213.212 92.2155Z" fill="#6E0B14"/>
<path d="M211.558 93.1181L198.83 88.7231L190.754 109.03L203.482 113.425L211.558 93.1181Z" fill="#DDB99E"/>
<path d="M197.502 112.104L195.92 111.704L204.704 89.5545L207.548 90.2743L197.502 112.104Z" fill="#6E0B14"/>
<path d="M207.872 102.309L195.025 96.5864L194.457 98.646L207.303 104.368L207.872 102.309Z" fill="#6E0B14"/>
<path d="M235.595 65.3948L215.462 56.7634L216.595 52.944L237.084 60.3783L235.595 65.3948Z" fill="#6E0B14"/>
<path d="M107.679 94.0773L57.1568 106.519L41.2899 45.381L78.8002 36.1453L94.8338 44.5917L107.679 94.0773Z" fill="white"/>
<path opacity="0.8" d="M107.679 94.0773L57.1568 106.519L41.2899 45.381L78.8002 36.1453L94.8338 44.5917L107.679 94.0773Z" fill="white"/>
<path d="M75.3965 35.586L91.0417 43.9251L78.2319 47.3077L75.3965 35.586Z" fill="white"/>
<path d="M49.231 58.0423L75.0205 49.2936L74.7558 47.6796L48.9663 56.4283L49.231 58.0423Z" fill="#DADADA"/>
<path d="M50.5737 61.8782L76.3633 53.1295L76.0986 51.5154L50.3091 60.2641L50.5737 61.8782Z" fill="#DADADA"/>
<path d="M51.9262 65.7143L77.7158 56.9655L77.4511 55.3515L51.6616 64.1003L51.9262 65.7143Z" fill="#DADADA"/>
<path d="M53.2681 69.5507L90.9834 56.626L90.7226 55.0073L53.0072 67.932L53.2681 69.5507Z" fill="#DADADA"/>
<path d="M54.6097 73.3867L92.3252 60.462L92.0644 58.8433L54.3489 71.768L54.6097 73.3867Z" fill="#DADADA"/>
<path d="M55.9585 77.2246L93.6738 64.2998L93.413 62.6811L55.6976 75.6059L55.9585 77.2246Z" fill="#DADADA"/>
<path d="M57.3071 81.0628L95.0225 68.1381L94.7616 66.5194L57.0463 79.4441L57.3071 81.0628Z" fill="#DADADA"/>
<path d="M58.6489 84.8985L96.3643 71.9738L96.1034 70.3551L58.3881 83.2798L58.6489 84.8985Z" fill="#DADADA"/>
<path d="M59.9954 88.7391L97.7109 75.8143L97.4501 74.1956L59.7346 87.1204L59.9954 88.7391Z" fill="#DADADA"/>
<path d="M61.3354 92.5742L99.0508 79.6496L98.79 78.0309L61.0746 90.9556L61.3354 92.5742Z" fill="#DADADA"/>
<path d="M62.683 96.4089L100.398 83.4841L100.138 81.8654L62.4222 94.7902L62.683 96.4089Z" fill="#DADADA"/>
<path d="M64.0307 100.251L101.746 87.3257L101.485 85.7071L63.7699 98.6318L64.0307 100.251Z" fill="#DADADA"/>
<mask id="mask0_3035_20072" style="mask-type:alpha" maskUnits="userSpaceOnUse" x="0" y="15" width="78" height="101">
<rect y="28.6177" width="58.4043" height="89.9426" rx="2" transform="rotate(-13.4831 0 28.6177)" fill="#E7CDB8"/>
</mask>
<g mask="url(#mask0_3035_20072)">
<path d="M54.5222 15.5449L56.7939 15.0002L57.611 18.4079L0.816364 32.0254L-0.000684182 28.6177L54.5222 15.5449Z" fill="#EDEDED"/>
<path d="M0 28.6177L4.22473 31.2083L24.3786 115.264L20.9709 116.081L20.4262 113.81L0 28.6177Z" fill="#DADADA"/>
</g>
<rect x="2.81641" y="30.3448" width="56.0681" height="87.6065" rx="1" transform="rotate(-13.4831 2.81641 30.3448)" fill="#FEFEFE"/>
<rect x="10.9463" y="39.2059" width="44.3873" height="1.571" rx="0.785502" transform="rotate(-13.4831 10.9463 39.2059)" fill="#DADADA"/>
<rect x="15.3047" y="57.3804" width="44.3873" height="1.571" rx="0.785502" transform="rotate(-13.4831 15.3047 57.3804)" fill="#DADADA"/>
<rect x="19.6621" y="75.5546" width="44.3873" height="1.571" rx="0.785502" transform="rotate(-13.4831 19.6621 75.5546)" fill="#DADADA"/>
<rect x="11.7627" y="42.6138" width="44.3873" height="1.571" rx="0.785502" transform="rotate(-13.4831 11.7627 42.6138)" fill="#DADADA"/>
<rect x="16.1201" y="60.788" width="44.3873" height="1.571" rx="0.785502" transform="rotate(-13.4831 16.1201 60.788)" fill="#DADADA"/>
<rect x="20.4795" y="78.9623" width="44.3873" height="1.571" rx="0.785502" transform="rotate(-13.4831 20.4795 78.9623)" fill="#DADADA"/>
<rect x="12.583" y="46.0214" width="44.3873" height="1.571" rx="0.785502" transform="rotate(-13.4831 12.583 46.0214)" fill="#DADADA"/>
<rect x="16.9385" y="64.1959" width="44.3873" height="1.571" rx="0.785502" transform="rotate(-13.4831 16.9385 64.1959)" fill="#DADADA"/>
<rect x="21.2969" y="82.3699" width="44.3873" height="1.571" rx="0.785502" transform="rotate(-13.4831 21.2969 82.3699)" fill="#DADADA"/>
<path d="M28.5397 101.175L47.0777 83.1806L47.1916 83.6147L28.6497 101.61L28.5397 101.175Z" fill="#31302C"/>
<path d="M29.8088 95.0464C30.5576 94.2118 31.3026 92.9225 30.8213 91.7035C30.5276 90.9656 29.8583 90.8112 29.2477 91.2311C28.0527 92.0607 27.7337 94.3176 27.5858 95.6712C27.4566 96.8545 27.4628 99.0289 29.1319 99.0155C31.0978 99.0027 31.8214 95.8533 31.8665 94.2888C31.873 94.0702 31.5212 94.031 31.4784 94.2366C31.3954 94.6089 30.8578 97.0603 31.9923 96.5127C32.3963 96.3186 32.4715 95.5734 32.5348 95.1885C32.6525 94.4975 32.5679 93.5928 32.86 92.9558C32.7426 92.9314 32.6241 92.903 32.5068 92.8786C32.6729 93.454 32.7688 93.8494 33.2412 94.2189C33.3179 94.2781 33.4597 94.3012 33.5183 94.2069C33.9841 93.4751 33.7836 92.503 34.3259 91.8134C34.2212 91.7903 34.1204 91.7664 34.0147 91.7394C34.0538 91.9264 34.1171 92.4698 34.1636 92.7189C34.1853 92.8375 34.3634 92.8736 34.4448 92.821C34.6455 92.686 34.6937 92.6324 34.7429 92.387C34.6363 92.3729 34.5259 92.3597 34.4183 92.3416C35.0339 93.7004 35.85 92.0245 36.1127 91.3857C36.8886 89.5018 37.2708 87.5924 36.7796 85.5198C36.7417 85.3538 36.4165 85.3384 36.4635 85.5406C36.8375 87.1332 36.5351 88.7391 36.4805 90.3312C36.4224 92.0562 36.4561 93.7857 36.5679 95.5146C36.6705 95.5296 36.7721 95.5405 36.8709 95.5564C36.5988 94.3664 36.7247 93.1541 36.8705 91.9713C36.9928 90.9726 37.1547 89.9352 37.6994 89.0917C37.6056 89.079 37.5107 89.0622 37.4169 89.0495C37.8155 89.8275 37.7063 90.7805 37.3862 91.5346C37.3319 91.6619 37.5659 91.8216 37.6213 91.6983C37.9092 91.0452 38.5695 90.7077 38.8927 90.0636C39.2264 89.3959 39.3342 88.6006 39.5571 87.8857C39.4779 87.8654 39.3986 87.8451 39.3193 87.8248C39.6342 89.1839 40.3354 86.7932 40.4459 86.5297C40.3726 86.5165 40.2963 86.5083 40.223 86.4952C40.375 86.7544 40.5349 86.9139 40.8397 86.8488C41.4445 86.7155 41.4393 85.7502 41.8686 85.5418C41.8725 85.5409 42.116 85.6729 42.1832 85.6619C42.4659 85.6231 42.6595 85.5578 42.876 85.3553C43.3148 84.9404 43.5717 84.2944 43.7197 83.7072C43.7573 83.5624 43.4789 83.4554 43.4328 83.6149C43.2691 84.2056 42.6816 85.8083 41.8317 85.282C41.7826 85.2506 41.6799 85.2356 41.6513 85.3017C41.5273 85.5769 40.7931 87.0553 40.4323 86.4433C40.3886 86.3681 40.2532 86.3052 40.2094 86.4089C40.1047 86.6626 40.0372 86.9334 39.9511 87.1957C39.9009 87.3391 39.6418 88.2369 39.5595 87.8298C39.5389 87.7323 39.3585 87.6541 39.3216 87.7689C39.0671 88.5379 38.9795 89.4946 38.5248 90.1728C38.1875 90.6796 37.6458 90.9646 37.3901 91.5337C37.4698 91.588 37.5455 91.6432 37.6251 91.6974C37.9806 90.8714 38.129 89.8456 37.6944 88.9906C37.6387 88.8841 37.4811 88.8475 37.4119 88.9484C36.8586 89.8067 36.6921 90.875 36.57 91.8906C36.4225 93.0993 36.2939 94.3336 36.5721 95.5477C36.5998 95.6734 36.8886 95.7567 36.8752 95.5895C36.758 93.7256 36.7258 91.8551 36.8167 89.9993C36.8908 88.5006 37.1301 87.0198 36.7806 85.5238C36.6753 85.5308 36.5699 85.5377 36.4645 85.5446C36.8495 87.1645 36.7066 88.6192 36.2014 90.1563C36.0679 90.5571 35.9267 90.9596 35.7658 91.3496C35.6944 91.5234 35.0583 93.0477 34.7412 92.3151C34.6942 92.2108 34.449 92.1047 34.4166 92.2696C34.3445 92.3755 34.2724 92.4813 34.2013 92.5911C34.2963 92.6249 34.3914 92.6586 34.4825 92.6932C34.4195 92.3627 34.4034 92.0384 34.3327 91.7096C34.304 91.5799 34.0937 91.5468 34.0215 91.6357C33.4694 92.336 33.6661 93.309 33.1925 94.0426C33.2862 94.0383 33.3759 94.0349 33.4696 94.0307C33.1576 93.6929 32.9584 93.3124 32.8709 92.8852C32.8314 92.7451 32.5903 92.6552 32.5177 92.808C32.1912 93.5039 32.2804 94.4757 32.1419 95.2311C32.0652 95.6445 31.6944 96.7848 31.6388 95.6691C31.6156 95.2188 31.7715 94.7277 31.8685 94.2969C31.7405 94.2792 31.6085 94.2623 31.4804 94.2446C31.4381 95.6083 30.9522 97.7754 29.7209 98.494C28.1481 99.4096 27.8913 97.1559 27.9575 96.1147C28.0367 94.9129 28.3245 93.6893 28.7895 92.5957C28.88 92.3835 28.9724 92.1624 29.0973 91.9721C29.3615 91.5672 29.4514 91.4828 30.0016 91.6387C30.5793 91.8054 30.6211 91.9705 30.624 92.5361C30.625 92.8169 30.5754 93.1092 30.4971 93.3697C30.3312 93.9355 30.0162 94.4329 29.6716 94.8945C29.6186 94.9619 29.752 95.1147 29.8088 95.0464Z" fill="#31302C"/>
<path d="M23.3731 106.636L35.6767 201.32C36.2423 205.669 40.0628 208.936 44.5871 208.936H192.218C196.717 208.936 200.525 205.706 201.116 201.383L214.098 106.699C214.815 101.484 210.63 96.8587 205.2 96.8587H32.2835C26.8794 96.8462 22.6944 101.433 23.3731 106.636Z" fill="#DAEEF9"/>
<path d="M23.0723 109.25L35.3759 203.934C35.9415 208.282 39.762 211.55 44.2863 211.55H191.917C196.416 211.55 200.224 208.32 200.815 203.997L213.797 109.313C214.514 104.097 210.329 99.4726 204.9 99.4726H31.9827C26.5787 99.4601 22.3937 104.06 23.0723 109.25Z" fill="#8EBDDB"/>
<path d="M114.517 149.999V133.199H122.197C123.733 133.199 125.053 133.447 126.157 133.943C127.277 134.439 128.141 135.159 128.749 136.103C129.357 137.031 129.661 138.135 129.661 139.415C129.661 140.679 129.357 141.775 128.749 142.703C128.141 143.615 127.277 144.319 126.157 144.815C125.053 145.295 123.733 145.535 122.197 145.535H117.157L119.269 143.543V149.999H114.517ZM124.909 149.999L120.733 143.879H125.797L129.997 149.999H124.909ZM119.269 144.047L117.157 141.863H121.909C122.901 141.863 123.637 141.647 124.117 141.215C124.613 140.783 124.861 140.183 124.861 139.415C124.861 138.631 124.613 138.023 124.117 137.591C123.637 137.159 122.901 136.943 121.909 136.943H117.157L119.269 134.759V144.047ZM138.883 150.215C137.347 150.215 136.003 149.927 134.851 149.351C133.715 148.759 132.827 147.959 132.187 146.951C131.563 145.927 131.251 144.767 131.251 143.471C131.251 142.175 131.555 141.023 132.163 140.015C132.787 138.991 133.643 138.199 134.731 137.639C135.819 137.063 137.043 136.775 138.403 136.775C139.683 136.775 140.851 137.039 141.907 137.567C142.963 138.079 143.803 138.839 144.427 139.847C145.051 140.855 145.363 142.079 145.363 143.519C145.363 143.679 145.355 143.863 145.339 144.071C145.323 144.279 145.307 144.471 145.291 144.647H134.995V142.247H142.867L141.139 142.919C141.155 142.327 141.043 141.815 140.803 141.383C140.579 140.951 140.259 140.615 139.843 140.375C139.443 140.135 138.971 140.015 138.427 140.015C137.883 140.015 137.403 140.135 136.987 140.375C136.587 140.615 136.275 140.959 136.051 141.407C135.827 141.839 135.715 142.351 135.715 142.943V143.639C135.715 144.279 135.843 144.831 136.099 145.295C136.371 145.759 136.755 146.119 137.251 146.375C137.747 146.615 138.339 146.735 139.027 146.735C139.667 146.735 140.211 146.647 140.659 146.471C141.123 146.279 141.579 145.991 142.027 145.607L144.427 148.103C143.803 148.791 143.035 149.319 142.123 149.687C141.211 150.039 140.131 150.215 138.883 150.215ZM155.057 149.999V147.575L154.745 146.975V142.511C154.745 141.791 154.521 141.239 154.073 140.855C153.641 140.455 152.945 140.255 151.985 140.255C151.361 140.255 150.729 140.359 150.089 140.567C149.449 140.759 148.905 141.031 148.457 141.383L146.921 138.287C147.657 137.807 148.537 137.439 149.561 137.183C150.601 136.911 151.633 136.775 152.657 136.775C154.769 136.775 156.401 137.263 157.553 138.239C158.721 139.199 159.305 140.711 159.305 142.775V149.999H155.057ZM151.217 150.215C150.177 150.215 149.297 150.039 148.577 149.687C147.857 149.335 147.305 148.855 146.921 148.247C146.553 147.639 146.369 146.959 146.369 146.207C146.369 145.407 146.569 144.719 146.969 144.143C147.385 143.551 148.017 143.103 148.865 142.799C149.713 142.479 150.809 142.319 152.153 142.319H155.225V144.695H152.777C152.041 144.695 151.521 144.815 151.217 145.055C150.929 145.295 150.785 145.615 150.785 146.015C150.785 146.415 150.937 146.735 151.241 146.975C151.545 147.215 151.961 147.335 152.489 147.335C152.985 147.335 153.433 147.215 153.833 146.975C154.249 146.719 154.553 146.335 154.745 145.823L155.369 147.503C155.129 148.399 154.657 149.079 153.953 149.543C153.265 149.991 152.353 150.215 151.217 150.215ZM162.184 149.999V132.191H166.744V149.999H162.184ZM118.885 161.703H126.685V165.255H118.885V161.703ZM119.221 168.327H128.005V171.999H114.517V155.199H127.693V158.871H119.221V168.327ZM135.107 172.215C134.003 172.215 132.923 172.087 131.867 171.831C130.827 171.575 129.987 171.255 129.347 170.871L130.715 167.751C131.323 168.119 132.035 168.415 132.851 168.639C133.667 168.847 134.467 168.951 135.251 168.951C136.019 168.951 136.547 168.871 136.835 168.711C137.139 168.551 137.291 168.335 137.291 168.063C137.291 167.807 137.147 167.623 136.859 167.511C136.587 167.383 136.219 167.287 135.755 167.223C135.307 167.159 134.811 167.087 134.267 167.007C133.723 166.927 133.171 166.823 132.611 166.695C132.067 166.551 131.563 166.343 131.099 166.071C130.651 165.783 130.291 165.399 130.019 164.919C129.747 164.439 129.611 163.831 129.611 163.095C129.611 162.263 129.851 161.527 130.331 160.887C130.827 160.231 131.547 159.719 132.491 159.351C133.435 158.967 134.587 158.775 135.947 158.775C136.859 158.775 137.779 158.871 138.707 159.063C139.651 159.239 140.443 159.511 141.083 159.879L139.715 162.975C139.075 162.607 138.435 162.359 137.795 162.231C137.155 162.087 136.547 162.015 135.971 162.015C135.203 162.015 134.659 162.103 134.339 162.279C134.035 162.455 133.883 162.671 133.883 162.927C133.883 163.183 134.019 163.383 134.291 163.527C134.563 163.655 134.923 163.759 135.371 163.839C135.835 163.903 136.339 163.975 136.883 164.055C137.427 164.119 137.971 164.223 138.515 164.367C139.075 164.511 139.579 164.727 140.027 165.015C140.491 165.287 140.859 165.663 141.131 166.143C141.403 166.607 141.539 167.207 141.539 167.943C141.539 168.743 141.291 169.463 140.795 170.103C140.315 170.743 139.595 171.255 138.635 171.639C137.691 172.023 136.515 172.215 135.107 172.215ZM149.312 172.215C147.648 172.215 146.352 171.807 145.424 170.991C144.496 170.159 144.032 168.911 144.032 167.247V156.087H148.592V167.199C148.592 167.663 148.72 168.031 148.976 168.303C149.232 168.559 149.56 168.687 149.96 168.687C150.504 168.687 150.968 168.551 151.352 168.279L152.48 171.471C152.096 171.727 151.624 171.911 151.064 172.023C150.504 172.151 149.92 172.215 149.312 172.215ZM142.136 162.879V159.471H151.568V162.879H142.136ZM162.182 171.999V169.575L161.87 168.975V164.511C161.87 163.791 161.646 163.239 161.198 162.855C160.766 162.455 160.07 162.255 159.11 162.255C158.486 162.255 157.854 162.359 157.214 162.567C156.574 162.759 156.03 163.031 155.582 163.383L154.046 160.287C154.782 159.807 155.662 159.439 156.686 159.183C157.726 158.911 158.758 158.775 159.782 158.775C161.894 158.775 163.526 159.263 164.678 160.239C165.846 161.199 166.43 162.711 166.43 164.775V171.999H162.182ZM158.342 172.215C157.302 172.215 156.422 172.039 155.702 171.687C154.982 171.335 154.43 170.855 154.046 170.247C153.678 169.639 153.494 168.959 153.494 168.207C153.494 167.407 153.694 166.719 154.094 166.143C154.51 165.551 155.142 165.103 155.99 164.799C156.838 164.479 157.934 164.319 159.278 164.319H162.35V166.695H159.902C159.166 166.695 158.646 166.815 158.342 167.055C158.054 167.295 157.91 167.615 157.91 168.015C157.91 168.415 158.062 168.735 158.366 168.975C158.67 169.215 159.086 169.335 159.614 169.335C160.11 169.335 160.558 169.215 160.958 168.975C161.374 168.719 161.678 168.335 161.87 167.823L162.494 169.503C162.254 170.399 161.782 171.079 161.078 171.543C160.39 171.991 159.478 172.215 158.342 172.215ZM175.117 172.215C173.453 172.215 172.157 171.807 171.229 170.991C170.301 170.159 169.837 168.911 169.837 167.247V156.087H174.397V167.199C174.397 167.663 174.525 168.031 174.781 168.303C175.037 168.559 175.365 168.687 175.765 168.687C176.309 168.687 176.773 168.551 177.157 168.279L178.285 171.471C177.901 171.727 177.429 171.911 176.869 172.023C176.309 172.151 175.725 172.215 175.117 172.215ZM167.941 162.879V159.471H177.373V162.879H167.941ZM186.484 172.215C184.948 172.215 183.604 171.927 182.452 171.351C181.316 170.759 180.428 169.959 179.788 168.951C179.164 167.927 178.852 166.767 178.852 165.471C178.852 164.175 179.156 163.023 179.764 162.015C180.388 160.991 181.244 160.199 182.332 159.639C183.42 159.063 184.644 158.775 186.004 158.775C187.284 158.775 188.452 159.039 189.508 159.567C190.564 160.079 191.404 160.839 192.028 161.847C192.652 162.855 192.964 164.079 192.964 165.519C192.964 165.679 192.956 165.863 192.94 166.071C192.924 166.279 192.908 166.471 192.892 166.647H182.596V164.247H190.468L188.74 164.919C188.756 164.327 188.644 163.815 188.404 163.383C188.18 162.951 187.86 162.615 187.444 162.375C187.044 162.135 186.572 162.015 186.028 162.015C185.484 162.015 185.004 162.135 184.588 162.375C184.188 162.615 183.876 162.959 183.652 163.407C183.428 163.839 183.316 164.351 183.316 164.943V165.639C183.316 166.279 183.444 166.831 183.7 167.295C183.972 167.759 184.356 168.119 184.852 168.375C185.348 168.615 185.94 168.735 186.628 168.735C187.268 168.735 187.812 168.647 188.26 168.471C188.724 168.279 189.18 167.991 189.628 167.607L192.028 170.103C191.404 170.791 190.636 171.319 189.724 171.687C188.812 172.039 187.732 172.215 186.484 172.215Z" fill="white"/>
<path d="M44.5069 133.978C43.6362 134.402 43.0889 135.301 43.0889 136.274V149.58C43.0889 169.252 53.5124 179.313 69.185 188.949C70.006 189.449 71.0508 189.449 71.8718 188.949C87.5444 179.313 97.9679 169.277 97.9679 149.58V136.274C97.9679 135.301 97.4206 134.402 96.5499 133.978L71.6727 121.495C70.9513 121.146 70.1055 121.146 69.384 121.495L44.5069 133.978Z" fill="#E6007A" stroke="#E6007A" stroke-width="2" stroke-miterlimit="10"/>
<path d="M49.5837 138.154C48.8829 138.495 48.4424 139.218 48.4424 140.001V150.698C48.4424 166.512 56.8321 174.6 69.4466 182.347C70.1074 182.749 70.9483 182.749 71.6091 182.347C84.2237 174.6 92.6133 166.533 92.6133 150.698V140.001C92.6133 139.218 92.1728 138.495 91.472 138.154L71.4489 128.119C70.8683 127.839 70.1875 127.839 69.6068 128.119L49.5837 138.154Z" fill="#8EBDDB" stroke="#E6007A" stroke-width="2" stroke-miterlimit="10"/>
<path d="M60.4893 153.25L67.629 161.715C68.0285 162.189 68.7583 162.189 69.1578 161.715L81.9055 146.6" stroke="#E6007A" stroke-width="4" stroke-miterlimit="10" stroke-linecap="round"/>
</svg>