<svg width="44" height="24" viewBox="0 0 44 24" fill="none" xmlns="http://www.w3.org/2000/svg"> <path d="M11.1056 3.44721L5.78885 6.10557C5.00831 6.49585 4.61803 6.69098 4.61803 7C4.61803 7.30902 5.00831 7.50415 5.78885 7.89443L11.1056 10.5528C11.5445 10.7722 11.7639 10.882 12 10.882C12.2361 10.882 12.4555 10.7722 12.8944 10.5528L18.2111 7.89443C18.9917 7.50415 19.382 7.30902 19.382 7C19.382 6.69098 18.9917 6.49585 18.2111 6.10557L12.8944 3.44721C12.4555 3.22776 12.2361 3.11803 12 3.11803C11.7639 3.11803 11.5445 3.22776 11.1056 3.44721Z" fill="#3B6CF4"/> <path fill-rule="evenodd" clip-rule="evenodd" d="M7.02217 10.4893C7.62603 10.8135 8.33716 11.169 9.15554 11.5782L10.2113 12.1061C11.0891 12.545 11.528 12.7644 12.0001 12.7644C12.4723 12.7644 12.9112 12.545 13.789 12.1061L14.8447 11.5782C15.6631 11.169 16.3742 10.8135 16.9781 10.4893L18.2113 11.1059C18.9918 11.4961 19.3821 11.6913 19.3821 12.0003C19.3821 12.3093 18.9918 12.5044 18.2113 12.8947L12.8946 15.5531C12.4557 15.7725 12.2362 15.8822 12.0001 15.8822C11.7641 15.8822 11.5446 15.7725 11.1057 15.5531L11.1057 15.5531L5.78898 12.8947C5.00844 12.5044 4.61816 12.3093 4.61816 12.0003C4.61816 11.6913 5.00844 11.4961 5.78898 11.1059L7.02217 10.4893Z" fill="#3B6CF4"/> <path fill-rule="evenodd" clip-rule="evenodd" d="M7.02169 15.4893C7.62567 15.8135 8.33696 16.1692 9.15557 16.5785L10.2113 17.1063C11.0891 17.5452 11.528 17.7647 12.0001 17.7647C12.4723 17.7647 12.9112 17.5452 13.789 17.1063L14.8447 16.5785C15.6633 16.1692 16.3746 15.8135 16.9786 15.4893L18.2113 16.1056C18.9918 16.4959 19.3821 16.691 19.3821 17C19.3821 17.3091 18.9918 17.5042 18.2113 17.8945L12.8946 20.5528C12.4557 20.7723 12.2362 20.882 12.0001 20.882C11.7641 20.882 11.5446 20.7723 11.1057 20.5528L11.1057 20.5528L5.78898 17.8945C5.00844 17.5042 4.61816 17.3091 4.61816 17C4.61816 16.691 5.00844 16.4959 5.78898 16.1056L7.02169 15.4893Z" fill="#3B6CF4"/> <path d="M26.3441 13.2929C26.5316 13.1054 26.786 13 27.0512 13H29.9488C30.214 13 30.4684 13.1054 30.6559 13.2929L32.7071 15.3441C32.8946 15.5316 33 15.786 33 16.0512V18.9488C33 19.214 32.8946 19.4684 32.7071 19.6559L30.6559 21.7071C30.4684 21.8946 30.214 22 29.9488 22H27.0512C26.786 22 26.5316 21.8946 26.3441 21.7071L24.2929 19.6559C24.1054 19.4684 24 19.214 24 18.9488V16.0512C24 15.786 24.1054 15.5316 24.2929 15.3441L26.3441 13.2929Z" stroke="#3B6CF4" stroke-linecap="round" stroke-linejoin="round"/> <path d="M27.1721 15.2929C27.3596 15.1054 27.614 15 27.8792 15H29.1208C29.386 15 29.6404 15.1054 29.8279 15.2929L30.7071 16.1721C30.8946 16.3596 31 16.614 31 16.8792V18.1208C31 18.386 30.8946 18.6404 30.7071 18.8279L29.8279 19.7071C29.6404 19.8946 29.386 20 29.1208 20H27.8792C27.614 20 27.3596 19.8946 27.1721 19.7071L26.2929 18.8279C26.1054 18.6404 26 18.386 26 18.1208V16.8792C26 16.614 26.1054 16.3596 26.2929 16.1721L27.1721 15.2929Z" fill="#3B6CF4"/> <path d="M36.3441 7.29289C36.5316 7.10536 36.786 7 37.0512 7H39.9488C40.214 7 40.4684 7.10536 40.6559 7.29289L42.7071 9.34411C42.8946 9.53164 43 9.786 43 10.0512V12.9488C43 13.214 42.8946 13.4684 42.7071 13.6559L40.6559 15.7071C40.4684 15.8946 40.214 16 39.9488 16H37.0512C36.786 16 36.5316 15.8946 36.3441 15.7071L34.2929 13.6559C34.1054 13.4684 34 13.214 34 12.9488V10.0512C34 9.786 34.1054 9.53164 34.2929 9.34411L36.3441 7.29289Z" stroke="#3B6CF4" stroke-linecap="round" stroke-linejoin="round"/> <path d="M37.1721 9.29289C37.3596 9.10536 37.614 9 37.8792 9H39.1208C39.386 9 39.6404 9.10536 39.8279 9.29289L40.7071 10.1721C40.8946 10.3596 41 10.614 41 10.8792V12.1208C41 12.386 40.8946 12.6404 40.7071 12.8279L39.8279 13.7071C39.6404 13.8946 39.386 14 39.1208 14H37.8792C37.614 14 37.3596 13.8946 37.1721 13.7071L36.2929 12.8279C36.1054 12.6404 36 12.386 36 12.1208V10.8792C36 10.614 36.1054 10.3596 36.2929 10.1721L37.1721 9.29289Z" fill="#3B6CF4"/> <path d="M26.3441 1.29289C26.5316 1.10536 26.786 1 27.0512 1H29.9488C30.214 1 30.4684 1.10536 30.6559 1.29289L32.7071 3.34411C32.8946 3.53164 33 3.786 33 4.05121V6.94879C33 7.214 32.8946 7.46836 32.7071 7.65589L30.6559 9.70711C30.4684 9.89464 30.214 10 29.9488 10H27.0512C26.786 10 26.5316 9.89464 26.3441 9.70711L24.2929 7.65589C24.1054 7.46836 24 7.214 24 6.94879V4.05121C24 3.786 24.1054 3.53164 24.2929 3.34411L26.3441 1.29289Z" stroke="#3B6CF4" stroke-linecap="round" stroke-linejoin="round"/> <path d="M27.1721 3.29289C27.3596 3.10536 27.614 3 27.8792 3H29.1208C29.386 3 29.6404 3.10536 29.8279 3.29289L30.7071 4.17211C30.8946 4.35964 31 4.614 31 4.87921V6.12079C31 6.386 30.8946 6.64036 30.7071 6.82789L29.8279 7.70711C29.6404 7.89464 29.386 8 29.1208 8H27.8792C27.614 8 27.3596 7.89464 27.1721 7.70711L26.2929 6.82789C26.1054 6.64036 26 6.386 26 6.12079V4.87921C26 4.614 26.1054 4.35964 26.2929 4.17211L27.1721 3.29289Z" fill="#3B6CF4"/> </svg>