<svg width="47" height="24" viewBox="0 0 47 24" fill="none" xmlns="http://www.w3.org/2000/svg"> <path d="M11.1056 3.44721L5.78885 6.10557C5.00831 6.49585 4.61803 6.69098 4.61803 7C4.61803 7.30902 5.00831 7.50415 5.78885 7.89443L11.1056 10.5528C11.5445 10.7722 11.7639 10.882 12 10.882C12.2361 10.882 12.4555 10.7722 12.8944 10.5528L18.2111 7.89443C18.9917 7.50415 19.382 7.30902 19.382 7C19.382 6.69098 18.9917 6.49585 18.2111 6.10557L12.8944 3.44721C12.4555 3.22776 12.2361 3.11803 12 3.11803C11.7639 3.11803 11.5445 3.22776 11.1056 3.44721Z" fill="white"/> <path fill-rule="evenodd" clip-rule="evenodd" d="M7.02217 10.4893C7.62603 10.8135 8.33716 11.169 9.15554 11.5782L10.2113 12.1061C11.0891 12.545 11.528 12.7644 12.0001 12.7644C12.4723 12.7644 12.9112 12.545 13.789 12.1061L14.8447 11.5782C15.6631 11.169 16.3742 10.8135 16.9781 10.4893L18.2113 11.1059C18.9918 11.4961 19.3821 11.6913 19.3821 12.0003C19.3821 12.3093 18.9918 12.5044 18.2113 12.8947L12.8946 15.5531C12.4557 15.7725 12.2362 15.8822 12.0001 15.8822C11.7641 15.8822 11.5446 15.7725 11.1057 15.5531L11.1057 15.5531L5.78898 12.8947C5.00844 12.5044 4.61816 12.3093 4.61816 12.0003C4.61816 11.6913 5.00844 11.4961 5.78898 11.1059L7.02217 10.4893Z" fill="white"/> <path fill-rule="evenodd" clip-rule="evenodd" d="M7.02169 15.4893C7.62567 15.8135 8.33696 16.1692 9.15557 16.5785L10.2113 17.1063C11.0891 17.5452 11.528 17.7647 12.0001 17.7647C12.4723 17.7647 12.9112 17.5452 13.789 17.1063L14.8447 16.5785C15.6633 16.1692 16.3746 15.8135 16.9786 15.4893L18.2113 16.1056C18.9918 16.4959 19.3821 16.691 19.3821 17C19.3821 17.3091 18.9918 17.5042 18.2113 17.8945L12.8946 20.5528C12.4557 20.7723 12.2362 20.882 12.0001 20.882C11.7641 20.882 11.5446 20.7723 11.1057 20.5528L11.1057 20.5528L5.78898 17.8945C5.00844 17.5042 4.61816 17.3091 4.61816 17C4.61816 16.691 5.00844 16.4959 5.78898 16.1056L7.02169 15.4893Z" fill="white"/> <path d="M29.3441 14.2929C29.5316 14.1054 29.786 14 30.0512 14H32.9488C33.214 14 33.4684 14.1054 33.6559 14.2929L35.7071 16.3441C35.8946 16.5316 36 16.786 36 17.0512V19.9488C36 20.214 35.8946 20.4684 35.7071 20.6559L33.6559 22.7071C33.4684 22.8946 33.214 23 32.9488 23H30.0512C29.786 23 29.5316 22.8946 29.3441 22.7071L27.2929 20.6559C27.1054 20.4684 27 20.214 27 19.9488V17.0512C27 16.786 27.1054 16.5316 27.2929 16.3441L29.3441 14.2929Z" stroke="white" stroke-linecap="round" stroke-linejoin="round"/> <path d="M30.1721 16.2929C30.3596 16.1054 30.614 16 30.8792 16H32.1208C32.386 16 32.6404 16.1054 32.8279 16.2929L33.7071 17.1721C33.8946 17.3596 34 17.614 34 17.8792V19.1208C34 19.386 33.8946 19.6404 33.7071 19.8279L32.8279 20.7071C32.6404 20.8946 32.386 21 32.1208 21H30.8792C30.614 21 30.3596 20.8946 30.1721 20.7071L29.2929 19.8279C29.1054 19.6404 29 19.386 29 19.1208V17.8792C29 17.614 29.1054 17.3596 29.2929 17.1721L30.1721 16.2929Z" fill="white"/> <path d="M39.3441 8.29289C39.5316 8.10536 39.786 8 40.0512 8H42.9488C43.214 8 43.4684 8.10536 43.6559 8.29289L45.7071 10.3441C45.8946 10.5316 46 10.786 46 11.0512V13.9488C46 14.214 45.8946 14.4684 45.7071 14.6559L43.6559 16.7071C43.4684 16.8946 43.214 17 42.9488 17H40.0512C39.786 17 39.5316 16.8946 39.3441 16.7071L37.2929 14.6559C37.1054 14.4684 37 14.214 37 13.9488V11.0512C37 10.786 37.1054 10.5316 37.2929 10.3441L39.3441 8.29289Z" stroke="white" stroke-linecap="round" stroke-linejoin="round"/> <path d="M40.1721 10.2929C40.3596 10.1054 40.614 10 40.8792 10H42.1208C42.386 10 42.6404 10.1054 42.8279 10.2929L43.7071 11.1721C43.8946 11.3596 44 11.614 44 11.8792V13.1208C44 13.386 43.8946 13.6404 43.7071 13.8279L42.8279 14.7071C42.6404 14.8946 42.386 15 42.1208 15H40.8792C40.614 15 40.3596 14.8946 40.1721 14.7071L39.2929 13.8279C39.1054 13.6404 39 13.386 39 13.1208V11.8792C39 11.614 39.1054 11.3596 39.2929 11.1721L40.1721 10.2929Z" fill="white"/> <path d="M29.3441 2.29289C29.5316 2.10536 29.786 2 30.0512 2H32.9488C33.214 2 33.4684 2.10536 33.6559 2.29289L35.7071 4.34411C35.8946 4.53164 36 4.786 36 5.05121V7.94879C36 8.214 35.8946 8.46836 35.7071 8.65589L33.6559 10.7071C33.4684 10.8946 33.214 11 32.9488 11H30.0512C29.786 11 29.5316 10.8946 29.3441 10.7071L27.2929 8.65589C27.1054 8.46836 27 8.214 27 7.94879V5.05121C27 4.786 27.1054 4.53164 27.2929 4.34411L29.3441 2.29289Z" stroke="white" stroke-linecap="round" stroke-linejoin="round"/> <path d="M30.1721 4.29289C30.3596 4.10536 30.614 4 30.8792 4H32.1208C32.386 4 32.6404 4.10536 32.8279 4.29289L33.7071 5.17211C33.8946 5.35964 34 5.614 34 5.87921V7.12079C34 7.386 33.8946 7.64036 33.7071 7.82789L32.8279 8.70711C32.6404 8.89464 32.386 9 32.1208 9H30.8792C30.614 9 30.3596 8.89464 30.1721 8.70711L29.2929 7.82789C29.1054 7.64036 29 7.386 29 7.12079V5.87921C29 5.614 29.1054 5.35964 29.2929 5.17211L30.1721 4.29289Z" fill="white"/> </svg>