<svg width="23" height="25" viewBox="0 0 23 25" fill="none" xmlns="http://www.w3.org/2000/svg"> <path fill-rule="evenodd" clip-rule="evenodd" d="M20.1253 11.5H19.0999C18.66 7.87981 15.928 5.02909 12.4587 4.57V3.5C12.4587 2.94772 12.0296 2.5 11.5003 2.5C10.9711 2.5 10.542 2.94772 10.542 3.5V4.57C7.07264 5.02909 4.3407 7.87981 3.90074 11.5H2.87533C2.34605 11.5 1.91699 11.9477 1.91699 12.5C1.91699 13.0523 2.34605 13.5 2.87533 13.5H3.90074C4.3407 17.1202 7.07264 19.9709 10.542 20.43V21.5C10.542 22.0523 10.9711 22.5 11.5003 22.5C12.0296 22.5 12.4587 22.0523 12.4587 21.5V20.43C15.928 19.9709 18.66 17.1202 19.0999 13.5H20.1253C20.6546 13.5 21.0837 13.0523 21.0837 12.5C21.0837 11.9477 20.6546 11.5 20.1253 11.5ZM8.62533 12.5C8.62533 10.8431 9.91251 9.5 11.5003 9.5C13.0881 9.5 14.3753 10.8431 14.3753 12.5C14.3753 14.1569 13.0881 15.5 11.5003 15.5C9.91251 15.5 8.62533 14.1569 8.62533 12.5ZM10.542 12.5C10.542 13.0523 10.9711 13.5 11.5003 13.5C12.0296 13.5 12.4587 13.0523 12.4587 12.5C12.4587 11.9477 12.0296 11.5 11.5003 11.5C10.9711 11.5 10.542 11.9477 10.542 12.5ZM11.5003 17.41C12.0296 17.41 12.4587 17.8577 12.4587 18.41C14.8676 17.9828 16.7547 16.0137 17.1641 13.5C16.6348 13.5 16.2057 13.0523 16.2057 12.5C16.2057 11.9477 16.6348 11.5 17.1641 11.5C16.7547 8.98633 14.8676 7.01716 12.4587 6.59C12.4587 7.14228 12.0296 7.59 11.5003 7.59C10.9711 7.59 10.542 7.14228 10.542 6.59C8.13306 7.01716 6.24594 8.98633 5.83658 11.5C6.36585 11.5 6.79491 11.9477 6.79491 12.5C6.79491 13.0523 6.36585 13.5 5.83658 13.5C6.24594 16.0137 8.13306 17.9828 10.542 18.41C10.542 17.8577 10.9711 17.41 11.5003 17.41Z" fill="white"/> </svg>