<svg width="20" height="25" viewBox="0 0 20 25" fill="none" xmlns="http://www.w3.org/2000/svg"> <path fill-rule="evenodd" clip-rule="evenodd" d="M0 5.57408C0 5.21925 0.199456 4.89173 0.516772 4.73706L9.58296 0.188058C9.84587 0.0606863 10.1541 0.0606863 10.417 0.188058L19.4832 4.73706C19.8005 4.89173 20 5.21925 20 5.57408V10.4233C20 17.6016 16.2013 21.259 10.4896 24.7709C10.1904 24.9528 9.80961 24.9528 9.51043 24.7709C3.79873 21.259 0 17.5925 0 10.4233V5.57408ZM2.06972 7.02127C2.06972 6.74059 2.22855 6.4815 2.48123 6.35915L9.7006 2.76069C9.90996 2.65993 10.1554 2.65993 10.3648 2.76069L17.5841 6.35915C17.8368 6.4815 17.9957 6.74059 17.9957 7.02127V10.8572C17.9957 16.5356 14.9707 19.4288 10.4225 22.2068C10.1843 22.3507 9.88108 22.3507 9.64284 22.2068C5.09464 19.4288 2.06972 16.5284 2.06972 10.8572V7.02127Z" fill="white"/> <path d="M6.51465 11.8113L8.46332 14.2821C8.8637 14.7898 9.63333 14.7898 10.0337 14.2821L13.9221 9.35181" stroke="white" stroke-width="2" stroke-miterlimit="10" stroke-linecap="round"/> </svg>