<?xml version="1.0" encoding="UTF-8" standalone="no"?>
<svg
   width="130.68796"
   height="407.20001"
   viewBox="0 0 130.68796 407.20001"
   fill="none"
   version="1.1"
   id="svg70"
   sodipodi:docname="shortcuts-character.svg"
   inkscape:version="1.1.2 (0a00cf5339, 2022-02-04)"
   xmlns:inkscape="http://www.inkscape.org/namespaces/inkscape"
   xmlns:sodipodi="http://sodipodi.sourceforge.net/DTD/sodipodi-0.dtd"
   xmlns="http://www.w3.org/2000/svg"
   xmlns:svg="http://www.w3.org/2000/svg">
  <defs
     id="defs74" />
  <sodipodi:namedview
     id="namedview72"
     pagecolor="#ffffff"
     bordercolor="#666666"
     borderopacity="1.0"
     inkscape:pageshadow="2"
     inkscape:pageopacity="0.0"
     inkscape:pagecheckerboard="0"
     showgrid="false"
     inkscape:zoom="1.6581532"
     inkscape:cx="18.997038"
     inkscape:cy="30.455569"
     inkscape:window-width="1920"
     inkscape:window-height="1016"
     inkscape:window-x="0"
     inkscape:window-y="27"
     inkscape:window-maximized="1"
     inkscape:current-layer="svg70" />
  <path
     d="m 60.243644,112.816 v 48.5632 c 0,0 -29.29328,4.06 -30.34288,2.8336 -1.0504,-1.2216 -2.6616,-57.3024 -2.6616,-57.3024 z"
     fill="#000000"
     id="path2"
     style="stroke-width:0.8" />
  <path
     d="m 112.0626,372.5184 c 0,0 -4.0236,-0.3016 -4.42904,2.7184 -0.40032,3.02 -0.65504,8.4528 -0.2496,16.2968 0.40032,7.8496 0.2496,9.96 0.2496,9.96 0,0 0.0987,5.7064 5.032,5.7064 4.93336,0 9.05568,0 9.05568,0 0,0 2.8695,-0.4712 2.568,-4.8016 -0.30152,-4.3248 -0.30669,-5.8848 0.0208,-12.024 0.3275,-6.1392 -0.22355,-16.4528 -1.83504,-17.1024 -1.61152,-0.6552 -10.4124,-0.7536 -10.4124,-0.7536 z"
     fill="#000000"
     id="path4"
     style="stroke-width:0.8" />
  <path
     d="m 126.621,212.8 h -15.42704 c -1.0104,0 -1.9436,0.5664 -2.44776,1.4856 l -2.53912,3.6408 c -0.50416,0.9184 -1.43752,1.4848 -2.44776,1.4848 H 66.182364 v 41.5664 c 0,2.1832 1.68616,3.9528 3.766,3.9528 h 56.973606 c 2.07984,0 3.76599,-1.7696 3.76599,-3.9528 v -36.9552 c 0,-3.0552 -0.44974,-6.0928 -1.33338,-9.004 -0.3237,-1.3064 -1.44744,-2.2184 -2.73358,-2.2184 z"
     fill="#64a5cf"
     id="path6"
     style="stroke-width:0.8" />
  <path
     d="M 75.234444,218.7312 H 124.81784 V 240.716 H 75.234444 Z"
     fill="#ebf0f3"
     id="path8"
     style="stroke-width:0.8" />
  <path
     d="m 69.006764,214.776 h 15.54616 c 1.1056,0 2.1096,0.6776 2.56896,1.7328 l 2.66032,6.1112 c 0.45952,1.0552 1.46344,1.732 2.56896,1.732 h 38.336796 v 37.6136 c 0,2.1832 -1.68615,3.9528 -3.76599,3.9528 H 69.948204 c -2.07984,0 -3.76592,-1.7696 -3.76592,-3.9528 v -44.2248 c 0,-1.6368 1.26464,-2.9648 2.82448,-2.9648 z"
     fill="#8ebddb"
     id="path10"
     style="stroke-width:0.8" />
  <path
     d="m 106.99188,237.292 c 0.30464,0.1496 0.49608,0.4664 0.49608,0.8096 v 4.6896 c 0,6.9344 -3.6468,10.48 -9.129996,13.8768 -0.2872,0.176 -0.6528,0.176 -0.94,0 -5.4832,-3.3968 -9.13,-6.9336 -9.13,-13.8768 v -4.6896 c 0,-0.3432 0.19144,-0.66 0.49608,-0.8096 l 8.70352,-4.4 c 0.2524,-0.1224 0.5484,-0.1224 0.8008,0 z"
     fill="#e6007a"
     stroke="#e6007a"
     stroke-width="1.6"
     stroke-miterlimit="10"
     id="path12" />
  <path
     d="m 105.47452,238.2928 c 0.25384,0.1296 0.41344,0.4048 0.41344,0.7016 v 4.0648 c 0,6.0096 -3.03896,9.0824 -7.608316,12.0264 -0.23936,0.1528 -0.544,0.1528 -0.78336,0 -4.56936,-2.944 -7.60832,-6.0096 -7.60832,-12.0264 v -4.0648 c 0,-0.2968 0.1596,-0.572 0.41344,-0.7016 l 7.25296,-3.8128 c 0.21032,-0.1064 0.45688,-0.1064 0.6672,0 z"
     fill="#8ebddb"
     id="path14"
     style="stroke-width:0.8" />
  <path
     d="m 101.08796,243.924 -2.657276,3.276 -4.54272,-5.6"
     stroke="#e6007a"
     stroke-width="1.6"
     stroke-miterlimit="10"
     stroke-linecap="round"
     stroke-linejoin="round"
     id="path16" />
  <path
     d="m 82.981488,188.1408 c -3.217844,-9.7888 -4.158724,-20.5232 -4.158724,-20.5232 -0.55624,-4.5384 13.95256,-4.0912 14.68032,-1.2688 0.73816,2.8176 1.10728,31.6952 1.206,33.2704 0.0988,1.5752 2.41208,4.8968 2.98392,5.7336 0.57184,0.8368 1.51272,2.0432 2.04816,2.916 0.535436,0.8736 4.189916,7.0128 5.130796,8.5208 0.3804,0.6112 0.51952,1.2168 0.52792,1.9296 H 94.106684 c -0.31576,-0.2352 -0.63656,-0.4696 -0.93112,-0.6928 -0.61816,-0.4704 -1.46336,-0.1696 -2.18816,0.6928 -0.72592,0.8632 -1.33104,2.2896 -1.46632,4.0688 -0.26512,3.556 -3.72208,5.2296 -4.62656,5.7344 -0.90456,0.504 -1.408796,0.5712 -1.408796,0.5712 0,0 -0.27032,-0.8416 0.535436,-3.0872 0.80056,-2.2464 0.73296,-7.7096 0.70176,-9.456 -0.0312,-1.7472 0.23392,-3.4888 0.73816,-4.58 1.67912,-4.3456 1.00856,-10.8856 1.00856,-10.8856 0,0 -0.27032,-3.1504 -3.488156,-12.944 z"
     fill="#e0a680"
     id="path18"
     style="stroke-width:0.8" />
  <path
     d="m 82.981328,188.1408 c -3.217844,-9.7936 -4.158724,-20.5232 -4.158724,-20.5232 -0.55624,-4.5384 13.95248,-4.0912 14.69064,-1.2736 0.156,0.5928 0.2912,2.3336 0.41592,4.7256 -2.00656,1.1224 -5.61952,2.2976 -11.888796,2.1152 -0.67056,0.0208 -1.05008,0.9048 -1.07088,1.3416 -0.05192,1.0552 1.03456,6.7576 2.61488,12.8296 0.914876,3.5192 2.489996,7.704 2.781116,10.2144 0.80576,6.8416 0.58744,8.3176 0.38472,9.8616 -0.2028,1.544 -0.60304,5.0792 -0.60304,5.0792 0,0 -0.052,0.956 0.0832,3.3368 0.13512,2.3816 0.83688,5.968 -0.0676,8.656 -0.45224,1.336 -1.03976,2.9104 -1.5232,4.1536 -0.74856,0.3792 -1.159196,0.4416 -1.159196,0.4416 0,0 -0.27032,-0.8368 0.535436,-3.088 0.80576,-2.2456 0.73816,-7.7144 0.70176,-9.456 -0.0312,-1.7416 0.23392,-3.488 0.73816,-4.58 1.67912,-4.34 1.00848,-10.8848 1.00848,-10.8848 0,0 -0.25984,-3.156 -3.482876,-12.9496 z"
     fill="#c88e69"
     id="path20"
     style="stroke-width:0.8" />
  <path
     d="m 89.525804,222.7832 c 0.26512,-3.556 2.4172,-5.7024 3.65448,-4.7616 0.29976,0.228 0.62736,0.4672 0.94928,0.708 h 2.14704 c -1.38936,-2.0192 -5.61304,-2.8168 -6.04904,0.0608 -0.64464,3.3328 -1.2892,5.5208 -1.82984,6.9504 0.58744,-0.7952 1.03968,-1.7672 1.12808,-2.9576 z"
     fill="#c88e69"
     id="path22"
     style="stroke-width:0.8" />
  <path
     d="m 44.814364,346.7752 c 0,0 -1.1384,6.6384 4.024,22.2704 l -1.2736,11.5352 -10.3968,10.3296 -16.032,7.0432 -5.5776,-3.6488 c 0,0 7.8336,-7.3088 11.1816,-12.5128 3.3472,-5.2032 9.0192,-12.8768 4.6624,-32.8696 -4.3608,-19.988 14.2856,-17.508 13.412,-2.1472 z"
     fill="#e0a680"
     id="path24"
     style="stroke-width:0.8" />
  <path
     d="m 104.11308,355.8152 c 0,0 3.8208,3.244 4.42904,13.0584 0.60824,9.8152 -0.46784,16.8592 -0.46784,16.8592 0,0 -1.13848,8.92 2.88512,11.6024 4.02352,2.6824 8.38504,1.0088 9.59104,-1.1384 1.206,-2.1472 5.09964,-6.508 1.3412,-26.8288 -3.75848,-20.3256 -9.65864,-27.0992 -9.65864,-27.0992 0,0 -16.775276,-4.0968 -8.11992,13.5464 z"
     fill="#e0a680"
     id="path26"
     style="stroke-width:0.8" />
  <path
     d="m 60.746764,17.56544 14.78952,1.61152 c 0,0 4.527764,10.86464 4.42896,12.67888 -0.09872,1.80904 -1.31,21.32912 -2.21448,23.14336 -0.90456,1.80904 -0.73296,9.1544 -4.99568,10.71392 -4.26272,1.55952 -14.02008,3.57128 -14.02008,3.57128 l -4.12752,14.1868 c 0,0 -7.44432,7.6464 -9.35712,7.948 -1.9128,0.3016 -13.2816,2.3136 -13.2816,2.3136 0,0 -1.508,-23.0396 -1.508,-23.54384 0,-0.50432 6.1392,-39.74184 6.1392,-39.74184 z"
     fill="#e0a680"
     id="path28"
     style="stroke-width:0.8" />
  <path
     d="m 26.739964,381.792 c 3.3472,-5.2088 9.0192,-12.8768 4.6624,-32.8696 -0.54,-2.4848 -0.7272,-4.6216 -0.6392,-6.4256 l 11.6552,-4.7456 c 1.5856,2.0848 2.6144,5.1408 2.396,9.024 0,0 -0.2184,1.2688 -0.0312,3.9928 -1.8656,0.0984 -4.0128,0.676 -5.604,2.448 -3.488,3.8888 -3.3528,9.3888 -3.3528,9.3888 0,0 -0.1352,11.3632 -10.1936,24.5984 -1.3568,1.7312 -3.0672,3.3432 -3.1192,3.8416 -0.052,0.5048 -0.6552,2.012 0.904,1.612 1.5184,-0.3904 16.5368,-2.932 25.1712,-24.3856 0.0832,0.2544 0.1608,0.5088 0.2496,0.7744 l -1.2736,11.5352 -10.3968,10.3288 -16.032,7.044 -5.5776,-3.6488 c 0,0 7.8336,-7.3096 11.1816,-12.5128 z"
     fill="#c88e69"
     id="path30"
     style="stroke-width:0.8" />
  <path
     d="m 117.06332,351.5632 c 0.32232,0.8264 0.64456,1.7152 0.97208,2.672 -1.06568,0.8216 -2.44848,1.84 -3.39456,2.3864 -1.74144,1.008 -4.0236,3.8208 -4.0236,7.3088 0,3.488 0.2028,13.2144 -0.73816,21.3968 -0.94088,8.1816 0.92016,10.9528 2.6772,11.6704 1.08648,0.4416 3.22824,1.476 6.24328,-0.4008 1.4244,-0.8888 3.69608,-3.4568 4.60579,-9.9856 -0.37949,6.1184 -2.12099,8.2704 -2.85915,9.58 -1.206,2.1472 -5.56744,3.8208 -9.59104,1.1384 -4.02352,-2.6824 -2.88512,-11.6024 -2.88512,-11.6024 0,0 1.07088,-7.044 0.46784,-16.8584 -0.60296,-9.8144 -4.42904,-13.0584 -4.42904,-13.0584 -0.34832,-0.712 -0.65496,-1.388 -0.92528,-2.0328 z"
     fill="#c88e69"
     id="path32"
     style="stroke-width:0.8" />
  <path
     d="m 30.460764,70.18896 c 0,-0.50424 6.1392,-39.74184 6.1392,-39.74184 l 24.1468,-12.87648 14.78952,1.61152 c 0,0 4.527764,10.86472 4.42896,12.67896 -0.03112,0.59256 -0.18712,3.10344 -0.40544,6.25888 -0.24952,0.14032 -0.38464,0.20792 -0.39504,0.18192 -0.1352,-0.33792 -3.75848,-8.11472 -3.75848,-8.11472 0,0 -0.46784,-6.23808 -3.35296,-5.56752 -2.88512,0.67064 -6.03536,1.31 -11.40536,-0.05192 -1.87656,0 -2.95264,-0.28592 -3.95592,0.65496 -1.00328,0.94088 -2.01184,2.01176 -2.95272,4.96448 -0.94088,2.95272 -4.02336,2.6824 -4.02336,2.6824 0,0 -3.4208,-0.20272 -5.1,-0.60304 -1.6792,-0.40024 -3.3528,1.2736 -3.5552,1.74144 -0.2032,0.46792 -2.2152,2.6148 0.6704,8.92048 2.8848,6.30568 6.7056,9.38832 5.5672,21.13152 -1.1384,11.74328 -12.5648,9.99136 -12.5648,9.99136 l -4.1584,-1.98576 c -0.0728,-1.10208 -0.1144,-1.79344 -0.1144,-1.87664 z"
     fill="#c88e69"
     id="path34"
     style="stroke-width:0.8" />
  <path
     d="m 46.508764,52.84704 c 10.88576,7.11144 13.26656,7.57928 17.8256,8.85288 4.55896,1.2736 6.6384,-2.6148 6.6384,-2.6148 0,0 -1.336,3.9872 -2.6408,7.9536 -4.44984,1.18 -9.60152,2.24048 -9.60152,2.24048 l -1.80896,6.21728 c -1.4764,-0.10392 -2.90592,-0.30664 -4.06,-0.64976 -4.49672,-1.3412 -1.3412,-7.71448 -0.53544,-10.05896 0.80576,-2.34448 -0.0676,-4.22624 -1.61152,-6.3732 -1.53856,-2.14696 -4.20576,-5.56752 -4.20576,-5.56752 z"
     fill="#c88e69"
     id="path36"
     style="stroke-width:0.8" />
  <path
     d="m 36.231164,70.55792 c 0,0 -4.0232,5.90024 -2.5472,19.38528 0.0992,0.2696 0.1824,0.8368 0.8576,0.384 0.6712,-0.452 5.7344,-6.1544 17.25392,-10.1264 l 8.85288,2.9688 -5.2348,44.1656 -5.1312,0.7016 c 0,0 -1.7096,3.1504 -4.1272,4.996 -0.8368,1.944 -0.572,4.8968 -0.572,4.8968 l 1.4144,7.0432 c 0,0 10.72928,11.0368 13.6456,22.7072 2.91632,11.6704 5.93656,20.5232 6.93984,26.0592 1.00848,5.5368 8.0472,34.1072 12.777684,45.3768 4.730556,11.2704 13.884956,32.9008 17.508236,40.548 3.623356,7.6472 9.258396,16.9056 15.693996,41.556 0.90456,2.6152 0.97216,3.2176 1.3412,3.3688 0.36912,0.1504 2.21456,-0.1512 2.88512,1.5904 0.67064,1.7416 4.89696,13.4176 5.29721,14.1552 0.40027,0.7384 0.57183,1.1384 0,2.48 -0.57185,1.3408 -12.24225,15.7768 -27.385206,12.3096 -2.96832,-0.7536 -2.01176,-2.2616 -2.26128,-3.8984 -0.24952,-1.6376 -2.6928,-10.5168 -3.44656,-12.1752 -0.75376,-1.6584 -0.65504,-2.0376 -0.1248,-2.8696 0.53024,-0.8312 -0.32744,-3.2952 -0.32744,-3.2952 0,0 -5.4272,-14.4208 -7.438956,-18.9176 -2.01176,-4.496 -13.547044,-29.4488 -17.170324,-38.4368 -3.62336,-8.988 -17.22232,-38.2864 -17.22232,-38.2864 0,0 -8.5512,-17.6072 -8.8528,-17.856 -0.3016,-0.2496 -0.2496,1.2576 -0.2496,1.2576 0,0 -1.96,13.6824 -0.6552,24.952 1.3104,11.2704 2.2616,18.06 3.5712,24.5992 1.3104,6.54 3.0208,21.3288 3.7224,28.576 0.7016,7.2464 3.5712,27.468 3.2696,31.492 0.452,0.8056 2.26144,1.3096 2.81768,6.7888 0.55104,5.484 0.65496,8.3328 0.79008,9.3416 0.1352,1.0088 0.2028,1.7416 -0.97208,1.944 -1.17488,0.2032 -26.19488,3.4568 -27.40048,3.4568 -1.2064,0 -1.9448,0.2704 -1.9808,-1.1744 -0.0312,-1.44 -0.4,-13.048 -0.6704,-14.6912 -0.2704,-1.6424 -0.2344,-2.3808 0.4672,-2.7808 0.7024,-0.4 2.0488,-1.1072 2.3504,-1.44 0.3008,-0.3376 -0.068,-5.2968 -0.3016,-7.948 -0.2344,-2.6512 -7.2472,-53.8608 -8.8528,-63.1192 -1.612,-9.2584 -4.4296,-23.7464 -5.2295996,-30.2864 -0.8064,-6.5392 -2.8176,-20.5232 -2.3136,-31.5904 0.504,-11.0672 4.3247996,-47.4872 4.3247996,-47.4872 0,0 3.4208,-19.2192 2.7192,-24.6512 -0.7016,-5.432 -3.7224,-14.3896 -3.3216,-16.8016 0.4,-2.4168 -1.2063996,-10.864 6.6376,-22.8416 7.8496,-11.97184 13.8856,-18.71416 13.8856,-18.71416 z"
     fill="#0f5b34"
     id="path38"
     style="stroke-width:0.8" />
  <path
     d="m 32.841564,74.95064 c 0,0 -11.036,11.97176 -14.5864,32.43256 -0.1664,0.7544 -0.2184,1.6432 0,1.4088 0.2184,-0.2336 10.1944,-13.9264 15.3768,-17.4248 0,0 -2.516,-6.7264 0.6032,-16.41656 -0.2552,0 -1.3936,0 -1.3936,0 z"
     fill="#1c7d50"
     id="path40"
     style="stroke-width:0.8" />
  <path
     d="m 50.282364,82.0624 c 0,0 -3.192,31.424 -1.8608,46.0472 0.052,0.4264 -0.0104,1.5072 -1.2168,2.9008 -1.4344,1.6528 -2.6096,1.856 -2.8328,1.9024 -0.9984,0.2032 -1.96,0.2344 -2.4384,0.1616 -0.6392,-0.104 -1.3568,-0.2344 -0.92,-0.7544 0.4368,-0.5192 2.5008,-1.6584 2.4328,-8.6704 0,-0.3696 -0.2024,0.0312 -0.3376,0.7688 -0.1352,0.7384 -3.2176,8.3488 -6.2384,8.7856 -3.02,0.4368 -7.044,0.1664 -7.548,-0.2024 -0.504,-0.3696 -0.8368,-0.1664 -0.4,-1.2736 0.4368,-1.108 1.1432,-3.4 0.2336,-5.968 -0.2024,-0.572 -0.3376,0.3016 -0.4368,0.7016 -0.0984,0.4 -1.44,5.9 -3.1864,5.9368 -1.7416,0.0312 -3.1864,-2.2456 -3.4208,-2.8856 -0.2336,-0.6392 -2.2144,-4.0232 -2.4792,-9.5592 0,-0.4008 -0.2184,-0.2344 -0.3016,0.4 -0.088,0.676 0.0984,6.404 1.2736,10.932 0.1088,0.3384 0.3328,0.572 0.3328,0.7592 0,0.1872 -0.0624,0.3848 -0.12,0.3688 -0.0568,-0.0152 -0.748,-0.7848 -0.748,-0.7848 0,0 -4.9488,-8.0264 -1.4296,-17.4304 3.5192,-9.3984 11.6184,-24.1416 31.6424,-32.136 z"
     fill="#1c7d50"
     id="path42"
     style="stroke-width:0.8" />
  <path
     d="m 26.339164,140.82 c 0,0 3.2184,-0.3016 4.7304,1.2056 1.508,1.508 7.2936,7.8496 9.3056,12.7776 2.012,4.928 7.2832,20.6584 7.7976,34.7464 0.5144,14.088 0.5144,17.5496 0.5144,17.5496 0,0 -0.2392,0.6808 1.0712,-0.5512 1.30984,-1.232 12.80352,-13.4376 14.07712,-14.2432 0.46784,-0.4368 0.73816,-0.4 0.76936,0.0984 0.0312,0.4992 2.38088,16.4328 8.71776,33.6392 6.33688,17.2064 14.99224,37.8288 19.82152,47.1856 4.82936,9.3576 13.448316,29.4808 15.392476,35.448 1.94424,5.968 4.77736,14.3528 5.3336,15.6112 0.55104,1.2576 0.60296,1.5072 0,2.2616 -0.60304,0.7536 -1.3568,1.5592 0,1.1592 1.3568,-0.4008 2.01176,-0.5048 2.96824,0.7016 0.95656,1.2056 4.22632,6.3888 4.27832,9.908 0.052,3.5192 -2.21456,6.7424 -2.21456,6.7424 0,0 -3.97672,6.0872 -9.71056,6.8408 -5.73384,0.7544 -6.78912,0.052 -7.7976,-0.4 -1.00856,-0.452 -3.571356,-1.9128 -4.928156,-7.2936 -1.3568,-5.38 -0.60296,-8.5512 3.26984,-10.1624 3.872796,-1.612 11.618396,-5.032 11.618396,-5.032 0,0 -5.27112,2.1624 -8.16664,0.904 -2.90072,-1.2576 -6.118556,-1.7104 -10.547596,-12.2736 C 88.210844,307.08 82.425008,293.648 82.425008,293.648 c 0,0 -4.299044,-10.1736 -5.432324,-12.5752 -2.36008,-5.0168 -6.12896,-12.1744 -7.53768,-14.3376 -1.4088,-2.1624 -10.95824,-18.5632 -15.6524,-27.016 -4.69384,-8.4528 -23.21064,-41.1872 -31.52824,-62.1104 0,26.964 3.7584,68.9048 3.7584,68.9048 0,0 5.2296,47.6696 10.7344,81.48 -1.2056,0.1352 -5.3336,1.8088 -5.3336,1.8088 0,0 -0.468,0.0312 1.508,0.068 1.9752,0.036 9.6952,-0.536 10.932,5.9 1.2376,6.436 1.528,9.7936 -1.544,11.2544 -3.0672,1.4608 -8.5512,3.6232 -16.552,3.4728 -0.6024,-0.4 -1.5072,-3.8728 -1.5072,-3.8728 0,0 -2.012,-11.9256 -0.1504,-13.5312 1.8608,-1.612 4.2776,-2.8176 4.2776,-2.8176 0,0 0.1512,-0.5512 -1.0552,-0.5512 -0.384,-0.052 -0.6704,-0.3696 -2.1104,-15.044 0,0 -2.6144,-24.1832 -5.7704,-42.2272 -3.1552,-18.0432 -7.1784,-36.9608 -8.1144,-43.3648 -0.9408,-6.4048 -4.0023996,-37.1688 0.5824,-64.6472 2.3024,-13.1936 5.4528,-22.764 6.664,-23.648 1.2008,-0.8784 3.5504,-0.0104 7.7456,0.0264 z"
     fill="#1c7d50"
     id="path44"
     style="stroke-width:0.8" />
  <path
     d="m 14.428764,131.7336 c 0,0 4.2424,1.024 5.9888,1.3568 1.7416,0.3384 3.4728,0.5048 5.5832,0.468 2.1104,-0.036 5.8688,0.3376 5.8688,0.3376 0,0 4.1744,0.12 5.2816,0 1.1072,-0.1192 3.02,-0.0832 3.02,-0.0832 0,0 2.0952,0.172 2.5008,0.1352 0.4,-0.036 3.02,-0.816 3.436,-0.7848 0.4208,0.0312 1.544,1.388 1.3416,2.5944 -0.2032,1.2056 -0.536,1.492 -0.5512,1.7776 -0.016,0.2856 0.1816,0.9568 0.3536,1.1904 0.1664,0.2336 0.384,1.3416 0.2232,2.1728 -0.156,0.832 -0.7384,1.18 -0.5616,1.5336 0.1768,0.3536 1.0552,0.8576 0.9568,1.5336 -0.0992,0.676 -0.0208,0.9256 0.0104,1.4608 0.0312,0.5352 -0.66,0.1248 -0.66,0.1248 0,0 -0.7024,-0.3016 -2.3392,-0.4 -1.6376,-0.0992 -7.7456,-1.3568 -11.2448,-3.4472 -3.4984,-2.0896 -4.2984,-2.0376 -5.2816,-2.0896 -0.9824,-0.052 -10.3136,0.38 -14.6648,-2.2144 -4.3559996,-2.5936 0.7384,-5.6664 0.7384,-5.6664 z"
     fill="#212121"
     id="path46"
     style="stroke-width:0.8" />
  <path
     d="m 14.278364,131.8264 c 0.0936,-0.0624 0.1504,-0.0984 0.1504,-0.0984 0,0 4.2424,1.024 5.9888,1.3568 1.7416,0.3376 3.4728,0.504 5.5832,0.4672 2.1104,-0.0312 5.8688,0.3384 5.8688,0.3384 0,0 4.1744,0.1192 5.2816,0 1.1072,-0.12 3.02,-0.0832 3.02,-0.0832 0,0 2.0952,0.1712 2.5008,0.1352 0.4,-0.0368 3.02,-0.816 3.436,-0.7848 0.4208,0.0312 1.544,1.388 1.3416,2.5936 -0.2032,1.2064 -0.536,1.492 -0.5512,1.7776 -0.016,0.2864 0.1816,0.9568 0.3536,1.1904 0.1664,0.2344 0.384,1.3416 0.2232,2.1736 -0.156,0.8312 -0.7384,1.18 -0.5616,1.5336 0.1768,0.3528 1.0552,0.8576 0.9568,1.5328 -0.0992,0.676 -0.0208,0.9256 0.0104,1.4608 0.0312,0.536 -0.66,0.1248 -0.66,0.1248 0,0 -0.7024,-0.3016 -2.3392,-0.4 -1.6376,-0.0984 -7.7456,-1.3568 -11.2448,-3.4464 -0.5296,-0.3176 -0.9928,-0.5824 -1.4136,-0.8056 0.0048,0 0.0048,0 0.0104,0.005 11.9248,4.304 12.6216,3.4936 13.6768,3.7952 1.0552,0.3016 1.4608,-0.6552 0.6552,-0.6552 -0.8056,0 -2.8176,-0.7592 -2.8176,-0.7592 0,0 2.3136,0.5096 2.916,0 0.6032,-0.5096 -1.1536,-1.4504 -1.1536,-1.4504 l -8.0472,-2.4168 c 0,0 4.7304,1.3152 6.7888,1.5128 2.064,0.2024 2.4176,-1.3104 2.412,-1.7104 0,-0.4008 0,-1.7104 -1.2576,-1.7104 -1.2584,0 -6.94,-1.2064 -6.94,-1.2064 0,0 4.0232,0.6552 5.8376,0.7024 1.8096,0.052 1.7624,-0.2496 2.3136,-1.3208 0.5512,-1.0704 -3.7224,-1.4608 -3.7224,-1.4608 0,0 -0.852,-0.2752 -5.432,-0.0832 -4.58,0.1928 -6.3888,0 -6.3888,0 0,0 -3.8208,-0.3536 -6.1392,-0.3536 -5.7136,-0.005 -9.7112,-1.5488 -10.6568,-1.9544 z"
     fill="#000000"
     id="path48"
     style="stroke-width:0.8" />
  <path
     d="m 49.444764,368.3072 c 0,0 -0.9408,-1.3408 -1.008,0.4008 -0.068,1.7408 -4.0912,12.476 -10.8648,17.3728 -6.7736,4.8968 -10.9584,8.3592 -21.1472,8.1352 -0.5512,-0.2024 -0.6032,-0.3272 -0.6032,-0.3272 0,0 -5.536,4.148 -12.6791996,5.3072 -7.1424,1.1592 0.1248,6.4672 0.1248,6.4672 0,0 0.4264,0.452 2.2408,0.452 1.8144,0 15.4967996,0 15.4967996,0 0,0 3.2696,-0.3536 6.2376,-3.4984 2.968,-3.1448 7.9224,-11.0672 14.2856,-11.0672 6.3624,0 5.2088,10.6408 5.2088,10.6408 l -0.4784,3.4728 c 0,0 -0.2496,0.9304 0.9048,0.9304 1.1536,0 3.4984,-10.1368 3.4984,-10.1368 0,0 5.28656,-17.4824 -1.2168,-28.1496 z"
     fill="#000000"
     id="path50"
     style="stroke-width:0.8" />
  <path
     d="m 53.141724,72.88168 c 0,0 -2.70816,3.74808 -2.91136,15.56952 -0.2024,11.8208 -0.8056,37.376 -0.956,43.968 -0.1512,6.5912 0,29.532 0,29.532 0,0 -0.3016,29.8336 -0.5048,37.028 -0.2024,7.1952 0,6.488 0,6.488 0,0 -0.052,1.6584 1.2584,-0.504 1.30992,-2.1632 8.49936,-10.5168 12.57488,-13.8856 0,0 3.28536,-2.8488 3.8416,-3.1864 v 0.6864 c 0,0 1.72592,-0.468 2.02744,-1.3936 0.30144,-0.9248 -0.0988,-1.876 -0.50424,-2.5472 -0.40032,-0.6704 -5.3648,-8.1976 -4.81376,-27.3176 0.55104,-19.1192 2.14176,-30.2184 2.14176,-30.2184 0,0 0.02592,-0.452 0.37424,0.572 0.34832,1.024 6.44088,18.4808 9.65864,32.2408 -0.83168,0.052 -1.58552,0.2288 -1.50752,1.6584 0.078,1.4344 0.65504,7.1944 0.85776,7.9224 0.078,0.5768 -0.052,1.1328 0.12472,1.4088 0.1768,0.2752 3.29584,1.5856 10.36568,0.956 7.06984,-0.6288 10.94264,-3.8208 11.54568,-7.1944 0.0883,-0.5512 0.31704,-1.1384 -0.35352,-2.8176 0,0 -1.84544,-4.0232 -2.47968,-5.6872 -0.63416,-1.6632 -0.76936,-2.0792 -0.76936,-2.2608 0,-0.1824 -0.31712,-0.6192 -2.19888,-0.2864 -0.33792,-0.7688 -5.3648,-8.868 -6.87752,-21.5472 -1.507516,-12.6792 -3.067036,-29.028 -3.067036,-29.028 0,0 -2.209364,-16.2504 -8.213524,-19.6032 -3.50888,-2.5832 -7.8808,-2.8848 -8.75408,-2.8848 -0.87336,0 -7.782,0.7376 -10.32928,-6.17072 -0.36904,-0.79536 -0.23392,-2.06384 -0.53024,-1.4972 z"
     fill="#212121"
     id="path52"
     style="stroke-width:0.8" />
  <path
     d="m 33.631964,70.39168 c 0,0 -1.7104,-0.45232 -5.032,4.73056 -3.3216,5.18256 -8.9568,10.61536 -15.9488,31.79376 -0.6552,2.1104 -0.8056,4.98 0,7.3448 0.8056,2.3656 3.2696,8.1984 2.3136,16.604 -0.9568,8.4008 -4.892,34.8968 -4.892,34.8968 0,0 -3.3063996,34.3144 -2.8223996,41.5768 -1.2376,-1.2576 -5.6928,-7.1736 -5.7912,-7.7296 -0.0984,-0.5568 -0.4,-1.2584 0,-4.3256 0.4,-3.0672 2.8432,-17.7312 2.2408,-33.4304 -0.6032,-15.6944 -1.4088,-23.3408 -1.3568,-26.46 0.052,-3.1192 1.1592,-10.1112 1.7104,-13.2824 0.5504,-3.1712 1.356,-8.0992 0.6024,-13.5312 -0.7536,-5.432 -1.6584,-9.7576 2.7656,-17.3056 4.4295996,-7.548 10.4647996,-17.75768 19.8215996,-25.55528 3.6704,0.74856 6.3888,4.67336 6.3888,4.67336 z"
     fill="#212121"
     id="path54"
     style="stroke-width:0.8" />
  <path
     d="m 48.775164,205.4616 c 0,0 -0.0104,0.0368 -0.0256,0.006 3.5504,-4.8448 8.9776,-10.168 8.9776,-10.168 0,0 0.53024,-0.78 0.55104,-1.1592 0.026,-0.38 -0.24952,-1.8096 -0.35352,-3.3216 -2.31328,-53.3256 2.17816,-61.3728 3.8572,-71.0368 1.67912,-9.6584 2.07936,-17.004 2.17816,-18.9848 0.40024,7.9176 2.5836,18.044 3.32176,21.2984 0.73816,3.2544 1.17488,2.8176 5.13088,14.3888 3.95592,11.572 4.79808,20.092 4.89688,20.8928 0.09872,0.8 0.46784,0.8728 0.76936,0.9408 3.924804,0.504 8.31744,-1.1072 8.52016,-1.2064 0.20272,-0.0984 0.80576,-0.2024 0.60304,0.1664 -2.4796,1.7784 -5.900236,2.1472 -6.976316,2.08 -1.076004,-0.068 -0.738164,-0.0312 -0.670564,1.0392 0.0676,1.0712 0.639444,6.7424 0.836964,8.416 0.19752,1.6744 0.90456,1.6792 1.80904,1.9448 5.099676,0.6704 10.261676,-2.4488 12.814076,-4.3256 2.5472,-1.876 1.31,-3.7584 1.31,-3.7584 l -1.82984,-3.628 c 0,0 -1.61152,-4.076 -1.93896,-4.4504 -0.32752,-0.3792 -1.65832,0.276 -1.95984,0.1248 -0.30152,-0.1504 0.0936,0.4112 -4.23672,-8.78 -4.330236,-9.1904 -5.650636,-36.1704 -6.4044,-43.568 -0.75376,-7.3968 -4.48104,-13.5832 -7.75088,-17.1024 -3.26976,-3.5192 -4.62656,-2.568 -11.97192,-3.5192 -5.1776,-0.676 -6.98144,-5.29744 -7.58968,-7.96416 0.29112,-0.63424 0.49384,-0.90976 0.49384,-0.90976 0.29632,-0.56664 0.156,0.70176 0.52504,1.50232 2.5472,6.9084 9.45592,6.1708 10.32928,6.1708 0.87328,0 5.2504,0.3016 8.75408,2.8848 6.00416,3.3528 8.213524,19.6032 8.213524,19.6032 0,0 1.55952,16.3488 3.067036,29.028 1.50752,12.6792 6.5396,20.7784 6.87752,21.5472 1.87664,-0.3376 2.19888,0.0992 2.19888,0.2864 0,0.1816 0.1352,0.6024 0.76936,2.2608 0.63424,1.6584 2.47968,5.6872 2.47968,5.6872 0.67056,1.6792 0.43664,2.2664 0.35352,2.8176 -0.60304,3.3688 -4.47592,6.5656 -11.54568,7.1944 -7.06984,0.6296 -10.18888,-0.6808 -10.3656,-0.956 -0.1768,-0.276 -0.05208,-0.832 -0.1248,-1.4088 -0.2028,-0.728 -0.77976,-6.488 -0.85776,-7.9224 -0.07792,-1.4352 0.68096,-1.612 1.50752,-1.6584 -3.21776,-13.76 -9.30512,-31.2168 -9.65864,-32.2408 -0.35344,-1.024 -0.37424,-0.572 -0.37424,-0.572 0,0 -1.58552,11.0992 -2.14176,30.2184 -0.55104,19.1152 4.40824,26.6472 4.81376,27.3176 0.40024,0.6712 0.80568,1.6272 0.50416,2.5472 -0.30144,0.9208 -2.02736,1.3936 -2.02736,1.3936 v -0.6864 c -0.55096,0.3376 -3.8416,3.1864 -3.8416,3.1864 -4.07552,3.3688 -11.27016,11.7224 -12.57528,13.8856 -1.2944,2.1624 -1.2424,0.4984 -1.2424,0.4984 z"
     fill="#000000"
     id="path56"
     style="stroke-width:0.8" />
  <path
     d="m 1.4591644,195.2784 c 0.4,-3.0672 2.8432,-17.732 2.2408,-33.4312 -0.6032,-15.6936 -1.4088,-23.3408 -1.3568,-26.46 0.052,-3.1192 1.1592,-10.1104 1.7104,-13.2816 0.5504,-3.1712 1.356,-8.0992 0.6024,-13.532 -0.7536,-5.432 -1.6584,-9.7568 2.7656,-17.3048 C 11.845564,83.72 17.886364,73.51072 27.243164,65.71312 c 3.6704,0.75376 6.3888,4.67856 6.3888,4.67856 0,0 -1.2944,-0.33792 -3.8104,2.96832 -2.7656,1.02928 -5.9472,2.81752 -7.948,5.92096 -4.1592,6.44064 -11.5352,17.70544 -11.6704,24.55184 -0.1352,6.8416 -1.4663996,11.1352 -0.9359996,13.2824 0.5304,2.1464 1.4711996,5.9 1.6063996,7.6464 0.1352,1.7416 2.1472,12.6112 -0.8056,28.8408 -2.9527996,16.2352 -2.7759996,24.1472 -2.9319996,27.7704 -0.156,3.6232 -0.8264,7.7816 -1.4976,11.5352 -0.5712,3.1968 -1.616,7.3712 1.56,12.8504 0.0048,0.6136 0.0208,1.1488 0.0464,1.58 -1.2368,-1.2576 -5.692,-7.1736 -5.7904,-7.7296 -0.0992,-0.5568 -0.3952,-1.2632 0.0048,-4.3304 z"
     fill="#000000"
     id="path58"
     style="stroke-width:0.8" />
  <path
     d="m 67.822604,24.40656 c 0,0 -4.02352,0.20272 -9.99656,-1.13848 -2.68232,0 -3.956,1.47632 -4.62656,3.35296 -0.67056,1.87664 -1.3412,5.2296 -5.29712,4.89688 -3.956,-0.33264 -6.6384,-2.14688 -8.3176,3.21784 -1.6792,5.3648 3.556,13.28192 3.556,13.28192 0,0 6.1024,9.79384 2.8176,18.3764 -3.2856,8.58776 -11.8736,6.95544 -11.8736,6.95544 0,0 -6.8408,-2.26128 -6.6384,-7.09056 -2.3496,2.01176 -7.1632,6.77872 -13.7496,16.16664 0,0 -0.8368,0.8376 -1.8088,-1.0704 -0.972,-1.91312 -5.6351996,-10.19416 0.504,-16.26592 6.1392,-6.07176 8.6864,-5.2972 10.7344,-10.12648 2.0488,-4.82936 2.9168,-6.00416 1.44,-13.98376 -1.476,-7.97952 -4.5584,-16.8688 0.9728,-25.57096 5.536,-8.702136 11.1712,-7.56368 12.2728,-7.896384 0.5304,0 0.8784,0.05199 1.3832,-0.701776 C 39.699164,6.056152 43.041564,0 54.816204,0 c 11.7744,0 15.5952,3.337376 17.05592,4.595392 1.4608,1.258016 12.25792,10.027728 12.79336,24.115408 0.53544,14.08768 -5.04768,30.61864 -5.2504,31.4244 -0.2028,0.80576 -3.06712,9.1544 -0.0988,20.024 2.968324,10.8648 2.666804,9.1392 2.614804,12.3256 -0.052,3.1864 -0.85768,4.2216 -1.258,4.8296 -0.40024,0.608 -0.67064,0.608 -0.67064,0.608 l -1.190404,-3.7536 c 0,0 -2.13656,-7.7192 -6.5136,-10.516 -4.37704,-2.7912 -5.96256,-2.3912 -9.43512,-2.7912 -3.47256,-0.4008 -10.28768,-2.64112 -9.75744,-9.96048 0.53024,-7.31936 3.11904,-10.5892 3.11904,-10.5892 0,0 0.42632,-0.90448 1.65832,-0.0987 1.232,0.80576 3.9508,1.86096 3.9508,1.86096 0,0 3.04104,0.70184 4.82936,0.30152 1.78824,-0.40024 2.28728,-1.1332 2.516,-2.84352 0.22872,-1.71024 0.22872,-3.8468 0.60304,-4.32504 0.37424,-0.47824 0.98248,-0.93056 0.98248,-0.93056 0,0 0.55104,-0.62896 0.32744,-1.31 0.35352,-0.40024 1.33088,-1.232 0.83176,-2.28728 -0.50424,-1.05528 -1.1072,-1.98576 -0.35344,-2.84352 0.75376,-0.32752 3.09304,-1.02928 3.69608,-1.78824 0.60296,-0.75376 1.33072,-1.78824 0.70176,-2.91632 -0.62904,-1.13328 -3.36336,-6.69032 -3.37896,-7.17904 -0.0156,-0.48864 -0.72256,-2.5004 0.33792,-4.34064 1.05528,-1.84544 2.03776,-4.40304 1.206,-6.6176 -0.83176,-2.21448 -2.6668,-1.31 -2.6668,-1.31 0,0 -1.69984,0.55104 -3.64408,0.72264 z"
     fill="#9b6348"
     id="path60"
     style="stroke-width:0.8" />
  <path
     d="m 12.386364,65.08928 c 6.1392,-6.07176 8.6864,-5.2972 10.7344,-10.12656 2.048,-4.82928 2.9168,-6.00416 1.44,-13.98368 -1.476,-7.9796 -4.5592,-16.86888 0.972,-25.57096 5.5368,-8.702152 11.1712,-7.563704 12.2736,-7.8964 0.2232,0 0.416,0.0052 0.5976,-0.04158 v 0.04158 c 0,0 -4.8704,2.16256 -8.276,12.34104 -1.2528,3.748 -1.876,6.67472 -0.5712,12.86088 1.3096,6.18608 3.368,13.16232 2.3648,20.13856 -1.0032,6.97632 -0.7536,12.0084 1.7104,13.66664 2.464,1.65832 5.032,2.86952 8.7544,-0.30152 3.7216,-3.17104 3.1192,-8.65536 3.1192,-8.65536 0,0 0.504,-4.47576 -5.3808,-14.99216 -1.6688,-3.70128 -2.4848,-9.53912 1.1696,-10.88552 -0.244,0.208 -0.4728,0.46792 -0.6912,0.79536 -0.0104,0.0156 -0.0208,0.0364 -0.0312,0.052 -0.0568,0.0884 -0.1144,0.182 -0.1712,0.28072 -0.0208,0.0312 -0.0368,0.0676 -0.0576,0.0988 -0.0464,0.08832 -0.0936,0.17672 -0.1456,0.27032 -0.0208,0.0416 -0.0416,0.08312 -0.0624,0.12992 -0.0416,0.0936 -0.088,0.1872 -0.1296,0.29112 -0.0208,0.0468 -0.0416,0.0988 -0.0624,0.1456 -0.0416,0.10392 -0.0888,0.21832 -0.1304,0.33264 -0.0152,0.0468 -0.036,0.0936 -0.052,0.1456 -0.0568,0.16632 -0.1192,0.33784 -0.1768,0.51984 -1.6784,5.36472 3.556,13.28192 3.556,13.28192 0,0 6.1032,9.79384 2.8176,18.3764 -3.2856,8.58776 -11.8736,6.95544 -11.8736,6.95544 0,0 -6.8408,-2.26128 -6.6376,-7.09064 -2.3504,2.01176 -7.164,6.77872 -13.7504,16.16672 0,0 -0.8368,0.8376 -1.8088,-1.0704 -0.972,-1.90792 -5.6399996,-10.20464 0.4992,-16.27632 z"
     fill="#8e5335"
     id="path62"
     style="stroke-width:0.8" />
  <path
     d="m 72.292924,83.648 c -4.37712,-2.792 -5.96256,-2.392 -9.43512,-2.792 -3.47256,-0.4 -10.28768,-2.64072 -9.75744,-9.96008 0.53024,-7.31936 3.11904,-10.5892 3.11904,-10.5892 0,0 0.42632,-0.90448 1.65832,-0.0987 0.70176,0.45744 1.87664,0.99288 2.76552,1.3724 0.89416,0.38464 1.82984,0.63936 2.7968,0.76936 1.00848,0.13512 2.28208,0.22872 3.21784,0.0155 1.78824,-0.40024 2.28728,-1.1332 2.516,-2.84352 0.22872,-1.71024 0.22872,-3.8468 0.60304,-4.32504 0.37944,-0.47824 0.98248,-0.93048 0.98248,-0.93048 0,0 0.55104,-0.62904 0.32752,-1.31 0.35344,-0.40032 1.33072,-1.23208 0.83168,-2.28736 -0.50424,-1.05528 -1.1072,-1.98576 -0.35344,-2.84352 0.12992,-0.0572 0.31192,-0.12472 0.52504,-0.20272 0.32232,1.52832 0.40544,3.47776 -0.27032,5.66104 -1.61152,5.1828 -3.62328,9.1492 -4.32512,10.89072 -0.70176,1.73624 -2.01176,6.65912 1.76232,9.96016 3.66488,3.20216 13.858884,5.92624 11.004964,23.65264 -0.16112,0.1248 -0.25472,0.1304 -0.25472,0.1304 L 78.816924,94.164 c -0.0104,-0.006 -2.14696,-7.7248 -6.524,-10.516 z"
     fill="#8e5335"
     id="path64"
     style="stroke-width:0.8" />
  <path
     d="m 68.674764,31.2736 c -0.89416,0.0364 -1.77272,0.24952 -2.58368,0.63936 -0.63936,0.30672 -1.41912,0.76936 -2.12608,1.414 -0.23392,0.23392 -0.73824,1.03968 0.73816,0.43664 1.47632,-0.60304 3.62328,-1.47632 5.90016,-1.3776 0.53544,0 1.3776,-0.30144 0.16632,-0.67056 -0.92008,-0.28072 -1.076,-0.48344 -2.09488,-0.44184 z"
     fill="#000000"
     id="path66"
     style="stroke-width:0.8" />
  <path
     d="m 68.507964,37.03344 c -0.44496,0 -0.80568,-1.11016 -0.80568,-2.47968 0,-1.36944 0.36072,-2.4796 0.80568,-2.4796 0.44504,0 0.80576,1.11016 0.80576,2.4796 0,1.36952 -0.36072,2.47968 -0.80576,2.47968 z"
     fill="#000000"
     id="path68"
     style="stroke-width:0.8" />
</svg>
