<svg width="66" height="70" viewBox="0 0 66 70" fill="none" xmlns="http://www.w3.org/2000/svg">
<path d="M61.206 39.2426V25.8014C61.206 23.3812 59.2581 21.4232 56.8597 21.4232H25.7267L20.5253 18.0156H6.23095C3.77834 18.0156 1.81376 20.0577 1.88467 22.5241L2.37268 39.2426H61.206V39.2426Z" fill="#BCDAEF"/>
<path d="M44.525 33.293L21.8867 33.9993L21.0426 4.4223L37.8503 3.89877L43.8408 9.35306L44.525 33.293Z" fill="white"/>
<path opacity="0.8" d="M44.525 33.293L21.8867 33.9993L21.0426 4.4223L37.8503 3.89877L43.8408 9.35306L44.525 33.293Z" fill="white"/>
<path d="M36.459 3.30615L42.295 8.67288L36.5331 8.95637L36.459 3.30615Z" fill="white"/>
<path d="M23.6196 10.5727L35.4609 9.65454L35.5391 8.89172L23.6977 9.80992L23.6196 10.5727Z" fill="#DADADA"/>
<path d="M23.7329 12.4697L35.5742 11.5515L35.6523 10.7887L23.811 11.7069L23.7329 12.4697Z" fill="#DADADA"/>
<path d="M23.852 14.3682L35.6934 13.45L35.7715 12.6871L23.9301 13.6054L23.852 14.3682Z" fill="#DADADA"/>
<path d="M23.9645 16.2654L41.2969 14.8635L41.3772 14.0991L24.0448 15.5009L23.9645 16.2654Z" fill="#DADADA"/>
<path d="M24.0777 18.1628L41.4102 16.761L41.4905 15.9965L24.158 17.3984L24.0777 18.1628Z" fill="#DADADA"/>
<path d="M24.193 20.0616L41.5254 18.6597L41.6057 17.8952L24.2733 19.2971L24.193 20.0616Z" fill="#DADADA"/>
<path d="M24.3102 21.9605L41.6426 20.5586L41.7229 19.7941L24.3905 21.196L24.3102 21.9605Z" fill="#DADADA"/>
<path d="M24.4215 23.8574L41.7539 22.4556L41.8342 21.6911L24.5018 23.093L24.4215 23.8574Z" fill="#DADADA"/>
<path d="M24.5367 25.7573L41.8691 24.3555L41.9494 23.591L24.617 24.9929L24.5367 25.7573Z" fill="#DADADA"/>
<path d="M24.65 27.6538L41.9824 26.252L42.0627 25.4875L24.7303 26.8893L24.65 27.6538Z" fill="#DADADA"/>
<path d="M24.7672 29.5511L42.0996 28.1492L42.1799 27.3847L24.8475 28.7866L24.7672 29.5511Z" fill="#DADADA"/>
<path d="M24.8805 31.4515L42.2129 30.0496L42.2932 29.2851L24.9608 30.687L24.8805 31.4515Z" fill="#DADADA"/>
<mask id="mask0_3148_21254" style="mask-type:alpha" maskUnits="userSpaceOnUse" x="4" y="3" width="26" height="33">
<rect x="3.6582" y="7.14282" width="19.4307" height="29.9233" rx="2" transform="rotate(-13.4831 3.6582 7.14282)" fill="#E7CDB8"/>
</mask>
<g mask="url(#mask0_3148_21254)">
<path d="M21.7969 2.79352L22.5527 2.6123L22.8246 3.74602L3.92936 8.27646L3.65753 7.14275L21.7969 2.79352Z" fill="#EDEDED"/>
<path d="M3.6582 7.14282L5.06374 8.00471L11.7688 35.9696L10.6351 36.2414L10.4539 35.4856L3.6582 7.14282Z" fill="#DADADA"/>
</g>
<rect x="4.5957" y="7.71753" width="18.6535" height="29.1461" rx="1" transform="rotate(-13.4831 4.5957 7.71753)" fill="#FEFEFE"/>
<rect x="7.30078" y="10.6653" width="14.7674" height="0.522663" rx="0.261331" transform="rotate(-13.4831 7.30078 10.6653)" fill="#DADADA"/>
<rect x="8.75195" y="16.7119" width="14.7674" height="0.522663" rx="0.261331" transform="rotate(-13.4831 8.75195 16.7119)" fill="#DADADA"/>
<rect x="10.2012" y="22.7583" width="14.7674" height="0.522663" rx="0.261331" transform="rotate(-13.4831 10.2012 22.7583)" fill="#DADADA"/>
<rect x="7.57422" y="11.7991" width="14.7674" height="0.522663" rx="0.261331" transform="rotate(-13.4831 7.57422 11.7991)" fill="#DADADA"/>
<rect x="9.02148" y="17.8457" width="14.7674" height="0.522663" rx="0.261331" transform="rotate(-13.4831 9.02148 17.8457)" fill="#DADADA"/>
<rect x="10.4727" y="23.8921" width="14.7674" height="0.522663" rx="0.261331" transform="rotate(-13.4831 10.4727 23.8921)" fill="#DADADA"/>
<rect x="7.8457" y="12.9329" width="14.7674" height="0.522663" rx="0.261331" transform="rotate(-13.4831 7.8457 12.9329)" fill="#DADADA"/>
<rect x="9.29492" y="18.9792" width="14.7674" height="0.522663" rx="0.261331" transform="rotate(-13.4831 9.29492 18.9792)" fill="#DADADA"/>
<rect x="10.7441" y="25.0259" width="14.7674" height="0.522663" rx="0.261331" transform="rotate(-13.4831 10.7441 25.0259)" fill="#DADADA"/>
<path d="M13.1547 31.2824L19.3221 25.2958L19.36 25.4402L13.1913 31.4271L13.1547 31.2824Z" fill="#31302C"/>
<path d="M13.5762 29.2434C13.8253 28.9657 14.0732 28.5368 13.913 28.1312C13.8153 27.8857 13.5926 27.8343 13.3895 27.974C12.9919 28.25 12.8858 29.0009 12.8366 29.4512C12.7936 29.8449 12.7957 30.5683 13.351 30.5639C14.005 30.5596 14.2457 29.5118 14.2608 28.9913C14.2629 28.9186 14.1459 28.9055 14.1316 28.9739C14.104 29.0978 13.9252 29.9134 14.3026 29.7312C14.437 29.6666 14.462 29.4187 14.4831 29.2907C14.5223 29.0608 14.4941 28.7598 14.5913 28.5478C14.5522 28.5397 14.5128 28.5303 14.4738 28.5221C14.529 28.7136 14.5609 28.8451 14.7181 28.9681C14.7437 28.9877 14.7908 28.9954 14.8103 28.9641C14.9653 28.7206 14.8986 28.3972 15.079 28.1678C15.0442 28.1601 15.0106 28.1521 14.9755 28.1431C14.9885 28.2053 15.0095 28.3861 15.025 28.469C15.0322 28.5085 15.0915 28.5205 15.1186 28.503C15.1853 28.4581 15.2014 28.4402 15.2177 28.3586C15.1823 28.3539 15.1455 28.3495 15.1097 28.3435C15.3145 28.7956 15.586 28.238 15.6735 28.0255C15.9316 27.3987 16.0587 26.7635 15.8953 26.0739C15.8827 26.0187 15.7745 26.0136 15.7902 26.0808C15.9146 26.6107 15.814 27.145 15.7958 27.6747C15.7765 28.2485 15.7877 28.824 15.8249 29.3991C15.859 29.4041 15.8928 29.4078 15.9257 29.413C15.8352 29.0171 15.8771 28.6138 15.9256 28.2203C15.9663 27.888 16.0201 27.5429 16.2013 27.2623C16.1701 27.258 16.1386 27.2525 16.1073 27.2482C16.2399 27.5071 16.2036 27.8241 16.0971 28.075C16.0791 28.1174 16.1569 28.1705 16.1753 28.1295C16.2711 27.9122 16.4908 27.7999 16.5983 27.5856C16.7094 27.3635 16.7452 27.0989 16.8194 26.861C16.793 26.8543 16.7666 26.8475 16.7403 26.8408C16.845 27.2929 17.0783 26.4976 17.1151 26.4099C17.0907 26.4055 17.0653 26.4028 17.0409 26.3984C17.0915 26.4847 17.1447 26.5377 17.2461 26.5161C17.4473 26.4717 17.4456 26.1506 17.5884 26.0813C17.5897 26.081 17.6707 26.1249 17.6931 26.1212C17.7871 26.1083 17.8515 26.0866 17.9236 26.0192C18.0696 25.8812 18.155 25.6662 18.2043 25.4709C18.2167 25.4227 18.1241 25.3871 18.1088 25.4402C18.0543 25.6367 17.8589 26.1699 17.5761 25.9948C17.5598 25.9844 17.5256 25.9794 17.5161 26.0014C17.4748 26.0929 17.2306 26.5848 17.1106 26.3812C17.096 26.3562 17.051 26.3352 17.0364 26.3697C17.0015 26.4541 16.9791 26.5442 16.9505 26.6315C16.9338 26.6792 16.8476 26.9779 16.8202 26.8425C16.8133 26.81 16.7533 26.784 16.741 26.8222C16.6564 27.078 16.6272 27.3963 16.476 27.622C16.3637 27.7906 16.1835 27.8854 16.0984 28.0747C16.1249 28.0928 16.1501 28.1111 16.1766 28.1292C16.2949 27.8544 16.3443 27.5131 16.1997 27.2286C16.1811 27.1932 16.1287 27.181 16.1057 27.2146C15.9216 27.5001 15.8662 27.8555 15.8256 28.1934C15.7765 28.5956 15.7337 29.0062 15.8263 29.4101C15.8355 29.452 15.9316 29.4797 15.9271 29.424C15.8881 28.8039 15.8774 28.1817 15.9077 27.5642C15.9323 27.0656 16.0119 26.573 15.8957 26.0753C15.8606 26.0776 15.8256 26.0799 15.7905 26.0822C15.9186 26.6211 15.871 27.1051 15.703 27.6164C15.6586 27.7498 15.6116 27.8837 15.558 28.0135C15.5343 28.0713 15.3226 28.5784 15.2171 28.3347C15.2015 28.3 15.12 28.2647 15.1092 28.3196C15.0852 28.3548 15.0612 28.39 15.0375 28.4265C15.0692 28.4377 15.1008 28.449 15.1311 28.4605C15.1101 28.3505 15.1048 28.2426 15.0812 28.1332C15.0717 28.0901 15.0018 28.0791 14.9777 28.1086C14.7941 28.3416 14.8595 28.6653 14.7019 28.9094C14.7331 28.908 14.7629 28.9069 14.7941 28.9054C14.6903 28.7931 14.624 28.6665 14.5949 28.5243C14.5818 28.4778 14.5016 28.4478 14.4774 28.4987C14.3688 28.7302 14.3985 29.0535 14.3524 29.3048C14.3269 29.4424 14.2035 29.8217 14.185 29.4505C14.1773 29.3007 14.2292 29.1373 14.2614 28.994C14.2188 28.9881 14.1749 28.9825 14.1323 28.9766C14.1182 29.4303 13.9566 30.1513 13.5469 30.3904C13.0237 30.695 12.9382 29.9452 12.9603 29.5988C12.9866 29.199 13.0824 28.7919 13.2371 28.428C13.2672 28.3574 13.2979 28.2839 13.3395 28.2206C13.4274 28.0858 13.4573 28.0578 13.6403 28.1096C13.8325 28.1651 13.8464 28.22 13.8474 28.4082C13.8477 28.5016 13.8312 28.5989 13.8052 28.6855C13.75 28.8738 13.6452 29.0393 13.5305 29.1928C13.5129 29.2152 13.5573 29.2661 13.5762 29.2434Z" fill="#31302C"/>
<mask id="mask1_3148_21254" style="mask-type:alpha" maskUnits="userSpaceOnUse" x="38" y="6" width="28" height="34">
<rect x="47.0117" y="5.60669" width="19.4307" height="29.9233" rx="2" transform="rotate(17.6738 47.0117 5.60669)" fill="#E7CDB8"/>
</mask>
<g mask="url(#mask1_3148_21254)">
<path d="M64.7848 11.2697L65.5254 11.5056L65.1714 12.6164L46.6578 6.71732L47.0118 5.6065L64.7848 11.2697Z" fill="#EDEDED"/>
<path d="M47.0117 5.60669L47.7686 7.07145L39.0379 34.4716L37.9271 34.1177L38.1631 33.3771L47.0117 5.60669Z" fill="#DADADA"/>
</g>
<rect x="47.5176" y="6.58325" width="18.6535" height="29.1461" rx="1" transform="rotate(17.6738 47.5176 6.58325)" fill="#FEFEFE"/>
<rect x="48.3066" y="10.5051" width="14.7674" height="0.522663" rx="0.261331" transform="rotate(17.6738 48.3066 10.5051)" fill="#DADADA"/>
<rect x="46.4199" y="16.4297" width="14.7674" height="0.522663" rx="0.261331" transform="rotate(17.6738 46.4199 16.4297)" fill="#DADADA"/>
<rect x="44.5312" y="22.354" width="14.7674" height="0.522663" rx="0.261331" transform="rotate(17.6738 44.5312 22.354)" fill="#DADADA"/>
<rect x="47.9531" y="11.616" width="14.7674" height="0.522663" rx="0.261331" transform="rotate(17.6738 47.9531 11.616)" fill="#DADADA"/>
<rect x="46.0645" y="17.5403" width="14.7674" height="0.522663" rx="0.261331" transform="rotate(17.6738 46.0645 17.5403)" fill="#DADADA"/>
<rect x="44.1777" y="23.4648" width="14.7674" height="0.522663" rx="0.261331" transform="rotate(17.6738 44.1777 23.4648)" fill="#DADADA"/>
<rect x="47.5996" y="12.7273" width="14.7674" height="0.522663" rx="0.261331" transform="rotate(17.6738 47.5996 12.7273)" fill="#DADADA"/>
<rect x="45.7109" y="18.6514" width="14.7674" height="0.522663" rx="0.261331" transform="rotate(17.6738 45.7109 18.6514)" fill="#DADADA"/>
<rect x="43.8242" y="24.5759" width="14.7674" height="0.522663" rx="0.261331" transform="rotate(17.6738 43.8242 24.5759)" fill="#DADADA"/>
<path d="M42.6485 31.1765L51.0237 29.2443L50.9815 29.3875L42.605 31.3192L42.6485 31.1765Z" fill="#31302C"/>
<path d="M44.0652 29.6502C44.422 29.5415 44.8561 29.3026 44.9289 28.8727C44.9723 28.6121 44.8083 28.4529 44.5621 28.4674C44.0792 28.4979 43.5998 29.0855 43.3247 29.4454C43.0843 29.7601 42.7118 30.3802 43.1893 30.6637C43.7512 30.9984 44.4993 30.2263 44.7814 29.7887C44.8209 29.7276 44.7275 29.6558 44.6799 29.707C44.5922 29.7987 44.0172 30.4041 44.4344 30.4435C44.5829 30.4578 44.7325 30.2585 44.8168 30.1599C44.9693 29.9834 45.1009 29.7113 45.2937 29.5802C45.2645 29.553 45.2357 29.5245 45.2064 29.4974C45.1547 29.6898 45.1139 29.8189 45.1848 30.0054C45.1965 30.0355 45.2329 30.0664 45.2658 30.0497C45.5244 29.9215 45.6346 29.6102 45.9077 29.5073C45.8819 29.4827 45.8573 29.4585 45.8319 29.4326C45.8108 29.4926 45.7353 29.6582 45.7056 29.7371C45.6914 29.7746 45.7359 29.8156 45.7681 29.8146C45.8485 29.8107 45.8715 29.8037 45.9277 29.7423C45.8998 29.72 45.8706 29.6972 45.8431 29.6736C45.7845 30.1664 46.3053 29.8297 46.49 29.6931C47.0352 29.2902 47.4727 28.8124 47.6896 28.1378C47.7074 28.084 47.6175 28.0237 47.596 28.0893C47.4284 28.6071 47.0658 29.0123 46.7762 29.4561C46.4628 29.9372 46.1747 30.4355 45.9089 30.9469C45.9356 30.9688 45.9626 30.9895 45.988 31.011C46.1154 30.6253 46.3599 30.3019 46.605 29.9902C46.8117 29.7269 47.0364 29.4594 47.3366 29.3131C47.3121 29.2933 47.288 29.2722 47.2635 29.2524C47.243 29.5425 47.0479 29.7951 46.827 29.9547C46.7896 29.9816 46.8287 30.0673 46.8657 30.0417C47.0601 29.9054 47.3062 29.9229 47.5091 29.7952C47.719 29.6625 47.8866 29.4547 48.0731 29.2895C48.0541 29.2701 48.035 29.2506 48.0159 29.2312C47.8716 29.6723 48.4828 29.1124 48.5596 29.0564C48.541 29.04 48.5207 29.0246 48.5021 29.0082C48.5007 29.1082 48.5188 29.1811 48.6168 29.215C48.8119 29.2812 48.9766 29.0055 49.1347 29.02C49.1359 29.0205 49.1825 29.0999 49.2036 29.1084C49.2907 29.146 49.3571 29.1607 49.4536 29.1403C49.6499 29.0977 49.8343 28.958 49.9775 28.8163C50.0131 28.7816 49.9523 28.7032 49.9117 28.7407C49.7634 28.8807 49.3203 29.2358 49.1689 28.9397C49.1603 28.9223 49.1337 28.9004 49.1141 28.9143C49.0315 28.9713 48.5679 29.2658 48.5706 29.0295C48.5711 29.0005 48.5434 28.9593 48.513 28.9813C48.4396 29.0355 48.3737 29.101 48.3041 29.1609C48.2651 29.193 48.0368 29.404 48.0834 29.274C48.0944 29.2427 48.0564 29.1894 48.0262 29.2157C47.8214 29.3908 47.6317 29.6481 47.3856 29.7629C47.2023 29.8492 46.999 29.8371 46.8282 29.9551C46.8416 29.9842 46.8536 30.013 46.867 30.0421C47.1104 29.8682 47.3292 29.6016 47.3526 29.2834C47.3551 29.2435 47.3165 29.206 47.2795 29.2228C46.9742 29.3719 46.7429 29.6474 46.5333 29.9155C46.2833 30.2343 46.0342 30.5635 45.9044 30.9571C45.8907 30.9976 45.9586 31.0711 45.9835 31.0211C46.271 30.4703 46.5838 29.9322 46.9291 29.4195C47.2082 29.0056 47.5312 28.6252 47.6892 28.1391C47.658 28.123 47.6268 28.1068 47.5956 28.0906C47.4264 28.6181 47.1353 29.0076 46.7269 29.3583C46.6199 29.4494 46.5104 29.5397 46.3975 29.6231C46.3472 29.6603 45.9038 29.9847 45.9396 29.7216C45.9442 29.6838 45.8926 29.6114 45.855 29.6528C45.8163 29.6705 45.7775 29.6882 45.7384 29.7072C45.7596 29.7332 45.7809 29.7592 45.8009 29.7847C45.8398 29.6797 45.8911 29.5847 45.9275 29.4789C45.9417 29.437 45.8875 29.3914 45.8516 29.4042C45.5739 29.5086 45.4624 29.8195 45.2013 29.9468C45.2287 29.9617 45.2549 29.9762 45.2823 29.9911C45.2516 29.8412 45.2604 29.6986 45.309 29.562C45.3218 29.5153 45.2687 29.4482 45.2217 29.4792C45.009 29.6211 44.8671 29.9131 44.6976 30.1043C44.6046 30.2089 44.3028 30.4697 44.479 30.1425C44.5499 30.0103 44.6788 29.8973 44.7806 29.7913C44.7472 29.7642 44.7125 29.7367 44.6791 29.7096C44.4323 30.0906 43.921 30.6239 43.4467 30.6166C42.8414 30.6065 43.1561 29.9207 43.3542 29.6356C43.5836 29.3071 43.8762 29.0083 44.1968 28.777C44.2591 28.7322 44.3235 28.6851 44.3918 28.6524C44.5367 28.5826 44.5768 28.5741 44.7066 28.7132C44.8424 28.8601 44.8259 28.9143 44.7294 29.0758C44.6813 29.1559 44.6169 29.2306 44.5497 29.2913C44.4051 29.4238 44.2298 29.5112 44.0523 29.5833C44.0256 29.5934 44.0372 29.6598 44.0652 29.6502Z" fill="#31302C"/>
<path d="M0.123667 35.0957L4.21701 66.5964C4.40516 68.0431 5.67622 69.1302 7.18143 69.1302H56.2973C57.7941 69.1302 59.061 68.0556 59.2575 66.6173L63.5767 35.1166C63.815 33.3814 62.4227 31.8428 60.6164 31.8428H3.08809C1.2902 31.8386 -0.102115 33.3647 0.123667 35.0957Z" fill="#DAEEF9"/>
<path d="M0.0240571 35.9656L4.11738 67.4663C4.30554 68.913 5.5766 70.0001 7.08181 70.0001H56.1977C57.6945 70.0001 58.9614 68.9255 59.1579 67.4872L63.477 35.9865C63.7154 34.2513 62.3231 32.7127 60.5168 32.7127H2.98848C1.19059 32.7085 -0.201724 34.2388 0.0240571 35.9656Z" fill="#8EBDDB"/>
<path d="M23.4714 44.237C23.182 44.3781 23 44.6769 23 45.0006V49.4244C23 55.9645 26.4654 59.3093 31.676 62.513C31.9489 62.679 32.2963 62.679 32.5692 62.513C37.7798 59.3093 41.2452 55.9728 41.2452 49.4244V45.0006C41.2452 44.6769 41.0632 44.3781 40.7738 44.237L32.503 40.0871C32.2632 39.971 31.982 39.971 31.7421 40.0871L23.4714 44.237Z" fill="#E6007A" stroke="#E6007A" stroke-width="0.7" stroke-miterlimit="10"/>
<path d="M25.1607 45.6255C24.9277 45.7389 24.7812 45.9791 24.7812 46.2393V49.7957C24.7812 55.0535 27.5705 57.7424 31.7644 60.318C31.984 60.4514 32.2636 60.4514 32.4833 60.318C36.6772 57.7424 39.4664 55.0602 39.4664 49.7957V46.2393C39.4664 45.9791 39.32 45.7389 39.087 45.6255L32.43 42.2893C32.237 42.1959 32.0107 42.1959 31.8176 42.2893L25.1607 45.6255Z" fill="#8EBDDB"/>
<path d="M28.7832 50.6443L30.6466 52.8537C31.0461 53.3274 31.7759 53.3274 32.1755 52.8537L35.9033 48.4336" stroke="#E6007A" stroke-width="2" stroke-miterlimit="10" stroke-linecap="round"/>
</svg>