<svg width="93" height="65" viewBox="0 0 93 65" fill="none" xmlns="http://www.w3.org/2000/svg">
<path d="M67.2474 33.7916V20.1533C67.2474 17.6976 65.271 15.711 62.8374 15.711H31.248L25.9704 12.2534H11.4666C8.978 12.2534 6.98463 14.3254 7.05658 16.8279L7.55174 33.7916H67.2474V33.7916Z" fill="#BCDAEF"/>
<path d="M15.2014 30.9763C15.1635 30.8853 15.0952 30.8019 14.9966 30.7336C14.898 30.6653 14.7766 30.6122 14.64 30.5819C14.5035 30.5515 14.3442 30.5439 14.1773 30.5591C14.1621 30.5591 14.1545 30.5591 14.1394 30.5667C14.1242 30.5667 14.1166 30.5667 14.1014 30.5743C14.0863 30.5743 14.0787 30.5819 14.0635 30.5819C14.0483 30.5819 14.0408 30.5895 14.0256 30.5895C14.018 30.5667 14.0028 30.5439 13.9952 30.5288C13.9877 30.506 13.9725 30.4833 13.9649 30.4681C13.9573 30.4453 13.9421 30.4226 13.9346 30.4074C13.927 30.3846 13.9118 30.3695 13.9042 30.3467C13.8966 30.3391 13.889 30.324 13.8815 30.3164C13.8739 30.3012 13.8663 30.286 13.8587 30.2709C13.8511 30.2557 13.8435 30.2405 13.8435 30.2253C13.8435 30.2102 13.8511 30.2026 13.8587 30.195C13.8966 30.1722 13.927 30.1419 13.9573 30.1191C13.9877 30.0964 14.018 30.066 14.0483 30.0357C14.0787 30.0053 14.109 29.9826 14.1318 29.9522C14.1545 29.9219 14.1849 29.8991 14.2076 29.8688C14.2759 29.7929 14.3138 29.7247 14.3518 29.664C14.3821 29.5957 14.4049 29.5274 14.42 29.4668C14.4276 29.3985 14.4276 29.3378 14.42 29.2695C14.4049 29.2088 14.3821 29.1481 14.3442 29.0875C14.329 29.0571 14.3063 29.0344 14.2911 29.004C14.2683 28.9737 14.2532 28.9509 14.2228 28.9206C14.2001 28.8902 14.1773 28.8675 14.147 28.8447C14.1166 28.822 14.0863 28.7992 14.0559 28.7764C14.0408 28.7689 14.0332 28.7613 14.018 28.7613C14.0028 28.7537 13.9952 28.7537 13.9801 28.7537C13.9649 28.7537 13.9573 28.7461 13.9421 28.7461C13.927 28.7461 13.9194 28.7461 13.9042 28.7461C13.8815 28.7461 13.8587 28.7537 13.8435 28.7613C13.8208 28.7689 13.8056 28.7764 13.7828 28.7916C13.7601 28.7992 13.7449 28.8144 13.7297 28.8295C13.7146 28.8447 13.6918 28.8523 13.6766 28.8675C13.6084 28.9206 13.5628 28.9813 13.5173 29.0495C13.4794 29.1102 13.4491 29.1785 13.4339 29.2468C13.4187 29.315 13.4111 29.3833 13.4111 29.444C13.4111 29.5123 13.4263 29.573 13.4415 29.6412C13.4491 29.664 13.4642 29.6867 13.4794 29.7171C13.4946 29.7474 13.5173 29.7778 13.5249 29.8081C13.5401 29.8385 13.5477 29.8688 13.5477 29.8991C13.5477 29.9295 13.5401 29.9522 13.5097 29.975C13.4718 30.0053 13.4263 30.0281 13.3884 30.0584C13.3504 30.0888 13.3049 30.1115 13.267 30.1419C13.2291 30.1722 13.1911 30.2026 13.1456 30.2329C13.1077 30.2633 13.0698 30.2936 13.0318 30.324C12.9636 30.3771 12.8953 30.4377 12.8346 30.4984C12.7815 30.5439 12.7284 30.6046 12.6753 30.6729C12.6222 30.7412 12.5843 30.8019 12.5539 30.8701C12.5236 30.9384 12.5084 31.0067 12.5008 31.0825C12.4932 31.2115 12.5388 31.3405 12.607 31.4467C12.6829 31.5604 12.7967 31.6591 12.9408 31.7349C13.0849 31.8108 13.2518 31.8715 13.4415 31.9094C13.6311 31.9397 13.8435 31.9473 14.0559 31.9246C14.0863 31.9246 14.1242 31.917 14.1545 31.9094C14.1849 31.9018 14.2228 31.9018 14.2532 31.8942C14.2835 31.8866 14.3214 31.8791 14.3518 31.8715C14.3821 31.8639 14.42 31.8563 14.4504 31.8411C14.4807 31.9018 14.5262 31.9701 14.5642 32.0459C14.6097 32.1218 14.6476 32.1977 14.6856 32.2735C14.7159 32.357 14.7387 32.4328 14.7387 32.5163C14.7387 32.5997 14.7159 32.6756 14.6628 32.759C14.64 32.7894 14.6097 32.8197 14.5793 32.85C14.549 32.8804 14.5111 32.9031 14.4731 32.9259C14.4352 32.9487 14.3973 32.9638 14.3518 32.9866C14.3063 33.0018 14.2607 33.0169 14.2076 33.0321C14.2001 33.0321 14.1849 33.0397 14.1773 33.0397C14.1697 33.0397 14.1545 33.0473 14.1394 33.0473C14.1242 33.0473 14.1166 33.0549 14.1014 33.0549C14.0863 33.0549 14.0787 33.0549 14.0635 33.0624C14.0256 33.07 13.9801 33.07 13.9346 33.07C13.889 33.07 13.8511 33.07 13.8132 33.0624C13.7752 33.0549 13.7449 33.0473 13.7146 33.0321C13.6918 33.0169 13.669 32.9942 13.6615 32.9714C13.669 32.9714 13.669 32.9714 13.6766 32.9714C13.6842 32.9714 13.6842 32.9714 13.6918 32.9714C13.6994 32.9714 13.6994 32.9714 13.707 32.9714C13.707 32.9714 13.7146 32.9714 13.7221 32.9714C13.8208 32.9562 13.9042 32.9259 13.9725 32.888C14.0408 32.8425 14.0863 32.7969 14.109 32.7363C14.1318 32.6832 14.1394 32.6225 14.1166 32.5694C14.0939 32.5163 14.0483 32.4632 13.9725 32.4252C13.9497 32.4101 13.927 32.4025 13.8966 32.3949C13.8739 32.3873 13.8435 32.3797 13.8208 32.3797C13.798 32.3797 13.7677 32.3721 13.7449 32.3721C13.7221 32.3721 13.6918 32.3721 13.669 32.3721C13.6084 32.3797 13.5553 32.3949 13.5022 32.4177C13.4491 32.4404 13.396 32.4708 13.358 32.5011C13.3125 32.5314 13.2746 32.5694 13.2518 32.6149C13.2215 32.6528 13.2063 32.6983 13.1987 32.7438C13.1836 32.8197 13.1987 32.8956 13.2442 32.9487C13.2898 33.0093 13.3504 33.0549 13.4339 33.0928C13.5173 33.1231 13.6159 33.1459 13.7146 33.1611C13.8208 33.1686 13.9346 33.1687 14.0483 33.1535C14.1394 33.1459 14.2304 33.1231 14.3138 33.1004C14.3973 33.0776 14.4807 33.0473 14.5566 33.0093C14.6325 32.9714 14.6931 32.9335 14.7462 32.8804C14.7993 32.8349 14.8373 32.7818 14.8676 32.7211C14.898 32.6452 14.9131 32.5694 14.9055 32.5011C14.898 32.4252 14.8828 32.357 14.8524 32.2887C14.8221 32.2204 14.7842 32.1521 14.7538 32.0839C14.7159 32.0156 14.6856 31.9549 14.6552 31.8942C14.64 31.8715 14.6325 31.8487 14.6325 31.8335C14.6249 31.8184 14.6249 31.8108 14.6325 31.7956C14.64 31.788 14.6476 31.7804 14.6628 31.7653C14.678 31.7577 14.7083 31.7425 14.7387 31.7273C14.7614 31.7198 14.7766 31.7046 14.7993 31.697C14.8145 31.6894 14.8373 31.6742 14.8524 31.6667C14.8676 31.6591 14.8904 31.6439 14.9055 31.6287C14.9207 31.6135 14.9359 31.606 14.9586 31.5908C14.989 31.568 15.0193 31.5453 15.0421 31.5225C15.0724 31.4998 15.0952 31.477 15.1179 31.4467C15.1407 31.4239 15.1559 31.3936 15.1786 31.3708C15.1938 31.3405 15.209 31.3177 15.2166 31.2874C15.2469 31.1812 15.2393 31.075 15.2014 30.9763ZM13.6008 29.4592C13.6084 29.4137 13.6235 29.3681 13.6387 29.3302C13.6463 29.3074 13.6615 29.2771 13.6842 29.2468C13.707 29.2164 13.7297 29.1861 13.7601 29.1557C13.7904 29.1254 13.8283 29.095 13.8663 29.0723C13.9042 29.0495 13.9497 29.0344 14.0028 29.0268C14.0104 29.0268 14.018 29.0268 14.0256 29.0268C14.0332 29.0268 14.0408 29.0268 14.0483 29.0268C14.0559 29.0268 14.0635 29.0268 14.0711 29.0268C14.0787 29.0268 14.0863 29.0268 14.1014 29.0344C14.1545 29.0419 14.1849 29.0647 14.2076 29.095C14.2304 29.1254 14.238 29.1557 14.238 29.1861C14.238 29.224 14.2304 29.2543 14.2152 29.2923C14.2001 29.3302 14.1849 29.3605 14.1697 29.3833C14.147 29.4212 14.1166 29.4592 14.0863 29.5047C14.0559 29.5426 14.018 29.5805 13.9801 29.6185C13.9421 29.6564 13.8966 29.6943 13.8511 29.7247C13.8056 29.7626 13.7525 29.7929 13.6994 29.8309C13.6994 29.8309 13.6994 29.8309 13.6918 29.8385C13.6918 29.8385 13.6842 29.8385 13.6842 29.846H13.6766H13.669C13.6463 29.8081 13.6235 29.7626 13.6084 29.7171C13.5932 29.6716 13.5856 29.6336 13.578 29.5881C13.5932 29.5426 13.5932 29.4971 13.6008 29.4592ZM14.4049 31.7425C14.3973 31.7577 14.3821 31.7653 14.3518 31.7729C14.329 31.7804 14.3063 31.788 14.2835 31.788C14.2607 31.7956 14.238 31.7956 14.2076 31.8032C14.1849 31.8108 14.1545 31.8108 14.1318 31.8184C14.109 31.826 14.0787 31.826 14.0559 31.826C13.9801 31.8335 13.8966 31.8411 13.8208 31.8411C13.7449 31.8411 13.669 31.8335 13.5932 31.826C13.5173 31.8184 13.4491 31.8032 13.3808 31.788C13.3125 31.7729 13.2518 31.7501 13.1911 31.7273C13.0167 31.6515 12.918 31.5529 12.8725 31.4467C12.827 31.3405 12.8346 31.2267 12.8801 31.1129C12.9256 30.9991 13.0015 30.8853 13.1001 30.7791C13.1987 30.6729 13.3125 30.5743 13.4339 30.4833C13.4566 30.4681 13.487 30.4453 13.5097 30.4302C13.5325 30.415 13.5628 30.3922 13.5932 30.3771C13.6235 30.3619 13.6463 30.3391 13.6766 30.324C13.707 30.3088 13.7297 30.286 13.7601 30.2709C13.7677 30.286 13.7752 30.3088 13.7828 30.324C13.7904 30.3391 13.798 30.3619 13.8056 30.3771C13.8132 30.3922 13.8208 30.415 13.8283 30.4302C13.8359 30.4453 13.8435 30.4681 13.8511 30.4833C13.8587 30.4984 13.8663 30.5136 13.8739 30.5288C13.8815 30.5439 13.889 30.5591 13.8966 30.5667C13.9042 30.5819 13.9042 30.597 13.8966 30.6046C13.889 30.6198 13.8739 30.6274 13.8511 30.635C13.8132 30.6501 13.7677 30.6729 13.7297 30.6881C13.6918 30.7108 13.6539 30.726 13.6235 30.7488C13.5932 30.7715 13.5628 30.7943 13.5325 30.817C13.5022 30.8398 13.4794 30.8701 13.4566 30.8929C13.4111 30.946 13.3808 30.9991 13.3656 31.0598C13.3504 31.1129 13.3504 31.1736 13.3656 31.2267C13.3808 31.2798 13.4111 31.3329 13.4491 31.3784C13.4946 31.4239 13.5477 31.4694 13.6235 31.4998C13.6311 31.4998 13.6539 31.5073 13.6766 31.5225C13.707 31.5301 13.7449 31.5453 13.7828 31.5529C13.8208 31.5604 13.8587 31.5756 13.8966 31.5832C13.9346 31.5908 13.9649 31.5908 13.9952 31.5908C14.0028 31.5908 14.0104 31.5908 14.0104 31.5908C14.018 31.5908 14.018 31.5908 14.0256 31.5832L14.0332 31.5756C14.0332 31.5756 14.0332 31.568 14.0332 31.5604C14.0332 31.5529 14.018 31.5377 13.9877 31.5301C13.9573 31.5149 13.9194 31.5073 13.8815 31.4922C13.8435 31.477 13.8056 31.4694 13.7677 31.4542C13.7373 31.4391 13.707 31.4315 13.6994 31.4239C13.6463 31.3784 13.6159 31.3253 13.6159 31.2722C13.6159 31.2191 13.6311 31.166 13.669 31.1129C13.707 31.0598 13.7601 31.0143 13.8208 30.9688C13.8815 30.9308 13.9573 30.8929 14.0408 30.8701C14.0559 30.9081 14.0711 30.946 14.0939 30.9763C14.109 31.0143 14.1242 31.0522 14.147 31.0901C14.1621 31.1281 14.1773 31.166 14.2001 31.2039C14.2152 31.2418 14.238 31.2798 14.2532 31.3177C14.2607 31.3405 14.2759 31.3632 14.2835 31.3784C14.2911 31.4011 14.3063 31.4239 14.3138 31.4391C14.3214 31.4618 14.3366 31.4846 14.3442 31.4998C14.3518 31.5225 14.3669 31.5453 14.3745 31.568C14.3821 31.5832 14.3897 31.5984 14.4049 31.6211C14.4125 31.6363 14.4276 31.6515 14.4352 31.6742C14.4125 31.7122 14.4125 31.7273 14.4049 31.7425ZM14.898 31.4239C14.8676 31.477 14.8221 31.5301 14.7614 31.5756C14.7007 31.6211 14.6325 31.6667 14.5566 31.7046C14.5187 31.6287 14.4883 31.5604 14.4504 31.4846C14.42 31.4163 14.3821 31.3405 14.3518 31.2722C14.3214 31.2039 14.2835 31.1356 14.2532 31.0674C14.2228 30.9991 14.1925 30.9308 14.1545 30.8625C14.1545 30.8625 14.1545 30.8625 14.1621 30.8625H14.1697H14.1773C14.2001 30.8625 14.2304 30.8625 14.2683 30.8625C14.3063 30.8625 14.3518 30.8701 14.3897 30.8701C14.4352 30.8777 14.4731 30.8777 14.5035 30.8853C14.5338 30.8929 14.5566 30.8929 14.5642 30.8929C14.6021 30.9005 14.6325 30.9157 14.6628 30.9308C14.6931 30.946 14.7235 30.9612 14.7538 30.9763C14.7842 30.9915 14.8069 31.0143 14.8297 31.037C14.8524 31.0598 14.8676 31.0825 14.8828 31.1053C14.9131 31.1584 14.9283 31.2115 14.9283 31.2646C14.9511 31.3177 14.9283 31.3708 14.898 31.4239Z" fill="#BCDAEF"/>
<path d="M16.3909 30.5892C16.3909 30.5741 16.3833 30.5589 16.3757 30.5513C16.3681 30.5361 16.3453 30.521 16.3302 30.5058C16.3074 30.4906 16.2847 30.483 16.2619 30.4679C16.2316 30.4603 16.2088 30.4527 16.1709 30.4451C16.1405 30.4451 16.1026 30.4451 16.0723 30.4451C16.0647 30.4451 16.0571 30.4451 16.0495 30.4451C16.0419 30.4451 16.0343 30.4451 16.0267 30.4527C16.0192 30.4527 16.0116 30.4527 16.004 30.4603C15.9964 30.4603 15.9888 30.4679 15.9812 30.4679C15.9661 30.4755 15.9509 30.4755 15.9357 30.483C15.9205 30.4906 15.9054 30.4982 15.8902 30.4982C15.875 30.5058 15.8674 30.5134 15.8523 30.521C15.8371 30.5286 15.8295 30.5361 15.8143 30.5437C15.8143 30.5437 15.8143 30.5437 15.8067 30.5437C15.8067 30.5437 15.8067 30.5437 15.7992 30.5437C15.7992 30.5437 15.7992 30.5437 15.7916 30.5437C15.7764 30.4755 15.7612 30.4148 15.7536 30.3465C15.7385 30.2858 15.7309 30.2175 15.7157 30.1568C15.7005 30.0962 15.693 30.0355 15.6778 29.9748C15.6626 29.9141 15.655 29.8534 15.6399 29.7927C15.6323 29.7927 15.6247 29.7927 15.6171 29.7927C15.6095 29.7927 15.6019 29.7927 15.5943 29.7927C15.5868 29.7927 15.5792 29.7927 15.5716 29.7927C15.564 29.7927 15.5564 29.7927 15.5488 29.7927C15.5716 29.8989 15.5868 29.9975 15.6095 30.1037C15.6323 30.2099 15.655 30.3161 15.6778 30.4299C15.7005 30.5437 15.7233 30.6575 15.7461 30.7713C15.7688 30.8851 15.7916 31.0065 15.8143 31.1202C15.8219 31.1202 15.8219 31.1203 15.8219 31.1127L15.8295 31.1051L15.8371 31.0975L15.8447 31.0899C15.8598 31.0747 15.8826 31.0596 15.9054 31.0368C15.9281 31.0216 15.9433 31.0065 15.9661 30.9837C15.9888 30.9685 16.004 30.9534 16.0267 30.9382C16.0495 30.923 16.0723 30.9078 16.095 30.8927C16.1178 30.8775 16.1481 30.8547 16.1709 30.8396C16.1936 30.8244 16.224 30.8016 16.2467 30.7865C16.2695 30.7713 16.2922 30.7485 16.315 30.7334C16.3378 30.7106 16.3529 30.6954 16.3681 30.6727C16.3757 30.6651 16.3833 30.6499 16.3909 30.6348C16.3984 30.6196 16.3984 30.612 16.406 30.5968C16.3909 30.612 16.3984 30.5968 16.3909 30.5892ZM16.1405 30.6879C16.1405 30.6954 16.1329 30.703 16.1329 30.7182C16.1329 30.7258 16.1254 30.7334 16.1178 30.741C16.1026 30.7637 16.095 30.7865 16.0798 30.8016C16.0647 30.8244 16.0495 30.8396 16.0267 30.8623C16.0116 30.8851 15.9888 30.9003 15.9661 30.923C15.9433 30.9382 15.9281 30.9609 15.9054 30.9761C15.9054 30.9761 15.9054 30.9761 15.8978 30.9837C15.8978 30.9837 15.8978 30.9837 15.8902 30.9913C15.8902 30.9913 15.8902 30.9913 15.8826 30.9989H15.875C15.8674 30.9761 15.8674 30.9534 15.8598 30.9306C15.8674 30.9003 15.8674 30.8775 15.8598 30.8547C15.8523 30.832 15.8523 30.8092 15.8447 30.7865C15.8371 30.7637 15.8371 30.741 15.8295 30.7182C15.8295 30.7106 15.8295 30.703 15.8219 30.6954C15.8219 30.6879 15.8143 30.6803 15.8143 30.6727C15.8143 30.6651 15.8143 30.6575 15.8067 30.6499C15.8067 30.6423 15.8067 30.6348 15.8067 30.6272C15.8067 30.6196 15.8143 30.612 15.8219 30.6044C15.8295 30.5968 15.8371 30.5892 15.8523 30.5817C15.8598 30.5741 15.875 30.5665 15.8902 30.5589C15.9054 30.5513 15.9129 30.5437 15.9205 30.5437C15.9281 30.5437 15.9281 30.5437 15.9357 30.5361C15.9357 30.5361 15.9433 30.5361 15.9509 30.5361C15.9509 30.5361 15.9585 30.5361 15.9661 30.5361H15.9736C15.9964 30.5361 16.0116 30.5361 16.0343 30.5361C16.0495 30.5361 16.0723 30.5437 16.0874 30.5589C16.1026 30.5665 16.1178 30.5817 16.1254 30.5892C16.1329 30.6044 16.1405 30.612 16.1481 30.6272C16.1481 30.6348 16.1481 30.6499 16.1481 30.6575C16.1481 30.6651 16.1405 30.6727 16.1405 30.6879Z" fill="#BCDAEF"/>
<path fill-rule="evenodd" clip-rule="evenodd" d="M72.0271 15.8274C72.0802 15.797 72.1409 15.7667 72.194 15.7363C72.3305 15.9942 72.4671 16.2522 72.6036 16.5101C72.6947 16.4494 72.7705 16.3811 72.854 16.3204C72.9298 16.457 72.9981 16.6011 73.074 16.7377C72.9905 16.8059 72.9071 16.8666 72.8236 16.9349C72.9298 17.1321 73.0284 17.3294 73.1346 17.5266C73.2181 17.4735 73.3015 17.39 73.3926 17.3369C73.4684 17.4811 73.5443 17.6252 73.6201 17.7693C73.5367 17.8376 73.4532 17.8983 73.3698 17.9666C73.5063 18.2245 73.6429 18.49 73.7794 18.7479C73.7187 18.7783 73.6581 18.8162 73.5974 18.8389C73.4684 18.5886 73.3395 18.3459 73.2029 18.0955C73.0815 18.1866 72.9677 18.2776 72.8464 18.3686C72.9905 18.6417 73.1271 18.9072 73.2712 19.1803C73.2257 19.2107 73.1498 19.2486 73.0967 19.2713C72.9602 19.0134 72.8236 18.7555 72.6871 18.4976C72.6036 18.5583 72.5126 18.6341 72.4367 18.6872C72.3609 18.5431 72.285 18.399 72.2092 18.2548C72.2926 18.1866 72.3761 18.1259 72.4595 18.0576C72.3533 17.8604 72.2471 17.6631 72.1485 17.4659C72.0574 17.5266 71.9892 17.5949 71.8906 17.6556C71.8147 17.519 71.7464 17.3749 71.6706 17.2383C71.7464 17.1701 71.8375 17.1094 71.9209 17.0411C71.7768 16.768 71.6402 16.5025 71.4961 16.2294C71.5416 16.1991 71.6175 16.1611 71.6706 16.1384C71.8071 16.3963 71.9437 16.6542 72.0802 16.9121C72.2016 16.8211 72.3154 16.7301 72.4367 16.639C72.3002 16.3735 72.1561 16.108 72.0195 15.8425C72.0271 15.8349 72.0271 15.8274 72.0271 15.8274ZM72.3154 17.3369C72.4216 17.5342 72.5202 17.7314 72.6264 17.9286C72.7478 17.8376 72.8615 17.7466 72.9829 17.6556C72.8919 17.4811 72.7933 17.299 72.7098 17.1321C72.6947 17.1094 72.6871 17.079 72.6643 17.0639C72.5429 17.1549 72.4292 17.2459 72.3154 17.3369Z" fill="#BCDAEF"/>
<path fill-rule="evenodd" clip-rule="evenodd" d="M27.7645 27.6081C27.8024 27.6081 27.8403 27.6005 27.8707 27.6081C27.8934 27.9115 28.03 28.0708 28.1969 28.1998C28.3637 28.3288 28.5306 28.4653 28.6823 28.617C28.8341 28.7687 28.9706 28.9432 29.0541 29.1632C29.1299 29.368 29.1451 29.6259 29.1147 29.8535C29.1072 29.8839 29.092 29.9218 29.0996 29.9446C29.0996 29.9673 29.1223 29.9901 29.1375 30.0204C29.2209 30.1873 29.274 30.4149 29.2513 30.6652C29.2361 30.8473 29.1906 31.0142 29.1223 31.1583C29.1072 31.1962 29.0768 31.2948 29.0161 31.2645C28.9934 31.2569 29.0161 31.2342 29.0313 31.2038C29.1375 30.9686 29.2058 30.6197 29.1147 30.2859C29.0313 29.9673 28.7582 29.8156 28.5155 29.6866C28.341 29.5956 28.1741 29.5122 27.9996 29.4135C28.0375 29.9901 28.0755 30.5287 28.1134 31.1128C28.1286 31.31 28.1513 31.4997 28.0982 31.6286C28.0072 31.8789 27.7796 32.0762 27.5065 32.1748C27.1803 32.2886 26.8086 32.1976 26.7859 31.8562C26.7783 31.7272 26.8314 31.6059 26.8921 31.5148C27.0059 31.3328 27.1879 31.181 27.4079 31.0976C27.5976 31.0293 27.8631 31.0293 27.9996 31.1204C27.9162 29.9521 27.8403 28.7839 27.7569 27.6157C27.7569 27.6157 27.7569 27.6081 27.7645 27.6081ZM28.3941 29.2391C28.6065 29.4135 28.8265 29.5728 28.9934 29.7853C29.001 29.8004 29.0161 29.8308 29.0237 29.8156C29.0541 29.3832 28.872 29.1253 28.6748 28.9205C28.4699 28.7156 28.2044 28.5715 27.9465 28.4426C27.9389 28.4426 27.9389 28.4426 27.9313 28.4426C27.9844 28.8067 28.1741 29.0646 28.3941 29.2391Z" fill="#BCDAEF"/>
<path d="M57.0558 22.1919C57.0482 22.1615 57.0331 22.1236 57.0331 22.1084C57.0331 22.0857 57.0634 22.0477 57.071 22.0174C57.162 21.7822 57.2076 21.5167 57.1848 21.2816C57.1545 21.0388 57.0558 20.8188 56.9345 20.6216C56.8207 20.4319 56.6765 20.2499 56.5324 20.0678C56.4262 19.9389 56.3503 19.8023 56.3352 19.6127L56.3579 19.4761L56.229 19.4534L55.5993 23.2008C55.44 23.0036 55.0911 22.9353 54.7421 23.0491C54.3173 23.1856 54.0518 23.527 54.1429 23.8228C54.2339 24.1111 54.6511 24.24 55.0759 24.1035C55.4552 23.9821 55.7056 23.7015 55.6904 23.4359L56.0469 21.3119C56.191 21.4409 56.3352 21.5622 56.4869 21.6988C56.7069 21.896 56.9496 22.116 56.9648 22.4725C56.98 22.8442 56.8207 23.1856 56.6538 23.4056C56.631 23.4359 56.6083 23.4511 56.6234 23.4663C56.6841 23.5042 56.7372 23.4132 56.76 23.3828C56.8662 23.2387 56.9572 23.087 57.0179 22.8974C57.1013 22.6394 57.1014 22.3891 57.0558 22.1919ZM56.9951 21.9643C56.98 21.9795 56.98 21.9415 56.9724 21.9264C56.851 21.6609 56.6614 21.4409 56.4869 21.2057C56.3352 21.0085 56.2214 20.7657 56.1986 20.4699L56.229 20.2802C56.4565 20.4775 56.6993 20.6899 56.851 20.9478C57.0027 21.2057 57.1317 21.5243 56.9951 21.9643Z" fill="#BCDAEF"/>
<path d="M89.7107 9.37192C89.6652 9.31882 89.5894 9.2733 89.5742 9.2202C89.5514 9.1671 89.5666 9.06848 89.5514 8.99262C89.468 8.4161 89.248 7.83199 88.9218 7.39959C88.5804 6.95203 88.1253 6.63342 87.6625 6.38309C87.215 6.14034 86.7143 5.93552 86.2364 5.74587C85.8799 5.60933 85.5689 5.41968 85.3185 5.07832L85.2047 4.78247L84.9316 4.88867L87.9887 13.0586C87.4501 12.8538 86.6764 13.1193 86.0999 13.749C85.4096 14.5 85.273 15.4937 85.7888 15.9716C86.3047 16.4419 87.2833 16.2144 87.9736 15.4634C88.5804 14.7958 88.7625 13.9386 88.4287 13.4228L86.6916 8.7878C87.1391 8.87883 87.5639 8.95469 88.0039 9.04572C88.6791 9.18227 89.4149 9.34916 89.8397 10.0395C90.2873 10.7601 90.3783 11.6325 90.2873 12.2545C90.2721 12.338 90.2493 12.3987 90.3024 12.4063C90.4693 12.4214 90.4617 12.1711 90.4769 12.0801C90.5224 11.678 90.5224 11.2608 90.4314 10.8208C90.3024 10.1988 90.0217 9.70569 89.7107 9.37192ZM89.3163 8.99262C89.3011 9.03055 89.2556 8.96228 89.2252 8.93952C88.6866 8.55264 88.0494 8.33265 87.435 8.06715C86.9115 7.84716 86.3957 7.49821 86.0164 6.93686L85.8647 6.52722C86.5474 6.65618 87.2605 6.80031 87.8674 7.13409C88.4742 7.46787 89.0887 7.94577 89.3163 8.99262Z" fill="#BCDAEF"/>
<path d="M64.6233 28.8903C64.6309 28.9206 64.6461 28.9586 64.6461 28.9813C64.6461 29.0117 64.6158 29.0496 64.6006 29.0799C64.502 29.3379 64.4489 29.6337 64.4792 29.884C64.5096 30.1495 64.6234 30.3923 64.7523 30.6047C64.8813 30.8171 65.0406 31.0143 65.1923 31.2116C65.3061 31.3557 65.3895 31.5074 65.4123 31.7047L65.3895 31.8564L65.5261 31.8791L66.2164 27.7676C66.3909 27.98 66.7777 28.0558 67.157 27.9345C67.6198 27.7903 67.9156 27.4111 67.817 27.0924C67.7184 26.7738 67.2556 26.6373 66.7929 26.7814C66.3833 26.9104 66.1026 27.2214 66.1178 27.5173L65.7309 29.8461C65.5716 29.702 65.4123 29.5654 65.253 29.4289C65.0102 29.2089 64.7447 28.9662 64.7296 28.5793C64.7144 28.1696 64.8889 27.7903 65.0709 27.5552C65.0937 27.5248 65.124 27.5021 65.1013 27.4869C65.033 27.4414 64.9799 27.5476 64.9495 27.5779C64.8358 27.7297 64.7371 27.9041 64.6689 28.109C64.5703 28.4048 64.5702 28.6779 64.6233 28.8903ZM64.6916 29.1406C64.7068 29.1255 64.7144 29.171 64.722 29.1861C64.8509 29.4744 65.0633 29.7172 65.253 29.9751C65.4199 30.1951 65.5488 30.4606 65.5716 30.7792L65.5337 30.984C65.2833 30.764 65.0178 30.5364 64.8509 30.2558C64.6765 29.9751 64.5399 29.6261 64.6916 29.1406Z" fill="#BCDAEF"/>
<path d="M41.4788 32.1067C41.4863 32.1295 41.5015 32.1598 41.4939 32.1826C41.4939 32.2053 41.4712 32.2357 41.456 32.2584C41.3801 32.4557 41.3346 32.6832 41.365 32.8805C41.3877 33.0853 41.4788 33.2749 41.5774 33.4342C41.676 33.5935 41.7974 33.7528 41.9187 33.9046C42.0098 34.0108 42.0705 34.1321 42.0856 34.2838L42.0629 34.3976L42.1691 34.4128L42.7001 31.2343C42.8366 31.4012 43.1325 31.4543 43.4283 31.3633C43.7849 31.2495 44.0124 30.9537 43.9366 30.7109C43.8607 30.4606 43.5042 30.3544 43.1476 30.4682C42.829 30.5668 42.6166 30.8095 42.6242 31.0371L42.3208 32.8349C42.1918 32.7212 42.0705 32.6225 41.9491 32.5088C41.7594 32.3419 41.5546 32.1522 41.547 31.8564C41.5394 31.5454 41.6684 31.2495 41.8125 31.0674C41.8277 31.0447 41.8505 31.0295 41.8353 31.0143C41.7822 30.9764 41.7443 31.0599 41.7215 31.0902C41.6305 31.2116 41.5546 31.3405 41.5015 31.4998C41.4408 31.735 41.4408 31.9398 41.4788 32.1067ZM41.5319 32.2964C41.547 32.2888 41.547 32.3191 41.5546 32.3267C41.6532 32.5543 41.8201 32.7363 41.9643 32.9336C42.0932 33.1005 42.1918 33.3053 42.207 33.5556L42.1767 33.7149C41.9794 33.548 41.7822 33.3735 41.6456 33.1536C41.5167 32.9411 41.4105 32.6756 41.5319 32.2964Z" fill="#BCDAEF"/>
<path d="M36.3035 28.8828L36.8876 25.3933L36.7814 25.3782L36.2276 28.6856C36.0911 28.5187 35.7952 28.4656 35.4994 28.5566C35.1429 28.6704 34.9153 28.9587 34.9911 29.209C35.067 29.4594 35.4235 29.5656 35.7801 29.4518C36.0987 29.3456 36.3111 29.1028 36.3035 28.8828Z" fill="#BCDAEF"/>
<path d="M34.6934 28.4732L36.6809 28.4277V28.5719L34.7009 28.6098L34.6934 28.4732Z" fill="#BCDAEF"/>
<path d="M34.791 27.8812L36.7785 27.8357V27.9798L34.7986 28.0253L34.791 27.8812Z" fill="#BCDAEF"/>
<path d="M22.0633 30.5061L21.6537 27.0317L21.5778 27.0393L21.9723 30.3847C21.8509 30.3012 21.6385 30.3164 21.4565 30.4378C21.2365 30.5819 21.1379 30.8247 21.2441 30.9764C21.3427 31.1281 21.6082 31.1281 21.8282 30.984C22.0178 30.8626 22.1164 30.6578 22.0633 30.5061Z" fill="#BCDAEF"/>
<path d="M25.3778 29.8308L24.9681 26.3564L24.8923 26.364L25.2868 29.7094C25.1654 29.626 24.953 29.6411 24.7709 29.7625C24.5509 29.9066 24.4523 30.1494 24.5585 30.3011C24.6571 30.4528 24.9226 30.4528 25.1426 30.3087C25.3323 30.1873 25.4309 29.9825 25.3778 29.8308Z" fill="#BCDAEF"/>
<path d="M23.0807 28.9584L22.8303 26.8799L22.7545 26.8875L22.9821 28.8446C22.8607 28.7612 22.6483 28.7763 22.4662 28.8977C22.2462 29.0419 22.1476 29.2846 22.2538 29.4363C22.3524 29.588 22.6179 29.588 22.8379 29.4439C23.0276 29.3149 23.1262 29.1101 23.0807 28.9584Z" fill="#BCDAEF"/>
<path d="M24.2704 28.3669L24.0731 26.6829L23.9973 26.6904L24.1793 28.2455C24.058 28.1621 23.8456 28.1773 23.6635 28.2986C23.4435 28.4428 23.3449 28.6855 23.4511 28.8372C23.5497 28.989 23.8152 28.989 24.0352 28.8448C24.2248 28.7235 24.3235 28.5186 24.2704 28.3669Z" fill="#BCDAEF"/>
<path d="M21.5918 27.0392L24.9144 26.3564L24.9675 26.6068L21.6373 27.2895L21.5918 27.0392Z" fill="#BCDAEF"/>
<path d="M21.6309 27.5553L22.8749 27.2822L22.928 27.525L21.684 27.7981L21.6309 27.5553Z" fill="#BCDAEF"/>
<path d="M21.0605 30.8931L22.3957 30.4758L22.426 30.5669L21.0833 30.9917L21.0605 30.8931Z" fill="#BCDAEF"/>
<path d="M18.7001 27.5173L18.996 25.7573L18.9429 25.7498L18.6622 27.4186C18.5939 27.3352 18.4346 27.3049 18.2829 27.3504C18.0932 27.4111 17.9719 27.5628 18.0174 27.6917C18.0553 27.8207 18.245 27.8814 18.4346 27.8207C18.5939 27.7676 18.7077 27.6386 18.7001 27.5173Z" fill="#BCDAEF"/>
<path d="M19.6083 27.0622L19.8131 25.8181L19.76 25.8105L19.5704 26.9636C19.5021 26.8802 19.3428 26.8498 19.1911 26.8953C19.0015 26.956 18.8801 27.1077 18.9256 27.2367C18.9635 27.3656 19.1532 27.4263 19.3428 27.3656C19.5021 27.305 19.6159 27.176 19.6083 27.0622Z" fill="#BCDAEF"/>
<path d="M17.614 28.1849L18.0463 25.6133L17.9932 25.6057L17.576 28.0787C17.5077 27.9953 17.3484 27.9649 17.1891 28.0104C16.9995 28.0711 16.8781 28.2228 16.9236 28.3518C16.9616 28.4808 17.1512 28.5414 17.3409 28.4808C17.5077 28.4277 17.614 28.2987 17.614 28.1849Z" fill="#BCDAEF"/>
<path d="M73.856 26.5312L73.196 20.2122L73.0063 20.2349L73.6284 26.2353C73.3174 26.0153 72.7788 26.0533 72.3085 26.3643C71.7395 26.7284 71.4892 27.3429 71.7395 27.7373C71.9898 28.1242 72.6574 28.147 73.2263 27.7753C73.727 27.4339 73.9849 26.9181 73.856 26.5312Z" fill="#BCDAEF"/>
<path d="M76.3651 19.666L73.3383 11.2913L73.1562 11.3595L76.0692 19.4233C75.7127 19.2868 75.1968 19.4536 74.8176 19.8633C74.3548 20.3564 74.2562 21.0163 74.5976 21.3274C74.9389 21.646 75.5837 21.5018 76.0465 21.0087C76.4561 20.5764 76.5775 20.015 76.3651 19.666Z" fill="#BCDAEF"/>
<path d="M84.1932 16.4649L81.1664 8.09009L80.9844 8.15836L83.8973 16.2221C83.5408 16.0856 83.025 16.2525 82.6457 16.6621C82.1829 17.1552 82.0843 17.8152 82.4257 18.1262C82.7671 18.4448 83.4119 18.3007 83.8746 17.8076C84.2842 17.3752 84.4056 16.8062 84.1932 16.4649Z" fill="#BCDAEF"/>
<path d="M77.9502 15.5546L76.1371 10.5327L75.9551 10.601L77.6619 15.3118C77.3054 15.1753 76.7895 15.3422 76.4102 15.7518C75.9475 16.2449 75.8489 16.9048 76.1902 17.2159C76.5316 17.5345 77.1764 17.3903 77.6391 16.8973C78.0412 16.4649 78.1626 15.9035 77.9502 15.5546Z" fill="#BCDAEF"/>
<path d="M80.6974 13.5745L79.2257 9.51611L79.0437 9.58439L80.4015 13.3394C80.045 13.2028 79.5292 13.3697 79.1499 13.7794C78.6871 14.2724 78.5885 14.9324 78.9299 15.2434C79.2712 15.562 79.916 15.4179 80.3788 14.9248C80.7884 14.4773 80.9098 13.9159 80.6974 13.5745Z" fill="#BCDAEF"/>
<path d="M73.521 12.2927L73.1797 11.3293L81.0007 7.65771L81.3041 8.56802L73.521 12.2927Z" fill="#BCDAEF"/>
<path d="M74.0521 13.6884L73.7031 12.725L81.5241 9.05347L81.8352 9.96377L74.0521 13.6884Z" fill="#BCDAEF"/>
<path d="M39.1823 28.0863L38.5451 25.3022L38.4616 25.325L39.0685 27.9649C38.9168 27.8814 38.6816 27.9345 38.4844 28.0938C38.2492 28.2911 38.1734 28.5793 38.3099 28.7386C38.4464 28.8979 38.7423 28.8676 38.9699 28.678C39.1747 28.4959 39.2657 28.2531 39.1823 28.0863Z" fill="#BCDAEF"/>
<path d="M47.6443 25.8483L46.9237 21.3499L46.8251 21.365L47.5154 25.6966C47.3485 25.5903 47.0754 25.6283 46.8402 25.7952C46.5596 26 46.4458 26.3186 46.5899 26.5082C46.7264 26.6979 47.0678 26.6903 47.3485 26.4855C47.5988 26.311 47.7202 26.0379 47.6443 25.8483Z" fill="#BCDAEF"/>
<path d="M51.8846 24.9835L51.1639 20.4851L51.0653 20.5003L51.7556 24.8318C51.5887 24.7256 51.3156 24.7635 51.0805 24.9304C50.7998 25.1352 50.686 25.4538 50.8301 25.6435C50.9667 25.8331 51.308 25.8256 51.5887 25.6207C51.8466 25.4538 51.9604 25.1808 51.8846 24.9835Z" fill="#BCDAEF"/>
<path d="M48.8357 23.9291L48.4033 21.2361L48.3047 21.2513L48.7068 23.7849C48.5399 23.6787 48.2668 23.7167 48.0316 23.8835C47.751 24.0884 47.6372 24.407 47.7813 24.5966C47.9179 24.7863 48.2592 24.7787 48.5399 24.5739C48.7902 24.3994 48.9116 24.1263 48.8357 23.9291Z" fill="#BCDAEF"/>
<path d="M50.4063 23.1933L50.0573 21.0085L49.9587 21.0237L50.2849 23.0416C50.118 22.9354 49.8449 22.9733 49.6098 23.1402C49.3291 23.345 49.2153 23.6636 49.3594 23.8532C49.496 24.0429 49.8373 24.0353 50.118 23.8305C50.3608 23.6636 50.4821 23.3905 50.4063 23.1933Z" fill="#BCDAEF"/>
<path d="M46.9233 21.8658L46.8398 21.3499L51.1259 20.25L51.1865 20.7431L46.9233 21.8658Z" fill="#BCDAEF"/>
<path d="M47.0522 22.6165L46.9688 22.1007L51.2548 21.0007L51.323 21.4938L47.0522 22.6165Z" fill="#BCDAEF"/>
<path d="M66.6787 21.7672L67.4524 17.1702L67.3159 17.1475L66.5877 21.5169C66.4132 21.3121 66.0415 21.2362 65.6622 21.3576C65.207 21.5017 64.9188 21.8735 65.0174 22.1845C65.116 22.4955 65.5636 22.632 66.0187 22.4879C66.4208 22.3589 66.6939 22.0555 66.6787 21.7672Z" fill="#BCDAEF"/>
<path d="M65.1988 22.1314C65.1533 22.0024 65.3961 21.8052 65.7374 21.6914C66.0788 21.5776 66.3898 21.5928 66.4353 21.7217C66.4809 21.8507 66.2381 22.0479 65.8967 22.1617C65.5478 22.2831 65.2368 22.2679 65.1988 22.1314Z" fill="#BCDAEF"/>
<path d="M60.5735 23.1048L60.4668 23.7407L61.6264 23.9353L61.7331 23.2994L60.5735 23.1048Z" fill="#BCDAEF"/>
<path d="M57.9257 26.4183L58.6918 21.8516L58.5629 21.8289L57.8346 26.1756C57.6753 25.9783 57.3188 25.91 56.9623 26.0238C56.5375 26.1604 56.2644 26.5093 56.3554 26.7976C56.4464 27.0934 56.8712 27.2224 57.296 27.0859C57.6829 26.9721 57.9408 26.6838 57.9257 26.4183Z" fill="#BCDAEF"/>
<path d="M63.3651 27.3961L64.1541 22.7005L64.0251 22.6777L63.2741 27.161C63.1148 26.9637 62.7583 26.8955 62.4017 27.0093C61.9769 27.1458 61.7038 27.4948 61.7949 27.783C61.8859 28.0789 62.3107 28.2078 62.7355 28.0713C63.1224 27.9499 63.3803 27.6616 63.3651 27.3961Z" fill="#BCDAEF"/>
<path d="M61.4298 25.5755L61.9608 22.4046L61.8319 22.3818L61.3388 25.3403C61.1795 25.1431 60.8229 25.0748 60.474 25.1886C60.0492 25.3252 59.7761 25.6741 59.8671 25.9624C59.9581 26.2582 60.383 26.3872 60.8078 26.2506C61.1871 26.1368 61.445 25.8486 61.4298 25.5755Z" fill="#BCDAEF"/>
<path d="M58.5734 21.7721L58.4668 22.408L64.0478 23.3434L64.1543 22.7075L58.5734 21.7721Z" fill="#BCDAEF"/>
<path d="M28.5375 26.5843L27.6955 24.3237L27.6348 24.3465L28.4389 26.5009C28.3175 26.4554 28.1354 26.516 28.0065 26.6602C27.8472 26.8347 27.8168 27.0622 27.9382 27.1684C28.0596 27.2746 28.2796 27.2215 28.4389 27.0546C28.5754 26.8953 28.6133 26.6981 28.5375 26.5843Z" fill="#BCDAEF"/>
<path d="M31.2595 25.6438L30.3947 23.3225L30.334 23.3453L31.1608 25.5603C31.0395 25.5148 30.8574 25.5755 30.7284 25.7196C30.5691 25.8941 30.5388 26.1217 30.6602 26.2279C30.7816 26.3341 31.0015 26.281 31.1608 26.1141C31.2974 25.9548 31.3353 25.7576 31.2595 25.6438Z" fill="#BCDAEF"/>
<path d="M32.7091 25.8256C32.6788 25.8939 32.6333 25.9697 32.5878 26.0304C32.4436 26.2353 32.2388 26.4021 31.9961 26.4932C31.8216 26.5614 31.5409 26.5842 31.3209 26.5311C31.1009 26.4856 30.9492 26.387 30.9492 26.387C30.9492 26.387 31.1161 26.4552 31.3285 26.478C31.5485 26.5008 31.7988 26.4477 31.9581 26.387C32.1781 26.3111 32.3905 26.1821 32.5574 26.0077C32.6105 25.9546 32.656 25.8863 32.7091 25.8256C32.7167 25.7953 32.7471 25.7498 32.7471 25.7498C32.7471 25.7498 32.7243 25.8029 32.7091 25.8256Z" fill="#BCDAEF"/>
<path d="M30.404 23.3158L27.6387 24.3457L27.7552 24.6585L30.5205 23.6286L30.404 23.3158Z" fill="#BCDAEF"/>
<path d="M30.5426 23.8104L29.9668 24.0249L30.0833 24.3377L30.6591 24.1232L30.5426 23.8104Z" fill="#BCDAEF"/>
<path d="M33.8298 22.5908L33.2539 22.8049L33.3702 23.1178L33.9461 22.9036L33.8298 22.5908Z" fill="#BCDAEF"/>
<path d="M32.9222 24.9913L32.0802 22.7307L32.0195 22.7535L32.8236 24.9079C32.7023 24.8623 32.5202 24.923 32.3912 25.0672C32.2319 25.2416 32.2016 25.4692 32.323 25.5754C32.4443 25.6816 32.6643 25.6285 32.8236 25.4616C32.9602 25.3023 32.9981 25.1051 32.9222 24.9913Z" fill="#BCDAEF"/>
<path d="M35.6306 24.0127L34.7658 21.6914L34.7051 21.7142L35.5319 23.9292C35.4106 23.8837 35.2285 23.9444 35.0995 24.0885C34.9402 24.263 34.9099 24.4906 35.0313 24.5968C35.1526 24.703 35.3726 24.6499 35.5319 24.483C35.6685 24.3313 35.7064 24.1341 35.6306 24.0127Z" fill="#BCDAEF"/>
<path d="M34.2869 23.7016L33.7028 22.1313L33.6421 22.1541L34.1883 23.6182C34.0669 23.5727 33.8849 23.6333 33.7559 23.7775C33.5966 23.952 33.5663 24.1795 33.6876 24.2857C33.809 24.3919 34.029 24.3388 34.1883 24.1719C34.3248 24.0126 34.3628 23.8154 34.2869 23.7016Z" fill="#BCDAEF"/>
<path d="M34.7731 21.6953L32.0078 22.7249L32.1243 23.0376L34.8896 22.0081L34.7731 21.6953Z" fill="#BCDAEF"/>
<path d="M19.2731 28.9283L18.8711 31.333L18.947 31.3482L19.3262 29.0649C19.4173 29.1787 19.6221 29.2166 19.8269 29.1559C20.0772 29.08 20.229 28.8752 20.1759 28.7083C20.1228 28.5414 19.88 28.4656 19.6297 28.5414C19.4173 28.6097 19.2656 28.769 19.2731 28.9283Z" fill="#BCDAEF"/>
<path d="M52.7154 25.9847L52.1465 29.3832L52.2527 29.3984L52.7913 26.1744C52.9202 26.3337 53.2085 26.3944 53.5044 26.3033C53.8533 26.1895 54.0733 25.9089 53.9974 25.6661C53.9216 25.4234 53.5802 25.3172 53.2237 25.431C52.9202 25.5296 52.7078 25.7647 52.7154 25.9847Z" fill="#BCDAEF"/>
<path d="M52.3418 26.2884L54.2762 26.2505L54.2838 26.387L52.3494 26.425L52.3418 26.2884Z" fill="#BCDAEF"/>
<path d="M52.2539 26.8646L54.1883 26.8191V26.9632L52.2539 27.0012V26.8646Z" fill="#BCDAEF"/>
<path d="M39.523 29.9598L38.8555 33.9576L38.9693 33.9803L39.6065 30.1874C39.7506 30.377 40.0692 30.4377 40.3954 30.3239C40.7823 30.1874 41.0326 29.8536 40.9568 29.5729C40.8733 29.2922 40.494 29.1709 40.0995 29.3074C39.7506 29.4288 39.5154 29.7019 39.523 29.9598Z" fill="#BCDAEF"/>
<path d="M39.1055 30.3241L41.2599 30.2559V30.4152L39.1055 30.4834V30.3241Z" fill="#BCDAEF"/>
<path d="M38.9922 30.9989L41.1466 30.9307V31.09L38.9922 31.1582V30.9989Z" fill="#BCDAEF"/>
<path d="M68.8561 24.1868L69.7058 19.1043L69.5465 19.0815L68.7423 23.8986C68.5451 23.6558 68.1127 23.5724 67.6803 23.7089C67.1569 23.8758 66.8307 24.3006 66.9445 24.6572C67.0583 25.0137 67.5741 25.173 68.0975 25.0061C68.5603 24.862 68.8713 24.513 68.8561 24.1868Z" fill="#BCDAEF"/>
<path d="M66.5215 23.5878L69.4117 23.5271L69.4193 23.7395L66.5291 23.8002L66.5215 23.5878Z" fill="#BCDAEF"/>
<path d="M66.6641 22.7304L69.5543 22.6697L69.5619 22.8745L66.6716 22.9352L66.6641 22.7304Z" fill="#BCDAEF"/>
<path d="M43.1039 28.8522L42.7626 24.7559L42.664 24.7634L42.9902 28.6929C42.8308 28.5715 42.5502 28.5867 42.2998 28.746C42.004 28.9281 41.8599 29.2467 41.9888 29.4515C42.1178 29.6563 42.4591 29.6715 42.7626 29.4894C43.0281 29.3225 43.1722 29.057 43.1039 28.8522Z" fill="#BCDAEF"/>
<path d="M45.4086 26.8193L45.1886 24.2097L45.09 24.2173L45.2948 26.6599C45.1355 26.5386 44.8549 26.5537 44.6045 26.713C44.3087 26.8951 44.1645 27.2137 44.2935 27.4185C44.4225 27.6234 44.7638 27.6385 45.0673 27.4565C45.3328 27.2896 45.4693 27.0165 45.4086 26.8193Z" fill="#BCDAEF"/>
<path d="M42.7037 25.1883L42.6582 24.6421L45.1919 24.0049L45.2222 24.5207L42.7037 25.1883Z" fill="#BCDAEF"/>
<path d="M31.9888 28.1091L31.3516 31.9021L31.4654 31.9172L32.0722 28.3139C32.2164 28.4884 32.5198 28.5491 32.8308 28.4505C33.2025 28.3291 33.4453 28.0257 33.3618 27.7678C33.2784 27.5098 32.9067 27.3961 32.535 27.5174C32.2088 27.6236 31.9812 27.874 31.9888 28.1091Z" fill="#BCDAEF"/>
<path d="M33.2165 27.8133C33.2544 27.9195 33.0572 28.0864 32.7765 28.1775C32.4958 28.2685 32.2379 28.2609 32.2 28.1471C32.1621 28.0409 32.3593 27.874 32.64 27.783C32.9206 27.692 33.1786 27.6996 33.2165 27.8133Z" fill="#BCDAEF"/>
<path d="M11.9311 33.1001C12.6594 32.5084 13.5849 32.1064 14.4193 31.7119C15.6254 31.1506 16.8923 30.6499 18.2046 30.3996C19.0694 30.2327 20.488 30.081 20.8445 31.143C21.1328 31.9926 20.4576 33.1381 21.2769 33.8208C21.9217 34.3594 23.0217 33.9498 23.6816 33.6918C24.865 33.2291 25.965 32.5615 27.027 31.8788C27.8311 31.363 28.6049 30.794 29.4241 30.301C31.2068 29.2238 33.4598 28.0935 35.599 28.67C36.7748 28.9886 37.6169 29.9141 38.2086 30.9382C38.6865 31.765 39.134 32.6222 39.8699 33.2519C41.4174 34.587 43.7766 33.9573 45.362 33.047C48.2446 31.3933 50.0046 27.9797 53.4106 27.1983C54.3209 26.9859 55.2691 27.0618 56.1567 27.3045C57.2566 27.608 58.1669 28.3666 59.0697 29.0265C59.9572 29.6789 60.8675 30.1796 61.9447 30.4299C62.9915 30.6727 64.0839 30.6347 65.1383 30.4527C67.3913 30.0582 69.5457 28.9052 71.5181 27.7976C73.6118 26.6218 75.622 25.3019 77.655 24.0275C78.8991 23.2537 80.1584 22.5103 81.3873 21.691C82.6844 20.8262 83.9513 19.9235 85.2105 19.0132C87.6835 17.2305 90.1489 15.4327 92.7736 13.8776C92.804 13.8624 92.7736 13.8093 92.7433 13.8245C88.4269 16.3733 84.5581 19.5897 80.348 22.2979C78.3226 23.5951 76.2668 24.8391 74.2262 26.1136C72.1629 27.3956 70.0464 28.6321 67.801 29.5651C65.5404 30.5058 62.9688 30.9837 60.6551 29.9368C59.6538 29.4893 58.8193 28.7383 57.9242 28.1238C57.0822 27.5473 56.187 27.1756 55.1781 27.0466C51.8328 26.637 49.4811 29.5044 47.2585 31.5147C45.6806 32.9408 43.6855 34.2229 41.4553 33.8891C39.0202 33.525 38.6561 30.794 37.0479 29.3831C34.4384 27.0921 30.6379 29.3907 28.2862 30.9685C27.2394 31.6664 26.185 32.3567 25.085 32.9484C24.152 33.4491 22.9458 34.1167 21.8459 33.9801C20.5714 33.8284 21.0038 32.3491 20.9583 31.4919C20.9128 30.6272 20.2073 30.2554 19.426 30.2175C17.9391 30.1417 16.3689 30.7865 15.0338 31.3554C13.9717 31.8106 12.7883 32.3036 11.878 33.0395C11.8629 33.085 11.9084 33.1305 11.9311 33.1001Z" fill="#BCDAEF"/>
<path d="M12.0699 32.357C12.7754 31.7653 13.6705 31.3557 14.4898 30.9537C15.6656 30.3847 16.9021 29.8765 18.1841 29.6034C19.0262 29.4213 20.422 29.2544 20.7861 30.2861C21.0819 31.1205 20.4371 32.2432 21.2564 32.9032C21.8936 33.4191 22.9632 32.9942 23.6156 32.7363C24.7687 32.266 25.8307 31.5909 26.8699 30.9006C27.6513 30.3847 28.4023 29.8082 29.1912 29.3151C30.9208 28.2303 33.1131 27.0773 35.2144 27.6083C36.375 27.8966 37.217 28.7917 37.8163 29.7854C38.3018 30.5895 38.757 31.4164 39.4852 32.0308C41.0252 33.3129 43.3237 32.6605 44.8636 31.735C47.6628 30.0661 49.3317 26.6828 52.6543 25.8635C53.5418 25.6436 54.4749 25.6967 55.3548 25.9242C56.4396 26.2049 57.3499 26.9256 58.2451 27.5628C59.125 28.1848 60.0277 28.6627 61.0897 28.8903C62.1214 29.1103 63.191 29.0496 64.2227 28.8524C66.4302 28.4276 68.5163 27.2593 70.4355 26.1442C72.4685 24.9608 74.4105 23.6257 76.3904 22.3437C77.5966 21.5624 78.8179 20.8114 80.0013 19.9921C81.253 19.1273 82.4819 18.217 83.7032 17.2991C86.1003 15.5088 88.4823 13.7034 91.0311 12.1331C91.0615 12.118 91.0311 12.0649 91.0008 12.0876C86.8134 14.6592 83.0812 17.8832 78.9924 20.6065C77.0352 21.9113 75.0326 23.1706 73.0526 24.445C71.05 25.7422 69.0018 26.9787 66.8095 27.9345C64.6096 28.8903 62.0987 29.4137 59.8077 28.4276C58.8216 28.0028 57.9871 27.2821 57.0996 26.698C56.2651 26.1518 55.3852 25.7953 54.3838 25.6891C51.0992 25.3477 48.8386 28.1924 46.6918 30.2027C45.167 31.6288 43.2326 32.9184 41.0403 32.6301C38.6508 32.3115 38.2487 29.6413 36.6481 28.291C34.0462 26.0911 30.367 28.4124 28.0837 29.9978C27.0748 30.7033 26.0507 31.3936 24.9735 31.9929C24.0708 32.5012 22.9025 33.1763 21.8178 33.0625C20.5661 32.9336 20.9605 31.4771 20.9074 30.6426C20.8468 29.793 20.1564 29.4441 19.3827 29.4213C17.9186 29.3682 16.4014 30.0282 15.0967 30.6123C14.065 31.075 12.912 31.5833 12.032 32.3191C11.9941 32.3419 12.0396 32.3798 12.0699 32.357Z" fill="#BCDAEF"/>
<path d="M12.1825 31.6208C12.8576 31.0291 13.7376 30.6119 14.5265 30.2023C15.6644 29.6257 16.8706 29.1023 18.1222 28.8141C18.9491 28.6244 20.307 28.4348 20.6863 29.4437C20.9897 30.2554 20.3828 31.3705 21.1945 32.0001C21.8317 32.4932 22.871 32.0608 23.5006 31.7953C24.6233 31.3174 25.655 30.6347 26.6563 29.9443C27.4149 29.4209 28.1356 28.852 28.9093 28.3513C30.5858 27.259 32.7098 26.0907 34.7884 26.5762C35.9338 26.8417 36.7683 27.7065 37.3751 28.6699C37.8606 29.4437 38.3234 30.2554 39.0516 30.8395C40.584 32.0684 42.8294 31.3857 44.3238 30.4602C47.0395 28.7761 48.6174 25.4383 51.8641 24.566C52.7289 24.3384 53.6392 24.3687 54.5116 24.5736C55.5736 24.8239 56.4839 25.5218 57.3715 26.1287C58.2438 26.7204 59.139 27.1755 60.1858 27.3803C61.2023 27.5776 62.2492 27.5017 63.2581 27.2893C65.4125 26.8341 67.4379 25.6583 69.2964 24.528C71.2688 23.3295 73.1501 21.9868 75.0693 20.7048C76.2375 19.9158 77.4285 19.1573 78.574 18.338C79.7877 17.4656 80.9787 16.5553 82.1545 15.6374C84.4682 13.8472 86.7743 12.0265 89.2473 10.4487C89.2776 10.4259 89.2473 10.3804 89.2169 10.4032C85.1585 12.9975 81.5476 16.2139 77.5954 18.96C75.6989 20.2724 73.7569 21.5392 71.8377 22.8288C69.8957 24.1336 67.9082 25.3852 65.7766 26.3562C63.6374 27.3348 61.1872 27.881 58.9266 26.9555C57.9556 26.5535 57.1211 25.8632 56.2412 25.3018C55.4143 24.7784 54.5419 24.4446 53.5634 24.3612C50.3394 24.0805 48.1698 26.91 46.1065 28.9203C44.6348 30.3464 42.7611 31.6436 40.6067 31.4008C38.2551 31.1277 37.8151 28.5182 36.2221 27.221C33.6353 25.1122 30.0624 27.441 27.8625 29.0416C26.8839 29.7471 25.8977 30.445 24.8509 31.0519C23.9709 31.5677 22.8406 32.2429 21.771 32.1518C20.5421 32.0456 20.9062 30.6119 20.8304 29.7926C20.7621 28.9658 20.0718 28.632 19.3132 28.6168C17.8795 28.5865 16.4002 29.2616 15.1334 29.8609C14.1245 30.3312 13.0018 30.8471 12.1597 31.5905C12.1142 31.6057 12.1522 31.6436 12.1825 31.6208Z" fill="#BCDAEF"/>
<path d="M12.2824 30.8927C12.9348 30.301 13.7844 29.8762 14.5581 29.4665C15.6657 28.8748 16.8339 28.3438 18.0552 28.0404C18.8593 27.8431 20.1944 27.6307 20.5813 28.6093C20.8923 29.3982 20.3158 30.5058 21.1199 31.1127C21.7495 31.583 22.766 31.143 23.3805 30.8699C24.4728 30.3768 25.4742 29.6941 26.4452 29.0038C27.181 28.4804 27.8789 27.9038 28.6223 27.4032C30.2533 26.3032 32.309 25.1274 34.3496 25.5598C35.4723 25.8026 36.3144 26.6294 36.9212 27.5625C37.4143 28.3135 37.8771 29.1024 38.5977 29.6638C40.1225 30.8471 42.3072 30.1341 43.7561 29.201C46.3884 27.5018 47.8752 24.2019 51.0461 23.2992C51.8881 23.0565 52.7833 23.0792 53.6405 23.2613C54.6873 23.4889 55.59 24.1564 56.47 24.7329C57.3424 25.3019 58.2223 25.7343 59.2464 25.9088C60.2478 26.0832 61.2719 25.9922 62.2504 25.7722C64.3517 25.2943 66.3164 24.1033 68.1219 22.9654C70.0335 21.7593 71.8617 20.409 73.7127 19.1194C74.843 18.3305 75.996 17.5643 77.1035 16.7374C78.2794 15.8651 79.4248 14.9472 80.5703 14.0293C82.8081 12.2314 85.0384 10.4108 87.4355 8.8254C87.4658 8.80264 87.4355 8.75713 87.4051 8.77988C83.4681 11.3894 79.9862 14.6058 76.1629 17.3671C74.3271 18.687 72.4458 19.9614 70.5873 21.2586C68.706 22.571 66.7792 23.8302 64.7082 24.824C62.6297 25.8177 60.2326 26.4018 58.0024 25.5295C57.0389 25.1578 56.2197 24.4902 55.3397 23.9592C54.5204 23.4585 53.6632 23.1475 52.6998 23.0868C49.5365 22.8668 47.458 25.6812 45.4629 27.6838C44.052 29.11 42.2313 30.4148 40.1149 30.2024C37.8088 29.9748 37.3309 27.4259 35.7454 26.1818C33.1738 24.1564 29.7147 26.508 27.5755 28.1087C26.6272 28.8217 25.6714 29.5196 24.6549 30.1341C23.7977 30.6499 22.7053 31.3402 21.6585 31.2644C20.4523 31.1809 20.7785 29.77 20.7027 28.9659C20.6192 28.1542 19.9365 27.8431 19.1931 27.8431C17.7897 27.8431 16.3484 28.5259 15.1119 29.1327C14.1333 29.6107 13.041 30.1417 12.2217 30.8775C12.2141 30.8851 12.252 30.9154 12.2824 30.8927Z" fill="#BCDAEF"/>
<path d="M12.3633 30.1873C12.9929 29.5956 13.8198 29.1632 14.5708 28.746C15.648 28.1467 16.7859 27.6081 17.9768 27.2895C18.7658 27.0771 20.063 26.8495 20.4574 27.8054C20.776 28.5715 20.2298 29.6639 21.0264 30.248C21.656 30.7032 22.6421 30.2556 23.2338 29.9749C24.2959 29.4742 25.2669 28.7839 26.2075 28.0936C26.9206 27.5702 27.5957 26.9937 28.3164 26.4854C29.8942 25.3779 31.8969 24.1869 33.8996 24.5814C35.0071 24.8014 35.8415 25.5979 36.456 26.5006C36.9491 27.2288 37.4194 27.995 38.1325 28.526C39.6496 29.6563 41.7813 28.9281 43.1846 27.9874C45.7335 26.273 47.1369 23.0187 50.2243 22.078C51.0512 21.8277 51.9236 21.8277 52.7656 22.0022C53.7973 22.207 54.6924 22.8518 55.5648 23.398C56.4296 23.9366 57.2943 24.3462 58.3108 24.5055C59.2894 24.6572 60.2983 24.551 61.2542 24.3159C63.3099 23.8076 65.214 22.609 66.9663 21.4636C68.8248 20.2498 70.5848 18.8996 72.3826 17.5948C73.4826 16.7983 74.5977 16.0321 75.6673 15.2052C76.8052 14.3253 77.9127 13.4074 79.0202 12.4895C81.1822 10.6917 83.3366 8.87105 85.6579 7.27043C85.6882 7.24768 85.6579 7.20975 85.6275 7.22492C81.8118 9.84963 78.4589 13.066 74.7494 15.8349C72.9667 17.1624 71.1461 18.4444 69.3483 19.7416C67.5277 21.0615 65.6615 22.3284 63.6437 23.3373C61.6183 24.3462 59.2818 24.9607 57.0819 24.1414C56.1337 23.7924 55.3144 23.1552 54.4496 22.647C53.638 22.1691 52.7883 21.8808 51.8477 21.8353C48.7375 21.676 46.75 24.4676 44.8308 26.4627C43.4653 27.8812 41.713 29.1936 39.6345 29.0267C37.3663 28.8446 36.858 26.3565 35.2878 25.1579C32.7313 23.2159 29.3784 25.5827 27.315 27.1833C26.3971 27.8964 25.4717 28.5943 24.4931 29.2163C23.6662 29.7397 22.6042 30.4301 21.5725 30.377C20.3891 30.3163 20.685 28.9281 20.594 28.1391C20.4953 27.3426 19.8278 27.0468 19.0995 27.0619C17.7189 27.0847 16.3231 27.7826 15.1246 28.3971C14.1763 28.8825 13.1143 29.4211 12.3254 30.157C12.3026 30.1721 12.3405 30.2101 12.3633 30.1873Z" fill="#BCDAEF"/>
<path d="M47.375 2.83179H24.4297V34.3243H47.375V2.83179Z" fill="#BCDAEF"/>
<path d="M35.0273 6.36395C35.0273 6.36395 37.0302 5.99987 39.2611 7.59303C40.6693 8.59902 41.3477 8.11468 41.9167 9.63237C42.4856 11.1501 44.0788 12.0599 43.6235 13.5021C43.1682 14.9435 44.3823 14.5645 44.0406 15.9677C43.6989 17.3709 44.2687 18.0543 44.1169 19.0786C43.9651 20.1028 40.4753 21.2788 38.844 21.0134C37.2127 20.748 35.2023 19.8755 35.7713 17.599C36.3402 15.3225 35.0273 6.36395 35.0273 6.36395Z" fill="#00274E"/>
<path d="M31.6406 8.12804C31.6406 8.12804 33.4279 5.47664 37.1881 6.5581C37.1881 6.5581 38.6203 7.15274 39.1387 9.591C39.6678 12.079 38.0124 13.9699 37.1574 13.503C36.6084 13.2036 36.1937 14.1631 36.1937 14.1631L31.6406 8.12804Z" fill="#00274E"/>
<path d="M40.4617 26.2675C40.3854 26.7825 40.261 27.2926 40.0818 27.7877C39.3205 29.8909 38.9282 30.7484 38.9473 31.5438C38.9639 32.2462 39.3023 32.9006 39.9923 34.3237H30.0808C31.2311 29.487 29.7466 27.8615 29.6487 25.2914C29.6388 25.0617 29.6404 24.8245 29.657 24.5765C29.8727 21.2724 32.4312 17.7187 32.4312 17.7187C32.4312 17.7187 32.4403 17.7179 32.4552 17.7162C32.461 17.7162 32.4668 17.7154 32.4751 17.7145C32.4909 17.7129 32.51 17.7112 32.529 17.7087C32.5531 17.7063 32.578 17.7029 32.6012 17.7013C32.6145 17.7005 32.6277 17.6996 32.6385 17.6988C32.68 17.6946 32.7297 17.6897 32.7836 17.6855C32.9545 17.5951 33.0001 16.8769 32.9984 16.1189C32.9984 16.0741 32.9984 16.0293 32.9976 15.9845C32.9968 15.9157 32.9959 15.846 32.9951 15.778C32.9943 15.7158 32.9926 15.6553 32.9918 15.5948C32.991 15.5649 32.9901 15.535 32.9893 15.5044C32.9868 15.414 32.9835 15.3252 32.9802 15.2398C32.9794 15.2008 32.9777 15.1635 32.976 15.1262C32.9752 15.1096 32.9752 15.093 32.9744 15.0772C32.9719 15.0233 32.9702 14.9719 32.9669 14.9205C32.9661 14.8948 32.9653 14.8707 32.9636 14.8459C32.9628 14.8218 32.9611 14.7986 32.9603 14.7745C32.9586 14.7389 32.957 14.704 32.9545 14.6709C32.9545 14.6642 32.9537 14.6593 32.9537 14.6526C32.952 14.6145 32.9495 14.578 32.947 14.544C32.9437 14.4735 32.9387 14.4138 32.9362 14.3665C32.9354 14.3566 32.9354 14.3474 32.9346 14.3383C32.9329 14.3118 32.9321 14.291 32.9296 14.2753C32.9296 14.2662 32.9288 14.2595 32.9288 14.2545C32.9279 14.2471 32.9279 14.2438 32.9279 14.2438L35.8223 13.6707L35.8323 13.669L35.9973 13.6359L36.1798 13.5994C36.1806 13.6002 36.1798 13.6002 36.1798 13.6002C36.179 13.7926 36.1831 13.9784 36.1906 14.1583C36.2818 16.1894 36.8922 17.4334 37.2637 17.5304C37.2836 17.5337 37.3035 17.5396 37.3234 17.5454C37.3234 17.5454 37.3234 17.5454 37.3243 17.5454C37.6734 17.6424 38.0674 17.9617 38.4572 18.446C38.9631 19.0713 39.4623 19.9745 39.8471 21.0286C40.4103 22.5778 40.7304 24.4562 40.4617 26.2675Z" fill="#DFF2FF"/>
<path d="M32.9258 14.2434C32.9258 14.2434 32.9954 15.2088 32.9979 16.1185C34.7155 16.0704 35.6228 14.5038 35.9943 13.6355L32.9258 14.2434Z" fill="#BCDAEF"/>
<path d="M36.3131 13.3013C36.3131 13.3013 37.213 11.8798 37.4286 10.664C37.5828 9.79566 37.1408 6.57866 33.9072 7.04226C33.9072 7.04226 32.9684 7.13514 32.0852 7.73061C31.3835 8.20499 30.3701 9.22839 31.503 12.0357L31.7974 12.9845L36.3131 13.3013Z" fill="#00274E"/>
<path d="M32.3532 15.1052C32.3532 15.1052 36.4161 15.1724 36.4186 12.6412C36.4211 10.1109 36.9477 8.41493 34.3535 8.26482C31.7594 8.11471 31.2543 9.08006 31.0486 9.92433C30.8421 10.7694 31.2966 15.0223 32.3532 15.1052Z" fill="#DFF2FF"/>
<path d="M32.5039 8.20244C32.5039 8.20244 33.6161 11.1715 35.3237 11.6102C37.0304 12.0489 37.771 11.592 37.771 11.592C37.771 11.592 36.4615 10.552 36.1895 8.7357C36.1903 8.73653 33.3432 6.79008 32.5039 8.20244Z" fill="#00274E"/>
<path d="M32.7798 8.44387C32.7798 8.44387 31.9488 9.10651 31.7465 9.75091C31.5441 10.3953 31.4529 11.7222 31.0664 11.6766C31.0664 11.6766 30.2279 9.65885 31.1701 8.51685C32.1686 7.30684 32.7798 8.44387 32.7798 8.44387Z" fill="#00274E"/>
<path d="M40.0164 29.1685C40.2826 30.9109 40.6997 32.7106 41.0879 34.3245H28.1543C28.4122 31.4459 29.0027 28.2172 29.1329 25.9813C29.1437 25.7972 29.152 25.6197 29.1553 25.4506C28.9612 24.2828 28.8949 23.2686 28.9156 22.3969C28.9712 20.0491 29.6604 18.7321 30.1903 18.2021C30.3396 18.0877 30.4897 18.0155 31.0927 17.9119C31.4003 17.8596 31.8274 17.7991 32.432 17.7195C32.432 17.7195 32.4412 17.7186 32.4561 17.717C32.4619 17.717 32.4677 17.7161 32.476 17.7153C32.4917 17.7137 32.5108 17.712 32.5299 17.7095C32.5539 17.707 32.5788 17.7037 32.602 17.702C32.6153 17.7012 32.6286 17.7004 32.6394 17.6996C32.6609 17.6987 32.675 17.6987 32.6742 17.7004C32.6369 17.7667 32.6128 17.9741 32.6103 18.2403C32.6029 18.7669 32.6725 19.5233 32.8508 19.8757C33.5342 21.2242 35.44 21.0974 36.276 19.865C36.2984 19.831 36.3208 19.7978 36.3415 19.7621C36.83 18.9461 37.253 17.5295 37.253 17.5295C37.253 17.5295 37.3235 17.5345 37.3243 17.5345C37.4835 17.5503 38.244 17.5146 38.988 17.6714C39.6614 17.814 40.3108 18.1474 40.7163 18.4435C40.7163 18.4435 40.713 18.4476 40.7063 18.4551C40.8175 18.5339 40.9004 18.6193 40.9485 18.7089C41.2006 19.189 41.4528 19.8575 41.6999 20.6429C42.4131 22.9095 43.0841 26.1497 43.5958 28.6452C41.9263 29.5633 40.4692 29.2904 40.0164 29.1685Z" fill="#DFF2FF"/>
<path d="M45.5064 34.3245H27.5985C27.5313 32.2139 27.6425 28.34 29.1311 25.9814C29.2879 25.7334 29.4595 25.5028 29.6486 25.2922C30.0874 24.8004 30.6173 24.4197 31.2559 24.2008C31.8132 24.0084 32.3481 23.7687 32.859 23.4942C34.4704 22.6284 35.8355 21.425 36.8647 20.3361C37.5522 19.6096 38.0913 18.9345 38.4546 18.4468C38.6743 18.1508 38.8303 17.9243 38.9149 17.795C38.9679 17.7178 38.9945 17.6755 38.9945 17.6755C38.9945 17.6755 41.0429 18.1308 42.1808 19.2687C42.3209 19.4089 42.481 19.7655 42.6535 20.2838C43.6122 23.1641 44.9624 31.0296 45.5064 34.3245Z" fill="#003366"/>
<path d="M34.0333 25.3858V34.3244H26.5195C27.0445 30.2134 28.4992 19.3366 29.2829 18.4152C30.2499 17.2774 32.7819 17.6862 32.7819 17.6862C32.7819 17.6862 32.7064 17.8985 32.6077 18.2411C32.3763 19.0472 32.0222 20.5748 32.242 21.7724C32.3473 22.3504 32.587 22.9517 32.8582 23.4941C33.3865 24.5515 34.0333 25.3858 34.0333 25.3858Z" fill="#003366"/>
<path d="M31.6406 8.12815C31.6406 8.12815 32.4749 7.57167 34.3551 8.26583C36.2352 8.95998 36.44 11.8502 36.44 11.8502C36.44 11.8502 37.1914 11.1677 37.305 10.5531C37.4186 9.93861 36.8456 7.9034 36.1672 7.43483C35.2109 6.77467 33.8682 6.68344 33.0264 6.91151C32.1838 7.13792 31.6406 8.12815 31.6406 8.12815Z" fill="#BCDAEF"/>
<path d="M39.8623 24.3533C39.8623 24.3533 36.8278 29.8767 34.2178 30.5443C31.6079 31.2119 33.5502 32.4866 35.4925 31.333C37.4348 30.1794 39.8623 24.3533 39.8623 24.3533Z" fill="#00274E"/>
<path d="M40.4222 27.0999C40.4222 27.0999 38.8291 29.9677 37.6912 31.1056C36.5534 32.2434 38.2485 32.3927 38.9485 31.5443C39.6476 30.6959 40.4222 27.0999 40.4222 27.0999Z" fill="#00274E"/>
<path d="M30.2249 21.6826C30.2249 21.6826 29.9097 23.2832 29.6576 24.577C29.4055 25.8708 29.4511 28.5562 29.952 28.3746C30.453 28.1929 30.2249 21.6826 30.2249 21.6826Z" fill="#00274E"/>
<path d="M23.6543 2.36328V35.0973H48.148V2.36328H23.6543V2.36328ZM46.6005 33.5498H25.2018V3.91166H46.6005V33.5498Z" fill="#00274E"/>
<path d="M61.6496 31.4815L44.1781 29.6781L46.103 8.44299L59.0745 9.78254L63.2068 14.2935L61.6496 31.4815Z" fill="white"/>
<path opacity="0.8" d="M61.6496 31.4815L44.1781 29.6781L46.103 8.44299L59.0745 9.78254L63.2068 14.2935L61.6496 31.4815Z" fill="white"/>
<path d="M58.0566 9.21704L62.0778 13.6496L57.6219 13.2648L58.0566 9.21704Z" fill="white"/>
<path d="M47.1833 13.3713L56.375 13.53L56.4748 12.987L47.2831 12.8283L47.1833 13.3713Z" fill="#DADADA"/>
<path d="M47.1735 14.7431L56.3652 14.9019L56.465 14.3588L47.2733 14.2001L47.1735 14.7431Z" fill="#DADADA"/>
<path d="M47.1676 16.1162L56.3594 16.2749L56.4592 15.7319L47.2675 15.5732L47.1676 16.1162Z" fill="#DADADA"/>
<path d="M47.1543 17.4882L60.6113 17.679L60.7129 17.1349L47.2559 16.9442L47.1543 17.4882Z" fill="#DADADA"/>
<path d="M47.1406 18.8598L60.5977 19.0505L60.6992 18.5065L47.2421 18.3157L47.1406 18.8598Z" fill="#DADADA"/>
<path d="M47.1328 20.2334L60.5898 20.4241L60.6914 19.88L47.2344 19.6893L47.1328 20.2334Z" fill="#DADADA"/>
<path d="M47.125 21.6064L60.582 21.7971L60.6836 21.253L47.2265 21.0624L47.125 21.6064Z" fill="#DADADA"/>
<path d="M47.1133 22.978L60.5703 23.1687L60.6719 22.6246L47.2148 22.4339L47.1133 22.978Z" fill="#DADADA"/>
<path d="M47.1034 24.352L60.5605 24.5427L60.6621 23.9987L47.205 23.8079L47.1034 24.352Z" fill="#DADADA"/>
<path d="M47.0937 25.7233L60.5508 25.9141L60.6524 25.37L47.1953 25.1793L47.0937 25.7233Z" fill="#DADADA"/>
<path d="M47.0859 27.0955L60.543 27.2861L60.6445 26.7421L47.1874 26.5514L47.0859 27.0955Z" fill="#DADADA"/>
<path d="M47.0761 28.4697L60.5332 28.6604L60.6348 28.1163L47.1777 27.9256L47.0761 28.4697Z" fill="#DADADA"/>
<mask id="mask0_3148_20835" style="mask-type:alpha" maskUnits="userSpaceOnUse" x="0" y="0" width="26" height="34">
<rect y="4.59692" width="19.7156" height="30.3619" rx="2" transform="rotate(-13.4831 0 4.59692)" fill="#E7CDB8"/>
</mask>
<g mask="url(#mask0_3148_20835)">
<path d="M18.405 0.183874L19.1719 0L19.4477 1.15033L0.27552 5.74718L-0.000291536 4.59685L18.405 0.183874Z" fill="#EDEDED"/>
<path d="M0 4.59692L1.42614 5.47144L8.22948 33.8462L7.07915 34.1221L6.89527 33.3552L0 4.59692Z" fill="#DADADA"/>
</g>
<rect x="0.951172" y="5.17993" width="18.9269" height="29.5733" rx="1" transform="rotate(-13.4831 0.951172 5.17993)" fill="#FEFEFE"/>
<rect x="3.69336" y="8.1709" width="14.9838" height="0.530324" rx="0.265162" transform="rotate(-13.4831 3.69336 8.1709)" fill="#DADADA"/>
<rect x="5.16602" y="14.3059" width="14.9838" height="0.530324" rx="0.265162" transform="rotate(-13.4831 5.16602 14.3059)" fill="#DADADA"/>
<rect x="6.63477" y="20.4412" width="14.9838" height="0.530324" rx="0.265162" transform="rotate(-13.4831 6.63477 20.4412)" fill="#DADADA"/>
<rect x="3.96875" y="9.32104" width="14.9838" height="0.530324" rx="0.265162" transform="rotate(-13.4831 3.96875 9.32104)" fill="#DADADA"/>
<rect x="5.43945" y="15.4563" width="14.9838" height="0.530324" rx="0.265162" transform="rotate(-13.4831 5.43945 15.4563)" fill="#DADADA"/>
<rect x="6.91211" y="21.5913" width="14.9838" height="0.530324" rx="0.265162" transform="rotate(-13.4831 6.91211 21.5913)" fill="#DADADA"/>
<rect x="4.24414" y="10.4714" width="14.9838" height="0.530324" rx="0.265162" transform="rotate(-13.4831 4.24414 10.4714)" fill="#DADADA"/>
<rect x="5.7168" y="16.6067" width="14.9838" height="0.530324" rx="0.265162" transform="rotate(-13.4831 5.7168 16.6067)" fill="#DADADA"/>
<rect x="7.18945" y="22.7417" width="14.9838" height="0.530324" rx="0.265162" transform="rotate(-13.4831 7.18945 22.7417)" fill="#DADADA"/>
<path d="M17.3778 26.573L23.6356 20.4987L23.6741 20.6452L17.4149 26.7199L17.3778 26.573Z" fill="#31302C"/>
<path d="M17.806 24.5042C18.0588 24.2225 18.3103 23.7872 18.1478 23.3757C18.0486 23.1266 17.8227 23.0745 17.6166 23.2163C17.2132 23.4963 17.1055 24.2582 17.0556 24.7151C17.012 25.1146 17.0141 25.8486 17.5775 25.844C18.2411 25.8397 18.4854 24.7766 18.5006 24.2485C18.5028 24.1747 18.384 24.1614 18.3696 24.2308C18.3416 24.3565 18.1601 25.184 18.5431 24.9992C18.6795 24.9337 18.7048 24.6821 18.7262 24.5522C18.766 24.3189 18.7374 24.0135 18.836 23.7985C18.7964 23.7902 18.7564 23.7806 18.7167 23.7724C18.7728 23.9666 18.8052 24.1001 18.9647 24.2248C18.9906 24.2448 19.0384 24.2526 19.0582 24.2208C19.2154 23.9738 19.1478 23.6456 19.3308 23.4128C19.2955 23.405 19.2615 23.397 19.2258 23.3878C19.239 23.451 19.2603 23.6344 19.276 23.7185C19.2834 23.7585 19.3435 23.7707 19.371 23.753C19.4387 23.7074 19.455 23.6893 19.4716 23.6065C19.4356 23.6017 19.3984 23.5973 19.362 23.5911C19.5698 24.0498 19.8453 23.4841 19.934 23.2684C20.1959 22.6325 20.325 21.988 20.1591 21.2883C20.1464 21.2323 20.0366 21.2271 20.0524 21.2953C20.1787 21.8329 20.0766 22.375 20.0582 22.9125C20.0385 23.4948 20.0499 24.0786 20.0877 24.6622C20.1223 24.6673 20.1566 24.671 20.19 24.6764C20.0981 24.2747 20.1406 23.8654 20.1898 23.4661C20.2311 23.129 20.2858 22.7788 20.4696 22.4941C20.438 22.4898 20.4059 22.4841 20.3743 22.4798C20.5088 22.7424 20.472 23.0642 20.3639 23.3187C20.3456 23.3617 20.4246 23.4156 20.4432 23.374C20.5405 23.1535 20.7633 23.0396 20.8725 22.8222C20.9851 22.5967 21.0215 22.3283 21.0967 22.087C21.07 22.0801 21.0432 22.0733 21.0165 22.0664C21.1227 22.5252 21.3595 21.7182 21.3968 21.6292C21.372 21.6248 21.3463 21.622 21.3215 21.6176C21.3728 21.7051 21.4268 21.7589 21.5297 21.7369C21.7339 21.6919 21.7321 21.3661 21.877 21.2957C21.8783 21.2954 21.9605 21.34 21.9832 21.3363C22.0787 21.3232 22.144 21.3011 22.2171 21.2328C22.3652 21.0927 22.4519 20.8746 22.5019 20.6764C22.5146 20.6275 22.4206 20.5914 22.405 20.6453C22.3498 20.8447 22.1515 21.3857 21.8646 21.208C21.848 21.1974 21.8133 21.1924 21.8037 21.2147C21.7618 21.3076 21.514 21.8066 21.3922 21.6001C21.3774 21.5747 21.3317 21.5534 21.3169 21.5884C21.2816 21.6741 21.2588 21.7655 21.2297 21.854C21.2128 21.9025 21.1253 22.2055 21.0975 22.0681C21.0906 22.0352 21.0297 22.0088 21.0172 22.0475C20.9313 22.3071 20.9017 22.6301 20.7483 22.859C20.6344 23.0301 20.4515 23.1263 20.3652 23.3184C20.3921 23.3367 20.4177 23.3554 20.4446 23.3737C20.5646 23.0949 20.6147 22.7486 20.468 22.4599C20.4491 22.424 20.3959 22.4116 20.3726 22.4457C20.1858 22.7354 20.1296 23.096 20.0884 23.4389C20.0386 23.8469 19.9952 24.2636 20.0891 24.6734C20.0984 24.7159 20.1959 24.744 20.1914 24.6875C20.1519 24.0583 20.141 23.4269 20.1717 22.8004C20.1967 22.2945 20.2775 21.7947 20.1595 21.2897C20.1239 21.292 20.0883 21.2943 20.0528 21.2967C20.1827 21.8435 20.1345 22.3346 19.9639 22.8534C19.9189 22.9887 19.8712 23.1246 19.8169 23.2563C19.7928 23.3149 19.5781 23.8295 19.471 23.5822C19.4552 23.547 19.3724 23.5112 19.3615 23.5668C19.3371 23.6026 19.3128 23.6383 19.2888 23.6754C19.3209 23.6868 19.3529 23.6981 19.3837 23.7098C19.3624 23.5982 19.357 23.4888 19.3331 23.3778C19.3234 23.334 19.2525 23.3228 19.2281 23.3528C19.0417 23.5893 19.1081 23.9177 18.9482 24.1653C18.9799 24.1639 19.0102 24.1628 19.0418 24.1613C18.9365 24.0473 18.8692 23.9188 18.8397 23.7746C18.8263 23.7274 18.745 23.697 18.7205 23.7486C18.6102 23.9835 18.6403 24.3116 18.5936 24.5665C18.5677 24.7061 18.4425 25.091 18.4238 24.7144C18.4159 24.5624 18.4686 24.3966 18.5013 24.2512C18.4581 24.2452 18.4135 24.2395 18.3703 24.2335C18.356 24.6939 18.192 25.4254 17.7763 25.668C17.2454 25.9771 17.1587 25.2163 17.1811 24.8648C17.2078 24.4591 17.305 24.0461 17.4619 23.6769C17.4925 23.6053 17.5236 23.5306 17.5658 23.4664C17.655 23.3297 17.6853 23.3012 17.8711 23.3539C18.0661 23.4101 18.0802 23.4659 18.0812 23.6568C18.0815 23.7516 18.0648 23.8503 18.0383 23.9382C17.9823 24.1292 17.876 24.2971 17.7597 24.4529C17.7418 24.4757 17.7868 24.5272 17.806 24.5042Z" fill="#31302C"/>
<path d="M5.2705 29.5841L9.42384 61.5465C9.61475 63.0144 10.9044 64.1174 12.4317 64.1174H62.2675C63.7863 64.1174 65.0718 63.0271 65.2712 61.5677L69.6536 29.6053C69.8954 27.8447 68.4827 26.2835 66.6499 26.2835H8.27838C6.45414 26.2792 5.04141 27.8277 5.2705 29.5841Z" fill="#DAEEF9"/>
<path d="M5.16894 30.4664L9.32227 62.4289C9.51318 63.8967 10.8029 64.9998 12.3301 64.9998H62.166C63.6848 64.9998 64.9702 63.9095 65.1696 62.4501L69.552 30.4876C69.7938 28.727 68.3811 27.1658 66.5484 27.1658H8.17682C6.35258 27.1615 4.93985 28.7143 5.16894 30.4664Z" fill="#8EBDDB"/>
<path d="M28.4963 39.0719C28.2023 39.2152 28.0176 39.5185 28.0176 39.8472V44.3389C28.0176 50.9796 31.5363 54.3758 36.8269 57.6287C37.104 57.7973 37.4567 57.7973 37.7338 57.6287C43.0244 54.3758 46.5431 50.988 46.5431 44.3389V39.8472C46.5431 39.5185 46.3584 39.2152 46.0644 39.0719L37.6666 34.8583C37.4231 34.7403 37.1376 34.7403 36.894 34.8583L28.4963 39.0719Z" fill="#E6007A" stroke="#E6007A" stroke-miterlimit="10"/>
<path d="M30.2114 40.4818C29.9749 40.5969 29.8262 40.8408 29.8262 41.105V44.7161C29.8262 50.0546 32.6583 52.7849 36.9166 55.4C37.1396 55.5355 37.4235 55.5355 37.6466 55.4C41.9049 52.7849 44.737 50.0614 44.737 44.7161V41.105C44.737 40.8408 44.5883 40.5969 44.3517 40.4818L37.5925 37.0943C37.3965 36.9995 37.1667 36.9995 36.9706 37.0943L30.2114 40.4818Z" fill="#8EBDDB"/>
<path d="M33.8906 45.5776L35.7944 47.8349C36.1939 48.3087 36.9237 48.3087 37.3233 47.8349L41.1201 43.333" stroke="#E6007A" stroke-width="2" stroke-miterlimit="10" stroke-linecap="round"/>
</svg>