<svg width="84" height="70" viewBox="0 0 84 70" fill="none" xmlns="http://www.w3.org/2000/svg">
<path d="M68.8092 39.2642V25.8323C68.8092 23.4138 66.8627 21.4572 64.466 21.4572H33.3546L28.1569 18.052H13.8725C11.4216 18.052 9.45834 20.0926 9.5292 22.5573L10.0169 39.2642H68.8092V39.2642Z" fill="#BCDAEF"/>
<path d="M57.2638 32.3384C49.89 30.7479 42.6796 29.1589 35.582 27.5684C37.367 19.0749 42.3681 10.5814 42.7083 2.08789C50.0753 3.67844 57.2806 5.2674 64.3732 6.85795C62.5647 15.3514 57.5703 23.8449 57.2638 32.3384Z" fill="white"/>
<path d="M57.2636 32.3385C49.8882 30.7654 42.6761 29.1907 35.5717 27.6176C35.5549 27.6144 35.5381 27.6097 35.5195 27.6065C35.5229 27.5906 35.5263 27.5748 35.5296 27.5589C37.3078 19.0638 42.2989 10.5672 42.6222 2.07209C42.6239 2.04672 42.6239 2.02134 42.6255 1.99438C42.6542 2.00073 42.6828 2.00707 42.7114 2.01341C50.0835 3.6103 57.2905 5.20878 64.3848 6.80567C64.405 6.81043 64.4235 6.81519 64.4437 6.81836C64.4403 6.8358 64.4353 6.85483 64.4319 6.87227C62.5998 15.3594 57.5903 23.8482 57.2636 32.3385ZM57.2636 32.3385C57.5482 23.8402 62.5291 15.3436 64.314 6.84532C64.3292 6.86752 64.346 6.88972 64.3612 6.91351C57.2703 5.33089 50.0683 3.74827 42.7047 2.16724C42.735 2.14821 42.7636 2.12759 42.7939 2.10856C42.4353 10.5989 37.4257 19.0908 35.634 27.5811C35.6206 27.5621 35.6071 27.5415 35.5919 27.5224C42.6845 29.1257 49.8915 30.7321 57.2636 32.3385Z" fill="#DADADA"/>
<path d="M56.0973 17.0196C55.0011 19.9961 51.6788 21.8293 48.5787 21.1141C45.4635 20.3989 43.8537 17.4049 44.9247 14.4284C45.9855 11.4518 49.19 9.61867 52.3304 10.3339C55.481 11.0491 57.207 14.0414 56.0973 17.0196Z" fill="#E4B523"/>
<path d="M50.5156 15.7243C49.2443 17.2483 47.9578 18.7738 46.7033 20.2978C44.8123 19.0022 44.132 16.66 44.9251 14.4288C45.9792 11.4713 49.2123 9.62381 52.3309 10.3342C55.4629 11.0447 57.2007 14.0624 56.0977 17.0199C54.2387 16.587 52.378 16.1557 50.5156 15.7243Z" fill="#F4C430"/>
<path d="M50.5163 15.7243C51.6243 17.142 52.7205 18.5582 53.8403 19.9758C52.3029 21.1018 50.358 21.5252 48.5799 21.1144C45.4849 20.404 43.8616 17.3863 44.9258 14.4288C45.9799 11.4713 49.213 9.62381 52.3316 10.3342C55.4636 11.0447 57.2014 14.0624 56.0984 17.0199C54.2394 16.587 52.3787 16.1557 50.5163 15.7243Z" fill="#F4C430"/>
<path d="M50.5155 15.7245C48.5639 16.1685 46.6106 16.6125 44.6573 17.0565C44.5259 16.1939 44.6202 15.2931 44.9267 14.4305C45.9808 11.473 49.2139 9.62552 52.3325 10.336C55.4645 11.0464 57.2023 14.0641 56.0993 17.0216C54.2386 16.5871 52.3779 16.1558 50.5155 15.7245Z" fill="#DF6D14"/>
<path d="M44.3771 5.67212C47.3694 6.33815 50.3398 7.0026 53.2933 7.66704C53.2411 7.88588 53.1889 8.10313 53.1333 8.32197C50.1916 7.65594 47.2347 6.99149 44.2559 6.32705C44.298 6.10821 44.3401 5.89096 44.3771 5.67212Z" fill="#DADADA"/>
<path d="M43.7027 22.3926C47.6463 23.2997 51.6085 24.2067 55.5977 25.1138C55.537 25.3326 55.4798 25.5499 55.4225 25.7687C51.4183 24.8617 47.4443 23.9546 43.4922 23.0475C43.5612 22.8287 43.632 22.6114 43.7027 22.3926Z" fill="#DADADA"/>
<path d="M43.1883 24.0447C47.1573 24.9517 51.1514 25.8588 55.1793 26.7659C55.1288 26.9847 55.08 27.202 55.0328 27.4208C50.9881 26.5138 46.9804 25.6067 42.998 24.6996C43.0604 24.4808 43.1227 24.2619 43.1883 24.0447Z" fill="#DADADA"/>
<path d="M42.7275 25.6958C46.7301 26.6029 50.763 27.5099 54.8347 28.417C54.7943 28.6359 54.7572 28.8531 54.7219 29.0719C50.63 28.1649 46.5803 27.2578 42.5625 26.3507C42.6147 26.1319 42.6703 25.9146 42.7275 25.6958Z" fill="#DADADA"/>
<path d="M41.3722 22.5607C40.8939 22.4513 40.4157 22.3403 39.9375 22.2309C40.0082 22.012 40.0823 21.7948 40.1547 21.5759C40.6313 21.6853 41.1095 21.7964 41.586 21.9058C41.5153 22.1246 41.4429 22.3419 41.3722 22.5607Z" fill="#DF6D14"/>
<path d="M40.8608 24.2113C40.3792 24.1019 39.8976 23.9909 39.416 23.8815C39.4817 23.6627 39.549 23.4454 39.6164 23.2266C40.0963 23.336 40.5762 23.447 41.0561 23.5564C40.9905 23.7752 40.9248 23.9941 40.8608 24.2113Z" fill="#E4B523"/>
<path d="M40.4058 25.8637C39.9191 25.7543 39.4342 25.6433 38.9492 25.5338C39.0065 25.315 39.0671 25.0977 39.1277 24.8789C39.611 24.9883 40.0943 25.0993 40.5792 25.2087C40.5186 25.426 40.4614 25.6448 40.4058 25.8637Z" fill="#DADADA"/>
<path d="M46.8614 9.64093L25.5703 9.92578L25.9018 35.9834L47.1928 35.6985L46.8614 9.64093Z" fill="white"/>
<path d="M47.1888 35.7006L36.5603 35.8787L25.9004 36.0415L25.8415 36.0423L25.8408 35.9861L25.4796 9.92682L25.4785 9.84082L25.5687 9.83961L46.8562 9.57246L46.9261 9.57152L46.927 9.63822L47.0682 22.686L47.1888 35.7006ZM47.1888 35.7006L46.9776 22.6538L46.789 9.64358L46.8598 9.70933L25.5728 10.0151L25.6619 9.92788L25.9604 35.988L25.9008 35.9327L36.53 35.8089L47.1888 35.7006Z" fill="#DADADA"/>
<path d="M28.0028 16.5181L35.4892 15.5663L42.9578 14.7303L35.4722 15.6774L28.0028 16.5181Z" fill="#DADADA"/>
<path d="M28.0836 17.1378L35.5693 16.1908L43.0386 15.35L35.5522 16.3019L28.0836 17.1378Z" fill="#DADADA"/>
<path d="M28.1591 17.7652L35.6455 16.8134L43.1141 15.9774L35.6284 16.9244L28.1591 17.7652Z" fill="#DADADA"/>
<path d="M28.2379 18.3879L35.7238 17.4392L43.1934 16.5969L35.7075 17.5456L28.2379 18.3879Z" fill="#DADADA"/>
<path d="M28.3153 19.0116L35.8017 18.0597L43.2703 17.2237L35.7847 18.1708L28.3153 19.0116Z" fill="#DADADA"/>
<path d="M28.3942 19.6342L35.8801 18.6856L43.3496 17.8432L35.8637 18.7919L28.3942 19.6342Z" fill="#DADADA"/>
<path d="M28.4704 20.2536L35.956 19.3065L43.4254 18.4657L35.939 19.4176L28.4704 20.2536Z" fill="#DADADA"/>
<path d="M28.5477 20.8812L36.0342 19.9293L43.5028 19.0933L36.0171 20.0404L28.5477 20.8812Z" fill="#DADADA"/>
<path d="M28.6266 21.5001L36.1123 20.5531L43.5816 19.7123L36.0952 20.6642L28.6266 21.5001Z" fill="#DADADA"/>
<path d="M28.704 22.128L36.1904 21.1762L43.659 20.3402L36.1733 21.2872L28.704 22.128Z" fill="#DADADA"/>
<path d="M28.7848 22.7472L36.2705 21.8002L43.7398 20.9593L36.2534 21.9112L28.7848 22.7472Z" fill="#DADADA"/>
<path d="M28.8583 23.3744L36.3447 22.4225L43.8133 21.5865L36.3276 22.5336L28.8583 23.3744Z" fill="#DADADA"/>
<path d="M28.9391 23.994L36.4248 23.047L43.8941 22.2062L36.4077 23.1581L28.9391 23.994Z" fill="#DADADA"/>
<path d="M29.0145 24.6209L36.5009 23.6691L43.9696 22.8331L36.4839 23.7801L29.0145 24.6209Z" fill="#DADADA"/>
<path d="M29.0934 25.2409L36.5791 24.2938L44.0484 23.453L36.562 24.4049L29.0934 25.2409Z" fill="#DADADA"/>
<path d="M31.7898 23.1032L30.4609 23.0791L30.543 25.7567L31.8718 25.7808L31.7898 23.1032Z" fill="#6E0B14"/>
<path d="M33.7973 21.4642L32.3965 21.3933L32.5683 25.4766L33.9691 25.5474L33.7973 21.4642Z" fill="#6E0B14"/>
<path d="M35.7798 19.6575L34.3145 19.542L34.6046 25.1997L36.0699 25.3151L35.7798 19.6575Z" fill="#6E0B14"/>
<path d="M37.8269 18.7315L36.3379 18.5994L36.6833 24.9314L38.1723 25.0636L37.8269 18.7315Z" fill="#6E0B14"/>
<path d="M39.8234 17.2831L38.2969 17.1245L38.7467 24.6597L40.2733 24.8183L39.8234 17.2831Z" fill="#6E0B14"/>
<path d="M41.8165 15.8469L40.2578 15.6655L40.8165 24.3877L42.3752 24.5691L41.8165 15.8469Z" fill="#6E0B14"/>
<path d="M28.6048 14.9335L28.6149 17.6255L28.6146 20.3178C28.6144 22.1115 28.6054 23.9072 28.593 25.7012L28.5201 25.6258L32.3667 25.5154L36.2132 25.4178L40.0596 25.3369L43.9058 25.2762L40.0588 25.429L36.212 25.5615L32.3654 25.6775L28.5188 25.7806L28.4453 25.7826L28.446 25.7052C28.4637 23.9111 28.4814 22.1152 28.5096 20.3207L28.5519 17.6273L28.6048 14.9335Z" fill="#DADADA"/>
<path d="M31.9793 26.1949L30.8477 26.2542L30.829 26.4342L31.9607 26.375L31.9793 26.1949Z" fill="#DADADA"/>
<path d="M34.0828 25.9332L32.9512 25.9924L32.9325 26.1725L34.0642 26.1133L34.0828 25.9332Z" fill="#DADADA"/>
<path d="M36.1844 25.6705L35.0527 25.7297L35.0341 25.9098L36.1658 25.8505L36.1844 25.6705Z" fill="#DADADA"/>
<path d="M38.2918 25.4087L37.1602 25.468L37.1415 25.6481L38.2732 25.5888L38.2918 25.4087Z" fill="#DADADA"/>
<path d="M40.3973 25.147L39.2656 25.2063L39.247 25.3864L40.3787 25.3271L40.3973 25.147Z" fill="#DADADA"/>
<path d="M42.5027 24.8849L41.3711 24.9441L41.3525 25.1242L42.4841 25.0649L42.5027 24.8849Z" fill="#DADADA"/>
<path d="M29.9104 23.3419C30.488 23.3276 31.0651 23.2685 31.6396 23.1743C32.214 23.084 32.784 22.9645 33.348 22.808C34.4743 22.495 35.5844 22.075 36.6265 21.4783C37.6734 20.8991 38.6554 20.1568 39.5173 19.2618L39.6817 19.0961L39.8378 18.9208L40.1483 18.5683C40.3407 18.3184 40.5466 18.0802 40.7222 17.815C41.1003 17.3076 41.4178 16.7463 41.7301 16.1832L41.7386 16.1889C41.1835 17.3593 40.4735 18.4515 39.6059 19.37C39.1821 19.8388 38.7083 20.2478 38.2247 20.6316C37.7394 21.0153 37.2243 21.3487 36.6963 21.6471C35.6371 22.2382 34.5148 22.6662 33.3737 22.9481C32.2293 23.2281 31.0656 23.3855 29.9104 23.3419Z" fill="#4F5361"/>
<path d="M41.4299 16.8994L41.2606 16.9441L41.0609 16.0832L40.2437 16.3637L40.1921 16.1926L41.1876 15.8527L41.4299 16.8994Z" fill="#4F5361"/>
<path d="M29.3534 30.562L44.9121 29.1829L45.0258 28.0101L29.4671 29.3892L29.3534 30.562Z" fill="#DADADA"/>
<path d="M29.5532 32.1904L38.3164 31.5571L38.4078 30.4874L29.6446 31.1207L29.5532 32.1904Z" fill="#DADADA"/>
<path d="M30.7681 14.2042L39.5312 13.5708L39.6227 12.501L30.8595 13.1344L30.7681 14.2042Z" fill="#DADADA"/>
<path d="M67.4903 42.9835L75.9847 26.0193L66.9268 13.3614L52.4738 17.4125L47.8371 35.7889L67.4903 42.9835Z" fill="#ECCDB0"/>
<path d="M67.1189 22.2882C67.8442 21.1989 67.4994 19.6981 66.3487 18.9361C65.1981 18.1741 63.6773 18.4394 62.952 19.5288C62.2267 20.6181 62.5715 22.1189 63.7221 22.8809C64.8728 23.6429 66.3935 23.3776 67.1189 22.2882Z" fill="#DFF2FF"/>
<path d="M65.9896 18.3481C64.5317 17.8052 62.9175 18.5117 62.3912 19.9232C61.8649 21.3346 62.6228 22.9244 64.0807 23.4673C65.5386 24.0103 67.1527 23.3037 67.679 21.8923C68.2053 20.4809 67.4475 18.891 65.9896 18.3481ZM67.2395 21.4047L65.435 20.7327L66.0864 18.9857C66.9739 19.459 67.4472 20.452 67.2395 21.4047ZM65.4989 18.7669L64.8474 20.5139L63.0429 19.8419C63.5097 18.9857 64.5179 18.5444 65.4989 18.7669ZM62.8308 20.4107L64.6353 21.0827L63.9839 22.8298C63.0971 22.3547 62.6231 21.3634 62.8308 20.4107ZM64.5714 23.0486L65.2229 21.3015L67.0274 21.9735C66.5606 22.8297 65.553 23.2693 64.5714 23.0486Z" fill="#6E0B14"/>
<path d="M75.2149 24.645L77.8874 20.5705L72.0195 18.3208L71.8855 19.963L75.2149 24.645Z" fill="#ECCDB0"/>
<path d="M76.1429 27.9289L77.0575 28.3035L78.6012 28.8553L68.0615 12.1901L51.3822 17.7061L53.2177 18.5385L53.6749 18.7258L67.4687 14.0224L76.1429 27.9289Z" fill="#6E0B14"/>
<path d="M64.116 30.4821L57.4531 28.1472L53.6194 37.889L60.2823 40.2239L64.116 30.4821Z" fill="#6E0B14"/>
<path d="M58.5614 24.2105L53.5625 22.4712L50.5451 30.099L55.544 31.8383L58.5614 24.2105Z" fill="#6E0B14"/>
<path d="M58.009 24.5102L53.7773 23.0491L51.0922 29.8005L55.3239 31.2617L58.009 24.5102Z" fill="#DFF2FF"/>
<path d="M53.3379 30.8225L52.8122 30.6894L55.7324 23.3257L56.6779 23.565L53.3379 30.8225Z" fill="#6E0B14"/>
<path d="M56.7865 27.5661L52.5156 25.6636L52.3265 26.3483L56.5974 28.2508L56.7865 27.5661Z" fill="#6E0B14"/>
<path d="M70.8876 30.326L65.8887 28.5867L62.8712 36.2145L67.8702 37.9538L70.8876 30.326Z" fill="#6E0B14"/>
<path d="M70.3352 30.626L66.1035 29.1648L63.4184 35.9162L67.6501 37.3774L70.3352 30.626Z" fill="#DDB99E"/>
<path d="M65.6641 36.9382L65.1384 36.8052L68.0586 29.4414L69.0041 29.6807L65.6641 36.9382Z" fill="#6E0B14"/>
<path d="M69.1088 33.6818L64.8379 31.7793L64.6488 32.464L68.9197 34.3665L69.1088 33.6818Z" fill="#6E0B14"/>
<path d="M78.3276 21.409L71.634 18.5394L72.0108 17.2696L78.8225 19.7412L78.3276 21.409Z" fill="#6E0B14"/>
<path d="M35.8009 30.9447L19.0043 35.0811L13.7292 14.755L26.1999 11.6845L31.5305 14.4926L35.8009 30.9447Z" fill="white"/>
<path opacity="0.8" d="M35.8009 30.9447L19.0043 35.0811L13.7292 14.755L26.1999 11.6845L31.5305 14.4926L35.8009 30.9447Z" fill="white"/>
<path d="M25.0684 11.4988L30.2698 14.2712L26.011 15.3958L25.0684 11.4988Z" fill="white"/>
<path d="M16.3674 18.9643L24.9414 16.0557L24.8534 15.5191L16.2794 18.4277L16.3674 18.9643Z" fill="#DADADA"/>
<path d="M16.8127 20.2394L25.3867 17.3308L25.2987 16.7942L16.7247 19.7028L16.8127 20.2394Z" fill="#DADADA"/>
<path d="M17.2638 21.5156L25.8379 18.6069L25.7499 18.0703L17.1758 20.979L17.2638 21.5156Z" fill="#DADADA"/>
<path d="M17.715 22.7908L30.2539 18.4939L30.1672 17.9557L17.6283 22.2527L17.715 22.7908Z" fill="#DADADA"/>
<path d="M18.1583 24.0658L30.6973 19.7688L30.6106 19.2306L18.0716 23.5276L18.1583 24.0658Z" fill="#DADADA"/>
<path d="M18.6076 25.3417L31.1465 21.0447L31.0598 20.5065L18.5209 24.8035L18.6076 25.3417Z" fill="#DADADA"/>
<path d="M19.0568 26.6178L31.5957 22.3208L31.509 21.7826L18.9701 26.0796L19.0568 26.6178Z" fill="#DADADA"/>
<path d="M19.5021 27.8931L32.041 23.5962L31.9543 23.058L19.4154 27.355L19.5021 27.8931Z" fill="#DADADA"/>
<path d="M19.9513 29.1698L32.4902 24.8728L32.4035 24.3346L19.8646 28.6316L19.9513 29.1698Z" fill="#DADADA"/>
<path d="M20.3966 30.4451L32.9355 26.1482L32.8488 25.61L20.3099 29.907L20.3966 30.4451Z" fill="#DADADA"/>
<path d="M20.8419 31.7199L33.3809 27.4229L33.2941 26.8847L20.7552 31.1817L20.8419 31.7199Z" fill="#DADADA"/>
<path d="M21.2931 32.9969L33.832 28.7L33.7453 28.1618L21.2064 32.4588L21.2931 32.9969Z" fill="#DADADA"/>
<mask id="mask0_3148_20507" style="mask-type:alpha" maskUnits="userSpaceOnUse" x="0" y="5" width="26" height="33">
<rect y="9.18188" width="19.4172" height="29.9025" rx="2" transform="rotate(-13.4831 0 9.18188)" fill="#E7CDB8"/>
</mask>
<g mask="url(#mask0_3148_20507)">
<path d="M18.1275 4.83563L18.8828 4.65454L19.1545 5.78747L0.272409 10.3148L0.000771183 9.18183L18.1275 4.83563Z" fill="#EDEDED"/>
<path d="M0 9.18188L1.40456 10.0432L8.10494 37.9886L6.97202 38.2602L6.79093 37.5049L0 9.18188Z" fill="#DADADA"/>
</g>
<rect x="0.935547" y="9.7561" width="18.6405" height="29.1258" rx="1" transform="rotate(-13.4831 0.935547 9.7561)" fill="#FEFEFE"/>
<rect x="3.63672" y="12.7021" width="14.7571" height="0.522299" rx="0.26115" transform="rotate(-13.4831 3.63672 12.7021)" fill="#DADADA"/>
<rect x="5.08789" y="18.7446" width="14.7571" height="0.522299" rx="0.26115" transform="rotate(-13.4831 5.08789 18.7446)" fill="#DADADA"/>
<rect x="6.5332" y="24.7869" width="14.7571" height="0.522299" rx="0.26115" transform="rotate(-13.4831 6.5332 24.7869)" fill="#DADADA"/>
<rect x="3.9082" y="13.8352" width="14.7571" height="0.522299" rx="0.26115" transform="rotate(-13.4831 3.9082 13.8352)" fill="#DADADA"/>
<rect x="5.35742" y="19.8774" width="14.7571" height="0.522299" rx="0.26115" transform="rotate(-13.4831 5.35742 19.8774)" fill="#DADADA"/>
<rect x="6.80664" y="25.9199" width="14.7571" height="0.522299" rx="0.26115" transform="rotate(-13.4831 6.80664 25.9199)" fill="#DADADA"/>
<rect x="4.18164" y="14.968" width="14.7571" height="0.522299" rx="0.26115" transform="rotate(-13.4831 4.18164 14.968)" fill="#DADADA"/>
<rect x="5.63086" y="21.0103" width="14.7571" height="0.522299" rx="0.26115" transform="rotate(-13.4831 5.63086 21.0103)" fill="#DADADA"/>
<rect x="7.08008" y="27.0525" width="14.7571" height="0.522299" rx="0.26115" transform="rotate(-13.4831 7.08008 27.0525)" fill="#DADADA"/>
<path d="M9.48791 33.3046L15.6511 27.3221L15.6889 27.4664L9.52448 33.4492L9.48791 33.3046Z" fill="#31302C"/>
<path d="M9.9091 31.2668C10.158 30.9893 10.4057 30.5607 10.2457 30.1554C10.148 29.9101 9.92553 29.8588 9.72253 29.9984C9.32525 30.2742 9.21919 31.0245 9.17002 31.4745C9.12708 31.8679 9.12912 32.5908 9.68404 32.5864C10.3376 32.5821 10.5782 31.5351 10.5932 31.0149C10.5953 30.9423 10.4784 30.9292 10.4642 30.9976C10.4366 31.1214 10.2578 31.9363 10.635 31.7543C10.7693 31.6898 10.7943 31.442 10.8154 31.3141C10.8545 31.0843 10.8264 30.7835 10.9235 30.5718C10.8844 30.5637 10.8451 30.5542 10.806 30.5461C10.8613 30.7374 10.8932 30.8689 11.0502 30.9917C11.0757 31.0114 11.1229 31.019 11.1423 30.9877C11.2972 30.7444 11.2305 30.4212 11.4109 30.192C11.376 30.1843 11.3425 30.1763 11.3074 30.1674C11.3204 30.2295 11.3414 30.4102 11.3569 30.493C11.3641 30.5324 11.4233 30.5444 11.4504 30.527C11.5171 30.4821 11.5331 30.4643 11.5495 30.3827C11.5141 30.378 11.4773 30.3736 11.4416 30.3676C11.6462 30.8193 11.9175 30.2622 12.0049 30.0498C12.2628 29.4234 12.3899 28.7886 12.2266 28.0996C12.214 28.0444 12.1059 28.0393 12.1215 28.1065C12.2458 28.636 12.1453 29.1699 12.1272 29.6992C12.1078 30.2727 12.119 30.8477 12.1562 31.4225C12.1903 31.4275 12.2241 31.4311 12.257 31.4364C12.1665 31.0407 12.2084 30.6377 12.2568 30.2444C12.2975 29.9124 12.3513 29.5675 12.5324 29.2871C12.5012 29.2829 12.4697 29.2773 12.4385 29.2731C12.571 29.5317 12.5347 29.8486 12.4283 30.0993C12.4102 30.1416 12.488 30.1947 12.5064 30.1537C12.6022 29.9366 12.8217 29.8244 12.9291 29.6102C13.0401 29.3882 13.0759 29.1238 13.15 28.8862C13.1237 28.8794 13.0973 28.8727 13.071 28.8659C13.1756 29.3178 13.4088 28.5229 13.4455 28.4353C13.4211 28.431 13.3958 28.4282 13.3714 28.4239C13.422 28.51 13.4751 28.5631 13.5764 28.5414C13.7775 28.4971 13.7758 28.1762 13.9185 28.1069C13.9198 28.1066 14.0007 28.1505 14.0231 28.1468C14.1171 28.1339 14.1814 28.1122 14.2534 28.0449C14.3993 27.9069 14.4847 27.6922 14.5339 27.4969C14.5464 27.4488 14.4539 27.4132 14.4385 27.4663C14.3841 27.6627 14.1888 28.1955 13.9062 28.0205C13.8899 28.0101 13.8558 28.0051 13.8463 28.0271C13.805 28.1186 13.5609 28.6101 13.441 28.4066C13.4265 28.3816 13.3814 28.3607 13.3669 28.3952C13.3321 28.4795 13.3096 28.5696 13.281 28.6568C13.2643 28.7044 13.1782 29.0029 13.1508 28.8676C13.144 28.8352 13.084 28.8092 13.0717 28.8473C12.9871 29.103 12.958 29.4211 12.8068 29.6465C12.6947 29.815 12.5146 29.9098 12.4296 30.099C12.4561 30.117 12.4812 30.1354 12.5077 30.1534C12.6259 29.8788 12.6752 29.5377 12.5308 29.2535C12.5122 29.2181 12.4598 29.2059 12.4368 29.2395C12.2529 29.5248 12.1975 29.88 12.1569 30.2176C12.1079 30.6195 12.0651 31.0298 12.1576 31.4335C12.1668 31.4753 12.2629 31.503 12.2584 31.4474C12.2194 30.8277 12.2087 30.2058 12.2389 29.5888C12.2636 29.0906 12.3431 28.5983 12.2269 28.1009C12.1919 28.1032 12.1569 28.1055 12.1219 28.1078C12.2498 28.6464 12.2023 29.13 12.0344 29.641C11.99 29.7743 11.9431 29.9081 11.8896 30.0378C11.8658 30.0956 11.6543 30.6023 11.5489 30.3587C11.5333 30.3241 11.4518 30.2888 11.441 30.3436C11.417 30.3788 11.3931 30.414 11.3694 30.4505C11.401 30.4617 11.4326 30.473 11.4629 30.4845C11.442 30.3746 11.4366 30.2668 11.4131 30.1575C11.4036 30.1143 11.3337 30.1033 11.3096 30.1329C11.1261 30.3657 11.1915 30.6892 11.034 30.9331C11.0652 30.9317 11.095 30.9305 11.1262 30.9291C11.0224 30.8168 10.9562 30.6903 10.9271 30.5483C10.914 30.5017 10.8338 30.4718 10.8097 30.5226C10.7011 30.754 10.7308 31.0771 10.6847 31.3282C10.6592 31.4657 10.536 31.8448 10.5175 31.4738C10.5098 31.3241 10.5616 31.1609 10.5939 31.0176C10.5513 31.0117 10.5074 31.0061 10.4648 31.0003C10.4508 31.4536 10.2892 32.1741 9.87987 32.413C9.35697 32.7174 9.27157 31.9681 9.29359 31.622C9.31992 31.2224 9.41562 30.8156 9.57019 30.452C9.60029 30.3815 9.631 30.308 9.67253 30.2447C9.76037 30.1101 9.79025 30.0821 9.97319 30.1339C10.1652 30.1893 10.1791 30.2442 10.1801 30.4322C10.1804 30.5256 10.1639 30.6228 10.1379 30.7094C10.0828 30.8975 9.97804 31.0628 9.86346 31.2163C9.84584 31.2387 9.89019 31.2895 9.9091 31.2668Z" fill="#31302C"/>
<path d="M7.77209 35.1203L11.8626 66.5991C12.0506 68.0447 13.3208 69.1311 14.8249 69.1311H63.9066C65.4024 69.1311 66.6684 68.0573 66.8648 66.62L71.1809 35.1412C71.419 33.4072 70.0277 31.8696 68.2227 31.8696H10.7344C8.93781 31.8655 7.54646 33.3905 7.77209 35.1203Z" fill="#DAEEF9"/>
<path d="M7.67052 35.9894L11.761 67.4682C11.949 68.9139 13.2192 70.0002 14.7234 70.0002H63.805C65.3008 70.0002 66.5668 68.9264 66.7632 67.4891L71.0793 36.0103C71.3175 34.2764 69.9261 32.7388 68.1211 32.7388H10.6329C8.83625 32.7346 7.4449 34.2638 7.67052 35.9894Z" fill="#8EBDDB"/>
<path d="M30.3601 44.0893C30.0706 44.2304 29.8887 44.5292 29.8887 44.8529V49.2766C29.8887 55.8168 33.3541 59.1616 38.5646 62.3653C38.8376 62.5313 39.1849 62.5313 39.4579 62.3653C44.6684 59.1616 48.1339 55.8251 48.1339 49.2766V44.8529C48.1339 44.5292 47.9519 44.2304 47.6624 44.0893L39.3917 39.9394C39.1519 39.8232 38.8707 39.8232 38.6308 39.9394L30.3601 44.0893Z" fill="#E6007A" stroke="#E6007A" stroke-width="0.7" stroke-miterlimit="10"/>
<path d="M32.0494 45.4778C31.8164 45.5912 31.6699 45.8314 31.6699 46.0916V49.648C31.6699 54.9058 34.4592 57.5947 38.653 60.1703C38.8727 60.3037 39.1523 60.3037 39.372 60.1703C43.5658 57.5947 46.3551 54.9125 46.3551 49.648V46.0916C46.3551 45.8314 46.2086 45.5912 45.9756 45.4778L39.3187 42.1416C39.1257 42.0482 38.8993 42.0482 38.7063 42.1416L32.0494 45.4778Z" fill="#8EBDDB"/>
<path d="M35.6719 50.4966L37.5353 52.706C37.9348 53.1797 38.6646 53.1797 39.0641 52.706L42.7919 48.2859" stroke="#E6007A" stroke-width="2" stroke-miterlimit="10" stroke-linecap="round"/>
</svg>