<svg width="285" height="211" viewBox="0 0 285 211" fill="none" xmlns="http://www.w3.org/2000/svg">
<path d="M271.035 117.954V77.5531C271.035 70.2785 265.18 64.3933 257.971 64.3933H164.392L148.758 54.1508H105.792C98.4202 54.1508 92.5151 60.2887 92.7282 67.7022L94.1951 117.954H271.035V117.954Z" fill="#BCDAEF"/>
<path d="M220.901 100.072L152.855 102.194L150.318 13.2928L200.838 11.7192L218.844 28.1135L220.901 100.072Z" fill="white"/>
<path opacity="0.8" d="M220.901 100.072L152.855 102.194L150.318 13.2928L200.838 11.7192L218.844 28.1135L220.901 100.072Z" fill="white"/>
<path d="M196.657 9.93787L214.199 26.069L196.88 26.9211L196.657 9.93787Z" fill="white"/>
<path d="M158.069 31.7792L193.661 29.0193L193.896 26.7264L158.304 29.4863L158.069 31.7792Z" fill="#DADADA"/>
<path d="M158.411 37.4815L194.003 34.7216L194.238 32.4288L158.645 35.1887L158.411 37.4815Z" fill="#DADADA"/>
<path d="M158.764 43.1879L194.356 40.4279L194.591 38.135L158.999 40.8951L158.764 43.1879Z" fill="#DADADA"/>
<path d="M159.104 48.8908L211.201 44.6772L211.443 42.3794L159.345 46.593L159.104 48.8908Z" fill="#DADADA"/>
<path d="M159.444 54.5935L211.541 50.3798L211.782 48.082L159.685 52.2957L159.444 54.5935Z" fill="#DADADA"/>
<path d="M159.793 60.3007L211.891 56.0869L212.132 53.7891L160.035 58.0029L159.793 60.3007Z" fill="#DADADA"/>
<path d="M160.141 66.0085L212.238 61.7947L212.48 59.4969L160.382 63.7107L160.141 66.0085Z" fill="#DADADA"/>
<path d="M160.481 71.7103L212.578 67.4967L212.819 65.1989L160.722 69.4126L160.481 71.7103Z" fill="#DADADA"/>
<path d="M160.826 77.4206L212.924 73.207L213.165 70.9092L161.068 75.1228L160.826 77.4206Z" fill="#DADADA"/>
<path d="M161.165 83.1214L213.262 78.9078L213.503 76.61L161.406 80.8237L161.165 83.1214Z" fill="#DADADA"/>
<path d="M161.512 88.8242L213.609 84.6103L213.851 82.3125L161.753 86.5264L161.512 88.8242Z" fill="#DADADA"/>
<path d="M161.86 94.5362L213.957 90.3224L214.198 88.0246L162.101 92.2384L161.86 94.5362Z" fill="#DADADA"/>
<mask id="mask0_3051_20273" style="mask-type:alpha" maskUnits="userSpaceOnUse" x="98" y="8" width="78" height="101">
<rect x="98.0645" y="21.4702" width="58.4043" height="89.9426" rx="2" transform="rotate(-13.4831 98.0645 21.4702)" fill="#E7CDB8"/>
</mask>
<g mask="url(#mask0_3051_20273)">
<path d="M152.586 8.39736L154.857 7.85266L155.674 11.2603L98.8798 24.8778L98.0628 21.4701L152.586 8.39736Z" fill="#EDEDED"/>
<path d="M98.0645 21.4702L102.289 24.0608L122.443 108.117L119.035 108.934L118.491 106.662L98.0645 21.4702Z" fill="#DADADA"/>
</g>
<rect x="100.881" y="23.1973" width="56.0681" height="87.6065" rx="1" transform="rotate(-13.4831 100.881 23.1973)" fill="#FEFEFE"/>
<rect x="109.01" y="32.0583" width="44.3873" height="1.571" rx="0.785502" transform="rotate(-13.4831 109.01 32.0583)" fill="#DADADA"/>
<rect x="113.369" y="50.2328" width="44.3873" height="1.571" rx="0.785502" transform="rotate(-13.4831 113.369 50.2328)" fill="#DADADA"/>
<rect x="117.727" y="68.4071" width="44.3873" height="1.571" rx="0.785502" transform="rotate(-13.4831 117.727 68.4071)" fill="#DADADA"/>
<rect x="109.828" y="35.4662" width="44.3873" height="1.571" rx="0.785502" transform="rotate(-13.4831 109.828 35.4662)" fill="#DADADA"/>
<rect x="114.184" y="53.6404" width="44.3873" height="1.571" rx="0.785502" transform="rotate(-13.4831 114.184 53.6404)" fill="#DADADA"/>
<rect x="118.545" y="71.8147" width="44.3873" height="1.571" rx="0.785502" transform="rotate(-13.4831 118.545 71.8147)" fill="#DADADA"/>
<rect x="110.646" y="38.8738" width="44.3873" height="1.571" rx="0.785502" transform="rotate(-13.4831 110.646 38.8738)" fill="#DADADA"/>
<rect x="115.004" y="57.0483" width="44.3873" height="1.571" rx="0.785502" transform="rotate(-13.4831 115.004 57.0483)" fill="#DADADA"/>
<rect x="119.361" y="75.2223" width="44.3873" height="1.571" rx="0.785502" transform="rotate(-13.4831 119.361 75.2223)" fill="#DADADA"/>
<path d="M126.603 94.0275L145.141 76.0331L145.255 76.4672L126.713 94.4624L126.603 94.0275Z" fill="#31302C"/>
<path d="M127.872 87.8988C128.621 87.0643 129.366 85.775 128.885 84.556C128.591 83.818 127.922 83.6637 127.311 84.0836C126.116 84.9131 125.797 87.17 125.649 88.5237C125.52 89.7069 125.526 91.8814 127.195 91.8679C129.161 91.8551 129.885 88.7057 129.93 87.1413C129.936 86.9226 129.585 86.8834 129.542 87.089C129.459 87.4613 128.921 89.9127 130.056 89.3652C130.46 89.1711 130.535 88.4258 130.598 88.041C130.716 87.35 130.631 86.4453 130.923 85.8083C130.806 85.7839 130.688 85.7554 130.57 85.731C130.736 86.3064 130.832 86.7019 131.305 87.0713C131.381 87.1305 131.523 87.1536 131.582 87.0594C132.048 86.3275 131.847 85.3555 132.389 84.6658C132.285 84.6428 132.184 84.6189 132.078 84.5918C132.117 84.7788 132.181 85.3222 132.227 85.5714C132.249 85.6899 132.427 85.7261 132.508 85.6735C132.709 85.5384 132.757 85.4849 132.806 85.2395C132.7 85.2254 132.589 85.2122 132.482 85.1941C133.097 86.5529 133.913 84.877 134.176 84.2381C134.952 82.3542 135.334 80.4449 134.843 78.3723C134.805 78.2063 134.48 78.1908 134.527 78.393C134.901 79.9856 134.599 81.5916 134.544 83.1837C134.486 84.9086 134.52 86.6382 134.631 88.3671C134.734 88.382 134.836 88.393 134.934 88.4088C134.662 87.2189 134.788 86.0065 134.934 84.8237C135.056 83.8251 135.218 82.7876 135.763 81.9441C135.669 81.9314 135.574 81.9147 135.48 81.902C135.879 82.6799 135.77 83.633 135.45 84.3871C135.395 84.5144 135.629 84.6741 135.685 84.5508C135.973 83.8977 136.633 83.5602 136.956 82.9161C137.29 82.2483 137.398 81.4531 137.621 80.7382C137.541 80.7179 137.462 80.6976 137.383 80.6773C137.698 82.0364 138.399 79.6457 138.509 79.3821C138.436 79.369 138.36 79.3608 138.286 79.3476C138.439 79.6069 138.598 79.7664 138.903 79.7013C139.508 79.568 139.503 78.6026 139.932 78.3943C139.936 78.3934 140.179 78.5254 140.247 78.5143C140.529 78.4756 140.723 78.4103 140.939 78.2077C141.378 77.7928 141.635 77.1468 141.783 76.5596C141.821 76.4148 141.542 76.3078 141.496 76.4673C141.333 77.0581 140.745 78.6607 139.895 78.1344C139.846 78.103 139.743 78.088 139.715 78.1542C139.591 78.4293 138.857 79.9078 138.496 79.2958C138.452 79.2206 138.317 79.1577 138.273 79.2613C138.168 79.5151 138.101 79.7859 138.015 80.0482C137.964 80.1916 137.705 81.0893 137.623 80.6823C137.602 80.5847 137.422 80.5066 137.385 80.6214C137.131 81.3904 137.043 82.3471 136.588 83.0253C136.251 83.5321 135.709 83.8171 135.454 84.3862C135.533 84.4405 135.609 84.4956 135.689 84.5499C136.044 83.7239 136.192 82.698 135.758 81.8431C135.702 81.7365 135.545 81.7 135.475 81.8009C134.922 82.6591 134.756 83.7274 134.633 84.743C134.486 85.9518 134.357 87.186 134.636 88.4002C134.663 88.5259 134.952 88.6092 134.939 88.4419C134.822 86.578 134.789 84.7076 134.88 82.8517C134.954 81.3531 135.194 79.8722 134.844 78.3763C134.739 78.3832 134.633 78.3901 134.528 78.3971C134.913 80.017 134.77 81.4716 134.265 83.0087C134.131 83.4095 133.99 83.8121 133.829 84.2021C133.758 84.3759 133.122 85.9001 132.805 85.1675C132.758 85.0632 132.513 84.9572 132.48 85.1221C132.408 85.2279 132.336 85.3337 132.265 85.4436C132.36 85.4773 132.455 85.511 132.546 85.5457C132.483 85.2151 132.467 84.8909 132.396 84.5621C132.367 84.4324 132.157 84.3993 132.085 84.4881C131.533 85.1885 131.73 86.1614 131.256 86.8951C131.35 86.8908 131.439 86.8874 131.533 86.8831C131.221 86.5453 131.022 86.1648 130.934 85.7376C130.895 85.5976 130.654 85.5077 130.581 85.6604C130.255 86.3564 130.344 87.3282 130.205 88.0835C130.129 88.497 129.758 89.6373 129.702 88.5216C129.679 88.0712 129.835 87.5802 129.932 87.1493C129.804 87.1316 129.672 87.1148 129.544 87.0971C129.502 88.4608 129.016 90.6279 127.784 91.3465C126.212 92.262 125.955 90.0083 126.021 88.9671C126.1 87.7654 126.388 86.5417 126.853 85.4481C126.943 85.2359 127.036 85.0148 127.161 84.8246C127.425 84.4196 127.515 84.3353 128.065 84.4912C128.643 84.6578 128.685 84.8229 128.688 85.3885C128.689 85.6693 128.639 85.9617 128.561 86.2222C128.395 86.7879 128.08 87.2853 127.735 87.7469C127.682 87.8143 127.815 87.9671 127.872 87.8988Z" fill="#31302C"/>
<mask id="mask1_3051_20273" style="mask-type:alpha" maskUnits="userSpaceOnUse" x="201" y="17" width="83" height="103">
<rect x="228.371" y="16.8526" width="58.4043" height="89.9426" rx="2" transform="rotate(17.6738 228.371 16.8526)" fill="#E7CDB8"/>
</mask>
<g mask="url(#mask1_3051_20273)">
<path d="M281.792 33.8742L284.018 34.5834L282.954 37.9223L227.306 20.1909L228.37 16.852L281.792 33.8742Z" fill="#EDEDED"/>
<path d="M228.371 16.8526L230.646 21.2554L204.404 103.614L201.065 102.55L201.774 100.324L228.371 16.8526Z" fill="#DADADA"/>
</g>
<rect x="229.888" y="19.7879" width="56.0681" height="87.6065" rx="1" transform="rotate(17.6738 229.888 19.7879)" fill="#FEFEFE"/>
<rect x="232.26" y="31.5766" width="44.3873" height="1.571" rx="0.785502" transform="rotate(17.6738 232.26 31.5766)" fill="#DADADA"/>
<rect x="226.586" y="49.3845" width="44.3873" height="1.571" rx="0.785502" transform="rotate(17.6738 226.586 49.3845)" fill="#DADADA"/>
<rect x="220.912" y="67.1919" width="44.3873" height="1.571" rx="0.785502" transform="rotate(17.6738 220.912 67.1919)" fill="#DADADA"/>
<rect x="231.195" y="34.9157" width="44.3873" height="1.571" rx="0.785502" transform="rotate(17.6738 231.195 34.9157)" fill="#DADADA"/>
<rect x="225.521" y="52.7225" width="44.3873" height="1.571" rx="0.785502" transform="rotate(17.6738 225.521 52.7225)" fill="#DADADA"/>
<rect x="219.849" y="70.5308" width="44.3873" height="1.571" rx="0.785502" transform="rotate(17.6738 219.849 70.5308)" fill="#DADADA"/>
<rect x="230.134" y="38.2559" width="44.3873" height="1.571" rx="0.785502" transform="rotate(17.6738 230.134 38.2559)" fill="#DADADA"/>
<rect x="224.459" y="56.0626" width="44.3873" height="1.571" rx="0.785502" transform="rotate(17.6738 224.459 56.0626)" fill="#DADADA"/>
<rect x="218.785" y="73.8698" width="44.3873" height="1.571" rx="0.785502" transform="rotate(17.6738 218.785 73.8698)" fill="#DADADA"/>
<path d="M215.255 93.7097L240.428 87.9022L240.301 88.3326L215.124 94.1388L215.255 93.7097Z" fill="#31302C"/>
<path d="M219.511 89.1218C220.584 88.7951 221.889 88.0772 222.107 86.785C222.238 86.0015 221.745 85.5231 221.005 85.5666C219.553 85.6582 218.113 87.4245 217.286 88.5064C216.563 89.4522 215.443 91.3161 216.879 92.1682C218.567 93.1743 220.816 90.8536 221.664 89.5382C221.783 89.3544 221.502 89.1388 221.359 89.2927C221.095 89.5683 219.367 91.3879 220.621 91.5063C221.067 91.5493 221.517 90.9504 221.771 90.6539C222.229 90.1234 222.625 89.3054 223.204 88.9114C223.116 88.8298 223.03 88.7442 222.942 88.6626C222.786 89.2409 222.664 89.629 222.877 90.1895C222.912 90.2799 223.021 90.373 223.12 90.3227C223.897 89.9374 224.229 89.0018 225.05 88.6922C224.972 88.6184 224.898 88.5458 224.822 88.4679C224.758 88.6481 224.531 89.1459 224.442 89.3832C224.399 89.4959 224.533 89.6189 224.63 89.6161C224.872 89.6043 224.941 89.5834 225.11 89.3989C225.026 89.3317 224.938 89.2633 224.855 89.1921C224.679 90.6734 226.245 89.6615 226.8 89.2507C228.439 88.04 229.754 86.6038 230.406 84.576C230.459 84.4144 230.189 84.2329 230.124 84.4302C229.62 85.9866 228.531 87.2044 227.66 88.5386C226.718 89.9847 225.852 91.4822 225.053 93.0195C225.133 93.0855 225.215 93.1474 225.291 93.2121C225.674 92.053 226.409 91.0807 227.145 90.1439C227.767 89.3526 228.442 88.5485 229.345 88.1085C229.271 88.0491 229.198 87.9857 229.125 87.9262C229.063 88.7982 228.477 89.5574 227.813 90.037C227.7 90.1179 227.818 90.3756 227.929 90.2987C228.513 89.8888 229.253 89.9416 229.863 89.5577C230.494 89.1589 230.998 88.5341 231.558 88.0377C231.501 87.9793 231.444 87.9209 231.386 87.8625C230.953 89.1885 232.79 87.5054 233.021 87.337C232.965 87.2879 232.904 87.2414 232.848 87.1922C232.844 87.4927 232.898 87.7119 233.192 87.814C233.779 88.0128 234.274 87.184 234.749 87.2278C234.753 87.229 234.893 87.4679 234.956 87.4933C235.218 87.6064 235.418 87.6507 235.708 87.5894C236.298 87.4614 236.852 87.0414 237.282 86.6155C237.389 86.511 237.207 86.2754 237.085 86.3881C236.639 86.8089 235.307 87.8764 234.852 86.9863C234.826 86.934 234.746 86.8681 234.687 86.9099C234.439 87.0812 233.046 87.9665 233.054 87.2561C233.055 87.1692 232.972 87.0453 232.881 87.1113C232.66 87.2743 232.462 87.4711 232.253 87.651C232.135 87.7478 231.449 88.382 231.589 87.991C231.622 87.897 231.508 87.7367 231.417 87.8159C230.802 88.3423 230.232 89.1156 229.492 89.4608C228.941 89.7199 228.33 89.6836 227.817 90.0383C227.857 90.1259 227.893 90.2123 227.933 90.3C228.664 89.7771 229.322 88.9759 229.393 88.0195C229.4 87.8995 229.284 87.7867 229.173 87.8372C228.255 88.2854 227.56 89.1134 226.93 89.9193C226.178 90.8774 225.43 91.8671 225.04 93.05C224.998 93.1719 225.202 93.3927 225.277 93.2426C226.142 91.587 227.082 89.9696 228.12 88.4285C228.958 87.1844 229.929 86.041 230.404 84.58C230.311 84.5314 230.217 84.4828 230.123 84.4342C229.614 86.0196 228.74 87.1905 227.512 88.2445C227.19 88.5184 226.861 88.7899 226.522 89.0404C226.371 89.1521 225.038 90.1274 225.145 89.3364C225.159 89.2229 225.004 89.0053 224.891 89.1296C224.775 89.1829 224.658 89.2361 224.541 89.2933C224.604 89.3714 224.668 89.4494 224.728 89.5262C224.846 89.2107 225 88.925 225.109 88.607C225.152 88.4811 224.989 88.344 224.881 88.3826C224.046 88.6964 223.711 89.6307 222.926 90.0135C223.009 90.0583 223.087 90.1018 223.17 90.1467C223.077 89.6961 223.104 89.2675 223.25 88.8567C223.289 88.7164 223.129 88.5147 222.988 88.6078C222.348 89.0344 221.922 89.9122 221.412 90.487C221.133 90.8011 220.226 91.5851 220.755 90.6016C220.968 90.2042 221.356 89.8646 221.662 89.5461C221.561 89.4647 221.457 89.382 221.357 89.3006C220.615 90.4457 219.078 92.0488 217.652 92.0267C215.833 91.9964 216.779 89.9349 217.374 89.0782C218.064 88.0907 218.943 87.1925 219.907 86.4972C220.094 86.3625 220.288 86.221 220.493 86.1229C220.929 85.913 221.049 85.8874 221.439 86.3055C221.848 86.747 221.798 86.9098 221.508 87.3954C221.363 87.6362 221.17 87.8607 220.968 88.0431C220.533 88.4414 220.006 88.7041 219.473 88.9208C219.392 88.9511 219.427 89.1508 219.511 89.1218Z" fill="#31302C"/>
<path d="M87.4375 105.49L99.7412 200.174C100.307 204.522 104.127 207.79 108.652 207.79H256.283C260.782 207.79 264.59 204.56 265.18 200.237L278.163 105.553C278.879 100.337 274.694 95.7125 269.265 95.7125H96.3479C90.9439 95.6999 86.7589 100.287 87.4375 105.49Z" fill="#DAEEF9"/>
<path d="M87.1368 108.104L99.4404 202.788C100.006 207.136 103.826 210.404 108.351 210.404H255.982C260.481 210.404 264.289 207.174 264.88 202.851L277.862 108.167C278.578 102.951 274.393 98.3264 268.964 98.3264H96.0471C90.6431 98.3138 86.4581 102.914 87.1368 108.104Z" fill="#8EBDDB"/>
<path d="M171.688 148.252C170.656 148.252 169.66 148.126 168.7 147.874C167.752 147.61 166.978 147.274 166.378 146.866L167.548 144.238C168.112 144.598 168.76 144.898 169.492 145.138C170.236 145.366 170.974 145.48 171.706 145.48C172.198 145.48 172.594 145.438 172.894 145.354C173.194 145.258 173.41 145.138 173.542 144.994C173.686 144.838 173.758 144.658 173.758 144.454C173.758 144.166 173.626 143.938 173.362 143.77C173.098 143.602 172.756 143.464 172.336 143.356C171.916 143.248 171.448 143.14 170.932 143.032C170.428 142.924 169.918 142.786 169.402 142.618C168.898 142.45 168.436 142.234 168.016 141.97C167.596 141.694 167.254 141.34 166.99 140.908C166.726 140.464 166.594 139.906 166.594 139.234C166.594 138.478 166.798 137.794 167.206 137.182C167.626 136.57 168.25 136.078 169.078 135.706C169.906 135.334 170.938 135.148 172.174 135.148C173.002 135.148 173.812 135.244 174.604 135.436C175.408 135.616 176.122 135.886 176.746 136.246L175.648 138.892C175.048 138.568 174.454 138.328 173.866 138.172C173.278 138.004 172.708 137.92 172.156 137.92C171.664 137.92 171.268 137.974 170.968 138.082C170.668 138.178 170.452 138.31 170.32 138.478C170.188 138.646 170.122 138.838 170.122 139.054C170.122 139.33 170.248 139.552 170.5 139.72C170.764 139.876 171.106 140.008 171.526 140.116C171.958 140.212 172.426 140.314 172.93 140.422C173.446 140.53 173.956 140.668 174.46 140.836C174.976 140.992 175.444 141.208 175.864 141.484C176.284 141.748 176.62 142.102 176.872 142.546C177.136 142.978 177.268 143.524 177.268 144.184C177.268 144.916 177.058 145.594 176.638 146.218C176.23 146.83 175.612 147.322 174.784 147.694C173.968 148.066 172.936 148.252 171.688 148.252ZM183.108 148.162C181.86 148.162 180.888 147.856 180.192 147.244C179.496 146.62 179.148 145.684 179.148 144.436V136.066H182.568V144.4C182.568 144.748 182.664 145.024 182.856 145.228C183.048 145.42 183.294 145.516 183.594 145.516C184.002 145.516 184.35 145.414 184.638 145.21L185.484 147.604C185.196 147.796 184.842 147.934 184.422 148.018C184.002 148.114 183.564 148.162 183.108 148.162ZM177.726 141.16V138.604H184.8V141.16H177.726ZM192.761 148V146.182L192.527 145.732V142.384C192.527 141.844 192.359 141.43 192.023 141.142C191.699 140.842 191.177 140.692 190.457 140.692C189.989 140.692 189.515 140.77 189.035 140.926C188.555 141.07 188.147 141.274 187.811 141.538L186.659 139.216C187.211 138.856 187.871 138.58 188.639 138.388C189.419 138.184 190.193 138.082 190.961 138.082C192.545 138.082 193.769 138.448 194.633 139.18C195.509 139.9 195.947 141.034 195.947 142.582V148H192.761ZM189.881 148.162C189.101 148.162 188.441 148.03 187.901 147.766C187.361 147.502 186.947 147.142 186.659 146.686C186.383 146.23 186.245 145.72 186.245 145.156C186.245 144.556 186.395 144.04 186.695 143.608C187.007 143.164 187.481 142.828 188.117 142.6C188.753 142.36 189.575 142.24 190.583 142.24H192.887V144.022H191.051C190.499 144.022 190.109 144.112 189.881 144.292C189.665 144.472 189.557 144.712 189.557 145.012C189.557 145.312 189.671 145.552 189.899 145.732C190.127 145.912 190.439 146.002 190.835 146.002C191.207 146.002 191.543 145.912 191.843 145.732C192.155 145.54 192.383 145.252 192.527 144.868L192.995 146.128C192.815 146.8 192.461 147.31 191.933 147.658C191.417 147.994 190.733 148.162 189.881 148.162ZM202.462 148.162C201.214 148.162 200.242 147.856 199.546 147.244C198.85 146.62 198.502 145.684 198.502 144.436V136.066H201.922V144.4C201.922 144.748 202.018 145.024 202.21 145.228C202.402 145.42 202.648 145.516 202.948 145.516C203.356 145.516 203.704 145.414 203.992 145.21L204.838 147.604C204.55 147.796 204.196 147.934 203.776 148.018C203.356 148.114 202.918 148.162 202.462 148.162ZM197.08 141.16V138.604H204.154V141.16H197.08ZM210.987 148.162C209.835 148.162 208.827 147.946 207.963 147.514C207.111 147.07 206.445 146.47 205.965 145.714C205.497 144.946 205.263 144.076 205.263 143.104C205.263 142.132 205.491 141.268 205.947 140.512C206.415 139.744 207.057 139.15 207.873 138.73C208.689 138.298 209.607 138.082 210.627 138.082C211.587 138.082 212.463 138.28 213.255 138.676C214.047 139.06 214.677 139.63 215.145 140.386C215.613 141.142 215.847 142.06 215.847 143.14C215.847 143.26 215.841 143.398 215.829 143.554C215.817 143.71 215.805 143.854 215.793 143.986H208.071V142.186H213.975L212.679 142.69C212.691 142.246 212.607 141.862 212.427 141.538C212.259 141.214 212.019 140.962 211.707 140.782C211.407 140.602 211.053 140.512 210.645 140.512C210.237 140.512 209.877 140.602 209.565 140.782C209.265 140.962 209.031 141.22 208.863 141.556C208.695 141.88 208.611 142.264 208.611 142.708V143.23C208.611 143.71 208.707 144.124 208.899 144.472C209.103 144.82 209.391 145.09 209.763 145.282C210.135 145.462 210.579 145.552 211.095 145.552C211.575 145.552 211.983 145.486 212.319 145.354C212.667 145.21 213.009 144.994 213.345 144.706L215.145 146.578C214.677 147.094 214.101 147.49 213.417 147.766C212.733 148.03 211.923 148.162 210.987 148.162ZM230.132 138.082C230.888 138.082 231.56 138.238 232.148 138.55C232.748 138.85 233.216 139.318 233.552 139.954C233.9 140.59 234.074 141.412 234.074 142.42V148H230.654V142.978C230.654 142.282 230.522 141.778 230.258 141.466C229.994 141.142 229.634 140.98 229.178 140.98C228.854 140.98 228.56 141.058 228.296 141.214C228.032 141.37 227.828 141.61 227.684 141.934C227.54 142.246 227.468 142.654 227.468 143.158V148H224.048V142.978C224.048 142.282 223.916 141.778 223.652 141.466C223.4 141.142 223.04 140.98 222.572 140.98C222.236 140.98 221.936 141.058 221.672 141.214C221.42 141.37 221.216 141.61 221.06 141.934C220.916 142.246 220.844 142.654 220.844 143.158V148H217.424V138.244H220.682V140.962L220.034 140.188C220.394 139.492 220.886 138.97 221.51 138.622C222.134 138.262 222.83 138.082 223.598 138.082C224.474 138.082 225.242 138.31 225.902 138.766C226.574 139.21 227.024 139.906 227.252 140.854L226.136 140.62C226.484 139.828 227.006 139.21 227.702 138.766C228.41 138.31 229.22 138.082 230.132 138.082ZM241.468 148.162C240.316 148.162 239.308 147.946 238.444 147.514C237.592 147.07 236.926 146.47 236.446 145.714C235.978 144.946 235.744 144.076 235.744 143.104C235.744 142.132 235.972 141.268 236.428 140.512C236.896 139.744 237.538 139.15 238.354 138.73C239.17 138.298 240.088 138.082 241.108 138.082C242.068 138.082 242.944 138.28 243.736 138.676C244.528 139.06 245.158 139.63 245.626 140.386C246.094 141.142 246.328 142.06 246.328 143.14C246.328 143.26 246.322 143.398 246.31 143.554C246.298 143.71 246.286 143.854 246.274 143.986H238.552V142.186H244.456L243.16 142.69C243.172 142.246 243.088 141.862 242.908 141.538C242.74 141.214 242.5 140.962 242.188 140.782C241.888 140.602 241.534 140.512 241.126 140.512C240.718 140.512 240.358 140.602 240.046 140.782C239.746 140.962 239.512 141.22 239.344 141.556C239.176 141.88 239.092 142.264 239.092 142.708V143.23C239.092 143.71 239.188 144.124 239.38 144.472C239.584 144.82 239.872 145.09 240.244 145.282C240.616 145.462 241.06 145.552 241.576 145.552C242.056 145.552 242.464 145.486 242.8 145.354C243.148 145.21 243.49 144.994 243.826 144.706L245.626 146.578C245.158 147.094 244.582 147.49 243.898 147.766C243.214 148.03 242.404 148.162 241.468 148.162ZM254.259 138.082C255.015 138.082 255.699 138.238 256.311 138.55C256.923 138.85 257.403 139.318 257.751 139.954C258.111 140.59 258.291 141.412 258.291 142.42V148H254.871V142.978C254.871 142.282 254.727 141.778 254.439 141.466C254.163 141.142 253.773 140.98 253.269 140.98C252.909 140.98 252.579 141.064 252.279 141.232C251.979 141.388 251.745 141.634 251.577 141.97C251.409 142.306 251.325 142.744 251.325 143.284V148H247.905V138.244H251.163V141.016L250.533 140.206C250.905 139.498 251.415 138.97 252.063 138.622C252.711 138.262 253.443 138.082 254.259 138.082ZM264.794 148.162C263.546 148.162 262.574 147.856 261.878 147.244C261.182 146.62 260.834 145.684 260.834 144.436V136.066H264.254V144.4C264.254 144.748 264.35 145.024 264.542 145.228C264.734 145.42 264.98 145.516 265.28 145.516C265.688 145.516 266.036 145.414 266.324 145.21L267.17 147.604C266.882 147.796 266.528 147.934 266.108 148.018C265.688 148.114 265.25 148.162 264.794 148.162ZM259.412 141.16V138.604H266.486V141.16H259.412ZM171.994 170.162C170.926 170.162 169.978 169.946 169.15 169.514C168.322 169.082 167.668 168.488 167.188 167.732C166.72 166.964 166.486 166.088 166.486 165.104C166.486 164.12 166.72 163.25 167.188 162.494C167.668 161.738 168.322 161.15 169.15 160.73C169.978 160.298 170.926 160.082 171.994 160.082C173.062 160.082 174.01 160.298 174.838 160.73C175.678 161.15 176.332 161.738 176.8 162.494C177.268 163.25 177.502 164.12 177.502 165.104C177.502 166.088 177.268 166.964 176.8 167.732C176.332 168.488 175.678 169.082 174.838 169.514C174.01 169.946 173.062 170.162 171.994 170.162ZM171.994 167.444C172.39 167.444 172.738 167.354 173.038 167.174C173.35 166.994 173.596 166.73 173.776 166.382C173.956 166.022 174.046 165.596 174.046 165.104C174.046 164.612 173.956 164.198 173.776 163.862C173.596 163.514 173.35 163.25 173.038 163.07C172.738 162.89 172.39 162.8 171.994 162.8C171.61 162.8 171.262 162.89 170.95 163.07C170.65 163.25 170.404 163.514 170.212 163.862C170.032 164.198 169.942 164.612 169.942 165.104C169.942 165.596 170.032 166.022 170.212 166.382C170.404 166.73 170.65 166.994 170.95 167.174C171.262 167.354 171.61 167.444 171.994 167.444ZM179.482 170V160.352C179.482 159.176 179.83 158.24 180.526 157.544C181.234 156.836 182.242 156.482 183.55 156.482C183.97 156.482 184.384 156.524 184.792 156.608C185.2 156.692 185.542 156.818 185.818 156.986L184.972 159.398C184.828 159.314 184.666 159.248 184.486 159.2C184.306 159.14 184.126 159.11 183.946 159.11C183.586 159.11 183.304 159.218 183.1 159.434C182.908 159.638 182.812 159.956 182.812 160.388V161.09L182.902 162.512V170H179.482ZM178.06 163.16V160.604H185.134V163.16H178.06ZM195.111 162.926H200.925V165.68H195.111V162.926ZM195.363 170H191.799V157.4H201.681V160.154H195.363V170ZM208.915 170V168.182L208.681 167.732V164.384C208.681 163.844 208.513 163.43 208.177 163.142C207.853 162.842 207.331 162.692 206.611 162.692C206.143 162.692 205.669 162.77 205.189 162.926C204.709 163.07 204.301 163.274 203.965 163.538L202.813 161.216C203.365 160.856 204.025 160.58 204.793 160.388C205.573 160.184 206.347 160.082 207.115 160.082C208.699 160.082 209.923 160.448 210.787 161.18C211.663 161.9 212.101 163.034 212.101 164.582V170H208.915ZM206.035 170.162C205.255 170.162 204.595 170.03 204.055 169.766C203.515 169.502 203.101 169.142 202.813 168.686C202.537 168.23 202.399 167.72 202.399 167.156C202.399 166.556 202.549 166.04 202.849 165.608C203.161 165.164 203.635 164.828 204.271 164.6C204.907 164.36 205.729 164.24 206.737 164.24H209.041V166.022H207.205C206.653 166.022 206.263 166.112 206.035 166.292C205.819 166.472 205.711 166.712 205.711 167.012C205.711 167.312 205.825 167.552 206.053 167.732C206.281 167.912 206.593 168.002 206.989 168.002C207.361 168.002 207.697 167.912 207.997 167.732C208.309 167.54 208.537 167.252 208.681 166.868L209.149 168.128C208.969 168.8 208.615 169.31 208.087 169.658C207.571 169.994 206.887 170.162 206.035 170.162ZM219.369 170.162C218.289 170.162 217.323 169.946 216.471 169.514C215.631 169.082 214.971 168.488 214.491 167.732C214.011 166.964 213.771 166.088 213.771 165.104C213.771 164.12 214.011 163.25 214.491 162.494C214.971 161.738 215.631 161.15 216.471 160.73C217.323 160.298 218.289 160.082 219.369 160.082C220.473 160.082 221.427 160.316 222.231 160.784C223.035 161.252 223.605 161.912 223.941 162.764L221.295 164.114C221.067 163.658 220.785 163.328 220.449 163.124C220.113 162.908 219.747 162.8 219.351 162.8C218.955 162.8 218.595 162.89 218.271 163.07C217.947 163.25 217.689 163.514 217.497 163.862C217.317 164.198 217.227 164.612 217.227 165.104C217.227 165.608 217.317 166.034 217.497 166.382C217.689 166.73 217.947 166.994 218.271 167.174C218.595 167.354 218.955 167.444 219.351 167.444C219.747 167.444 220.113 167.342 220.449 167.138C220.785 166.922 221.067 166.586 221.295 166.13L223.941 167.48C223.605 168.332 223.035 168.992 222.231 169.46C221.427 169.928 220.473 170.162 219.369 170.162ZM229.743 170.162C228.495 170.162 227.523 169.856 226.827 169.244C226.131 168.62 225.783 167.684 225.783 166.436V158.066H229.203V166.4C229.203 166.748 229.299 167.024 229.491 167.228C229.683 167.42 229.929 167.516 230.229 167.516C230.637 167.516 230.985 167.414 231.273 167.21L232.119 169.604C231.831 169.796 231.477 169.934 231.057 170.018C230.637 170.114 230.199 170.162 229.743 170.162ZM224.361 163.16V160.604H231.435V163.16H224.361ZM236.984 170.162C236.156 170.162 235.346 170.066 234.554 169.874C233.774 169.682 233.144 169.442 232.664 169.154L233.69 166.814C234.146 167.09 234.68 167.312 235.292 167.48C235.904 167.636 236.504 167.714 237.092 167.714C237.668 167.714 238.064 167.654 238.28 167.534C238.508 167.414 238.622 167.252 238.622 167.048C238.622 166.856 238.514 166.718 238.298 166.634C238.094 166.538 237.818 166.466 237.47 166.418C237.134 166.37 236.762 166.316 236.354 166.256C235.946 166.196 235.532 166.118 235.112 166.022C234.704 165.914 234.326 165.758 233.978 165.554C233.642 165.338 233.372 165.05 233.168 164.69C232.964 164.33 232.862 163.874 232.862 163.322C232.862 162.698 233.042 162.146 233.402 161.666C233.774 161.174 234.314 160.79 235.022 160.514C235.73 160.226 236.594 160.082 237.614 160.082C238.298 160.082 238.988 160.154 239.684 160.298C240.392 160.43 240.986 160.634 241.466 160.91L240.44 163.232C239.96 162.956 239.48 162.77 239 162.674C238.52 162.566 238.064 162.512 237.632 162.512C237.056 162.512 236.648 162.578 236.408 162.71C236.18 162.842 236.066 163.004 236.066 163.196C236.066 163.388 236.168 163.538 236.372 163.646C236.576 163.742 236.846 163.82 237.182 163.88C237.53 163.928 237.908 163.982 238.316 164.042C238.724 164.09 239.132 164.168 239.54 164.276C239.96 164.384 240.338 164.546 240.674 164.762C241.022 164.966 241.298 165.248 241.502 165.608C241.706 165.956 241.808 166.406 241.808 166.958C241.808 167.558 241.622 168.098 241.25 168.578C240.89 169.058 240.35 169.442 239.63 169.73C238.922 170.018 238.04 170.162 236.984 170.162Z" fill="white"/>
<path d="M103.57 132.831C102.7 133.256 102.152 134.154 102.152 135.128V148.434C102.152 168.106 112.576 178.167 128.249 187.803C129.069 188.302 130.114 188.302 130.935 187.803C146.608 178.167 157.031 168.131 157.031 148.434V135.128C157.031 134.154 156.484 133.256 155.613 132.831L130.736 120.349C130.015 120 129.169 120 128.448 120.349L103.57 132.831Z" fill="#E6007A" stroke="#E6007A" stroke-width="2" stroke-miterlimit="10"/>
<path d="M108.647 137.008C107.946 137.349 107.506 138.072 107.506 138.854V149.551C107.506 165.366 115.896 173.454 128.51 181.201C129.171 181.602 130.012 181.602 130.673 181.201C143.287 173.454 151.677 165.386 151.677 149.551V138.854C151.677 138.072 151.236 137.349 150.536 137.008L130.512 126.973C129.932 126.692 129.251 126.692 128.67 126.973L108.647 137.008Z" fill="#8EBDDB" stroke="#E6007A" stroke-width="2" stroke-miterlimit="10"/>
<path d="M119.553 152.104L126.692 160.569C127.092 161.043 127.822 161.043 128.221 160.569L140.969 145.454" stroke="#E6007A" stroke-width="4" stroke-miterlimit="10" stroke-linecap="round"/>
<path d="M32.1855 65.4106V89.263C32.1855 89.263 16.5376 91.2571 15.9767 90.6545C15.4158 90.0545 14.5549 62.5101 14.5549 62.5101L32.1855 65.4106Z" fill="black"/>
<path d="M59.8644 192.966C59.8644 192.966 57.715 192.818 57.4984 194.301C57.2846 195.784 57.1485 198.453 57.3651 202.305C57.5789 206.161 57.4984 207.197 57.4984 207.197C57.4984 207.197 57.5512 210 60.1865 210C62.8218 210 65.0239 210 65.0239 210C65.0239 210 66.5567 209.769 66.3957 207.642C66.2346 205.517 66.2318 204.751 66.4068 201.736C66.5817 198.721 66.2874 193.655 65.4265 193.336C64.5657 193.014 59.8644 192.966 59.8644 192.966Z" fill="black"/>
<path d="M67.6419 114.519H59.401C58.8613 114.519 58.3628 114.797 58.0935 115.248L56.7371 117.036C56.4678 117.488 55.9692 117.766 55.4296 117.766H35.3565V138.182C35.3565 139.254 36.2572 140.123 37.3682 140.123H67.8027C68.9137 140.123 69.8145 139.254 69.8145 138.182V120.031C69.8145 118.53 69.5742 117.038 69.1022 115.608C68.9293 114.967 68.329 114.519 67.6419 114.519Z" fill="#64A5CF"/>
<path d="M40.193 117.432H66.6797V128.23H40.193V117.432Z" fill="#EBF0F3"/>
<path d="M36.8652 115.489H45.1698C45.7604 115.489 46.2967 115.822 46.5421 116.34L47.9632 119.342C48.2087 119.86 48.7449 120.193 49.3355 120.193H69.8145V138.667C69.8145 139.739 68.9137 140.608 67.8027 140.608H37.3682C36.2571 140.608 35.3564 139.739 35.3564 138.667V116.946C35.3564 116.141 36.032 115.489 36.8652 115.489Z" fill="#8EBDDB"/>
<path d="M57.1569 126.548C57.3196 126.622 57.4219 126.777 57.4219 126.946V129.249C57.4219 132.655 55.4738 134.397 52.5448 136.065C52.3913 136.151 52.1961 136.151 52.0426 136.065C49.1136 134.397 47.1655 132.659 47.1655 129.249V126.946C47.1655 126.777 47.2678 126.622 47.4305 126.548L52.0798 124.387C52.2147 124.327 52.3727 124.327 52.5076 124.387L57.1569 126.548Z" fill="#E6007A" stroke="#E6007A" stroke-width="2" stroke-miterlimit="10"/>
<path d="M56.3475 127.04C56.4831 127.104 56.5684 127.238 56.5684 127.384V129.381C56.5684 132.332 54.945 133.842 52.5041 135.288C52.3762 135.363 52.2135 135.363 52.0857 135.288C49.6448 133.842 48.0214 132.336 48.0214 129.381V127.384C48.0214 127.238 48.1066 127.104 48.2422 127.04L52.1167 125.167C52.229 125.115 52.3607 125.115 52.4731 125.167L56.3475 127.04Z" fill="#8EBDDB"/>
<path d="M54.0039 129.806L52.5844 131.415L50.1578 128.664" stroke="#E6007A" stroke-width="2" stroke-miterlimit="10" stroke-linecap="round" stroke-linejoin="round"/>
<path d="M44.3311 102.407C42.6122 97.5993 42.1095 92.3269 42.1095 92.3269C41.8124 90.0979 49.5628 90.3175 49.9515 91.7039C50.3459 93.0878 50.543 107.271 50.5958 108.045C50.6485 108.818 51.8843 110.45 52.1897 110.861C52.4952 111.272 52.9978 111.864 53.2838 112.293C53.5699 112.722 55.522 115.738 56.0247 116.478C56.2279 116.778 56.3022 117.076 56.3066 117.426H50.274C50.1053 117.31 49.9339 117.195 49.7766 117.086C49.4464 116.855 48.9949 117.003 48.6077 117.426C48.2199 117.85 47.8967 118.551 47.8244 119.424C47.6828 121.171 45.8362 121.993 45.353 122.241C44.8698 122.488 44.6004 122.522 44.6004 122.522C44.6004 122.522 44.456 122.108 44.8864 121.005C45.3141 119.902 45.278 117.218 45.2613 116.361C45.2447 115.503 45.3863 114.647 45.6556 114.111C46.5526 111.977 46.1944 108.765 46.1944 108.765C46.1944 108.765 46.05 107.217 44.3311 102.407Z" fill="#E0A680"/>
<path d="M44.3315 102.407C42.6126 97.5968 42.11 92.3269 42.11 92.3269C41.8128 90.0979 49.5632 90.3175 49.9575 91.7013C50.0408 91.9924 50.113 92.8477 50.1797 94.0222C49.1078 94.5737 47.1778 95.1508 43.8289 95.0614C43.4706 95.0716 43.2679 95.5057 43.2568 95.7201C43.2291 96.2385 43.8094 99.0394 44.6536 102.022C45.1424 103.75 45.9838 105.805 46.1393 107.039C46.5697 110.399 46.4531 111.124 46.3448 111.882C46.2365 112.641 46.0226 114.377 46.0226 114.377C46.0226 114.377 45.9949 114.847 46.0671 116.016C46.1393 117.185 46.5142 118.947 46.031 120.267C45.7894 120.923 45.4756 121.697 45.2173 122.307C44.8174 122.493 44.5981 122.524 44.5981 122.524C44.5981 122.524 44.4537 122.113 44.8841 121.007C45.3145 119.904 45.2784 117.218 45.259 116.363C45.2423 115.508 45.3839 114.65 45.6533 114.114C46.5502 111.982 46.192 108.767 46.192 108.767C46.192 108.767 46.0532 107.217 44.3315 102.407Z" fill="#C88E69"/>
<path d="M47.8274 119.422C47.969 117.676 49.1187 116.621 49.7796 117.083C49.9397 117.195 50.1147 117.313 50.2867 117.431H51.4336C50.6914 116.439 48.4352 116.048 48.2023 117.461C47.8579 119.098 47.5136 120.173 47.2248 120.875C47.5386 120.484 47.7802 120.007 47.8274 119.422Z" fill="#C88E69"/>
<path d="M23.9464 180.322C23.9464 180.322 23.3382 183.582 26.0957 191.26L25.4154 196.926L19.8615 201.999L11.2975 205.459L8.3179 203.666C8.3179 203.666 12.5027 200.076 14.2911 197.521C16.0794 194.965 19.109 191.196 16.7819 181.376C14.4521 171.559 24.4129 172.777 23.9464 180.322Z" fill="#E0A680"/>
<path d="M55.6204 184.762C55.6204 184.762 57.6614 186.355 57.9863 191.176C58.3112 195.996 57.7364 199.456 57.7364 199.456C57.7364 199.456 57.1283 203.837 59.2776 205.155C61.4269 206.472 63.7568 205.65 64.401 204.596C65.0452 203.541 67.1252 201.399 65.1174 191.418C63.1097 181.435 59.9579 178.108 59.9579 178.108C59.9579 178.108 50.9968 176.096 55.6204 184.762Z" fill="#E0A680"/>
<path d="M32.4536 18.6274L40.3539 19.4189C40.3539 19.4189 42.7726 24.7552 42.7199 25.6463C42.6671 26.5348 42.0201 36.1223 41.5369 37.0134C41.0537 37.9019 41.1453 41.5096 38.8683 42.2756C36.5912 43.0416 31.3789 44.0297 31.3789 44.0297L29.1741 50.9975C29.1741 50.9975 25.1975 54.7533 24.1756 54.9014C23.1537 55.0495 17.0806 56.0376 17.0806 56.0376C17.0806 56.0376 16.2753 44.7216 16.2753 44.4739C16.2753 44.2263 19.5548 24.9544 19.5548 24.9544L32.4536 18.6274Z" fill="#E0A680"/>
<path d="M14.2911 197.521C16.0794 194.962 19.109 191.196 16.7819 181.377C16.4931 180.156 16.3932 179.107 16.4404 178.221L22.6662 175.89C23.5132 176.913 24.063 178.415 23.9464 180.322C23.9464 180.322 23.8297 180.945 23.9297 182.283C22.9328 182.331 21.7859 182.615 20.9362 183.485C19.0729 185.395 19.1451 188.097 19.1451 188.097C19.1451 188.097 19.0729 193.678 13.6996 200.179C12.9748 201.029 12.0612 201.82 12.0334 202.065C12.0056 202.313 11.6835 203.054 12.5166 202.857C13.3275 202.665 21.35 201.417 25.9624 190.88C26.0068 191.005 26.0485 191.13 26.0957 191.26L25.4154 196.926L19.8615 201.999L11.2975 205.459L8.3179 203.666C8.3179 203.666 12.5027 200.076 14.2911 197.521Z" fill="#C88E69"/>
<path d="M62.538 182.673C62.7101 183.079 62.8823 183.516 63.0572 183.986C62.488 184.389 61.7493 184.89 61.2439 185.158C60.3136 185.653 59.0946 187.034 59.0946 188.748C59.0946 190.461 59.2029 195.238 58.7003 199.257C58.1976 203.276 59.1918 204.637 60.1304 204.989C60.7107 205.206 61.8548 205.714 63.4654 204.792C64.2263 204.356 65.4398 203.094 65.9258 199.887C65.7231 202.893 64.7928 203.95 64.3985 204.593C63.7542 205.648 61.4244 206.47 59.2751 205.152C57.1258 203.835 57.7339 199.453 57.7339 199.453C57.7339 199.453 58.3059 195.994 57.9838 191.173C57.6617 186.353 55.6179 184.759 55.6179 184.759C55.4318 184.41 55.268 184.078 55.1236 183.761L62.538 182.673Z" fill="#C88E69"/>
<path d="M16.2753 44.474C16.2753 44.2263 19.5548 24.9544 19.5548 24.9544L32.4536 18.63L40.3539 19.4215C40.3539 19.4215 42.7726 24.7578 42.7199 25.6489C42.7032 25.9399 42.6199 27.1732 42.5033 28.723C42.37 28.7919 42.2978 28.8251 42.2922 28.8123C42.22 28.6464 40.2845 24.8267 40.2845 24.8267C40.2845 24.8267 40.0346 21.7628 38.4934 22.0922C36.9522 22.4216 35.2694 22.7356 32.4008 22.0667C31.3984 22.0667 30.8236 21.9262 30.2876 22.3884C29.7517 22.8505 29.2129 23.3765 28.7103 24.8267C28.2077 26.277 26.561 26.1442 26.561 26.1442C26.561 26.1442 24.7338 26.0446 23.8368 25.848C22.9399 25.6514 22.0457 26.4736 21.9374 26.7034C21.8291 26.9332 20.7545 27.9877 22.2956 31.0847C23.8368 34.1818 25.8779 35.6959 25.2697 41.4637C24.6616 47.2315 18.5579 46.371 18.5579 46.371L16.3364 45.3957C16.2975 44.8544 16.2753 44.5148 16.2753 44.474Z" fill="#C88E69"/>
<path d="M24.8498 35.9563C30.6647 39.4492 31.9365 39.679 34.3718 40.3045C36.8072 40.93 37.918 39.0202 37.918 39.0202C37.918 39.0202 37.2043 40.9786 36.5073 42.9267C34.1303 43.5063 31.3783 44.0271 31.3783 44.0271L30.412 47.0808C29.6233 47.0298 28.8597 46.9302 28.2432 46.7617C25.8412 46.1029 27.5268 42.9726 27.9572 41.8211C28.3876 40.6696 27.9211 39.7453 27.0963 38.6909C26.2744 37.6364 24.8498 35.9563 24.8498 35.9563Z" fill="#C88E69"/>
<path d="M19.3543 44.6552C19.3543 44.6552 17.205 47.5531 17.9937 54.1763C18.0464 54.309 18.0908 54.5873 18.4518 54.3652C18.8101 54.1431 21.5148 51.3422 27.6684 49.3915L32.3975 50.8494L29.6012 72.5418L26.8603 72.8864C26.8603 72.8864 25.9467 74.4337 24.6555 75.3401C24.2084 76.295 24.35 77.7453 24.35 77.7453L25.1053 81.2049C25.1053 81.2049 30.8369 86.6255 32.3947 92.3575C33.9526 98.0895 35.566 102.438 36.1019 105.157C36.6406 107.876 40.4006 121.909 42.9276 127.444C45.4546 132.98 50.3447 143.604 52.2802 147.36C54.2157 151.115 57.2259 155.663 60.6637 167.77C61.1469 169.054 61.183 169.351 61.3802 169.425C61.5773 169.499 62.5631 169.351 62.9214 170.206C63.2796 171.061 65.5372 176.796 65.751 177.158C65.9649 177.521 66.0565 177.718 65.751 178.376C65.4456 179.035 59.2114 186.125 51.1223 184.422C49.5366 184.052 50.0476 183.312 49.9143 182.508C49.781 181.703 48.4759 177.342 48.0732 176.528C47.6706 175.713 47.7233 175.527 48.0066 175.118C48.2898 174.71 47.8316 173.5 47.8316 173.5C47.8316 173.5 44.9325 166.417 43.8578 164.208C42.7832 162 36.6212 149.744 34.6857 145.33C32.7502 140.915 25.4858 126.525 25.4858 126.525C25.4858 126.525 20.9177 117.877 20.7567 117.755C20.5956 117.632 20.6234 118.373 20.6234 118.373C20.6234 118.373 19.5765 125.093 20.2735 130.628C20.9733 136.164 21.4815 139.498 22.1812 142.71C22.881 145.922 23.7946 153.186 24.1695 156.745C24.5444 160.304 26.0772 170.237 25.9162 172.213C26.1578 172.609 27.1242 172.856 27.4213 175.547C27.7156 178.241 27.7712 179.64 27.8434 180.136C27.9156 180.631 27.9517 180.991 27.3241 181.09C26.6965 181.19 13.3312 182.788 12.687 182.788C12.0427 182.788 11.6484 182.921 11.629 182.211C11.6123 181.504 11.4151 175.803 11.2707 174.996C11.1263 174.189 11.1458 173.826 11.5207 173.63C11.8955 173.433 12.6148 173.086 12.7758 172.923C12.9369 172.757 12.7397 170.321 12.6148 169.019C12.4898 167.717 8.74374 142.565 7.88567 138.017C7.02483 133.47 5.51974 126.354 5.0921 123.142C4.66168 119.93 3.58701 113.062 3.85637 107.626C4.12573 102.19 6.16676 84.302 6.16676 84.302C6.16676 84.302 7.99398 74.8627 7.6191 72.1945C7.24422 69.5264 5.63083 65.1271 5.84465 63.9424C6.05847 62.7552 5.20039 58.6061 9.39076 52.7235C13.5839 46.8433 16.8079 43.5318 16.8079 43.5318L19.3543 44.6552Z" fill="#0F5B34"/>
<path d="M17.5449 46.8127C17.5449 46.8127 11.6495 52.6928 9.75283 62.7424C9.66397 63.1126 9.6362 63.5492 9.75283 63.4343C9.86946 63.3195 15.1983 56.5942 17.9669 54.8759C17.9669 54.8759 16.6229 51.572 18.2891 46.8127C18.153 46.8127 17.5449 46.8127 17.5449 46.8127Z" fill="#1C7D50"/>
<path d="M26.8594 50.3055C26.8594 50.3055 25.1543 65.7399 25.8652 72.9222C25.893 73.1316 25.8597 73.6626 25.2154 74.3469C24.449 75.1588 23.8214 75.2584 23.702 75.2814C23.1689 75.381 22.6551 75.3963 22.3996 75.3606C22.0581 75.3095 21.6749 75.2457 21.9081 74.9903C22.1414 74.735 23.2438 74.1758 23.2077 70.7315C23.2077 70.5502 23.0994 70.7468 23.0272 71.1094C22.955 71.472 21.3083 75.2099 19.6949 75.4244C18.0815 75.6389 15.9322 75.5061 15.6628 75.3248C15.3935 75.1435 15.2158 75.2431 15.449 74.6993C15.6823 74.1554 16.0599 73.0294 15.574 71.7681C15.4657 71.4873 15.3935 71.9162 15.3407 72.1128C15.288 72.3094 14.5715 75.0108 13.6385 75.0286C12.7082 75.0439 11.9362 73.9256 11.8113 73.6116C11.6863 73.2975 10.6283 71.6354 10.4867 68.9162C10.4867 68.7196 10.3701 68.8013 10.3256 69.1128C10.2784 69.4447 10.3784 72.2584 11.006 74.4822C11.0643 74.6482 11.1837 74.7631 11.1837 74.855C11.1837 74.9469 11.1504 75.0439 11.1198 75.0363C11.0893 75.0286 10.7199 74.6508 10.7199 74.6508C10.7199 74.6508 8.07632 70.7085 9.95629 66.0897C11.8363 61.4734 16.1627 54.2324 26.8594 50.3055Z" fill="#1C7D50"/>
<path d="M14.072 79.1649C14.072 79.1649 15.7909 79.0168 16.599 79.7572C17.4043 80.4977 20.495 83.6126 21.5697 86.0331C22.6443 88.4536 25.4601 96.1797 25.735 103.099C26.0099 110.018 26.0099 111.719 26.0099 111.719C26.0099 111.719 25.8822 112.053 26.582 111.448C27.2818 110.843 33.4215 104.848 34.1019 104.452C34.3518 104.238 34.4962 104.256 34.5129 104.501C34.5295 104.746 35.7847 112.572 39.1697 121.023C42.5548 129.474 47.1784 139.603 49.7581 144.199C52.3379 148.794 56.942 158.678 57.9806 161.609C59.0191 164.54 60.5326 168.659 60.8297 169.277C61.124 169.895 61.1518 170.017 60.8297 170.387C60.5076 170.758 60.1049 171.153 60.8297 170.957C61.5545 170.76 61.9043 170.709 62.4153 171.301C62.9262 171.894 64.6729 174.439 64.7007 176.168C64.7285 177.896 63.5177 179.479 63.5177 179.479C63.5177 179.479 61.3934 182.469 58.3305 182.839C55.2675 183.21 54.7038 182.865 54.1651 182.643C53.6264 182.421 52.2573 181.703 51.5326 179.061C50.8078 176.418 51.2104 174.861 53.2792 174.069C55.348 173.278 59.4856 171.598 59.4856 171.598C59.4856 171.598 56.6699 172.66 55.1231 172.042C53.5736 171.424 51.8547 171.202 49.4888 166.014C47.1228 160.825 44.0321 154.228 44.0321 154.228C44.0321 154.228 41.7356 149.231 41.1302 148.051C39.8695 145.588 37.8563 142.072 37.1037 141.01C36.3512 139.947 31.25 131.892 28.7424 127.74C26.2349 123.589 16.3435 107.511 11.9004 97.2342C11.9004 110.478 13.9081 131.078 13.9081 131.078C13.9081 131.078 16.7017 154.491 19.6425 171.097C18.9982 171.163 16.7934 171.986 16.7934 171.986C16.7934 171.986 16.5434 172.001 17.5987 172.019C18.6539 172.037 22.7776 171.756 23.4385 174.917C24.0994 178.078 24.2549 179.727 22.6138 180.445C20.9754 181.162 18.0457 182.224 13.7721 182.15C13.4499 181.953 12.9668 180.248 12.9668 180.248C12.9668 180.248 11.8921 174.391 12.8862 173.602C13.8804 172.81 15.1716 172.218 15.1716 172.218C15.1716 172.218 15.2522 171.947 14.6079 171.947C14.4024 171.922 14.2497 171.766 13.4805 164.558C13.4805 164.558 12.0837 152.681 10.3981 143.818C8.71254 134.956 6.5632 125.665 6.06335 122.519C5.56073 119.373 3.92513 104.263 6.37437 90.7668C7.60454 84.2867 9.28735 79.5862 9.93437 79.1521C10.5758 78.7206 11.831 79.147 14.072 79.1649Z" fill="#1C7D50"/>
<path d="M7.71203 74.7025C7.71203 74.7025 9.97799 75.2055 10.911 75.3689C11.8413 75.5349 12.766 75.6166 13.8934 75.5987C15.0209 75.5808 17.0286 75.7647 17.0286 75.7647C17.0286 75.7647 19.2584 75.8234 19.8499 75.7647C20.4414 75.7059 21.4633 75.7238 21.4633 75.7238C21.4633 75.7238 22.5824 75.8081 22.799 75.7902C23.0128 75.7723 24.4124 75.3893 24.6345 75.4047C24.8595 75.42 25.4593 76.0864 25.351 76.6787C25.2427 77.2711 25.065 77.4115 25.0566 77.5519C25.0483 77.6924 25.1538 78.0217 25.2455 78.1366C25.3343 78.2515 25.451 78.7954 25.3649 79.2039C25.2816 79.6124 24.9706 79.7835 25.065 79.9571C25.1594 80.1307 25.6287 80.3784 25.5759 80.7103C25.5232 81.0422 25.5648 81.1648 25.5815 81.4278C25.5981 81.6907 25.2288 81.489 25.2288 81.489C25.2288 81.489 24.8539 81.341 23.9792 81.2924C23.1045 81.2439 19.8416 80.6261 17.9727 79.5996C16.1039 78.5732 15.6762 78.5988 15.1514 78.5732C14.6266 78.5477 9.64199 78.7596 7.31771 77.4856C4.99065 76.2115 7.71203 74.7025 7.71203 74.7025Z" fill="#212121"/>
<path d="M7.6315 74.7478C7.68149 74.7172 7.71203 74.6993 7.71203 74.6993C7.71203 74.6993 9.97799 75.2023 10.911 75.3657C11.8413 75.5316 12.766 75.6133 13.8934 75.5955C15.0209 75.5801 17.0286 75.7614 17.0286 75.7614C17.0286 75.7614 19.2584 75.8202 19.8499 75.7614C20.4414 75.7027 21.4633 75.7206 21.4633 75.7206C21.4633 75.7206 22.5824 75.8048 22.799 75.787C23.0128 75.7691 24.4124 75.3861 24.6345 75.4014C24.8595 75.4167 25.4593 76.0831 25.351 76.6755C25.2427 77.2678 25.065 77.4083 25.0566 77.5487C25.0483 77.6891 25.1538 78.0185 25.2455 78.1334C25.3343 78.2483 25.451 78.7921 25.3649 79.2007C25.2816 79.6092 24.9706 79.7802 25.065 79.9539C25.1594 80.1275 25.6287 80.3751 25.5759 80.7071C25.5232 81.039 25.5648 81.1615 25.5815 81.4245C25.5981 81.6875 25.2288 81.4858 25.2288 81.4858C25.2288 81.4858 24.8539 81.3377 23.9792 81.2892C23.1045 81.2407 19.8416 80.6228 17.9727 79.5964C17.6895 79.4407 17.4423 79.3104 17.2174 79.2007C17.2202 79.2007 17.2202 79.2007 17.223 79.2032C23.5932 81.3173 23.9653 80.919 24.529 81.0671C25.0927 81.2152 25.3093 80.7454 24.8789 80.7454C24.4485 80.7454 23.3738 80.3726 23.3738 80.3726C23.3738 80.3726 24.6096 80.6228 24.9317 80.3726C25.2538 80.1224 24.3152 79.6602 24.3152 79.6602L20.0165 78.473C20.0165 78.473 22.5435 79.119 23.6432 79.216C24.7456 79.3156 24.9345 78.5726 24.9317 78.376C24.9317 78.1794 24.9317 77.5359 24.2597 77.5359C23.5877 77.5359 20.5525 76.9436 20.5525 76.9436C20.5525 76.9436 22.7018 77.2653 23.671 77.2883C24.6373 77.3138 24.6123 77.1657 24.9067 76.6397C25.201 76.1138 22.9184 75.9223 22.9184 75.9223C22.9184 75.9223 22.463 75.787 20.0165 75.8814C17.5701 75.9759 16.6037 75.8814 16.6037 75.8814C16.6037 75.8814 14.5627 75.7078 13.3242 75.7078C10.2723 75.7053 8.1369 74.9469 7.6315 74.7478Z" fill="black"/>
<path d="M26.414 190.898C26.414 190.898 25.9114 190.239 25.8753 191.094C25.8392 191.949 23.6898 197.222 20.0715 199.627C16.4532 202.032 14.2178 203.733 8.775 203.623C8.48065 203.523 8.45289 203.462 8.45289 203.462C8.45289 203.462 5.49547 205.5 1.67999 206.069C-2.13549 206.638 1.74663 209.245 1.74663 209.245C1.74663 209.245 1.97434 209.467 2.94348 209.467C3.91263 209.467 11.2215 209.467 11.2215 209.467C11.2215 209.467 12.9681 209.294 14.5538 207.749C16.1394 206.204 18.7858 202.313 22.1847 202.313C25.5837 202.313 24.9672 207.54 24.9672 207.54L24.7117 209.245C24.7117 209.245 24.5784 209.702 25.1949 209.702C25.8114 209.702 27.0638 204.723 27.0638 204.723C27.0638 204.723 29.8879 196.137 26.414 190.898Z" fill="black"/>
<path d="M28.3918 45.7965C28.3918 45.7965 26.945 47.6374 26.8367 53.4435C26.7284 59.2496 26.4063 71.8013 26.3257 75.0388C26.2452 78.2764 26.3257 89.5438 26.3257 89.5438C26.3257 89.5438 26.1647 104.197 26.0564 107.731C25.9481 111.264 26.0564 110.917 26.0564 110.917C26.0564 110.917 26.0286 111.732 26.7284 110.669C27.4282 109.607 31.2687 105.504 33.4458 103.85C33.4458 103.85 35.2008 102.45 35.4979 102.285V102.622C35.4979 102.622 36.4198 102.392 36.5809 101.937C36.7419 101.483 36.5281 101.016 36.3115 100.686C36.0977 100.357 33.4458 96.6597 33.7401 87.2689C34.0345 77.878 34.8842 72.4269 34.8842 72.4269C34.8842 72.4269 34.8981 72.2047 35.0841 72.7077C35.2702 73.2107 38.5247 81.7845 40.2436 88.543C39.7993 88.5685 39.3967 88.6553 39.4383 89.3574C39.48 90.0621 39.7882 92.8911 39.8965 93.2486C39.9382 93.532 39.8688 93.8052 39.9632 93.9405C40.0576 94.0758 41.7237 94.7193 45.5003 94.4103C49.2769 94.1014 51.3457 92.5337 51.6679 90.8766C51.7151 90.606 51.8373 90.3175 51.479 89.4928C51.479 89.4928 50.4932 87.5166 50.1544 86.6995C49.8157 85.8825 49.7435 85.6782 49.7435 85.5889C49.7435 85.4995 49.5741 85.285 48.5688 85.4484C48.3883 85.0705 45.7031 81.0926 44.895 74.8652C44.0897 68.6379 43.2566 60.6079 43.2566 60.6079C43.2566 60.6079 42.0764 52.6264 38.8691 50.9796C36.9946 49.7106 34.6593 49.5626 34.1927 49.5626C33.7262 49.5626 30.0357 49.9251 28.675 46.5318C28.4779 46.1412 28.55 45.5182 28.3918 45.7965Z" fill="#212121"/>
<path d="M17.9707 44.5735C17.9707 44.5735 17.0571 44.3514 15.2827 46.897C13.5082 49.4425 10.498 52.1107 6.76308 62.5126C6.41319 63.5492 6.33266 64.9586 6.76308 66.1204C7.1935 67.2821 8.50976 70.1468 7.99881 74.2754C7.48786 78.4015 5.38574 91.4154 5.38574 91.4154C5.38574 91.4154 3.61961 108.269 3.87786 111.836C3.21695 111.218 0.83715 108.313 0.784388 108.04C0.731627 107.766 0.570566 107.422 0.784388 105.915C0.998211 104.409 2.30336 97.2061 1.98124 89.4953C1.65912 81.7871 1.22868 78.0312 1.25645 76.4993C1.28422 74.9674 1.87571 71.5332 2.17007 69.9758C2.46442 68.4183 2.89483 65.9978 2.49218 63.3297C2.08953 60.6615 1.60635 58.5372 3.9695 54.8299C6.33543 51.1226 9.55943 46.108 14.5579 42.2781C16.5184 42.6458 17.9707 44.5735 17.9707 44.5735Z" fill="#212121"/>
<path d="M26.06 110.915C26.06 110.915 26.0544 110.932 26.0461 110.917C27.9427 108.537 30.8418 105.923 30.8418 105.923C30.8418 105.923 31.1251 105.54 31.1362 105.354C31.1501 105.167 31.0029 104.465 30.9474 103.722C29.7116 77.5308 32.1109 73.5784 33.0078 68.8319C33.9048 64.088 34.1186 60.4802 34.1713 59.5074C34.3852 63.396 35.5515 68.3698 35.9458 69.9681C36.3401 71.5664 36.5734 71.352 38.6866 77.0355C40.7998 82.719 41.2497 86.9038 41.3025 87.297C41.3552 87.6902 41.5524 87.7259 41.7134 87.7591C43.81 88.0068 46.1565 87.2153 46.2648 87.1668C46.3731 87.1182 46.6952 87.0672 46.5869 87.2485C45.2624 88.1217 43.4351 88.303 42.8603 88.2698C42.2855 88.2366 42.466 88.2544 42.5021 88.7804C42.5382 89.3064 42.8437 92.092 42.9492 92.9141C43.0547 93.7363 43.4324 93.7388 43.9156 93.869C46.6397 94.1984 49.3972 92.6665 50.7606 91.7447C52.1213 90.823 51.4604 89.8987 51.4604 89.8987L50.4829 88.1166C50.4829 88.1166 49.6221 86.1148 49.4472 85.931C49.2722 85.7446 48.5613 86.0663 48.4003 85.9923C48.2392 85.9182 48.4503 86.194 46.1371 81.6798C43.8239 77.1657 43.1186 63.9143 42.7159 60.2811C42.3133 56.6478 40.3222 53.6094 38.5755 51.8809C36.8289 50.1523 36.1041 50.6196 32.1803 50.1523C29.4145 49.8204 28.4509 47.5506 28.126 46.2408C28.2815 45.9293 28.3898 45.794 28.3898 45.794C28.5481 45.5156 28.4731 46.1386 28.6703 46.5318C30.031 49.9251 33.7215 49.5625 34.188 49.5625C34.6545 49.5625 36.9927 49.7106 38.8643 50.9796C42.0717 52.6264 43.2519 60.6079 43.2519 60.6079C43.2519 60.6079 44.0849 68.6379 44.8902 74.8652C45.6955 81.0926 48.3836 85.0705 48.5641 85.4484C49.5666 85.2825 49.7387 85.4969 49.7387 85.5889C49.7387 85.6782 49.8109 85.885 50.1497 86.6995C50.4885 87.514 51.4743 89.4928 51.4743 89.4928C51.8325 90.3175 51.7076 90.606 51.6631 90.8766C51.341 92.5311 49.2722 94.1014 45.4956 94.4103C41.719 94.7193 40.0529 94.0758 39.9584 93.9405C39.864 93.8052 39.9307 93.532 39.8918 93.2486C39.7835 92.8911 39.4753 90.0621 39.4336 89.3575C39.392 88.6528 39.7974 88.5659 40.2389 88.543C38.52 81.7845 35.2682 73.2107 35.0794 72.7077C34.8906 72.2047 34.8795 72.4269 34.8795 72.4269C34.8795 72.4269 34.0325 77.878 33.7354 87.2689C33.441 96.6572 36.0902 100.357 36.3068 100.686C36.5206 101.016 36.7372 101.485 36.5761 101.937C36.4151 102.389 35.4932 102.622 35.4932 102.622V102.285C35.1988 102.45 33.441 103.85 33.441 103.85C31.2639 105.504 27.4207 109.607 26.7237 110.669C26.0322 111.732 26.06 110.915 26.06 110.915Z" fill="black"/>
<path d="M0.784388 105.913C0.998211 104.406 2.30336 97.2036 1.98124 89.4928C1.65912 81.7845 1.22868 78.0287 1.25645 76.4968C1.28422 74.9648 1.87571 71.5307 2.17007 69.9732C2.46442 68.4157 2.89483 65.9953 2.49218 63.3271C2.08953 60.659 1.60635 58.5347 3.9695 54.8274C6.33266 51.12 9.55943 46.1055 14.5579 42.2756C16.5184 42.6458 17.9707 44.5735 17.9707 44.5735C17.9707 44.5735 17.2793 44.4076 15.9352 46.0314C14.4579 46.537 12.7584 47.4153 11.6893 48.9396C9.46779 52.103 5.52736 57.6359 5.45516 60.9986C5.38296 64.3586 4.67206 66.4676 4.9553 67.5221C5.23855 68.5766 5.74118 70.42 5.81338 71.2779C5.88558 72.1333 6.96025 77.4721 5.38296 85.4433C3.80567 93.4171 3.90008 97.3032 3.81677 99.0828C3.73347 100.862 3.37524 102.905 3.01702 104.748C2.71156 106.319 2.1534 108.369 3.8501 111.06C3.85287 111.361 3.86121 111.624 3.8751 111.836C3.21419 111.218 0.83437 108.313 0.781609 108.04C0.728847 107.766 0.570566 107.419 0.784388 105.913Z" fill="black"/>
<path d="M36.2335 21.9875C36.2335 21.9875 34.0841 22.0871 30.8935 21.4283C29.4606 21.4283 28.7802 22.1535 28.422 23.0752C28.0638 23.9969 27.7056 25.6437 25.5923 25.4803C23.4791 25.3169 22.0462 24.4258 21.1493 27.0608C20.2523 29.6957 23.0487 33.5843 23.0487 33.5843C23.0487 33.5843 26.3088 38.3946 24.5538 42.6101C22.7988 46.828 18.2113 46.0263 18.2113 46.0263C18.2113 46.0263 14.5569 44.9156 14.6652 42.5437C13.41 43.5318 10.8386 45.8731 7.32023 50.4843C7.32023 50.4843 6.87315 50.8953 6.35387 49.9583C5.83458 49.0187 3.34368 44.9514 6.62322 41.9692C9.90276 38.987 11.2635 39.3674 12.3576 36.9955C13.4517 34.6235 13.9154 34.0465 13.1267 30.1272C12.3381 26.208 10.6914 21.842 13.646 17.5678C16.6035 13.2937 19.6136 13.8528 20.2023 13.6894C20.4856 13.6894 20.6716 13.715 20.941 13.3448C21.2104 12.9745 22.9959 10 29.2856 10C35.5753 10 37.6164 11.6392 38.3967 12.2571C39.177 12.875 44.9447 17.1823 45.2307 24.1016C45.5167 31.0209 42.5343 39.1402 42.426 39.536C42.3177 39.9317 40.7876 44.0322 42.3732 49.3711C43.9588 54.7073 43.7978 53.8597 43.77 55.4248C43.7422 56.9899 43.3118 57.498 43.098 57.7968C42.8842 58.0955 42.7398 58.0955 42.7398 58.0955L42.1039 56.2521C42.1039 56.2521 40.9625 52.4605 38.6244 51.0868C36.2862 49.7157 35.4393 49.9123 33.5843 49.7157C31.7293 49.5191 28.0888 48.4187 28.372 44.8237C28.6553 41.2288 30.0382 39.6228 30.0382 39.6228C30.0382 39.6228 30.2659 39.1785 30.924 39.5743C31.5821 39.97 33.0345 40.4883 33.0345 40.4883C33.0345 40.4883 34.659 40.833 35.6142 40.6364C36.5695 40.4398 36.8361 40.0798 36.9582 39.2398C37.0804 38.3998 37.0804 37.3504 37.2804 37.1155C37.4803 36.8806 37.8052 36.6584 37.8052 36.6584C37.8052 36.6584 38.0995 36.3495 37.9801 36.015C38.169 35.8184 38.691 35.4099 38.4245 34.8916C38.1551 34.3733 37.833 33.9163 38.2356 33.495C38.6383 33.3341 39.8879 32.9894 40.21 32.6167C40.5321 32.2464 40.9209 31.7383 40.5849 31.1843C40.2489 30.6277 38.7882 27.8983 38.7799 27.6583C38.7716 27.4182 38.3939 26.4301 38.9604 25.5263C39.5241 24.6199 40.049 23.3637 39.6046 22.276C39.1603 21.1883 38.1801 21.6326 38.1801 21.6326C38.1801 21.6326 37.272 21.9032 36.2335 21.9875Z" fill="#9B6348"/>
<path d="M6.6201 41.9692C9.89964 38.987 11.2603 39.3674 12.3544 36.9955C13.4485 34.6235 13.9123 34.0465 13.1237 30.1272C12.335 26.208 10.6883 21.8419 13.6429 17.5678C16.6003 13.2937 19.6105 13.8528 20.1992 13.6894C20.3186 13.6894 20.4214 13.692 20.5186 13.669V13.6894C20.5186 13.6894 17.9166 14.7516 16.0977 19.7508C15.4285 21.5917 15.0953 23.0292 15.7923 26.0676C16.492 29.1059 17.5917 32.5324 17.0558 35.9588C16.5198 39.3853 16.6531 41.8568 17.9694 42.6713C19.2856 43.4858 20.6574 44.0807 22.6457 42.5232C24.634 40.9658 24.3118 38.2721 24.3118 38.2721C24.3118 38.2721 24.5812 36.0737 21.4377 30.9085C20.5463 29.0906 20.1104 26.2233 22.0625 25.562C21.932 25.6642 21.8098 25.7918 21.6932 25.9527C21.6877 25.9603 21.6821 25.9705 21.6765 25.9782C21.646 26.0216 21.6155 26.0676 21.5849 26.1161C21.5738 26.1314 21.5655 26.1493 21.5544 26.1646C21.5294 26.208 21.5044 26.2514 21.4766 26.2974C21.4655 26.3178 21.4544 26.3382 21.4433 26.3612C21.4211 26.4072 21.3961 26.4531 21.3739 26.5042C21.3627 26.5272 21.3516 26.5527 21.3405 26.5757C21.3183 26.6267 21.2933 26.6829 21.2711 26.7391C21.2628 26.7621 21.2517 26.785 21.2433 26.8106C21.2128 26.8923 21.1795 26.9765 21.1489 27.0659C20.252 29.7008 23.0483 33.5894 23.0483 33.5894C23.0483 33.5894 26.3084 38.3998 24.5534 42.6152C22.7984 46.8331 18.2109 46.0314 18.2109 46.0314C18.2109 46.0314 14.5565 44.9207 14.6648 42.5488C13.4097 43.5369 10.8382 45.8782 7.31989 50.4894C7.31989 50.4894 6.87281 50.9004 6.35353 49.9634C5.83425 49.0264 3.34057 44.9514 6.6201 41.9692Z" fill="#8E5335"/>
<path d="M38.6217 51.0843C36.2836 49.7132 35.4366 49.9098 33.5816 49.7132C31.7266 49.5166 28.0861 48.4161 28.3694 44.8212C28.6526 41.2262 30.0355 39.6202 30.0355 39.6202C30.0355 39.6202 30.2632 39.1759 30.9213 39.5717C31.2962 39.7964 31.9238 40.0594 32.3987 40.2458C32.8763 40.4347 33.3761 40.5598 33.8926 40.6236C34.4314 40.69 35.1117 40.736 35.6116 40.6313C36.5668 40.4347 36.8334 40.0747 36.9556 39.2347C37.0778 38.3947 37.0778 37.3453 37.2777 37.1104C37.4804 36.8755 37.8025 36.6533 37.8025 36.6533C37.8025 36.6533 38.0969 36.3444 37.9775 36.0099C38.1663 35.8133 38.6884 35.4048 38.4218 34.8865C38.1524 34.3682 37.8303 33.9112 38.233 33.4899C38.3024 33.4618 38.3996 33.4286 38.5134 33.3903C38.6856 34.1409 38.73 35.0984 38.369 36.1708C37.5082 38.7164 36.4335 40.6645 36.0586 41.5198C35.6837 42.3726 34.984 44.7905 37 46.4118C38.9577 47.9846 44.4033 49.3225 42.8787 58.0291C42.7927 58.0904 42.7427 58.093 42.7427 58.093L42.1068 56.2495C42.1012 56.247 40.9599 52.4554 38.6217 51.0843Z" fill="#8E5335"/>
<path d="M36.6899 25.3603C36.2123 25.3782 35.743 25.4829 35.3098 25.6743C34.9682 25.825 34.5517 26.0522 34.174 26.3688C34.0491 26.4837 33.7797 26.8795 34.5683 26.5833C35.357 26.2871 36.5038 25.8582 37.7201 25.9067C38.0061 25.9067 38.456 25.7586 37.809 25.5773C37.3175 25.4394 37.2342 25.3399 36.6899 25.3603Z" fill="black"/>
<path d="M36.6008 28.1893C36.3631 28.1893 36.1704 27.644 36.1704 26.9714C36.1704 26.2988 36.3631 25.7535 36.6008 25.7535C36.8385 25.7535 37.0312 26.2988 37.0312 26.9714C37.0312 27.644 36.8385 28.1893 36.6008 28.1893Z" fill="black"/>
</svg>