<svg width="150" height="294" viewBox="0 0 150 294" fill="none" xmlns="http://www.w3.org/2000/svg"> <circle cx="75" cy="75" r="72.5" fill="white" stroke="#3B6CF4" stroke-width="5"/> <path d="M76.8811 269.155L101.619 292.772C102.892 293.987 105 293.085 105 291.326V219.959V89H46V219.959V291.326C46 293.085 48.1084 293.987 49.3811 292.772L74.1189 269.155C74.8918 268.417 76.1082 268.417 76.8811 269.155Z" fill="url(#paint0_linear_7_2)"/> <circle cx="75" cy="75" r="62.5" fill="white" stroke="#3B6CF4" stroke-width="5"/> <path d="M32.3513 159.963C30.9075 160.661 30 162.139 30 163.741V185.627C30 217.985 47.2842 234.534 73.2724 250.384C74.6337 251.205 76.3663 251.205 77.7276 250.384C103.716 234.534 121 218.026 121 185.627V163.741C121 162.139 120.092 160.661 118.649 159.963L77.3976 139.431C76.2013 138.856 74.7987 138.856 73.6024 139.431L32.3513 159.963Z" fill="#E6007A"/> <path d="M40.8862 165.845C39.728 166.406 39 167.594 39 168.881V186.468C39 212.47 52.8654 225.768 73.7131 238.505C74.8051 239.165 76.1949 239.165 77.2869 238.505C98.1346 225.768 112 212.503 112 186.468V168.881C112 167.594 111.272 166.406 110.114 165.845L77.0222 149.346C76.0626 148.885 74.9374 148.885 73.9778 149.346L40.8862 165.845Z" fill="white"/> <path d="M59 191.376L70.411 205.077C70.8108 205.557 71.548 205.557 71.9478 205.077L92 181" stroke="#E6007A" stroke-width="7" stroke-miterlimit="10" stroke-linecap="round"/> <circle cx="75.5" cy="74.5" r="52" fill="white" stroke="#3B6CF4" stroke-width="5"/> <path d="M51.2416 36C51.2915 36.0167 51.3414 36.0334 51.3912 36.0501C52.7211 36.2338 53.652 37.2695 53.7019 38.6058C53.7019 38.6893 53.7019 38.7895 53.7019 38.8897C53.7019 48.4942 53.7019 58.0821 53.7019 67.6866C53.7019 67.9539 53.6853 68.2378 53.6188 68.5051C53.4193 69.3904 52.8707 69.9917 52.0229 70.3425C50.8759 70.8102 49.5128 70.5429 48.7148 69.7077C48.3158 69.2901 48.0831 68.789 48.0332 68.2044C48 67.9037 48 67.6031 48 67.3024C48 57.8816 48 48.4775 48 39.0567C48 38.7561 48.0166 38.4721 48.0665 38.1715C48.2826 37.069 49.1637 36.2171 50.2774 36.0501C50.3439 36.0334 50.4104 36.0167 50.4769 36C50.7263 36 50.9923 36 51.2416 36Z" fill="url(#paint1_linear_7_2)"/> <path d="M106 78.3934C105.967 78.5271 105.951 78.6607 105.917 78.7943C105.635 79.9469 104.637 80.7486 103.457 80.782C103.39 80.782 103.324 80.782 103.257 80.782C98.4865 80.782 93.6989 80.782 88.9279 80.782C88.5788 80.782 88.2297 80.7486 87.8972 80.615C87.3154 80.3979 86.8499 80.0304 86.5673 79.4792C86.0187 78.4603 86.0021 77.4079 86.5507 76.389C86.9829 75.5705 87.7143 75.153 88.6286 75.0694C88.7783 75.0527 88.9279 75.0527 89.0609 75.0527C93.7487 75.0527 98.4366 75.0527 103.108 75.0527C103.424 75.0527 103.756 75.0861 104.055 75.153C105.069 75.4202 105.784 76.2554 105.934 77.291C105.934 77.3411 105.967 77.3745 105.984 77.4079C106 77.7587 106 78.0761 106 78.3934Z" fill="url(#paint2_linear_7_2)"/> <path d="M105.568 94.2619C105.419 93.2096 105.136 92.2241 104.687 91.3054C104.272 90.4201 103.74 89.6183 103.058 88.9001C103.041 88.8834 103.025 88.8499 103.008 88.8332C102.526 88.3321 101.994 87.8811 101.396 87.4636C99.1016 85.9101 96.5582 85.4257 93.8486 86.0605C92.0366 86.4948 90.5238 87.4469 89.277 88.8165C87.864 90.3533 86.9996 92.174 86.717 94.2452C86.6173 95.0136 86.5674 95.7986 86.5674 96.5837C86.5674 98.4879 86.584 100.392 86.6173 102.296C86.6339 103.516 87.3819 104.484 88.529 104.835C88.9778 104.969 89.4433 104.986 89.9087 104.935C91.0392 104.802 91.9701 104 92.2194 102.914C92.2693 102.664 92.3026 102.38 92.3026 102.129C92.3026 99.8743 92.3026 97.6193 92.3026 95.3643C92.3026 95.0804 92.3192 94.7964 92.3857 94.5124C92.7015 92.9089 93.9982 91.723 95.6605 91.5058C95.9764 91.4724 96.2756 91.4724 96.5915 91.5058H96.5748C96.8741 91.5392 97.1567 91.6227 97.4226 91.7063C97.4559 91.723 97.4891 91.723 97.5224 91.7397C97.539 91.7397 97.5556 91.7564 97.5723 91.7564C98.3369 92.0904 99.0185 92.6751 99.4507 93.4935C99.7666 94.0782 99.8996 94.7129 99.8996 95.381C99.8996 97.5525 99.8996 99.7239 99.8996 101.895C99.8996 102.113 99.8996 102.313 99.9328 102.53C100.033 103.582 100.581 104.301 101.529 104.718C101.562 104.735 101.612 104.752 101.645 104.768C101.861 104.852 102.094 104.902 102.327 104.935C102.792 104.986 103.258 104.969 103.706 104.835C104.87 104.484 105.601 103.516 105.618 102.296C105.635 100.392 105.668 98.4879 105.668 96.5837C105.718 95.8153 105.668 95.0303 105.568 94.2619Z" fill="url(#paint3_linear_7_2)"/> <path d="M53.7019 95.3977C53.7019 97.6527 53.7019 99.9244 53.7019 102.179C53.7019 102.413 53.6687 102.664 53.6354 102.898C53.4027 104.05 52.505 104.735 51.5076 104.935C50.7928 105.069 50.0946 105.002 49.4463 104.668C48.6483 104.267 48.1829 103.599 48.0665 102.714C48.0166 102.43 48 102.146 48 101.879C48 97.4689 48 93.0759 48 88.6662C48 88.3989 48.0332 88.115 48.0831 87.8477C48.3325 86.7286 49.0805 86.1105 50.1611 85.8433C50.8426 85.6762 51.5242 85.7598 52.1725 86.0437C53.0037 86.4279 53.5024 87.0793 53.652 87.998C53.6853 88.2152 53.7019 88.4323 53.7019 88.6495C53.7019 90.9045 53.7019 93.1427 53.7019 95.3977Z" fill="url(#paint4_linear_7_2)"/> <path d="M50.8759 83.7219C49.3299 83.7052 48.0332 82.5526 48.0166 80.8823C48.0166 79.262 49.2468 78.026 50.8426 78.0093C52.4717 78.0093 53.6853 79.2954 53.7019 80.8489C53.7185 82.4357 52.4385 83.7219 50.8759 83.7219Z" fill="url(#paint5_linear_7_2)"/> <path d="M105.568 60.1866C105.419 58.6332 104.936 57.1967 104.089 55.9105C102.31 53.2046 99.7831 51.718 96.5748 51.4674C94.5966 51.3171 92.7513 51.8015 91.1056 52.9039C88.2131 54.8582 86.7668 57.6477 86.6172 61.122C86.6338 61.7568 86.6837 62.3748 86.8167 62.9928C87.2156 64.8302 88.0967 66.3837 89.4266 67.6865C91.3217 69.5239 93.5991 70.4927 96.2257 70.5261C98.0377 70.5595 99.7 70.0417 101.196 69.0395C102.659 68.0707 103.789 66.8012 104.554 65.2144C105.335 63.6443 105.734 61.9739 105.568 60.1866ZM96.1259 64.8636C94.0147 64.8803 92.2692 63.1432 92.2692 61.0218C92.2692 58.8671 93.9815 57.1466 96.1093 57.1466C98.2371 57.1466 99.9494 58.8671 99.9494 61.0051C99.966 63.1265 98.2538 64.8469 96.1259 64.8636Z" fill="url(#paint6_linear_7_2)"/> <path d="M79.6512 94.6628C79.3686 91.9902 78.2049 89.7686 76.127 88.0649C74.7306 86.9123 73.1181 86.2275 71.3227 85.9936C70.0261 85.8266 68.7627 85.8934 67.5159 86.2609C65.7372 86.7954 64.2577 87.7809 63.0774 89.2174C61.3651 91.272 60.5672 93.6271 60.7334 96.2997C60.8332 97.7195 61.2488 99.0391 61.9968 100.225C63.9252 103.298 66.7512 104.819 69.9097 104.986C71.8381 104.986 73.2511 104.635 74.581 103.917C76.4262 102.914 77.7893 101.444 78.7036 99.5569C79.4351 98.0035 79.8174 96.3832 79.6512 94.6628ZM70.2089 99.3064C68.0811 99.3064 66.3522 97.5692 66.3522 95.4311C66.3522 93.3098 68.0977 91.5726 70.2089 91.5726C72.3368 91.5726 74.049 93.3098 74.049 95.4311C74.0324 97.5692 72.3201 99.3064 70.2089 99.3064Z" fill="url(#paint7_linear_7_2)"/> <path d="M79.6345 59.502C79.0194 55.894 76.3928 52.9041 72.9019 51.8685C71.4889 51.4509 70.0426 51.334 68.5963 51.5845C66.7844 51.9019 65.2051 52.7204 63.8752 54.0065C61.8637 55.9608 60.8497 58.3327 60.7832 61.1389C60.7832 61.8405 60.8497 62.5253 61.0159 63.1935C61.5645 65.415 62.7614 67.1856 64.5734 68.5386C66.5849 70.0419 68.8457 70.7268 71.3559 70.4929C72.9351 70.3426 74.3647 69.7914 75.6448 68.856C77.2905 67.6867 78.4542 66.1333 79.169 64.2458C79.7176 62.7091 79.9004 61.1389 79.6345 59.502ZM70.2753 64.8638C68.1807 64.8638 66.4353 63.2102 66.4186 61.022C66.402 58.8004 68.1974 57.1301 70.2753 57.1468C72.4032 57.1468 74.1154 58.8673 74.1154 61.0053C74.1154 63.1267 72.4032 64.8638 70.2753 64.8638Z" fill="url(#paint8_linear_7_2)"/> <defs> <linearGradient id="paint0_linear_7_2" x1="75.5" y1="89" x2="75.5" y2="296" gradientUnits="userSpaceOnUse"> <stop stop-color="#3B6CF4"/> <stop offset="1" stop-color="#6050DC"/> </linearGradient> <linearGradient id="paint1_linear_7_2" x1="50.851" y1="36" x2="50.851" y2="70.5714" gradientUnits="userSpaceOnUse"> <stop stop-color="#3B6CF4"/> <stop offset="1" stop-color="#6050DC"/> </linearGradient> <linearGradient id="paint2_linear_7_2" x1="96.0739" y1="75.0527" x2="96.0739" y2="80.782" gradientUnits="userSpaceOnUse"> <stop stop-color="#3B6CF4"/> <stop offset="1" stop-color="#6050DC"/> </linearGradient> <linearGradient id="paint3_linear_7_2" x1="96.1275" y1="85.7893" x2="96.1275" y2="104.961" gradientUnits="userSpaceOnUse"> <stop stop-color="#3B6CF4"/> <stop offset="1" stop-color="#6050DC"/> </linearGradient> <linearGradient id="paint4_linear_7_2" x1="50.851" y1="85.7578" x2="50.851" y2="105" gradientUnits="userSpaceOnUse"> <stop stop-color="#3B6CF4"/> <stop offset="1" stop-color="#6050DC"/> </linearGradient> <linearGradient id="paint5_linear_7_2" x1="50.8593" y1="78.0093" x2="50.8593" y2="83.7219" gradientUnits="userSpaceOnUse"> <stop stop-color="#3B6CF4"/> <stop offset="1" stop-color="#6050DC"/> </linearGradient> <linearGradient id="paint6_linear_7_2" x1="96.1113" y1="51.4407" x2="96.1113" y2="70.5277" gradientUnits="userSpaceOnUse"> <stop stop-color="#3B6CF4"/> <stop offset="1" stop-color="#6050DC"/> </linearGradient> <linearGradient id="paint7_linear_7_2" x1="70.2008" y1="85.907" x2="70.2008" y2="104.986" gradientUnits="userSpaceOnUse"> <stop stop-color="#3B6CF4"/> <stop offset="1" stop-color="#6050DC"/> </linearGradient> <linearGradient id="paint8_linear_7_2" x1="70.2691" y1="51.4536" x2="70.2691" y2="70.5378" gradientUnits="userSpaceOnUse"> <stop stop-color="#3B6CF4"/> <stop offset="1" stop-color="#6050DC"/> </linearGradient> </defs> </svg>
