<svg width="24" height="25" viewBox="0 0 24 25" fill="none" xmlns="http://www.w3.org/2000/svg"> <path fill-rule="evenodd" clip-rule="evenodd" d="M9.93917 13.1465L7.69193 12.3975L7.69192 12.3975L7.69192 12.3975C5.33871 11.6131 4.16211 11.2209 4.16211 10.5001C4.16211 9.77934 5.33872 9.38713 7.69193 8.60273L16.2051 5.76501C17.8609 5.21308 18.6888 4.93711 19.1258 5.37413C19.5628 5.81114 19.2869 6.63904 18.7349 8.29483L15.8972 16.808L15.8972 16.808L15.8972 16.808C15.1128 19.1612 14.7206 20.3378 13.9998 20.3378C13.2791 20.3378 12.8869 19.1612 12.1025 16.808L11.3534 14.5608L15.7069 10.2072C16.0975 9.81668 16.0975 9.18351 15.7069 8.79299C15.3164 8.40247 14.6832 8.40247 14.2927 8.79299L9.93917 13.1465Z" fill="white"/> </svg>