<svg width="30" height="30" viewBox="0 0 30 30" fill="none" xmlns="http://www.w3.org/2000/svg"> <circle cx="15" cy="15" r="15" fill="#FF9B3F"/> <path d="M12.1438 18.6858L11.5892 18.915L12.1438 18.6858ZM11.9184 18.2337L11.4443 18.6014L11.9184 18.2337ZM18.0816 18.2337L18.5557 18.6014L18.0816 18.2337ZM20.4 13C20.4 14.7679 19.5511 16.3373 18.2362 17.3233L18.9561 18.2834C20.5602 17.0805 21.6 15.1616 21.6 13H20.4ZM15 7.6C17.9823 7.6 20.4 10.0177 20.4 13H21.6C21.6 9.35492 18.6451 6.4 15 6.4V7.6ZM9.6 13C9.6 10.0177 12.0177 7.6 15 7.6V6.4C11.3549 6.4 8.4 9.35492 8.4 13H9.6ZM11.7638 17.3233C10.4489 16.3373 9.6 14.7679 9.6 13H8.4C8.4 15.1616 9.43977 17.0805 11.0439 18.2834L11.7638 17.3233ZM13.5974 22.7514C13.5665 21.2728 13.2603 19.8167 12.6983 18.4567L11.5892 18.915C12.0946 20.1378 12.3699 21.4471 12.3977 22.7765L13.5974 22.7514ZM16.5205 22.5689C15.5633 23.0475 14.4367 23.0475 13.4795 22.5689L12.9428 23.6422C14.2378 24.2897 15.7622 24.2897 17.0572 23.6422L16.5205 22.5689ZM17.3017 18.4567C16.7397 19.8167 16.4335 21.2728 16.4026 22.7514L17.6023 22.7765C17.6301 21.4471 17.9054 20.1378 18.4108 18.915L17.3017 18.4567ZM17.0572 23.6422C17.3921 23.4748 17.5948 23.1367 17.6023 22.7765L16.4026 22.7514C16.4041 22.6805 16.4444 22.607 16.5205 22.5689L17.0572 23.6422ZM12.3977 22.7765C12.4052 23.1367 12.6079 23.4748 12.9428 23.6422L13.4795 22.5689C13.5556 22.607 13.5959 22.6805 13.5974 22.7514L12.3977 22.7765ZM11.0439 18.2834C11.192 18.3945 11.2881 18.4667 11.3584 18.5241C11.4289 18.5817 11.4444 18.6016 11.4443 18.6014L12.3925 17.866C12.2472 17.6786 12.0151 17.5118 11.7638 17.3233L11.0439 18.2834ZM12.6983 18.4567C12.6132 18.2508 12.5352 18.0499 12.3925 17.866L11.4443 18.6014C11.4667 18.6303 11.4839 18.66 11.5892 18.915L12.6983 18.4567ZM18.2362 17.3233C17.9849 17.5118 17.7528 17.6786 17.6075 17.866L18.5557 18.6014C18.5556 18.6016 18.5711 18.5817 18.6416 18.5241C18.7119 18.4667 18.808 18.3945 18.9561 18.2834L18.2362 17.3233ZM18.4108 18.915C18.5161 18.66 18.5333 18.6303 18.5557 18.6014L17.6075 17.866C17.4648 18.0499 17.3868 18.2508 17.3017 18.4567L18.4108 18.915Z" fill="white"/> <path d="M18 18.5V18.5C16.1116 19.4443 13.8885 19.4442 12 18.5V18.5" stroke="white" stroke-width="1.2"/> </svg>