<svg width="36" height="36" viewBox="0 0 36 36" fill="none" xmlns="http://www.w3.org/2000/svg">
    <path d="M15.5251 17.0252L14 15.5002M20.4748 17.0252L22 15.5002M22 23.5002L20.4748 21.975M14 23.5002L15.5251 21.975"
          stroke="white" stroke-width="1.2" stroke-linecap="round" />
    <path d="M20.9 19.5C20.9 21.1016 19.6016 22.4 18 22.4V23.6C20.2644 23.6 22.1 21.7644 22.1 19.5H20.9ZM18 16.6C19.6016 16.6 20.9 17.8984 20.9 19.5H22.1C22.1 17.2356 20.2644 15.4 18 15.4V16.6ZM15.1 19.5C15.1 17.8984 16.3984 16.6 18 16.6V15.4C15.7356 15.4 13.9 17.2356 13.9 19.5H15.1ZM18 22.4C16.3984 22.4 15.1 21.1016 15.1 19.5H13.9C13.9 21.7644 15.7356 23.6 18 23.6V22.4ZM18.9 19.5C18.9 19.9971 18.4971 20.4 18 20.4V21.6C19.1598 21.6 20.1 20.6598 20.1 19.5H18.9ZM18 18.6C18.4971 18.6 18.9 19.0029 18.9 19.5H20.1C20.1 18.3402 19.1598 17.4 18 17.4V18.6ZM17.1 19.5C17.1 19.0029 17.5029 18.6 18 18.6V17.4C16.8402 17.4 15.9 18.3402 15.9 19.5H17.1ZM18 20.4C17.5029 20.4 17.1 19.9971 17.1 19.5H15.9C15.9 20.6598 16.8402 21.6 18 21.6V20.4Z"
          fill="white" />
    <path d="M8 13.1296C8 12.2452 8 11.803 8.17552 11.4122C8.35104 11.0213 8.68154 10.7275 9.34254 10.14L10.6133 9.01036C11.1753 8.51086 11.4562 8.26111 11.7996 8.13056C12.143 8 12.519 8 13.2708 8H22.7292C23.481 8 23.857 8 24.2004 8.13056C24.5438 8.26111 24.8247 8.51086 25.3867 9.01036L26.6575 10.14C27.3185 10.7275 27.649 11.0213 27.8245 11.4122C28 11.803 28 12.2452 28 13.1296V24C28 25.8856 28 26.8284 27.4142 27.4142C26.8284 28 25.8856 28 24 28H12C10.1144 28 9.17157 28 8.58579 27.4142C8 26.8284 8 25.8856 8 24V13.1296Z"
          stroke="white" />
    <path d="M8 11.7083H28" stroke="white" stroke-linecap="round" />
    <path d="M18.1335 16.1559L18.1191 13.9993M21.6567 19.6326L23.8134 19.6184M18.1942 25.3127L18.18 23.1558M12.5 19.6936L14.6569 19.6791"
          stroke="white" stroke-linecap="round" />
</svg>
