<svg width="41" height="27" viewBox="0 0 41 27" fill="none" xmlns="http://www.w3.org/2000/svg">
    <path d="M23.5251 12.0252L22 10.5002M28.4748 12.0252L30 10.5002M30 18.5002L28.4748 16.975M22 18.5002L23.5251 16.975"
          stroke="white" stroke-width="1.2" stroke-linecap="round" />
    <path d="M28.9 14.5C28.9 16.1016 27.6016 17.4 26 17.4V18.6C28.2644 18.6 30.1 16.7644 30.1 14.5H28.9ZM26 11.6C27.6016 11.6 28.9 12.8984 28.9 14.5H30.1C30.1 12.2356 28.2644 10.4 26 10.4V11.6ZM23.1 14.5C23.1 12.8984 24.3984 11.6 26 11.6V10.4C23.7356 10.4 21.9 12.2356 21.9 14.5H23.1ZM26 17.4C24.3984 17.4 23.1 16.1016 23.1 14.5H21.9C21.9 16.7644 23.7356 18.6 26 18.6V17.4ZM26.9 14.5C26.9 14.9971 26.4971 15.4 26 15.4V16.6C27.1598 16.6 28.1 15.6598 28.1 14.5H26.9ZM26 13.6C26.4971 13.6 26.9 14.0029 26.9 14.5H28.1C28.1 13.3402 27.1598 12.4 26 12.4V13.6ZM25.1 14.5C25.1 14.0029 25.5029 13.6 26 13.6V12.4C24.8402 12.4 23.9 13.3402 23.9 14.5H25.1ZM26 15.4C25.5029 15.4 25.1 14.9971 25.1 14.5H23.9C23.9 15.6598 24.8402 16.6 26 16.6V15.4Z"
          fill="white" />
    <path d="M16 8.1296C16 7.2452 16 6.80301 16.1755 6.41215C16.351 6.0213 16.6815 5.72752 17.3425 5.13996L18.6133 4.01036C19.1753 3.51086 19.4562 3.26111 19.7996 3.13056C20.143 3 20.519 3 21.2708 3H30.7292C31.481 3 31.857 3 32.2004 3.13056C32.5438 3.26111 32.8247 3.51086 33.3867 4.01036L34.6575 5.13996C35.3185 5.72752 35.649 6.0213 35.8245 6.41215C36 6.80301 36 7.24521 36 8.1296V19C36 20.8856 36 21.8284 35.4142 22.4142C34.8284 23 33.8856 23 32 23H20C18.1144 23 17.1716 23 16.5858 22.4142C16 21.8284 16 20.8856 16 19V8.1296Z"
          stroke="white" />
    <path d="M16 6.70825H36" stroke="white" stroke-linecap="round" />
    <path d="M26.1335 11.1559L26.1191 8.99927M29.6567 14.6326L31.8134 14.6184M26.1942 20.3127L26.18 18.1558M20.5 14.6936L22.6569 14.6791"
          stroke="white" stroke-linecap="round" />
    <path d="M15 15L15.7071 14.2929L16.4142 15L15.7071 15.7071L15 15ZM3 16C2.44772 16 2 15.5523 2 15C2 14.4477 2.44772 14 3 14V16ZM11.7071 10.2929L15.7071 14.2929L14.2929 15.7071L10.2929 11.7071L11.7071 10.2929ZM15.7071 15.7071L11.7071 19.7071L10.2929 18.2929L14.2929 14.2929L15.7071 15.7071ZM15 16H3V14H15V16Z"
          fill="white" />
</svg>
