<svg width="36" height="36" viewBox="0 0 36 36" fill="none" xmlns="http://www.w3.org/2000/svg">
    <path d="M15.0303 16.1164L13.2002 14.3262M20.97 16.1164L22.8002 14.3262M22.8002 23.7175L20.97 21.9269M13.2002 23.7175L15.0303 21.9269"
          stroke="white" stroke-width="1.2" stroke-linecap="round" />
    <path d="M21.5998 19.0218C21.5998 20.9472 20.0005 22.5305 17.9998 22.5305V23.7305C20.6383 23.7305 22.7998 21.6347 22.7998 19.0218H21.5998ZM17.9998 15.5131C20.0005 15.5131 21.5998 17.0963 21.5998 19.0218H22.7998C22.7998 16.4089 20.6383 14.3131 17.9998 14.3131V15.5131ZM14.3998 19.0218C14.3998 17.0963 15.9991 15.5131 17.9998 15.5131V14.3131C15.3613 14.3131 13.1998 16.4089 13.1998 19.0218H14.3998ZM17.9998 22.5305C15.9991 22.5305 14.3998 20.9472 14.3998 19.0218H13.1998C13.1998 21.6347 15.3613 23.7305 17.9998 23.7305V22.5305ZM19.1998 19.0218C19.1998 19.6505 18.675 20.1827 17.9998 20.1827V21.3827C19.3128 21.3827 20.3998 20.338 20.3998 19.0218H19.1998ZM17.9998 17.8609C18.675 17.8609 19.1998 18.393 19.1998 19.0218H20.3998C20.3998 17.7055 19.3128 16.6609 17.9998 16.6609V17.8609ZM16.7998 19.0218C16.7998 18.393 17.3246 17.8609 17.9998 17.8609V16.6609C16.6868 16.6609 15.5998 17.7055 15.5998 19.0218H16.7998ZM17.9998 20.1827C17.3246 20.1827 16.7998 19.6505 16.7998 19.0218H15.5998C15.5998 20.338 16.6868 21.3827 17.9998 21.3827V20.1827Z"
          fill="white" />
    <path d="M6 11.2573C6 10.3603 6 9.91187 6.18001 9.51679C6.36002 9.12171 6.69844 8.82743 7.37529 8.23887L9.37119 6.50331C9.92944 6.01787 10.2086 5.77515 10.5474 5.64844C10.8862 5.52173 11.2561 5.52173 11.9959 5.52173H24.0041C24.7439 5.52173 25.1138 5.52173 25.4526 5.64844C25.7914 5.77515 26.0706 6.01787 26.6288 6.50331L28.6247 8.23887C29.3016 8.82743 29.64 9.12171 29.82 9.51679C30 9.91187 30 10.3603 30 11.2573V25C30 26.8856 30 27.8284 29.4142 28.4142C28.8284 29 27.8856 29 26 29H10C8.11438 29 7.17157 29 6.58579 28.4142C6 27.8284 6 26.8856 6 25V11.2573Z"
          stroke="white" stroke-width="2" />
    <path d="M6 9.875H30" stroke="white" stroke-width="2" stroke-linecap="round" />
    <path d="M18.1599 15.0962L18.1426 12.5645M22.3877 19.1775L24.9757 19.1609M18.2327 25.8455L18.2156 23.3134M11.3996 19.249L13.9878 19.2321"
          stroke="white" stroke-linecap="round" />
</svg>
