<?xml version="1.0" encoding="UTF-8" standalone="no"?>
<svg
   width="62.265995"
   height="62.263329"
   viewBox="0 0 62.265995 62.263329"
   fill="none"
   version="1.1"
   id="svg123"
   sodipodi:docname="vault-big.svg"
   inkscape:version="1.1.1 (3bf5ae0d25, 2021-09-20)"
   xmlns:inkscape="http://www.inkscape.org/namespaces/inkscape"
   xmlns:sodipodi="http://sodipodi.sourceforge.net/DTD/sodipodi-0.dtd"
   xmlns="http://www.w3.org/2000/svg"
   xmlns:svg="http://www.w3.org/2000/svg">
  <sodipodi:namedview
     id="namedview125"
     pagecolor="#ffffff"
     bordercolor="#666666"
     borderopacity="1.0"
     inkscape:pageshadow="2"
     inkscape:pageopacity="0.0"
     inkscape:pagecheckerboard="0"
     showgrid="false"
     inkscape:zoom="11.695652"
     inkscape:cx="29.498141"
     inkscape:cy="34.5"
     inkscape:window-width="1920"
     inkscape:window-height="1016"
     inkscape:window-x="0"
     inkscape:window-y="27"
     inkscape:window-maximized="1"
     inkscape:current-layer="svg123" />
  <path
     d="m 2.0025475,13.508344 c 0,-0.8844 0,-1.3266 0.1755,-1.7174 0.1756,-0.3909 0.5061,-0.6847 1.1671,-1.2722 l 8.4446995,-7.50642 c 0.5619,-0.4995 0.8429,-0.74925 1.1863,-0.87981 0.3434,-0.13056 0.7193,-0.13056 1.4711,-0.13056 h 33.3715 c 0.7518,0 1.1278,0 1.4712,0.13056 0.3433,0.13056 0.6243,0.38031 1.1862,0.87981 l 8.4448,7.50642 c 0.661,0.5875 0.9915,0.8813 1.167,1.2722 0.1755,0.3908 0.1755,0.833 0.1755,1.7174 v 42.7545 c 0,1.8856 0,2.8284 -0.5858,3.4142 -0.5858,0.5858 -1.5286,0.5858 -3.4142,0.5858 H 6.0025475 c -1.8856,0 -2.8284,0 -3.4142,-0.5858 -0.5858,-0.5858 -0.5858,-1.5286 -0.5858,-3.4142 z"
     stroke="url(#paint0_linear_1695_19756)"
     stroke-width="4"
     id="path84"
     style="stroke:url(#paint0_linear_1695_19756)" />
  <path
     d="M 2.0025475,12.804644 H 60.263447"
     stroke="url(#paint1_linear_1695_19756)"
     stroke-width="4"
     stroke-linecap="round"
     id="path86"
     style="stroke:url(#paint1_linear_1695_19756)" />
  <path
     d="m 31.522047,25.760744 -0.0419,-6.2825 m 10.305,16.4103 6.2827,-0.0414 m -16.3689,16.5877 -0.0415,-6.2832 m -16.5462,-10.0857 6.2831,-0.042"
     stroke="url(#paint2_linear_1695_19756)"
     stroke-width="4"
     stroke-linecap="round"
     id="path88"
     style="stroke:url(#paint2_linear_1695_19756)" />
  <path
     d="m 23.923747,29.748944 -4.4427,-4.4423 m 18.8616,4.4423 4.4428,-4.4423 m 0,23.3043 -4.4428,-4.4431 m -18.8616,4.4431 4.4427,-4.4431"
     stroke="url(#paint3_linear_1695_19756)"
     stroke-width="4"
     stroke-linecap="round"
     id="path90"
     style="stroke:url(#paint3_linear_1695_19756)" />
  <path
     fill-rule="evenodd"
     clip-rule="evenodd"
     d="m 31.132847,47.154244 c 5.6309,0 10.1956,-4.5647 10.1956,-10.1956 0,-5.631 -4.5647,-10.1957 -10.1956,-10.1957 -5.631,0 -10.1957,4.5647 -10.1957,10.1957 0,5.6309 4.5647,10.1956 10.1957,10.1956 z m 0,-5.8261 c 2.4132,0 4.3695,-1.9563 4.3695,-4.3695 0,-2.4133 -1.9563,-4.3696 -4.3695,-4.3696 -2.4133,0 -4.3696,1.9563 -4.3696,4.3696 0,2.4132 1.9563,4.3695 4.3696,4.3695 z"
     fill="#7e869e"
     fill-opacity="0.25"
     id="path92" />
  <path
     d="m 39.828447,36.958644 c 0,4.8024 -3.8932,8.6956 -8.6956,8.6956 v 3 c 6.4593,0 11.6956,-5.2363 11.6956,-11.6956 z m -8.6956,-8.6957 c 4.8024,0 8.6956,3.8932 8.6956,8.6957 h 3 c 0,-6.4594 -5.2363,-11.6957 -11.6956,-11.6957 z m -8.6957,8.6957 c 0,-4.8025 3.8932,-8.6957 8.6957,-8.6957 v -3 c -6.4594,0 -11.6957,5.2363 -11.6957,11.6957 z m 8.6957,8.6956 c -4.8025,0 -8.6957,-3.8932 -8.6957,-8.6956 h -3 c 0,6.4593 5.2363,11.6956 11.6957,11.6956 z m 2.8695,-8.6956 c 0,1.5848 -1.2847,2.8695 -2.8695,2.8695 v 3 c 3.2416,0 5.8695,-2.6279 5.8695,-5.8695 z m -2.8695,-2.8696 c 1.5848,0 2.8695,1.2847 2.8695,2.8696 h 3 c 0,-3.2417 -2.6279,-5.8696 -5.8695,-5.8696 z m -2.8696,2.8696 c 0,-1.5849 1.2847,-2.8696 2.8696,-2.8696 v -3 c -3.2417,0 -5.8696,2.6279 -5.8696,5.8696 z m 2.8696,2.8695 c -1.5849,0 -2.8696,-1.2847 -2.8696,-2.8695 h -3 c 0,3.2416 2.6279,5.8695 5.8696,5.8695 z"
     fill="url(#paint4_linear_1695_19756)"
     id="path94"
     style="fill:url(#paint4_linear_1695_19756)" />
  <defs
     id="defs121">
    <linearGradient
       id="paint0_linear_1695_19756"
       x1="43.6959"
       y1="8.7390099"
       x2="43.6959"
       y2="66.999901"
       gradientUnits="userSpaceOnUse"
       gradientTransform="translate(-12.562853,-6.737056)">
      <stop
         stop-color="#3B6CF4"
         id="stop96" />
      <stop
         offset="1"
         stop-color="#6050DC"
         id="stop98" />
    </linearGradient>
    <linearGradient
       id="paint1_linear_1695_19756"
       x1="43.6959"
       y1="19.5417"
       x2="43.6959"
       y2="20.5417"
       gradientUnits="userSpaceOnUse"
       gradientTransform="translate(-12.562853,-6.737056)">
      <stop
         stop-color="#3B6CF4"
         id="stop101" />
      <stop
         offset="1"
         stop-color="#6050DC"
         id="stop103" />
    </linearGradient>
    <linearGradient
       id="paint2_linear_1695_19756"
       x1="52.3368"
       y1="34.399799"
       x2="35.967899"
       y2="50.987499"
       gradientUnits="userSpaceOnUse"
       gradientTransform="translate(-12.562853,-6.737056)">
      <stop
         stop-color="#3B6CF4"
         id="stop106" />
      <stop
         offset="1"
         stop-color="#6050DC"
         id="stop108" />
    </linearGradient>
    <linearGradient
       id="paint3_linear_1695_19756"
       x1="43.696098"
       y1="32.043701"
       x2="43.696098"
       y2="55.348"
       gradientUnits="userSpaceOnUse"
       gradientTransform="translate(-12.562853,-6.737056)">
      <stop
         stop-color="#3B6CF4"
         id="stop111" />
      <stop
         offset="1"
         stop-color="#6050DC"
         id="stop113" />
    </linearGradient>
    <linearGradient
       id="paint4_linear_1695_19756"
       x1="43.695702"
       y1="33.5"
       x2="43.695702"
       y2="53.8913"
       gradientUnits="userSpaceOnUse"
       gradientTransform="translate(-12.562853,-6.737056)">
      <stop
         stop-color="#3B6CF4"
         id="stop116" />
      <stop
         offset="1"
         stop-color="#6050DC"
         id="stop118" />
    </linearGradient>
  </defs>
</svg>
