<svg width="44" height="27" viewBox="0 0 44 27" fill="none" xmlns="http://www.w3.org/2000/svg">
    <path d="M12.5251 12.0252L11 10.5002M17.4748 12.0252L19 10.5002M19 18.5002L17.4748 16.975M11 18.5002L12.5251 16.975"
          stroke="white" stroke-width="1.2" stroke-linecap="round" />
    <path d="M17.9 14.5C17.9 16.1016 16.6016 17.4 15 17.4V18.6C17.2644 18.6 19.1 16.7644 19.1 14.5H17.9ZM15 11.6C16.6016 11.6 17.9 12.8984 17.9 14.5H19.1C19.1 12.2356 17.2644 10.4 15 10.4V11.6ZM12.1 14.5C12.1 12.8984 13.3984 11.6 15 11.6V10.4C12.7356 10.4 10.9 12.2356 10.9 14.5H12.1ZM15 17.4C13.3984 17.4 12.1 16.1016 12.1 14.5H10.9C10.9 16.7644 12.7356 18.6 15 18.6V17.4ZM15.9 14.5C15.9 14.9971 15.4971 15.4 15 15.4V16.6C16.1598 16.6 17.1 15.6598 17.1 14.5H15.9ZM15 13.6C15.4971 13.6 15.9 14.0029 15.9 14.5H17.1C17.1 13.3402 16.1598 12.4 15 12.4V13.6ZM14.1 14.5C14.1 14.0029 14.5029 13.6 15 13.6V12.4C13.8402 12.4 12.9 13.3402 12.9 14.5H14.1ZM15 15.4C14.5029 15.4 14.1 14.9971 14.1 14.5H12.9C12.9 15.6598 13.8402 16.6 15 16.6V15.4Z"
          fill="white" />
    <path d="M5 8.1296C5 7.2452 5 6.80301 5.17552 6.41215C5.35104 6.0213 5.68154 5.72752 6.34254 5.13996L7.61334 4.01036C8.17528 3.51086 8.45625 3.26111 8.79964 3.13056C9.14303 3 9.51895 3 10.2708 3H19.7292C20.481 3 20.857 3 21.2004 3.13056C21.5438 3.26111 21.8247 3.51086 22.3867 4.01036L23.6575 5.13996C24.3185 5.72752 24.649 6.0213 24.8245 6.41215C25 6.80301 25 7.24521 25 8.1296V19C25 20.8856 25 21.8284 24.4142 22.4142C23.8284 23 22.8856 23 21 23H9C7.11438 23 6.17157 23 5.58579 22.4142C5 21.8284 5 20.8856 5 19V8.1296Z"
          stroke="white" />
    <path d="M5 6.70825H25" stroke="white" stroke-linecap="round" />
    <path d="M15.1335 11.1559L15.1191 8.99927M18.6567 14.6326L20.8134 14.6184M15.1942 20.3127L15.18 18.1558M9.49997 14.6936L11.6569 14.6791"
          stroke="white" stroke-linecap="round" />
    <path d="M35 15L35.7071 14.2929L36.4142 15L35.7071 15.7071L35 15ZM23 16C22.4477 16 22 15.5523 22 15C22 14.4477 22.4477 14 23 14V16ZM31.7071 10.2929L35.7071 14.2929L34.2929 15.7071L30.2929 11.7071L31.7071 10.2929ZM35.7071 15.7071L31.7071 19.7071L30.2929 18.2929L34.2929 14.2929L35.7071 15.7071ZM35 16H23V14H35V16Z"
          fill="white" />
</svg>
