<svg width="23" height="28" viewBox="0 0 23 28" fill="none" xmlns="http://www.w3.org/2000/svg"> <rect x="1" y="5" width="17" height="22" stroke="white" stroke-width="2"/> <rect x="4" y="19" width="10" height="2" fill="white"/> <path d="M13.2325 3.09004C13.0898 3.15964 13 3.30703 13 3.4667V5.64885C13 8.87501 14.7094 10.5249 17.2797 12.1053C17.4143 12.1871 17.5857 12.1871 17.7203 12.1053C20.2906 10.5249 22 8.8791 22 5.64885V3.4667C22 3.30703 21.9102 3.15964 21.7675 3.09004L17.6877 1.04299C17.5694 0.985671 17.4306 0.985671 17.3123 1.04299L13.2325 3.09004Z" fill="#3B6CF4" stroke="#E6007A" stroke-miterlimit="10"/> <path d="M14.0651 3.77495C13.9502 3.83091 13.8779 3.9494 13.8779 4.07776V5.83204C13.8779 8.42561 15.2538 9.75202 17.3226 11.0225C17.4309 11.0883 17.5688 11.0883 17.6772 11.0225C19.746 9.75202 21.1218 8.42891 21.1218 5.83204V4.07776C21.1218 3.9494 21.0496 3.83091 20.9347 3.77495L17.6509 2.12929C17.5557 2.08321 17.4441 2.08321 17.3488 2.12929L14.0651 3.77495Z" fill="white" stroke="#E6007A" stroke-miterlimit="10"/> <path d="M15.8535 6.25063L16.3853 6.88122C16.7849 7.35494 17.5147 7.35494 17.9142 6.88122L19.3657 5.16016" stroke="#E6007A" stroke-miterlimit="10" stroke-linecap="round"/> <rect x="4" y="13" width="10" height="2" fill="white"/> </svg>