<svg width="24" height="25" viewBox="0 0 24 25" fill="none" xmlns="http://www.w3.org/2000/svg"> <path fill-rule="evenodd" clip-rule="evenodd" d="M21 12.5C21 17.4706 16.9706 21.5 12 21.5C7.02944 21.5 3 17.4706 3 12.5C3 7.52944 7.02944 3.5 12 3.5C16.9706 3.5 21 7.52944 21 12.5ZM16.1716 15.2574C16.6951 14.467 17 13.5191 17 12.5C17 9.73858 14.7614 7.5 12 7.5C10.9809 7.5 10.033 7.80488 9.24261 8.3284L16.1716 15.2574ZM7.8284 9.74261L14.7574 16.6716C13.967 17.1951 13.0191 17.5 12 17.5C9.23858 17.5 7 15.2614 7 12.5C7 11.4809 7.30488 10.533 7.8284 9.74261ZM12 5.5C8.13401 5.5 5 8.63401 5 12.5C5 16.366 8.13401 19.5 12 19.5C15.866 19.5 19 16.366 19 12.5C19 8.63401 15.866 5.5 12 5.5Z" fill="white"/> </svg>