<svg width="49" height="60" viewBox="0 0 49 60" fill="none" xmlns="http://www.w3.org/2000/svg">
<path fill-rule="evenodd" clip-rule="evenodd" d="M0 13.2539C0 12.396 0.488667 11.604 1.26609 11.2301L23.4782 0.230981C24.1224 -0.0769936 24.8776 -0.0769936 25.5218 0.230981L47.7339 11.2301C48.5113 11.604 49 12.396 49 13.2539V24.9789C49 42.3355 39.6931 51.1787 25.6995 59.67C24.9665 60.11 24.0335 60.11 23.3005 59.67C9.30689 51.1787 0 42.3135 0 24.9789V13.2539ZM5.07065 16.7531C5.07065 16.0744 5.45977 15.448 6.07883 15.1521L23.7663 6.45138C24.2792 6.20776 24.8806 6.20776 25.3935 6.45138L43.081 15.1521C43.7 15.448 44.0892 16.0744 44.0892 16.7531V26.0281C44.0892 39.7579 36.6781 46.7533 25.535 53.4703C24.9513 53.8184 24.2085 53.8184 23.6248 53.4703C12.4817 46.7533 5.07065 39.7405 5.07065 26.0281V16.7531Z" fill="#EA1F46"/>
<path d="M6.00771 14.9841C5.38894 15.2832 5 15.9168 5 16.6031V25.9831C5 39.8508 12.4075 46.943 23.5453 53.736C24.1287 54.088 24.8713 54.088 25.4547 53.736C36.5925 46.943 44 39.8684 44 25.9831V16.6031C44 15.9168 43.6111 15.2832 42.9923 14.9841L25.3132 6.18478C24.8005 5.93841 24.1995 5.93841 23.6868 6.18478L6.00771 14.9841Z" fill="white"/>
<path d="M24.5 41C31.4036 41 37 35.4036 37 28.5C37 21.5964 31.4036 16 24.5 16C17.5964 16 12 21.5964 12 28.5C12 35.4036 17.5964 41 24.5 41Z" stroke="#EA1F46" stroke-width="3" stroke-linecap="round" stroke-linejoin="round"/>
<path d="M15.748 19.7501L33.248 37.2501" stroke="#EA1F46" stroke-width="3" stroke-linecap="round" stroke-linejoin="round"/>
</svg>
