<svg width="56" height="69" viewBox="0 0 56 69" fill="none" xmlns="http://www.w3.org/2000/svg"> <path fill-rule="evenodd" clip-rule="evenodd" d="M0 15.242C0 14.2554 0.558477 13.3446 1.44696 12.9146L26.8323 0.265628C27.5684 -0.0885426 28.4315 -0.0885426 29.1677 0.265628L54.553 12.9146C55.4415 13.3446 56 14.2554 56 15.242V28.7258C56 48.6858 45.3636 58.8555 29.3708 68.6205C28.5331 69.1265 27.4669 69.1265 26.6292 68.6205C10.6364 58.8555 0 48.6605 0 28.7258V15.242ZM5.79501 19.2661C5.79501 18.4856 6.23973 17.7652 6.94722 17.425L27.1614 7.41909C27.7477 7.13892 28.4349 7.13892 29.0212 7.41909L49.2354 17.425C49.9429 17.7652 50.3876 18.4856 50.3876 19.2661V29.9323C50.3876 45.7216 41.9178 53.7663 29.1829 61.4909C28.5158 61.8911 27.6668 61.8911 26.9997 61.4909C14.2648 53.7663 5.79501 45.7016 5.79501 29.9323V19.2661Z" fill="#EA1F46"/> <path d="M6.94713 17.425C6.23963 17.7652 5.79492 18.4856 5.79492 19.2661V29.9323C5.79492 45.7016 14.2647 53.7664 26.9996 61.4909C27.6667 61.8911 28.5157 61.8911 29.1828 61.4909C41.9177 53.7664 50.3875 45.7216 50.3875 29.9323V19.2661C50.3875 18.4856 49.9428 17.7652 49.2353 17.425L29.0211 7.41911C28.4349 7.13894 27.7476 7.13894 27.1614 7.41911L6.94713 17.425Z" fill="white"/> <path fill-rule="evenodd" clip-rule="evenodd" d="M43 35C43 43.2843 36.2843 50 28 50C19.7157 50 13 43.2843 13 35C13 26.7157 19.7157 20 28 20C36.2843 20 43 26.7157 43 35ZM35.0319 40.6177C36.2635 39.078 37 37.125 37 35C37 30.0294 32.9706 26 28 26C25.875 26 23.922 26.7365 22.3823 27.9681L35.0319 40.6177ZM20.9681 29.3823L33.6177 42.0319C32.078 43.2635 30.125 44 28 44C23.0294 44 19 39.9706 19 35C19 32.875 19.7365 30.922 20.9681 29.3823ZM28 24C21.9249 24 17 28.9249 17 35C17 41.0751 21.9249 46 28 46C34.0751 46 39 41.0751 39 35C39 28.9249 34.0751 24 28 24Z" fill="#EA1F46"/> </svg>