<svg width="24" height="23" viewBox="0 0 24 23" fill="none" xmlns="http://www.w3.org/2000/svg"> <path d="M4 7.75961C4 6.89276 4 6.45934 4.1693 6.07448C4.33861 5.68961 4.65811 5.39674 5.2971 4.81099L5.85304 4.30138C6.41979 3.78186 6.70316 3.5221 7.05292 3.38605C7.40268 3.25 7.7871 3.25 8.55593 3.25H15.4441C16.2129 3.25 16.5973 3.25 16.9471 3.38605C17.2968 3.5221 17.5802 3.78186 18.147 4.30138L18.7029 4.81099C19.3419 5.39674 19.6614 5.68961 19.8307 6.07448C20 6.45934 20 6.89276 20 7.75961V15.75C20 17.6356 20 18.5784 19.4142 19.1642C18.8284 19.75 17.8856 19.75 16 19.75H8C6.11438 19.75 5.17157 19.75 4.58579 19.1642C4 18.5784 4 17.6356 4 15.75V7.75961Z" stroke="white" stroke-width="1.5"/> <path d="M3.91797 8.75H19.918" stroke="white" stroke-width="1.5" stroke-linecap="round"/> <rect x="9" y="0.5" width="6" height="5" fill="white"/> <path d="M8 5.5H16.5V6.5H8V5.5Z" fill="white"/> </svg>