<?xml version="1.0" encoding="UTF-8" standalone="no"?>
<svg
        width="36"
        height="36"
        viewBox="0 0 36 36"
        fill="none"
        version="1.1"
        id="svg4"
        sodipodi:docname="vtp_picto.svg"
        inkscape:version="1.1.2 (0a00cf5339, 2022-02-04)"
        xmlns:inkscape="http://www.inkscape.org/namespaces/inkscape"
        xmlns:sodipodi="http://sodipodi.sourceforge.net/DTD/sodipodi-0.dtd"
        xmlns="http://www.w3.org/2000/svg"
        xmlns:svg="http://www.w3.org/2000/svg">
  <defs
          id="defs8" />
  <sodipodi:namedview
          id="namedview6"
          pagecolor="#ffffff"
          bordercolor="#666666"
          borderopacity="1.0"
          inkscape:pageshadow="2"
          inkscape:pageopacity="0.0"
          inkscape:pagecheckerboard="0"
          showgrid="false"
          width="36px"
          inkscape:zoom="16.88"
          inkscape:cx="14.395735"
          inkscape:cy="20.349526"
          inkscape:window-width="1920"
          inkscape:window-height="1016"
          inkscape:window-x="0"
          inkscape:window-y="27"
          inkscape:window-maximized="1"
          inkscape:current-layer="svg4" />
  <path
          fill-rule="evenodd"
          clip-rule="evenodd"
          d="M 7.3260484,9.1330742 C 6.9885633,9.2977135 6.7764295,9.6463384 6.7764295,10.02403 v 5.161635 c 0,7.63116 4.0401835,11.5339 10.1149275,15.271999 0.318196,0.193782 0.723191,0.193782 1.041408,0 C 24.00751,26.719565 28.04766,22.826504 28.04766,15.185665 V 10.02403 c 0,-0.3776916 -0.21218,-0.7263165 -0.549647,-0.8909558 L 17.855551,4.2909734 c -0.279611,-0.1355789 -0.607433,-0.1355789 -0.887054,0 z M 23.471581,22.449684 v -2.08692 c 0,-1.106954 -0.32981,-2.168603 -0.916897,-2.951384 -0.58698,-0.782781 -1.383268,-1.222457 -2.213483,-1.222457 h -6.260793 c -0.830239,0 -1.626463,0.439676 -2.213527,1.222457 -0.587065,0.782781 -0.916875,1.84443 -0.916875,2.951384 v 2.08692 z M 20.340562,11.493522 c 0,1.728872 -1.401561,3.130402 -3.130401,3.130402 -1.728873,0 -3.130403,-1.40153 -3.130403,-3.130402 0,-1.7288733 1.40153,-3.1303919 3.130403,-3.1303919 1.72884,0 3.130401,1.4015186 3.130401,3.1303919 z"
          fill="white"
          id="path2"
          style="fill:#ffffff;fill-opacity:1;stroke-width:1.06356" />
</svg>
