<svg width="36" height="36" viewBox="0 0 36 36" fill="none" xmlns="http://www.w3.org/2000/svg">
    <path fill-rule="evenodd" clip-rule="evenodd"
          d="M0.516772 4.64833C0.199456 4.80313 0 5.13092 0 5.48604V10.3392C0 17.5143 3.79873 21.1838 9.51043 24.6985C9.80961 24.8807 10.1904 24.8807 10.4896 24.6985C16.2013 21.1838 20 17.5234 20 10.3392V5.48604C20 5.13092 19.8005 4.80313 19.4832 4.64833L10.417 0.0956073C10.1541 -0.0318691 9.84587 -0.0318691 9.58296 0.0956073L0.516772 4.64833ZM15.6974 17.1691V15.2069C15.6974 14.1661 15.3873 13.1679 14.8353 12.4319C14.2834 11.6959 13.5347 11.2825 12.7541 11.2825H6.86747C6.08685 11.2825 5.33821 11.6959 4.78623 12.4319C4.23425 13.1679 3.92415 14.1661 3.92415 15.2069V17.1691H15.6974ZM12.7535 6.86771C12.7535 8.49326 11.4357 9.81103 9.81018 9.81103C8.18463 9.81103 6.86686 8.49326 6.86686 6.86771C6.86686 5.24216 8.18463 3.9244 9.81018 3.9244C11.4357 3.9244 12.7535 5.24216 12.7535 6.86771Z"
          fill="white" />
</svg>
