<svg width="27" height="32" viewBox="0 0 27 32" fill="none" xmlns="http://www.w3.org/2000/svg">
    <path fill-rule="evenodd" clip-rule="evenodd"
          d="M1.4172 5.92232C1.01291 6.11954 0.758789 6.53718 0.758789 6.98962V13.173C0.758789 22.3146 5.59865 26.9898 12.8758 31.4678C13.257 31.6998 13.7421 31.6998 14.1233 31.4678C21.4004 26.9898 26.2403 22.3262 26.2403 13.173V6.98962C26.2403 6.53718 25.9861 6.11954 25.5819 5.92232L14.0309 0.121811C13.6959 -0.0406036 13.3032 -0.0406036 12.9682 0.121811L1.4172 5.92232ZM20.7588 21.875V19.375C20.7588 18.0489 20.3637 16.7771 19.6604 15.8395C18.9572 14.9018 18.0034 14.375 17.0088 14.375H9.50879C8.51423 14.375 7.5604 14.9018 6.85714 15.8395C6.15388 16.7771 5.75879 18.0489 5.75879 19.375V21.875H20.7588ZM17.0088 8.75C17.0088 10.8211 15.3299 12.5 13.2588 12.5C11.1877 12.5 9.50879 10.8211 9.50879 8.75C9.50879 6.67893 11.1877 5 13.2588 5C15.3299 5 17.0088 6.67893 17.0088 8.75Z"
          fill="white" />
</svg>
