<svg width="36" height="36" viewBox="0 0 36 36" fill="none" xmlns="http://www.w3.org/2000/svg">
<path fill-rule="evenodd" clip-rule="evenodd" d="M7.99055 19.9393C8.27186 19.658 8.65339 19.5 9.05121 19.5H11.9488C12.3466 19.5 12.7281 19.658 13.0094 19.9393L15.0607 21.9906C15.342 22.2719 15.5 22.6534 15.5 23.0512V25.9488C15.5 26.3466 15.342 26.7281 15.0607 27.0094L13.0094 29.0607C12.7281 29.342 12.3466 29.5 11.9488 29.5H9.05121C8.65339 29.5 8.27186 29.342 7.99055 29.0607L5.93934 27.0094C5.65804 26.7281 5.5 26.3466 5.5 25.9488V23.0512C5.5 22.6534 5.65804 22.2719 5.93934 21.9906L7.99055 19.9393ZM9.05121 20.5C8.91861 20.5 8.79143 20.5527 8.69766 20.6464L6.64645 22.6977C6.55268 22.7914 6.5 22.9186 6.5 23.0512V25.9488C6.5 26.0814 6.55268 26.2086 6.64645 26.3023L8.69766 28.3536C8.79143 28.4473 8.91861 28.5 9.05121 28.5H11.9488C12.0814 28.5 12.2086 28.4473 12.3023 28.3536L14.3536 26.3023C14.4473 26.2086 14.5 26.0814 14.5 25.9488V23.0512C14.5 22.9186 14.4473 22.7914 14.3536 22.6977L12.3023 20.6464C12.2086 20.5527 12.0814 20.5 11.9488 20.5H9.05121Z" fill="white"/>
<path d="M9.17211 22.2929C9.35964 22.1054 9.614 22 9.87921 22H11.1208C11.386 22 11.6404 22.1054 11.8279 22.2929L12.7071 23.1721C12.8946 23.3596 13 23.614 13 23.8792V25.1208C13 25.386 12.8946 25.6404 12.7071 25.8279L11.8279 26.7071C11.6404 26.8946 11.386 27 11.1208 27H9.87921C9.614 27 9.35964 26.8946 9.17211 26.7071L8.29289 25.8279C8.10536 25.6404 8 25.386 8 25.1208V23.8792C8 23.614 8.10536 23.3596 8.29289 23.1721L9.17211 22.2929Z" fill="white"/>
<path fill-rule="evenodd" clip-rule="evenodd" d="M8.5 11C8.5 10.3697 8.70528 10.0119 8.93013 9.80752C9.16682 9.5924 9.47769 9.50001 9.75074 9.5L26.2215 9.50037C26.4313 9.50037 26.7536 9.63747 27.0407 9.93874C27.3189 10.2307 27.5 10.6124 27.5 11.0004V12.9009C27.1387 12.6523 26.7066 12.5067 26.2501 12.5066L10.6251 12.5C9.36946 12.5 8.90244 12.2059 8.71568 11.9769C8.51578 11.7318 8.50007 11.4146 8.50007 11H8.5ZM7.50007 11H7.5C7.5 10.1303 7.79472 9.48813 8.25756 9.06748C8.70854 8.65761 9.27306 8.5 9.75074 8.5L26.2215 8.50037C26.7902 8.50037 27.3571 8.8212 27.7647 9.24889C28.1811 9.68591 28.5 10.3042 28.5 11.0004V14.7672C28.5 14.773 28.5001 14.7787 28.5001 14.7844V17.5H25.4691C24.3933 17.5 23.5001 18.3955 23.5001 19.5C23.5001 20.6045 24.3933 21.5 25.4691 21.5H28.5001V24.2257C28.5001 25.4555 27.5319 26.5 26.306 26.5H16.5001V22.2232C16.5001 22.0906 16.4474 21.9634 16.3536 21.8697L13.1304 18.6464C13.0366 18.5527 12.9095 18.5 12.7769 18.5H8.22328C8.18539 18.5 8.14799 18.5043 8.11168 18.5126L7.50007 18.6527V11.1148L7.50003 11.0355L7.50007 11Z" fill="white"/>
<path d="M25.5 19.0004C25.7746 19.0004 26 19.2258 26 19.5004C26 19.775 25.7746 20.0004 25.5 20.0004C25.2254 20.0004 25 19.775 25 19.5004C25 19.2258 25.2238 19.0004 25.5 19.0004Z" fill="white"/>
</svg>
