<svg width="60" height="60" viewBox="0 0 60 60" fill="none" xmlns="http://www.w3.org/2000/svg">
<path d="M18.822 3H41.178L57 18.822V41.178L41.178 57H18.822L3 41.178V18.822L18.822 3Z" stroke="url(#paint0_linear)" stroke-width="5" stroke-linecap="round" stroke-linejoin="round"/>
<path fill-rule="evenodd" clip-rule="evenodd" d="M20.5 30.5C19.3954 30.5 18.5 29.6046 18.5 28.5L18.5 22.5C18.5 18.634 21.634 15.5 25.5 15.5L34.6716 15.5L33.0858 13.9142C32.3047 13.1332 32.3047 11.8668 33.0858 11.0858C33.8668 10.3047 35.1332 10.3047 35.9142 11.0858L40.9142 16.0858C41.6953 16.8668 41.6953 18.1332 40.9142 18.9142L35.9142 23.9142C35.1332 24.6953 33.8668 24.6953 33.0858 23.9142C32.3047 23.1332 32.3047 21.8668 33.0858 21.0858L34.6716 19.5H25.5C23.8431 19.5 22.5 20.8431 22.5 22.5L22.5 28.5C22.5 29.6046 21.6046 30.5 20.5 30.5ZM39 27C40.1046 27 41 27.8954 41 29V35C41 38.866 37.866 42 34 42H24.8284L26.4142 43.5858C27.1953 44.3668 27.1953 45.6332 26.4142 46.4142C25.6332 47.1953 24.3668 47.1953 23.5858 46.4142L18.5858 41.4142C17.8047 40.6332 17.8047 39.3668 18.5858 38.5858L23.5858 33.5858C24.3668 32.8047 25.6332 32.8047 26.4142 33.5858C27.1953 34.3668 27.1953 35.6332 26.4142 36.4142L24.8284 38H34C35.6569 38 37 36.6569 37 35V29C37 27.8954 37.8954 27 39 27Z" fill="white"/>
<defs>
<linearGradient id="paint0_linear" x1="30" y1="3" x2="30" y2="57" gradientUnits="userSpaceOnUse">
<stop stop-color="#E95B5B"/>
<stop offset="1" stop-color="#6050DC"/>
</linearGradient>
</defs>
</svg>
