<svg width="54" height="67" viewBox="0 0 54 67" fill="none" xmlns="http://www.w3.org/2000/svg">
<path fill-rule="evenodd" clip-rule="evenodd" d="M0 14.8002C0 13.8422 0.538531 12.9578 1.39529 12.5402L25.874 0.257928C26.5839 -0.0859761 27.4161 -0.0859761 28.126 0.257928L52.6047 12.5402C53.4615 12.9578 54 13.8422 54 14.8002V27.8931C54 47.2746 43.7434 57.1496 28.3218 66.6315C27.5141 67.1228 26.4859 67.1228 25.6782 66.6315C10.2566 57.1496 0 47.25 0 27.8931V14.8002ZM5.58826 18.7076C5.58826 17.9498 6.01709 17.2502 6.69932 16.9199L26.1916 7.20403C26.7569 6.93199 27.4196 6.93199 27.9849 7.20403L47.4772 16.9199C48.1594 17.2502 48.5883 17.9498 48.5883 18.7076V29.0647C48.5883 44.3963 40.421 52.2079 28.1408 59.7085C27.4976 60.0972 26.6789 60.0972 26.0357 59.7085C13.7555 52.2079 5.58826 44.3769 5.58826 29.0647V18.7076Z" fill="url(#paint0_linear)"/>
<path d="M17.5884 31.6405L24.1846 40.0044C24.585 40.5121 25.3546 40.5121 25.755 40.0044L37.5884 25" stroke="white" stroke-width="4" stroke-miterlimit="10" stroke-linecap="round"/>
<defs>
<linearGradient id="paint0_linear" x1="27" y1="0" x2="27" y2="67" gradientUnits="userSpaceOnUse">
<stop stop-color="#3B6CF4"/>
<stop offset="1" stop-color="#6050DC"/>
</linearGradient>
</defs>
</svg>
