<svg width="1172" height="972" viewBox="0 0 586 486" fill="none" xmlns="http://www.w3.org/2000/svg">
<mask id="mask0_961:20012" style="mask-type:alpha" maskUnits="userSpaceOnUse" x="0" y="0" width="586" height="486">
<rect width="586" height="486" fill="#C4C4C4"/>
</mask>
<g mask="url(#mask0_961:20012)">
<g opacity="0.2">
<path d="M16.1514 166.878C6.17554 171.629 0 181.842 0 192.768V342.881C0 564.963 118.523 678.498 296.901 787.282C306.164 792.983 318.04 792.983 327.541 787.282C505.919 678.498 624.442 565.2 624.442 342.881V192.768C624.442 181.842 618.267 171.629 608.291 166.878L325.166 26.0284C316.853 21.9905 307.352 21.9905 299.039 26.0284L16.1514 166.878Z" stroke="black" stroke-width="0.25" stroke-miterlimit="10"/>
<path d="M7.36218 344.544C7.36218 561.4 123.272 672.085 297.375 778.494C306.401 783.957 318.039 783.957 327.303 778.494C501.405 672.323 617.315 561.638 617.315 344.544V197.994C617.315 187.305 611.14 177.329 601.639 172.579L325.165 35.0544C317.089 31.254 307.826 31.254 299.75 35.0544L23.2761 172.579C13.5377 177.329 7.5997 187.068 7.5997 197.994V344.544H7.36218V344.544Z" stroke="black" stroke-width="0.25" stroke-miterlimit="10"/>
<path d="M14.7236 345.969C14.7236 557.362 127.784 665.672 297.611 769.231C306.399 774.694 317.8 774.694 326.826 769.231C496.653 665.672 609.713 557.837 609.713 345.969V202.981C609.713 192.53 603.775 182.792 594.274 178.279L324.688 44.0797C316.85 40.2794 307.587 40.2794 299.986 44.0797L30.4 178.279C20.8992 182.792 14.9611 192.53 14.9611 202.981V345.969H14.7236Z" stroke="black" stroke-width="0.25" stroke-miterlimit="10"/>
<path d="M22.0929 347.394C22.0929 553.562 132.303 659.021 297.854 760.205C306.643 765.431 317.569 765.431 326.357 760.205C491.909 659.259 602.119 554.037 602.119 347.394V207.969C602.119 197.756 596.418 188.255 587.155 183.98L324.219 53.1057C316.619 49.5429 307.593 49.5429 299.992 53.1057L37.0567 183.98C27.7934 188.493 22.0929 197.756 22.0929 207.969V347.394Z" stroke="black" stroke-width="0.25" stroke-miterlimit="10"/>
<path d="M29.4563 349.057C29.4563 549.999 136.816 652.846 298.33 751.179C306.881 756.167 317.569 756.167 325.882 751.179C487.396 652.846 594.756 550.237 594.756 349.057V213.195C594.756 203.219 589.055 193.956 580.267 189.68L323.982 62.1316C316.619 58.5688 307.831 58.5688 300.468 62.1316L44.1826 189.68C35.1568 193.956 29.6938 203.219 29.6938 213.195V349.057H29.4563Z" stroke="black" stroke-width="0.25" stroke-miterlimit="10"/>
<path d="M37.052 350.482C37.052 546.199 141.561 646.195 298.8 742.154C307.113 747.142 317.564 747.142 325.64 742.154C482.878 646.195 587.388 546.437 587.388 350.482V218.183C587.388 208.444 581.925 199.656 573.136 195.381L323.74 71.1575C316.614 67.5946 308.063 67.5946 300.7 71.1575L51.3032 195.381C42.515 199.656 37.052 208.444 37.052 218.183V350.482V350.482Z" stroke="black" stroke-width="0.25" stroke-miterlimit="10"/>
<path d="M44.4135 352.144C44.4135 542.636 146.072 640.019 299.036 733.128C307.111 737.878 317.325 737.878 325.163 733.128C478.126 640.019 580.023 542.873 580.023 352.144V223.408C580.023 213.907 574.797 205.356 566.247 201.081L323.263 80.1829C316.137 76.8576 308.062 76.8576 300.936 80.1829L58.1897 201.081C49.6389 205.119 44.4135 213.907 44.4135 223.408V352.144Z" stroke="black" stroke-width="0.25" stroke-miterlimit="10"/>
<path d="M51.777 353.569C51.777 538.836 150.586 633.369 299.274 724.102C307.112 728.852 317.088 728.852 324.688 724.102C473.376 633.369 572.185 538.836 572.185 353.569V228.396C572.185 219.133 566.96 210.819 558.646 206.782L322.551 89.2088C315.663 85.8835 307.587 85.8835 300.936 89.2088L64.8407 206.782C56.5275 210.819 51.302 219.133 51.302 228.396V353.569H51.777V353.569Z" stroke="black" stroke-width="0.25" stroke-miterlimit="10"/>
<path d="M59.1421 355.232C59.1421 535.035 155.338 627.193 299.751 715.314C307.351 719.827 316.852 719.827 324.453 715.314C468.865 627.193 565.061 535.51 565.061 355.232V233.621C565.061 224.833 560.073 216.52 551.998 212.72L322.553 98.4721C315.902 95.3843 308.064 95.3843 301.413 98.4721L72.2057 212.482C64.13 216.282 59.1421 224.596 59.1421 233.384V355.232V355.232Z" stroke="black" stroke-width="0.25" stroke-miterlimit="10"/>
<path d="M66.5074 356.657C66.5074 531.235 159.853 620.543 299.99 706.05C307.354 710.563 316.617 710.563 323.98 706.05C464.117 620.543 557.463 531.473 557.463 356.657V238.609C557.463 230.059 552.475 221.983 544.874 218.183L322.317 107.498C315.904 104.41 308.304 104.41 301.891 107.498L79.3336 218.183C71.4954 221.983 66.745 229.821 66.745 238.609V356.657H66.5074V356.657Z" stroke="black" stroke-width="0.25" stroke-miterlimit="10"/>
<path d="M74.1055 358.082C74.1055 527.435 164.601 614.13 300.463 697.025C307.588 701.3 316.614 701.3 323.74 697.025C459.839 614.13 550.097 527.672 550.097 358.082V243.597C550.097 235.284 545.347 227.446 537.746 223.883L321.84 116.524C315.664 113.436 308.301 113.436 301.888 116.524L85.9816 223.883C78.3809 227.446 73.6305 235.284 73.6305 243.597V358.082H74.1055Z" stroke="black" stroke-width="0.25" stroke-miterlimit="10"/>
<path d="M81.4746 359.745C81.4746 523.872 169.12 607.717 300.944 687.999C307.832 692.274 316.62 692.274 323.508 687.999C455.332 607.717 542.977 523.872 542.977 359.745V248.823C542.977 240.747 538.465 233.147 531.101 229.584L321.846 125.55C315.67 122.7 308.782 122.7 302.606 125.55L93.3506 229.584C85.9875 233.147 81.4746 240.51 81.4746 248.823V359.745Z" stroke="black" stroke-width="0.25" stroke-miterlimit="10"/>
<path d="M88.834 361.17C88.834 520.071 173.629 601.303 301.178 678.973C307.828 683.011 316.379 683.011 323.029 678.973C450.578 601.066 535.373 520.071 535.373 361.17V253.811C535.373 245.972 530.86 238.609 523.735 235.284L321.367 134.575C315.429 131.725 308.541 131.725 302.84 134.575L100.473 235.284C93.3469 238.609 88.834 245.972 88.834 253.811V361.17Z" stroke="black" stroke-width="0.25" stroke-miterlimit="10"/>
<path d="M96.1953 362.833C96.1953 516.271 178.14 594.89 301.413 670.184C307.826 673.985 316.14 673.985 322.553 670.184C446.063 594.89 528.008 516.508 528.008 362.833V259.036C528.008 251.435 523.733 244.31 516.845 241.222L321.127 143.838C315.427 141.226 308.776 141.226 303.076 143.838L107.359 241.222C100.471 244.547 96.1953 251.435 96.1953 259.036V362.833Z" stroke="black" stroke-width="0.25" stroke-miterlimit="10"/>
<path d="M103.559 364.258C103.559 512.47 182.653 588.24 301.889 660.921C308.064 664.721 316.14 664.721 322.315 660.921C441.313 588.24 520.645 512.708 520.645 364.258V264.024C520.645 256.661 516.37 250.01 509.957 246.685L320.89 152.627C315.427 150.014 309.014 150.014 303.551 152.627L114.485 246.685C107.834 249.773 103.796 256.661 103.796 264.024V364.258H103.559Z" stroke="black" stroke-width="0.25" stroke-miterlimit="10"/>
<path d="M111.16 365.921C111.16 508.908 187.641 582.065 302.364 652.133C308.302 655.696 316.14 655.696 322.078 652.133C436.801 582.065 513.282 508.908 513.282 365.921V269.012C513.282 261.887 509.244 255.474 502.831 252.386L320.415 161.653C315.19 159.04 309.014 159.04 303.551 161.653L121.373 252.386C114.96 255.474 110.922 261.887 110.922 269.012L111.16 365.921Z" stroke="black" stroke-width="0.25" stroke-miterlimit="10"/>
<path d="M118.524 367.346C118.524 505.108 192.155 575.414 302.602 642.87C308.303 646.433 315.666 646.433 321.604 642.87C432.289 575.414 505.683 505.108 505.683 367.346V274.238C505.683 267.35 501.882 261.174 495.707 258.086L320.179 170.679C315.191 168.304 309.015 168.304 304.028 170.679L128.5 258.086C122.324 261.174 118.524 267.35 118.524 274.238V367.346V367.346Z" stroke="black" stroke-width="0.25" stroke-miterlimit="10"/>
<path d="M125.887 368.771C125.887 501.307 196.668 569.001 303.078 633.844C308.541 637.169 315.666 637.169 321.367 633.844C427.776 569.001 498.557 501.307 498.557 368.771V279.225C498.557 272.575 494.757 266.637 488.819 263.787L319.942 179.704C314.954 177.329 309.253 177.329 304.503 179.704L135.626 263.787C129.688 266.637 125.887 272.812 125.887 279.225V368.771V368.771Z" stroke="black" stroke-width="0.25" stroke-miterlimit="10"/>
<path d="M133.25 370.433C133.25 497.507 201.181 562.587 303.315 625.055C308.778 628.381 315.428 628.381 320.891 625.055C423.025 562.825 490.956 497.982 490.956 370.433V284.451C490.956 278.037 487.393 272.337 481.693 269.487L319.466 188.73C314.716 186.354 309.253 186.354 304.502 188.73L142.276 269.487C136.575 272.337 133.012 278.037 133.012 284.451V370.433H133.25Z" stroke="black" stroke-width="0.25" stroke-miterlimit="10"/>
<path d="M140.61 371.858C140.61 493.707 205.691 556.174 303.549 615.792C308.775 618.88 315.188 618.88 320.413 615.792C418.272 556.174 483.352 493.944 483.352 371.858V289.439C483.352 283.501 480.027 277.8 474.564 275.187L319.226 197.756C314.713 195.618 309.487 195.618 304.974 197.756L149.636 275.187C144.173 277.8 140.848 283.501 140.848 289.439V371.858H140.61V371.858Z" stroke="black" stroke-width="0.25" stroke-miterlimit="10"/>
<path d="M148.214 373.521C148.214 490.144 210.444 549.762 304.265 607.004C309.253 609.855 315.428 609.855 320.416 607.004C413.999 549.762 476.467 490.382 476.467 373.521V294.664C476.467 288.964 473.142 283.501 467.917 281.126L319.229 207.019C314.953 204.882 309.965 204.882 305.452 207.019L156.764 281.126C151.539 283.738 148.214 288.964 148.214 294.664V373.521Z" stroke="black" stroke-width="0.25" stroke-miterlimit="10"/>
<path d="M155.577 374.947C155.577 486.344 214.957 543.349 304.503 597.741C309.253 600.592 315.191 600.592 319.941 597.741C409.487 543.112 468.867 486.344 468.867 374.947V299.653C468.867 294.19 465.779 288.964 460.791 286.589L318.754 215.808C314.716 213.908 309.728 213.908 305.69 215.808L163.653 286.589C158.665 288.964 155.577 294.19 155.577 299.653V374.947Z" stroke="black" stroke-width="0.25" stroke-miterlimit="10"/>
<path d="M162.938 376.609C162.938 482.781 219.706 536.935 304.738 588.952C309.251 591.565 314.952 591.565 319.465 588.952C404.735 536.935 461.265 482.781 461.265 376.609V304.64C461.265 299.415 458.177 294.427 453.664 292.289L318.515 225.071C314.477 223.17 309.964 223.17 306.163 225.071L171.014 292.289C166.264 294.664 163.414 299.415 163.414 304.64V376.609H162.938Z" stroke="black" stroke-width="0.25" stroke-miterlimit="10"/>
<path d="M170.302 378.035C170.302 478.981 224.219 530.523 305.214 579.927C309.489 582.54 314.952 582.54 318.99 579.927C399.984 530.523 453.902 478.981 453.902 378.035V309.866C453.902 304.878 451.051 300.365 446.538 297.99L318.04 234.097C314.239 232.197 309.964 232.197 306.164 234.097L177.665 297.99C173.152 300.128 170.302 304.878 170.302 309.866V378.035Z" stroke="black" stroke-width="0.25" stroke-miterlimit="10"/>
<path d="M177.665 379.459C177.665 474.942 228.732 523.872 305.451 570.663C309.489 573.038 314.477 573.038 318.515 570.663C395.234 523.872 446.301 475.18 446.301 379.459V314.853C446.301 310.103 443.688 305.827 439.413 303.69L317.565 243.122C314.002 241.459 309.964 241.459 306.401 243.122L184.553 303.69C180.278 305.827 177.665 310.103 177.665 314.853V379.459Z" stroke="black" stroke-width="0.25" stroke-miterlimit="10"/>
<path d="M185.264 381.122C185.264 471.38 233.481 517.696 305.925 561.875C309.725 564.25 314.476 564.25 318.276 561.875C390.72 517.696 438.937 471.617 438.937 381.122V320.079C438.937 315.566 436.324 311.528 432.286 309.628L317.088 252.386C313.763 250.723 309.725 250.723 306.4 252.386L191.202 309.628C187.164 311.528 184.552 315.804 184.552 320.079V381.122H185.264Z" stroke="black" stroke-width="0.25" stroke-miterlimit="10"/>
<path d="M192.63 382.547C192.63 467.58 237.997 511.046 306.403 552.612C309.966 554.75 314.478 554.75 318.041 552.612C386.21 511.046 431.814 467.58 431.814 382.547V325.067C431.814 320.792 429.438 316.992 425.638 315.092L317.329 261.174C314.241 259.749 310.441 259.749 307.353 261.174L199.043 315.092C195.243 316.992 192.868 320.792 192.868 325.067V382.547H192.63V382.547Z" stroke="black" stroke-width="0.25" stroke-miterlimit="10"/>
<path d="M199.994 384.209C199.994 464.016 242.51 504.632 306.64 543.823C309.966 545.961 314.241 545.961 317.566 543.823C381.697 504.87 424.213 464.016 424.213 384.209V330.292C424.213 326.254 422.076 322.692 418.513 321.029L316.854 270.437C314.004 269.012 310.441 269.012 307.591 270.437L205.932 321.029C202.369 322.692 200.231 326.492 200.231 330.292V384.209H199.994Z" stroke="black" stroke-width="0.25" stroke-miterlimit="10"/>
<path d="M207.357 385.634C207.357 460.216 247.261 498.219 306.878 534.797C309.966 536.698 314.004 536.698 317.092 534.797C376.947 498.219 416.613 460.216 416.613 385.634V335.28C416.613 331.48 414.475 328.154 411.15 326.492L316.142 279.225C313.291 277.8 310.204 277.8 307.353 279.225L212.345 326.492C209.02 328.154 206.882 331.48 206.882 335.28V385.634H207.357V385.634Z" stroke="black" stroke-width="0.25" stroke-miterlimit="10"/>
<path d="M214.72 387.297C214.72 456.416 251.774 491.806 307.353 525.772C310.204 527.434 314.004 527.434 316.854 525.772C372.434 491.806 409.487 456.653 409.487 387.297V340.268C409.487 336.943 407.587 333.617 404.499 332.192L316.142 288.488C313.529 287.301 310.679 287.301 308.066 288.488L219.946 332.43C216.858 333.855 214.958 337.18 214.958 340.505L214.72 387.297Z" stroke="black" stroke-width="0.25" stroke-miterlimit="10"/>
<path d="M222.321 388.723C222.321 452.616 256.524 485.394 307.829 516.746C310.441 518.409 314.004 518.409 316.617 516.746C367.921 485.394 402.124 452.853 402.124 388.723V345.494C402.124 342.406 400.224 339.318 397.374 338.131L315.904 297.515C313.529 296.327 310.679 296.327 308.304 297.515L226.834 338.131C223.984 339.556 222.084 342.406 222.084 345.494V388.723H222.321Z" stroke="black" stroke-width="0.25" stroke-miterlimit="10"/>
<path d="M229.685 390.147C229.685 448.815 261.037 478.742 308.066 507.483C310.442 508.908 313.767 508.908 316.142 507.483C363.171 478.742 394.524 448.815 394.524 390.147V350.481C394.524 347.631 392.861 344.781 390.249 343.593L315.43 306.302C313.292 305.352 310.679 305.352 308.541 306.302L233.722 343.593C231.11 344.781 229.447 347.631 229.447 350.481V390.147H229.685V390.147Z" stroke="black" stroke-width="0.25" stroke-miterlimit="10"/>
<path d="M237.047 391.81C237.047 445.252 265.549 472.567 308.541 498.695C310.678 500.12 313.529 500.12 315.904 498.695C358.895 472.567 387.397 445.252 387.397 391.81V355.707C387.397 353.094 385.972 350.719 383.597 349.532L315.429 315.566C313.529 314.616 311.153 314.616 309.253 315.566L241.085 349.532C238.71 350.719 237.284 353.094 237.284 355.707V391.81H237.047Z" stroke="black" stroke-width="0.25" stroke-miterlimit="10"/>
<path d="M244.41 393.235C244.41 441.452 270.062 465.917 308.778 489.669C310.916 490.856 313.291 490.856 315.429 489.669C354.145 466.154 379.797 441.452 379.797 393.235V360.695C379.797 358.32 378.372 356.182 376.234 354.994L314.954 324.354C313.291 323.404 311.153 323.404 309.253 324.354L247.973 354.994C245.835 355.944 244.41 358.32 244.41 360.695V393.235Z" stroke="black" stroke-width="0.25" stroke-miterlimit="10"/>
<path d="M251.772 394.898C251.772 437.652 274.574 459.741 309.014 480.643C310.914 481.83 313.052 481.83 314.952 480.643C349.393 459.741 372.195 437.889 372.195 394.898V365.92C372.195 363.783 371.007 361.882 369.107 360.932L314.477 333.617C312.814 332.905 311.152 332.905 309.489 333.617L254.859 360.932C252.959 361.882 251.772 363.783 251.772 365.92V394.898V394.898Z" stroke="black" stroke-width="0.25" stroke-miterlimit="10"/>
<path d="M259.373 396.323C259.373 433.852 279.562 453.091 309.727 471.617C311.39 472.567 313.29 472.567 314.952 471.617C345.118 453.091 365.307 434.089 365.307 396.323V370.909C365.307 369.008 364.357 367.346 362.457 366.633L314.477 342.881C313.052 342.169 311.39 342.169 309.964 342.881L261.985 366.633C260.323 367.346 259.135 369.246 259.135 370.909L259.373 396.323Z" stroke="black" stroke-width="0.25" stroke-miterlimit="10"/>
<path d="M266.737 397.986C266.737 430.289 284.076 446.915 309.965 462.592C311.391 463.304 313.053 463.304 314.478 462.592C340.368 446.678 357.707 430.289 357.707 397.986V376.134C357.707 374.472 356.757 373.046 355.332 372.334L314.241 351.907C313.053 351.432 311.628 351.432 310.441 351.907L269.349 372.334C267.924 373.046 266.974 374.472 266.974 376.134L266.737 397.986Z" stroke="black" stroke-width="0.25" stroke-miterlimit="10"/>
<path d="M274.1 399.411C274.1 426.488 288.589 440.264 310.203 453.566C311.391 454.278 312.816 454.278 314.004 453.566C335.618 440.264 350.107 426.488 350.107 399.411V381.122C350.107 379.697 349.394 378.509 348.207 378.034L313.766 360.932C312.816 360.457 311.628 360.457 310.678 360.932L276.238 378.034C275.05 378.509 274.338 379.934 274.338 381.122L274.1 399.411Z" stroke="black" stroke-width="0.25" stroke-miterlimit="10"/>
<path d="M281.461 400.836C281.461 422.688 293.1 433.851 310.676 444.54C311.627 445.015 312.814 445.015 313.764 444.54C331.341 433.851 342.979 422.688 342.979 400.836V386.109C342.979 384.922 342.267 383.972 341.317 383.497L313.527 369.721C312.814 369.245 311.864 369.245 310.914 369.721L283.124 383.497C282.174 383.972 281.461 384.922 281.461 386.109V400.836Z" stroke="black" stroke-width="0.25" stroke-miterlimit="10"/>
<path d="M290.012 389.435C289.3 389.672 288.825 390.622 288.825 391.335V402.498C288.825 419.125 297.613 427.438 310.914 435.514C311.627 435.989 312.577 435.989 313.289 435.514C326.591 427.438 335.379 418.887 335.379 402.498V391.335C335.379 390.622 334.904 389.672 334.191 389.435L313.052 378.984C312.339 378.746 311.627 378.746 311.152 378.984L290.012 389.435Z" stroke="black" stroke-width="0.25" stroke-miterlimit="10"/>
</g>
</g>
</svg>
