<svg width="182" height="416" viewBox="0 0 91 208" fill="none" xmlns="http://www.w3.org/2000/svg">
    <path d="M46.8845 181.029L71.6155 204.753C72.8869 205.973 75 205.072 75 203.31V131.592V0H16V131.592V203.31C16 205.072 18.1131 205.973 19.3845 204.753L44.1155 181.029C44.8893 180.287 46.1108 180.287 46.8845 181.029Z" fill="url(#paint0_linear_977)"/>
    <path d="M2.35131 71.9628C0.907525 72.6609 0 74.1391 0 75.7406V97.6273C0 129.985 17.2842 146.534 43.2724 162.384C44.6337 163.205 46.3663 163.205 47.7276 162.384C73.7158 146.534 91 130.026 91 97.6273V75.7406C91 74.1391 90.0925 72.6609 88.6487 71.9628L47.3976 51.4312C46.2013 50.8563 44.7987 50.8563 43.6024 51.4312L2.35131 71.9628Z" fill="#E6007A"/>
    <path d="M10.8862 77.8451C9.72801 78.406 9 79.594 9 80.8808V98.4684C9 124.47 22.8654 137.768 43.7131 150.505C44.8051 151.165 46.1949 151.165 47.2869 150.505C68.1346 137.768 82 124.503 82 98.4684V80.8808C82 79.594 81.272 78.406 80.1138 77.8451L47.0222 61.3465C46.0626 60.8845 44.9374 60.8845 43.9778 61.3465L10.8862 77.8451Z" fill="white"/>
    <path d="M29 103.376L40.411 117.077C40.8108 117.557 41.548 117.557 41.9478 117.077L62 93" stroke="#E6007A" stroke-width="7" stroke-miterlimit="10" stroke-linecap="round"/>
    <defs>
        <linearGradient id="paint0_linear_977" x1="45.5" y1="0" x2="45.5" y2="208" gradientUnits="userSpaceOnUse">
            <stop stop-color="#3B6CF4"/>
            <stop offset="1" stop-color="#6050DC"/>
        </linearGradient>
    </defs>
</svg>
