<svg width="93" height="205" viewBox="0 0 93 205" fill="none" xmlns="http://www.w3.org/2000/svg"> <path d="M46.8811 180.155L71.6189 203.772C72.8916 204.987 75 204.085 75 202.326V130.959V0H16V130.959V202.326C16 204.085 18.1084 204.987 19.3811 203.772L44.1189 180.155C44.8918 179.417 46.1082 179.417 46.8811 180.155Z" fill="#EA1F46"/> <path fill-rule="evenodd" clip-rule="evenodd" d="M0 73.4049C0 71.779 0.926141 70.2781 2.39955 69.5693L44.4969 48.7234C45.7177 48.1397 47.149 48.1397 48.3698 48.7234L90.4671 69.5693C91.9405 70.2781 92.8667 71.779 92.8667 73.4049V95.6266C92.8667 128.521 75.2279 145.282 48.7066 161.375C47.3174 162.208 45.5493 162.208 44.1601 161.375C17.6388 145.282 0 128.48 0 95.6266V73.4049ZM9.60917 80.0368C9.60917 78.7506 10.3466 77.5633 11.5199 77.0026L45.0418 60.5126C46.014 60.0509 47.1537 60.0509 48.1259 60.5126L81.6478 77.0026C82.8211 77.5633 83.5585 78.7506 83.5585 80.0368V97.6152C83.5585 123.636 69.5129 136.894 48.394 149.625C47.2878 150.284 45.8799 150.284 44.7737 149.625C23.6549 136.894 9.60917 123.603 9.60917 97.6152V80.0368Z" fill="#EA1F46"/> <path d="M11.3854 76.684C10.2127 77.251 9.47559 78.4518 9.47559 79.7525V97.5299C9.47559 123.812 23.5146 137.254 44.6234 150.128C45.7291 150.795 47.1364 150.795 48.2421 150.128C69.3508 137.254 83.3899 123.846 83.3899 97.5299V79.7525C83.3899 78.4518 82.6527 77.251 81.48 76.684L47.974 60.0073C47.0023 59.5404 45.8631 59.5404 44.8915 60.0073L11.3854 76.684Z" fill="white"/> <path d="M46.4327 125.99C59.5166 125.99 70.1231 115.384 70.1231 102.3C70.1231 89.2161 59.5166 78.6095 46.4327 78.6095C33.3488 78.6095 22.7422 89.2161 22.7422 102.3C22.7422 115.384 33.3488 125.99 46.4327 125.99Z" stroke="#EA1F46" stroke-width="7" stroke-linecap="round" stroke-linejoin="round"/> <path d="M29.8457 85.717L63.0124 118.884" stroke="#EA1F46" stroke-width="7" stroke-linecap="round" stroke-linejoin="round"/> </svg>