<svg width="36" height="36" viewBox="0 0 36 36" fill="none" xmlns="http://www.w3.org/2000/svg">
<rect width="36" height="36" rx="10" fill="url(#paint0_linear)"/>
<path fill-rule="evenodd" clip-rule="evenodd" d="M13.2742 8.58579C13.6493 8.21071 14.158 8 14.6884 8H21.3116C21.842 8 22.3507 8.21071 22.7258 8.58579L27.4142 13.2742C27.7893 13.6493 28 14.158 28 14.6884V21.3116C28 21.842 27.7893 22.3507 27.4142 22.7258L22.7258 27.4142C22.3507 27.7893 21.842 28 21.3116 28H14.6884C14.158 28 13.6493 27.7893 13.2742 27.4142L8.58579 22.7258C8.21071 22.3507 8 21.842 8 21.3116V14.6884C8 14.158 8.21071 13.6493 8.58579 13.2742L13.2742 8.58579ZM13 23C13 21.3431 14.3431 20 16 20H20C21.6569 20 23 21.3431 23 23V24C23 24.5523 22.5523 25 22 25H14C13.4477 25 13 24.5523 13 24V23ZM20.5 15.5C20.5 16.8807 19.3807 18 18 18C16.6193 18 15.5 16.8807 15.5 15.5C15.5 14.1193 16.6193 13 18 13C19.3807 13 20.5 14.1193 20.5 15.5Z" fill="white"/>
<defs>
<linearGradient id="paint0_linear" x1="18" y1="0" x2="18" y2="36" gradientUnits="userSpaceOnUse">
<stop stop-color="#3B6CF4"/>
<stop offset="1" stop-color="#6050DC"/>
</linearGradient>
</defs>
</svg>
