<svg width="1440" height="900" viewBox="0 0 1440 900" fill="none" xmlns="http://www.w3.org/2000/svg">
<g opacity="0.3">
<mask id="mask0" style="mask-type:alpha" maskUnits="userSpaceOnUse" x="0" y="0" width="1440" height="900">
<rect width="1440" height="900" fill="url(#paint0_linear)"/>
</mask>
<g mask="url(#mask0)">
<path d="M-1376 900L-1076.1 627.104C-1019.67 570.974 -906.806 558.217 -825.922 597.763L-786.42 616.898C-688.607 664.099 -553.174 634.758 -513.672 558.217L-378.238 290.322C-323.689 181.888 -96.085 181.888 -41.5353 290.322L24.3004 420.442C76.9691 525.049 289.525 531.427 355.361 430.648L411.791 343.901C468.222 257.154 643.157 246.948 722.16 324.765C804.925 406.41 991.146 389.826 1038.17 295.424L1102.13 170.407C1160.44 55.5946 1404.97 64.5244 1444.47 183.164L1689 900C1684.42 900 -1365.71 900 -1376 900Z" fill="url(#paint1_linear)"/>
<path d="M-1376 900L-1138.17 315.103C-1085.5 177.72 -867.305 174.369 -810.875 311.752L-701.775 573.115C-654.75 685.367 -487.339 710.498 -402.693 616.675L-314.285 519.502C-255.973 454.161 -150.636 442.434 -75.3947 491.02L129.637 623.377C159.733 643.482 195.473 653.534 233.093 653.534H490.793C528.414 653.534 564.153 663.587 594.25 683.692L787.995 809.347C866.998 861.284 979.859 844.53 1034.41 772.488L1216.87 536.256C1218.75 532.905 1222.51 529.554 1224.39 527.879C1297.75 445.784 1442.59 462.538 1495.26 556.361L1689 900C1689 900 -1369.14 900 -1376 900Z" fill="url(#paint2_linear)"/>
<path d="M1689 900L1450.11 713.19C1126.57 474.467 972.33 927.476 718.392 589.129L629.984 480.106C571.672 406.798 466.335 393.64 391.094 448.151L289.519 521.46C193.586 592.888 76.9629 630.483 -43.4227 630.483H-176.975C-214.596 630.483 -250.335 641.761 -280.432 664.317L-474.177 805.295C-553.18 863.566 -609.611 871.085 -735.639 763.942C-735.639 763.942 -872.954 651.159 -876.716 647.4C-944.433 564.693 -1085.51 564.693 -1145.7 647.4C-1160.75 666.197 -1175.8 684.994 -1192.73 703.791L-1376 900C-1376 900 1683.28 900 1689 900Z" fill="url(#paint3_linear)"/>
</g>
</g>
<defs>
<linearGradient id="paint0_linear" x1="1440" y1="2.82839e-05" x2="1212.55" y2="1141.59" gradientUnits="userSpaceOnUse">
<stop stop-color="#3B6CF4"/>
<stop offset="1" stop-color="#9F1278"/>
</linearGradient>
<linearGradient id="paint1_linear" x1="156.5" y1="89.0522" x2="156.5" y2="900" gradientUnits="userSpaceOnUse">
<stop stop-color="white"/>
<stop offset="1" stop-color="white" stop-opacity="0"/>
</linearGradient>
<linearGradient id="paint2_linear" x1="156.5" y1="210.375" x2="156.5" y2="900" gradientUnits="userSpaceOnUse">
<stop stop-color="white"/>
<stop offset="1" stop-color="white" stop-opacity="0"/>
</linearGradient>
<linearGradient id="paint3_linear" x1="156.5" y1="414.708" x2="156.5" y2="900" gradientUnits="userSpaceOnUse">
<stop stop-color="white"/>
<stop offset="1" stop-color="white" stop-opacity="0"/>
</linearGradient>
</defs>
</svg>
