<svg width="1440" height="162" viewBox="0 0 1440 162" fill="none" xmlns="http://www.w3.org/2000/svg">
<mask id="mask0" mask-type="alpha" maskUnits="userSpaceOnUse" x="0" y="0" width="1440" height="162">
<rect width="1440" height="162" fill="#E95B5B"/>
</mask>
<g mask="url(#mask0)">
<path d="M1441 200L1328.76 112.233C1176.76 0.0757408 1104.29 212.909 984.988 53.9463L943.453 2.72513C916.056 -31.7167 866.567 -37.8986 831.217 -12.288L783.495 22.1538C738.424 55.7126 683.632 73.3751 627.072 73.3751H564.326C546.652 73.3751 529.86 78.6738 515.721 89.2713L424.695 155.506C387.578 182.882 361.065 186.415 301.855 136.077C301.855 136.077 237.341 83.0894 235.574 81.3232C203.759 42.4657 137.478 42.4657 109.198 81.3232C102.129 90.1544 95.0586 98.9857 87.1049 107.817L1 200C1 200 1438.31 200 1441 200Z" fill="url(#paint0_linear)" fill-opacity="0.4"/>
</g>
<defs>
<linearGradient id="paint0_linear" x1="721" y1="-28" x2="721" y2="200" gradientUnits="userSpaceOnUse">
<stop stop-color="white"/>
<stop offset="1" stop-color="white" stop-opacity="0.1"/>
</linearGradient>
</defs>
</svg>
