<svg width="430" height="489" viewBox="0 0 430 489" fill="none" xmlns="http://www.w3.org/2000/svg">
<mask id="mask0" mask-type="alpha" maskUnits="userSpaceOnUse" x="0" y="0" width="430" height="489">
<rect width="430" height="489" rx="10" fill="url(#paint0_linear)"/>
</mask>
<g mask="url(#mask0)">
<path d="M-504 334L-341 216.5C-314.488 190.129 -261.463 184.135 -223.462 202.715L-204.904 211.705C-158.949 233.881 -117.419 209.384 -98.8605 173.423L-35.231 47.5605C-9.60242 -3.38387 97.3306 -3.38387 122.959 47.5605L153.89 108.694C178.635 157.84 278.498 160.837 309.429 113.489L335.941 72.733C362.454 31.9775 444.642 27.1828 481.759 63.7429C520.644 102.101 608.134 94.3095 630.228 49.9579L660.275 -8.77798C687.671 -62.7191 802.558 -58.5237 821.117 -2.78452L936 334C933.851 334 -499.164 334 -504 334Z" fill="url(#paint1_linear)" fill-opacity="0.4"/>
<path d="M-505 334L-393.264 59.2034C-368.519 -5.342 -266.005 -6.91629 -239.492 57.6291L-188.235 180.423C-166.142 233.161 -87.4886 244.968 -47.7202 200.888L-6.18417 155.234C21.2119 124.536 70.7015 119.026 106.051 141.853L202.379 204.037C216.519 213.483 233.31 218.205 250.985 218.205H372.058C389.733 218.205 406.524 222.928 420.664 232.374L511.69 291.409C548.807 315.811 601.831 307.939 627.46 274.092L713.183 163.106C714.067 161.531 715.834 159.957 716.718 159.17C751.184 120.6 819.232 128.472 843.977 172.551L935 334C935 334 -501.776 334 -505 334Z" fill="url(#paint2_linear)" fill-opacity="0.4"/>
<path d="M935 334L822.765 246.233C670.761 134.076 598.294 346.909 478.988 187.946L437.453 136.725C410.056 102.283 360.567 96.1014 325.217 121.712L277.495 156.154C232.424 189.713 177.632 207.375 121.072 207.375H58.3265C40.6516 207.375 23.8605 212.674 9.72058 223.271L-81.305 289.506C-118.422 316.882 -144.935 320.415 -204.145 270.077C-204.145 270.077 -268.659 217.089 -270.426 215.323C-302.241 176.466 -368.522 176.466 -396.802 215.323C-403.871 224.154 -410.941 232.986 -418.895 241.817L-505 334C-505 334 932.313 334 935 334Z" fill="url(#paint3_linear)" fill-opacity="0.4"/>
</g>
<defs>
<linearGradient id="paint0_linear" x1="430" y1="1.08178e-05" x2="153.391" y2="391.403" gradientUnits="userSpaceOnUse">
<stop stop-color="#3B6CF4"/>
<stop offset="1" stop-color="#6050DC"/>
</linearGradient>
<linearGradient id="paint1_linear" x1="215" y1="-47" x2="215" y2="334" gradientUnits="userSpaceOnUse">
<stop stop-color="white"/>
<stop offset="1" stop-color="white" stop-opacity="0"/>
</linearGradient>
<linearGradient id="paint2_linear" x1="215" y1="10" x2="215" y2="334" gradientUnits="userSpaceOnUse">
<stop stop-color="white"/>
<stop offset="1" stop-color="white" stop-opacity="0"/>
</linearGradient>
<linearGradient id="paint3_linear" x1="215" y1="106" x2="215" y2="334" gradientUnits="userSpaceOnUse">
<stop stop-color="white"/>
<stop offset="1" stop-color="white" stop-opacity="0.1"/>
</linearGradient>
</defs>
</svg>
