<svg width="431" height="489" viewBox="0 0 431 489" fill="none" xmlns="http://www.w3.org/2000/svg">
<mask id="mask0" mask-type="alpha" maskUnits="userSpaceOnUse" x="0" y="0" width="431" height="489">
<rect x="0.00170898" width="430" height="489" rx="10" fill="url(#paint0_linear)"/>
</mask>
<g mask="url(#mask0)">
<path d="M-959 334L-796 216.5C-769.488 190.129 -716.463 184.135 -678.462 202.715L-659.904 211.705C-613.949 233.881 -572.419 209.384 -553.861 173.423L-490.231 47.5605C-464.603 -3.38387 -357.67 -3.38387 -332.041 47.5605L-301.11 108.694C-276.365 157.84 -176.502 160.837 -145.571 113.489L-119.059 72.733C-92.5466 31.9775 -10.3585 27.1828 26.7587 63.7429C65.6434 102.101 153.134 94.3095 175.228 49.9579L205.275 -8.77798C232.671 -62.7191 347.558 -58.5237 366.116 -2.78452L481 334C478.851 334 -954.164 334 -959 334Z" fill="url(#paint1_linear)" fill-opacity="0.4"/>
<path d="M-960 334L-848.264 59.2034C-823.519 -5.342 -721.005 -6.91629 -694.493 57.6291L-643.236 180.423C-621.142 233.161 -542.489 244.968 -502.72 200.888L-461.184 155.234C-433.788 124.536 -384.299 119.026 -348.949 141.853L-252.621 204.037C-238.481 213.483 -221.69 218.205 -204.015 218.205H-82.9422C-65.2673 218.205 -48.4761 222.928 -34.3362 232.374L56.6893 291.409C93.8065 315.811 146.831 307.939 172.46 274.092L258.183 163.106C259.067 161.531 260.834 159.957 261.718 159.17C296.184 120.6 364.232 128.472 388.977 172.551L480 334C480 334 -956.776 334 -960 334Z" fill="url(#paint2_linear)" fill-opacity="0.4"/>
<path d="M480 334L367.765 246.233C215.761 134.076 143.294 346.909 23.9882 187.946L-17.5477 136.725C-44.9438 102.283 -94.4335 96.1014 -129.783 121.712L-177.505 156.154C-222.576 189.713 -277.368 207.375 -333.928 207.375H-396.674C-414.349 207.375 -431.14 212.674 -445.28 223.271L-536.305 289.506C-573.422 316.882 -599.935 320.415 -659.146 270.077C-659.146 270.077 -723.659 217.089 -725.426 215.323C-757.241 176.466 -823.522 176.466 -851.802 215.323C-858.872 224.154 -865.942 232.986 -873.895 241.817L-960 334C-960 334 477.313 334 480 334Z" fill="url(#paint3_linear)" fill-opacity="0.4"/>
</g>
<defs>
<linearGradient id="paint0_linear" x1="430.002" y1="1.53676e-05" x2="223.374" y2="569.977" gradientUnits="userSpaceOnUse">
<stop stop-color="#3B6CF4"/>
<stop offset="1" stop-color="#E6007A"/>
</linearGradient>
<linearGradient id="paint1_linear" x1="-240" y1="-47" x2="-240" y2="334" gradientUnits="userSpaceOnUse">
<stop stop-color="white"/>
<stop offset="1" stop-color="white" stop-opacity="0"/>
</linearGradient>
<linearGradient id="paint2_linear" x1="-240" y1="10" x2="-240" y2="334" gradientUnits="userSpaceOnUse">
<stop stop-color="white"/>
<stop offset="1" stop-color="white" stop-opacity="0"/>
</linearGradient>
<linearGradient id="paint3_linear" x1="-240" y1="106" x2="-240" y2="334" gradientUnits="userSpaceOnUse">
<stop stop-color="white"/>
<stop offset="1" stop-color="white" stop-opacity="0.1"/>
</linearGradient>
</defs>
</svg>
